<svg xmlns="http://www.w3.org/2000/svg" width="892.033" height="919.98" viewBox="0 0 892.033 919.98">
  <g id="color_wheel-01" transform="translate(-256.988 -80.01)">
    <g id="Grupo_63579" data-name="Grupo 63579">
      <g id="Grupo_63578" data-name="Grupo 63578">
        <path id="Trazado_132952" data-name="Trazado 132952" d="M910.07,333.69a293.1,293.1,0,0,0-131.33-75.83h0l-76,283.57,207.6-207.59Z" fill="#fac712"/>
        <path id="Trazado_132953" data-name="Trazado 132953" d="M778.74,257.86a295.69,295.69,0,0,0-152,0l2.15,8c.77,2.9,1.57,5.87,2.38,8.91l1.29,4.8c.75,2.81,1.52,5.7,2.33,8.69l.41,1.56c.61,2.27,1.24,4.63,1.89,7l4.44,16.56.27,1,3.44,12.81.92,3.44,56.46,210.73L750.3,364h0Z" fill="#feef00"/>
        <path id="Trazado_132954" data-name="Trazado 132954" d="M986.32,465.45h0A293.279,293.279,0,0,0,910.5,334.11l-.16-.27-.05.06h0l-56.51,56.5-151,151Z" fill="#f69f23"/>
        <path id="Trazado_132955" data-name="Trazado 132955" d="M778.74,825h0L750.3,718.88h0L702.75,541.43,626.77,825h0a295.649,295.649,0,0,0,152,0Z" fill="#7421b0"/>
        <path id="Trazado_132956" data-name="Trazado 132956" d="M702.75,541.43,495.17,749l.24.14A293.27,293.27,0,0,0,626.77,825h0L655.2,718.89h0Z" fill="#3a48ba"/>
        <path id="Trazado_132957" data-name="Trazado 132957" d="M910.07,749.18l.27-.16-.05-.06h0L832.63,671.3h0L702.75,541.43l76,283.57h0a293.279,293.279,0,0,0,131.32-75.82Z" fill="#d2298e"/>
        <path id="Trazado_132958" data-name="Trazado 132958" d="M702.75,541.43l-283.57,76h0A293.239,293.239,0,0,0,495,748.76l.14.26h.06l77.66-77.66h0Z" fill="#006fc4"/>
        <path id="Trazado_132959" data-name="Trazado 132959" d="M986.31,617.43h0L880.2,589h0L702.75,541.43,910.34,749l.15-.27a293,293,0,0,0,75.82-131.3Z" fill="#ff2600"/>
        <path id="Trazado_132960" data-name="Trazado 132960" d="M996.25,541.43a293.631,293.631,0,0,0-9.93-76h0L880.2,493.88h0L702.75,541.43l283.57,76h0A293.7,293.7,0,0,0,996.25,541.43Z" fill="#fb6312"/>
        <path id="Trazado_132961" data-name="Trazado 132961" d="M702.75,541.43l-283.57-76h0a295.649,295.649,0,0,0,0,152L525.29,589h0Z" fill="#00c2af"/>
        <path id="Trazado_132962" data-name="Trazado 132962" d="M702.75,541.43,655.2,364h0c-.36-1.37-.71-2.65-1.07-4l-2.8-10.45c-1.27-4.76-2.5-9.35-3.66-13.68l-3.42-12.75-1.07-4L640,307.37c-.09-.32-.17-.62-.25-.93l-13-48.58h0A293.049,293.049,0,0,0,495.42,333.7l-.26.14Z" fill="#7fd200"/>
        <path id="Trazado_132963" data-name="Trazado 132963" d="M702.75,541.43,495.17,333.84l-.14.25a293.15,293.15,0,0,0-75.85,131.36l106.11,28.43h0Z" fill="#00b500"/>
      </g>
      <path id="Trazado_132964" data-name="Trazado 132964" d="M702.75,247.93c-162.1,0-293.5,131.4-293.5,293.5s131.4,293.5,293.5,293.5,293.5-131.4,293.5-293.5S864.85,247.93,702.75,247.93Zm0,536.85c-134.4,0-243.35-108.95-243.35-243.35s109-243.35,243.35-243.35S946.1,407,946.1,541.43,837.15,784.78,702.75,784.78Z" opacity="0.3"/>
      <path id="Trazado_132965" data-name="Trazado 132965" d="M702.75,298.08c-134.4,0-243.35,109-243.35,243.35s109,243.35,243.35,243.35S946.1,675.83,946.1,541.43,837.15,298.08,702.75,298.08Zm0,436.82c-106.85,0-193.47-86.62-193.47-193.47S595.9,348,702.75,348s193.47,86.62,193.47,193.47S809.6,734.9,702.75,734.9Z" opacity="0.15"/>
      <path id="Trazado_132966" data-name="Trazado 132966" d="M702.75,397.85A143.58,143.58,0,1,0,846.33,541.43,143.58,143.58,0,0,0,702.75,397.85Zm0,237.28a93.7,93.7,0,1,1,93.7-93.7A93.7,93.7,0,0,1,702.75,635.13Z" fill="#fff" opacity="0.5"/>
      <path id="Trazado_132967" data-name="Trazado 132967" d="M702.75,447.73a93.7,93.7,0,1,0,93.7,93.7,93.7,93.7,0,0,0-93.7-93.7Zm0,137.51a43.815,43.815,0,1,0-.01,0Z" fill="#fff" opacity="0.75"/>
      <circle id="Elipse_5341" data-name="Elipse 5341" cx="43.81" cy="43.81" r="43.81" transform="translate(658.94 497.62)" fill="#fff"/>
    </g>
    <g id="Grupo_63580" data-name="Grupo 63580">
      <path id="Trazado_132968" data-name="Trazado 132968" d="M667.17,225.73l-1.74-3.42-6.61.84-.84,3.74-1.5.2,3.44-14.93,1.67-.21,7.07,13.59Zm-8-3.93,5.67-.72L661,213.55Z"/>
      <path id="Trazado_132969" data-name="Trazado 132969" d="M686.3,224.1l-1.37.1-1.88-12.1-4,12.55-.8.06L672.47,213l-.05,12.16-1.38.1v-14.4l1.77-.14,5.7,11.49L682.37,210l1.79-.13Z"/>
      <path id="Trazado_132970" data-name="Trazado 132970" d="M699.47,223.74l-1.39-3.57-6.66.17L690.21,224H688.7l4.93-14.5h1.68L701,223.7ZM691.86,219l5.71-.15L694.51,211Z"/>
      <path id="Trazado_132971" data-name="Trazado 132971" d="M711.81,223.85l-3.57-6.6H705.5l-.11,6.54h-1.43l.23-14.36,4.62.07a4.16,4.16,0,0,1,3.11,1.17,4,4,0,0,1,1,2.88,3.78,3.78,0,0,1-.89,2.52,3.64,3.64,0,0,1-2.41,1.21l3.79,6.67Zm-6.21-13.18-.08,5.33,3,.05a3.17,3.17,0,0,0,2.27-.68,2.53,2.53,0,0,0,.78-1.92,2.56,2.56,0,0,0-.73-2,3.07,3.07,0,0,0-2.23-.77Z"/>
      <path id="Trazado_132972" data-name="Trazado 132972" d="M716.75,224l.64-14.35,1.43.06-.64,14.35Z"/>
      <path id="Trazado_132973" data-name="Trazado 132973" d="M724.38,223.13l5.14.36-.09,1.31-6.57-.45,1-14.33,1.43.1Z"/>
      <path id="Trazado_132974" data-name="Trazado 132974" d="M733.91,223.91l5.13.5-.13,1.32-6.55-.65,1.42-14.3,1.42.14Z"/>
      <path id="Trazado_132975" data-name="Trazado 132975" d="M747.28,227a7.33,7.33,0,0,1-3.44-1.35,6.41,6.41,0,0,1-2.17-2.9,8.7,8.7,0,0,1,1.09-7.81,6.4,6.4,0,0,1,2.88-2.19,7.29,7.29,0,0,1,3.68-.36,7.38,7.38,0,0,1,2.67.88,6.811,6.811,0,0,1,2,1.74,6.669,6.669,0,0,1,1.18,2.52,8.4,8.4,0,0,1,.11,3.14,8.291,8.291,0,0,1-1,3,6.351,6.351,0,0,1-1.82,2.1,6.631,6.631,0,0,1-2.42,1.12,7.33,7.33,0,0,1-2.76.11Zm-1.94-2.07a6,6,0,0,0,2.13.71,5.78,5.78,0,0,0,2.24-.1,5.24,5.24,0,0,0,1.93-.89,5.11,5.11,0,0,0,1.45-1.71,7.63,7.63,0,0,0,.71-5.05,5.139,5.139,0,0,0-.94-2,5.371,5.371,0,0,0-1.61-1.38,6.16,6.16,0,0,0-4.37-.61,5.35,5.35,0,0,0-1.94.88,5.08,5.08,0,0,0-1.46,1.7,6.909,6.909,0,0,0-.79,2.46,7.171,7.171,0,0,0,.08,2.59,5,5,0,0,0,2.57,3.43Z"/>
    </g>
    <g id="Grupo_63581" data-name="Grupo 63581">
      <path id="Trazado_132976" data-name="Trazado 132976" d="M654,177a5,5,0,0,1,4,1,5.33,5.33,0,0,1,1.94,3.56,5.16,5.16,0,0,1-.9,3.92,5,5,0,0,1-3.56,2l-3.4.47.81,5.85-3.39.46-2.24-16.3Zm.48,7.71a2.52,2.52,0,0,0,1.78-.89,2.46,2.46,0,0,0,.37-1.86,2.4,2.4,0,0,0-.86-1.65,2.49,2.49,0,0,0-2-.4l-2.83.39.66,4.8Z"/>
      <path id="Trazado_132977" data-name="Trazado 132977" d="M672.75,191.44l-5-6.81-1,.09.69,7.22-3.41.32-1.55-16.39,5.94-.56a7,7,0,0,1,2.42.16,4,4,0,0,1,1.75.89,4.59,4.59,0,0,1,1.08,1.46,5.65,5.65,0,0,1,.49,1.89,4.05,4.05,0,0,1-.64,2.78,4.5,4.5,0,0,1-2.44,1.65l5.63,6.92Zm-6.54-13.07.37,3.92,2-.19c1.7-.16,2.49-.89,2.37-2.2a1.82,1.82,0,0,0-.76-1.38,3.05,3.05,0,0,0-2-.34Z"/>
      <path id="Trazado_132978" data-name="Trazado 132978" d="M679.13,191l-1-16.42,3.41-.22,1,16.43Z"/>
      <path id="Trazado_132979" data-name="Trazado 132979" d="M705.47,190l-3.41.07-1.34-12.38-3.91,12.49H694.6L690.18,178l-.84,12.42-3.41.07L687,174l4.88-.1,3.72,10.25,3.34-10.4,4.87-.1Z"/>
      <path id="Trazado_132980" data-name="Trazado 132980" d="M719.84,190.53l-1.08-3.44-6.91-.23-1.31,3.35-3.5-.12,6.62-16.24,4.17.14,5.5,16.66ZM713,184l4.9.16-2.21-7.06Z"/>
      <path id="Trazado_132981" data-name="Trazado 132981" d="M734.3,191.52,730.6,184l-1-.08-.57,7.22-3.41-.26,1.3-16.41,5.95.47a6.819,6.819,0,0,1,2.35.57,4.19,4.19,0,0,1,1.57,1.18,4.54,4.54,0,0,1,.81,1.63,5.841,5.841,0,0,1,.16,1.94,4.07,4.07,0,0,1-1.11,2.63,4.609,4.609,0,0,1-2.69,1.21l4.35,7.78Zm-4.18-14-.31,3.92,2,.16c1.7.14,2.61-.45,2.71-1.75a1.77,1.77,0,0,0-.51-1.49,3,3,0,0,0-1.89-.68Z"/>
      <path id="Trazado_132982" data-name="Trazado 132982" d="M740.68,192.15l1.82-16.36,3.39.38-1.82,16.36Z"/>
      <path id="Trazado_132983" data-name="Trazado 132983" d="M755.33,194.26a9,9,0,0,1-4.13-1.66,7.51,7.51,0,0,1-2.53-3.38,9.7,9.7,0,0,1,1.32-8.84,7.41,7.41,0,0,1,3.41-2.47,9.59,9.59,0,0,1,8.54,1.27,7.41,7.41,0,0,1,2.53,3.37,9.67,9.67,0,0,1-1.32,8.83,7.54,7.54,0,0,1-3.41,2.5A9,9,0,0,1,755.33,194.26Zm-2.89-5.06a4.85,4.85,0,0,0,3.35,2,4.8,4.8,0,0,0,3.77-.89,6.05,6.05,0,0,0,1.15-7.68,5.23,5.23,0,0,0-7.12-1.06,6,6,0,0,0-1.15,7.67Z"/>
    </g>
    <g id="Grupo_63582" data-name="Grupo 63582">
      <path id="Trazado_132984" data-name="Trazado 132984" d="M987.57,682l7.49-.47,1.19-2.47-5.9-2.84.62-1.29,12.95,6.23-2,4.16a4.16,4.16,0,0,1-2.37,2.34,3.91,3.91,0,0,1-3-.26,3.82,3.82,0,0,1-1.91-1.87,3.671,3.671,0,0,1-.09-2.7l-7.65.66Zm14.57-.1-4.81-2.32L996,682.31a3.18,3.18,0,0,0-.33,2.34,2.53,2.53,0,0,0,1.41,1.52,2.62,2.62,0,0,0,2.09.16,3.14,3.14,0,0,0,1.64-1.7Z"/>
      <path id="Trazado_132985" data-name="Trazado 132985" d="M982.5,691.35a7.35,7.35,0,0,1,2.46-2.76,6.29,6.29,0,0,1,3.46-1,8.63,8.63,0,0,1,7,3.7,6.39,6.39,0,0,1,1.07,3.45,7.347,7.347,0,0,1-.92,3.58,7.541,7.541,0,0,1-1.75,2.21,6.92,6.92,0,0,1-2.33,1.31,6.491,6.491,0,0,1-2.77.23,8.91,8.91,0,0,1-5.46-2.91,6.541,6.541,0,0,1-1.35-2.43,6.731,6.731,0,0,1-.22-2.65A7.47,7.47,0,0,1,982.5,691.35Zm2.61-1.11a5.8,5.8,0,0,0-1.39,1.76,6,6,0,0,0-.68,2.13,5.389,5.389,0,0,0,.17,2.12,5.141,5.141,0,0,0,1.11,2,7.64,7.64,0,0,0,4.5,2.4,5.11,5.11,0,0,0,2.23-.18,5.231,5.231,0,0,0,1.85-1,5.88,5.88,0,0,0,1.39-1.75,6.16,6.16,0,0,0,.69-2.14,5.438,5.438,0,0,0-.17-2.13,5.082,5.082,0,0,0-1.09-2,7,7,0,0,0-2-1.59,7.091,7.091,0,0,0-2.47-.81,5.17,5.17,0,0,0-2.24.18A5.379,5.379,0,0,0,985.11,690.24Z"/>
      <path id="Trazado_132986" data-name="Trazado 132986" d="M977.15,700.91a5.789,5.789,0,0,1,2.17-2.11l.74,1.17a3.93,3.93,0,0,0-1.72,1.58,2.45,2.45,0,0,0-.26,2.17,3.47,3.47,0,0,0,1.63,1.81l8.64,5.08-.73,1.23-8.83-5.19a4.35,4.35,0,0,1-2.14-2.57A4,4,0,0,1,977.15,700.91Z"/>
      <path id="Trazado_132987" data-name="Trazado 132987" d="M969.54,713.33a7.38,7.38,0,0,1,2.67-2.55,6.44,6.44,0,0,1,3.54-.75,8.73,8.73,0,0,1,6.63,4.28,6.369,6.369,0,0,1,.78,3.53,7.411,7.411,0,0,1-1.22,3.49,7.577,7.577,0,0,1-1.93,2,6.692,6.692,0,0,1-2.43,1.11,6.509,6.509,0,0,1-2.78,0,9,9,0,0,1-5.2-3.35,6.58,6.58,0,0,1-1.14-2.53,6.671,6.671,0,0,1,0-2.67A7.389,7.389,0,0,1,969.54,713.33Zm2.69-.89a6.32,6.32,0,0,0-2.39,3.71,5.222,5.222,0,0,0,0,2.12,5.078,5.078,0,0,0,.94,2,7.61,7.61,0,0,0,4.28,2.77,5.129,5.129,0,0,0,2.24,0,5.54,5.54,0,0,0,1.93-.88,6,6,0,0,0,1.53-1.64,5.888,5.888,0,0,0,.86-2.07,5.46,5.46,0,0,0,0-2.13,5.229,5.229,0,0,0-.93-2,7.55,7.55,0,0,0-4.29-2.76,5.181,5.181,0,0,0-2.25,0A5.511,5.511,0,0,0,972.23,712.44Z"/>
    </g>
    <g id="Grupo_63583" data-name="Grupo 63583">
      <path id="Trazado_132988" data-name="Trazado 132988" d="M1041.35,684.83a5,5,0,0,1-2.89,2.9,5.381,5.381,0,0,1-4-.15,5.22,5.22,0,0,1-2.91-2.77,5,5,0,0,1,.12-4.08l1.33-3.16-5.44-2.29,1.33-3.15,15.16,6.39Zm-6.88-3.52a2.511,2.511,0,0,0-.13,2,2.44,2.44,0,0,0,1.39,1.27,2.5,2.5,0,0,0,1.87.1,2.47,2.47,0,0,0,1.33-1.48l1.11-2.63-4.46-1.88Z"/>
      <path id="Trazado_132989" data-name="Trazado 132989" d="M1019.31,693.59l8.38-.78.42-.9-6.55-3.09,1.46-3.09,14.88,7-2.55,5.4a6.89,6.89,0,0,1-1.36,2,4.17,4.17,0,0,1-1.67,1.05,4.58,4.58,0,0,1-1.8.18,5.629,5.629,0,0,1-1.88-.54,4,4,0,0,1-2.06-2,4.52,4.52,0,0,1-.18-2.94l-8.82,1.31Zm14.57,1-3.56-1.67-.86,1.82c-.73,1.54-.5,2.6.68,3.15a1.76,1.76,0,0,0,1.58.05,3,3,0,0,0,1.3-1.52Z"/>
      <path id="Trazado_132990" data-name="Trazado 132990" d="M1016.46,699.32l14.65,7.5-1.56,3-14.65-7.5Z"/>
      <path id="Trazado_132991" data-name="Trazado 132991" d="M1003.81,722.44l1.68-3,11.33,5.16-8.74-9.73,1.09-1.93,12.84,2.48-10.25-7.06,1.68-3,13.64,9.31-2.4,4.24-10.71-2,7.24,8.18-2.4,4.25Z"/>
      <path id="Trazado_132992" data-name="Trazado 132992" d="M996.06,734.55l3.5.82,3.73-5.82-2.21-2.84,1.88-2.94,10.6,14-2.26,3.52-17.12-3.78Zm9.1-2.61-2.65,4.13,7.2,1.7Z"/>
      <path id="Trazado_132993" data-name="Trazado 132993" d="M987.82,746.48l8.39.68.57-.81-5.91-4.18,2-2.79,13.44,9.49-3.44,4.88a6.807,6.807,0,0,1-1.69,1.73,4.11,4.11,0,0,1-1.82.75,4.621,4.621,0,0,1-1.81-.14,5.548,5.548,0,0,1-1.75-.85,4,4,0,0,1-1.69-2.3,4.52,4.52,0,0,1,.33-2.93l-8.92-.22ZM1002,750l-3.21-2.27-1.17,1.65q-1.47,2.1.13,3.22a1.79,1.79,0,0,0,1.54.33,3,3,0,0,0,1.54-1.29Z"/>
      <path id="Trazado_132994" data-name="Trazado 132994" d="M984,751.64l13.14,9.92-2.06,2.72L982,754.37Z"/>
      <path id="Trazado_132995" data-name="Trazado 132995" d="M974.74,763.17a9,9,0,0,1,3.53-2.7,7.511,7.511,0,0,1,4.2-.46,9,9,0,0,1,4.15,2,8.85,8.85,0,0,1,2.77,3.67,7.451,7.451,0,0,1,.4,4.19,9,9,0,0,1-1.94,4,8.88,8.88,0,0,1-3.52,2.7,7.43,7.43,0,0,1-4.18.45,8.81,8.81,0,0,1-4.16-2,8.931,8.931,0,0,1-2.77-3.67,7.479,7.479,0,0,1-.4-4.2A8.909,8.909,0,0,1,974.74,763.17Zm5.82.1a5.22,5.22,0,0,0-4.55,5.57,6,6,0,0,0,6,4.91,5.22,5.22,0,0,0,4.55-5.58A6,6,0,0,0,980.56,763.27Z"/>
    </g>
    <g id="Grupo_63584" data-name="Grupo 63584">
      <path id="Trazado_132996" data-name="Trazado 132996" d="M434.77,710.89,432.46,714l3.64,5.58,3.72-.88.83,1.27-14.93,3.41-.92-1.41,9.2-12.34Zm0,9-3.12-4.79-5.1,6.74Z"/>
      <path id="Trazado_132997" data-name="Trazado 132997" d="M431.07,707.36l-4.61-7.6,1.12-.68,5.56,9.13-1,.63-14.62-1.22L422,715l-1.12.68-5.37-8.83,1-.64Z"/>
      <path id="Trazado_132998" data-name="Trazado 132998" d="M424,692a5.75,5.75,0,0,1,.73,2.56,4.44,4.44,0,0,1-.63,2.41,4.909,4.909,0,0,1-1.95,1.82l-8.53,4.62-.69-1.26,8.36-4.52a3.63,3.63,0,0,0,1.94-2.21,4,4,0,0,0-2.52-4.65,3.58,3.58,0,0,0-2.92.4l-8.35,4.52-.68-1.25,8.54-4.62a4.56,4.56,0,0,1,3.8-.41A5.21,5.21,0,0,1,424,692Z"/>
      <path id="Trazado_132999" data-name="Trazado 132999" d="M417.58,683l-2.28-4.61,1.18-.59,2.91,5.9-12.88,6.37-.63-1.29Z"/>
    </g>
    <g id="Grupo_63585" data-name="Grupo 63585">
      <path id="Trazado_133000" data-name="Trazado 133000" d="M413.61,767.65a5,5,0,0,1-1.14-3.93,5.3,5.3,0,0,1,2.09-3.47,5.22,5.22,0,0,1,3.83-1.21,5.08,5.08,0,0,1,3.52,2.08l2.12,2.69,4.63-3.64,2.12,2.68L417.84,773Zm6.4-4.31a2.47,2.47,0,0,0-1.67-1.08,2.4,2.4,0,0,0-1.78.61,2.44,2.44,0,0,0-1,1.58,2.52,2.52,0,0,0,.65,1.88l1.77,2.25,3.8-3Z"/>
      <path id="Trazado_133001" data-name="Trazado 133001" d="M416.61,744.12l-3.37,7.71.58.81,5.88-4.24,2,2.78-13.36,9.62-3.49-4.8a6.87,6.87,0,0,1-1.09-2.16,4.279,4.279,0,0,1-.11-2,4.681,4.681,0,0,1,.72-1.67,5.653,5.653,0,0,1,1.38-1.38,4,4,0,0,1,2.72-.85,4.48,4.48,0,0,1,2.66,1.27l3.12-8.36Zm-8,12.25,3.19-2.3-1.17-1.64q-1.5-2.07-3.09-.93a1.79,1.79,0,0,0-.81,1.35,3,3,0,0,0,.71,1.88Z"/>
      <path id="Trazado_133002" data-name="Trazado 133002" d="M413,738.85,399.32,748l-1.91-2.83L411.07,736Z"/>
      <path id="Trazado_133003" data-name="Trazado 133003" d="M398.87,716.6l1.78,2.9-10,7.41L403.39,724l1.16,1.88-8.39,10,11.14-5.55,1.79,2.91-14.75,7.43-2.55-4.15,7-8.4-10.66,2.38-2.55-4.15Z"/>
      <path id="Trazado_133004" data-name="Trazado 133004" d="M392,704l-2.41,2.66,3.29,6.08,3.55-.56,1.67,3.07-17.36,2.51-2-3.68,11.59-13.16Zm-2.11,9.22-2.34-4.32-5,5.48Z"/>
      <path id="Trazado_133005" data-name="Trazado 133005" d="M385.57,691l-4.65,7,.43.89,6.52-3.15,1.49,3.07L374.54,706l-2.6-5.37a7.13,7.13,0,0,1-.7-2.31,4.26,4.26,0,0,1,.23-2,4.62,4.62,0,0,1,1-1.52,5.731,5.731,0,0,1,1.59-1.12,4,4,0,0,1,2.83-.37,4.61,4.61,0,0,1,2.4,1.71l4.52-7.69Zm-10,10.68,3.53-1.71-.88-1.81q-1.11-2.31-2.88-1.46a1.78,1.78,0,0,0-1,1.2,2.93,2.93,0,0,0,.37,2Z"/>
      <path id="Trazado_133006" data-name="Trazado 133006" d="M382.89,685.15l-15,6.7-1.39-3.12,15-6.7Z"/>
      <path id="Trazado_133007" data-name="Trazado 133007" d="M377.3,671.45a9,9,0,0,1,.66,4.39,7.46,7.46,0,0,1-1.64,3.89,9.65,9.65,0,0,1-8.29,3.33,7.5,7.5,0,0,1-3.86-1.68,9.64,9.64,0,0,1-3.22-8,7.45,7.45,0,0,1,1.63-3.88,9.68,9.68,0,0,1,8.29-3.33,7.529,7.529,0,0,1,3.87,1.68,8.83,8.83,0,0,1,2.56,3.6Zm-2.9,5a5.2,5.2,0,0,0-2.68-6.68,6.034,6.034,0,0,0-7.2,2.89,5.025,5.025,0,0,0,6.8,6.55,5.33,5.33,0,0,0,3.08-2.72Z"/>
    </g>
    <g id="Grupo_63586" data-name="Grupo 63586">
      <path id="Trazado_133008" data-name="Trazado 133008" d="M373.25,421.55a8,8,0,0,1-2.74,3.86,5,5,0,0,1-4.08.88l.45-3.59a3,3,0,0,0,2.33-.32,3.51,3.51,0,0,0,1.46-1.92,2.9,2.9,0,0,0,.14-1.86,1.69,1.69,0,0,0-1.17-1.15,1.58,1.58,0,0,0-1.35.13,3.68,3.68,0,0,0-1.09.83c-.27.31-.67.82-1.21,1.53-.07.09-.13.16-.16.21-.27.36-.5.65-.68.87s-.4.48-.69.79a7.219,7.219,0,0,1-.78.74,6,6,0,0,1-.83.54,3.18,3.18,0,0,1-.93.36,3.808,3.808,0,0,1-1,.05,4,4,0,0,1-1.15-.25,4.39,4.39,0,0,1-2.18-1.61,4.74,4.74,0,0,1-.84-2.51,7.54,7.54,0,0,1,.49-3,9.651,9.651,0,0,1,1-1.93,7.171,7.171,0,0,1,1.35-1.55,4.54,4.54,0,0,1,1.79-1,5.111,5.111,0,0,1,2.18-.14l-.36,3.39a2.66,2.66,0,0,0-3.22,2,3.14,3.14,0,0,0-.18,1.88,1.61,1.61,0,0,0,1.11,1.17,1.67,1.67,0,0,0,1.78-.63,15.942,15.942,0,0,0,1.52-1.88l.7-.91c.18-.23.42-.52.73-.86a7.389,7.389,0,0,1,.83-.8,9.719,9.719,0,0,1,.89-.6,3.52,3.52,0,0,1,1-.41,4.349,4.349,0,0,1,1.11-.07,4,4,0,0,1,1.25.26,5,5,0,0,1,1.64.94,4.05,4.05,0,0,1,1,1.33,5,5,0,0,1,.44,1.61,6.2,6.2,0,0,1,0,1.77,10.062,10.062,0,0,1-.55,1.85Z"/>
      <path id="Trazado_133009" data-name="Trazado 133009" d="M374.67,400.84l.72.33-3.29,8a2.864,2.864,0,0,0,3.8-1.68,2.8,2.8,0,0,0,.21-1.59,2.43,2.43,0,0,0-.72-1.35l1.55-2.62a5.12,5.12,0,0,1,1.77,2.94,6.06,6.06,0,0,1-.41,3.57,6.29,6.29,0,0,1-3.21,3.61,5.88,5.88,0,0,1-4.78-.12,5.94,5.94,0,0,1-3.5-3.27A6.13,6.13,0,0,1,367,404a5.36,5.36,0,0,1,7.68-3.12Zm-5.53,4a2.6,2.6,0,0,0,1,3.49l2-5a2.45,2.45,0,0,0-1.86.11,2.62,2.62,0,0,0-1.14,1.38Z"/>
      <path id="Trazado_133010" data-name="Trazado 133010" d="M383.58,396.24a6.23,6.23,0,0,1-3.4,3.42,6.4,6.4,0,0,1-8-3.62,7,7,0,0,1,2.94-7.81,5,5,0,0,1,3.7-.47l-.95,2.9a2.63,2.63,0,0,0-1.8.25,3,3,0,0,0-1.2,1.41,2.69,2.69,0,0,0,0,2.35,3.79,3.79,0,0,0,2,1.79,3.69,3.69,0,0,0,2.63.29,2.66,2.66,0,0,0,1.76-1.55,2.92,2.92,0,0,0,.27-1.82,2.71,2.71,0,0,0-1-1.54l1.55-2.62a5.11,5.11,0,0,1,2.08,3.11A6.19,6.19,0,0,1,383.58,396.24Z"/>
      <path id="Trazado_133011" data-name="Trazado 133011" d="M379.72,376.77l1.47-2.93,10.47,5.25-1.39,2.78-1.3-.57a4.47,4.47,0,0,1-.21,4.07,4.54,4.54,0,0,1-2.39,2.42,3.91,3.91,0,0,1-3.19-.34l-7-3.53,1.47-2.94,6.42,3.21a2,2,0,0,0,1.7.2,2.27,2.27,0,0,0,1.14-1.13,2.64,2.64,0,0,0,.24-2,2.82,2.82,0,0,0-1.61-1.63Z"/>
      <path id="Trazado_133012" data-name="Trazado 133012" d="M386.12,364.32a4.57,4.57,0,0,1,2.51-2.29,3.9,3.9,0,0,1,3.17.49l6.86,3.89L397,369.27l-6.25-3.53a2,2,0,0,0-1.69-.29,2.21,2.21,0,0,0-1.19,1.06,3,3,0,0,0-.36.93,2.48,2.48,0,0,0,0,.94,2.06,2.06,0,0,0,.48.94,4,4,0,0,0,1.07.86l5.62,3.18-1.61,2.86-10.19-5.77,1.61-2.85,1.13.64a4.54,4.54,0,0,1,.5-3.92Z"/>
      <path id="Trazado_133013" data-name="Trazado 133013" d="M389.48,347.57l1.71-2.8,14.95,9.08-1.61,2.65-1.35-.72a3.31,3.31,0,0,1,.36,2,4.93,4.93,0,0,1-.73,2.12,5.66,5.66,0,0,1-1.5,1.65,5.19,5.19,0,0,1-4.22.95,6.939,6.939,0,0,1-2.42-.95,6.65,6.65,0,0,1-2.39-2.35,5.27,5.27,0,0,1-.76-2.85,5.75,5.75,0,0,1,.85-2.79,5.25,5.25,0,0,1,1.47-1.59,3.34,3.34,0,0,1,1.8-.62Zm11.39,10.23a2.89,2.89,0,0,0,.35-2.37,3.41,3.41,0,0,0-1.63-2,3.45,3.45,0,0,0-2.56-.51,2.93,2.93,0,0,0-1.95,1.4,3,3,0,0,0-.37,2.38,3.47,3.47,0,0,0,1.66,2,3.43,3.43,0,0,0,2.56.52,2.92,2.92,0,0,0,1.94-1.42Z"/>
      <path id="Trazado_133014" data-name="Trazado 133014" d="M410.55,341.34a11.13,11.13,0,0,0,2.54,1.34l.27.18-1.69,2.55-1.21-.48a3.82,3.82,0,0,1,0,2,6.069,6.069,0,0,1-.86,2,5.41,5.41,0,0,1-.69.86,4,4,0,0,1-.83.63,3.15,3.15,0,0,1-1,.34,2.459,2.459,0,0,1-1.07-.06,3.72,3.72,0,0,1-1.18-.53,3.46,3.46,0,0,1-.94-.88,3.059,3.059,0,0,1-.48-1,3.828,3.828,0,0,1-.07-1.15,7,7,0,0,1,.23-1.24,13.012,13.012,0,0,1,.46-1.37l.7-1.84a2.15,2.15,0,0,0,.17-.93.75.75,0,0,0-.35-.54,1.2,1.2,0,0,0-1.25-.14,2.66,2.66,0,0,0-1.06,1,2,2,0,0,0,.23,2.89l-2,2.14a4,4,0,0,1-1.29-2.89,6.78,6.78,0,0,1,1.31-3.55q2.72-4.1,6.24-1.77Zm-2.2,5.47a2.6,2.6,0,0,0,.41-2.16,3.53,3.53,0,0,0-1.66-2l-.87,2.75a3.229,3.229,0,0,0-.25,1.24,1.139,1.139,0,0,0,1.48.95,1.77,1.77,0,0,0,.89-.78Z"/>
      <path id="Trazado_133015" data-name="Trazado 133015" d="M408.71,332.35a3.9,3.9,0,0,1-.26-2.07,4.64,4.64,0,0,1,.84-2.21l2.39,1.69a4.37,4.37,0,0,0-1,2.69,3.08,3.08,0,0,0,1.54,2.16l4.66,3.29-1.9,2.7-9.57-6.76,1.82-2.57Z"/>
      <path id="Trazado_133016" data-name="Trazado 133016" d="M410.24,324.08a1.89,1.89,0,0,1-2.65.4,1.8,1.8,0,0,1-.73-1.24,1.86,1.86,0,0,1,.35-1.41,1.88,1.88,0,0,1,3.37.85,1.82,1.82,0,0,1-.34,1.4Zm9.83,9.35-9.41-7,2-2.65,9.41,7Z"/>
      <path id="Trazado_133017" data-name="Trazado 133017" d="M427.53,324a7.44,7.44,0,0,1-2.61,2.16,5.37,5.37,0,0,1-3.06.48,6.29,6.29,0,0,1-3.08-1.37,5.73,5.73,0,0,1-2.39-4.14,7.43,7.43,0,0,1,5.73-7.3,6.47,6.47,0,0,1,7,5.5,6.55,6.55,0,0,1-1.59,4.67Zm-2.07-1.59a3,3,0,0,0,.68-2.41,4.06,4.06,0,0,0-4-3.13,3,3,0,0,0-2.19,1.23,2.86,2.86,0,0,0-.63,2.36,4.06,4.06,0,0,0,4,3.12,2.9,2.9,0,0,0,2.14-1.19Z"/>
    </g>
    <g id="Grupo_63587" data-name="Grupo 63587">
      <path id="Trazado_133018" data-name="Trazado 133018" d="M980.14,326a8,8,0,0,1-1.81-4.38,5.06,5.06,0,0,1,1.43-3.92l2.8,2.3a3,3,0,0,0-1,2.13,3.67,3.67,0,0,0,.85,2.27,3,3,0,0,0,1.5,1.11,1.71,1.71,0,0,0,1.6-.38,1.59,1.59,0,0,0,.61-1.21,3.728,3.728,0,0,0-.12-1.37c-.12-.39-.34-1-.65-1.83l-.09-.25-.38-1c-.09-.26-.19-.6-.3-1a6.91,6.91,0,0,1-.21-1.05,6.42,6.42,0,0,1,0-1,2.94,2.94,0,0,1,.19-1,4.07,4.07,0,0,1,1.33-1.74,4.4,4.4,0,0,1,2.52-1,4.7,4.7,0,0,1,2.58.62,7.53,7.53,0,0,1,2.25,2,9.4,9.4,0,0,1,1.13,1.84,7.221,7.221,0,0,1,.59,2,4.58,4.58,0,0,1-.13,2,5.061,5.061,0,0,1-1,1.91l-2.68-2.11a2.67,2.67,0,0,0,0-3.78,3.23,3.23,0,0,0-1.5-1.16,1.63,1.63,0,0,0-1.58.32,1.66,1.66,0,0,0-.42,1.84,16.422,16.422,0,0,0,.78,2.29c.17.44.3.8.4,1.08s.21.63.33,1.08a6.234,6.234,0,0,1,.24,1.13,8.89,8.89,0,0,1,0,1.07,3.293,3.293,0,0,1-.2,1.08,4.117,4.117,0,0,1-.53,1,4.06,4.06,0,0,1-.89.92,4.91,4.91,0,0,1-1.67.88,4,4,0,0,1-1.66.14,5.279,5.279,0,0,1-1.59-.48,6.79,6.79,0,0,1-1.48-1,8.91,8.91,0,0,1-1.24-1.35Z"/>
      <path id="Trazado_133019" data-name="Trazado 133019" d="M996.89,338.21l-.66.43-5-7.06a2.86,2.86,0,0,0-.61,4.11,3,3,0,0,0,1.23,1,2.47,2.47,0,0,0,1.53.12l1.39,2.7a5.1,5.1,0,0,1-3.43-.07,6.12,6.12,0,0,1-2.81-2.25,6.35,6.35,0,0,1-1.34-4.65,6.76,6.76,0,0,1,7.28-5.19,6.15,6.15,0,0,1,3.92,2.68,5.35,5.35,0,0,1-1.46,8.16Zm-.42-6.8a2.58,2.58,0,0,0-3.48-1l3.12,4.37a2.46,2.46,0,0,0,.89-1.63,2.54,2.54,0,0,0-.53-1.74Z"/>
      <path id="Trazado_133020" data-name="Trazado 133020" d="M996,348.2a6.3,6.3,0,0,1-1.08-4.7,6.4,6.4,0,0,1,7.34-4.84,7,7,0,0,1,5,6.65,5,5,0,0,1-1.58,3.38l-1.94-2.35a2.58,2.58,0,0,0,.74-1.66,2.92,2.92,0,0,0-.55-1.77,2.7,2.7,0,0,0-2-1.26,4.32,4.32,0,0,0-4.22,2.78,2.68,2.68,0,0,0,.37,2.32,3,3,0,0,0,1.41,1.19,2.65,2.65,0,0,0,1.82,0l1.39,2.71a5,5,0,0,1-3.74.1A6.26,6.26,0,0,1,996,348.2Z"/>
      <path id="Trazado_133021" data-name="Trazado 133021" d="M1014.56,355.32l1.7,2.81-10,6.05-1.61-2.66,1.17-.8a4.46,4.46,0,0,1-3.33-2.34,4.54,4.54,0,0,1-.77-3.31,3.91,3.91,0,0,1,2-2.52l6.75-4.07,1.7,2.82L1006,355a2,2,0,0,0-1.07,1.33,2.211,2.211,0,0,0,.35,1.57,2.63,2.63,0,0,0,1.53,1.24,2.84,2.84,0,0,0,2.24-.49Z"/>
      <path id="Trazado_133022" data-name="Trazado 133022" d="M1021.68,367.37a4.571,4.571,0,0,1,.61,3.35,3.931,3.931,0,0,1-2.11,2.41l-6.95,3.74-1.55-2.9,6.32-3.4a2,2,0,0,0,1.14-1.28,2.22,2.22,0,0,0-.26-1.58,3.231,3.231,0,0,0-.6-.79,2.472,2.472,0,0,0-.79-.5,2,2,0,0,0-1.06-.1,4.149,4.149,0,0,0-1.29.45l-5.69,3.06-1.56-2.89,10.32-5.55,1.55,2.89-1.14.61A4.55,4.55,0,0,1,1021.68,367.37Z"/>
      <path id="Trazado_133023" data-name="Trazado 133023" d="M1034.06,379.15l1.46,2.93-15.65,7.81-1.39-2.78,1.33-.75a3.37,3.37,0,0,1-1.85-.74,5.091,5.091,0,0,1-1.4-1.75,5.549,5.549,0,0,1-.6-2.15,5.23,5.23,0,0,1,1.45-4.08,7.23,7.23,0,0,1,2.09-1.54,6.629,6.629,0,0,1,3.27-.76,5.2,5.2,0,0,1,2.81.88,5.51,5.51,0,0,1,1.9,2.2,5.123,5.123,0,0,1,.57,2.09,3.361,3.361,0,0,1-.43,1.85Zm-14.73,4.18a3,3,0,0,0,1.83,1.56,3.4,3.4,0,0,0,2.58-.3,3.45,3.45,0,0,0,1.8-1.89,2.89,2.89,0,0,0-.15-2.4,2.931,2.931,0,0,0-1.82-1.58,3.88,3.88,0,0,0-4.41,2.2,3,3,0,0,0,.17,2.41Z"/>
      <path id="Trazado_133024" data-name="Trazado 133024" d="M1028.1,400.29a10.49,10.49,0,0,0-2.49,1.44l-.29.13-1.26-2.79,1-.77a3.711,3.711,0,0,1-1.7-1,6.11,6.11,0,0,1-1.57-2.81,3.627,3.627,0,0,1-.09-1,3,3,0,0,1,.22-1,2.9,2.9,0,0,1,.62-.88,3.891,3.891,0,0,1,1.08-.71,3.45,3.45,0,0,1,1.24-.32,3,3,0,0,1,1.1.13,3.659,3.659,0,0,1,1,.55,7.578,7.578,0,0,1,.93.85,13.646,13.646,0,0,1,.9,1.12l1.19,1.58a2.179,2.179,0,0,0,.7.64.76.76,0,0,0,.64,0,1.21,1.21,0,0,0,.79-1,2.731,2.731,0,0,0-.26-1.41,2,2,0,0,0-2.58-1.35l-.71-2.86a3.88,3.88,0,0,1,3.13.45,6.741,6.741,0,0,1,2.3,3q2,4.47-1.83,6.22Zm-3.46-4.77a2.63,2.63,0,0,0,1.61,1.49,3.52,3.52,0,0,0,2.61-.31l-1.86-2.21a3.451,3.451,0,0,0-.91-.87,1,1,0,0,0-.94,0,1.09,1.09,0,0,0-.67.78,1.811,1.811,0,0,0,.16,1.12Z"/>
      <path id="Trazado_133025" data-name="Trazado 133025" d="M1036.69,403.54a3.761,3.761,0,0,1,1.89.88,4.69,4.69,0,0,1,1.42,1.89l-2.71,1.12a4.44,4.44,0,0,0-1.72-2.32,3.1,3.1,0,0,0-2.65.16l-5.27,2.19-1.27-3,10.82-4.49,1.2,2.9Z"/>
      <path id="Trazado_133026" data-name="Trazado 133026" d="M1029.72,412.57l10.91-4.26,1.2,3.08-10.91,4.25Zm13.15-3.33a1.88,1.88,0,1,1,3.49-1.4,1.82,1.82,0,0,1,0,1.43,1.8,1.8,0,0,1-1,1,1.83,1.83,0,0,1-1.45,0,1.79,1.79,0,0,1-1.04-1.03Z"/>
      <path id="Trazado_133027" data-name="Trazado 133027" d="M1033.73,423.92a7.271,7.271,0,0,1-.43-3.36,5.3,5.3,0,0,1,1.22-2.85,6.19,6.19,0,0,1,2.8-1.87,5.73,5.73,0,0,1,4.78.18,7.43,7.43,0,0,1,3.12,8.74,6.46,6.46,0,0,1-8.39,3,6.61,6.61,0,0,1-3.1-3.84Zm2.45-.91a3,3,0,0,0,1.68,1.87,4.07,4.07,0,0,0,4.76-1.7,3,3,0,0,0,.12-2.5,2.86,2.86,0,0,0-1.66-1.8,4.06,4.06,0,0,0-4.75,1.69,2.88,2.88,0,0,0-.15,2.43Z"/>
    </g>
    <g id="Grupo_63588" data-name="Grupo 63588">
      <path id="Trazado_133028" data-name="Trazado 133028" d="M755.73,888a8,8,0,0,1,4.71.56,5.08,5.08,0,0,1,2.72,3.15l-3.37,1.33a3,3,0,0,0-1.39-1.89,3.571,3.571,0,0,0-2.39-.37,3,3,0,0,0-1.7.77,1.69,1.69,0,0,0-.45,1.58,1.59,1.59,0,0,0,.76,1.12,3.509,3.509,0,0,0,1.25.56q.6.14,1.92.33h.26l1.09.18c.28.05.62.13,1,.23a8.829,8.829,0,0,1,1,.33,8.6,8.6,0,0,1,.87.47,3.089,3.089,0,0,1,.76.65,3.881,3.881,0,0,1,.54.88,4,4,0,0,1,.33,1.13,4.38,4.38,0,0,1-.37,2.68,4.73,4.73,0,0,1-1.8,1.94,7.411,7.411,0,0,1-2.85,1,9.922,9.922,0,0,1-2.16.09,7.926,7.926,0,0,1-2-.44,4.8,4.8,0,0,1-1.72-1.11,5.15,5.15,0,0,1-1.16-1.85l3.15-1.3a2.67,2.67,0,0,0,3.28,1.88,3.31,3.31,0,0,0,1.74-.74,1.63,1.63,0,0,0,.49-1.54c-.09-.6-.56-1-1.4-1.26a17.326,17.326,0,0,0-2.38-.44l-1.13-.17q-.43-.08-1.11-.24a6.531,6.531,0,0,1-1.1-.35,7.223,7.223,0,0,1-.95-.49,3.353,3.353,0,0,1-.85-.7,4.471,4.471,0,0,1-.6-.94,4.652,4.652,0,0,1-.37-1.23,5.158,5.158,0,0,1,.05-1.89,4.23,4.23,0,0,1,.69-1.52,5.271,5.271,0,0,1,1.2-1.15,6.305,6.305,0,0,1,1.57-.81A9.427,9.427,0,0,1,755.73,888Z"/>
      <path id="Trazado_133029" data-name="Trazado 133029" d="M736.87,896.69v-.79l8.62-.95a3,3,0,0,0-1.16-2,2.919,2.919,0,0,0-2.13-.5,2.819,2.819,0,0,0-1.49.57,2.46,2.46,0,0,0-.85,1.28l-3-.11a5.15,5.15,0,0,1,1.74-3,6.08,6.08,0,0,1,3.33-1.35,6.29,6.29,0,0,1,4.71,1.1,5.87,5.87,0,0,1,2.18,4.25,6,6,0,0,1-1.2,4.64,6.16,6.16,0,0,1-4.24,2.11,5.36,5.36,0,0,1-6.42-5.26Zm6.14,2.95a2.59,2.59,0,0,0,2.58-2.55l-5.34.59a2.461,2.461,0,0,0,1,1.57,2.54,2.54,0,0,0,1.75.39Z"/>
      <path id="Trazado_133030" data-name="Trazado 133030" d="M728.57,891.07a6.21,6.21,0,0,1,4.63,1.35,6.39,6.39,0,0,1,.64,8.77,6.93,6.93,0,0,1-8.25,1.15,5.06,5.06,0,0,1-2.19-3l3-.55a2.559,2.559,0,0,0,1.09,1.46,2.881,2.881,0,0,0,1.81.38,2.67,2.67,0,0,0,2.06-1.1,4.29,4.29,0,0,0-.36-5,2.7,2.7,0,0,0-2.21-.81,3,3,0,0,0-1.73.64,2.65,2.65,0,0,0-.87,1.61l-3-.11a5,5,0,0,1,1.74-3.31,6.08,6.08,0,0,1,3.64-1.48Z"/>
      <path id="Trazado_133031" data-name="Trazado 133031" d="M713.31,903.77l-3.28.11-.39-11.7,3.11-.11.12,1.41a4.46,4.46,0,0,1,3.67-1.76,4.55,4.55,0,0,1,3.27.94,4,4,0,0,1,1.23,3l.26,7.88-3.29.11-.24-7.17a2,2,0,0,0-.64-1.59,2.22,2.22,0,0,0-1.54-.46,2.641,2.641,0,0,0-1.83.73,2.87,2.87,0,0,0-.67,2.19Z"/>
      <path id="Trazado_133032" data-name="Trazado 133032" d="M699.32,904.1a4.59,4.59,0,0,1-3.22-1.1,3.89,3.89,0,0,1-1.07-3l.12-7.89,3.3.06-.12,7.17a2,2,0,0,0,.56,1.63,2.18,2.18,0,0,0,1.5.54,3.058,3.058,0,0,0,1-.14,2.46,2.46,0,0,0,.83-.44,2.15,2.15,0,0,0,.6-.88,3.789,3.789,0,0,0,.24-1.35l.11-6.46,3.28.06-.21,11.7-3.28-.06v-1.3a4.48,4.48,0,0,1-3.64,1.46Z"/>
      <path id="Trazado_133033" data-name="Trazado 133033" d="M683,909.16l-3.27-.15.82-17.48,3.1.15v1.53a3.3,3.3,0,0,1,1.55-1.26,5,5,0,0,1,2.21-.37,5.86,5.86,0,0,1,2.17.52,5.61,5.61,0,0,1,1.73,1.28,5.39,5.39,0,0,1,1.12,2,7.2,7.2,0,0,1,.33,2.58,6.721,6.721,0,0,1-.93,3.23,5.31,5.31,0,0,1-2.14,2,5.61,5.61,0,0,1-2.85.59,5.249,5.249,0,0,1-2.1-.53,3.32,3.32,0,0,1-1.41-1.28Zm3.54-14.9a2.93,2.93,0,0,0-2.25.83,3.84,3.84,0,0,0-.23,4.9,2.88,2.88,0,0,0,2.16,1,2.93,2.93,0,0,0,2.27-.81,3.44,3.44,0,0,0,1-2.43,3.39,3.39,0,0,0-.77-2.5,3,3,0,0,0-2.18-.99Z"/>
      <path id="Trazado_133034" data-name="Trazado 133034" d="M667.45,893.64a11,11,0,0,0,0-2.87v-.32l3.06.26.15,1.29a3.79,3.79,0,0,1,1.73-1,5.912,5.912,0,0,1,2.14-.19,5.782,5.782,0,0,1,1.08.19,3.7,3.7,0,0,1,.95.43,2.939,2.939,0,0,1,.76.68,2.742,2.742,0,0,1,.47,1,3.86,3.86,0,0,1,.09,1.29,3.431,3.431,0,0,1-.32,1.24,3.059,3.059,0,0,1-.65.9,3.348,3.348,0,0,1-1,.61,5.827,5.827,0,0,1-1.2.4,12.586,12.586,0,0,1-1.41.25l-2,.26a2.22,2.22,0,0,0-.9.3.73.73,0,0,0-.3.56,1.2,1.2,0,0,0,.47,1.17,2.66,2.66,0,0,0,1.36.46,2,2,0,0,0,2.44-1.58l2.85.77a4,4,0,0,1-1.92,2.52,6.841,6.841,0,0,1-3.74.54c-3.27-.28-4.78-1.83-4.54-4.63Zm5.86-.69a2.64,2.64,0,0,0-2.09.68,3.53,3.53,0,0,0-1,2.43l2.84-.55a3.27,3.27,0,0,0,1.2-.37,1,1,0,0,0,.47-.81,1.07,1.07,0,0,0-.35-1,1.79,1.79,0,0,0-1.07-.33Z"/>
      <path id="Trazado_133035" data-name="Trazado 133035" d="M660.43,899.55a3.69,3.69,0,0,1-1.69,1.22,4.571,4.571,0,0,1-2.34.32l.34-2.91a4.471,4.471,0,0,0,2.87-.37,3.121,3.121,0,0,0,1.15-2.39l.66-5.67,3.28.38-1.36,11.63-3.12-.36Z"/>
      <path id="Trazado_133036" data-name="Trazado 133036" d="M652.44,902.17a1.83,1.83,0,0,1,1.26.73,1.81,1.81,0,0,1,.36,1.4,1.77,1.77,0,0,1-.74,1.24,1.86,1.86,0,0,1-1.4.36,1.81,1.81,0,0,1-1.23-.73,1.79,1.79,0,0,1-.37-1.39,1.89,1.89,0,0,1,2.12-1.61ZM656,889.06l-1.61,11.6-3.27-.45,1.61-11.6Z"/>
      <path id="Trazado_133037" data-name="Trazado 133037" d="M644.08,887a7.409,7.409,0,0,1,3.15,1.26,5.36,5.36,0,0,1,1.89,2.46,6.24,6.24,0,0,1,.27,3.36,5.74,5.74,0,0,1-2.5,4.08,7.43,7.43,0,0,1-9.15-1.55,6.45,6.45,0,0,1,1.49-8.77A6.56,6.56,0,0,1,644.08,887Zm-.4,2.58a3,3,0,0,0-2.45.55,4.07,4.07,0,0,0-.84,5,3,3,0,0,0,2.13,1.33,2.91,2.91,0,0,0,2.37-.57,4.12,4.12,0,0,0,.85-5,2.879,2.879,0,0,0-2.06-1.28Z"/>
    </g>
    <g id="Grupo_63589" data-name="Grupo 63589">
      <path id="Trazado_133038" data-name="Trazado 133038" d="M549.91,874.82l.75-1.7,3.76,1.67,5.75-13,1.85.82-5.75,13,3.77,1.67-.75,1.7Z"/>
      <path id="Trazado_133039" data-name="Trazado 133039" d="M544.48,860.9l.25-.47,7.89,3.77a3.94,3.94,0,0,0,.27-3,3.49,3.49,0,0,0-1.87-2,3.32,3.32,0,0,0-1.9-.32,3.4,3.4,0,0,0-1.79.78l-1.44-1.1a5,5,0,0,1,2.76-1.34,5.21,5.21,0,0,1,3.06.49,5.4,5.4,0,0,1,3,3.15,6.64,6.64,0,0,1-3.68,7.67,5.35,5.35,0,0,1-4.25-.31A5.05,5.05,0,0,1,544,865.3a5.73,5.73,0,0,1,.48-4.4Zm2.91,5.92a3.54,3.54,0,0,0,2.45.29,3.66,3.66,0,0,0,2.06-1.57l-6.06-2.9a3.37,3.37,0,0,0-.11,2.5,3.2,3.2,0,0,0,1.66,1.68Z"/>
      <path id="Trazado_133040" data-name="Trazado 133040" d="M538.4,861.59a3.38,3.38,0,0,1-1.93.71,4.29,4.29,0,0,1-2.18-.46l.85-1.65a3.679,3.679,0,0,0,2.69.45,3.44,3.44,0,0,0,2-1.95l2.74-5.32,1.75.9-5.12,10-1.71-.88Z"/>
      <path id="Trazado_133041" data-name="Trazado 133041" d="M533.66,848.39a5.36,5.36,0,0,1,2.75,3.33,5.71,5.71,0,0,1-.62,4.45,5.77,5.77,0,0,1-3.4,2.93,5.86,5.86,0,0,1-6.67-2.93,4.919,4.919,0,0,1-.35-3.29l1.76.62a3.42,3.42,0,0,0,.28,2.14,3.48,3.48,0,0,0,1.48,1.51,3.32,3.32,0,0,0,2.83.23,4.43,4.43,0,0,0,2.34-2.16,4.34,4.34,0,0,0,.55-3.13,3.31,3.31,0,0,0-1.73-2.25,3.4,3.4,0,0,0-2.07-.43,3.47,3.47,0,0,0-1.95.92l-1.47-1.15a5,5,0,0,1,3-1.48,5.44,5.44,0,0,1,3.27.69Z"/>
      <path id="Trazado_133042" data-name="Trazado 133042" d="M518.8,856.08a1.33,1.33,0,0,1,.47,1.82,1.23,1.23,0,0,1-.81.61,1.32,1.32,0,0,1-1-.14,1.34,1.34,0,0,1-.6-.81,1.25,1.25,0,0,1,.14-1,1.23,1.23,0,0,1,.81-.61,1.25,1.25,0,0,1,.99.13Zm7.88-11.41L521,854.32l-1.71-1,5.68-9.64Z"/>
      <path id="Trazado_133043" data-name="Trazado 133043" d="M519.52,840.15a3.82,3.82,0,0,1,1.69,1.94,2.8,2.8,0,0,1-.39,2.46,3.179,3.179,0,0,1-1,1.08,2.48,2.48,0,0,1-1.31.39,6,6,0,0,1-1.45-.15,13.007,13.007,0,0,1-1.66-.56l-1.7-.7a1,1,0,0,0-1.38.36,2,2,0,0,0-.29,1.79,2.89,2.89,0,0,0,1.23,1.38,2.92,2.92,0,0,0,1.76.49,2.15,2.15,0,0,0,1.54-.9l1.31,1.25a3.44,3.44,0,0,1-2.45,1.31,5.23,5.23,0,0,1-3-.93,6.106,6.106,0,0,1-1.28-1,4.511,4.511,0,0,1-.82-1.25,2.879,2.879,0,0,1-.19-1.53,4.409,4.409,0,0,1,.68-1.75l2.43-3.93a2,2,0,0,0,.4-1.13,1.11,1.11,0,0,0-.6-.72l-.15-.1.75-1.21.83.52a1.87,1.87,0,0,1,1,2.4l.07.05A4.26,4.26,0,0,1,519.52,840.15Zm-1.22,1.11a3,3,0,0,0-2.62-.34,4.44,4.44,0,0,0-2.33,2l2.82,1.07a4.06,4.06,0,0,0,1.8.39,1.45,1.45,0,0,0,1.12-.75,1.39,1.39,0,0,0,.19-1.33,2.319,2.319,0,0,0-.98-1.04Z"/>
      <path id="Trazado_133044" data-name="Trazado 133044" d="M504.67,841.89a3.4,3.4,0,0,1-2,.49,4.13,4.13,0,0,1-2.12-.69l1-1.55a3.7,3.7,0,0,0,2.63.74,3.5,3.5,0,0,0,2.21-1.73l3.28-5,1.65,1.08-6.16,9.35-1.6-1.05Z"/>
      <path id="Trazado_133045" data-name="Trazado 133045" d="M496.29,841.8a1.26,1.26,0,0,1,.55.86,1.28,1.28,0,0,1-.2,1,1.23,1.23,0,0,1-.86.55,1.324,1.324,0,1,1,.51-2.4Zm8.65-10.8-6.33,9.23L497,839.08l6.34-9.23Z"/>
      <path id="Trazado_133046" data-name="Trazado 133046" d="M496.41,824.7a5.88,5.88,0,0,1,1.92,2.25,5.12,5.12,0,0,1,.44,2.83,6.34,6.34,0,0,1-1.22,2.94,5.73,5.73,0,0,1-3.77,2.48,6,6,0,0,1-6.55-4.77,6.42,6.42,0,0,1,5-6.83,5.48,5.48,0,0,1,4.18,1.1Zm-1,1.33a3.49,3.49,0,0,0-2.82-.63,4.88,4.88,0,0,0-3.56,4.9,3.62,3.62,0,0,0,4.27,3.1,4.91,4.91,0,0,0,3.56-4.9,3.44,3.44,0,0,0-1.4-2.5Z"/>
    </g>
    <g id="Grupo_63590" data-name="Grupo 63590">
      <path id="Trazado_133047" data-name="Trazado 133047" d="M337.3,572.57l1.84-.18.41,4.09,14.11-1.39.2,2-14.11,1.4.4,4.1-1.85.18Z"/>
      <path id="Trazado_133048" data-name="Trazado 133048" d="M346.72,561h.54l.61,8.72a3.92,3.92,0,0,0,2.78-1.26,3.51,3.51,0,0,0,.82-2.62,3.34,3.34,0,0,0-.67-1.81,3.409,3.409,0,0,0-1.56-1.17l.25-1.8a5,5,0,0,1,2.53,1.74,5.27,5.27,0,0,1,1.08,2.91,5.38,5.38,0,0,1-1.28,4.13,5.82,5.82,0,0,1-4.14,1.83,5.76,5.76,0,0,1-4.34-1.25,5.37,5.37,0,0,1-1.84-3.85,5.11,5.11,0,0,1,1.17-3.85,5.69,5.69,0,0,1,4.05-1.72Zm-3.7,5.46a3.44,3.44,0,0,0,1,2.26,3.62,3.62,0,0,0,2.38,1l-.47-6.69a3.28,3.28,0,0,0-2.23,1.14,3.1,3.1,0,0,0-.7,2.27Z"/>
      <path id="Trazado_133049" data-name="Trazado 133049" d="M343.12,556a3.38,3.38,0,0,1-1.56-1.33,4.23,4.23,0,0,1-.68-2.13l1.86-.08a3.65,3.65,0,0,0,.93,2.57,3.5,3.5,0,0,0,2.69.79l6-.25.08,2-11.18.46-.08-1.92Z"/>
      <path id="Trazado_133050" data-name="Trazado 133050" d="M352.27,545.4a5.41,5.41,0,0,1-1.54,4,6.37,6.37,0,0,1-8.4.14,5.86,5.86,0,0,1-.75-7.25,5,5,0,0,1,2.69-1.93l.33,1.84a3.36,3.36,0,0,0-2.3,3.33,3.3,3.3,0,0,0,1.19,2.58,4.42,4.42,0,0,0,3,1,4.37,4.37,0,0,0,3-1.07,3.31,3.31,0,0,0,1.1-2.61,3.43,3.43,0,0,0-.65-2,3.33,3.33,0,0,0-1.76-1.23l.28-1.85a4.921,4.921,0,0,1,2.74,1.85,5.36,5.36,0,0,1,1.07,3.2Z"/>
      <path id="Trazado_133051" data-name="Trazado 133051" d="M338.25,536.27a1.29,1.29,0,0,1-.41.93,1.31,1.31,0,0,1-.95.38,1.25,1.25,0,0,1-.92-.41,1.31,1.31,0,0,1-.38-.95,1.33,1.33,0,0,1,.41-.92,1.31,1.31,0,0,1,.94-.38,1.33,1.33,0,0,1,.93.41A1.3,1.3,0,0,1,338.25,536.27Zm13.81,1.22-11.2-.18v-2l11.19.18Z"/>
      <path id="Trazado_133052" data-name="Trazado 133052" d="M352.46,529a3.8,3.8,0,0,1-.86,2.42,2.76,2.76,0,0,1-2.33.87,3.271,3.271,0,0,1-1.45-.36,2.55,2.55,0,0,1-1-1,5.569,5.569,0,0,1-.59-1.34,12.007,12.007,0,0,1-.33-1.72l-.23-1.82c-.1-.66-.43-1-1-1a2,2,0,0,0-1.69.64,3.24,3.24,0,0,0-.16,3.52,2.17,2.17,0,0,0,1.54.89l-.44,1.76a3.39,3.39,0,0,1-2.34-1.49,5.19,5.19,0,0,1-.69-3.08,6.529,6.529,0,0,1,.26-1.61,4.521,4.521,0,0,1,.68-1.33,2.87,2.87,0,0,1,1.24-.93,4.51,4.51,0,0,1,1.86-.27l4.62.17a1.77,1.77,0,0,0,1.17-.21,1.1,1.1,0,0,0,.34-.87v-.18h1.42v1a1.86,1.86,0,0,1-1.59,2.06v.09a4.3,4.3,0,0,1,1.57,3.79Zm-1.57-.52a3,3,0,0,0-1-2.44,4.44,4.44,0,0,0-2.93-1l.46,3a4,4,0,0,0,.55,1.76,1.43,1.43,0,0,0,1.2.61,1.41,1.41,0,0,0,1.25-.49,2.35,2.35,0,0,0,.47-1.4Z"/>
      <path id="Trazado_133053" data-name="Trazado 133053" d="M343.62,517a3.32,3.32,0,0,1-1.41-1.48,4.28,4.28,0,0,1-.45-2.19l1.85.12a3.75,3.75,0,0,0,.66,2.66,3.49,3.49,0,0,0,2.59,1.06l6,.4-.13,2-11.18-.74.13-1.93Z"/>
      <path id="Trazado_133054" data-name="Trazado 133054" d="M339.56,509.64a1.29,1.29,0,0,1-.47.91,1.323,1.323,0,0,1-2.17-1.16,1.24,1.24,0,0,1,.46-.89,1.28,1.28,0,0,1,1-.32,1.3,1.3,0,0,1,.9.48,1.25,1.25,0,0,1,.28.98Zm13.69,2.18-11.15-.95.17-2,11.15,1Z"/>
      <path id="Trazado_133055" data-name="Trazado 133055" d="M354.5,501.31a6,6,0,0,1-1,2.78,5.17,5.17,0,0,1-2.25,1.78,6.3,6.3,0,0,1-3.16.39,5.71,5.71,0,0,1-4-2.05,6,6,0,0,1,.91-8.06,6.45,6.45,0,0,1,8.4,1A5.51,5.51,0,0,1,354.5,501.31Zm-1.63-.17a3.41,3.41,0,0,0-.85-2.76,4.26,4.26,0,0,0-2.89-1.39,4.32,4.32,0,0,0-3.12.71,3.59,3.59,0,0,0-.59,5.24,4.93,4.93,0,0,0,6,.68A3.41,3.41,0,0,0,352.87,501.14Z"/>
    </g>
    <g id="Grupo_63591" data-name="Grupo 63591">
      <path id="Trazado_133056" data-name="Trazado 133056" d="M482.84,247.46l1.14,1.47-3.26,2.51,8.65,11.23-1.61,1.24-8.65-11.24-3.27,2.52-1.13-1.47Z"/>
      <path id="Trazado_133057" data-name="Trazado 133057" d="M497.67,249.32l.29.45-7.08,5.13a3.91,3.91,0,0,0,2.55,1.69,3.5,3.5,0,0,0,2.65-.69,3.4,3.4,0,0,0,1.19-1.52,3.47,3.47,0,0,0,.16-1.95l1.66-.74a5.09,5.09,0,0,1-.14,3.07,5.17,5.17,0,0,1-1.89,2.46,5.44,5.44,0,0,1-4.18,1.1,6.64,6.64,0,0,1-5-6.89,5.32,5.32,0,0,1,2.3-3.59,5,5,0,0,1,3.89-1.05,5.69,5.69,0,0,1,3.6,2.53Zm-6.59-.26a3.5,3.5,0,0,0-1.42,2,3.62,3.62,0,0,0,.39,2.56l5.44-3.94a3.35,3.35,0,0,0-2.15-1.29,3.14,3.14,0,0,0-2.26.67Z"/>
      <path id="Trazado_133058" data-name="Trazado 133058" d="M500,243.64a3.29,3.29,0,0,1,.3-2,4.13,4.13,0,0,1,1.44-1.7l1.05,1.53a3.69,3.69,0,0,0-1.68,2.15,3.48,3.48,0,0,0,.75,2.7l3.37,4.94-1.63,1.11-6.3-9.25,1.59-1.08Z"/>
      <path id="Trazado_133059" data-name="Trazado 133059" d="M513.82,245.78a5.37,5.37,0,0,1-4.24.83,6.36,6.36,0,0,1-4.56-7.05,5.38,5.38,0,0,1,2.49-3.53,5.45,5.45,0,0,1,3.26-.94,4.94,4.94,0,0,1,3.06,1.26l-1.39,1.25a3.49,3.49,0,0,0-5.6,2.18,4.38,4.38,0,0,0,.79,3.09,4.31,4.31,0,0,0,2.49,2,3.55,3.55,0,0,0,4.16-2.07,3.37,3.37,0,0,0,.12-2.14l1.72-.75a4.93,4.93,0,0,1-.12,3.31,5.42,5.42,0,0,1-2.18,2.56Z"/>
      <path id="Trazado_133060" data-name="Trazado 133060" d="M514.15,229.05a1.332,1.332,0,0,1-1.82-.45,1.24,1.24,0,0,1-.14-1,1.27,1.27,0,0,1,.6-.81,1.25,1.25,0,0,1,1-.15,1.3,1.3,0,0,1,1,1.61A1.26,1.26,0,0,1,514.15,229.05Zm6.27,12.37-5.77-9.6,1.7-1,5.77,9.6Z"/>
      <path id="Trazado_133061" data-name="Trazado 133061" d="M527.81,237.28a3.74,3.74,0,0,1-2.51.55,2.77,2.77,0,0,1-2-1.51,3.28,3.28,0,0,1-.46-1.42,2.65,2.65,0,0,1,.29-1.34,5.367,5.367,0,0,1,.83-1.2,12.656,12.656,0,0,1,1.27-1.2l1.43-1.16a1,1,0,0,0,.34-1.39,2,2,0,0,0-1.43-1.1,3.24,3.24,0,0,0-3.07,1.74,2.12,2.12,0,0,0,.06,1.77l-1.73.56a3.44,3.44,0,0,1,0-2.78,5.29,5.29,0,0,1,2.26-2.21,6.328,6.328,0,0,1,1.5-.63,4.429,4.429,0,0,1,1.49-.13,2.77,2.77,0,0,1,1.44.57,4.43,4.43,0,0,1,1.22,1.42l2.29,4a1.93,1.93,0,0,0,.8.88,1.13,1.13,0,0,0,.92-.17l.16-.09.7,1.23-.85.49a1.86,1.86,0,0,1-2.59-.27l-.08.05a4.27,4.27,0,0,1-2.28,3.34Zm-.4-1.61a3,3,0,0,0,1.55-2.13,4.4,4.4,0,0,0-.68-3l-2.29,2a4,4,0,0,0-1.19,1.4,1.45,1.45,0,0,0,.11,1.35A1.43,1.43,0,0,0,526,236,2.23,2.23,0,0,0,527.41,235.67Z"/>
      <path id="Trazado_133062" data-name="Trazado 133062" d="M533.36,223.4a3.41,3.41,0,0,1,.52-2,4.161,4.161,0,0,1,1.61-1.53l.88,1.63a3.72,3.72,0,0,0-1.9,2,3.52,3.52,0,0,0,.46,2.77l2.83,5.27-1.74.93-5.29-9.87,1.7-.91Z"/>
      <path id="Trazado_133063" data-name="Trazado 133063" d="M537.43,216.07a1.23,1.23,0,0,1-1,.08,1.31,1.31,0,0,1-.85-1.67,1.26,1.26,0,0,1,.66-.77,1.28,1.28,0,0,1,1-.08,1.33,1.33,0,0,1,.85,1.67,1.25,1.25,0,0,1-.66.77Zm5.4,12.77-5.09-10,1.76-.9,5.1,10Z"/>
      <path id="Trazado_133064" data-name="Trazado 133064" d="M552.41,224.34a5.89,5.89,0,0,1-2.89.61,5,5,0,0,1-2.7-1,6.19,6.19,0,0,1-2-2.47,5.68,5.68,0,0,1-.39-4.49,6,6,0,0,1,7.32-3.49,6.43,6.43,0,0,1,3.63,7.63,5.51,5.51,0,0,1-2.97,3.21Zm-.72-1.48a3.44,3.44,0,0,0,1.9-2.17,4.38,4.38,0,0,0-.35-3.19,4.28,4.28,0,0,0-2.26-2.27,3.6,3.6,0,0,0-4.76,2.27,4.91,4.91,0,0,0,2.61,5.46,3.37,3.37,0,0,0,2.86-.1Z"/>
    </g>
    <g id="Grupo_63592" data-name="Grupo 63592">
      <path id="Trazado_133065" data-name="Trazado 133065" d="M854.3,206.67l-.74,1.71-3.77-1.65-5.67,13-1.86-.81,5.68-13-3.78-1.65.74-1.7Z"/>
      <path id="Trazado_133066" data-name="Trazado 133066" d="M859.81,220.56l-.25.48-7.91-3.74a4,4,0,0,0-.25,3,3.49,3.49,0,0,0,1.88,2,3.36,3.36,0,0,0,1.91.31,3.43,3.43,0,0,0,1.78-.8l1.45,1.1a5.09,5.09,0,0,1-2.75,1.36,5.25,5.25,0,0,1-3.07-.48,5.4,5.4,0,0,1-3-3.13,5.81,5.81,0,0,1,.43-4.51,5.74,5.74,0,0,1,3.21-3.18,5.34,5.34,0,0,1,4.25.28,5,5,0,0,1,2.79,2.91,5.62,5.62,0,0,1-.47,4.4Zm-2.94-5.9a3.54,3.54,0,0,0-2.45-.28,3.64,3.64,0,0,0-2,1.59l6.07,2.86a3.36,3.36,0,0,0,.1-2.5,3.2,3.2,0,0,0-1.72-1.67Z"/>
      <path id="Trazado_133067" data-name="Trazado 133067" d="M865.89,219.83a3.379,3.379,0,0,1,1.92-.71,4.14,4.14,0,0,1,2.19.45l-.84,1.65a3.69,3.69,0,0,0-2.7-.43,3.44,3.44,0,0,0-2,2l-2.7,5.33-1.76-.89,5.07-10,1.71.87Z"/>
      <path id="Trazado_133068" data-name="Trazado 133068" d="M870.7,233a5.38,5.38,0,0,1-2.77-3.31,6.4,6.4,0,0,1,4-7.41,5.84,5.84,0,0,1,6.69,2.89,5,5,0,0,1,.37,3.29l-1.77-.61a3.349,3.349,0,0,0-.29-2.14,3.48,3.48,0,0,0-1.49-1.5,3.31,3.31,0,0,0-2.83-.21,5,5,0,0,0-2.85,5.31,3.28,3.28,0,0,0,1.73,2.23,3.36,3.36,0,0,0,4-.51l1.48,1.14a4.94,4.94,0,0,1-3,1.5,5.46,5.46,0,0,1-3.27-.67Z"/>
      <path id="Trazado_133069" data-name="Trazado 133069" d="M877.7,236.69l5.63-9.68,1.71,1-5.62,9.68Zm7.82-11.45a1.27,1.27,0,0,1-.61-.82,1.24,1.24,0,0,1,.13-1,1.32,1.32,0,0,1,2.42.33,1.28,1.28,0,0,1-.13,1,1.26,1.26,0,0,1-.81.61,1.24,1.24,0,0,1-1-.12Z"/>
      <path id="Trazado_133070" data-name="Trazado 133070" d="M884.89,241.17a3.8,3.8,0,0,1-1.69-1.93,2.749,2.749,0,0,1,.37-2.46,3.191,3.191,0,0,1,1-1.09,2.559,2.559,0,0,1,1.31-.4,5.539,5.539,0,0,1,1.45.15A11.258,11.258,0,0,1,889,236l1.7.69a1,1,0,0,0,1.39-.36,2,2,0,0,0,.27-1.79,2.87,2.87,0,0,0-1.24-1.38,3,3,0,0,0-1.76-.48,2.16,2.16,0,0,0-1.53.91l-1.32-1.25A3.43,3.43,0,0,1,889,231a5.15,5.15,0,0,1,3,.91,5.77,5.77,0,0,1,1.28,1,4.282,4.282,0,0,1,.83,1.24,2.9,2.9,0,0,1,.2,1.54,4.74,4.74,0,0,1-.66,1.75l-2.42,3.94a1.92,1.92,0,0,0-.39,1.13,1.12,1.12,0,0,0,.6.72l.15.1-.74,1.21-.83-.51a1.87,1.87,0,0,1-1-2.4h-.08a4.28,4.28,0,0,1-4.05-.46Zm1.22-1.12a3,3,0,0,0,2.61.33,4.47,4.47,0,0,0,2.33-2l-2.83-1.06a4,4,0,0,0-1.8-.38,1.45,1.45,0,0,0-1.12.75,1.42,1.42,0,0,0-.18,1.33,2.309,2.309,0,0,0,.99,1.03Z"/>
      <path id="Trazado_133071" data-name="Trazado 133071" d="M899.73,239.34a3.38,3.38,0,0,1,2-.5,4.12,4.12,0,0,1,2.12.68l-1,1.55a3.67,3.67,0,0,0-2.63-.72,3.48,3.48,0,0,0-2.2,1.74l-3.26,5L893.09,246l6.1-9.39,1.62,1.05Z"/>
      <path id="Trazado_133072" data-name="Trazado 133072" d="M899.52,250.27,905.8,241l1.65,1.11-6.29,9.27Zm8.59-10.89a1.26,1.26,0,0,1-.56-.85,1.28,1.28,0,0,1,.21-1,1.34,1.34,0,1,1,.4,1.83Z"/>
      <path id="Trazado_133073" data-name="Trazado 133073" d="M908.09,256.49a5.871,5.871,0,0,1-1.93-2.24,5.12,5.12,0,0,1-.46-2.83,6.34,6.34,0,0,1,1.2-2.95,5.78,5.78,0,0,1,3.75-2.5,6,6,0,0,1,6.59,4.73,6.43,6.43,0,0,1-4.94,6.86,5.46,5.46,0,0,1-4.21-1.07Zm.94-1.34a3.46,3.46,0,0,0,2.82.61,4.84,4.84,0,0,0,3.53-4.91,3.41,3.41,0,0,0-1.48-2.48,3.36,3.36,0,0,0-2.8-.6,4.37,4.37,0,0,0-2.61,1.85,4.31,4.31,0,0,0-.92,3.06,3.42,3.42,0,0,0,1.43,2.47Z"/>
    </g>
    <g id="Grupo_63593" data-name="Grupo 63593">
      <path id="Trazado_133074" data-name="Trazado 133074" d="M1068.83,509.79,1067,510l-.4-4.09-14.12,1.4-.2-2,14.12-1.4-.41-4.1,1.85-.18Z"/>
      <path id="Trazado_133075" data-name="Trazado 133075" d="M1059.4,521.38h-.54l-.6-8.72a4,4,0,0,0-2.79,1.26,3.55,3.55,0,0,0-.81,2.62,3.219,3.219,0,0,0,.66,1.81,3.41,3.41,0,0,0,1.56,1.17l-.25,1.8a5.08,5.08,0,0,1-2.53-1.74,5.27,5.27,0,0,1-1.08-2.91,5.44,5.44,0,0,1,1.28-4.13,6.64,6.64,0,0,1,8.49-.58,5.36,5.36,0,0,1,1.83,3.85,5,5,0,0,1-1.17,3.85,5.69,5.69,0,0,1-4.05,1.72Zm3.71-5.45a3.57,3.57,0,0,0-.95-2.27,3.64,3.64,0,0,0-2.39-1l.47,6.69a3.31,3.31,0,0,0,2.23-1.13A3.169,3.169,0,0,0,1063.11,515.93Z"/>
      <path id="Trazado_133076" data-name="Trazado 133076" d="M1063,526.33a3.32,3.32,0,0,1,1.56,1.33,4.071,4.071,0,0,1,.68,2.12l-1.85.08a3.7,3.7,0,0,0-.94-2.57,3.52,3.52,0,0,0-2.69-.79l-6,.25-.08-2,11.18-.46.08,1.93Z"/>
      <path id="Trazado_133077" data-name="Trazado 133077" d="M1053.85,537a5.37,5.37,0,0,1,1.54-4,5.72,5.72,0,0,1,4.18-1.66,5.578,5.578,0,0,1,4.97,8.76,5,5,0,0,1-2.69,1.93l-.33-1.84a3.349,3.349,0,0,0,1.72-1.3,3.46,3.46,0,0,0,.59-2,3.3,3.3,0,0,0-1.2-2.57,4.31,4.31,0,0,0-3-1,4.38,4.38,0,0,0-3,1.06,3.321,3.321,0,0,0-1.1,2.61,3.37,3.37,0,0,0,2.41,3.26l-.28,1.85a4.93,4.93,0,0,1-2.74-1.86,5.431,5.431,0,0,1-1.07-3.24Z"/>
      <path id="Trazado_133078" data-name="Trazado 133078" d="M1054.06,544.87l11.2.18v2l-11.2-.18Zm13.81,1.22a1.29,1.29,0,0,1,.41-.93,1.31,1.31,0,0,1,1-.38,1.29,1.29,0,0,1,.93.41,1.339,1.339,0,0,1,.37.95,1.35,1.35,0,0,1-1.35,1.3,1.35,1.35,0,0,1-1.31-1.35Z"/>
      <path id="Trazado_133079" data-name="Trazado 133079" d="M1053.66,553.33a3.8,3.8,0,0,1,.86-2.43,2.77,2.77,0,0,1,2.33-.87,3.23,3.23,0,0,1,1.45.36,2.58,2.58,0,0,1,1,1,5.537,5.537,0,0,1,.58,1.34,11.881,11.881,0,0,1,.34,1.72l.22,1.82c.1.66.43,1,1,1a2,2,0,0,0,1.7-.64,2.849,2.849,0,0,0,.59-1.75,2.91,2.91,0,0,0-.44-1.77,2.17,2.17,0,0,0-1.54-.89l.44-1.76a3.39,3.39,0,0,1,2.34,1.49,5.189,5.189,0,0,1,.69,3.08,6.236,6.236,0,0,1-.26,1.62,4.527,4.527,0,0,1-.68,1.33,2.85,2.85,0,0,1-1.24.92,4.48,4.48,0,0,1-1.85.27l-4.63-.17a1.92,1.92,0,0,0-1.17.21,1.1,1.1,0,0,0-.34.87v.18h-1.43v-1a1.832,1.832,0,0,1,1.6-2.06v-.09A4.29,4.29,0,0,1,1053.66,553.33Zm1.58.51a3,3,0,0,0,1,2.45,4.51,4.51,0,0,0,2.93,1l-.46-3a4,4,0,0,0-.55-1.76,1.64,1.64,0,0,0-2.45-.12,2.31,2.31,0,0,0-.47,1.43Z"/>
      <path id="Trazado_133080" data-name="Trazado 133080" d="M1062.5,565.39a3.32,3.32,0,0,1,1.41,1.48,4.08,4.08,0,0,1,.45,2.19l-1.85-.12a3.72,3.72,0,0,0-.66-2.65,3.44,3.44,0,0,0-2.59-1.07l-6-.4.13-2,11.17.74-.13,1.92Z"/>
      <path id="Trazado_133081" data-name="Trazado 133081" d="M1052.87,570.54l11.15,1-.16,2-11.16-1Zm13.69,2.18a1.289,1.289,0,0,1,.47-.91,1.34,1.34,0,0,1,1-.31,1.25,1.25,0,0,1,.9.47,1.34,1.34,0,0,1,.31,1,1.29,1.29,0,0,1-.47.9,1.26,1.26,0,0,1-1,.31,1.29,1.29,0,0,1-.91-.47,1.33,1.33,0,0,1-.3-.99Z"/>
      <path id="Trazado_133082" data-name="Trazado 133082" d="M1051.62,581.05a5.83,5.83,0,0,1,1-2.77,5,5,0,0,1,2.24-1.78,6.211,6.211,0,0,1,3.16-.4,5.71,5.71,0,0,1,4,2,6,6,0,0,1-.91,8.06,6.4,6.4,0,0,1-8.39-1,5.47,5.47,0,0,1-1.1-4.11Zm1.63.17a3.44,3.44,0,0,0,.85,2.76,4.86,4.86,0,0,0,6,.68,3.59,3.59,0,0,0,.59-5.24,4.93,4.93,0,0,0-6-.68,3.41,3.41,0,0,0-1.44,2.48Z"/>
    </g>
    <g id="Grupo_63594" data-name="Grupo 63594">
      <path id="Trazado_133083" data-name="Trazado 133083" d="M912.69,842.59l-1.08-1.51,3.34-2.4-8.26-11.52,1.65-1.18,8.26,11.52,3.35-2.4,1.08,1.51Z"/>
      <path id="Trazado_133084" data-name="Trazado 133084" d="M897.94,840.21l-.28-.46,7.25-4.88a4,4,0,0,0-2.48-1.78,3.53,3.53,0,0,0-2.68.6,3.36,3.36,0,0,0-1.24,1.48,3.45,3.45,0,0,0-.23,1.94l-1.68.68a5,5,0,0,1,.24-3.06,5.26,5.26,0,0,1,2-2.39,5.39,5.39,0,0,1,4.21-1,5.85,5.85,0,0,1,3.66,2.68,5.77,5.77,0,0,1,1.09,4.38,5.36,5.36,0,0,1-2.42,3.52,5.08,5.08,0,0,1-3.92.91A5.67,5.67,0,0,1,897.94,840.21Zm6.57.49a3.47,3.47,0,0,0,1.49-2,3.55,3.55,0,0,0-.31-2.57l-5.56,3.75a3.33,3.33,0,0,0,2.1,1.36,3.15,3.15,0,0,0,2.28-.54Z"/>
      <path id="Trazado_133085" data-name="Trazado 133085" d="M895.45,845.81a3.369,3.369,0,0,1-.37,2,4.24,4.24,0,0,1-1.5,1.65l-1-1.57a3.68,3.68,0,0,0,1.75-2.09,3.451,3.451,0,0,0-.66-2.72l-3.2-5.06,1.67-1,6,9.46-1.62,1Z"/>
      <path id="Trazado_133086" data-name="Trazado 133086" d="M881.67,843.19a5.37,5.37,0,0,1,4.26-.68,6.38,6.38,0,0,1,4.33,7.21,5.82,5.82,0,0,1-5.91,4.26,4.88,4.88,0,0,1-3-1.37l1.43-1.2a3.41,3.41,0,0,0,2,.85,3.47,3.47,0,0,0,2-.51,3.3,3.3,0,0,0,1.63-2.32,5,5,0,0,0-3.09-5.18,3.5,3.5,0,0,0-4.43,4.07l-1.74.68a5,5,0,0,1,.23-3.31,5.46,5.46,0,0,1,2.29-2.5Z"/>
      <path id="Trazado_133087" data-name="Trazado 133087" d="M874.93,847.33l5.43,9.78-1.73,1-5.44-9.79Zm5.83,12.57a1.27,1.27,0,0,1,1-.11,1.309,1.309,0,0,1,.91,1.63,1.31,1.31,0,0,1-1.63.9,1.24,1.24,0,0,1-.79-.62,1.3,1.3,0,0,1-.12-1,1.27,1.27,0,0,1,.63-.8Z"/>
      <path id="Trazado_133088" data-name="Trazado 133088" d="M867.4,851.2a3.79,3.79,0,0,1,2.53-.46,2.77,2.77,0,0,1,1.92,1.58,3.289,3.289,0,0,1,.41,1.44,2.589,2.589,0,0,1-.33,1.32,5.9,5.9,0,0,1-.87,1.18,12.631,12.631,0,0,1-1.32,1.15l-1.46,1.1a1,1,0,0,0-.4,1.38,2,2,0,0,0,1.4,1.15,2.82,2.82,0,0,0,1.81-.35,3,3,0,0,0,1.32-1.27,2.2,2.2,0,0,0,0-1.78l1.75-.5a3.46,3.46,0,0,1-.13,2.78,5.169,5.169,0,0,1-2.32,2.13,6.6,6.6,0,0,1-1.53.58,4.682,4.682,0,0,1-1.49.08,2.852,2.852,0,0,1-1.42-.62,4.42,4.42,0,0,1-1.17-1.47l-2.1-4.09a1.919,1.919,0,0,0-.77-.91,1.11,1.11,0,0,0-.92.14l-.17.09-.66-1.26.87-.46a1.88,1.88,0,0,1,2.58.35h.08A4.26,4.26,0,0,1,867.4,851.2Zm.34,1.63a3,3,0,0,0-1.62,2.07,4.39,4.39,0,0,0,.57,3.05l2.35-1.89a3.9,3.9,0,0,0,1.25-1.36,1.43,1.43,0,0,0-.07-1.34,1.45,1.45,0,0,0-1.05-.84,2.28,2.28,0,0,0-1.43.31Z"/>
      <path id="Trazado_133089" data-name="Trazado 133089" d="M861.37,864.89a3.44,3.44,0,0,1-.58,2,4.171,4.171,0,0,1-1.68,1.48l-.81-1.66a3.71,3.71,0,0,0,2-1.9,3.48,3.48,0,0,0-.36-2.77l-2.64-5.37,1.77-.87,4.94,10-1.73.85Z"/>
      <path id="Trazado_133090" data-name="Trazado 133090" d="M852.09,859.12l4.75,10.14-1.8.84L850.3,860Zm5,13a1.27,1.27,0,0,1,1-.05,1.33,1.33,0,0,1,.76.69,1.27,1.27,0,0,1,0,1,1.328,1.328,0,0,1-2.45.11,1.309,1.309,0,0,1,0-1,1.26,1.26,0,0,1,.65-.8Z"/>
      <path id="Trazado_133091" data-name="Trazado 133091" d="M842.36,863.29a5.81,5.81,0,0,1,2.91-.51,5,5,0,0,1,2.67,1.06,6.29,6.29,0,0,1,1.92,2.53,5.71,5.71,0,0,1,.22,4.51,6,6,0,0,1-7.43,3.23,6.45,6.45,0,0,1-3.37-7.75,5.5,5.5,0,0,1,3.08-3.07Zm.67,1.5a3.43,3.43,0,0,0-2,2.11,4.85,4.85,0,0,0,2.41,5.54,3.6,3.6,0,0,0,4.84-2.1,4.3,4.3,0,0,0-.25-3.18,4.35,4.35,0,0,0-2.17-2.37,3.4,3.4,0,0,0-2.86,0Z"/>
    </g>
    <rect id="Rectángulo_7938" data-name="Rectángulo 7938" width="1" height="83.38" transform="matrix(0.966, -0.259, 0.259, 0.966, 604.707, 177.449)"/>
    <rect id="Rectángulo_7939" data-name="Rectángulo 7939" width="86.42" height="1" transform="translate(778.309 257.749) rotate(-73.79)"/>
    <rect id="Rectángulo_7940" data-name="Rectángulo 7940" width="84.206" height="1.004" transform="translate(340.305 640.65) rotate(-15.005)"/>
    <rect id="Rectángulo_7941" data-name="Rectángulo 7941" width="79.22" height="1" transform="translate(437.23 802.992) rotate(-43.38)"/>
    <rect id="Rectángulo_7942" data-name="Rectángulo 7942" width="1" height="84.38" transform="translate(986.169 617.892) rotate(-74.98)"/>
    <rect id="Rectángulo_7943" data-name="Rectángulo 7943" width="1" height="87.98" transform="matrix(0.689, -0.725, 0.725, 0.689, 909.997, 749.395)"/>
    <g id="Grupo_63595" data-name="Grupo 63595">
      <path id="Trazado_133092" data-name="Trazado 133092" d="M1025.65,248.77a11.293,11.293,0,0,1-2.24-3.59,9.7,9.7,0,0,1-.68-3.86,9.45,9.45,0,0,1,1-3.84,11.49,11.49,0,0,1,2.68-3.5,11.069,11.069,0,0,1,5-2.72,9.17,9.17,0,0,1,5.22.29,11.15,11.15,0,0,1,4.55,3.12,10.889,10.889,0,0,1,2.8,5.55,9,9,0,0,1-.91,5.77l-3.73-2a5.6,5.6,0,0,0,.57-3.48,6.3,6.3,0,0,0-1.62-3.26,6,6,0,0,0-4.32-2.11,7.46,7.46,0,0,0-7.12,6.47,6,6,0,0,0,1.67,4.5,6.17,6.17,0,0,0,3.09,1.92,5.55,5.55,0,0,0,3.52-.23l1.59,3.9a9.08,9.08,0,0,1-5.84.35,10.731,10.731,0,0,1-5.23-3.28Z"/>
      <path id="Trazado_133093" data-name="Trazado 133093" d="M1043.09,268.78l2.31-3.82-5.44-6.63-4.2,1.53-2.75-3.35,20.55-7.16,3.29,4-11,18.78Zm.4-11.74,3.86,4.71,4.77-7.85Zm18.94-5.85-5-.08-1.59-1.93,6.37-.44Z"/>
      <path id="Trazado_133094" data-name="Trazado 133094" d="M1053.08,275.57l3.87,5.11-3,2.26-6.43-8.48,16.28-12.34,2.56,3.38Z"/>
      <path id="Trazado_133095" data-name="Trazado 133095" d="M1055.78,285.45l16.76-11.68,2.42,3.48-16.76,11.68Z"/>
      <path id="Trazado_133096" data-name="Trazado 133096" d="M1061.22,293.06l17-11.33,4.11,6.15a11.481,11.481,0,0,1,1.75,3.95,7.819,7.819,0,0,1,0,3.7,9.08,9.08,0,0,1-1.67,3.29,14.56,14.56,0,0,1-6.95,4.63,8.94,8.94,0,0,1-3.68.28,7.821,7.821,0,0,1-3.43-1.38,11.381,11.381,0,0,1-3-3.14Zm5.47,1.45,1.63,2.45a5,5,0,0,0,3.68,2.51,9.2,9.2,0,0,0,8-5.34,5,5,0,0,0-.91-4.36l-1.63-2.44Z"/>
      <path id="Trazado_133097" data-name="Trazado 133097" d="M1077.11,318.38a11.17,11.17,0,0,1-1.65-5.26,9.37,9.37,0,0,1,1.25-5.09,11.211,11.211,0,0,1,4.06-4,11.051,11.051,0,0,1,5.46-1.68,9.23,9.23,0,0,1,5.06,1.31,11.26,11.26,0,0,1,3.85,4,11.13,11.13,0,0,1,1.65,5.25,9.189,9.189,0,0,1-1.24,5.07,11,11,0,0,1-4.07,4,11.162,11.162,0,0,1-5.45,1.68,9.29,9.29,0,0,1-5.07-1.31,11,11,0,0,1-3.85-3.97Zm2.59-6.74a6.465,6.465,0,0,0,4.58,7.67,7.5,7.5,0,0,0,8.27-4.94,6.49,6.49,0,0,0-4.58-7.67,7.49,7.49,0,0,0-8.27,4.94Z"/>
      <path id="Trazado_133098" data-name="Trazado 133098" d="M1087.33,336.46a9.81,9.81,0,0,1-1.29-5.74,6.25,6.25,0,0,1,2.55-4.49l3,3.39a3.68,3.68,0,0,0-1.64,2.4,4.49,4.49,0,0,0,.56,3,3.631,3.631,0,0,0,1.61,1.67,2.09,2.09,0,0,0,2-.13,2,2,0,0,0,1-1.35,4.869,4.869,0,0,0,.14-1.7c-.07-.5-.2-1.3-.42-2.38,0-.15,0-.25-.06-.32q-.15-.83-.24-1.35c-.06-.34-.11-.77-.16-1.3a7.551,7.551,0,0,1,.15-2.54,4,4,0,0,1,.44-1.17,5.3,5.3,0,0,1,.8-1,5.624,5.624,0,0,1,1.19-.87,5.51,5.51,0,0,1,3.29-.67,5.79,5.79,0,0,1,3,1.3,9.362,9.362,0,0,1,2.34,2.92,12.121,12.121,0,0,1,1,2.49,9.49,9.49,0,0,1,.32,2.53,5.821,5.821,0,0,1-.59,2.47,6.29,6.29,0,0,1-1.68,2.13l-2.83-3.14a3.32,3.32,0,0,0,.85-4.62,4.1,4.1,0,0,0-1.6-1.73,2,2,0,0,0-2,.07,2.07,2.07,0,0,0-.9,2.16,22.673,22.673,0,0,0,.48,3c.12.57.2,1,.27,1.4s.13.83.18,1.39a9.422,9.422,0,0,1,.06,1.43A10.775,10.775,0,0,1,1099,337a4.373,4.373,0,0,1-.47,1.29,5.354,5.354,0,0,1-.85,1.08,5.2,5.2,0,0,1-1.28.95,6.12,6.12,0,0,1-2.23.72,4.86,4.86,0,0,1-2.06-.17,6.281,6.281,0,0,1-1.85-.92,8.1,8.1,0,0,1-1.6-1.5,12,12,0,0,1-1.33-1.99Z"/>
    </g>
    <g id="Grupo_63596" data-name="Grupo 63596">
      <path id="Trazado_133099" data-name="Trazado 133099" d="M1004.53,217.83A442.6,442.6,0,0,0,705.4,98V94a446.55,446.55,0,0,1,301.82,121Z"/>
      <path id="Trazado_133100" data-name="Trazado 133100" d="M719.06,80.01,721.72,83,706.95,96.07l14.12,13.78-2.8,2.86L701.08,95.93Z"/>
    </g>
    <g id="Grupo_63597" data-name="Grupo 63597">
      <path id="Trazado_133101" data-name="Trazado 133101" d="M1094.36,756.5l-3.51-1.92a445,445,0,0,0,19.39-385.26l3.69-1.56a449.06,449.06,0,0,1-19.57,388.74Z"/>
      <path id="Trazado_133102" data-name="Trazado 133102" d="M1113.24,751.58l-1.29-3.79-18.66,6.38-5-19.09-3.87,1.02,6.09,23.24Z"/>
    </g>
    <g id="Grupo_63598" data-name="Grupo 63598">
      <path id="Trazado_133103" data-name="Trazado 133103" d="M704.87,988.15A447.22,447.22,0,0,1,377.22,845.66l2.92-2.73A444.94,444.94,0,0,0,764.39,980.15l.54,4a447.55,447.55,0,0,1-60.06,4Z"/>
      <path id="Trazado_133104" data-name="Trazado 133104" d="M753.59,999.99l-3.08-2.55,12.62-15.16L747.09,970.8l2.34-3.26,19.53,13.99Z"/>
    </g>
    <g id="Grupo_63599" data-name="Grupo 63599">
      <path id="Trazado_133105" data-name="Trazado 133105" d="M301.79,735.77A449.34,449.34,0,0,1,284.9,384.28l3.75,1.39A445.37,445.37,0,0,0,305.39,734Z"/>
      <path id="Trazado_133106" data-name="Trazado 133106" d="M266.92,391.86l1.82,3.57,17.56-8.99,7.68,18.17,3.69-1.57-9.36-22.12Z"/>
    </g>
    <g id="Grupo_63600" data-name="Grupo 63600">
      <path id="Trazado_133107" data-name="Trazado 133107" d="M349.39,823.27l4.93,6,3.59-2.94-4.26-5.19,2.85-2.34,4.26,5.19,6.47-5.31,2.71,3.3-15.79,13-7.64-9.31Z"/>
      <path id="Trazado_133108" data-name="Trazado 133108" d="M353.65,801.39l-3.95,9.67.74,1,7.17-5.43,2.56,3.38-16.28,12.34-4.47-5.91a8.49,8.49,0,0,1-1.42-2.65,5,5,0,0,1-.19-2.43,5.49,5.49,0,0,1,.83-2.09,6.89,6.89,0,0,1,1.67-1.75,5,5,0,0,1,3.35-1.14,5.549,5.549,0,0,1,3.34,1.49l3.62-10.46Zm-9.52,15.43,3.89-3-1.51-2c-1.28-1.69-2.57-2-3.86-1.07a2.22,2.22,0,0,0-1,1.71,3.76,3.76,0,0,0,.93,2.31Z"/>
      <path id="Trazado_133109" data-name="Trazado 133109" d="M348.93,795l-16.85,11.55-2.39-3.5,16.84-11.55Z"/>
      <path id="Trazado_133110" data-name="Trazado 133110" d="M338.81,779.63a11,11,0,0,1,1.87,5.19,9.22,9.22,0,0,1-1,5.13,12,12,0,0,1-9.27,6.08,9.289,9.289,0,0,1-5.11-1.1,11.19,11.19,0,0,1-4-3.79,11,11,0,0,1-1.88-5.18,9.279,9.279,0,0,1,1-5.12,12.07,12.07,0,0,1,9.28-6.08,9.321,9.321,0,0,1,5.12,1.1,11,11,0,0,1,3.99,3.77Zm-2.3,6.85a6.46,6.46,0,0,0-4.9-7.47,7.49,7.49,0,0,0-8.05,5.28,6.49,6.49,0,0,0,4.9,7.47,7.49,7.49,0,0,0,8.05-5.28Z"/>
      <path id="Trazado_133111" data-name="Trazado 133111" d="M327.85,762a9.91,9.91,0,0,1,1.54,5.67,6.27,6.27,0,0,1-2.37,4.6L323.93,769a3.7,3.7,0,0,0,1.53-2.47,4.44,4.44,0,0,0-.68-2.92A3.64,3.64,0,0,0,323.1,762a2.11,2.11,0,0,0-2,.22,2,2,0,0,0-.93,1.39,4.741,4.741,0,0,0-.07,1.7c.08.51.26,1.3.52,2.37a.886.886,0,0,0,.07.31c.13.55.23,1,.3,1.34s.14.77.21,1.29a8.515,8.515,0,0,1,.09,1.33,8.347,8.347,0,0,1-.13,1.22,4,4,0,0,1-.39,1.18,5.6,5.6,0,0,1-5.17,2.75,5.85,5.85,0,0,1-3.1-1.1,9.48,9.48,0,0,1-2.46-2.82,11.06,11.06,0,0,1-1.1-2.45,9.049,9.049,0,0,1-.43-2.51,5.77,5.77,0,0,1,.48-2.5,6.28,6.28,0,0,1,1.59-2.19l3,3a3.33,3.33,0,0,0-.65,4.66,4,4,0,0,0,1.67,1.65,2,2,0,0,0,2-.14,2.09,2.09,0,0,0,.8-2.2,21.386,21.386,0,0,0-.61-2.94c-.13-.57-.24-1-.32-1.39s-.16-.82-.25-1.38a10.312,10.312,0,0,1-.11-1.43,9.769,9.769,0,0,1,.13-1.32,4.479,4.479,0,0,1,.41-1.31,5.928,5.928,0,0,1,.81-1.12,5.18,5.18,0,0,1,1.24-1,6.33,6.33,0,0,1,2.19-.82,5.1,5.1,0,0,1,2.07.09,6.6,6.6,0,0,1,1.89.84,8.33,8.33,0,0,1,1.66,1.43A12,12,0,0,1,327.85,762Z"/>
    </g>
  </g>
</svg>
