<svg xmlns="http://www.w3.org/2000/svg" xmlns:xlink="http://www.w3.org/1999/xlink" width="350.627" height="382.452" viewBox="0 0 350.627 382.452">
  <defs>
    <clipPath id="clip-path">
      <rect id="Rect치ngulo_4629" data-name="Rect치ngulo 4629" width="350.627" height="382.452" fill="none"/>
    </clipPath>
    <clipPath id="clip-path-2">
      <path id="Rect치ngulo_4629-2" data-name="Rect치ngulo 4629" d="M0,0H350.627V382.452H0Z" fill="none"/>
    </clipPath>
  </defs>
  <g id="Grupo_63929" data-name="Grupo 63929" transform="translate(-625 -1763.652)">
    <g id="img_1_1_01" transform="translate(625 1763.652)">
      <g id="Grupo_31590" data-name="Grupo 31590">
        <g id="Grupo_31589" data-name="Grupo 31589" clip-path="url(#clip-path)">
          <path id="Trazado_28978" data-name="Trazado 28978" d="M133.249,143.086a108.738,108.738,0,0,1,41.87-101.77A108.961,108.961,0,1,0,67.694,228.782a109.066,109.066,0,0,1,65.554-85.7" transform="translate(0.195 29.672)" fill="#ea2c1c"/>
          <path id="Trazado_28979" data-name="Trazado 28979" d="M133.249,143.086a108.738,108.738,0,0,1,41.87-101.77A108.961,108.961,0,1,0,67.694,228.782a109.066,109.066,0,0,1,65.555-85.7Z" transform="translate(0.195 29.672)" fill="none" stroke="#000" stroke-miterlimit="10" stroke-width="0.25"/>
          <path id="Trazado_28980" data-name="Trazado 28980" d="M243.461,127.979A108.947,108.947,0,0,0,68.468,41.316,108.772,108.772,0,0,1,111.4,127.979a109.764,109.764,0,0,1-1.017,14.713,109.065,109.065,0,0,1,66.5,85.7,108.992,108.992,0,0,0,66.571-100.408" transform="translate(106.845 29.672)" fill="#12903f"/>
          <path id="Trazado_28981" data-name="Trazado 28981" d="M243.461,127.979A108.947,108.947,0,0,0,68.468,41.316,108.772,108.772,0,0,1,111.4,127.979a109.764,109.764,0,0,1-1.017,14.713,109.065,109.065,0,0,1,66.5,85.7,108.992,108.992,0,0,0,66.578-100.413Z" transform="translate(106.845 29.672)" fill="none" stroke="#000" stroke-miterlimit="10" stroke-width="0.25"/>
          <path id="Trazado_28982" data-name="Trazado 28982" d="M51.7,114.387a109.679,109.679,0,0,0,1.068,15.107,109.2,109.2,0,0,1,83.788-.394,109.764,109.764,0,0,0,1.017-14.713A108.772,108.772,0,0,0,94.636,27.724,108.775,108.775,0,0,0,51.7,114.387" transform="translate(80.677 43.264)" fill="#fef011"/>
          <path id="Trazado_28983" data-name="Trazado 28983" d="M51.7,114.387a109.679,109.679,0,0,0,1.068,15.107,109.2,109.2,0,0,1,83.788-.394,109.764,109.764,0,0,0,1.017-14.713A108.772,108.772,0,0,0,94.636,27.724,108.775,108.775,0,0,0,51.7,114.387Z" transform="translate(80.677 43.264)" fill="none" stroke="#000" stroke-miterlimit="10" stroke-width="0.25"/>
          <path id="Trazado_28984" data-name="Trazado 28984" d="M134.557,95.415a108.465,108.465,0,0,1-66.031,22.3,108.589,108.589,0,0,1-41.393-8.163,108.961,108.961,0,1,0,215.847-.395,108.592,108.592,0,0,1-42.394,8.557,108.457,108.457,0,0,1-66.028-22.3" transform="translate(40.756 148.897)" fill="#002172"/>
          <path id="Trazado_28985" data-name="Trazado 28985" d="M134.557,95.415a108.465,108.465,0,0,1-66.031,22.3,108.589,108.589,0,0,1-41.393-8.163,108.961,108.961,0,1,0,215.847-.395,108.592,108.592,0,0,1-42.394,8.557A108.457,108.457,0,0,1,134.557,95.415Z" transform="translate(40.756 148.897)" fill="none" stroke="#000" stroke-miterlimit="10" stroke-width="0.25"/>
          <path id="Trazado_28986" data-name="Trazado 28986" d="M133.938,139.022a108.848,108.848,0,0,1-41.87-71.551,109.067,109.067,0,0,0-65.554,85.693,108.943,108.943,0,0,0,107.424-14.142" transform="translate(41.376 105.29)" fill="#e53477"/>
          <path id="Trazado_28987" data-name="Trazado 28987" d="M133.938,139.022a108.848,108.848,0,0,1-41.87-71.551,109.067,109.067,0,0,0-65.554,85.693,108.943,108.943,0,0,0,107.424-14.142Z" transform="translate(41.376 105.29)" fill="none" stroke="#000" stroke-miterlimit="10" stroke-width="0.25"/>
          <path id="Trazado_28988" data-name="Trazado 28988" d="M110.386,67.316a108.844,108.844,0,0,1-41.918,71.948,109.037,109.037,0,0,0,108.423,13.747,109.057,109.057,0,0,0-66.5-85.7" transform="translate(106.845 105.048)" fill="#009ae0"/>
          <path id="Trazado_28989" data-name="Trazado 28989" d="M110.386,67.316a108.844,108.844,0,0,1-41.918,71.948,109.037,109.037,0,0,0,108.423,13.747,109.057,109.057,0,0,0-66.505-85.695Z" transform="translate(106.845 105.048)" fill="none" stroke="#000" stroke-miterlimit="10" stroke-width="0.25"/>
          <path id="Trazado_28990" data-name="Trazado 28990" d="M52.116,72.685a108.838,108.838,0,0,0,41.87,71.551A108.839,108.839,0,0,0,135.9,72.291a109.165,109.165,0,0,0-83.788.394" transform="translate(81.328 100.073)" fill="#fff"/>
          <path id="Trazado_28991" data-name="Trazado 28991" d="M52.116,72.685a108.838,108.838,0,0,0,41.87,71.551A108.839,108.839,0,0,0,135.9,72.291a109.165,109.165,0,0,0-83.788.394Z" transform="translate(81.328 100.073)" fill="none" stroke="#000" stroke-miterlimit="10" stroke-width="0.25"/>
        </g>
      </g>
      <path id="Amarillo" d="M10.774,0H9.23L7.969-3.337H2.922L1.735,0H.183L4.748-11.9H6.192ZM7.512-4.59,5.645-9.662a4.856,4.856,0,0,1-.183-.8H5.429a4.446,4.446,0,0,1-.191.8L3.387-4.59ZM24.413,0H23.051V-4.881a3.682,3.682,0,0,0-.436-2.042,1.653,1.653,0,0,0-1.465-.631,1.814,1.814,0,0,0-1.482.8,3.049,3.049,0,0,0-.61,1.909V0H17.7V-5.047q0-2.507-1.934-2.507a1.792,1.792,0,0,0-1.478.751A3.105,3.105,0,0,0,13.7-4.848V0H12.343V-8.5H13.7v1.345h.033A2.888,2.888,0,0,1,16.377-8.7a2.461,2.461,0,0,1,1.519.486,2.443,2.443,0,0,1,.888,1.274A3.033,3.033,0,0,1,21.607-8.7q2.806,0,2.806,3.461ZM33.07,0H31.709V-1.328h-.033A2.85,2.85,0,0,1,29.061.2a2.794,2.794,0,0,1-1.988-.672,2.329,2.329,0,0,1-.718-1.785q0-2.382,2.806-2.772l2.548-.357q0-2.167-1.751-2.167a4.184,4.184,0,0,0-2.772,1.046V-7.9a5.268,5.268,0,0,1,2.889-.8q3,0,3,3.171ZM31.709-4.3l-2.05.282a3.329,3.329,0,0,0-1.428.469,1.353,1.353,0,0,0-.481,1.191,1.3,1.3,0,0,0,.444,1.017,1.716,1.716,0,0,0,1.183.394,2.185,2.185,0,0,0,1.673-.71,2.536,2.536,0,0,0,.66-1.8Zm8.359-2.822A1.665,1.665,0,0,0,39.039-7.4a1.737,1.737,0,0,0-1.457.822A3.8,3.8,0,0,0,37-4.333V0H35.635V-8.5H37v1.751h.033a2.968,2.968,0,0,1,.888-1.4,2.025,2.025,0,0,1,1.336-.5,2.222,2.222,0,0,1,.813.116Zm2.175-3.536a.863.863,0,0,1-.623-.249.84.84,0,0,1-.257-.631.854.854,0,0,1,.257-.635.855.855,0,0,1,.623-.253.879.879,0,0,1,.635.253.847.847,0,0,1,.261.635.841.841,0,0,1-.261.623A.872.872,0,0,1,42.243-10.658ZM42.907,0H41.545V-8.5h1.361Zm4.117,0H45.663V-12.584h1.361Zm4.117,0H49.78V-12.584h1.361ZM57.45.2A3.943,3.943,0,0,1,54.441-.992,4.412,4.412,0,0,1,53.316-4.15,4.6,4.6,0,0,1,54.486-7.5a4.208,4.208,0,0,1,3.163-1.2,3.812,3.812,0,0,1,2.968,1.17,4.641,4.641,0,0,1,1.067,3.246,4.567,4.567,0,0,1-1.15,3.258A4.028,4.028,0,0,1,57.45.2Zm.1-7.753a2.589,2.589,0,0,0-2.075.892A3.665,3.665,0,0,0,54.71-4.2a3.466,3.466,0,0,0,.772,2.382,2.624,2.624,0,0,0,2.067.872,2.489,2.489,0,0,0,2.03-.855,3.71,3.71,0,0,0,.71-2.432,3.774,3.774,0,0,0-.71-2.457A2.478,2.478,0,0,0,57.549-7.554Z" transform="translate(142.326 146.891)"/>
      <path id="Azul" d="M11.408,0H9.773L8.438-3.533H3.094L1.837,0H.193L5.027-12.6H6.557ZM7.954-4.86,5.977-10.23a5.142,5.142,0,0,1-.193-.844H5.748a4.708,4.708,0,0,1-.2.844L3.586-4.86ZM19.345-8.587,14.019-1.23h5.273V0H11.9V-.448L17.227-7.77H12.4V-9h6.943ZM28.485,0H27.044V-1.424h-.035A2.96,2.96,0,0,1,24.231.211q-3.217,0-3.217-3.832V-9h1.433v5.15Q22.447-1,24.627-1a2.205,2.205,0,0,0,1.736-.778,2.976,2.976,0,0,0,.681-2.035V-9h1.441Zm4.351,0H31.395V-13.324h1.441Z" transform="translate(155.654 307.331)" fill="#fff"/>
      <path id="Cian" d="M9.662-.5A6.982,6.982,0,0,1,6.375.2,5.3,5.3,0,0,1,2.308-1.436,6.034,6.034,0,0,1,.78-5.728,6.324,6.324,0,0,1,2.5-10.343,5.832,5.832,0,0,1,6.856-12.1a6.987,6.987,0,0,1,2.806.49v1.486a5.69,5.69,0,0,0-2.822-.714,4.331,4.331,0,0,0-3.324,1.37A5.16,5.16,0,0,0,2.241-5.811,4.909,4.909,0,0,0,3.432-2.345,4.053,4.053,0,0,0,6.558-1.054a5.863,5.863,0,0,0,3.1-.8ZM12.6-10.658a.863.863,0,0,1-.623-.249.84.84,0,0,1-.257-.631.854.854,0,0,1,.257-.635.855.855,0,0,1,.623-.253.879.879,0,0,1,.635.253.847.847,0,0,1,.261.635.841.841,0,0,1-.261.623A.872.872,0,0,1,12.6-10.658ZM13.265,0H11.9V-8.5h1.361ZM22.1,0H20.744V-1.328H20.71A2.85,2.85,0,0,1,18.1.2a2.794,2.794,0,0,1-1.988-.672,2.329,2.329,0,0,1-.718-1.785q0-2.382,2.806-2.772l2.548-.357q0-2.167-1.751-2.167A4.184,4.184,0,0,0,16.22-6.508V-7.9a5.268,5.268,0,0,1,2.889-.8q3,0,3,3.171ZM20.744-4.3l-2.05.282a3.329,3.329,0,0,0-1.428.469,1.353,1.353,0,0,0-.481,1.191,1.3,1.3,0,0,0,.444,1.017,1.716,1.716,0,0,0,1.183.394,2.185,2.185,0,0,0,1.673-.71,2.536,2.536,0,0,0,.66-1.8ZM31.726,0H30.364V-4.848q0-2.706-1.976-2.706a2.143,2.143,0,0,0-1.689.768,2.846,2.846,0,0,0-.668,1.938V0H24.67V-8.5h1.361v1.411h.033A3.068,3.068,0,0,1,28.854-8.7a2.6,2.6,0,0,1,2.133.9,4.012,4.012,0,0,1,.739,2.6Z" transform="translate(216.819 246.571)" fill="#fff"/>
      <path id="Magenta" d="M13.7,0H12.31V-7.985q0-.946.116-2.316h-.033a7.4,7.4,0,0,1-.357,1.154L7.969,0H7.288L3.229-9.081a7.115,7.115,0,0,1-.357-1.22H2.839q.066.714.066,2.333V0H1.561V-11.9H3.4L7.056-3.6A10.628,10.628,0,0,1,7.6-2.175h.05q.357-.979.573-1.461L11.953-11.9H13.7Zm9.031,0H21.366V-1.328h-.033A2.85,2.85,0,0,1,18.718.2,2.794,2.794,0,0,1,16.73-.473a2.329,2.329,0,0,1-.718-1.785q0-2.382,2.806-2.772l2.548-.357q0-2.167-1.751-2.167a4.184,4.184,0,0,0-2.772,1.046V-7.9a5.268,5.268,0,0,1,2.889-.8q3,0,3,3.171ZM21.366-4.3l-2.05.282a3.329,3.329,0,0,0-1.428.469,1.353,1.353,0,0,0-.481,1.191,1.3,1.3,0,0,0,.444,1.017,1.716,1.716,0,0,0,1.183.394,2.185,2.185,0,0,0,1.673-.71,2.536,2.536,0,0,0,.66-1.8ZM32.547-.681Q32.547,4,28.065,4a6.018,6.018,0,0,1-2.756-.6V2.042a5.66,5.66,0,0,0,2.739.8q3.138,0,3.138-3.337v-.93h-.033A3.183,3.183,0,0,1,28.231.2,3.191,3.191,0,0,1,25.678-.934a4.529,4.529,0,0,1-.967-3.042,5.292,5.292,0,0,1,1.042-3.445A3.48,3.48,0,0,1,28.6-8.7a2.771,2.771,0,0,1,2.548,1.378h.033V-8.5h1.361ZM31.186-3.843V-5.1A2.432,2.432,0,0,0,30.5-6.832,2.255,2.255,0,0,0,28.8-7.554a2.364,2.364,0,0,0-1.976.917,4.094,4.094,0,0,0-.714,2.569,3.515,3.515,0,0,0,.685,2.27A2.212,2.212,0,0,0,28.6-.946a2.369,2.369,0,0,0,1.864-.813A3.032,3.032,0,0,0,31.186-3.843ZM42.135-3.91h-6A3.179,3.179,0,0,0,36.9-1.718a2.633,2.633,0,0,0,2.009.772,4.176,4.176,0,0,0,2.64-.946V-.614A4.933,4.933,0,0,1,38.582.2,3.593,3.593,0,0,1,35.751-.959a4.74,4.74,0,0,1-1.029-3.258A4.648,4.648,0,0,1,35.847-7.45,3.606,3.606,0,0,1,38.64-8.7,3.2,3.2,0,0,1,41.222-7.62a4.5,4.5,0,0,1,.913,3ZM40.74-5.063A2.77,2.77,0,0,0,40.172-6.9a1.937,1.937,0,0,0-1.556-.656,2.2,2.2,0,0,0-1.635.689,3.127,3.127,0,0,0-.83,1.8ZM51.249,0H49.888V-4.848q0-2.706-1.976-2.706a2.143,2.143,0,0,0-1.689.768,2.846,2.846,0,0,0-.668,1.938V0H44.193V-8.5h1.361v1.411h.033A3.068,3.068,0,0,1,48.377-8.7a2.6,2.6,0,0,1,2.133.9,4.012,4.012,0,0,1,.739,2.6Zm6.508-.083a2.625,2.625,0,0,1-1.27.266q-2.233,0-2.233-2.49v-5.03H52.793V-8.5h1.461v-2.075l1.361-.44V-8.5h2.142v1.162H55.615v4.79a1.986,1.986,0,0,0,.291,1.22,1.159,1.159,0,0,0,.963.365,1.431,1.431,0,0,0,.888-.282Zm7.9.083H64.3V-1.328h-.033A2.85,2.85,0,0,1,61.65.2a2.794,2.794,0,0,1-1.988-.672,2.329,2.329,0,0,1-.718-1.785q0-2.382,2.806-2.772L64.3-5.387q0-2.167-1.751-2.167a4.184,4.184,0,0,0-2.772,1.046V-7.9a5.268,5.268,0,0,1,2.889-.8q3,0,3,3.171ZM64.3-4.3l-2.05.282a3.329,3.329,0,0,0-1.428.469,1.353,1.353,0,0,0-.481,1.191,1.3,1.3,0,0,0,.444,1.017,1.716,1.716,0,0,0,1.183.394,2.185,2.185,0,0,0,1.673-.71,2.536,2.536,0,0,0,.66-1.8Z" transform="translate(81.441 246.571)" fill="#fff"/>
      <path id="Verde" d="M11.021-12.6,6.354,0H4.729L.158-12.6H1.8L5.291-2.61a5.934,5.934,0,0,1,.255,1.116h.035a5.475,5.475,0,0,1,.29-1.134L9.431-12.6ZM19.152-4.14H12.8a3.366,3.366,0,0,0,.809,2.32A2.788,2.788,0,0,0,15.733-1a4.422,4.422,0,0,0,2.795-1V-.65A5.224,5.224,0,0,1,15.39.211a3.8,3.8,0,0,1-3-1.226,5.018,5.018,0,0,1-1.09-3.45,4.921,4.921,0,0,1,1.191-3.423,3.819,3.819,0,0,1,2.958-1.323,3.384,3.384,0,0,1,2.733,1.143A4.764,4.764,0,0,1,19.152-4.9ZM17.676-5.361a2.933,2.933,0,0,0-.6-1.942A2.051,2.051,0,0,0,15.426-8a2.328,2.328,0,0,0-1.731.729,3.311,3.311,0,0,0-.879,1.907Zm8.35-2.18a1.763,1.763,0,0,0-1.09-.29,1.839,1.839,0,0,0-1.542.87,4.023,4.023,0,0,0-.62,2.373V0H21.332V-9h1.441v1.854h.035a3.143,3.143,0,0,1,.94-1.481,2.144,2.144,0,0,1,1.415-.532,2.353,2.353,0,0,1,.861.123ZM35.271,0H33.83V-1.529h-.035A3.327,3.327,0,0,1,30.7.211,3.362,3.362,0,0,1,27.989-1a4.958,4.958,0,0,1-1.015-3.292A5.394,5.394,0,0,1,28.1-7.866a3.71,3.71,0,0,1,3-1.345,2.885,2.885,0,0,1,2.7,1.459h.035v-5.572h1.441ZM33.83-4.069V-5.4a2.575,2.575,0,0,0-.721-1.846A2.417,2.417,0,0,0,31.281-8a2.489,2.489,0,0,0-2.074.967,4.237,4.237,0,0,0-.756,2.672A3.81,3.81,0,0,0,29.176-1.9a2.37,2.37,0,0,0,1.947.9,2.462,2.462,0,0,0,1.956-.87A3.242,3.242,0,0,0,33.83-4.069Zm11.593-.07H39.068a3.366,3.366,0,0,0,.809,2.32A2.788,2.788,0,0,0,42-1,4.422,4.422,0,0,0,44.8-2V-.65a5.224,5.224,0,0,1-3.138.861,3.8,3.8,0,0,1-3-1.226,5.018,5.018,0,0,1-1.09-3.45,4.921,4.921,0,0,1,1.191-3.423,3.819,3.819,0,0,1,2.958-1.323,3.384,3.384,0,0,1,2.733,1.143A4.764,4.764,0,0,1,45.423-4.9ZM43.946-5.361a2.933,2.933,0,0,0-.6-1.942A2.051,2.051,0,0,0,41.7-8a2.328,2.328,0,0,0-1.731.729,3.311,3.311,0,0,0-.879,1.907Z" transform="translate(252.476 147.251)" fill="#fff"/>
      <path id="Rojo" d="M10.688,0H8.93L6.82-3.533a7.7,7.7,0,0,0-.562-.839A3.207,3.207,0,0,0,5.7-4.939a1.933,1.933,0,0,0-.615-.321,2.53,2.53,0,0,0-.743-.1H3.129V0H1.652V-12.6H5.414a5.361,5.361,0,0,1,1.525.207,3.412,3.412,0,0,1,1.213.628,2.92,2.92,0,0,1,.8,1.05,3.483,3.483,0,0,1,.29,1.472,3.545,3.545,0,0,1-.2,1.208,3.156,3.156,0,0,1-.562.98,3.41,3.41,0,0,1-.879.734,4.487,4.487,0,0,1-1.156.47v.035A2.658,2.658,0,0,1,7-5.5a3.023,3.023,0,0,1,.444.426,5.646,5.646,0,0,1,.417.558q.207.312.461.725ZM3.129-11.268V-6.7h2a3.039,3.039,0,0,0,1.024-.167,2.37,2.37,0,0,0,.813-.479,2.172,2.172,0,0,0,.536-.765A2.56,2.56,0,0,0,7.7-9.123,1.976,1.976,0,0,0,7.044-10.7a2.813,2.813,0,0,0-1.894-.567ZM15.627.211A4.175,4.175,0,0,1,12.441-1.05,4.672,4.672,0,0,1,11.25-4.395,4.867,4.867,0,0,1,12.49-7.937a4.455,4.455,0,0,1,3.349-1.274A4.037,4.037,0,0,1,18.98-7.972,4.914,4.914,0,0,1,20.11-4.535a4.835,4.835,0,0,1-1.217,3.45A4.265,4.265,0,0,1,15.627.211ZM15.733-8a2.742,2.742,0,0,0-2.2.945,3.88,3.88,0,0,0-.809,2.606,3.67,3.67,0,0,0,.817,2.522A2.778,2.778,0,0,0,15.733-1a2.635,2.635,0,0,0,2.149-.905,3.928,3.928,0,0,0,.751-2.575,4,4,0,0,0-.751-2.6A2.623,2.623,0,0,0,15.733-8Zm8.121,7.62a5.641,5.641,0,0,1-.892,3.415,2.99,2.99,0,0,1-2.553,1.2,2.71,2.71,0,0,1-1.2-.281V2.61a2.385,2.385,0,0,0,1.23.4q1.969,0,1.969-3.146V-9h1.441Zm-.7-10.907a.913.913,0,0,1-.659-.264.89.89,0,0,1-.272-.668.9.9,0,0,1,.272-.672.905.905,0,0,1,.659-.268.931.931,0,0,1,.672.268.9.9,0,0,1,.277.672.891.891,0,0,1-.277.659A.923.923,0,0,1,23.151-11.285ZM30.534.211A4.175,4.175,0,0,1,27.348-1.05a4.672,4.672,0,0,1-1.191-3.344A4.867,4.867,0,0,1,27.4-7.937a4.455,4.455,0,0,1,3.349-1.274,4.037,4.037,0,0,1,3.142,1.239,4.914,4.914,0,0,1,1.129,3.437A4.835,4.835,0,0,1,33.8-1.085,4.265,4.265,0,0,1,30.534.211ZM30.639-8a2.742,2.742,0,0,0-2.2.945,3.88,3.88,0,0,0-.809,2.606,3.67,3.67,0,0,0,.817,2.522A2.778,2.778,0,0,0,30.639-1a2.635,2.635,0,0,0,2.149-.905,3.928,3.928,0,0,0,.751-2.575,4,4,0,0,0-.751-2.6A2.623,2.623,0,0,0,30.639-8Z" transform="translate(49.15 147.251)" fill="#fff"/>
      <g id="Grupo_31592" data-name="Grupo 31592">
        <g id="Enmascarar_grupo_77" data-name="Enmascarar grupo 77" clip-path="url(#clip-path-2)">
          <path id="Colores_luz" data-name="Colores luz" d="M15.914-.82A11.5,11.5,0,0,1,10.5.328,8.731,8.731,0,0,1,3.8-2.365,9.938,9.938,0,0,1,1.285-9.434a10.416,10.416,0,0,1,2.83-7.6,9.605,9.605,0,0,1,7.178-2.9,11.508,11.508,0,0,1,4.621.807v2.447a9.371,9.371,0,0,0-4.648-1.176A7.133,7.133,0,0,0,5.79-15.6a8.5,8.5,0,0,0-2.1,6.029A8.086,8.086,0,0,0,5.653-3.862,6.676,6.676,0,0,0,10.8-1.736a9.657,9.657,0,0,0,5.113-1.312ZM25.457.328A6.494,6.494,0,0,1,20.5-1.634a7.267,7.267,0,0,1-1.853-5.2,7.57,7.57,0,0,1,1.928-5.51,6.93,6.93,0,0,1,5.209-1.982A6.279,6.279,0,0,1,30.673-12.4,7.644,7.644,0,0,1,32.43-7.055a7.521,7.521,0,0,1-1.894,5.366A6.635,6.635,0,0,1,25.457.328Zm.164-12.77a4.265,4.265,0,0,0-3.418,1.47,6.036,6.036,0,0,0-1.258,4.054,5.709,5.709,0,0,0,1.271,3.924,4.321,4.321,0,0,0,3.4,1.436,4.1,4.1,0,0,0,3.343-1.408,6.111,6.111,0,0,0,1.169-4.006,6.216,6.216,0,0,0-1.169-4.047A4.081,4.081,0,0,0,25.621-12.441ZM38.254,0H36.012V-20.727h2.242ZM48.645.328a6.494,6.494,0,0,1-4.956-1.962,7.267,7.267,0,0,1-1.853-5.2,7.57,7.57,0,0,1,1.928-5.51,6.93,6.93,0,0,1,5.209-1.982A6.279,6.279,0,0,1,53.86-12.4a7.644,7.644,0,0,1,1.757,5.346,7.521,7.521,0,0,1-1.894,5.366A6.635,6.635,0,0,1,48.645.328Zm.164-12.77a4.265,4.265,0,0,0-3.418,1.47,6.036,6.036,0,0,0-1.258,4.054A5.709,5.709,0,0,0,45.4-2.994a4.321,4.321,0,0,0,3.4,1.436,4.1,4.1,0,0,0,3.343-1.408A6.111,6.111,0,0,0,53.32-6.973a6.216,6.216,0,0,0-1.169-4.047A4.081,4.081,0,0,0,48.809-12.441ZM66.5-11.73a2.742,2.742,0,0,0-1.7-.451,2.861,2.861,0,0,0-2.4,1.354,6.258,6.258,0,0,0-.964,3.691V0H59.2V-14h2.242v2.885H61.5a4.889,4.889,0,0,1,1.463-2.3,3.336,3.336,0,0,1,2.2-.827,3.66,3.66,0,0,1,1.34.191ZM80.186-6.439H70.3A5.236,5.236,0,0,0,71.559-2.83a4.336,4.336,0,0,0,3.309,1.271,6.879,6.879,0,0,0,4.348-1.559v2.105A8.126,8.126,0,0,1,74.334.328a5.917,5.917,0,0,1-4.662-1.907,7.806,7.806,0,0,1-1.7-5.366,7.655,7.655,0,0,1,1.853-5.325,5.94,5.94,0,0,1,4.6-2.058,5.263,5.263,0,0,1,4.252,1.777,7.41,7.41,0,0,1,1.5,4.936Zm-2.3-1.9a4.562,4.562,0,0,0-.937-3.021,3.191,3.191,0,0,0-2.563-1.08A3.622,3.622,0,0,0,71.7-11.307,5.15,5.15,0,0,0,70.328-8.34Zm4.84,7.834V-2.912a6.635,6.635,0,0,0,4.033,1.354q2.953,0,2.953-1.969a1.708,1.708,0,0,0-.253-.95,2.521,2.521,0,0,0-.684-.69,5.262,5.262,0,0,0-1.012-.54q-.581-.239-1.251-.5a16.112,16.112,0,0,1-1.634-.745A4.936,4.936,0,0,1,83.706-7.8,3.154,3.154,0,0,1,83-8.873a3.8,3.8,0,0,1-.239-1.408,3.345,3.345,0,0,1,.451-1.743,4,4,0,0,1,1.2-1.271,5.61,5.61,0,0,1,1.716-.772,7.611,7.611,0,0,1,1.989-.26,8.032,8.032,0,0,1,3.254.629v2.27a6.341,6.341,0,0,0-3.555-1.012,4.155,4.155,0,0,0-1.135.144,2.778,2.778,0,0,0-.868.4,1.863,1.863,0,0,0-.561.622,1.639,1.639,0,0,0-.2.8,1.918,1.918,0,0,0,.2.916,2.017,2.017,0,0,0,.581.656,4.441,4.441,0,0,0,.93.52q.547.232,1.244.506a17.316,17.316,0,0,1,1.668.731,5.721,5.721,0,0,1,1.258.848,3.312,3.312,0,0,1,.8,1.087,3.505,3.505,0,0,1,.28,1.463,3.449,3.449,0,0,1-.458,1.8A3.925,3.925,0,0,1,90.33-.67a5.6,5.6,0,0,1-1.764.752,8.708,8.708,0,0,1-2.092.246A7.943,7.943,0,0,1,82.729-.506ZM105.369,0h-2.242V-20.727h2.242Zm15.859,0h-2.242V-2.215h-.055a4.6,4.6,0,0,1-4.32,2.543q-5,0-5-5.961V-14h2.229v8.012q0,4.43,3.391,4.43a3.43,3.43,0,0,0,2.7-1.21,4.63,4.63,0,0,0,1.06-3.165V-14h2.242Zm14.287-13.357L127.23-1.914h8.2V0h-11.5V-.7l8.285-11.389h-7.506V-14h10.8Z" transform="translate(104.747 22.599)"/>
        </g>
      </g>
    </g>
  </g>
</svg>
