<svg id="Grupo_31598" data-name="Grupo 31598" xmlns="http://www.w3.org/2000/svg" xmlns:xlink="http://www.w3.org/1999/xlink" width="350.627" height="386.533" viewBox="0 0 350.627 386.533">
  <defs>
    <clipPath id="clip-path">
      <rect id="Rectángulo_4631" data-name="Rectángulo 4631" width="350.627" height="386.533" fill="none"/>
    </clipPath>
  </defs>
  <g id="Grupo_31595" data-name="Grupo 31595">
    <g id="Grupo_31594" data-name="Grupo 31594" clip-path="url(#clip-path)">
      <path id="Trazado_28992" data-name="Trazado 28992" d="M133.249,144.68a108.738,108.738,0,0,1,41.87-101.77A108.961,108.961,0,1,0,67.694,230.376a109.066,109.066,0,0,1,65.554-85.7" transform="translate(0.195 32.159)" fill="#0099df"/>
      <path id="Trazado_28993" data-name="Trazado 28993" d="M133.249,144.68a108.738,108.738,0,0,1,41.87-101.77A108.961,108.961,0,1,0,67.694,230.376a109.066,109.066,0,0,1,65.555-85.7Z" transform="translate(0.195 32.159)" fill="none" stroke="#000" stroke-miterlimit="10" stroke-width="0.25"/>
      <path id="Trazado_28994" data-name="Trazado 28994" d="M243.461,129.573A108.947,108.947,0,0,0,68.468,42.91,108.772,108.772,0,0,1,111.4,129.573a109.374,109.374,0,0,1-1.017,14.713,109.055,109.055,0,0,1,66.5,85.7,108.992,108.992,0,0,0,66.571-100.408" transform="translate(106.845 32.159)" fill="#e93179"/>
      <path id="Trazado_28995" data-name="Trazado 28995" d="M243.461,129.573A108.947,108.947,0,0,0,68.468,42.91,108.772,108.772,0,0,1,111.4,129.573a109.374,109.374,0,0,1-1.017,14.713,109.055,109.055,0,0,1,66.5,85.7,108.992,108.992,0,0,0,66.578-100.413Z" transform="translate(106.845 32.159)" fill="none" stroke="#000" stroke-miterlimit="10" stroke-width="0.25"/>
      <path id="Trazado_28996" data-name="Trazado 28996" d="M51.7,115.981a109.679,109.679,0,0,0,1.068,15.107,109.189,109.189,0,0,1,83.785-.394,109.371,109.371,0,0,0,1.017-14.713A108.772,108.772,0,0,0,94.635,29.318,108.772,108.772,0,0,0,51.7,115.981" transform="translate(80.679 45.751)" fill="#012072"/>
      <path id="Trazado_28997" data-name="Trazado 28997" d="M51.7,115.981a109.679,109.679,0,0,0,1.068,15.107,109.189,109.189,0,0,1,83.785-.394,109.371,109.371,0,0,0,1.017-14.713A108.772,108.772,0,0,0,94.635,29.318,108.772,108.772,0,0,0,51.7,115.981Z" transform="translate(80.679 45.751)" fill="none" stroke="#000" stroke-miterlimit="10" stroke-width="0.25"/>
      <path id="Trazado_28998" data-name="Trazado 28998" d="M134.557,97.009a108.457,108.457,0,0,1-66.028,22.3,108.641,108.641,0,0,1-41.4-8.163,108.964,108.964,0,1,0,215.846-.395,108.589,108.589,0,0,1-42.392,8.557,108.464,108.464,0,0,1-66.031-22.3" transform="translate(40.756 151.384)" fill="#fef011"/>
      <path id="Trazado_28999" data-name="Trazado 28999" d="M134.557,97.009a108.457,108.457,0,0,1-66.028,22.3,108.641,108.641,0,0,1-41.4-8.163,108.964,108.964,0,1,0,215.846-.395,108.589,108.589,0,0,1-42.392,8.557,108.464,108.464,0,0,1-66.026-22.3Z" transform="translate(40.756 151.384)" fill="none" stroke="#000" stroke-miterlimit="10" stroke-width="0.25"/>
      <path id="Trazado_29000" data-name="Trazado 29000" d="M133.938,140.616a108.848,108.848,0,0,1-41.87-71.551,109.072,109.072,0,0,0-65.554,85.693,108.943,108.943,0,0,0,107.424-14.142" transform="translate(41.376 107.777)" fill="#178f48"/>
      <path id="Trazado_29001" data-name="Trazado 29001" d="M133.938,140.616a108.848,108.848,0,0,1-41.87-71.551,109.072,109.072,0,0,0-65.554,85.693,108.943,108.943,0,0,0,107.424-14.142Z" transform="translate(41.376 107.777)" fill="none" stroke="#000" stroke-miterlimit="10" stroke-width="0.25"/>
      <path id="Trazado_29002" data-name="Trazado 29002" d="M110.386,68.91a108.844,108.844,0,0,1-41.918,71.948A109.037,109.037,0,0,0,176.891,154.6a109.057,109.057,0,0,0-66.5-85.7" transform="translate(106.845 107.535)" fill="#eb2d16"/>
      <path id="Trazado_29003" data-name="Trazado 29003" d="M110.386,68.91a108.844,108.844,0,0,1-41.918,71.948A109.037,109.037,0,0,0,176.891,154.6,109.057,109.057,0,0,0,110.386,68.91Z" transform="translate(106.845 107.535)" fill="none" stroke="#000" stroke-miterlimit="10" stroke-width="0.25"/>
      <path id="Trazado_29004" data-name="Trazado 29004" d="M52.116,74.279a108.838,108.838,0,0,0,41.87,71.551A108.839,108.839,0,0,0,135.9,73.885a109.164,109.164,0,0,0-83.788.394" transform="translate(81.328 102.56)"/>
      <path id="Trazado_29005" data-name="Trazado 29005" d="M52.116,74.279a108.838,108.838,0,0,0,41.87,71.551A108.839,108.839,0,0,0,135.9,73.885a109.164,109.164,0,0,0-83.788.394Z" transform="translate(81.328 102.56)" fill="none" stroke="#000" stroke-miterlimit="10" stroke-width="0.25"/>
    </g>
  </g>
  <path id="Verde" d="M11.021-12.6,6.354,0H4.729L.158-12.6H1.8L5.291-2.61a5.934,5.934,0,0,1,.255,1.116h.035a5.475,5.475,0,0,1,.29-1.134L9.431-12.6ZM19.152-4.14H12.8a3.366,3.366,0,0,0,.809,2.32A2.788,2.788,0,0,0,15.733-1a4.422,4.422,0,0,0,2.795-1V-.65A5.224,5.224,0,0,1,15.39.211a3.8,3.8,0,0,1-3-1.226,5.018,5.018,0,0,1-1.09-3.45,4.921,4.921,0,0,1,1.191-3.423,3.819,3.819,0,0,1,2.958-1.323,3.384,3.384,0,0,1,2.733,1.143A4.764,4.764,0,0,1,19.152-4.9ZM17.676-5.361a2.933,2.933,0,0,0-.6-1.942A2.051,2.051,0,0,0,15.426-8a2.328,2.328,0,0,0-1.731.729,3.311,3.311,0,0,0-.879,1.907Zm8.35-2.18a1.763,1.763,0,0,0-1.09-.29,1.839,1.839,0,0,0-1.542.87,4.023,4.023,0,0,0-.62,2.373V0H21.332V-9h1.441v1.854h.035a3.143,3.143,0,0,1,.94-1.481,2.144,2.144,0,0,1,1.415-.532,2.353,2.353,0,0,1,.861.123ZM35.271,0H33.83V-1.529h-.035A3.327,3.327,0,0,1,30.7.211,3.362,3.362,0,0,1,27.989-1a4.958,4.958,0,0,1-1.015-3.292A5.394,5.394,0,0,1,28.1-7.866a3.71,3.71,0,0,1,3-1.345,2.885,2.885,0,0,1,2.7,1.459h.035v-5.572h1.441ZM33.83-4.069V-5.4a2.575,2.575,0,0,0-.721-1.846A2.417,2.417,0,0,0,31.281-8a2.489,2.489,0,0,0-2.074.967,4.237,4.237,0,0,0-.756,2.672A3.81,3.81,0,0,0,29.176-1.9a2.37,2.37,0,0,0,1.947.9,2.462,2.462,0,0,0,1.956-.87A3.242,3.242,0,0,0,33.83-4.069Zm11.593-.07H39.068a3.366,3.366,0,0,0,.809,2.32A2.788,2.788,0,0,0,42-1,4.422,4.422,0,0,0,44.8-2V-.65a5.224,5.224,0,0,1-3.138.861,3.8,3.8,0,0,1-3-1.226,5.018,5.018,0,0,1-1.09-3.45,4.921,4.921,0,0,1,1.191-3.423,3.819,3.819,0,0,1,2.958-1.323,3.384,3.384,0,0,1,2.733,1.143A4.764,4.764,0,0,1,45.423-4.9ZM43.946-5.361a2.933,2.933,0,0,0-.6-1.942A2.051,2.051,0,0,0,41.7-8a2.328,2.328,0,0,0-1.731.729,3.311,3.311,0,0,0-.879,1.907Z" transform="translate(92.051 239.34)" fill="#fff"/>
  <path id="Azul" d="M11.408,0H9.773L8.438-3.533H3.094L1.837,0H.193L5.027-12.6H6.557ZM7.954-4.86,5.977-10.23a5.142,5.142,0,0,1-.193-.844H5.748a4.708,4.708,0,0,1-.2.844L3.586-4.86ZM19.345-8.587,14.019-1.23h5.273V0H11.9V-.448L17.227-7.77H12.4V-9h6.943ZM28.485,0H27.044V-1.424h-.035A2.96,2.96,0,0,1,24.231.211q-3.217,0-3.217-3.832V-9h1.433v5.15Q22.447-1,24.627-1a2.205,2.205,0,0,0,1.736-.778,2.976,2.976,0,0,0,.681-2.035V-9h1.441Zm4.351,0H31.395V-13.324h1.441Z" transform="translate(156.146 144.765)" fill="#fff"/>
  <path id="Negro" d="M11.813,0H10L3.516-10.046a4.2,4.2,0,0,1-.4-.791H3.059a12.976,12.976,0,0,1,.07,1.731V0H1.652V-12.6H3.568L9.879-2.716q.4.615.51.844h.035a13.335,13.335,0,0,1-.088-1.854V-12.6h1.477ZM22.157-4.14H15.8a3.366,3.366,0,0,0,.809,2.32A2.788,2.788,0,0,0,18.738-1a4.422,4.422,0,0,0,2.795-1V-.65A5.224,5.224,0,0,1,18.4.211a3.8,3.8,0,0,1-3-1.226,5.018,5.018,0,0,1-1.09-3.45A4.921,4.921,0,0,1,15.5-7.888a3.819,3.819,0,0,1,2.958-1.323A3.384,3.384,0,0,1,21.19-8.068,4.764,4.764,0,0,1,22.157-4.9ZM20.681-5.361a2.933,2.933,0,0,0-.6-1.942A2.051,2.051,0,0,0,18.431-8a2.328,2.328,0,0,0-1.731.729,3.311,3.311,0,0,0-.879,1.907ZM32.019-.721q0,4.957-4.746,4.957A6.372,6.372,0,0,1,24.354,3.6V2.162a5.993,5.993,0,0,0,2.9.844q3.322,0,3.322-3.533v-.984h-.035A3.371,3.371,0,0,1,27.448.211a3.379,3.379,0,0,1-2.7-1.2A4.8,4.8,0,0,1,23.722-4.21a5.6,5.6,0,0,1,1.1-3.647,3.685,3.685,0,0,1,3.019-1.354,2.934,2.934,0,0,1,2.7,1.459h.035V-9h1.441ZM30.577-4.069V-5.4a2.575,2.575,0,0,0-.725-1.837A2.387,2.387,0,0,0,28.046-8a2.5,2.5,0,0,0-2.092.971,4.335,4.335,0,0,0-.756,2.72,3.721,3.721,0,0,0,.725,2.4,2.343,2.343,0,0,0,1.92.9,2.509,2.509,0,0,0,1.973-.861A3.21,3.21,0,0,0,30.577-4.069ZM39.63-7.541a1.763,1.763,0,0,0-1.09-.29A1.839,1.839,0,0,0,37-6.961a4.023,4.023,0,0,0-.62,2.373V0H34.937V-9h1.441v1.854h.035a3.143,3.143,0,0,1,.94-1.481,2.144,2.144,0,0,1,1.415-.532,2.353,2.353,0,0,1,.861.123ZM44.956.211A4.175,4.175,0,0,1,41.77-1.05a4.672,4.672,0,0,1-1.191-3.344,4.867,4.867,0,0,1,1.239-3.542,4.455,4.455,0,0,1,3.349-1.274,4.037,4.037,0,0,1,3.142,1.239,4.914,4.914,0,0,1,1.129,3.437,4.835,4.835,0,0,1-1.217,3.45A4.265,4.265,0,0,1,44.956.211ZM45.062-8a2.742,2.742,0,0,0-2.2.945,3.88,3.88,0,0,0-.809,2.606,3.67,3.67,0,0,0,.817,2.522A2.778,2.778,0,0,0,45.062-1a2.635,2.635,0,0,0,2.149-.905,3.928,3.928,0,0,0,.751-2.575,4,4,0,0,0-.751-2.6A2.623,2.623,0,0,0,45.062-8Z" transform="translate(146.989 199.622)" fill="#fff"/>
  <path id="Rojo" d="M10.688,0H8.93L6.82-3.533a7.7,7.7,0,0,0-.562-.839A3.207,3.207,0,0,0,5.7-4.939a1.933,1.933,0,0,0-.615-.321,2.53,2.53,0,0,0-.743-.1H3.129V0H1.652V-12.6H5.414a5.361,5.361,0,0,1,1.525.207,3.412,3.412,0,0,1,1.213.628,2.92,2.92,0,0,1,.8,1.05,3.483,3.483,0,0,1,.29,1.472,3.545,3.545,0,0,1-.2,1.208,3.156,3.156,0,0,1-.562.98,3.41,3.41,0,0,1-.879.734,4.487,4.487,0,0,1-1.156.47v.035A2.658,2.658,0,0,1,7-5.5a3.023,3.023,0,0,1,.444.426,5.646,5.646,0,0,1,.417.558q.207.312.461.725ZM3.129-11.268V-6.7h2a3.039,3.039,0,0,0,1.024-.167,2.37,2.37,0,0,0,.813-.479,2.172,2.172,0,0,0,.536-.765A2.56,2.56,0,0,0,7.7-9.123,1.976,1.976,0,0,0,7.044-10.7a2.813,2.813,0,0,0-1.894-.567ZM15.627.211A4.175,4.175,0,0,1,12.441-1.05,4.672,4.672,0,0,1,11.25-4.395,4.867,4.867,0,0,1,12.49-7.937a4.455,4.455,0,0,1,3.349-1.274A4.037,4.037,0,0,1,18.98-7.972,4.914,4.914,0,0,1,20.11-4.535a4.835,4.835,0,0,1-1.217,3.45A4.265,4.265,0,0,1,15.627.211ZM15.733-8a2.742,2.742,0,0,0-2.2.945,3.88,3.88,0,0,0-.809,2.606,3.67,3.67,0,0,0,.817,2.522A2.778,2.778,0,0,0,15.733-1a2.635,2.635,0,0,0,2.149-.905,3.928,3.928,0,0,0,.751-2.575,4,4,0,0,0-.751-2.6A2.623,2.623,0,0,0,15.733-8Zm8.121,7.62a5.641,5.641,0,0,1-.892,3.415,2.99,2.99,0,0,1-2.553,1.2,2.71,2.71,0,0,1-1.2-.281V2.61a2.385,2.385,0,0,0,1.23.4q1.969,0,1.969-3.146V-9h1.441Zm-.7-10.907a.913.913,0,0,1-.659-.264.89.89,0,0,1-.272-.668.9.9,0,0,1,.272-.672.905.905,0,0,1,.659-.268.931.931,0,0,1,.672.268.9.9,0,0,1,.277.672.891.891,0,0,1-.277.659A.923.923,0,0,1,23.151-11.285ZM30.534.211A4.175,4.175,0,0,1,27.348-1.05a4.672,4.672,0,0,1-1.191-3.344A4.867,4.867,0,0,1,27.4-7.937a4.455,4.455,0,0,1,3.349-1.274,4.037,4.037,0,0,1,3.142,1.239,4.914,4.914,0,0,1,1.129,3.437A4.835,4.835,0,0,1,33.8-1.085,4.265,4.265,0,0,1,30.534.211ZM30.639-8a2.742,2.742,0,0,0-2.2.945,3.88,3.88,0,0,0-.809,2.606,3.67,3.67,0,0,0,.817,2.522A2.778,2.778,0,0,0,30.639-1a2.635,2.635,0,0,0,2.149-.905,3.928,3.928,0,0,0,.751-2.575,4,4,0,0,0-.751-2.6A2.623,2.623,0,0,0,30.639-8Z" transform="translate(208.994 239.34)" fill="#fff"/>
  <path id="Magenta" d="M14.5,0H13.034V-8.455q0-1,.123-2.452h-.035a7.84,7.84,0,0,1-.378,1.222L8.438,0H7.717l-4.3-9.615a7.533,7.533,0,0,1-.378-1.292H3.006q.07.756.07,2.47V0H1.652V-12.6H3.6L7.471-3.814A11.254,11.254,0,0,1,8.051-2.3H8.1Q8.481-3.34,8.71-3.85L12.656-12.6H14.5Zm9.563,0H22.623V-1.406h-.035A3.018,3.018,0,0,1,19.819.211a2.959,2.959,0,0,1-2.1-.712,2.466,2.466,0,0,1-.76-1.89q0-2.522,2.971-2.936l2.7-.378Q22.623-8,20.769-8a4.431,4.431,0,0,0-2.936,1.107V-8.367a5.577,5.577,0,0,1,3.059-.844q3.173,0,3.173,3.357ZM22.623-4.553l-2.171.3a3.525,3.525,0,0,0-1.512.5,1.432,1.432,0,0,0-.51,1.261,1.374,1.374,0,0,0,.47,1.077A1.817,1.817,0,0,0,20.153-1a2.314,2.314,0,0,0,1.771-.751,2.685,2.685,0,0,0,.7-1.9ZM34.462-.721q0,4.957-4.746,4.957A6.372,6.372,0,0,1,26.8,3.6V2.162a5.993,5.993,0,0,0,2.9.844q3.322,0,3.322-3.533v-.984h-.035A3.371,3.371,0,0,1,29.892.211a3.379,3.379,0,0,1-2.7-1.2A4.8,4.8,0,0,1,26.165-4.21a5.6,5.6,0,0,1,1.1-3.647,3.685,3.685,0,0,1,3.019-1.354,2.934,2.934,0,0,1,2.7,1.459h.035V-9h1.441ZM33.021-4.069V-5.4A2.575,2.575,0,0,0,32.3-7.233,2.387,2.387,0,0,0,30.489-8a2.5,2.5,0,0,0-2.092.971,4.335,4.335,0,0,0-.756,2.72,3.721,3.721,0,0,0,.725,2.4,2.343,2.343,0,0,0,1.92.9,2.509,2.509,0,0,0,1.973-.861A3.21,3.21,0,0,0,33.021-4.069Zm11.593-.07H38.259a3.366,3.366,0,0,0,.809,2.32A2.788,2.788,0,0,0,41.194-1a4.422,4.422,0,0,0,2.795-1V-.65a5.224,5.224,0,0,1-3.138.861,3.8,3.8,0,0,1-3-1.226,5.018,5.018,0,0,1-1.09-3.45,4.921,4.921,0,0,1,1.191-3.423,3.819,3.819,0,0,1,2.958-1.323,3.384,3.384,0,0,1,2.733,1.143A4.764,4.764,0,0,1,44.613-4.9ZM43.137-5.361a2.933,2.933,0,0,0-.6-1.942A2.051,2.051,0,0,0,40.887-8a2.328,2.328,0,0,0-1.731.729,3.311,3.311,0,0,0-.879,1.907ZM54.264,0H52.822V-5.133Q52.822-8,50.73-8a2.269,2.269,0,0,0-1.789.813,3.013,3.013,0,0,0-.708,2.052V0H46.793V-9h1.441v1.494h.035a3.248,3.248,0,0,1,2.953-1.705,2.753,2.753,0,0,1,2.259.954A4.248,4.248,0,0,1,54.264-5.5Zm6.891-.088A2.779,2.779,0,0,1,59.81.193q-2.364,0-2.364-2.637V-7.77H55.9V-9h1.547v-2.2l1.441-.466V-9h2.268v1.23H58.887V-2.7a2.1,2.1,0,0,0,.308,1.292,1.228,1.228,0,0,0,1.02.387,1.515,1.515,0,0,0,.94-.3ZM69.521,0H68.08V-1.406h-.035A3.018,3.018,0,0,1,65.276.211a2.959,2.959,0,0,1-2.1-.712,2.466,2.466,0,0,1-.76-1.89q0-2.522,2.971-2.936l2.7-.378Q68.08-8,66.226-8A4.431,4.431,0,0,0,63.29-6.891V-8.367a5.577,5.577,0,0,1,3.059-.844q3.173,0,3.173,3.357ZM68.08-4.553l-2.171.3a3.525,3.525,0,0,0-1.512.5,1.432,1.432,0,0,0-.51,1.261,1.374,1.374,0,0,0,.47,1.077A1.817,1.817,0,0,0,65.61-1a2.314,2.314,0,0,0,1.771-.751,2.685,2.685,0,0,0,.7-1.9Z" transform="translate(239.433 144.765)" fill="#fff"/>
  <path id="Amarillo" d="M11.408,0H9.773L8.438-3.533H3.094L1.837,0H.193L5.027-12.6H6.557ZM7.954-4.86,5.977-10.23a5.142,5.142,0,0,1-.193-.844H5.748a4.708,4.708,0,0,1-.2.844L3.586-4.86ZM25.849,0H24.407V-5.168a3.9,3.9,0,0,0-.461-2.162A1.75,1.75,0,0,0,22.395-8a1.921,1.921,0,0,0-1.569.844,3.228,3.228,0,0,0-.646,2.021V0H18.738V-5.344Q18.738-8,16.69-8a1.9,1.9,0,0,0-1.564.8,3.288,3.288,0,0,0-.615,2.07V0H13.069V-9h1.441v1.424h.035a3.058,3.058,0,0,1,2.795-1.635,2.606,2.606,0,0,1,1.608.514,2.586,2.586,0,0,1,.94,1.349,3.212,3.212,0,0,1,2.988-1.863q2.971,0,2.971,3.665Zm9.167,0H33.574V-1.406h-.035A3.018,3.018,0,0,1,30.771.211a2.959,2.959,0,0,1-2.1-.712,2.466,2.466,0,0,1-.76-1.89q0-2.522,2.971-2.936l2.7-.378Q33.574-8,31.72-8a4.431,4.431,0,0,0-2.936,1.107V-8.367a5.577,5.577,0,0,1,3.059-.844q3.173,0,3.173,3.357ZM33.574-4.553l-2.171.3a3.525,3.525,0,0,0-1.512.5,1.432,1.432,0,0,0-.51,1.261,1.374,1.374,0,0,0,.47,1.077A1.817,1.817,0,0,0,31.1-1a2.314,2.314,0,0,0,1.771-.751,2.685,2.685,0,0,0,.7-1.9Zm8.851-2.988a1.763,1.763,0,0,0-1.09-.29,1.839,1.839,0,0,0-1.542.87,4.023,4.023,0,0,0-.62,2.373V0H37.731V-9h1.441v1.854h.035a3.143,3.143,0,0,1,.94-1.481,2.144,2.144,0,0,1,1.415-.532,2.353,2.353,0,0,1,.861.123Zm2.3-3.744a.913.913,0,0,1-.659-.264.89.89,0,0,1-.272-.668.9.9,0,0,1,.272-.672.905.905,0,0,1,.659-.268.931.931,0,0,1,.672.268.9.9,0,0,1,.277.672.891.891,0,0,1-.277.659A.923.923,0,0,1,44.728-11.285ZM45.431,0H43.989V-9h1.441ZM49.79,0H48.349V-13.324H49.79Zm4.359,0H52.708V-13.324h1.441Zm6.68.211A4.175,4.175,0,0,1,57.643-1.05a4.672,4.672,0,0,1-1.191-3.344,4.867,4.867,0,0,1,1.239-3.542A4.455,4.455,0,0,1,61.04-9.211a4.037,4.037,0,0,1,3.142,1.239,4.914,4.914,0,0,1,1.129,3.437,4.835,4.835,0,0,1-1.217,3.45A4.265,4.265,0,0,1,60.829.211ZM60.935-8a2.742,2.742,0,0,0-2.2.945,3.88,3.88,0,0,0-.809,2.606,3.67,3.67,0,0,0,.817,2.522A2.778,2.778,0,0,0,60.935-1a2.635,2.635,0,0,0,2.149-.905,3.928,3.928,0,0,0,.751-2.575,4,4,0,0,0-.751-2.6A2.623,2.623,0,0,0,60.935-8Z" transform="translate(138.099 314.763)"/>
  <path id="Cian" d="M9.662-.5A6.982,6.982,0,0,1,6.375.2,5.3,5.3,0,0,1,2.308-1.436,6.034,6.034,0,0,1,.78-5.728,6.324,6.324,0,0,1,2.5-10.343,5.832,5.832,0,0,1,6.856-12.1a6.987,6.987,0,0,1,2.806.49v1.486a5.69,5.69,0,0,0-2.822-.714,4.331,4.331,0,0,0-3.324,1.37A5.16,5.16,0,0,0,2.241-5.811,4.909,4.909,0,0,0,3.432-2.345,4.053,4.053,0,0,0,6.558-1.054a5.863,5.863,0,0,0,3.1-.8ZM12.6-10.658a.863.863,0,0,1-.623-.249.84.84,0,0,1-.257-.631.854.854,0,0,1,.257-.635.855.855,0,0,1,.623-.253.879.879,0,0,1,.635.253.847.847,0,0,1,.261.635.841.841,0,0,1-.261.623A.872.872,0,0,1,12.6-10.658ZM13.265,0H11.9V-8.5h1.361ZM22.1,0H20.744V-1.328H20.71A2.85,2.85,0,0,1,18.1.2a2.794,2.794,0,0,1-1.988-.672,2.329,2.329,0,0,1-.718-1.785q0-2.382,2.806-2.772l2.548-.357q0-2.167-1.751-2.167A4.184,4.184,0,0,0,16.22-6.508V-7.9a5.268,5.268,0,0,1,2.889-.8q3,0,3,3.171ZM20.744-4.3l-2.05.282a3.329,3.329,0,0,0-1.428.469,1.353,1.353,0,0,0-.481,1.191,1.3,1.3,0,0,0,.444,1.017,1.716,1.716,0,0,0,1.183.394,2.185,2.185,0,0,0,1.673-.71,2.536,2.536,0,0,0,.66-1.8ZM31.726,0H30.364V-4.848q0-2.706-1.976-2.706a2.143,2.143,0,0,0-1.689.768,2.846,2.846,0,0,0-.668,1.938V0H24.67V-8.5h1.361v1.411h.033A3.068,3.068,0,0,1,28.854-8.7a2.6,2.6,0,0,1,2.133.9,4.012,4.012,0,0,1,.739,2.6Z" transform="translate(45.511 143.765)" fill="#fff"/>
  <g id="Grupo_31597" data-name="Grupo 31597">
    <g id="Grupo_31596" data-name="Grupo 31596" clip-path="url(#clip-path)">
      <path id="Colores_pigmento" data-name="Colores pigmento" d="M15.914-.82A11.5,11.5,0,0,1,10.5.328,8.731,8.731,0,0,1,3.8-2.365,9.938,9.938,0,0,1,1.285-9.434a10.416,10.416,0,0,1,2.83-7.6,9.605,9.605,0,0,1,7.178-2.9,11.508,11.508,0,0,1,4.621.807v2.447a9.371,9.371,0,0,0-4.648-1.176A7.133,7.133,0,0,0,5.79-15.6a8.5,8.5,0,0,0-2.1,6.029A8.086,8.086,0,0,0,5.653-3.862,6.676,6.676,0,0,0,10.8-1.736a9.657,9.657,0,0,0,5.113-1.312ZM25.457.328A6.494,6.494,0,0,1,20.5-1.634a7.267,7.267,0,0,1-1.853-5.2,7.57,7.57,0,0,1,1.928-5.51,6.93,6.93,0,0,1,5.209-1.982A6.279,6.279,0,0,1,30.673-12.4,7.644,7.644,0,0,1,32.43-7.055a7.521,7.521,0,0,1-1.894,5.366A6.635,6.635,0,0,1,25.457.328Zm.164-12.77a4.265,4.265,0,0,0-3.418,1.47,6.036,6.036,0,0,0-1.258,4.054,5.709,5.709,0,0,0,1.271,3.924,4.321,4.321,0,0,0,3.4,1.436,4.1,4.1,0,0,0,3.343-1.408,6.111,6.111,0,0,0,1.169-4.006,6.216,6.216,0,0,0-1.169-4.047A4.081,4.081,0,0,0,25.621-12.441ZM38.254,0H36.012V-20.727h2.242ZM48.645.328a6.494,6.494,0,0,1-4.956-1.962,7.267,7.267,0,0,1-1.853-5.2,7.57,7.57,0,0,1,1.928-5.51,6.93,6.93,0,0,1,5.209-1.982A6.279,6.279,0,0,1,53.86-12.4a7.644,7.644,0,0,1,1.757,5.346,7.521,7.521,0,0,1-1.894,5.366A6.635,6.635,0,0,1,48.645.328Zm.164-12.77a4.265,4.265,0,0,0-3.418,1.47,6.036,6.036,0,0,0-1.258,4.054A5.709,5.709,0,0,0,45.4-2.994a4.321,4.321,0,0,0,3.4,1.436,4.1,4.1,0,0,0,3.343-1.408A6.111,6.111,0,0,0,53.32-6.973a6.216,6.216,0,0,0-1.169-4.047A4.081,4.081,0,0,0,48.809-12.441ZM66.5-11.73a2.742,2.742,0,0,0-1.7-.451,2.861,2.861,0,0,0-2.4,1.354,6.258,6.258,0,0,0-.964,3.691V0H59.2V-14h2.242v2.885H61.5a4.889,4.889,0,0,1,1.463-2.3,3.336,3.336,0,0,1,2.2-.827,3.66,3.66,0,0,1,1.34.191ZM80.186-6.439H70.3A5.236,5.236,0,0,0,71.559-2.83a4.336,4.336,0,0,0,3.309,1.271,6.879,6.879,0,0,0,4.348-1.559v2.105A8.126,8.126,0,0,1,74.334.328a5.917,5.917,0,0,1-4.662-1.907,7.806,7.806,0,0,1-1.7-5.366,7.655,7.655,0,0,1,1.853-5.325,5.94,5.94,0,0,1,4.6-2.058,5.263,5.263,0,0,1,4.252,1.777,7.41,7.41,0,0,1,1.5,4.936Zm-2.3-1.9a4.562,4.562,0,0,0-.937-3.021,3.191,3.191,0,0,0-2.563-1.08A3.622,3.622,0,0,0,71.7-11.307,5.15,5.15,0,0,0,70.328-8.34Zm4.84,7.834V-2.912a6.635,6.635,0,0,0,4.033,1.354q2.953,0,2.953-1.969a1.708,1.708,0,0,0-.253-.95,2.521,2.521,0,0,0-.684-.69,5.262,5.262,0,0,0-1.012-.54q-.581-.239-1.251-.5a16.112,16.112,0,0,1-1.634-.745A4.936,4.936,0,0,1,83.706-7.8,3.154,3.154,0,0,1,83-8.873a3.8,3.8,0,0,1-.239-1.408,3.345,3.345,0,0,1,.451-1.743,4,4,0,0,1,1.2-1.271,5.61,5.61,0,0,1,1.716-.772,7.611,7.611,0,0,1,1.989-.26,8.032,8.032,0,0,1,3.254.629v2.27a6.341,6.341,0,0,0-3.555-1.012,4.155,4.155,0,0,0-1.135.144,2.778,2.778,0,0,0-.868.4,1.863,1.863,0,0,0-.561.622,1.639,1.639,0,0,0-.2.8,1.918,1.918,0,0,0,.2.916,2.017,2.017,0,0,0,.581.656,4.441,4.441,0,0,0,.93.52q.547.232,1.244.506a17.316,17.316,0,0,1,1.668.731,5.721,5.721,0,0,1,1.258.848,3.312,3.312,0,0,1,.8,1.087,3.505,3.505,0,0,1,.28,1.463,3.449,3.449,0,0,1-.458,1.8A3.925,3.925,0,0,1,90.33-.67a5.6,5.6,0,0,1-1.764.752,8.708,8.708,0,0,1-2.092.246A7.943,7.943,0,0,1,82.729-.506Zm22.7-1.518h-.055V6.439h-2.242V-14h2.242v2.461h.055a5.3,5.3,0,0,1,4.84-2.789,5.127,5.127,0,0,1,4.225,1.88,7.786,7.786,0,0,1,1.518,5.038A8.677,8.677,0,0,1,114.3-1.784,5.69,5.69,0,0,1,109.621.328,4.684,4.684,0,0,1,105.424-2.023Zm-.055-5.646v1.955A4.163,4.163,0,0,0,106.5-2.769a3.745,3.745,0,0,0,2.864,1.21,3.753,3.753,0,0,0,3.192-1.559,7.15,7.15,0,0,0,1.155-4.334,5.644,5.644,0,0,0-1.08-3.664,3.574,3.574,0,0,0-2.926-1.326,3.973,3.973,0,0,0-3.145,1.36A5,5,0,0,0,105.369-7.67Zm15.367-9.885a1.421,1.421,0,0,1-1.025-.41A1.384,1.384,0,0,1,119.287-19a1.407,1.407,0,0,1,.424-1.046,1.408,1.408,0,0,1,1.025-.417,1.448,1.448,0,0,1,1.046.417A1.4,1.4,0,0,1,122.213-19a1.386,1.386,0,0,1-.431,1.025A1.436,1.436,0,0,1,120.736-17.555ZM121.83,0h-2.242V-14h2.242Zm16.488-1.121q0,7.711-7.383,7.711a9.913,9.913,0,0,1-4.539-.984V3.363a9.322,9.322,0,0,0,4.512,1.313q5.168,0,5.168-5.5V-2.352h-.055a5.243,5.243,0,0,1-4.812,2.68A5.256,5.256,0,0,1,127-1.538a7.46,7.46,0,0,1-1.593-5.011,8.716,8.716,0,0,1,1.716-5.674,5.732,5.732,0,0,1,4.7-2.105,4.563,4.563,0,0,1,4.2,2.27h.055V-14h2.242ZM136.076-6.33V-8.395a4.005,4.005,0,0,0-1.128-2.857,3.713,3.713,0,0,0-2.81-1.189,3.893,3.893,0,0,0-3.254,1.511A6.743,6.743,0,0,0,127.709-6.7a5.789,5.789,0,0,0,1.128,3.739,3.644,3.644,0,0,0,2.987,1.4,3.9,3.9,0,0,0,3.069-1.34A4.994,4.994,0,0,0,136.076-6.33ZM162.736,0h-2.242V-8.039a6.065,6.065,0,0,0-.718-3.363,2.722,2.722,0,0,0-2.413-1.039,2.988,2.988,0,0,0-2.44,1.313,5.021,5.021,0,0,0-1,3.145V0h-2.242V-8.312q0-4.129-3.186-4.129a2.951,2.951,0,0,0-2.434,1.237,5.115,5.115,0,0,0-.957,3.22V0h-2.242V-14H145.1v2.215h.055a4.756,4.756,0,0,1,4.348-2.543,4.054,4.054,0,0,1,2.5.8,4.023,4.023,0,0,1,1.463,2.1,5,5,0,0,1,4.648-2.9q4.621,0,4.621,5.7Zm15.49-6.439h-9.885A5.236,5.236,0,0,0,169.6-2.83a4.336,4.336,0,0,0,3.309,1.271,6.879,6.879,0,0,0,4.348-1.559v2.105a8.126,8.126,0,0,1-4.881,1.34,5.917,5.917,0,0,1-4.662-1.907,7.806,7.806,0,0,1-1.7-5.366,7.655,7.655,0,0,1,1.853-5.325,5.94,5.94,0,0,1,4.6-2.058,5.263,5.263,0,0,1,4.252,1.777,7.41,7.41,0,0,1,1.5,4.936Zm-2.3-1.9a4.562,4.562,0,0,0-.937-3.021,3.191,3.191,0,0,0-2.563-1.08,3.622,3.622,0,0,0-2.693,1.135,5.15,5.15,0,0,0-1.367,2.967ZM193.238,0H191V-7.984q0-4.457-3.254-4.457a3.53,3.53,0,0,0-2.782,1.265,4.687,4.687,0,0,0-1.1,3.192V0h-2.242V-14h2.242v2.324h.055a5.053,5.053,0,0,1,4.594-2.652,4.283,4.283,0,0,1,3.514,1.483,6.608,6.608,0,0,1,1.217,4.286Zm10.719-.137A4.323,4.323,0,0,1,201.865.3q-3.678,0-3.678-4.1v-8.285h-2.406V-14h2.406v-3.418l2.242-.725V-14h3.527v1.914H200.43V-4.2a3.27,3.27,0,0,0,.479,2.01,1.91,1.91,0,0,0,1.586.6,2.357,2.357,0,0,0,1.463-.465ZM212.8.328a6.494,6.494,0,0,1-4.956-1.962,7.267,7.267,0,0,1-1.853-5.2,7.57,7.57,0,0,1,1.928-5.51,6.93,6.93,0,0,1,5.209-1.982,6.279,6.279,0,0,1,4.888,1.928,7.644,7.644,0,0,1,1.757,5.346,7.521,7.521,0,0,1-1.894,5.366A6.635,6.635,0,0,1,212.8.328Zm.164-12.77a4.265,4.265,0,0,0-3.418,1.47,6.036,6.036,0,0,0-1.258,4.054,5.709,5.709,0,0,0,1.271,3.924,4.321,4.321,0,0,0,3.4,1.436,4.1,4.1,0,0,0,3.343-1.408,6.111,6.111,0,0,0,1.169-4.006,6.216,6.216,0,0,0-1.169-4.047A4.081,4.081,0,0,0,212.967-12.441Z" transform="translate(61.839 22.599)"/>
    </g>
  </g>
</svg>
