<svg xmlns="http://www.w3.org/2000/svg" width="294.804" height="374.622" viewBox="0 0 294.804 374.622">
  <g id="Grupo_63632" data-name="Grupo 63632" transform="translate(-1045.463 -662.538)">
    <rect id="Rect치ngulo_7977" data-name="Rect치ngulo 7977" width="294.804" height="374.622" rx="20.609" transform="translate(1045.463 662.537)" fill="#f2f2f2"/>
    <g id="Grupo_63631" data-name="Grupo 63631" transform="translate(1064.567 713.055)">
      <rect id="Rect치ngulo_7978" data-name="Rect치ngulo 7978" width="256.595" height="273.587" fill="#f2f2f2"/>
      <g id="Grupo_63626" data-name="Grupo 63626" transform="translate(30.05 49.082)">
        <path id="Trazado_133204" data-name="Trazado 133204" d="M1118.438,798.017l-1.776-5.036h-10.254l-1.776,5.036h-5.191l8.988-24.414h6.2l8.988,24.414Zm-10.545-9.27h7.285l-3.642-10.363Z" transform="translate(-1099.442 -772.064)"/>
        <path id="Trazado_133205" data-name="Trazado 133205" d="M1149.895,781.012a6.611,6.611,0,0,1,4.48,1.411,5.03,5.03,0,0,1,1.666,4.052v12.2h-4.863V787.814a2.893,2.893,0,0,0-.783-2.195,2.733,2.733,0,0,0-1.958-.747,3.161,3.161,0,0,0-2.368.911,4.349,4.349,0,0,0-.911,3.06v9.835h-4.917V787.869a2.974,2.974,0,0,0-.774-2.24,2.786,2.786,0,0,0-2.013-.756,3.05,3.05,0,0,0-2.349,1,4.736,4.736,0,0,0-.911,3.26v9.543h-4.854V781.312h4.844v2.04a5.91,5.91,0,0,1,5.017-2.34,7.429,7.429,0,0,1,3.269.665,4.44,4.44,0,0,1,2.049,1.93A6.159,6.159,0,0,1,1149.895,781.012Z" transform="translate(-1102.115 -772.725)"/>
        <path id="Trazado_133206" data-name="Trazado 133206" d="M1177.95,793.966a16.236,16.236,0,0,0,.419,4.234v.474h-4.553l-.392-1.894a5.627,5.627,0,0,1-2.431,1.675,8.911,8.911,0,0,1-3.142.556,8.345,8.345,0,0,1-1.621-.146,5.457,5.457,0,0,1-1.466-.519,4.635,4.635,0,0,1-1.2-.911,4,4,0,0,1-.811-1.375,5.4,5.4,0,0,1-.31-1.885,5.122,5.122,0,0,1,.328-1.885,4.4,4.4,0,0,1,.838-1.411,5.191,5.191,0,0,1,1.375-1.029,9.9,9.9,0,0,1,1.721-.747,19.59,19.59,0,0,1,2.058-.537l2.859-.646a3.163,3.163,0,0,0,1.294-.546,1.094,1.094,0,0,0,.383-.911,1.822,1.822,0,0,0-.856-1.666,3.921,3.921,0,0,0-2.067-.51c-1.994,0-3.132.911-3.4,2.65l-4.335-.728a5.832,5.832,0,0,1,2.522-3.961,9.961,9.961,0,0,1,5.464-1.275q7.286,0,7.285,6.265Zm-8.569,1.757a3.914,3.914,0,0,0,3.005-1.266,5.258,5.258,0,0,0,1.184-3.724l-4.134,1.2a4.992,4.992,0,0,0-1.739.71,1.448,1.448,0,0,0-.592,1.248,1.632,1.632,0,0,0,.637,1.384A2.67,2.67,0,0,0,1169.381,795.724Z" transform="translate(-1105.073 -772.721)"/>
        <path id="Trazado_133207" data-name="Trazado 133207" d="M1189.324,784.069a5.713,5.713,0,0,1,2.286-2.085,6.906,6.906,0,0,1,3.4-.911v4.335a6.618,6.618,0,0,0-4.161,1.075c-.856.7-1.284,1.94-1.284,3.724v8.478h-4.9V781.319h4.662Z" transform="translate(-1107.059 -772.732)"/>
        <path id="Trazado_133208" data-name="Trazado 133208" d="M1201.6,777.934a2.814,2.814,0,0,1-2.823-2.8h0a2.671,2.671,0,0,1,.838-1.967,2.733,2.733,0,0,1,1.985-.82,2.8,2.8,0,0,1,0,5.591Zm-2.486,19.97V780.539h4.908V797.9Z" transform="translate(-1108.321 -771.951)"/>
        <path id="Trazado_133209" data-name="Trazado 133209" d="M1210.062,797.866V771.913h4.917v25.953Z" transform="translate(-1109.329 -771.913)"/>
        <path id="Trazado_133210" data-name="Trazado 133210" d="M1220.992,797.866V771.913h4.917v25.953Z" transform="translate(-1110.306 -771.913)"/>
        <path id="Trazado_133211" data-name="Trazado 133211" d="M1239.877,799.012a10.932,10.932,0,0,1-4.917-1.065,7.865,7.865,0,0,1-3.369-3.123,9.278,9.278,0,0,1-1.229-4.845,8.507,8.507,0,0,1,2.641-6.593,11.027,11.027,0,0,1,13.769,0,9.6,9.6,0,0,1,0,13.2A9.751,9.751,0,0,1,1239.877,799.012Zm-.055-3.87a4.487,4.487,0,0,0,3.442-1.384,6.018,6.018,0,0,0,0-7.5,4.459,4.459,0,0,0-3.442-1.421,4.29,4.29,0,0,0-3.333,1.43,6.066,6.066,0,0,0,0,7.485A4.307,4.307,0,0,0,1239.822,795.142Z" transform="translate(-1111.142 -772.723)"/>
      </g>
      <g id="Grupo_63627" data-name="Grupo 63627" transform="translate(34.467 137.431)">
        <path id="Trazado_133212" data-name="Trazado 133212" d="M1110.426,870.4h-4.061v3.278h3.579v1.138h-3.579v3.324h4.061V879.3h-5.364V869.283h5.364Z" transform="translate(-1104.361 -868.964)"/>
        <path id="Trazado_133213" data-name="Trazado 133213" d="M1116.588,872.4a2.449,2.449,0,0,1,1.758.637,2.367,2.367,0,0,1,.656,1.821v4.708h-1.229v-4.435a1.627,1.627,0,0,0-.428-1.248,1.5,1.5,0,0,0-1.093-.41,1.715,1.715,0,0,0-1.248.483,2,2,0,0,0-.492,1.43v4.18h-1.229v-6.994h1.257v.911A2.331,2.331,0,0,1,1116.588,872.4Z" transform="translate(-1105.095 -869.243)"/>
        <path id="Trazado_133214" data-name="Trazado 133214" d="M1124.338,879.32a1.821,1.821,0,0,1-1.366-.5,1.886,1.886,0,0,1-.5-1.393v-4.116h-1.43v-.983h.528a.98.98,0,0,0,.765-.246,1.173,1.173,0,0,0,.228-.82v-1.248h1.147v2.331h1.539v.984h-1.6v3.97a1.07,1.07,0,0,0,.264.765.913.913,0,0,0,.7.273h.637v.983Z" transform="translate(-1105.789 -869.03)"/>
        <path id="Trazado_133215" data-name="Trazado 133215" d="M1132,872.551h1.229v6.994h-1.184v-.911a2.231,2.231,0,0,1-.865.783,2.72,2.72,0,0,1-1.229.273,2.439,2.439,0,0,1-1.757-.628,2.389,2.389,0,0,1-.656-1.821v-4.708h1.229v4.435a1.67,1.67,0,0,0,.428,1.248,1.512,1.512,0,0,0,1.1.419,1.674,1.674,0,0,0,1.238-.483,2.008,2.008,0,0,0,.492-1.43Z" transform="translate(-1106.37 -869.255)"/>
        <path id="Trazado_133216" data-name="Trazado 133216" d="M1138.7,879.674a3.31,3.31,0,0,1-1.885-.5,2.1,2.1,0,0,1-.911-1.439l1.075-.31a1.482,1.482,0,0,0,.528,1,1.887,1.887,0,0,0,1.147.346,2.555,2.555,0,0,0,.674-.091,1.158,1.158,0,0,0,.519-.346.908.908,0,0,0,.2-.637.746.746,0,0,0-.055-.291,1.791,1.791,0,0,0-.109-.228.569.569,0,0,0-.2-.191,1.966,1.966,0,0,0-.246-.155,2.057,2.057,0,0,0-.319-.128l-.337-.118-.391-.109-.4-.118a7.059,7.059,0,0,1-.729-.255,3.336,3.336,0,0,1-.592-.337,1.345,1.345,0,0,1-.455-.556,1.866,1.866,0,0,1-.155-.783,1.817,1.817,0,0,1,.346-1.12,1.925,1.925,0,0,1,.911-.656,3.493,3.493,0,0,1,1.238-.2,3.064,3.064,0,0,1,1.7.455,1.946,1.946,0,0,1,.856,1.366l-1.01.255a1.343,1.343,0,0,0-.537-.911,1.683,1.683,0,0,0-1-.3,1.712,1.712,0,0,0-.911.246.826.826,0,0,0-.392.756.772.772,0,0,0,.1.382.915.915,0,0,0,.592.483,3.868,3.868,0,0,0,.419.155l.51.128h.109l.665.191a4.92,4.92,0,0,1,.611.255,2.237,2.237,0,0,1,.546.382,1.909,1.909,0,0,1,.483,1.293,2.1,2.1,0,0,1-.21.911,1.681,1.681,0,0,1-.574.637,2.539,2.539,0,0,1-.82.355A3.714,3.714,0,0,1,1138.7,879.674Z" transform="translate(-1107.117 -869.247)"/>
        <path id="Trazado_133217" data-name="Trazado 133217" d="M1144.581,870.59a.793.793,0,0,1-.583-.246.812.812,0,0,1-.246-.592.8.8,0,0,1,.246-.583.823.823,0,0,1,.583-.237.838.838,0,0,1,.583.237.793.793,0,0,1,.246.583A.836.836,0,0,1,1144.581,870.59Zm-.628,8.633v-6.994h1.238v6.994Z" transform="translate(-1107.819 -868.933)"/>
        <path id="Trazado_133218" data-name="Trazado 133218" d="M1149.6,879.671a2.4,2.4,0,0,1-1.539-.483,1.712,1.712,0,0,1-.6-1.43,2.013,2.013,0,0,1,.191-.911,1.551,1.551,0,0,1,.574-.637,3.125,3.125,0,0,1,.82-.4,8.942,8.942,0,0,1,1.065-.255l1.129-.182c.41-.073.619-.291.619-.647a1.209,1.209,0,0,0-.437-1.038,1.76,1.76,0,0,0-1.111-.337,1.826,1.826,0,0,0-1.093.319,1.379,1.379,0,0,0-.519.983l-1.111-.237a2.188,2.188,0,0,1,.911-1.493,3.28,3.28,0,0,1,1.912-.5,3.943,3.943,0,0,1,1.011.128,2.557,2.557,0,0,1,.847.392,1.7,1.7,0,0,1,.6.747,2.8,2.8,0,0,1,.219,1.157v2.887a1.181,1.181,0,0,0,.164.728.68.68,0,0,0,.546.191h.118v.911h-.61c-.756,0-1.2-.31-1.329-.911h-.055A2.65,2.65,0,0,1,1149.6,879.671Zm.282-.992a1.865,1.865,0,0,0,1.5-.683,2.8,2.8,0,0,0,.565-1.821l-1.821.355a2.441,2.441,0,0,0-1.083.392,1.019,1.019,0,0,0-.018,1.53A1.412,1.412,0,0,0,1149.884,878.679Z" transform="translate(-1108.15 -869.245)"/>
        <path id="Trazado_133219" data-name="Trazado 133219" d="M1158.568,879.671a3.34,3.34,0,0,1-1.885-.5,2.1,2.1,0,0,1-.911-1.439l1.075-.31a1.48,1.48,0,0,0,.574.974,1.825,1.825,0,0,0,1.147.346,2.629,2.629,0,0,0,.674-.091,1.085,1.085,0,0,0,.51-.346.906.906,0,0,0,.209-.637,1.327,1.327,0,0,0-.055-.291,1.039,1.039,0,0,0-.118-.228.569.569,0,0,0-.2-.191l-.237-.155-.319-.127-.337-.118-.392-.109-.41-.118a6.964,6.964,0,0,1-.719-.255,3.125,3.125,0,0,1-.592-.337,1.3,1.3,0,0,1-.464-.555,1.892,1.892,0,0,1-.146-.783,1.826,1.826,0,0,1,.337-1.12,1.932,1.932,0,0,1,.911-.656,3.547,3.547,0,0,1,1.248-.2,3.065,3.065,0,0,1,1.7.455,1.909,1.909,0,0,1,.847,1.366l-1.011.255a1.325,1.325,0,0,0-.528-.911,1.7,1.7,0,0,0-1.011-.3,1.746,1.746,0,0,0-.911.246.847.847,0,0,0-.392.756.7.7,0,0,0,.109.382.994.994,0,0,0,.209.273,1.107,1.107,0,0,0,.382.209,3.232,3.232,0,0,0,.41.155l.51.127h.109l.674.191a4.922,4.922,0,0,1,.6.255,1.894,1.894,0,0,1,.546.382,1.806,1.806,0,0,1,.346.537,2.006,2.006,0,0,1,.137.756,1.976,1.976,0,0,1-.209.911,1.549,1.549,0,0,1-.574.637,2.4,2.4,0,0,1-.81.355A3.712,3.712,0,0,1,1158.568,879.671Z" transform="translate(-1108.893 -869.245)"/>
        <path id="Trazado_133220" data-name="Trazado 133220" d="M1165.931,879.32a1.822,1.822,0,0,1-1.366-.5,1.923,1.923,0,0,1-.5-1.393v-4.116h-1.4v-.983h.528a1.009,1.009,0,0,0,.774-.246,1.215,1.215,0,0,0,.228-.82v-1.248h1.138v2.331h1.612v.984H1165.3v3.97a1.042,1.042,0,0,0,.273.765.913.913,0,0,0,.7.273h.637v.983Z" transform="translate(-1109.509 -869.03)"/>
        <path id="Trazado_133221" data-name="Trazado 133221" d="M1170.752,879.671a2.386,2.386,0,0,1-1.53-.483,1.713,1.713,0,0,1-.6-1.43,2.016,2.016,0,0,1,.191-.911,1.588,1.588,0,0,1,.565-.637,3.346,3.346,0,0,1,.829-.4,8.628,8.628,0,0,1,1.056-.255l1.138-.182c.41-.073.619-.291.619-.647a1.208,1.208,0,0,0-.437-1.038,1.759,1.759,0,0,0-1.111-.337,1.826,1.826,0,0,0-1.093.319,1.325,1.325,0,0,0-.519.983l-1.111-.237a2.125,2.125,0,0,1,.911-1.493,3.244,3.244,0,0,1,1.9-.5,3.971,3.971,0,0,1,1.02.127,2.735,2.735,0,0,1,.847.392,1.758,1.758,0,0,1,.6.747,2.8,2.8,0,0,1,.219,1.156v2.887a1.253,1.253,0,0,0,.155.728.693.693,0,0,0,.555.191h.073v.911h-.61a1.157,1.157,0,0,1-1.32-.911h-.055A2.656,2.656,0,0,1,1170.752,879.671Zm.282-.993a1.82,1.82,0,0,0,1.5-.683,2.727,2.727,0,0,0,.574-1.821l-1.821.355a2.4,2.4,0,0,0-1.084.391,1.019,1.019,0,0,0-.018,1.53A1.4,1.4,0,0,0,1171.035,878.679Z" transform="translate(-1110.041 -869.245)"/>
        <path id="Trazado_133222" data-name="Trazado 133222" d="M1109.282,898.573a5.389,5.389,0,0,1-1.976-.355,5.125,5.125,0,0,1-1.584-1.011,4.562,4.562,0,0,1-1.047-1.63,6.228,6.228,0,0,1,0-4.3,4.642,4.642,0,0,1,1.056-1.63,4.832,4.832,0,0,1,1.575-1.011,5.407,5.407,0,0,1,1.976-.355,5.306,5.306,0,0,1,1.95.364,4.551,4.551,0,0,1,2.64,2.632,5.805,5.805,0,0,1,.383,2.14,5.9,5.9,0,0,1-.383,2.158,4.753,4.753,0,0,1-1.056,1.63,4.917,4.917,0,0,1-1.584,1.011A5.285,5.285,0,0,1,1109.282,898.573Zm0-1.2a3.641,3.641,0,0,0,2.65-1.056,3.948,3.948,0,0,0,1.047-2.9,4.543,4.543,0,0,0-.291-1.657,3.313,3.313,0,0,0-1.958-1.994,4.158,4.158,0,0,0-2.914,0,3.482,3.482,0,0,0-1.175.756,3.385,3.385,0,0,0-.792,1.238,4.582,4.582,0,0,0-.291,1.657,4.728,4.728,0,0,0,.291,1.685,3.427,3.427,0,0,0,.792,1.247,3.771,3.771,0,0,0,1.175.756A4.078,4.078,0,0,0,1109.282,897.371Z" transform="translate(-1104.292 -870.662)"/>
        <path id="Trazado_133223" data-name="Trazado 133223" d="M1121.3,891.6a3.152,3.152,0,0,1,1.266.264,3.062,3.062,0,0,1,1.039.71,3.478,3.478,0,0,1,.7,1.156,4.256,4.256,0,0,1,.255,1.512,3.64,3.64,0,0,1-.911,2.632,3.05,3.05,0,0,1-2.321,1.011,2.787,2.787,0,0,1-1.466-.4,2.63,2.63,0,0,1-1-1.075v4.845h-1.294V891.739h1.193V893.1a2.532,2.532,0,0,1,.993-1.084A2.778,2.778,0,0,1,1121.3,891.6Zm-.246,6.21a2.1,2.1,0,0,0,1.621-.7,2.986,2.986,0,0,0,0-3.734,2.1,2.1,0,0,0-1.621-.7,2.153,2.153,0,0,0-1.639.729,2.85,2.85,0,0,0,0,3.642,2.121,2.121,0,0,0,1.6.765Z" transform="translate(-1105.478 -870.959)"/>
        <path id="Trazado_133224" data-name="Trazado 133224" d="M1130.223,898.87a3.64,3.64,0,0,1-1.821-.437,3.12,3.12,0,0,1-1.257-1.266,3.82,3.82,0,0,1-.474-1.931,3.646,3.646,0,0,1,.993-2.641,3.725,3.725,0,0,1,5.063,0,4.006,4.006,0,0,1,0,5.282A3.412,3.412,0,0,1,1130.223,898.87Zm0-1.02a2.165,2.165,0,0,0,1.657-.719,2.727,2.727,0,0,0,.656-1.894,2.667,2.667,0,0,0-.656-1.885,2.14,2.14,0,0,0-1.657-.719,2.116,2.116,0,0,0-1.639.719,3.085,3.085,0,0,0,0,3.779,2.151,2.151,0,0,0,1.63.719Z" transform="translate(-1106.292 -870.959)"/>
        <path id="Trazado_133225" data-name="Trazado 133225" d="M1137.764,892.978a2.135,2.135,0,0,1,.865-.911,2.6,2.6,0,0,1,1.348-.364v1.156a2.3,2.3,0,0,0-1.63.519,2.167,2.167,0,0,0-.555,1.657v3.734h-1.23v-6.994h1.2Z" transform="translate(-1107.176 -870.968)"/>
        <path id="Trazado_133226" data-name="Trazado 133226" d="M1144.468,898.518a1.821,1.821,0,0,1-1.366-.5,1.886,1.886,0,0,1-.5-1.393v-4.116h-1.43v-.984h.528a1.028,1.028,0,0,0,.774-.246,1.222,1.222,0,0,0,.219-.82v-1.266h1.147v2.331h1.612v.984h-1.612V896.5a1.043,1.043,0,0,0,.273.765.911.911,0,0,0,.692.273h.646v.983Z" transform="translate(-1107.588 -870.744)"/>
        <path id="Trazado_133227" data-name="Trazado 133227" d="M1152.16,891.751h1.229v6.994h-1.175v-.911a2.194,2.194,0,0,1-.911.783,2.643,2.643,0,0,1-1.22.273,2.431,2.431,0,0,1-1.757-.628,2.363,2.363,0,0,1-.665-1.821v-4.708h1.229v4.435a1.641,1.641,0,0,0,.437,1.248,1.477,1.477,0,0,0,1.094.419,1.69,1.69,0,0,0,1.247-.483,1.961,1.961,0,0,0,.483-1.43Z" transform="translate(-1108.168 -870.971)"/>
        <path id="Trazado_133228" data-name="Trazado 133228" d="M1160,891.6a2.432,2.432,0,0,1,1.757.637,2.364,2.364,0,0,1,.665,1.821v4.708h-1.211v-4.426a1.636,1.636,0,0,0-.428-1.257,1.5,1.5,0,0,0-1.093-.41,1.716,1.716,0,0,0-1.248.483,1.952,1.952,0,0,0-.483,1.43v4.18h-1.3v-6.994h1.239v.911A2.322,2.322,0,0,1,1160,891.6Z" transform="translate(-1108.973 -870.959)"/>
        <path id="Trazado_133229" data-name="Trazado 133229" d="M1166.2,889.79a.793.793,0,0,1-.583-.246.812.812,0,0,1-.246-.592.8.8,0,0,1,.246-.583.839.839,0,0,1,1.166,0,.792.792,0,0,1,.246.583.8.8,0,0,1-.246.592A.79.79,0,0,1,1166.2,889.79Zm-.628,8.633V891.43h1.238v6.994Z" transform="translate(-1109.751 -870.649)"/>
        <path id="Trazado_133230" data-name="Trazado 133230" d="M1174.821,887.433h1.229V898.36h-1.193V897a2.565,2.565,0,0,1-.993,1.1,2.772,2.772,0,0,1-1.484.41,3.141,3.141,0,0,1-1.266-.264,2.981,2.981,0,0,1-1.038-.729,3.28,3.28,0,0,1-.71-1.156,4.192,4.192,0,0,1-.255-1.493,3.707,3.707,0,0,1,.911-2.632,3.079,3.079,0,0,1,2.322-1.011,2.786,2.786,0,0,1,1.466.4,2.617,2.617,0,0,1,1,1.065Zm-2.213,10.017a2.082,2.082,0,0,0,1.63-.728,2.9,2.9,0,0,0,0-3.643,2.111,2.111,0,0,0-1.63-.738,2.134,2.134,0,0,0-1.63.71,2.632,2.632,0,0,0-.665,1.867,2.6,2.6,0,0,0,.665,1.821,2.13,2.13,0,0,0,1.63.7Z" transform="translate(-1110.085 -870.587)"/>
        <path id="Trazado_133231" data-name="Trazado 133231" d="M1181.042,898.871a2.329,2.329,0,0,1-1.53-.483,1.713,1.713,0,0,1-.6-1.43,2.016,2.016,0,0,1,.191-.911,1.6,1.6,0,0,1,.565-.637,3.348,3.348,0,0,1,.829-.4,7.28,7.28,0,0,1,1.056-.246l1.138-.191c.41-.073.619-.291.619-.646a1.19,1.19,0,0,0-.446-1.038,1.733,1.733,0,0,0-1.1-.337,1.825,1.825,0,0,0-1.093.319,1.325,1.325,0,0,0-.519.983l-1.111-.228a2.124,2.124,0,0,1,.911-1.5,3.223,3.223,0,0,1,1.9-.5,3.969,3.969,0,0,1,1.02.128,2.74,2.74,0,0,1,.847.392,1.76,1.76,0,0,1,.6.747,2.8,2.8,0,0,1,.219,1.157v2.887a1.253,1.253,0,0,0,.155.728.693.693,0,0,0,.555.191h.109v.911h-.61a1.157,1.157,0,0,1-1.32-.911h-.055A2.676,2.676,0,0,1,1181.042,898.871Zm.282-.993a1.82,1.82,0,0,0,1.5-.683,2.727,2.727,0,0,0,.574-1.821l-1.821.355a2.494,2.494,0,0,0-1.093.392,1.027,1.027,0,0,0-.009,1.53,1.4,1.4,0,0,0,.847.228Z" transform="translate(-1110.961 -870.961)"/>
        <path id="Trazado_133232" data-name="Trazado 133232" d="M1192.821,887.433h1.229V898.36h-1.193V897a2.564,2.564,0,0,1-.993,1.1,2.772,2.772,0,0,1-1.484.41,3.142,3.142,0,0,1-1.266-.264,2.982,2.982,0,0,1-1.038-.729,3.28,3.28,0,0,1-.71-1.156,4.2,4.2,0,0,1-.255-1.493,3.708,3.708,0,0,1,.911-2.632,3.079,3.079,0,0,1,2.322-1.011,2.786,2.786,0,0,1,1.466.4,2.618,2.618,0,0,1,1,1.065Zm-2.213,10.017a2.082,2.082,0,0,0,1.63-.728,2.9,2.9,0,0,0,0-3.643,2.112,2.112,0,0,0-1.63-.738,2.135,2.135,0,0,0-1.63.71,2.633,2.633,0,0,0-.665,1.867,2.6,2.6,0,0,0,.665,1.821,2.131,2.131,0,0,0,1.63.7Z" transform="translate(-1111.694 -870.587)"/>
        <path id="Trazado_133233" data-name="Trazado 133233" d="M1110.426,908.8h-4.061v3.278h3.579v1.138h-3.579v3.278h4.061v1.156h-5.364V907.633h5.364Z" transform="translate(-1104.361 -872.392)"/>
        <path id="Trazado_133234" data-name="Trazado 133234" d="M1112.2,917.947l2.686-3.5-2.686-3.5h1.512l1.939,2.677,1.931-2.677h1.493l-2.732,3.5,2.732,3.5h-1.5l-1.921-2.659-1.94,2.659Z" transform="translate(-1104.999 -872.689)"/>
        <path id="Trazado_133235" data-name="Trazado 133235" d="M1125.113,910.8a3.152,3.152,0,0,1,1.266.264,3.05,3.05,0,0,1,1.038.71,3.364,3.364,0,0,1,.7,1.156,4.281,4.281,0,0,1,.264,1.512,3.641,3.641,0,0,1-.911,2.632,3.05,3.05,0,0,1-2.321,1.011,2.807,2.807,0,0,1-1.466-.4,2.62,2.62,0,0,1-.992-1.075v4.845h-1.239V910.94h1.193V912.3a2.592,2.592,0,0,1,.993-1.084A2.771,2.771,0,0,1,1125.113,910.8Zm-.246,6.21a2.1,2.1,0,0,0,1.621-.7,2.986,2.986,0,0,0,0-3.734,2.1,2.1,0,0,0-1.621-.7,2.153,2.153,0,0,0-1.639.729,2.85,2.85,0,0,0,0,3.642A2.15,2.15,0,0,0,1124.867,917.013Z" transform="translate(-1105.826 -872.675)"/>
        <path id="Trazado_133236" data-name="Trazado 133236" d="M1134.074,918.07a3.641,3.641,0,0,1-1.821-.437,3.121,3.121,0,0,1-1.257-1.266,3.918,3.918,0,0,1-.464-1.931,3.572,3.572,0,0,1,.992-2.641,3.716,3.716,0,0,1,5.054,0,4.006,4.006,0,0,1,0,5.282A3.412,3.412,0,0,1,1134.074,918.07Zm0-1.02a2.165,2.165,0,0,0,1.657-.719,2.727,2.727,0,0,0,.656-1.894,2.667,2.667,0,0,0-.656-1.885,2.14,2.14,0,0,0-1.657-.719,2.116,2.116,0,0,0-1.639.719,3.088,3.088,0,0,0,0,3.779,2.151,2.151,0,0,0,1.63.719Z" transform="translate(-1106.637 -872.675)"/>
        <path id="Trazado_133237" data-name="Trazado 133237" d="M1143.708,910.8a2.469,2.469,0,0,1,1.767.637,2.368,2.368,0,0,1,.656,1.821v4.708H1144.9v-4.435a1.663,1.663,0,0,0-.428-1.248,1.529,1.529,0,0,0-1.1-.41,1.689,1.689,0,0,0-1.238.483,1.922,1.922,0,0,0-.492,1.43v4.18h-1.229v-6.994h1.229v.911A2.332,2.332,0,0,1,1143.708,910.8Z" transform="translate(-1107.52 -872.675)"/>
        <path id="Trazado_133238" data-name="Trazado 133238" d="M1151.428,917.716a1.821,1.821,0,0,1-1.366-.5,1.924,1.924,0,0,1-.5-1.393v-4.134h-1.43V910.7h.528a1.009,1.009,0,0,0,.774-.246,1.215,1.215,0,0,0,.228-.82v-1.266h1.138V910.7h1.612v.983H1150.8v3.989a1.042,1.042,0,0,0,.273.765.912.912,0,0,0,.7.273h.638v.983Z" transform="translate(-1108.21 -872.458)"/>
        <path id="Trazado_133239" data-name="Trazado 133239" d="M1156.252,918.071a2.385,2.385,0,0,1-1.53-.483,1.712,1.712,0,0,1-.6-1.43,2.018,2.018,0,0,1,.191-.911,1.6,1.6,0,0,1,.565-.637,3.349,3.349,0,0,1,.829-.4,8.606,8.606,0,0,1,1.056-.255l1.138-.182c.41-.073.619-.291.619-.646a1.208,1.208,0,0,0-.437-1.038,1.759,1.759,0,0,0-1.111-.337,1.825,1.825,0,0,0-1.093.319,1.324,1.324,0,0,0-.519.983l-1.111-.237a2.125,2.125,0,0,1,.911-1.493,3.244,3.244,0,0,1,1.9-.5,3.967,3.967,0,0,1,1.02.128,2.717,2.717,0,0,1,.847.392,1.759,1.759,0,0,1,.6.747,2.8,2.8,0,0,1,.219,1.156v2.887a1.253,1.253,0,0,0,.155.729.694.694,0,0,0,.555.191h.109v.911h-.61a1.157,1.157,0,0,1-1.32-.911h-.055A2.656,2.656,0,0,1,1156.252,918.071Zm.282-.993a1.82,1.82,0,0,0,1.5-.683,2.727,2.727,0,0,0,.574-1.821l-1.821.355a2.4,2.4,0,0,0-1.084.392,1.019,1.019,0,0,0-.018,1.53,1.4,1.4,0,0,0,.847.228Z" transform="translate(-1108.745 -872.677)"/>
        <path id="Trazado_133240" data-name="Trazado 133240" d="M1166.338,910.8a2.45,2.45,0,0,1,1.757.637,2.368,2.368,0,0,1,.656,1.821v4.708h-1.229v-4.435a1.663,1.663,0,0,0-.428-1.248,1.5,1.5,0,0,0-1.093-.41,1.715,1.715,0,0,0-1.247.483,1.994,1.994,0,0,0-.492,1.43v4.18h-1.229v-6.994h1.229v.911A2.335,2.335,0,0,1,1166.338,910.8Z" transform="translate(-1109.542 -872.675)"/>
        <path id="Trazado_133241" data-name="Trazado 133241" d="M1178.011,914.3v.337h-5.464a2.491,2.491,0,0,0,.674,1.821,2.185,2.185,0,0,0,1.594.628,2.114,2.114,0,0,0,1.156-.337,2.208,2.208,0,0,0,.8-.911l1.111.237a3.162,3.162,0,0,1-1.2,1.5,3.261,3.261,0,0,1-1.821.546,3.379,3.379,0,0,1-2.513-.974,4.144,4.144,0,0,1,0-5.318,3.374,3.374,0,0,1,2.486-.974,3.149,3.149,0,0,1,2.349.911A3.531,3.531,0,0,1,1178.011,914.3Zm-3.233-2.55a2.149,2.149,0,0,0-1.457.5,2.269,2.269,0,0,0-.738,1.439h4.189a2.085,2.085,0,0,0-.61-1.439,1.948,1.948,0,0,0-1.366-.5Z" transform="translate(-1110.288 -872.68)"/>
        <path id="Trazado_133242" data-name="Trazado 133242" d="M1183.684,918.07a3.641,3.641,0,0,1-1.821-.437,3.11,3.11,0,0,1-1.248-1.266,3.821,3.821,0,0,1-.473-1.931,3.646,3.646,0,0,1,.993-2.641,3.725,3.725,0,0,1,5.063,0,4.006,4.006,0,0,1,0,5.282A3.415,3.415,0,0,1,1183.684,918.07Zm0-1.02a2.166,2.166,0,0,0,1.657-.719,2.727,2.727,0,0,0,.656-1.894,2.667,2.667,0,0,0-.656-1.885,2.141,2.141,0,0,0-1.657-.719,2.116,2.116,0,0,0-1.639.719,3.085,3.085,0,0,0,0,3.779,2.151,2.151,0,0,0,1.63.719Z" transform="translate(-1111.071 -872.675)"/>
        <path id="Trazado_133243" data-name="Trazado 133243" d="M1110.471,928h-4.107v3.269h3.579v1.193h-3.579v4.426h-1.3V926.873h5.409Z" transform="translate(-1104.361 -874.112)"/>
        <path id="Trazado_133244" data-name="Trazado 133244" d="M1118.761,933.5v.337H1113.3a2.453,2.453,0,0,0,.674,1.821,2.167,2.167,0,0,0,1.594.628,2.112,2.112,0,0,0,1.949-1.266l1.111.237a3.1,3.1,0,0,1-1.193,1.5,3.262,3.262,0,0,1-1.821.546,3.379,3.379,0,0,1-2.513-.974,4.143,4.143,0,0,1,0-5.318,3.336,3.336,0,0,1,2.477-.974,3.131,3.131,0,0,1,2.349.911A3.531,3.531,0,0,1,1118.761,933.5Zm-3.242-2.55a2.168,2.168,0,0,0-1.457.5,2.306,2.306,0,0,0-.728,1.439h4.189a2.084,2.084,0,0,0-.61-1.439,1.966,1.966,0,0,0-1.393-.528Z" transform="translate(-1104.993 -874.395)"/>
        <path id="Trazado_133245" data-name="Trazado 133245" d="M1121.522,936.76V925.833h1.248V936.76Z" transform="translate(-1105.832 -874.019)"/>
        <path id="Trazado_133246" data-name="Trazado 133246" d="M1126.25,928.19a.838.838,0,0,1-.838-.838h0a.8.8,0,0,1,.246-.583.846.846,0,0,1,1.175,0,.792.792,0,0,1,.246.583.837.837,0,0,1-.828.838Zm-.628,8.633v-6.994h1.238v6.994Z" transform="translate(-1106.18 -874.081)"/>
        <path id="Trazado_133247" data-name="Trazado 133247" d="M1130.63,936.154h3.734v.993h-5.582l3.688-5.992H1129v-1h5.354Z" transform="translate(-1106.481 -874.405)"/>
        <path id="Trazado_133248" data-name="Trazado 133248" d="M1108.85,946.013a2.907,2.907,0,0,1,1.566.419,2.81,2.81,0,0,1,1.056,1.111,3.247,3.247,0,0,1,.364,1.548,3.006,3.006,0,0,1-.829,2.176,2.848,2.848,0,0,1-2.158.911h-2.522v3.852h-1.266V946.013Zm-.182,5.018a1.822,1.822,0,0,0,1.393-.537,1.972,1.972,0,0,0,.5-1.421,2,2,0,0,0-.5-1.411,1.821,1.821,0,0,0-1.393-.546h-2.34v3.916Z" transform="translate(-1104.361 -875.822)"/>
        <path id="Trazado_133249" data-name="Trazado 133249" d="M1116.8,956.47a3.64,3.64,0,0,1-1.821-.437,3.137,3.137,0,0,1-1.266-1.266,3.918,3.918,0,0,1-.464-1.931,3.643,3.643,0,0,1,.993-2.641,3.725,3.725,0,0,1,5.063,0,4.005,4.005,0,0,1,0,5.282A3.429,3.429,0,0,1,1116.8,956.47Zm0-1.02a2.165,2.165,0,0,0,1.657-.719,2.728,2.728,0,0,0,.656-1.894,2.667,2.667,0,0,0-.656-1.885,2.14,2.14,0,0,0-1.657-.719,2.116,2.116,0,0,0-1.639.719,2.673,2.673,0,0,0-.647,1.885,2.737,2.737,0,0,0,.647,1.894,2.151,2.151,0,0,0,1.63.719Z" transform="translate(-1105.093 -876.108)"/>
        <path id="Trazado_133250" data-name="Trazado 133250" d="M1125.288,956.471a3.326,3.326,0,0,1-1.885-.5,2.069,2.069,0,0,1-.911-1.439l1.065-.31a1.551,1.551,0,0,0,.574.974,1.9,1.9,0,0,0,1.156.346,2.477,2.477,0,0,0,.665-.091,1.159,1.159,0,0,0,.519-.346.907.907,0,0,0,.209-.637.94.94,0,0,0-.064-.291.734.734,0,0,0-.109-.228.564.564,0,0,0-.2-.191,2,2,0,0,0-.245-.155,1.91,1.91,0,0,0-.31-.128l-.337-.118-.392-.109-.41-.118c-.292-.091-.537-.173-.729-.255a3.255,3.255,0,0,1-.583-.337,1.3,1.3,0,0,1-.465-.555,1.894,1.894,0,0,1-.155-.783,1.827,1.827,0,0,1,.346-1.12,1.932,1.932,0,0,1,.911-.656,3.5,3.5,0,0,1,1.238-.2,3.1,3.1,0,0,1,1.712.455,1.964,1.964,0,0,1,.847,1.366l-1.011.255a1.309,1.309,0,0,0-.537-.911,1.659,1.659,0,0,0-1-.3,1.744,1.744,0,0,0-.911.246.83.83,0,0,0-.392.756.7.7,0,0,0,.109.382.994.994,0,0,0,.209.273,1.013,1.013,0,0,0,.383.21,3.156,3.156,0,0,0,.41.155l.51.127h.109l.674.191a4.972,4.972,0,0,1,.6.255,2.238,2.238,0,0,1,.546.382,1.841,1.841,0,0,1,.346.537,2.042,2.042,0,0,1,.137.756,2.118,2.118,0,0,1-.209.911,1.559,1.559,0,0,1-.575.637,2.4,2.4,0,0,1-.81.355A3.711,3.711,0,0,1,1125.288,956.471Z" transform="translate(-1105.919 -876.109)"/>
        <path id="Trazado_133251" data-name="Trazado 133251" d="M1131.121,947.39a.792.792,0,0,1-.583-.246.811.811,0,0,1-.246-.592.8.8,0,0,1,.246-.583.839.839,0,0,1,1.166,0,.794.794,0,0,1,.246.583.805.805,0,0,1-.246.592A.79.79,0,0,1,1131.121,947.39Zm-.619,8.633V949.03h1.238V956Z" transform="translate(-1106.616 -875.797)"/>
        <path id="Trazado_133252" data-name="Trazado 133252" d="M1136.759,956.1a1.821,1.821,0,0,1-1.366-.5,1.886,1.886,0,0,1-.5-1.393v-4.116h-1.43V949.1h.528a1.028,1.028,0,0,0,.774-.246,1.221,1.221,0,0,0,.219-.82v-1.266h1.147V949.1h1.612v.983h-1.612v3.989a1.069,1.069,0,0,0,.264.765.913.913,0,0,0,.7.273h.646v.983Z" transform="translate(-1106.899 -875.89)"/>
        <path id="Trazado_133253" data-name="Trazado 133253" d="M1140.72,947.39a.838.838,0,0,1-.838-.838h0a.8.8,0,0,1,.246-.583.84.84,0,0,1,.592-.237.81.81,0,0,1,.574.237.793.793,0,0,1,.246.583.8.8,0,0,1-.246.592A.783.783,0,0,1,1140.72,947.39Zm-.628,8.633v-6.994h1.238V956Z" transform="translate(-1107.473 -875.797)"/>
        <path id="Trazado_133254" data-name="Trazado 133254" d="M1148.481,949.351h1.311l-2.841,6.975H1145.9l-2.831-6.994h1.311l2.049,5.564Z" transform="translate(-1107.758 -876.119)"/>
        <path id="Trazado_133255" data-name="Trazado 133255" d="M1154.648,956.47a3.64,3.64,0,0,1-1.821-.437,3.089,3.089,0,0,1-1.211-1.266,3.918,3.918,0,0,1-.464-1.931,3.571,3.571,0,0,1,.993-2.641,3.725,3.725,0,0,1,5.063,0,3.64,3.64,0,0,1,.983,2.641,3.554,3.554,0,0,1-.993,2.641A3.4,3.4,0,0,1,1154.648,956.47Zm0-1.02a2.148,2.148,0,0,0,1.648-.719,2.666,2.666,0,0,0,.665-1.894,2.625,2.625,0,0,0-.665-1.885,2.12,2.12,0,0,0-1.648-.719,2.087,2.087,0,0,0-1.639.719,2.675,2.675,0,0,0-.656,1.885,2.736,2.736,0,0,0,.656,1.894,2.124,2.124,0,0,0,1.63.719Z" transform="translate(-1108.48 -876.108)"/>
      </g>
      <g id="Grupo_63628" data-name="Grupo 63628" transform="translate(148.787 136.793)">
        <path id="Trazado_133256" data-name="Trazado 133256" d="M1230.242,879.25V869.233h1.293V879.25Z" transform="translate(-1229.87 -868.322)"/>
        <path id="Trazado_133257" data-name="Trazado 133257" d="M1235.949,873.778a2.138,2.138,0,0,1,.911-.911,2.657,2.657,0,0,1,1.348-.364v1.156a2.28,2.28,0,0,0-1.621.519,2.171,2.171,0,0,0-.565,1.657v3.734h-1.229v-6.994h1.2Z" transform="translate(-1230.276 -868.615)"/>
        <path id="Trazado_133258" data-name="Trazado 133258" d="M1241.284,873.778a2.135,2.135,0,0,1,.865-.911,2.6,2.6,0,0,1,1.348-.364v1.156a2.3,2.3,0,0,0-1.63.519,2.171,2.171,0,0,0-.555,1.657v3.734h-1.229v-6.994h1.2Z" transform="translate(-1230.749 -868.615)"/>
        <path id="Trazado_133259" data-name="Trazado 133259" d="M1246.883,879.671a2.386,2.386,0,0,1-1.53-.483,1.712,1.712,0,0,1-.6-1.43,2.014,2.014,0,0,1,.191-.911,1.589,1.589,0,0,1,.565-.637,3.351,3.351,0,0,1,.829-.4,8.636,8.636,0,0,1,1.056-.255l1.138-.182c.41-.073.619-.291.619-.647a1.209,1.209,0,0,0-.437-1.038,1.76,1.76,0,0,0-1.111-.337,1.826,1.826,0,0,0-1.093.319,1.324,1.324,0,0,0-.519.983l-1.111-.237a2.125,2.125,0,0,1,.911-1.493,3.244,3.244,0,0,1,1.9-.5,3.972,3.972,0,0,1,1.02.127,2.738,2.738,0,0,1,.847.392,1.76,1.76,0,0,1,.6.747,2.8,2.8,0,0,1,.219,1.156v2.887a1.253,1.253,0,0,0,.155.728.693.693,0,0,0,.556.191h.109v.911h-.61a1.156,1.156,0,0,1-1.32-.911h-.046A2.658,2.658,0,0,1,1246.883,879.671Zm.282-.993a1.82,1.82,0,0,0,1.5-.683,2.728,2.728,0,0,0,.574-1.821l-1.821.355a2.4,2.4,0,0,0-1.084.391,1.019,1.019,0,0,0-.018,1.53A1.4,1.4,0,0,0,1247.165,878.679Z" transform="translate(-1231.166 -868.607)"/>
        <path id="Trazado_133260" data-name="Trazado 133260" d="M1256.39,879.661a3.35,3.35,0,0,1-2.5-1,3.988,3.988,0,0,1,0-5.245,3.354,3.354,0,0,1,2.5-1.011,3.4,3.4,0,0,1,2.031.619,3.118,3.118,0,0,1,1.175,1.694l-1.156.191a2.085,2.085,0,0,0-.783-1.093,2.2,2.2,0,0,0-1.275-.382,2.049,2.049,0,0,0-1.612.719,3.1,3.1,0,0,0,0,3.761,2.049,2.049,0,0,0,1.612.719,2.2,2.2,0,0,0,1.275-.382,2.081,2.081,0,0,0,.783-1.093l1.156.191a3.106,3.106,0,0,1-1.183,1.7A3.4,3.4,0,0,1,1256.39,879.661Z" transform="translate(-1231.895 -868.606)"/>
        <path id="Trazado_133261" data-name="Trazado 133261" d="M1262.85,870.59a.838.838,0,0,1-.838-.838h0a.8.8,0,0,1,.246-.583.84.84,0,0,1,.592-.237.809.809,0,0,1,.574.237.793.793,0,0,1,.246.583.8.8,0,0,1-.246.592A.779.779,0,0,1,1262.85,870.59Zm-.628,8.633v-6.994h1.239v6.994Z" transform="translate(-1232.709 -868.296)"/>
        <path id="Trazado_133262" data-name="Trazado 133262" d="M1269.233,879.67a3.641,3.641,0,0,1-1.821-.437,3.082,3.082,0,0,1-1.266-1.266,3.917,3.917,0,0,1-.464-1.931,3.572,3.572,0,0,1,.993-2.641,3.725,3.725,0,0,1,5.063,0,3.64,3.64,0,0,1,.983,2.641,3.555,3.555,0,0,1-.993,2.641A3.416,3.416,0,0,1,1269.233,879.67Zm0-1.02a2.148,2.148,0,0,0,1.648-.719,2.726,2.726,0,0,0,.665-1.894,2.671,2.671,0,0,0-.665-1.885,2.12,2.12,0,0,0-1.648-.719,2.087,2.087,0,0,0-1.639.719,2.674,2.674,0,0,0-.656,1.885,2.735,2.735,0,0,0,.656,1.894A2.123,2.123,0,0,0,1269.233,878.65Z" transform="translate(-1233.037 -868.605)"/>
        <path id="Trazado_133263" data-name="Trazado 133263" d="M1278.868,872.4a2.459,2.459,0,0,1,1.767.637,2.368,2.368,0,0,1,.656,1.821v4.708h-1.229v-4.435a1.662,1.662,0,0,0-.428-1.248,1.5,1.5,0,0,0-1.093-.41,1.694,1.694,0,0,0-1.248.483,1.922,1.922,0,0,0-.492,1.43v4.18h-1.229v-6.994h1.229v.911A2.332,2.332,0,0,1,1278.868,872.4Z" transform="translate(-1233.921 -868.605)"/>
        <path id="Trazado_133264" data-name="Trazado 133264" d="M1286.023,879.671a2.387,2.387,0,0,1-1.53-.483,1.713,1.713,0,0,1-.6-1.43,2.016,2.016,0,0,1,.191-.911,1.59,1.59,0,0,1,.565-.637,3.351,3.351,0,0,1,.829-.4,8.63,8.63,0,0,1,1.056-.255l1.138-.182c.41-.073.619-.291.619-.647a1.208,1.208,0,0,0-.437-1.038,1.759,1.759,0,0,0-1.111-.337,1.826,1.826,0,0,0-1.093.319,1.38,1.38,0,0,0-.519.983l-1.111-.237a2.125,2.125,0,0,1,.911-1.493,3.244,3.244,0,0,1,1.9-.5,3.971,3.971,0,0,1,1.02.127,2.739,2.739,0,0,1,.847.392,1.76,1.76,0,0,1,.6.747,2.8,2.8,0,0,1,.219,1.156v2.887a1.181,1.181,0,0,0,.164.728.667.667,0,0,0,.547.191h.118v.911h-.619a1.166,1.166,0,0,1-1.32-.911h-.055A2.657,2.657,0,0,1,1286.023,879.671Zm.282-.993a1.82,1.82,0,0,0,1.5-.683,2.727,2.727,0,0,0,.574-1.821l-1.821.355a2.4,2.4,0,0,0-1.084.391,1.019,1.019,0,0,0-.018,1.53A1.4,1.4,0,0,0,1286.3,878.679Z" transform="translate(-1234.664 -868.607)"/>
        <path id="Trazado_133265" data-name="Trazado 133265" d="M1292.842,879.16V868.233h1.248V879.16Z" transform="translate(-1235.465 -868.233)"/>
        <path id="Trazado_133266" data-name="Trazado 133266" d="M1240.8,898.45h-1.239l-.665-8.268-3.205,8.268h-.756l-3.177-8.2-.683,8.2h-1.239l.756-10.017h1.685l3.032,7.813,3.051-7.813h1.685Z" transform="translate(-1229.833 -870.038)"/>
        <path id="Trazado_133267" data-name="Trazado 133267" d="M1245.17,889.79a.838.838,0,0,1-.838-.838h0a.8.8,0,0,1,.246-.583.839.839,0,0,1,.592-.237.82.82,0,0,1,.82.82.8.8,0,0,1-.246.592A.769.769,0,0,1,1245.17,889.79Zm-.628,8.633v-6.994h1.238v6.994Z" transform="translate(-1231.129 -870.012)"/>
        <path id="Trazado_133268" data-name="Trazado 133268" d="M1254.741,895.1v.337h-5.464a2.453,2.453,0,0,0,.674,1.821,2.185,2.185,0,0,0,1.594.628,2.114,2.114,0,0,0,1.157-.337,2.208,2.208,0,0,0,.8-.911l1.1.237a3.1,3.1,0,0,1-1.193,1.5,3.262,3.262,0,0,1-1.821.546,3.379,3.379,0,0,1-2.513-.974,4.145,4.145,0,0,1,0-5.318,3.353,3.353,0,0,1,2.477-.974,3.158,3.158,0,0,1,2.359.911A3.568,3.568,0,0,1,1254.741,895.1Zm-3.242-2.55a2.144,2.144,0,0,0-1.448.5,2.274,2.274,0,0,0-.738,1.439h4.189a2.083,2.083,0,0,0-.61-1.439,1.967,1.967,0,0,0-1.393-.5Z" transform="translate(-1231.466 -870.327)"/>
        <path id="Trazado_133269" data-name="Trazado 133269" d="M1262.621,887.433h1.229V898.36h-1.193V897a2.564,2.564,0,0,1-.993,1.1,2.726,2.726,0,0,1-1.484.41,3.187,3.187,0,0,1-1.266-.264,3.076,3.076,0,0,1-1.038-.729,3.263,3.263,0,0,1-.7-1.156,4.193,4.193,0,0,1-.264-1.493,3.708,3.708,0,0,1,.911-2.632,3.08,3.08,0,0,1,2.322-1.011,2.785,2.785,0,0,1,1.466.4,2.618,2.618,0,0,1,1,1.065Zm-2.2,10.017a2.084,2.084,0,0,0,1.621-.728,2.9,2.9,0,0,0,0-3.643,2.1,2.1,0,0,0-1.621-.738,2.14,2.14,0,0,0-1.639.71,2.632,2.632,0,0,0-.665,1.867,2.6,2.6,0,0,0,.665,1.821,2.143,2.143,0,0,0,1.639.7Z" transform="translate(-1232.253 -869.949)"/>
        <path id="Trazado_133270" data-name="Trazado 133270" d="M1270.164,898.87a3.641,3.641,0,0,1-1.821-.437,3.121,3.121,0,0,1-1.257-1.266,3.918,3.918,0,0,1-.464-1.931,3.572,3.572,0,0,1,.993-2.641,3.715,3.715,0,0,1,5.054,0,4.006,4.006,0,0,1,0,5.282A3.411,3.411,0,0,1,1270.164,898.87Zm0-1.02a2.148,2.148,0,0,0,1.648-.719,2.727,2.727,0,0,0,.656-1.894,2.666,2.666,0,0,0-.656-1.885,2.12,2.12,0,0,0-1.648-.719,2.087,2.087,0,0,0-1.639.719,2.675,2.675,0,0,0-.656,1.885,2.735,2.735,0,0,0,.656,1.894,2.123,2.123,0,0,0,1.639.719Z" transform="translate(-1233.121 -870.322)"/>
        <path id="Trazado_133271" data-name="Trazado 133271" d="M1235.659,908.8h-4.125v3.269h3.643v1.147h-3.643v4.435h-1.3V907.633h5.418Z" transform="translate(-1229.869 -871.755)"/>
        <path id="Trazado_133272" data-name="Trazado 133272" d="M1239.4,912.178a2.163,2.163,0,0,1,.91-.911,2.588,2.588,0,0,1,1.339-.364v1.156a2.3,2.3,0,0,0-1.621.519,2.172,2.172,0,0,0-.564,1.657v3.734h-1.229v-6.994h1.2Z" transform="translate(-1230.584 -872.047)"/>
        <path id="Trazado_133273" data-name="Trazado 133273" d="M1245,918.071a2.385,2.385,0,0,1-1.53-.483,1.686,1.686,0,0,1-.6-1.43,2.016,2.016,0,0,1,.191-.911,1.523,1.523,0,0,1,.565-.637,3.435,3.435,0,0,1,.82-.4,9.342,9.342,0,0,1,1.065-.255l1.129-.182c.419-.073.619-.291.619-.646a1.209,1.209,0,0,0-.437-1.038,1.732,1.732,0,0,0-1.1-.337,1.88,1.88,0,0,0-1.1.319,1.379,1.379,0,0,0-.519.983l-1.1-.237a2.125,2.125,0,0,1,.911-1.493,3.223,3.223,0,0,1,1.9-.5,3.82,3.82,0,0,1,1.011.128,2.555,2.555,0,0,1,.847.392,1.72,1.72,0,0,1,.61.747,2.8,2.8,0,0,1,.219,1.156v2.887a1.19,1.19,0,0,0,.155.729.693.693,0,0,0,.555.191h.109v.911h-.61a1.157,1.157,0,0,1-1.32-.911h-.064A2.649,2.649,0,0,1,1245,918.071Zm.282-.993a1.865,1.865,0,0,0,1.5-.683,2.722,2.722,0,0,0,.565-1.821l-1.821.355a2.5,2.5,0,0,0-1.083.392,1.027,1.027,0,0,0-.009,1.53,1.384,1.384,0,0,0,.847.228Z" transform="translate(-1230.998 -872.039)"/>
        <path id="Trazado_133274" data-name="Trazado 133274" d="M1256.666,910.94h1.2v6.638a3.569,3.569,0,0,1-6.8,1.548l1.02-.5a2.313,2.313,0,0,0,2.34,1.621,2.022,2.022,0,0,0,1.639-.683,2.936,2.936,0,0,0,.565-1.912v-1.293a2.485,2.485,0,0,1-1,1.011,3.07,3.07,0,0,1-3.715-.61,3.491,3.491,0,0,1-.911-2.486,3.446,3.446,0,0,1,.911-2.477,3.032,3.032,0,0,1,2.276-.984,2.893,2.893,0,0,1,1.466.392,2.558,2.558,0,0,1,.983,1.038Zm-2.213,5.746a2.139,2.139,0,0,0,1.612-.71,2.472,2.472,0,0,0,.665-1.712,2.447,2.447,0,0,0-.665-1.712,2.086,2.086,0,0,0-1.612-.719,2.121,2.121,0,0,0-1.612.692,2.472,2.472,0,0,0-.665,1.739,2.434,2.434,0,0,0,.674,1.73A2.116,2.116,0,0,0,1254.453,916.687Z" transform="translate(-1231.725 -872.039)"/>
        <path id="Trazado_133275" data-name="Trazado 133275" d="M1261.891,908.99a.793.793,0,0,1-.583-.246.811.811,0,0,1-.246-.592.8.8,0,0,1,.246-.583.839.839,0,0,1,1.166,0,.792.792,0,0,1,.246.583.8.8,0,0,1-.246.592A.79.79,0,0,1,1261.891,908.99Zm-.619,8.633V910.63h1.247v6.994Z" transform="translate(-1232.624 -871.728)"/>
        <path id="Trazado_133276" data-name="Trazado 133276" d="M1265.4,917.56V906.633h1.238V917.56Z" transform="translate(-1233.012 -871.665)"/>
        <path id="Trazado_133277" data-name="Trazado 133277" d="M1270.121,908.99a.793.793,0,0,1-.583-.246.811.811,0,0,1-.246-.592.8.8,0,0,1,.246-.583.839.839,0,0,1,1.166,0,.793.793,0,0,1,.246.583.8.8,0,0,1-.246.592A.79.79,0,0,1,1270.121,908.99Zm-.628,8.633V910.63h1.238v6.994Z" transform="translate(-1233.36 -871.728)"/>
        <path id="Trazado_133278" data-name="Trazado 133278" d="M1278.733,906.633h1.248V917.56h-1.193V916.2a2.564,2.564,0,0,1-.993,1.1,2.771,2.771,0,0,1-1.484.41,3.141,3.141,0,0,1-1.266-.264,2.982,2.982,0,0,1-1.038-.729,3.28,3.28,0,0,1-.71-1.156,4.2,4.2,0,0,1-.255-1.493,3.708,3.708,0,0,1,.911-2.632,3.08,3.08,0,0,1,2.322-1.011,2.786,2.786,0,0,1,1.466.4,2.6,2.6,0,0,1,.993,1.065Zm-2.2,10.017a2.119,2.119,0,0,0,1.63-.728,2.671,2.671,0,0,0,.656-1.821,2.619,2.619,0,0,0-.665-1.821,2.075,2.075,0,0,0-1.621-.738,2.135,2.135,0,0,0-1.63.71,2.941,2.941,0,0,0,0,3.724,2.131,2.131,0,0,0,1.63.665Z" transform="translate(-1233.694 -871.665)"/>
        <path id="Trazado_133279" data-name="Trazado 133279" d="M1284.962,918.071a2.386,2.386,0,0,1-1.53-.483,1.713,1.713,0,0,1-.6-1.43,2.018,2.018,0,0,1,.191-.911,1.6,1.6,0,0,1,.565-.637,3.439,3.439,0,0,1,.82-.4,9.35,9.35,0,0,1,1.065-.255l1.129-.182c.419-.073.619-.291.619-.646a1.208,1.208,0,0,0-.437-1.038,1.732,1.732,0,0,0-1.1-.337,1.825,1.825,0,0,0-1.093.319,1.324,1.324,0,0,0-.519.983l-1.111-.237a2.124,2.124,0,0,1,.91-1.493,3.224,3.224,0,0,1,1.9-.5,3.819,3.819,0,0,1,1.011.128,2.554,2.554,0,0,1,.847.392,1.719,1.719,0,0,1,.61.747,2.8,2.8,0,0,1,.219,1.156v2.887a1.254,1.254,0,0,0,.155.729.693.693,0,0,0,.555.191h.109v.911h-.61a1.156,1.156,0,0,1-1.32-.911h-.118A2.675,2.675,0,0,1,1284.962,918.071Zm.282-.993a1.865,1.865,0,0,0,1.5-.683,2.727,2.727,0,0,0,.574-1.821l-1.821.355a2.5,2.5,0,0,0-1.084.392,1.028,1.028,0,0,0-.009,1.53,1.381,1.381,0,0,0,.838.228Z" transform="translate(-1234.57 -872.039)"/>
        <path id="Trazado_133280" data-name="Trazado 133280" d="M1296.733,906.633h1.248V917.56h-1.193V916.2a2.564,2.564,0,0,1-.993,1.1,2.771,2.771,0,0,1-1.484.41,3.141,3.141,0,0,1-1.266-.264,2.981,2.981,0,0,1-1.038-.729,3.277,3.277,0,0,1-.71-1.156,4.2,4.2,0,0,1-.255-1.493,3.707,3.707,0,0,1,.911-2.632,3.079,3.079,0,0,1,2.322-1.011,2.786,2.786,0,0,1,1.466.4,2.6,2.6,0,0,1,.993,1.065Zm-2.2,10.017a2.119,2.119,0,0,0,1.63-.728,2.676,2.676,0,0,0,.656-1.821,2.623,2.623,0,0,0-.665-1.821,2.075,2.075,0,0,0-1.621-.738,2.135,2.135,0,0,0-1.63.71,2.942,2.942,0,0,0,0,3.724,2.131,2.131,0,0,0,1.63.665Z" transform="translate(-1235.303 -871.665)"/>
        <path id="Trazado_133281" data-name="Trazado 133281" d="M1235.614,928h-4.08v3.278h3.643v1.184h-3.643v3.269h4.07v1.156h-5.373V926.873h5.373Z" transform="translate(-1229.869 -873.474)"/>
        <path id="Trazado_133282" data-name="Trazado 133282" d="M1245.62,930.013a2.248,2.248,0,0,1,1.63.6,2.194,2.194,0,0,1,.619,1.667v4.863h-1.229V932.59a1.6,1.6,0,0,0-.392-1.156,1.318,1.318,0,0,0-.974-.391,1.4,1.4,0,0,0-1.066.446,1.882,1.882,0,0,0-.4,1.32v4.325h-1.257v-4.5a1.643,1.643,0,0,0-.383-1.184,1.318,1.318,0,0,0-.993-.41,1.376,1.376,0,0,0-1.065.455,1.97,1.97,0,0,0-.41,1.357v4.28h-1.229V930.14h1.229v.911a2.1,2.1,0,0,1,.8-.765,2.265,2.265,0,0,1,1.111-.273,2.353,2.353,0,0,1,1.193.3,1.814,1.814,0,0,1,.774.847,2.176,2.176,0,0,1,.847-.847A2.357,2.357,0,0,1,1245.62,930.013Z" transform="translate(-1230.605 -873.755)"/>
        <path id="Trazado_133283" data-name="Trazado 133283" d="M1254.313,937.3a3.64,3.64,0,0,1-1.821-.437,3.137,3.137,0,0,1-1.266-1.266,3.917,3.917,0,0,1-.464-1.931,3.571,3.571,0,0,1,.993-2.641,3.725,3.725,0,0,1,5.063,0,4.006,4.006,0,0,1,0,5.282A3.429,3.429,0,0,1,1254.313,937.3Zm0-1.02a2.166,2.166,0,0,0,1.657-.719,2.727,2.727,0,0,0,.656-1.894,2.667,2.667,0,0,0-.656-1.885,2.14,2.14,0,0,0-1.657-.719,2.115,2.115,0,0,0-1.639.719,2.671,2.671,0,0,0-.647,1.885,2.737,2.737,0,0,0,.647,1.894,2.148,2.148,0,0,0,1.639.692Z" transform="translate(-1231.703 -873.757)"/>
        <path id="Trazado_133284" data-name="Trazado 133284" d="M1263.468,937.3a3.342,3.342,0,0,1-2.5-1,3.585,3.585,0,0,1-.993-2.623,3.543,3.543,0,0,1,.993-2.623,3.643,3.643,0,0,1,4.553-.392,3.093,3.093,0,0,1,1.184,1.694l-1.156.191a2.093,2.093,0,0,0-2.058-1.475,2.033,2.033,0,0,0-1.612.719,3.1,3.1,0,0,0,0,3.761,2.033,2.033,0,0,0,1.612.719,2.093,2.093,0,0,0,2.058-1.475l1.156.191a3.108,3.108,0,0,1-1.184,1.7A3.417,3.417,0,0,1,1263.468,937.3Z" transform="translate(-1232.526 -873.757)"/>
        <path id="Trazado_133285" data-name="Trazado 133285" d="M1269.93,928.19a.838.838,0,0,1-.838-.838h0a.8.8,0,0,1,.246-.583.839.839,0,0,1,.592-.237.809.809,0,0,1,.574.237.792.792,0,0,1,.246.583.8.8,0,0,1-.246.592A.78.78,0,0,1,1269.93,928.19Zm-.628,8.633v-6.994h1.22v6.994Z" transform="translate(-1233.342 -873.444)"/>
        <path id="Trazado_133286" data-name="Trazado 133286" d="M1276.313,937.3a3.64,3.64,0,0,1-1.821-.437,3.12,3.12,0,0,1-1.257-1.266,3.931,3.931,0,0,1-.474-1.931,3.647,3.647,0,0,1,.993-2.641,3.725,3.725,0,0,1,5.063,0,4.006,4.006,0,0,1,0,5.282A3.412,3.412,0,0,1,1276.313,937.3Zm0-1.02a2.166,2.166,0,0,0,1.657-.719,2.727,2.727,0,0,0,.656-1.894,2.667,2.667,0,0,0-.656-1.885,2.14,2.14,0,0,0-1.657-.719,2.115,2.115,0,0,0-1.639.719,3.084,3.084,0,0,0,0,3.779,2.148,2.148,0,0,0,1.639.692Z" transform="translate(-1233.67 -873.757)"/>
        <path id="Trazado_133287" data-name="Trazado 133287" d="M1285.949,930.013a2.469,2.469,0,0,1,1.767.637,2.368,2.368,0,0,1,.656,1.821v4.708h-1.229v-4.435a1.676,1.676,0,0,0-.428-1.257,1.539,1.539,0,0,0-1.1-.41,1.69,1.69,0,0,0-1.238.483,1.922,1.922,0,0,0-.492,1.43v4.18h-1.22v-6.994h1.229v.911A2.333,2.333,0,0,1,1285.949,930.013Z" transform="translate(-1234.555 -873.755)"/>
        <path id="Trazado_133288" data-name="Trazado 133288" d="M1293.1,937.3a2.386,2.386,0,0,1-1.53-.483,1.712,1.712,0,0,1-.6-1.43,2.014,2.014,0,0,1,.191-.911,1.6,1.6,0,0,1,.564-.637,3.352,3.352,0,0,1,.829-.4,7.281,7.281,0,0,1,1.056-.246l1.138-.191c.41-.073.61-.291.61-.647a1.209,1.209,0,0,0-.437-1.038,1.732,1.732,0,0,0-1.1-.337,1.826,1.826,0,0,0-1.093.319,1.325,1.325,0,0,0-.519.983l-1.111-.228a2.124,2.124,0,0,1,.911-1.5,3.222,3.222,0,0,1,1.9-.5,3.973,3.973,0,0,1,1.02.128,2.716,2.716,0,0,1,.847.392,1.759,1.759,0,0,1,.6.747,2.8,2.8,0,0,1,.219,1.157v2.887a1.252,1.252,0,0,0,.155.728.693.693,0,0,0,.555.191h.109v.911h-.61a1.156,1.156,0,0,1-1.32-.911h-.055A2.676,2.676,0,0,1,1293.1,937.3Zm.282-.993a1.819,1.819,0,0,0,1.5-.683,2.727,2.727,0,0,0,.574-1.821l-1.821.355a2.5,2.5,0,0,0-1.093.392,1.028,1.028,0,0,0-.009,1.53,1.4,1.4,0,0,0,.883.2Z" transform="translate(-1235.297 -873.758)"/>
        <path id="Trazado_133289" data-name="Trazado 133289" d="M1299.922,936.76V925.833h1.248V936.76Z" transform="translate(-1236.097 -873.381)"/>
        <path id="Trazado_133290" data-name="Trazado 133290" d="M1235.659,947.2h-4.125v3.269h3.643v1.147h-3.643v4.417h-1.3V946.013h5.418Z" transform="translate(-1229.869 -875.185)"/>
        <path id="Trazado_133291" data-name="Trazado 133291" d="M1239.4,950.578a2.164,2.164,0,0,1,.91-.911,2.587,2.587,0,0,1,1.339-.364v1.156a2.3,2.3,0,0,0-1.621.519,2.172,2.172,0,0,0-.564,1.657v3.688h-1.229V949.33h1.2Z" transform="translate(-1230.584 -875.479)"/>
        <path id="Trazado_133292" data-name="Trazado 133292" d="M1247.874,949.349h1.229v6.975h-1.175v-.911a2.172,2.172,0,0,1-.865.783,2.643,2.643,0,0,1-1.22.273,2.449,2.449,0,0,1-1.767-.628,2.389,2.389,0,0,1-.656-1.821v-4.708h1.229v4.435a1.641,1.641,0,0,0,.437,1.248,1.476,1.476,0,0,0,1.093.419,1.708,1.708,0,0,0,1.248-.483,1.96,1.96,0,0,0,.483-1.43Z" transform="translate(-1231.047 -875.48)"/>
        <path id="Trazado_133293" data-name="Trazado 133293" d="M1254.568,956.47a3.309,3.309,0,0,1-1.885-.5,2.1,2.1,0,0,1-.911-1.439l1.075-.31a1.55,1.55,0,0,0,.574.974,1.887,1.887,0,0,0,1.147.346,2.549,2.549,0,0,0,.674-.091,1.156,1.156,0,0,0,.519-.346.989.989,0,0,0,.209-.637.943.943,0,0,0-.064-.291,1.015,1.015,0,0,0-.109-.228.569.569,0,0,0-.2-.191,2.078,2.078,0,0,0-.282-.173,1.883,1.883,0,0,0-.31-.128l-.346-.118-.392-.109-.4-.118c-.292-.091-.537-.173-.729-.255a3.4,3.4,0,0,1-.592-.337,1.36,1.36,0,0,1-.455-.556,1.894,1.894,0,0,1-.155-.783,1.827,1.827,0,0,1,.346-1.12,1.934,1.934,0,0,1,.911-.656,3.5,3.5,0,0,1,1.238-.2,3.05,3.05,0,0,1,1.7.455,1.946,1.946,0,0,1,.856,1.366l-1.011.255a1.308,1.308,0,0,0-.537-.911,1.659,1.659,0,0,0-1-.3,1.744,1.744,0,0,0-.911.246.83.83,0,0,0-.392.756.782.782,0,0,0,.1.382,1.535,1.535,0,0,0,.21.273,1.155,1.155,0,0,0,.391.209,3.221,3.221,0,0,0,.41.155l.51.128h.109l.674.191a4.929,4.929,0,0,1,.6.255,2.2,2.2,0,0,1,.546.382,1.911,1.911,0,0,1,.483,1.293,2.091,2.091,0,0,1-.209.911,1.551,1.551,0,0,1-.574.637,2.491,2.491,0,0,1-.811.355A3.765,3.765,0,0,1,1254.568,956.47Z" transform="translate(-1231.794 -875.47)"/>
        <path id="Trazado_133294" data-name="Trazado 133294" d="M1261.931,956.1a1.822,1.822,0,0,1-1.366-.5,1.886,1.886,0,0,1-.5-1.393v-4.116h-1.4V949.1h.528a1.028,1.028,0,0,0,.774-.246,1.222,1.222,0,0,0,.219-.82v-1.266h1.147V949.1h1.612v.983H1261.3v3.989a1.07,1.07,0,0,0,.264.765.913.913,0,0,0,.7.273h.647v.983Z" transform="translate(-1232.41 -875.253)"/>
        <path id="Trazado_133295" data-name="Trazado 133295" d="M1266.484,950.578a2.135,2.135,0,0,1,.865-.911,2.656,2.656,0,0,1,1.348-.364v1.156a2.322,2.322,0,0,0-1.63.519,2.167,2.167,0,0,0-.554,1.657v3.688h-1.23V949.33h1.2Z" transform="translate(-1233.001 -875.479)"/>
        <path id="Trazado_133296" data-name="Trazado 133296" d="M1272.082,956.472a2.387,2.387,0,0,1-1.53-.483,1.712,1.712,0,0,1-.6-1.43,2.09,2.09,0,0,1,.191-.911,1.589,1.589,0,0,1,.574-.628,3.123,3.123,0,0,1,.82-.4,8.431,8.431,0,0,1,1.065-.255l1.129-.182c.41-.073.619-.291.619-.647a1.208,1.208,0,0,0-.437-1.038,1.759,1.759,0,0,0-1.111-.337,1.826,1.826,0,0,0-1.093.319,1.379,1.379,0,0,0-.519.983l-1.111-.237a2.188,2.188,0,0,1,.911-1.493,3.281,3.281,0,0,1,1.912-.5,3.943,3.943,0,0,1,1.011.128,2.559,2.559,0,0,1,.847.392,1.76,1.76,0,0,1,.6.747,2.8,2.8,0,0,1,.219,1.156V954.5a1.181,1.181,0,0,0,.164.728.674.674,0,0,0,.546.191h.118v.911h-.61c-.756,0-1.2-.31-1.329-.911h-.055A2.676,2.676,0,0,1,1272.082,956.472Zm.292-.993a1.865,1.865,0,0,0,1.5-.683,2.8,2.8,0,0,0,.565-1.821l-1.821.355a2.442,2.442,0,0,0-1.083.392,1.021,1.021,0,0,0-.09,1.44,1.057,1.057,0,0,0,.09.09,1.416,1.416,0,0,0,.883.228Z" transform="translate(-1233.418 -875.472)"/>
        <path id="Trazado_133297" data-name="Trazado 133297" d="M1281.6,956.46a3.342,3.342,0,0,1-2.5-1,3.972,3.972,0,0,1,0-5.245,3.621,3.621,0,0,1,4.535-.392,3.028,3.028,0,0,1,1.175,1.694l-1.147.191a2.137,2.137,0,0,0-.792-1.093,2.171,2.171,0,0,0-1.266-.382,2.072,2.072,0,0,0-1.621.719,3.1,3.1,0,0,0,0,3.761,2.066,2.066,0,0,0,1.621.719,2.171,2.171,0,0,0,1.266-.383,2.137,2.137,0,0,0,.792-1.093l1.147.191a3.067,3.067,0,0,1-1.183,1.7A3.377,3.377,0,0,1,1281.6,956.46Z" transform="translate(-1234.148 -875.47)"/>
        <path id="Trazado_133298" data-name="Trazado 133298" d="M1288.051,947.39a.793.793,0,0,1-.583-.246.811.811,0,0,1-.246-.592.8.8,0,0,1,.246-.583.839.839,0,0,1,1.166,0,.792.792,0,0,1,.246.583.8.8,0,0,1-.246.592A.79.79,0,0,1,1288.051,947.39Zm-.628,8.633V949.03h1.238V956Z" transform="translate(-1234.962 -875.16)"/>
        <path id="Trazado_133299" data-name="Trazado 133299" d="M1294.443,956.141a3.64,3.64,0,0,1-1.821-.437,3.137,3.137,0,0,1-1.266-1.266,3.918,3.918,0,0,1-.464-1.931,3.571,3.571,0,0,1,.993-2.641,3.725,3.725,0,0,1,5.063,0,3.64,3.64,0,0,1,.983,2.641,3.555,3.555,0,0,1-.993,2.641A3.393,3.393,0,0,1,1294.443,956.141Zm0-1.02a2.181,2.181,0,0,0,1.657-.719,2.728,2.728,0,0,0,.656-1.894,2.668,2.668,0,0,0-.656-1.885,2.148,2.148,0,0,0-1.657-.719,2.116,2.116,0,0,0-1.639.719,2.676,2.676,0,0,0-.656,1.885,2.737,2.737,0,0,0,.656,1.894,2.152,2.152,0,0,0,1.63.719Zm-.464-7.285,1.821-2.313.656.474-1.594,1.821Z" transform="translate(-1235.29 -875.141)"/>
        <path id="Trazado_133300" data-name="Trazado 133300" d="M1304.074,949.2a2.449,2.449,0,0,1,1.758.637,2.368,2.368,0,0,1,.656,1.821v4.653h-1.266V951.88a1.665,1.665,0,0,0-.427-1.248,1.507,1.507,0,0,0-1.094-.41,1.715,1.715,0,0,0-1.248.483,1.99,1.99,0,0,0-.491,1.43v4.18h-1.229v-6.994h1.229v.911A2.331,2.331,0,0,1,1304.074,949.2Z" transform="translate(-1236.17 -875.469)"/>
      </g>
      <g id="Grupo_63629" data-name="Grupo 63629" transform="translate(34.922 106.16)">
        <path id="Trazado_133301" data-name="Trazado 133301" d="M1109.072,835.123a3.1,3.1,0,0,1,2.368.911,3.354,3.354,0,0,1,.911,2.368,3.194,3.194,0,0,1-.911,2.349,3.12,3.12,0,0,1-2.368.911h-2.149V845.3h-2.131V835.123Zm-.364,4.808a1.531,1.531,0,0,0,1.175-.4,1.5,1.5,0,0,0,.392-1.111,1.528,1.528,0,0,0-.392-1.1,1.554,1.554,0,0,0-1.175-.41h-1.821v3.023Z" transform="translate(-1104.792 -834.64)"/>
        <path id="Trazado_133302" data-name="Trazado 133302" d="M1117.819,845.831a4.688,4.688,0,0,1-2.067-.446,3.375,3.375,0,0,1-1.421-1.32,3.887,3.887,0,0,1-.519-2.04,3.645,3.645,0,0,1,1.111-2.732,4.635,4.635,0,0,1,5.8,0,4.042,4.042,0,0,1,0,5.564A4.115,4.115,0,0,1,1117.819,845.831Zm0-1.63a1.884,1.884,0,0,0,1.448-.6,2.218,2.218,0,0,0,.546-1.575,2.265,2.265,0,0,0-.546-1.584,1.912,1.912,0,0,0-1.448-.592,1.821,1.821,0,0,0-1.4.6,2.542,2.542,0,0,0,0,3.151,1.821,1.821,0,0,0,1.384.6Z" transform="translate(-1105.598 -834.922)"/>
        <path id="Trazado_133303" data-name="Trazado 133303" d="M1126.81,845.826a4.159,4.159,0,0,1-2.14-.51,2.189,2.189,0,0,1-1.038-1.53l1.712-.483a1.375,1.375,0,0,0,1.466,1.093,1.44,1.44,0,0,0,.747-.173.573.573,0,0,0,.291-.565.623.623,0,0,0-.118-.373,1.132,1.132,0,0,0-.373-.273l-.5-.191-.656-.191a6.769,6.769,0,0,1-.674-.209,4.325,4.325,0,0,1-.647-.273,2.459,2.459,0,0,1-.528-.373,1.533,1.533,0,0,1-.4-.574,2.107,2.107,0,0,1-.137-.783,1.876,1.876,0,0,1,.792-1.639,3.6,3.6,0,0,1,2.076-.555,3.637,3.637,0,0,1,1.912.473,2.11,2.11,0,0,1,.983,1.466l-1.594.355a1.228,1.228,0,0,0-1.293-.911,1.4,1.4,0,0,0-.719.164.54.54,0,0,0-.292.492.587.587,0,0,0,0,.219.442.442,0,0,0,.146.173l.209.137a1.369,1.369,0,0,0,.291.118,2.634,2.634,0,0,0,.319.091l.373.1.382.1c.264.073.492.137.692.209a4.865,4.865,0,0,1,.629.3,2.439,2.439,0,0,1,.546.428,2.128,2.128,0,0,1,.364.61,2.256,2.256,0,0,1,.136.81,2.177,2.177,0,0,1-.245,1.056,1.83,1.83,0,0,1-.674.719,3.257,3.257,0,0,1-.911.382A4.968,4.968,0,0,1,1126.81,845.826Z" transform="translate(-1106.476 -834.917)"/>
        <path id="Trazado_133304" data-name="Trazado 133304" d="M1133.075,836.952a1.18,1.18,0,0,1-.869-1.982l.031-.031a1.168,1.168,0,0,1,.838-.346,1.184,1.184,0,0,1,0,2.359Zm-1.047,8.405v-7.285h2.067v7.285Z" transform="translate(-1107.213 -834.593)"/>
        <path id="Trazado_133305" data-name="Trazado 133305" d="M1139.3,845.464a2.2,2.2,0,0,1-1.657-.592,2.336,2.336,0,0,1-.583-1.694v-3.451h-1.439v-1.575h.464a1.2,1.2,0,0,0,.911-.3,1.572,1.572,0,0,0,.292-1.093v-.965h1.821v2.358h1.512v1.575h-1.512v3.233c0,.637.282.911.847.911h.665v1.557Z" transform="translate(-1107.548 -834.7)"/>
        <path id="Trazado_133306" data-name="Trazado 133306" d="M1143.886,836.952a1.147,1.147,0,0,1-.838-.346,1.116,1.116,0,0,1-.346-.838,1.141,1.141,0,0,1,.346-.829,1.176,1.176,0,0,1,.838-.346,1.155,1.155,0,0,1,.829.346,1.174,1.174,0,0,1,.005,1.661l-.005.005A1.155,1.155,0,0,1,1143.886,836.952Zm-1.047,8.405v-7.285h2.067v7.285Z" transform="translate(-1108.18 -834.593)"/>
        <path id="Trazado_133307" data-name="Trazado 133307" d="M1152.088,838.383h2.176l-3.123,7.285h-1.821l-3.078-7.285h2.2l1.821,5Z" transform="translate(-1108.497 -834.932)"/>
        <path id="Trazado_133308" data-name="Trazado 133308" d="M1159.268,845.831a4.7,4.7,0,0,1-2.076-.446,3.31,3.31,0,0,1-1.411-1.32,3.885,3.885,0,0,1-.519-2.04,3.561,3.561,0,0,1,1.111-2.732,4.617,4.617,0,0,1,5.792,0,4.041,4.041,0,0,1,0,5.564A4.086,4.086,0,0,1,1159.268,845.831Zm0-1.63a1.819,1.819,0,0,0,1.448-.6,2.191,2.191,0,0,0,.556-1.575,2.229,2.229,0,0,0-.556-1.584,1.885,1.885,0,0,0-1.448-.583,1.821,1.821,0,0,0-1.4.6,2.542,2.542,0,0,0,0,3.151A1.821,1.821,0,0,0,1159.268,844.2Z" transform="translate(-1109.303 -834.922)"/>
      </g>
      <g id="Grupo_63630" data-name="Grupo 63630" transform="translate(148.886 106.16)">
        <path id="Trazado_133309" data-name="Trazado 133309" d="M1236.972,835.123h2.122V845.4h-2.468l-4.553-7.349V845.4h-2.131V835.123h2.477l4.553,7.285Z" transform="translate(-1229.942 -834.641)"/>
        <path id="Trazado_133310" data-name="Trazado 133310" d="M1249.417,841.918v.492h-5.464a1.88,1.88,0,0,0,.583,1.339,1.985,1.985,0,0,0,2.249.209,1.584,1.584,0,0,0,.619-.738l1.876.273a3.232,3.232,0,0,1-1.284,1.721,3.841,3.841,0,0,1-2.158.61,3.952,3.952,0,0,1-2.85-1.011,3.644,3.644,0,0,1-1.056-2.786,3.729,3.729,0,0,1,1.056-2.8,3.855,3.855,0,0,1,2.786-1.02,3.342,3.342,0,0,1,3.649,3,3.292,3.292,0,0,1-.006.7Zm-3.642-2.258a1.621,1.621,0,0,0-1.776,1.411h3.36a1.532,1.532,0,0,0-.51-1.047,1.612,1.612,0,0,0-1.038-.364Z" transform="translate(-1231.013 -834.915)"/>
        <path id="Trazado_133311" data-name="Trazado 133311" d="M1256.843,838.366h1.949v6.766a5.445,5.445,0,0,1-.273,1.821,2.934,2.934,0,0,1-.792,1.248,3.318,3.318,0,0,1-1.22.7,5.025,5.025,0,0,1-1.594.228q-2.894,0-3.77-2.267l1.7-.729a2.473,2.473,0,0,0,.783,1.065,2.013,2.013,0,0,0,1.2.337c1.266,0,1.9-.747,1.9-2.258V844.4a2.3,2.3,0,0,1-.911.719,3.085,3.085,0,0,1-1.3.273,3.255,3.255,0,0,1-1.284-.255,3.42,3.42,0,0,1-1.065-.728,3.475,3.475,0,0,1-.719-1.147,4.31,4.31,0,0,1,0-2.969,3.286,3.286,0,0,1,.729-1.129,3.056,3.056,0,0,1,1.065-.71,3.256,3.256,0,0,1,1.293-.264,3,3,0,0,1,1.357.31,2.1,2.1,0,0,1,.911.8ZM1253.7,843.2a1.766,1.766,0,0,0,1.339.565,1.821,1.821,0,0,0,1.348-.565,2.048,2.048,0,0,0,0-2.786,1.9,1.9,0,0,0-2.691-.041l-.041.041a1.952,1.952,0,0,0-.537,1.4,1.918,1.918,0,0,0,.583,1.384Z" transform="translate(-1231.837 -834.915)"/>
        <path id="Trazado_133312" data-name="Trazado 133312" d="M1267.821,843.7a6.881,6.881,0,0,0,.173,1.821v.2h-1.912l-.164-.792a2.349,2.349,0,0,1-1.02.7,3.845,3.845,0,0,1-1.329.237,3.311,3.311,0,0,1-.683-.064,2.431,2.431,0,0,1-.61-.219,1.834,1.834,0,0,1-.51-.382,1.568,1.568,0,0,1-.337-.574,2.4,2.4,0,0,1,0-1.594,2.029,2.029,0,0,1,.355-.592,2.3,2.3,0,0,1,.584-.437,4.575,4.575,0,0,1,.719-.31,8.449,8.449,0,0,1,.911-.228l1.2-.273a1.191,1.191,0,0,0,.537-.228.458.458,0,0,0,.164-.364.776.776,0,0,0-.356-.71,1.817,1.817,0,0,0-.911-.209,1.256,1.256,0,0,0-1.422,1.065c0,.018-.005.037-.007.055l-1.821-.328a2.462,2.462,0,0,1,1.056-1.676,4.237,4.237,0,0,1,2.295-.537q3.079,0,3.078,2.641Zm-3.643.747a1.647,1.647,0,0,0,1.266-.537,2.21,2.21,0,0,0,.492-1.566l-1.739.492a1.952,1.952,0,0,0-.729.3.623.623,0,0,0-.255.528.677.677,0,0,0,.273.574,1.123,1.123,0,0,0,.728.173Z" transform="translate(-1232.744 -834.921)"/>
        <path id="Trazado_133313" data-name="Trazado 133313" d="M1273.172,845.464a2.177,2.177,0,0,1-1.648-.592,2.3,2.3,0,0,1-.583-1.694v-3.451H1269.5v-1.575h.464a1.226,1.226,0,0,0,.911-.3,1.616,1.616,0,0,0,.291-1.093v-.965h1.821v2.358h1.5v1.575h-1.475v3.233c0,.637.282.911.847.911h.656v1.557Z" transform="translate(-1233.478 -834.701)"/>
        <path id="Trazado_133314" data-name="Trazado 133314" d="M1277.786,836.952a1.164,1.164,0,0,1-.838-.346,1.147,1.147,0,0,1-.346-.838,1.123,1.123,0,0,1,.355-.829,1.167,1.167,0,0,1,1.649-.009l.008.009a1.174,1.174,0,0,1,.005,1.661l-.005.005A1.135,1.135,0,0,1,1277.786,836.952Zm-1.038,8.405v-7.285h2.058v7.285Z" transform="translate(-1234.112 -834.593)"/>
        <path id="Trazado_133315" data-name="Trazado 133315" d="M1286.008,838.383h2.167l-3.114,7.285h-1.821l-3.078-7.285h2.158l1.821,5Z" transform="translate(-1234.431 -834.932)"/>
        <path id="Trazado_133316" data-name="Trazado 133316" d="M1293.169,845.831a4.688,4.688,0,0,1-2.067-.446,3.375,3.375,0,0,1-1.421-1.32,3.886,3.886,0,0,1-.519-2.04,3.646,3.646,0,0,1,1.111-2.732,4.635,4.635,0,0,1,5.8,0,4.042,4.042,0,0,1,0,5.564A4.115,4.115,0,0,1,1293.169,845.831Zm0-1.63a1.884,1.884,0,0,0,1.448-.6,2.218,2.218,0,0,0,.546-1.575,2.265,2.265,0,0,0-.546-1.584,1.912,1.912,0,0,0-1.448-.592,1.824,1.824,0,0,0-1.411.6,2.577,2.577,0,0,0,0,3.151,1.823,1.823,0,0,0,1.393.6Z" transform="translate(-1235.235 -834.922)"/>
      </g>
    </g>
  </g>
</svg>
