<svg xmlns="http://www.w3.org/2000/svg" width="294.804" height="374.622" viewBox="0 0 294.804 374.622">
  <g id="Grupo_63621" data-name="Grupo 63621" transform="translate(-460.732 -691.042)">
    <rect id="Rect치ngulo_7969" data-name="Rect치ngulo 7969" width="294.804" height="374.622" rx="20.609" transform="translate(460.732 691.042)" fill="#f2f2f2"/>
    <g id="Grupo_63620" data-name="Grupo 63620" transform="translate(479.836 737.762)">
      <rect id="Rect치ngulo_7970" data-name="Rect치ngulo 7970" width="256.595" height="273.587" fill="#f2f2f2"/>
      <g id="Grupo_63615" data-name="Grupo 63615" transform="translate(32.673 49.476)">
        <path id="Trazado_133113" data-name="Trazado 133113" d="M530.514,822.352l-6.374-10.745h-1.475v10.745h-5.072V797.938h8.86a10.281,10.281,0,0,1,3.542.565,6.1,6.1,0,0,1,2.459,1.575,6.61,6.61,0,0,1,1.384,2.3,8.456,8.456,0,0,1,.464,2.859,5.933,5.933,0,0,1-1.33,4.007,6.676,6.676,0,0,1-3.834,2.1l7.349,11Zm-7.822-20.207v5.828h2.987q3.805,0,3.806-2.9a2.659,2.659,0,0,0-.911-2.149,4.466,4.466,0,0,0-2.878-.774Z" transform="translate(-517.592 -796.792)"/>
        <path id="Trazado_133114" data-name="Trazado 133114" d="M548.567,823.347a10.937,10.937,0,0,1-4.917-1.065,7.915,7.915,0,0,1-3.369-3.123,9.275,9.275,0,0,1-1.229-4.844,8.5,8.5,0,0,1,2.641-6.593,11.027,11.027,0,0,1,13.769,0,9.573,9.573,0,0,1,0,13.2A9.758,9.758,0,0,1,548.567,823.347Zm-.046-3.87a4.483,4.483,0,0,0,3.433-1.384,6.02,6.02,0,0,0,0-7.5,4.461,4.461,0,0,0-3.433-1.421,4.285,4.285,0,0,0-3.342,1.43,6.064,6.064,0,0,0,0,7.485,4.318,4.318,0,0,0,3.342,1.393Z" transform="translate(-519.509 -797.451)"/>
        <path id="Trazado_133115" data-name="Trazado 133115" d="M560.042,830.389v-3.806a5.533,5.533,0,0,0,1.821-.246,2.057,2.057,0,0,0,1.084-.911,3.947,3.947,0,0,0,.519-1.5,17.209,17.209,0,0,0,.128-2.322V804.874h4.926v16.774q0,4.553-1.976,6.638C565.233,829.688,563.056,830.389,560.042,830.389Zm6.047-28.12a2.814,2.814,0,0,1-2.823-2.8h0a2.664,2.664,0,0,1,.838-1.967,2.795,2.795,0,1,1,3.952,3.952A2.735,2.735,0,0,1,566.089,802.269Z" transform="translate(-521.386 -796.68)"/>
        <path id="Trazado_133116" data-name="Trazado 133116" d="M582.857,823.347a10.937,10.937,0,0,1-4.917-1.065,7.914,7.914,0,0,1-3.369-3.123,9.273,9.273,0,0,1-1.229-4.844,8.5,8.5,0,0,1,2.641-6.593,11.027,11.027,0,0,1,13.769,0,9.573,9.573,0,0,1,0,13.2A9.758,9.758,0,0,1,582.857,823.347Zm-.055-3.87a4.49,4.49,0,0,0,3.442-1.384,6.021,6.021,0,0,0,0-7.5,4.463,4.463,0,0,0-3.442-1.421,4.285,4.285,0,0,0-3.333,1.43,6.064,6.064,0,0,0,0,7.485A4.307,4.307,0,0,0,582.8,819.477Z" transform="translate(-522.574 -797.451)"/>
      </g>
      <g id="Grupo_63616" data-name="Grupo 63616" transform="translate(34.021 137.213)">
        <path id="Trazado_133117" data-name="Trazado 133117" d="M525.7,894.738h-4.061v3.278h3.579v1.138h-3.579v3.324H525.7v1.156h-5.364V893.618H525.7Z" transform="translate(-519.185 -893.081)"/>
        <path id="Trazado_133118" data-name="Trazado 133118" d="M531.858,896.738a2.448,2.448,0,0,1,1.758.637,2.366,2.366,0,0,1,.656,1.821V903.9h-1.229V899.47a1.633,1.633,0,0,0-.428-1.248,1.5,1.5,0,0,0-1.093-.41,1.708,1.708,0,0,0-1.247.483,1.991,1.991,0,0,0-.492,1.43v4.18h-1.229v-6.994h1.257v.911A2.329,2.329,0,0,1,531.858,896.738Z" transform="translate(-519.919 -893.359)"/>
        <path id="Trazado_133119" data-name="Trazado 133119" d="M543.511,900.235v.337h-5.464a2.451,2.451,0,0,0,.665,1.821,2.19,2.19,0,0,0,1.594.628,2.126,2.126,0,0,0,1.156-.337,2.167,2.167,0,0,0,.8-.911l1.111.237a3.177,3.177,0,0,1-1.2,1.5,3.235,3.235,0,0,1-1.821.546,3.4,3.4,0,0,1-2.513-1.029,4.178,4.178,0,0,1,0-5.318,3.364,3.364,0,0,1,2.486-.974,3.151,3.151,0,0,1,2.349.911A3.535,3.535,0,0,1,543.511,900.235Zm-3.233-2.55a2.147,2.147,0,0,0-1.457.5,2.263,2.263,0,0,0-.738,1.439h4.189a2.049,2.049,0,0,0-.61-1.439,1.947,1.947,0,0,0-1.384-.5Z" transform="translate(-520.664 -893.359)"/>
        <path id="Trazado_133120" data-name="Trazado 133120" d="M547.484,898.113a2.131,2.131,0,0,1,.865-.911,2.617,2.617,0,0,1,1.348-.364v1.156a2.319,2.319,0,0,0-1.63.519,2.163,2.163,0,0,0-.555,1.657V903.9h-1.229v-6.994h1.2Z" transform="translate(-521.504 -893.369)"/>
        <path id="Trazado_133121" data-name="Trazado 133121" d="M556.523,896.875h1.2v6.638a3.8,3.8,0,0,1-.911,2.732,3.752,3.752,0,0,1-5.892-1.184l1.011-.5a2.322,2.322,0,0,0,2.34,1.621,2.033,2.033,0,0,0,1.648-.683,2.947,2.947,0,0,0,.565-1.912v-1.293a2.49,2.49,0,0,1-1,1.011,3.069,3.069,0,0,1-3.715-.61,3.75,3.75,0,0,1,0-4.963,3.03,3.03,0,0,1,2.277-.984,2.92,2.92,0,0,1,1.466.392,2.56,2.56,0,0,1,.984,1.038Zm-2.213,5.746a2.142,2.142,0,0,0,1.612-.71,2.541,2.541,0,0,0,0-3.424,2.195,2.195,0,0,0-3.1-.123c-.043.039-.083.08-.122.123a2.425,2.425,0,0,0-.665,1.739,2.459,2.459,0,0,0,.665,1.73,2.152,2.152,0,0,0,1.612.665Z" transform="translate(-521.911 -893.36)"/>
        <path id="Trazado_133122" data-name="Trazado 133122" d="M561.152,903.537v-6.994h1.239v6.994Zm.155-8.2,1.821-2.313.656.473-1.594,1.821Z" transform="translate(-522.833 -893.028)"/>
        <path id="Trazado_133123" data-name="Trazado 133123" d="M566.821,904.006a2.366,2.366,0,0,1-1.53-.483,1.691,1.691,0,0,1-.61-1.43,1.993,1.993,0,0,1,.2-.911,1.5,1.5,0,0,1,.565-.637,3.419,3.419,0,0,1,.82-.4,9.06,9.06,0,0,1,1.065-.255l1.129-.182c.419-.073.619-.291.619-.646a1.213,1.213,0,0,0-.437-1.038,1.73,1.73,0,0,0-1.1-.337,1.872,1.872,0,0,0-1.1.319,1.371,1.371,0,0,0-.519.984l-1.1-.237a2.12,2.12,0,0,1,.911-1.493,3.221,3.221,0,0,1,1.9-.5,3.831,3.831,0,0,1,1.011.127,2.573,2.573,0,0,1,.847.392,1.727,1.727,0,0,1,.61.747,2.827,2.827,0,0,1,.219,1.156v2.887a1.179,1.179,0,0,0,.155.729.692.692,0,0,0,.555.191h.109v.911h-.61a1.156,1.156,0,0,1-1.32-.911h-.064A2.651,2.651,0,0,1,566.821,904.006Zm.282-.993a1.87,1.87,0,0,0,1.5-.683,2.736,2.736,0,0,0,.565-1.821l-1.821.355a2.477,2.477,0,0,0-1.084.392,1.028,1.028,0,0,0-.009,1.53A1.369,1.369,0,0,0,567.1,903.013Z" transform="translate(-523.148 -893.361)"/>
        <path id="Trazado_133124" data-name="Trazado 133124" d="M525.7,913.934h-4.061v3.278h3.579v1.147h-3.579v3.269H525.7v1.156h-5.364V912.768H525.7Z" transform="translate(-519.185 -894.792)"/>
        <path id="Trazado_133125" data-name="Trazado 133125" d="M527.472,923.082l2.686-3.5-2.686-3.5h1.512l1.94,2.677,1.931-2.677h1.493l-2.732,3.5,2.732,3.5h-1.5l-1.921-2.659-1.94,2.659Z" transform="translate(-519.823 -895.089)"/>
        <path id="Trazado_133126" data-name="Trazado 133126" d="M539.229,923.2a3.342,3.342,0,0,1-2.5-1,3.97,3.97,0,0,1,0-5.245,3.348,3.348,0,0,1,2.513-1.011,3.388,3.388,0,0,1,2.022.619,3.032,3.032,0,0,1,1.175,1.694l-1.147.191a2.1,2.1,0,0,0-2.058-1.475,2.063,2.063,0,0,0-1.621.719,3.106,3.106,0,0,0,0,3.77,2.185,2.185,0,0,0,3.679-.765l1.147.191a3.029,3.029,0,0,1-1.184,1.7A3.383,3.383,0,0,1,539.229,923.2Z" transform="translate(-520.561 -895.076)"/>
        <path id="Trazado_133127" data-name="Trazado 133127" d="M545.681,914.125a.793.793,0,0,1-.583-.246.807.807,0,0,1-.246-.592.79.79,0,0,1,.246-.583.837.837,0,0,1,1.166,0,.793.793,0,0,1,.246.583.814.814,0,0,1-.246.592A.8.8,0,0,1,545.681,914.125Zm-.619,8.633v-6.994h1.229v6.994Z" transform="translate(-521.376 -894.766)"/>
        <path id="Trazado_133128" data-name="Trazado 133128" d="M551.318,922.853a1.822,1.822,0,0,1-1.366-.5,1.884,1.884,0,0,1-.5-1.393v-4.116h-1.43v-.983h.528a1.034,1.034,0,0,0,.774-.246,1.232,1.232,0,0,0,.219-.82v-1.266h1.129v2.331h1.612v.983h-1.612v3.988a1.062,1.062,0,0,0,.264.765.913.913,0,0,0,.7.273h.647v.983Z" transform="translate(-521.66 -894.86)"/>
        <path id="Trazado_133129" data-name="Trazado 133129" d="M556.142,923.208a2.315,2.315,0,0,1-1.53-.483,1.681,1.681,0,0,1-.6-1.43,1.991,1.991,0,0,1,.191-.911,1.507,1.507,0,0,1,.565-.637,3.424,3.424,0,0,1,.82-.4,7.617,7.617,0,0,1,1.065-.246l1.129-.191c.419-.073.619-.291.619-.647a1.213,1.213,0,0,0-.437-1.038,1.73,1.73,0,0,0-1.1-.337,1.872,1.872,0,0,0-1.1.337,1.371,1.371,0,0,0-.519.983l-1.1-.228a2.116,2.116,0,0,1,.911-1.5,3.221,3.221,0,0,1,1.9-.5,3.829,3.829,0,0,1,1.011.127,2.574,2.574,0,0,1,.847.392,1.728,1.728,0,0,1,.61.747,2.827,2.827,0,0,1,.219,1.156v2.887a1.179,1.179,0,0,0,.155.728.692.692,0,0,0,.555.191h.109v.911h-.61a1.156,1.156,0,0,1-1.32-.911h-.064A2.654,2.654,0,0,1,556.142,923.208Zm.282-.993a1.867,1.867,0,0,0,1.5-.683,2.735,2.735,0,0,0,.565-1.821l-1.821.355a2.476,2.476,0,0,0-1.084.392,1.027,1.027,0,0,0-.009,1.53,1.369,1.369,0,0,0,.847.228Z" transform="translate(-522.194 -895.079)"/>
        <path id="Trazado_133130" data-name="Trazado 133130" d="M565.649,923.2a3.342,3.342,0,0,1-2.5-1,3.96,3.96,0,0,1,0-5.245,3.329,3.329,0,0,1,2.5-1.011,3.388,3.388,0,0,1,2.022.619,3.1,3.1,0,0,1,1.184,1.694l-1.156.191a2.1,2.1,0,0,0-2.058-1.475,2.063,2.063,0,0,0-1.621.719,3.142,3.142,0,0,0,0,3.77,2.185,2.185,0,0,0,3.679-.765l1.156.191a3.093,3.093,0,0,1-1.193,1.7A3.387,3.387,0,0,1,565.649,923.2Z" transform="translate(-522.922 -895.076)"/>
        <path id="Trazado_133131" data-name="Trazado 133131" d="M572.1,914.125a.794.794,0,0,1-.583-.246.808.808,0,0,1-.246-.592.79.79,0,0,1,.246-.583.837.837,0,0,1,1.166,0,.793.793,0,0,1,.246.583.815.815,0,0,1-.246.592A.8.8,0,0,1,572.1,914.125Zm-.619,8.633v-6.994h1.238v6.994Z" transform="translate(-523.738 -894.766)"/>
        <path id="Trazado_133132" data-name="Trazado 133132" d="M578.493,922.876a3.647,3.647,0,0,1-1.821-.437,3.109,3.109,0,0,1-1.257-1.266,3.813,3.813,0,0,1-.473-1.93,3.639,3.639,0,0,1,.992-2.641,3.723,3.723,0,0,1,5.063,0,4.008,4.008,0,0,1,0,5.282A3.415,3.415,0,0,1,578.493,922.876Zm0-1.02a2.171,2.171,0,0,0,1.657-.719,2.737,2.737,0,0,0,.656-1.894,2.675,2.675,0,0,0-.656-1.885,2.142,2.142,0,0,0-1.657-.719,2.11,2.11,0,0,0-1.639.719,3.084,3.084,0,0,0,0,3.779,2.148,2.148,0,0,0,1.63.719Zm-.455-7.285,1.821-2.313.656.474-1.594,1.821Z" transform="translate(-524.065 -894.747)"/>
        <path id="Trazado_133133" data-name="Trazado 133133" d="M588.128,915.938a2.432,2.432,0,0,1,1.757.637,2.333,2.333,0,0,1,.665,1.821V923.1h-1.229v-4.426a1.675,1.675,0,0,0-.428-1.257,1.54,1.54,0,0,0-1.1-.41,1.683,1.683,0,0,0-1.238.483,1.918,1.918,0,0,0-.492,1.43v4.18h-1.229v-6.994h1.229v.911A2.32,2.32,0,0,1,588.128,915.938Z" transform="translate(-524.95 -895.075)"/>
        <path id="Trazado_133134" data-name="Trazado 133134" d="M524.12,931.968a2.9,2.9,0,0,1,1.566.419,2.818,2.818,0,0,1,1.056,1.111,3.267,3.267,0,0,1,.364,1.548,3.017,3.017,0,0,1-.829,2.176,2.857,2.857,0,0,1-2.158.911H521.6v3.888h-1.266V932Zm-.182,5.018a1.825,1.825,0,0,0,1.393-.537,2.252,2.252,0,0,0,0-2.832,1.82,1.82,0,0,0-1.393-.546H521.6v3.916Z" transform="translate(-519.185 -896.508)"/>
        <path id="Trazado_133135" data-name="Trazado 133135" d="M530.721,942.406a2.415,2.415,0,0,1-1.539-.483,1.711,1.711,0,0,1-.6-1.43,1.879,1.879,0,0,1,.2-.911,1.505,1.505,0,0,1,.565-.637,3.421,3.421,0,0,1,.82-.4,9.053,9.053,0,0,1,1.065-.255l1.129-.182c.419-.073.619-.291.619-.647a1.213,1.213,0,0,0-.437-1.038,1.73,1.73,0,0,0-1.1-.337,1.872,1.872,0,0,0-1.1.319,1.371,1.371,0,0,0-.519.983l-1.1-.237a2.12,2.12,0,0,1,.911-1.493,3.221,3.221,0,0,1,1.9-.5,3.816,3.816,0,0,1,1.011.173,2.571,2.571,0,0,1,.847.392,1.728,1.728,0,0,1,.61.747,2.825,2.825,0,0,1,.219,1.156v2.887a1.18,1.18,0,0,0,.155.729.692.692,0,0,0,.555.191h.109v.911h-.61a1.156,1.156,0,0,1-1.32-.911h-.064A2.651,2.651,0,0,1,530.721,942.406Zm.282-.993a1.868,1.868,0,0,0,1.5-.683,2.735,2.735,0,0,0,.565-1.821l-1.821.355a2.474,2.474,0,0,0-1.084.392,1.01,1.01,0,0,0-.009,1.53,1.362,1.362,0,0,0,.874.228Z" transform="translate(-519.922 -896.793)"/>
        <path id="Trazado_133136" data-name="Trazado 133136" d="M539.728,942.406a3.308,3.308,0,0,1-1.885-.5,2.077,2.077,0,0,1-.911-1.439l1.075-.31a1.473,1.473,0,0,0,.574.974,1.823,1.823,0,0,0,1.147.346,2.6,2.6,0,0,0,.674-.091,1.107,1.107,0,0,0,.51-.346.912.912,0,0,0,.209-.637,1.431,1.431,0,0,0-.055-.291,1.1,1.1,0,0,0-.118-.228.511.511,0,0,0-.2-.191,2,2,0,0,0-.237-.155l-.319-.128-.337-.118-.392-.109-.4-.118a7.271,7.271,0,0,1-.729-.255,3.068,3.068,0,0,1-.592-.337,1.351,1.351,0,0,1-.455-.555,1.732,1.732,0,0,1-.155-.783,1.811,1.811,0,0,1,.337-1.12,1.95,1.95,0,0,1,.911-.656,3.454,3.454,0,0,1,1.238-.2,3.053,3.053,0,0,1,1.7.455,1.912,1.912,0,0,1,.847,1.366l-1.011.255a1.333,1.333,0,0,0-.528-.911,1.815,1.815,0,0,0-1.912-.055.826.826,0,0,0-.392.756.692.692,0,0,0,.1.382.97.97,0,0,0,.209.273,1.18,1.18,0,0,0,.382.209,3.415,3.415,0,0,0,.41.155l.519.128h.1l.674.191a5.581,5.581,0,0,1,.61.255,1.994,1.994,0,0,1,.537.382,1.817,1.817,0,0,1,.346.537,2.044,2.044,0,0,1,.146.756,2.117,2.117,0,0,1-.209.911,1.709,1.709,0,0,1-.574.637,2.554,2.554,0,0,1-.82.355A3.755,3.755,0,0,1,539.728,942.406Z" transform="translate(-520.668 -896.793)"/>
        <path id="Trazado_133137" data-name="Trazado 133137" d="M545.56,933.325a.837.837,0,0,1-.838-.838h0a.79.79,0,0,1,.246-.583.834.834,0,0,1,.592-.237.824.824,0,0,1,.574,1.411A.778.778,0,0,1,545.56,933.325Zm-.628,8.633v-6.994h1.238v6.994Z" transform="translate(-521.365 -896.482)"/>
        <path id="Trazado_133138" data-name="Trazado 133138" d="M551.946,942.076a3.645,3.645,0,0,1-1.821-.437,3.076,3.076,0,0,1-1.238-1.266,3.9,3.9,0,0,1-.464-1.931,3.563,3.563,0,0,1,.993-2.641,3.431,3.431,0,0,1,2.522-.993,3.472,3.472,0,0,1,2.541.993,3.645,3.645,0,0,1,.983,2.641,3.564,3.564,0,0,1-.993,2.641A3.409,3.409,0,0,1,551.946,942.076Zm0-1.02a2.169,2.169,0,0,0,1.648-.719,2.736,2.736,0,0,0,.665-1.894,2.678,2.678,0,0,0-.665-1.885,2.13,2.13,0,0,0-1.648-.719,2.081,2.081,0,0,0-1.639.719,2.667,2.667,0,0,0-.656,1.885,2.729,2.729,0,0,0,.656,1.894,2.12,2.12,0,0,0,1.639.719Zm-.464-7.285,1.821-2.313.656.474-1.594,1.821Z" transform="translate(-521.695 -896.463)"/>
        <path id="Trazado_133139" data-name="Trazado 133139" d="M561.608,935.138a2.467,2.467,0,0,1,1.767.637,2.366,2.366,0,0,1,.656,1.821V942.3H562.8V937.87a1.669,1.669,0,0,0-.428-1.248,1.5,1.5,0,0,0-1.093-.41,1.693,1.693,0,0,0-1.248.483,1.955,1.955,0,0,0-.492,1.43v4.18h-1.229v-6.994h1.229v.911A2.331,2.331,0,0,1,561.608,935.138Z" transform="translate(-522.579 -896.792)"/>
        <path id="Trazado_133140" data-name="Trazado 133140" d="M524.552,961.338a5.4,5.4,0,0,1-1.976-.355,5.121,5.121,0,0,1-1.584-1.011,4.547,4.547,0,0,1-1.047-1.63,6.229,6.229,0,0,1,0-4.3,4.621,4.621,0,0,1,1.056-1.63,4.8,4.8,0,0,1,1.575-1.011,5.383,5.383,0,0,1,1.976-.355,5.059,5.059,0,0,1,2.659.71,4.388,4.388,0,0,1,1.794,1.93l-1.175.483a3.381,3.381,0,0,0-1.311-1.43,3.754,3.754,0,0,0-1.94-.5,4.07,4.07,0,0,0-1.466.264,3.452,3.452,0,0,0-1.175.756,3.354,3.354,0,0,0-.792,1.238,4.533,4.533,0,0,0-.291,1.657,4.635,4.635,0,0,0,.291,1.675,3.361,3.361,0,0,0,.792,1.238,3.478,3.478,0,0,0,1.175.756,3.9,3.9,0,0,0,1.466.264,3.754,3.754,0,0,0,1.94-.5,3.336,3.336,0,0,0,1.311-1.411l1.175.474a4.376,4.376,0,0,1-1.821,1.958A5.153,5.153,0,0,1,524.552,961.338Z" transform="translate(-519.116 -898.214)"/>
        <path id="Trazado_133141" data-name="Trazado 133141" d="M534.833,961.635a3.646,3.646,0,0,1-1.821-.437,3.077,3.077,0,0,1-1.266-1.266,3.9,3.9,0,0,1-.464-1.931,3.563,3.563,0,0,1,.993-2.641,3.723,3.723,0,0,1,5.063,0,3.645,3.645,0,0,1,.984,2.641,3.565,3.565,0,0,1-.993,2.641A3.4,3.4,0,0,1,534.833,961.635Zm0-1.02a2.19,2.19,0,0,0,1.657-.719,2.737,2.737,0,0,0,.656-1.894,2.675,2.675,0,0,0-.656-1.885,2.15,2.15,0,0,0-1.657-.719,2.1,2.1,0,0,0-1.639.719,2.666,2.666,0,0,0-.656,1.885,2.729,2.729,0,0,0,.656,1.894,2.131,2.131,0,0,0,1.63.692Z" transform="translate(-520.163 -898.51)"/>
        <path id="Trazado_133142" data-name="Trazado 133142" d="M542.364,955.713a2.129,2.129,0,0,1,.865-.911,2.642,2.642,0,0,1,1.348-.364v1.156a2.272,2.272,0,0,0-1.621.519,2.163,2.163,0,0,0-.565,1.657V961.5h-1.229v-6.994h1.2Z" transform="translate(-521.046 -898.517)"/>
        <path id="Trazado_133143" data-name="Trazado 133143" d="M547.971,961.631a2.4,2.4,0,0,1-1.539-.483,1.711,1.711,0,0,1-.6-1.43,1.991,1.991,0,0,1,.191-.911,1.54,1.54,0,0,1,.574-.637,3.216,3.216,0,0,1,.82-.4,7.626,7.626,0,0,1,1.065-.246l1.129-.191c.41-.073.619-.291.619-.646a1.214,1.214,0,0,0-.437-1.038,1.728,1.728,0,0,0-1.138-.392,1.872,1.872,0,0,0-1.1.319,1.371,1.371,0,0,0-.519.983l-1.111-.228a2.181,2.181,0,0,1,.911-1.5,3.278,3.278,0,0,1,1.912-.5,3.907,3.907,0,0,1,1.011.128,2.572,2.572,0,0,1,.847.392,1.82,1.82,0,0,1,.61.747,2.988,2.988,0,0,1,.209,1.156v2.887a1.169,1.169,0,0,0,.164.729.692.692,0,0,0,.555.191h.155v.911h-.61a1.156,1.156,0,0,1-1.32-.911H550.3A2.651,2.651,0,0,1,547.971,961.631Zm.282-.993a1.867,1.867,0,0,0,1.5-.683,2.812,2.812,0,0,0,.565-1.821l-1.821.355a2.423,2.423,0,0,0-1.084.392,1.019,1.019,0,0,0-.018,1.53,1.417,1.417,0,0,0,.856.2Z" transform="translate(-521.463 -898.507)"/>
        <path id="Trazado_133144" data-name="Trazado 133144" d="M553.022,964.436v-1.047a2.047,2.047,0,0,0,1-.2,1.107,1.107,0,0,0,.474-.683,5.779,5.779,0,0,0,.137-1.448v-6.893h1.238v6.893a4.036,4.036,0,0,1-.647,2.613A2.734,2.734,0,0,1,553.022,964.436Zm2.24-11.911a.793.793,0,0,1-.583-.246.808.808,0,0,1-.246-.592.79.79,0,0,1,.246-.583.837.837,0,0,1,1.166,0,.794.794,0,0,1,.246.583.815.815,0,0,1-.246.592A.8.8,0,0,1,555.262,952.525Z" transform="translate(-522.106 -898.198)"/>
        <path id="Trazado_133145" data-name="Trazado 133145" d="M564.981,957.84v.337h-5.464a2.484,2.484,0,0,0,.674,1.821,2.189,2.189,0,0,0,1.594.628,2.125,2.125,0,0,0,1.156-.337,2.232,2.232,0,0,0,.8-.911l1.111.237a3.178,3.178,0,0,1-1.2,1.5,3.279,3.279,0,0,1-1.821.546,3.38,3.38,0,0,1-2.513-.974,4.141,4.141,0,0,1,0-5.318,3.364,3.364,0,0,1,2.486-.974,3.152,3.152,0,0,1,2.349.911A3.534,3.534,0,0,1,564.981,957.84Zm-3.233-2.55a2.146,2.146,0,0,0-1.457.5,2.262,2.262,0,0,0-.738,1.439h4.189a2.088,2.088,0,0,0-.61-1.439,1.96,1.96,0,0,0-1.384-.528Z" transform="translate(-522.583 -898.513)"/>
        <path id="Trazado_133146" data-name="Trazado 133146" d="M526.648,980.365l-.865-2.395H521.23l-.829,2.395h-1.329l3.688-10.017h1.521l3.7,10.017Zm-4.972-3.506h3.734L523.5,971.65Z" transform="translate(-519.072 -899.939)"/>
        <path id="Trazado_133147" data-name="Trazado 133147" d="M532.828,980.433a1.822,1.822,0,0,1-1.366-.5,1.884,1.884,0,0,1-.5-1.393v-4.116h-1.43v-.983h.528a.989.989,0,0,0,.765-.246,1.181,1.181,0,0,0,.228-.82v-1.266H532.2v2.331h1.6v.983h-1.6v3.989a1.062,1.062,0,0,0,.264.765.913.913,0,0,0,.7.273h.637v.983Z" transform="translate(-520.007 -900.007)"/>
        <path id="Trazado_133148" data-name="Trazado 133148" d="M542.151,977.01v.337h-5.464a2.447,2.447,0,0,0,.665,1.821,2.19,2.19,0,0,0,1.594.628,2.126,2.126,0,0,0,1.156-.337,2.172,2.172,0,0,0,.8-.911l1.111.237a3.223,3.223,0,0,1-1.193,1.5,3.28,3.28,0,0,1-1.821.546,3.4,3.4,0,0,1-2.522-.974,4.178,4.178,0,0,1,0-5.318,3.364,3.364,0,0,1,2.486-.974,3.151,3.151,0,0,1,2.349.911A3.533,3.533,0,0,1,542.151,977.01Zm-3.233-2.55a2.147,2.147,0,0,0-1.457.5,2.263,2.263,0,0,0-.738,1.439h4.189a2.049,2.049,0,0,0-.61-1.439,1.948,1.948,0,0,0-1.384-.474Z" transform="translate(-520.542 -900.226)"/>
        <path id="Trazado_133149" data-name="Trazado 133149" d="M548.219,973.538a2.458,2.458,0,0,1,1.767.637,2.367,2.367,0,0,1,.656,1.821v4.653h-1.229v-4.435a1.669,1.669,0,0,0-.428-1.248,1.5,1.5,0,0,0-1.093-.41,1.692,1.692,0,0,0-1.248.483,1.99,1.99,0,0,0-.492,1.43v4.18h-1.22v-6.994h1.229v.911A2.33,2.33,0,0,1,548.219,973.538Z" transform="translate(-521.383 -900.224)"/>
        <path id="Trazado_133150" data-name="Trazado 133150" d="M556.659,980.8a3.343,3.343,0,0,1-2.5-1,3.97,3.97,0,0,1,0-5.245,3.348,3.348,0,0,1,2.513-1.011,3.387,3.387,0,0,1,2.022.619,3.032,3.032,0,0,1,1.175,1.694l-1.147.191a2.14,2.14,0,0,0-.792-1.093,2.168,2.168,0,0,0-1.266-.382,2.063,2.063,0,0,0-1.621.719,3.1,3.1,0,0,0,0,3.761,2.069,2.069,0,0,0,1.621.719,2.174,2.174,0,0,0,1.266-.382,2.148,2.148,0,0,0,.792-1.093l1.147.191a3.029,3.029,0,0,1-1.184,1.7A3.383,3.383,0,0,1,556.659,980.8Z" transform="translate(-522.119 -900.224)"/>
        <path id="Trazado_133151" data-name="Trazado 133151" d="M563.111,971.725a.793.793,0,0,1-.583-.246.807.807,0,0,1-.246-.592.79.79,0,0,1,.246-.583.837.837,0,0,1,1.166,0,.793.793,0,0,1,.246.583.814.814,0,0,1-.246.592A.8.8,0,0,1,563.111,971.725Zm-.619,8.633v-6.994h1.229v6.975Z" transform="translate(-522.934 -899.914)"/>
        <path id="Trazado_133152" data-name="Trazado 133152" d="M569.5,980.476a3.646,3.646,0,0,1-1.821-.437,3.138,3.138,0,0,1-1.266-1.266,3.9,3.9,0,0,1-.464-1.93,3.639,3.639,0,0,1,.993-2.641,3.723,3.723,0,0,1,5.063,0,4.008,4.008,0,0,1,0,5.282A3.435,3.435,0,0,1,569.5,980.476Zm0-1.02a2.171,2.171,0,0,0,1.657-.719,2.737,2.737,0,0,0,.656-1.894,2.675,2.675,0,0,0-.656-1.885,2.142,2.142,0,0,0-1.657-.719,2.11,2.11,0,0,0-1.639.719,2.662,2.662,0,0,0-.647,1.885,2.73,2.73,0,0,0,.647,1.894,2.148,2.148,0,0,0,1.63.719Zm-.464-7.285,1.821-2.313.656.474-1.594,1.821Z" transform="translate(-523.262 -899.895)"/>
        <path id="Trazado_133153" data-name="Trazado 133153" d="M579.138,973.538a2.448,2.448,0,0,1,1.758.637,2.366,2.366,0,0,1,.656,1.821v4.653h-1.229v-4.435a1.633,1.633,0,0,0-.428-1.248,1.5,1.5,0,0,0-1.093-.41,1.708,1.708,0,0,0-1.247.483,1.99,1.99,0,0,0-.492,1.43v4.18h-1.229v-6.994h1.229v.911A2.328,2.328,0,0,1,579.138,973.538Z" transform="translate(-524.145 -900.224)"/>
      </g>
      <g id="Grupo_63617" data-name="Grupo 63617" transform="translate(34.923 106.16)">
        <path id="Trazado_133154" data-name="Trazado 133154" d="M524.342,859.458a3.1,3.1,0,0,1,2.368.911,3.361,3.361,0,0,1,.911,2.368,3.236,3.236,0,0,1-.911,2.349,3.127,3.127,0,0,1-2.368.911h-2.149v3.642h-2.131V859.458Zm-.364,4.808a1.533,1.533,0,0,0,1.175-.4,1.507,1.507,0,0,0,.392-1.111,1.534,1.534,0,0,0-.392-1.1,1.557,1.557,0,0,0-1.175-.41h-1.821v3.023Z" transform="translate(-520.062 -858.975)"/>
        <path id="Trazado_133155" data-name="Trazado 133155" d="M533.089,870.166a4.7,4.7,0,0,1-2.067-.446,3.364,3.364,0,0,1-1.421-1.32,3.879,3.879,0,0,1-.519-2.04,3.637,3.637,0,0,1,1.111-2.732,4.635,4.635,0,0,1,5.8,0,4.043,4.043,0,0,1,0,5.564A4.117,4.117,0,0,1,533.089,870.166Zm0-1.63a1.888,1.888,0,0,0,1.448-.6,2.224,2.224,0,0,0,.546-1.575,2.273,2.273,0,0,0-.546-1.585,1.912,1.912,0,0,0-1.448-.592,1.819,1.819,0,0,0-1.4.6,2.539,2.539,0,0,0,0,3.151,1.821,1.821,0,0,0,1.384.6Z" transform="translate(-520.868 -859.257)"/>
        <path id="Trazado_133156" data-name="Trazado 133156" d="M542.08,870.161a4.167,4.167,0,0,1-2.14-.51,2.184,2.184,0,0,1-1.038-1.53l1.712-.483a1.375,1.375,0,0,0,1.466,1.093,1.445,1.445,0,0,0,.747-.173.575.575,0,0,0,.291-.565.636.636,0,0,0-.118-.373,1.123,1.123,0,0,0-.373-.273l-.5-.191-.656-.191a6.894,6.894,0,0,1-.674-.209,3.926,3.926,0,0,1-.647-.273,2.439,2.439,0,0,1-.528-.373,1.513,1.513,0,0,1-.4-.574,2.077,2.077,0,0,1-.137-.783,1.872,1.872,0,0,1,.792-1.639,3.579,3.579,0,0,1,2.076-.555,3.642,3.642,0,0,1,1.912.474,2.114,2.114,0,0,1,.983,1.466l-1.594.355a1.23,1.23,0,0,0-1.293-.911,1.391,1.391,0,0,0-.719.164.535.535,0,0,0-.291.492.552.552,0,0,0,0,.219.426.426,0,0,0,.146.173l.209.137a1.381,1.381,0,0,0,.291.118,2.726,2.726,0,0,0,.319.091l.373.1.382.1c.264.073.492.137.692.209a4.789,4.789,0,0,1,.628.3,2.436,2.436,0,0,1,.546.428,2.1,2.1,0,0,1,.364.61,2.275,2.275,0,0,1,.137.81,2.186,2.186,0,0,1-.246,1.056,1.836,1.836,0,0,1-.674.719,3.249,3.249,0,0,1-.911.383A5.015,5.015,0,0,1,542.08,870.161Z" transform="translate(-521.746 -859.252)"/>
        <path id="Trazado_133157" data-name="Trazado 133157" d="M548.345,861.286a1.18,1.18,0,0,1-.87-1.982l.032-.031a1.161,1.161,0,0,1,.838-.346,1.184,1.184,0,0,1,0,2.359Zm-1.047,8.405v-7.285h2.067v7.285Z" transform="translate(-522.483 -858.928)"/>
        <path id="Trazado_133158" data-name="Trazado 133158" d="M554.571,869.8a2.2,2.2,0,0,1-1.657-.592,2.33,2.33,0,0,1-.583-1.694v-3.451h-1.439v-1.575h.464a1.205,1.205,0,0,0,.911-.3,1.58,1.58,0,0,0,.291-1.093v-.965h1.821v2.359h1.512v1.575H554.38v3.233c0,.637.282.911.847.911h.665v1.557Z" transform="translate(-522.818 -859.035)"/>
        <path id="Trazado_133159" data-name="Trazado 133159" d="M559.156,861.286a1.148,1.148,0,0,1-.838-.346,1.111,1.111,0,0,1-.346-.838,1.135,1.135,0,0,1,.346-.829,1.17,1.17,0,0,1,.838-.346,1.158,1.158,0,0,1,.829.346,1.175,1.175,0,0,1,0,1.661l0,.005A1.157,1.157,0,0,1,559.156,861.286Zm-1.047,8.405v-7.285h2.067v7.285Z" transform="translate(-523.45 -858.928)"/>
        <path id="Trazado_133160" data-name="Trazado 133160" d="M567.358,862.718h2.176L566.411,870H564.59l-3.078-7.285h2.2l1.821,5Z" transform="translate(-523.767 -859.267)"/>
        <path id="Trazado_133161" data-name="Trazado 133161" d="M574.538,870.166a4.709,4.709,0,0,1-2.076-.446,3.3,3.3,0,0,1-1.411-1.32,3.878,3.878,0,0,1-.519-2.04,3.556,3.556,0,0,1,1.111-2.732,4.617,4.617,0,0,1,5.792,0,4.043,4.043,0,0,1,0,5.564A4.093,4.093,0,0,1,574.538,870.166Zm0-1.63a1.824,1.824,0,0,0,1.448-.6,2.2,2.2,0,0,0,.556-1.575,2.23,2.23,0,0,0-.556-1.585,1.884,1.884,0,0,0-1.448-.583,1.819,1.819,0,0,0-1.4.6,2.539,2.539,0,0,0,0,3.151A1.821,1.821,0,0,0,574.538,868.536Z" transform="translate(-524.573 -859.257)"/>
      </g>
      <g id="Grupo_63618" data-name="Grupo 63618" transform="translate(147.985 137.432)">
        <path id="Trazado_133162" data-name="Trazado 133162" d="M650.884,894.738H646.8v3.278h3.643v1.138H646.8v3.324h4.07v1.156H645.5V893.618h5.373Z" transform="translate(-644.336 -893.3)"/>
        <path id="Trazado_133163" data-name="Trazado 133163" d="M657.038,896.738a2.468,2.468,0,0,1,1.767.637,2.366,2.366,0,0,1,.656,1.821V903.9h-1.229V899.47a1.668,1.668,0,0,0-.428-1.248,1.532,1.532,0,0,0-1.1-.41,1.683,1.683,0,0,0-1.238.483,1.918,1.918,0,0,0-.492,1.43v4.18h-1.229v-6.994h1.229v.911A2.331,2.331,0,0,1,657.038,896.738Z" transform="translate(-645.073 -893.578)"/>
        <path id="Trazado_133164" data-name="Trazado 133164" d="M665.513,904a3.647,3.647,0,0,1-1.821-.437,3.11,3.11,0,0,1-1.257-1.266,3.914,3.914,0,0,1-.474-1.93,3.639,3.639,0,0,1,.993-2.641,3.723,3.723,0,0,1,5.063,0,4.008,4.008,0,0,1,0,5.282A3.415,3.415,0,0,1,665.513,904Zm0-1.02a2.171,2.171,0,0,0,1.657-.719,2.737,2.737,0,0,0,.656-1.894,2.675,2.675,0,0,0-.656-1.885,2.142,2.142,0,0,0-1.657-.719,2.11,2.11,0,0,0-1.639.719,3.084,3.084,0,0,0,0,3.779,2.149,2.149,0,0,0,1.63.719Z" transform="translate(-645.807 -893.579)"/>
        <path id="Trazado_133165" data-name="Trazado 133165" d="M670.082,906.836v-1.047a2.047,2.047,0,0,0,1-.2,1.106,1.106,0,0,0,.474-.683,5.778,5.778,0,0,0,.137-1.448v-6.893h1.238v6.893a4.037,4.037,0,0,1-.646,2.613A2.735,2.735,0,0,1,670.082,906.836Zm2.24-11.911a.793.793,0,0,1-.583-.246.807.807,0,0,1-.246-.592.79.79,0,0,1,.246-.583.837.837,0,0,1,1.166,0,.793.793,0,0,1,.246.583.815.815,0,0,1-.246.592A.8.8,0,0,1,672.322,894.925Z" transform="translate(-646.533 -893.269)"/>
        <path id="Trazado_133166" data-name="Trazado 133166" d="M678.863,904a3.646,3.646,0,0,1-1.821-.437,3.076,3.076,0,0,1-1.266-1.266,3.9,3.9,0,0,1-.464-1.93,3.563,3.563,0,0,1,.993-2.641,3.723,3.723,0,0,1,5.063,0,3.645,3.645,0,0,1,.983,2.641,3.564,3.564,0,0,1-.992,2.641A3.4,3.4,0,0,1,678.863,904Zm0-1.02a2.151,2.151,0,0,0,1.648-.719,2.674,2.674,0,0,0,.665-1.894,2.633,2.633,0,0,0-.665-1.885,2.122,2.122,0,0,0-1.648-.719,2.081,2.081,0,0,0-1.639.719,2.667,2.667,0,0,0-.656,1.885,2.729,2.729,0,0,0,.656,1.894,2.121,2.121,0,0,0,1.63.719Z" transform="translate(-647 -893.579)"/>
        <path id="Trazado_133167" data-name="Trazado 133167" d="M649.3,912.768a2.949,2.949,0,0,1,1.575.419,2.8,2.8,0,0,1,1.047,1.111,3.282,3.282,0,0,1,.373,1.548,3.065,3.065,0,0,1-.829,2.176,2.854,2.854,0,0,1-2.167.911h-2.5v3.888h-1.275V912.8Zm-.182,5.018a1.825,1.825,0,0,0,1.393-.537,2.221,2.221,0,0,0,0-2.832,1.82,1.82,0,0,0-1.393-.546h-2.313v3.916Z" transform="translate(-644.339 -895.011)"/>
        <path id="Trazado_133168" data-name="Trazado 133168" d="M660.441,919.44v.337h-5.464a2.448,2.448,0,0,0,.674,1.821,2.19,2.19,0,0,0,1.594.628,2.126,2.126,0,0,0,1.156-.337,2.233,2.233,0,0,0,.8-.911l1.1.237a3.115,3.115,0,0,1-1.193,1.5,3.282,3.282,0,0,1-1.821.546,3.38,3.38,0,0,1-2.513-.974,4.145,4.145,0,0,1,0-5.318,3.35,3.35,0,0,1,2.477-.974,3.158,3.158,0,0,1,2.359.911A3.574,3.574,0,0,1,660.441,919.44Zm-3.242-2.55a2.137,2.137,0,0,0-1.448.5,2.263,2.263,0,0,0-.738,1.439H659.2a2.087,2.087,0,0,0-.61-1.439,1.965,1.965,0,0,0-1.393-.5Z" transform="translate(-645.079 -895.3)"/>
        <path id="Trazado_133169" data-name="Trazado 133169" d="M663.212,922.7V911.768h1.239V922.7Z" transform="translate(-645.919 -894.922)"/>
        <path id="Trazado_133170" data-name="Trazado 133170" d="M667.931,914.125a.793.793,0,0,1-.583-.246.807.807,0,0,1-.246-.592.79.79,0,0,1,.246-.583.837.837,0,0,1,1.166,0,.793.793,0,0,1,.246.583.814.814,0,0,1-.246.592A.8.8,0,0,1,667.931,914.125Zm-.628,8.633v-6.994h1.238v6.994Z" transform="translate(-646.267 -894.985)"/>
        <path id="Trazado_133171" data-name="Trazado 133171" d="M676.436,916.079h1.2v6.611a3.8,3.8,0,0,1-.911,2.732,3.76,3.76,0,0,1-5.9-1.184l1.02-.5a2.313,2.313,0,0,0,2.349,1.685,2.024,2.024,0,0,0,1.639-.683,2.947,2.947,0,0,0,.565-1.912v-1.293a2.49,2.49,0,0,1-1,1.011,3.07,3.07,0,0,1-3.715-.61,3.482,3.482,0,0,1-.911-2.486,3.437,3.437,0,0,1,.911-2.477,3.03,3.03,0,0,1,2.277-.984,2.89,2.89,0,0,1,1.512.328,2.559,2.559,0,0,1,.984,1.038Zm-2.213,5.755a2.145,2.145,0,0,0,1.612-.719,2.472,2.472,0,0,0,.665-1.712,2.4,2.4,0,0,0-.665-1.712,2.083,2.083,0,0,0-1.612-.719,2.119,2.119,0,0,0-1.612.692,2.453,2.453,0,0,0-.656,1.739,2.418,2.418,0,0,0,.665,1.73,2.12,2.12,0,0,0,1.6.7Z" transform="translate(-646.595 -895.299)"/>
        <path id="Trazado_133172" data-name="Trazado 133172" d="M682.264,917.313a2.131,2.131,0,0,1,.865-.911,2.616,2.616,0,0,1,1.348-.364v1.156a2.319,2.319,0,0,0-1.63.519,2.163,2.163,0,0,0-.555,1.657V923.1h-1.229v-6.994h1.2Z" transform="translate(-647.515 -895.304)"/>
        <path id="Trazado_133173" data-name="Trazado 133173" d="M689.183,923.2a3.647,3.647,0,0,1-1.821-.437A3.077,3.077,0,0,1,686.1,921.5a3.9,3.9,0,0,1-.464-1.93,3.563,3.563,0,0,1,.992-2.641,3.431,3.431,0,0,1,2.522-.993,3.471,3.471,0,0,1,2.541.993,3.645,3.645,0,0,1,.984,2.641,3.564,3.564,0,0,1-.993,2.641A3.419,3.419,0,0,1,689.183,923.2Zm0-1.02a2.151,2.151,0,0,0,1.648-.719,2.736,2.736,0,0,0,.665-1.894,2.678,2.678,0,0,0-.665-1.885,2.122,2.122,0,0,0-1.648-.719,2.081,2.081,0,0,0-1.639.719,2.666,2.666,0,0,0-.656,1.885,2.728,2.728,0,0,0,.656,1.894,2.121,2.121,0,0,0,1.639.719Z" transform="translate(-647.923 -895.294)"/>
        <path id="Trazado_133174" data-name="Trazado 133174" d="M645.512,941.985V931.968h3.233a4.84,4.84,0,0,1,2.55.647,4.028,4.028,0,0,1,1.566,1.767,6.2,6.2,0,0,1,.51,2.586,6.479,6.479,0,0,1-.3,2.031,4.458,4.458,0,0,1-.865,1.584,3.826,3.826,0,0,1-1.457,1.038,5.136,5.136,0,0,1-2,.364Zm1.275-1.156H648.7a3.07,3.07,0,0,0,2.5-1.029,4.358,4.358,0,0,0,.838-2.832,4.291,4.291,0,0,0-.847-2.814,3.041,3.041,0,0,0-2.5-1.02h-1.894Z" transform="translate(-644.337 -896.727)"/>
        <path id="Trazado_133175" data-name="Trazado 133175" d="M662.566,938.635v.337H657.1a2.451,2.451,0,0,0,.665,1.821,2.19,2.19,0,0,0,1.594.628,2.126,2.126,0,0,0,1.156-.337,2.173,2.173,0,0,0,.8-.911l1.111.237a3.177,3.177,0,0,1-1.2,1.5,3.236,3.236,0,0,1-1.821.546,3.4,3.4,0,0,1-2.568-1.029,4.178,4.178,0,0,1,0-5.318,3.364,3.364,0,0,1,2.486-.974,3.152,3.152,0,0,1,2.349.911A3.536,3.536,0,0,1,662.566,938.635Zm-3.233-2.55a2.147,2.147,0,0,0-1.457.5,2.262,2.262,0,0,0-.738,1.439h4.189a2.049,2.049,0,0,0-.61-1.439,1.948,1.948,0,0,0-1.384-.5Z" transform="translate(-645.264 -897.01)"/>
        <path id="Trazado_133176" data-name="Trazado 133176" d="M667.5,942.408a3.308,3.308,0,0,1-1.885-.5,2.1,2.1,0,0,1-.911-1.439l1.075-.31a1.473,1.473,0,0,0,.574.974,1.87,1.87,0,0,0,1.147.346,2.6,2.6,0,0,0,.674-.091,1.17,1.17,0,0,0,.519-.346.911.911,0,0,0,.2-.637.756.756,0,0,0-.055-.291,1.1,1.1,0,0,0-.118-.228.55.55,0,0,0-.191-.191,2.11,2.11,0,0,0-.246-.155,2.045,2.045,0,0,0-.319-.128l-.337-.118-.392-.109-.4-.118a7.271,7.271,0,0,1-.729-.255,3.071,3.071,0,0,1-.592-.337,1.352,1.352,0,0,1-.455-.555,1.729,1.729,0,0,1-.146-.765,1.812,1.812,0,0,1,.337-1.12,1.95,1.95,0,0,1,.911-.656,3.474,3.474,0,0,1,1.238-.2,3.053,3.053,0,0,1,1.7.455,1.912,1.912,0,0,1,.847,1.366l-1,.255a1.343,1.343,0,0,0-.537-.911,1.815,1.815,0,0,0-1.912-.055.826.826,0,0,0-.392.756.693.693,0,0,0,.1.382.91.91,0,0,0,.592.483,3.922,3.922,0,0,0,.419.155l.51.127h.109l.665.191a5.573,5.573,0,0,1,.61.255,2.212,2.212,0,0,1,.546.382,1.832,1.832,0,0,1,.337.537,2.045,2.045,0,0,1,.146.756,2.118,2.118,0,0,1-.209.911,1.71,1.71,0,0,1-.574.637,2.556,2.556,0,0,1-.82.355A3.741,3.741,0,0,1,667.5,942.408Z" transform="translate(-646.052 -897.014)"/>
        <path id="Trazado_133177" data-name="Trazado 133177" d="M674.282,942.406a2.39,2.39,0,0,1-1.53-.483,1.711,1.711,0,0,1-.6-1.43,1.991,1.991,0,0,1,.191-.911,1.539,1.539,0,0,1,.574-.637,3.082,3.082,0,0,1,.82-.4,8.186,8.186,0,0,1,1.065-.255l1.129-.182c.41-.073.619-.291.619-.647a1.213,1.213,0,0,0-.437-1.038,1.755,1.755,0,0,0-1.111-.337,1.816,1.816,0,0,0-1.093.319,1.371,1.371,0,0,0-.519.983l-1.111-.237a2.18,2.18,0,0,1,.911-1.493,3.278,3.278,0,0,1,1.912-.5,3.912,3.912,0,0,1,1.011.127,2.577,2.577,0,0,1,.847.392,1.772,1.772,0,0,1,.6.747,2.826,2.826,0,0,1,.219,1.156v2.887a1.169,1.169,0,0,0,.164.729.675.675,0,0,0,.546.191h.118v.911H678c-.756,0-1.2-.31-1.33-.911h-.055A2.653,2.653,0,0,1,674.282,942.406Zm.291-.993a1.867,1.867,0,0,0,1.5-.683,2.811,2.811,0,0,0,.565-1.821l-1.821.355a2.424,2.424,0,0,0-1.084.392,1.019,1.019,0,0,0-.018,1.53,1.415,1.415,0,0,0,.856.228Z" transform="translate(-646.718 -897.012)"/>
        <path id="Trazado_133178" data-name="Trazado 133178" d="M684.223,932h-.528a1.2,1.2,0,0,0-.255,0l-.219.073a.506.506,0,0,0-.209.118l-.164.182a.62.62,0,0,0-.137.255,2.235,2.235,0,0,0-.082.346,2.9,2.9,0,0,0,0,.437v1.439h1.621v1.02h-1.621v6.01H681.4v-6.01h-1.348v-.983H681.4v-1.466a4.241,4.241,0,0,1,.073-.81,3.077,3.077,0,0,1,.2-.619,1.585,1.585,0,0,1,.337-.446,2.545,2.545,0,0,1,.428-.3,1.982,1.982,0,0,1,.528-.173,4.929,4.929,0,0,1,.6-.091h.683Z" transform="translate(-647.424 -896.639)"/>
        <path id="Trazado_133179" data-name="Trazado 133179" d="M686.192,941.937v-6.994h1.238v6.994Zm.155-8.2,1.821-2.313.656.474-1.594,1.821Z" transform="translate(-647.973 -896.679)"/>
        <path id="Trazado_133180" data-name="Trazado 133180" d="M693.183,942.4a3.645,3.645,0,0,1-1.821-.437A3.076,3.076,0,0,1,690.1,940.7a3.9,3.9,0,0,1-.464-1.931,3.563,3.563,0,0,1,.993-2.641,3.431,3.431,0,0,1,2.522-.993,3.471,3.471,0,0,1,2.541.993,3.645,3.645,0,0,1,.983,2.641,3.564,3.564,0,0,1-.993,2.641A3.419,3.419,0,0,1,693.183,942.4Zm0-1.02a2.151,2.151,0,0,0,1.648-.719,2.736,2.736,0,0,0,.665-1.894,2.678,2.678,0,0,0-.665-1.885,2.122,2.122,0,0,0-1.648-.719,2.081,2.081,0,0,0-1.639.719,2.666,2.666,0,0,0-.656,1.885,2.729,2.729,0,0,0,.656,1.894,2.12,2.12,0,0,0,1.639.719Z" transform="translate(-648.28 -897.01)"/>
        <path id="Trazado_133181" data-name="Trazado 133181" d="M651.827,961.185l-.856-2.395h-4.553l-.856,2.395h-1.33l3.7-10.017h1.521l3.688,10.017Zm-4.981-3.479h3.724l-1.867-5.218Z" transform="translate(-644.223 -898.443)"/>
        <path id="Trazado_133182" data-name="Trazado 133182" d="M660.774,954.475h1.193v6.638a3.8,3.8,0,0,1-.911,2.732,3.76,3.76,0,0,1-5.9-1.184l1.02-.5a2.313,2.313,0,0,0,2.34,1.621,2,2,0,0,0,1.639-.683,2.892,2.892,0,0,0,.565-1.912v-1.293a2.472,2.472,0,0,1-.993,1.011,2.979,2.979,0,0,1-1.457.373,3.015,3.015,0,0,1-2.267-.983,3.474,3.474,0,0,1-.911-2.486,3.4,3.4,0,0,1,.911-2.477,2.993,2.993,0,0,1,2.267-.983,2.863,2.863,0,0,1,1.466.392,2.523,2.523,0,0,1,.992,1.038Zm-2.185,5.755a2.115,2.115,0,0,0,1.612-.719,2.551,2.551,0,0,0,0-3.424,2.122,2.122,0,0,0-1.621-.719,2.146,2.146,0,0,0-1.612.692,2.453,2.453,0,0,0-.656,1.739,2.418,2.418,0,0,0,.665,1.73A2.158,2.158,0,0,0,658.588,960.231Z" transform="translate(-645.193 -898.728)"/>
        <path id="Trazado_133183" data-name="Trazado 133183" d="M666.6,955.713a2.148,2.148,0,0,1,.911-.911,2.581,2.581,0,0,1,1.339-.364v1.156a2.3,2.3,0,0,0-1.621.519,2.163,2.163,0,0,0-.565,1.657V961.5h-1.229v-6.994h1.2Z" transform="translate(-646.118 -898.736)"/>
        <path id="Trazado_133184" data-name="Trazado 133184" d="M676.7,957.838v.337h-5.464A2.451,2.451,0,0,0,671.9,960a2.19,2.19,0,0,0,1.594.628,2.114,2.114,0,0,0,1.958-1.266l1.111.237a3.168,3.168,0,0,1-1.193,1.5,3.281,3.281,0,0,1-1.821.546,3.417,3.417,0,0,1-2.522-.974,4.162,4.162,0,0,1,0-5.318,3.33,3.33,0,0,1,2.477-.974,3.152,3.152,0,0,1,2.349.911A3.538,3.538,0,0,1,676.7,957.838Zm-3.233-2.55a2.147,2.147,0,0,0-1.457.5,2.263,2.263,0,0,0-.738,1.439h4.189a2.049,2.049,0,0,0-.61-1.439,1.929,1.929,0,0,0-1.384-.528Z" transform="translate(-646.532 -898.73)"/>
        <path id="Trazado_133185" data-name="Trazado 133185" d="M681.658,961.638a3.308,3.308,0,0,1-1.885-.5,2.1,2.1,0,0,1-.911-1.439l1.075-.31a1.545,1.545,0,0,0,.574.974,1.887,1.887,0,0,0,1.147.364,2.6,2.6,0,0,0,.674-.091,1.169,1.169,0,0,0,.519-.346.913.913,0,0,0,.2-.637.755.755,0,0,0-.055-.291,1.09,1.09,0,0,0-.109-.228.583.583,0,0,0-.2-.191,2.1,2.1,0,0,0-.246-.155,2.278,2.278,0,0,0-.31-.128l-.346-.118-.392-.109-.4-.118c-.291-.091-.537-.173-.729-.255a3.331,3.331,0,0,1-.592-.337,1.351,1.351,0,0,1-.455-.555,1.869,1.869,0,0,1-.155-.783,1.813,1.813,0,0,1,.346-1.111,1.891,1.891,0,0,1,.911-.665,3.474,3.474,0,0,1,1.238-.2,3.036,3.036,0,0,1,1.7.455,1.951,1.951,0,0,1,.856,1.366l-1.011.255a1.344,1.344,0,0,0-.537-.911,1.675,1.675,0,0,0-1-.3,1.733,1.733,0,0,0-.911.246.826.826,0,0,0-.392.756.763.763,0,0,0,.1.382,1.521,1.521,0,0,0,.209.273,1.147,1.147,0,0,0,.392.209,3.405,3.405,0,0,0,.41.155l.51.128h.109l.674.191a4.837,4.837,0,0,1,.6.255,2.211,2.211,0,0,1,.546.382,1.814,1.814,0,0,1,.337.537,1.837,1.837,0,0,1,.146.756,2.116,2.116,0,0,1-.209.911,1.651,1.651,0,0,1-.574.647,2.75,2.75,0,0,1-.81.346A3.8,3.8,0,0,1,681.658,961.638Z" transform="translate(-647.318 -898.733)"/>
        <path id="Trazado_133186" data-name="Trazado 133186" d="M687.461,952.525a.793.793,0,0,1-.583-.246.808.808,0,0,1-.246-.592.79.79,0,0,1,.246-.583.837.837,0,0,1,1.166,0,.793.793,0,0,1,.246.583.815.815,0,0,1-.246.592A.8.8,0,0,1,687.461,952.525Zm-.628,8.633v-6.994h1.238v6.994Z" transform="translate(-648.013 -898.417)"/>
        <path id="Trazado_133187" data-name="Trazado 133187" d="M693.853,961.306a3.646,3.646,0,0,1-1.821-.437,3.136,3.136,0,0,1-1.266-1.266,3.9,3.9,0,0,1-.464-1.931,3.563,3.563,0,0,1,.993-2.641,3.723,3.723,0,0,1,5.063,0,4.008,4.008,0,0,1,0,5.282A3.436,3.436,0,0,1,693.853,961.306Zm0-1.02a2.19,2.19,0,0,0,1.657-.719,2.737,2.737,0,0,0,.656-1.894,2.674,2.674,0,0,0-.656-1.885,2.15,2.15,0,0,0-1.657-.719,2.11,2.11,0,0,0-1.639.719,2.666,2.666,0,0,0-.656,1.885,2.728,2.728,0,0,0,.656,1.894,2.148,2.148,0,0,0,1.63.692ZM693.389,953l1.821-2.313.656.474-1.594,1.821Z" transform="translate(-648.34 -898.401)"/>
        <path id="Trazado_133188" data-name="Trazado 133188" d="M703.488,954.348a2.449,2.449,0,0,1,1.758.637,2.367,2.367,0,0,1,.656,1.821v4.708h-1.229V957.08a1.639,1.639,0,0,0-.428-1.257,1.5,1.5,0,0,0-1.093-.41,1.709,1.709,0,0,0-1.248.483,1.991,1.991,0,0,0-.492,1.43v4.18h-1.229v-6.994h1.229v.911A2.329,2.329,0,0,1,703.488,954.348Z" transform="translate(-649.224 -898.727)"/>
        <path id="Trazado_133189" data-name="Trazado 133189" d="M650.633,970.348v1.166h-2.568v8.851H646.8v-8.833h-2.577v-1.184Z" transform="translate(-644.222 -900.158)"/>
        <path id="Trazado_133190" data-name="Trazado 133190" d="M657.861,977.01v.337H652.4a2.484,2.484,0,0,0,.674,1.821,2.19,2.19,0,0,0,1.594.628,2.126,2.126,0,0,0,1.156-.337,2.232,2.232,0,0,0,.8-.911l1.111.237a3.178,3.178,0,0,1-1.2,1.5,3.25,3.25,0,0,1-1.821.546,3.38,3.38,0,0,1-2.513-.974,4.141,4.141,0,0,1,0-5.318,3.364,3.364,0,0,1,2.486-.974,3.151,3.151,0,0,1,2.349.911A3.534,3.534,0,0,1,657.861,977.01Zm-3.233-2.55a2.147,2.147,0,0,0-1.457.5,2.262,2.262,0,0,0-.738,1.439h4.189a2.087,2.087,0,0,0-.61-1.439,1.947,1.947,0,0,0-1.411-.474Z" transform="translate(-644.848 -900.445)"/>
        <path id="Trazado_133191" data-name="Trazado 133191" d="M663.928,973.538a2.467,2.467,0,0,1,1.767.637,2.366,2.366,0,0,1,.656,1.821v4.653h-1.229v-4.435a1.669,1.669,0,0,0-.428-1.248,1.519,1.519,0,0,0-1.093-.41,1.692,1.692,0,0,0-1.248.483,1.918,1.918,0,0,0-.492,1.43v4.18h-1.229v-6.994h1.229v.911A2.328,2.328,0,0,1,663.928,973.538Z" transform="translate(-645.689 -900.443)"/>
        <path id="Trazado_133192" data-name="Trazado 133192" d="M671.658,980.806a3.308,3.308,0,0,1-1.885-.5,2.1,2.1,0,0,1-.911-1.439l1.075-.31a1.473,1.473,0,0,0,.574.974,1.822,1.822,0,0,0,1.147.346,2.6,2.6,0,0,0,.674-.091,1.107,1.107,0,0,0,.51-.346.912.912,0,0,0,.209-.637.755.755,0,0,0-.055-.291,1.1,1.1,0,0,0-.118-.228.549.549,0,0,0-.191-.191,2.1,2.1,0,0,0-.246-.155,2.035,2.035,0,0,0-.319-.127l-.337-.118-.392-.109-.4-.118a7.257,7.257,0,0,1-.729-.255,3.065,3.065,0,0,1-.592-.337,1.352,1.352,0,0,1-.455-.555,1.732,1.732,0,0,1-.155-.783,1.812,1.812,0,0,1,.337-1.12,1.95,1.95,0,0,1,.911-.656,3.454,3.454,0,0,1,1.238-.2,3.054,3.054,0,0,1,1.7.455,1.913,1.913,0,0,1,.847,1.366l-1.011.255a1.3,1.3,0,0,0-.528-.911,1.815,1.815,0,0,0-1.912-.055.826.826,0,0,0-.392.756.692.692,0,0,0,.1.383.972.972,0,0,0,.209.273,1.178,1.178,0,0,0,.382.209,3.974,3.974,0,0,0,.419.155l.51.128h.1l.674.191a5.574,5.574,0,0,1,.61.255,1.994,1.994,0,0,1,.537.383,1.673,1.673,0,0,1,.346.537,2.043,2.043,0,0,1,.146.756,2.117,2.117,0,0,1-.21.911,1.708,1.708,0,0,1-.574.637,2.557,2.557,0,0,1-.82.355A3.755,3.755,0,0,1,671.658,980.806Z" transform="translate(-646.424 -900.445)"/>
        <path id="Trazado_133193" data-name="Trazado 133193" d="M677.51,971.727a.838.838,0,0,1-.838-.838h0a.789.789,0,0,1,.237-.565.846.846,0,0,1,1.175,0,.785.785,0,0,1,.237.583.819.819,0,0,1-.8.837H677.5Zm-.6,8.615v-6.994h1.238v6.994Z" transform="translate(-647.122 -900.135)"/>
        <path id="Trazado_133194" data-name="Trazado 133194" d="M683.9,980.476a3.646,3.646,0,0,1-1.821-.437,3.079,3.079,0,0,1-1.193-1.266,3.9,3.9,0,0,1-.464-1.93,3.563,3.563,0,0,1,.993-2.641,3.431,3.431,0,0,1,2.522-.993,3.471,3.471,0,0,1,2.541.993,3.645,3.645,0,0,1,.983,2.641,3.564,3.564,0,0,1-.992,2.641A3.409,3.409,0,0,1,683.9,980.476Zm0-1.02a2.151,2.151,0,0,0,1.648-.719,2.736,2.736,0,0,0,.665-1.894,2.679,2.679,0,0,0-.665-1.885,2.122,2.122,0,0,0-1.648-.719,2.081,2.081,0,0,0-1.639.719,2.667,2.667,0,0,0-.656,1.885,2.729,2.729,0,0,0,.656,1.894A2.12,2.12,0,0,0,683.9,979.456Zm-.464-7.285,1.821-2.313.656.474-1.594,1.821Z" transform="translate(-647.457 -900.114)"/>
        <path id="Trazado_133195" data-name="Trazado 133195" d="M693.528,973.538a2.458,2.458,0,0,1,1.767.637,2.366,2.366,0,0,1,.656,1.821v4.653h-1.229v-4.435a1.669,1.669,0,0,0-.428-1.248,1.5,1.5,0,0,0-1.093-.41,1.692,1.692,0,0,0-1.248.483,1.99,1.99,0,0,0-.492,1.43v4.18h-1.229v-6.994h1.229v.911A2.328,2.328,0,0,1,693.528,973.538Z" transform="translate(-648.334 -900.443)"/>
      </g>
      <g id="Grupo_63619" data-name="Grupo 63619" transform="translate(148.887 106.16)">
        <path id="Trazado_133196" data-name="Trazado 133196" d="M652.242,859.458h2.122v10.281H651.9l-4.553-7.349v7.349h-2.131V859.458h2.477l4.553,7.285Z" transform="translate(-645.212 -858.975)"/>
        <path id="Trazado_133197" data-name="Trazado 133197" d="M664.687,866.253v.492h-5.464a1.877,1.877,0,0,0,.583,1.339,1.985,1.985,0,0,0,2.249.209,1.6,1.6,0,0,0,.619-.738l1.876.273a3.2,3.2,0,0,1-1.284,1.721,3.846,3.846,0,0,1-2.158.61,3.953,3.953,0,0,1-2.85-1.011,3.639,3.639,0,0,1-1.056-2.786,3.72,3.72,0,0,1,1.056-2.8,3.848,3.848,0,0,1,2.786-1.02,3.345,3.345,0,0,1,3.643,3.706Zm-3.643-2.258a1.621,1.621,0,0,0-1.776,1.411h3.36a1.539,1.539,0,0,0-.51-1.047,1.61,1.61,0,0,0-1.038-.364Z" transform="translate(-646.283 -859.25)"/>
        <path id="Trazado_133198" data-name="Trazado 133198" d="M672.112,862.7h1.949v6.766a5.5,5.5,0,0,1-.273,1.821,2.953,2.953,0,0,1-.792,1.248,3.335,3.335,0,0,1-1.22.7,5.026,5.026,0,0,1-1.594.228q-2.9,0-3.77-2.267l1.7-.729a2.463,2.463,0,0,0,.783,1.065,2.016,2.016,0,0,0,1.2.337c1.266,0,1.9-.747,1.9-2.258v-.874a2.314,2.314,0,0,1-.911.719,3.1,3.1,0,0,1-1.3.273,3.268,3.268,0,0,1-1.284-.255,3.413,3.413,0,0,1-1.065-.729,3.461,3.461,0,0,1-.719-1.147,4.3,4.3,0,0,1,0-2.969,3.242,3.242,0,0,1,.729-1.129,3.038,3.038,0,0,1,1.065-.71,3.268,3.268,0,0,1,1.293-.264,3,3,0,0,1,1.357.31,2.1,2.1,0,0,1,.911.8Zm-3.142,4.835a1.767,1.767,0,0,0,1.339.565,1.823,1.823,0,0,0,1.348-.565,2.05,2.05,0,0,0,0-2.786,1.9,1.9,0,0,0-2.692-.041l-.04.041a1.946,1.946,0,0,0-.537,1.4,1.912,1.912,0,0,0,.583,1.384Z" transform="translate(-647.107 -859.25)"/>
        <path id="Trazado_133199" data-name="Trazado 133199" d="M683.092,868.034a6.806,6.806,0,0,0,.173,1.821v.2h-1.912l-.164-.792a2.368,2.368,0,0,1-1.02.7,3.847,3.847,0,0,1-1.32.237,3.238,3.238,0,0,1-.683-.064,2.515,2.515,0,0,1-.619-.219,1.811,1.811,0,0,1-.51-.382,1.546,1.546,0,0,1-.337-.574,2.55,2.55,0,0,1,0-1.594,1.978,1.978,0,0,1,.355-.592,2.243,2.243,0,0,1,.583-.437,4.485,4.485,0,0,1,.719-.31,8.434,8.434,0,0,1,.911-.228l1.2-.273a1.307,1.307,0,0,0,.546-.228.485.485,0,0,0,.155-.364.776.776,0,0,0-.355-.71,1.813,1.813,0,0,0-.911-.209,1.257,1.257,0,0,0-1.423,1.065c0,.018,0,.036-.006.055l-1.821-.328a2.454,2.454,0,0,1,1.056-1.676,4.233,4.233,0,0,1,2.295-.537q3.077,0,3.078,2.641Zm-3.643.747a1.649,1.649,0,0,0,1.266-.537,2.218,2.218,0,0,0,.492-1.566l-1.739.492a1.928,1.928,0,0,0-.728.3.619.619,0,0,0-.255.528.673.673,0,0,0,.273.574,1.123,1.123,0,0,0,.729.173Z" transform="translate(-648.015 -859.255)"/>
        <path id="Trazado_133200" data-name="Trazado 133200" d="M688.442,869.8a2.178,2.178,0,0,1-1.648-.592,2.291,2.291,0,0,1-.583-1.694v-3.451h-1.439v-1.575h.464a1.229,1.229,0,0,0,.911-.3,1.627,1.627,0,0,0,.291-1.093v-.965h1.821v2.359h1.5v1.575h-1.475v3.233c0,.637.282.911.847.911h.656v1.557Z" transform="translate(-648.748 -859.035)"/>
        <path id="Trazado_133201" data-name="Trazado 133201" d="M693.056,861.286a1.177,1.177,0,0,1-.838-.346,1.146,1.146,0,0,1-.346-.838,1.115,1.115,0,0,1,.355-.829,1.165,1.165,0,0,1,1.648-.009l.009.009a1.175,1.175,0,0,1,0,1.661l0,.005A1.141,1.141,0,0,1,693.056,861.286Zm-1.038,8.405v-7.285h2.058v7.285Z" transform="translate(-649.382 -858.928)"/>
        <path id="Trazado_133202" data-name="Trazado 133202" d="M701.278,862.718h2.167L700.331,870H698.51l-3.078-7.285h2.158l1.821,5Z" transform="translate(-649.701 -859.267)"/>
        <path id="Trazado_133203" data-name="Trazado 133203" d="M708.439,870.166a4.694,4.694,0,0,1-2.067-.446,3.364,3.364,0,0,1-1.421-1.32,3.878,3.878,0,0,1-.519-2.04,3.637,3.637,0,0,1,1.111-2.732,4.635,4.635,0,0,1,5.8,0,4.043,4.043,0,0,1,0,5.564A4.117,4.117,0,0,1,708.439,870.166Zm0-1.63a1.888,1.888,0,0,0,1.448-.6,2.223,2.223,0,0,0,.546-1.575,2.272,2.272,0,0,0-.546-1.585,1.912,1.912,0,0,0-1.448-.592,1.819,1.819,0,0,0-1.411.6,2.575,2.575,0,0,0,0,3.151,1.82,1.82,0,0,0,1.393.6Z" transform="translate(-650.505 -859.257)"/>
      </g>
    </g>
  </g>
</svg>
