<svg xmlns="http://www.w3.org/2000/svg" width="294.581" height="374.339" viewBox="0 0 294.581 374.339">
  <g id="Grupo_63654" data-name="Grupo 63654" transform="translate(-1039.796 -1170.532)">
    <rect id="Rect치ngulo_7993" data-name="Rect치ngulo 7993" width="294.581" height="374.339" rx="20.609" transform="translate(1039.796 1170.532)" fill="#f2f2f2"/>
    <g id="Grupo_63653" data-name="Grupo 63653" transform="translate(1058.886 1221.011)">
      <rect id="Rect치ngulo_7994" data-name="Rect치ngulo 7994" width="256.401" height="273.38" transform="translate(0)" fill="#f2f2f2"/>
      <g id="Grupo_63648" data-name="Grupo 63648" transform="translate(30.027 49.046)">
        <path id="Trazado_133415" data-name="Trazado 133415" d="M1112.756,1305.993l-1.774-5.032h-10.246l-1.774,5.032h-5.187l8.981-24.4h6.2l8.981,24.4Zm-10.537-9.263h7.28l-3.64-10.355Z" transform="translate(-1093.775 -1280.06)"/>
        <path id="Trazado_133416" data-name="Trazado 133416" d="M1133.89,1289.007a6.782,6.782,0,0,1,4.8,1.556,5.819,5.819,0,0,1,1.647,4.413v11.683h-4.877v-10.637a3.019,3.019,0,0,0-.91-2.393,3.269,3.269,0,0,0-2.238-.764,4.574,4.574,0,0,0-1.456.218,3.816,3.816,0,0,0-1.21.692,3.037,3.037,0,0,0-.91,1.3,6.022,6.022,0,0,0-.328,2.011v9.573h-4.868v-17.352h4.968v1.92A6.694,6.694,0,0,1,1133.89,1289.007Z" transform="translate(-1096.455 -1280.726)"/>
        <path id="Trazado_133417" data-name="Trazado 133417" d="M1161.3,1301.947a16.15,16.15,0,0,0,.428,4.231v.473h-4.55l-.382-1.893a5.639,5.639,0,0,1-2.43,1.674,9.013,9.013,0,0,1-3.148.555,8.483,8.483,0,0,1-1.62-.146,5.379,5.379,0,0,1-1.456-.519,4.57,4.57,0,0,1-1.21-.91,4,4,0,0,1-.81-1.374,5.624,5.624,0,0,1-.3-1.884,5.133,5.133,0,0,1,.318-1.884,4.254,4.254,0,0,1,.846-1.41,4.959,4.959,0,0,1,1.365-1.028,10.072,10.072,0,0,1,1.72-.746,19.582,19.582,0,0,1,2.066-.537l2.848-.646a3.166,3.166,0,0,0,1.292-.546,1.088,1.088,0,0,0,.382-.91,1.816,1.816,0,0,0-.855-1.665,3.867,3.867,0,0,0-2.066-.51q-2.984,0-3.394,2.648l-4.3-.773a5.817,5.817,0,0,1,2.511-3.958,10,10,0,0,1,5.46-1.274q7.281,0,7.28,6.26Zm-8.562,1.756a3.942,3.942,0,0,0,3.012-1.265,5.3,5.3,0,0,0,1.146-3.722l-4.1,1.2a4.9,4.9,0,0,0-1.729.71,1.459,1.459,0,0,0-.6,1.247,1.631,1.631,0,0,0,.637,1.383A2.681,2.681,0,0,0,1152.74,1303.7Z" transform="translate(-1098.463 -1280.718)"/>
        <path id="Trazado_133418" data-name="Trazado 133418" d="M1172.69,1292.062a5.665,5.665,0,0,1,2.275-2.084,6.945,6.945,0,0,1,3.394-.91v4.331a6.6,6.6,0,0,0-4.149,1.074c-.855.7-1.283,1.938-1.283,3.722v8.471h-4.932v-17.352h4.659Z" transform="translate(-1100.46 -1280.733)"/>
        <path id="Trazado_133419" data-name="Trazado 133419" d="M1196.521,1301.947a16.22,16.22,0,0,0,.419,4.231v.473h-4.55l-.391-1.893a5.638,5.638,0,0,1-2.429,1.674,8.921,8.921,0,0,1-3.139.555,8.482,8.482,0,0,1-1.62-.146,5.514,5.514,0,0,1-1.465-.519,4.651,4.651,0,0,1-1.2-.91,4,4,0,0,1-.81-1.374,5.607,5.607,0,0,1-.309-1.884,5.115,5.115,0,0,1,.328-1.884,4.4,4.4,0,0,1,.837-1.41,5.146,5.146,0,0,1,1.374-1.028,10.076,10.076,0,0,1,1.72-.746,19.377,19.377,0,0,1,2.057-.537l2.857-.646a3.165,3.165,0,0,0,1.292-.546,1.088,1.088,0,0,0,.382-.91,1.816,1.816,0,0,0-.855-1.665,3.906,3.906,0,0,0-2.065-.51c-1.994,0-3.131.91-3.395,2.648l-4.3-.773a5.78,5.78,0,0,1,2.511-3.958,9.94,9.94,0,0,1,5.46-1.274q7.28,0,7.28,6.26Zm-8.562,1.756a3.913,3.913,0,0,0,3-1.265,5.255,5.255,0,0,0,1.165-3.722l-4.113,1.2a4.973,4.973,0,0,0-1.738.71,1.466,1.466,0,0,0-.591,1.247,1.631,1.631,0,0,0,.637,1.383A2.681,2.681,0,0,0,1187.959,1303.7Z" transform="translate(-1101.633 -1280.718)"/>
        <path id="Trazado_133420" data-name="Trazado 133420" d="M1213.493,1289.006a6.8,6.8,0,0,1,4.8,1.556,5.82,5.82,0,0,1,1.665,4.45v11.647h-4.877v-10.637a2.988,2.988,0,0,0-.91-2.393,3.234,3.234,0,0,0-2.229-.764,4.52,4.52,0,0,0-1.456.218,3.816,3.816,0,0,0-1.21.692,3.038,3.038,0,0,0-.91,1.3,6.018,6.018,0,0,0-.328,2.011v9.573h-4.868v-17.352h4.868v1.92A6.7,6.7,0,0,1,1213.493,1289.006Z" transform="translate(-1103.627 -1280.726)"/>
        <path id="Trazado_133421" data-name="Trazado 133421" d="M1222.9,1314.024v-3.8a5.621,5.621,0,0,0,1.82-.246,2.06,2.06,0,0,0,1.074-.91,3.752,3.752,0,0,0,.519-1.5,16.907,16.907,0,0,0,.127-2.32v-16.716h4.932v16.761c0,3.03-.664,5.241-1.974,6.633S1225.916,1314.024,1222.9,1314.024Zm6.051-28.1a2.812,2.812,0,0,1-2.821-2.8,2.633,2.633,0,0,1,.837-1.965,2.775,2.775,0,0,1,3.925-.016l.015.016a2.794,2.794,0,0,1-1.956,4.768Z" transform="translate(-1105.404 -1279.947)"/>
        <path id="Trazado_133422" data-name="Trazado 133422" d="M1251.871,1301.947a16.225,16.225,0,0,0,.418,4.231v.473h-4.55l-.391-1.893a5.639,5.639,0,0,1-2.43,1.674,8.922,8.922,0,0,1-3.139.555,8.483,8.483,0,0,1-1.62-.146,5.512,5.512,0,0,1-1.465-.519,4.655,4.655,0,0,1-1.2-.91,4,4,0,0,1-.81-1.374,5.4,5.4,0,0,1-.309-1.884,5.117,5.117,0,0,1,.328-1.884,4.4,4.4,0,0,1,.837-1.41,5.149,5.149,0,0,1,1.374-1.028,9.51,9.51,0,0,1,1.72-.746,19.357,19.357,0,0,1,2.056-.537l2.857-.646a3.166,3.166,0,0,0,1.292-.546,1.082,1.082,0,0,0,.373-.91,1.817,1.817,0,0,0-.846-1.665,3.908,3.908,0,0,0-2.075-.51c-1.983,0-3.12.91-3.385,2.648l-4.312-.773a5.82,5.82,0,0,1,2.52-3.958,9.939,9.939,0,0,1,5.46-1.274q7.28,0,7.279,6.26Zm-8.562,1.756a3.913,3.913,0,0,0,3-1.265,5.256,5.256,0,0,0,1.165-3.722l-4.113,1.2a4.972,4.972,0,0,0-1.738.71,1.447,1.447,0,0,0-.592,1.247,1.631,1.631,0,0,0,.637,1.383A2.681,2.681,0,0,0,1243.309,1303.7Z" transform="translate(-1106.619 -1280.718)"/>
        <path id="Trazado_133423" data-name="Trazado 133423" d="M1270.343,1279.908h4.868v25.933h-4.595l-.118-2.257a5.009,5.009,0,0,1-2.2,1.965,7.454,7.454,0,0,1-3.248.7,8.416,8.416,0,0,1-3.24-.628,7.785,7.785,0,0,1-4.458-4.622,10.455,10.455,0,0,1-.664-3.8,9.857,9.857,0,0,1,1.146-4.832,7.959,7.959,0,0,1,3.03-3.148,8.352,8.352,0,0,1,4.186-1.065,7.689,7.689,0,0,1,3.148.628,4.945,4.945,0,0,1,2.166,1.82Zm-4.2,22.3a4.313,4.313,0,0,0,3.285-1.383,5.685,5.685,0,0,0,0-7.28,4.31,4.31,0,0,0-3.276-1.392,4.357,4.357,0,0,0-3.3,1.374,5.778,5.778,0,0,0,0,7.279,4.393,4.393,0,0,0,3.294,1.4Z" transform="translate(-1108.448 -1279.908)"/>
        <path id="Trazado_133424" data-name="Trazado 133424" d="M1290.512,1306.994a10.934,10.934,0,0,1-4.914-1.065,7.914,7.914,0,0,1-3.367-3.121,9.27,9.27,0,0,1-1.238-4.841,8.492,8.492,0,0,1,2.63-6.588,11.019,11.019,0,0,1,13.758,0,9.566,9.566,0,0,1,0,13.194A9.748,9.748,0,0,1,1290.512,1306.994Zm-.046-3.867a4.471,4.471,0,0,0,3.431-1.383,6.013,6.013,0,0,0,0-7.5,4.436,4.436,0,0,0-3.431-1.419,4.285,4.285,0,0,0-3.339,1.429,6.062,6.062,0,0,0,0,7.48,4.316,4.316,0,0,0,3.339,1.392Z" transform="translate(-1110.636 -1280.724)"/>
      </g>
      <g id="Grupo_63649" data-name="Grupo 63649" transform="translate(33.967 137.327)">
        <path id="Trazado_133425" data-name="Trazado 133425" d="M1103.611,1387.36a5.425,5.425,0,0,1-1.974-.355,5.14,5.14,0,0,1-1.583-1.01,4.57,4.57,0,0,1-1.046-1.629,6.224,6.224,0,0,1,0-4.295,4.642,4.642,0,0,1,1.055-1.629,4.966,4.966,0,0,1,1.574-1.01,5.386,5.386,0,0,1,1.974-.355,5.274,5.274,0,0,1,1.947.364,4.544,4.544,0,0,1,2.639,2.63,5.775,5.775,0,0,1,.382,2.138,5.894,5.894,0,0,1-.382,2.156,4.751,4.751,0,0,1-1.056,1.629,4.922,4.922,0,0,1-1.583,1.01A5.309,5.309,0,0,1,1103.611,1387.36Zm0-1.2a3.639,3.639,0,0,0,2.648-1.056,3.946,3.946,0,0,0,1.047-2.893,4.531,4.531,0,0,0-.291-1.656,3.305,3.305,0,0,0-1.956-1.993,4.145,4.145,0,0,0-2.912,0,3.467,3.467,0,0,0-1.174.755,3.374,3.374,0,0,0-.792,1.237,4.569,4.569,0,0,0-.291,1.656,4.722,4.722,0,0,0,.291,1.683,3.431,3.431,0,0,0,.792,1.247,3.655,3.655,0,0,0,1.174.755,4.087,4.087,0,0,0,1.465.264Z" transform="translate(-1098.152 -1376.941)"/>
        <path id="Trazado_133426" data-name="Trazado 133426" d="M1115.626,1380.4a3.135,3.135,0,0,1,1.265.264,3.035,3.035,0,0,1,1.037.71,3.451,3.451,0,0,1,.7,1.156,4.252,4.252,0,0,1,.255,1.51,3.711,3.711,0,0,1-.91,2.639,3.068,3.068,0,0,1-2.32,1,2.789,2.789,0,0,1-1.465-.4,2.652,2.652,0,0,1-1-1.074v4.841H1111.9v-10.51h1.192v1.365a2.5,2.5,0,0,1,.992-1.092A2.77,2.77,0,0,1,1115.626,1380.4Zm-.246,6.206a2.1,2.1,0,0,0,1.62-.7,2.983,2.983,0,0,0,0-3.731,2.1,2.1,0,0,0-1.62-.7,2.144,2.144,0,0,0-1.638.728,2.848,2.848,0,0,0,0,3.64,2.126,2.126,0,0,0,1.6.764Z" transform="translate(-1099.347 -1377.24)"/>
        <path id="Trazado_133427" data-name="Trazado 133427" d="M1123.8,1387.307a1.824,1.824,0,0,1-1.365-.5,1.886,1.886,0,0,1-.5-1.392V1381.3h-1.429v-.983h.528a1.031,1.031,0,0,0,.774-.246,1.221,1.221,0,0,0,.218-.819v-1.247h1.146v2.329h1.61v.983h-1.61v3.967a1.042,1.042,0,0,0,.273.764.916.916,0,0,0,.692.273h.646v.983Z" transform="translate(-1100.122 -1377.025)"/>
        <path id="Trazado_133428" data-name="Trazado 133428" d="M1127.762,1378.584a.837.837,0,0,1-.837-.837h0a.792.792,0,0,1,.245-.582.846.846,0,0,1,1.174,0,.777.777,0,0,1,.237.582.818.818,0,0,1-.8.836Zm-.628,8.626v-6.988h1.237v6.988Z" transform="translate(-1100.701 -1376.928)"/>
        <path id="Trazado_133429" data-name="Trazado 133429" d="M1138.408,1380.4a2.236,2.236,0,0,1,1.629.6,2.189,2.189,0,0,1,.619,1.665v4.859h-1.228v-4.55a1.588,1.588,0,0,0-.382-1.156,1.314,1.314,0,0,0-.974-.382,1.364,1.364,0,0,0-1.065.437,1.874,1.874,0,0,0-.409,1.319v4.322h-1.256v-4.486a1.654,1.654,0,0,0-.382-1.192,1.3,1.3,0,0,0-.992-.4,1.363,1.363,0,0,0-1.065.446,1.966,1.966,0,0,0-.409,1.356v4.277h-1.228v-6.988h1.228v.91a2.177,2.177,0,0,1,.8-.773,2.246,2.246,0,0,1,1.11-.273,2.348,2.348,0,0,1,1.2.3,1.814,1.814,0,0,1,.773.846,2.139,2.139,0,0,1,.837-.846A2.342,2.342,0,0,1,1138.408,1380.4Z" transform="translate(-1101.092 -1377.24)"/>
        <path id="Trazado_133430" data-name="Trazado 133430" d="M1144.812,1378.584a.837.837,0,0,1-.837-.837h0a.793.793,0,0,1,.246-.582.835.835,0,0,1,.592-.237.8.8,0,0,1,.573.237.79.79,0,0,1,.246.582.807.807,0,0,1-.246.592A.783.783,0,0,1,1144.812,1378.584Zm-.628,8.626v-6.988h1.238v6.988Z" transform="translate(-1102.236 -1376.928)"/>
        <path id="Trazado_133431" data-name="Trazado 133431" d="M1150.469,1387.661a3.306,3.306,0,0,1-1.884-.5,2.081,2.081,0,0,1-.91-1.438l1.074-.309a1.479,1.479,0,0,0,.573.974,1.825,1.825,0,0,0,1.147.346,2.592,2.592,0,0,0,.673-.091,1.1,1.1,0,0,0,.51-.346.908.908,0,0,0,.209-.637,1.321,1.321,0,0,0-.055-.291,1.219,1.219,0,0,0-.118-.228.5.5,0,0,0-.2-.191,1.844,1.844,0,0,0-.237-.155l-.318-.127-.337-.118-.391-.109-.409-.118c-.291-.091-.528-.173-.719-.255a3.123,3.123,0,0,1-.591-.337,1.367,1.367,0,0,1-.455-.555,1.757,1.757,0,0,1-.155-.783,1.818,1.818,0,0,1,.337-1.11,1.909,1.909,0,0,1,.91-.664,3.437,3.437,0,0,1,1.237-.2,3.047,3.047,0,0,1,1.7.455,1.906,1.906,0,0,1,.846,1.365l-1.01.255a1.325,1.325,0,0,0-.528-.91,1.683,1.683,0,0,0-1-.3,1.707,1.707,0,0,0-.91.245.83.83,0,0,0-.391.755.7.7,0,0,0,.1.382,1.021,1.021,0,0,0,.209.273,1.387,1.387,0,0,0,.382.218l.41.146.519.127h.1c.282.064.5.127.673.182a5.431,5.431,0,0,1,.61.255,1.965,1.965,0,0,1,.537.382,1.732,1.732,0,0,1,.346.546,1.922,1.922,0,0,1,.146.746,1.981,1.981,0,0,1-.218.91,1.687,1.687,0,0,1-.564.646,2.735,2.735,0,0,1-.819.346A3.709,3.709,0,0,1,1150.469,1387.661Z" transform="translate(-1102.57 -1377.242)"/>
        <path id="Trazado_133432" data-name="Trazado 133432" d="M1157.82,1387.307a1.824,1.824,0,0,1-1.365-.5,1.917,1.917,0,0,1-.491-1.392V1381.3h-1.429v-.983h.519a1.016,1.016,0,0,0,.773-.246,1.175,1.175,0,0,0,.227-.819v-1.247h1.146v2.329h1.6v.983h-1.6v3.967a1.032,1.032,0,0,0,.264.764.915.915,0,0,0,.7.273h.637v.983Z" transform="translate(-1103.187 -1377.025)"/>
        <path id="Trazado_133433" data-name="Trazado 133433" d="M1162.644,1387.661a2.337,2.337,0,0,1-1.529-.482,1.712,1.712,0,0,1-.6-1.429,2.012,2.012,0,0,1,.191-.91,1.551,1.551,0,0,1,.573-.637,3.07,3.07,0,0,1,.819-.4,7.123,7.123,0,0,1,1.065-.246l1.128-.191c.409-.073.619-.291.619-.646a1.206,1.206,0,0,0-.437-1.037,1.99,1.99,0,0,0-2.2,0,1.338,1.338,0,0,0-.519.974l-1.11-.227a2.183,2.183,0,0,1,.91-1.5,3.264,3.264,0,0,1,1.911-.5,3.9,3.9,0,0,1,1.01.127,2.648,2.648,0,0,1,.846.391,1.755,1.755,0,0,1,.6.746,2.79,2.79,0,0,1,.218,1.156v2.885a1.18,1.18,0,0,0,.164.728.679.679,0,0,0,.546.191h.118v.91h-.61c-.755,0-1.2-.309-1.329-.91h-.054A2.65,2.65,0,0,1,1162.644,1387.661Zm.291-.992a1.884,1.884,0,0,0,1.5-.673,2.839,2.839,0,0,0,.564-1.82l-1.82.355a2.43,2.43,0,0,0-1.083.391,1.018,1.018,0,0,0-.018,1.529A1.419,1.419,0,0,0,1162.935,1386.67Z" transform="translate(-1103.726 -1377.243)"/>
        <path id="Trazado_133434" data-name="Trazado 133434" d="M1099.4,1406.437v-10.009h1.265v10.009Z" transform="translate(-1098.221 -1378.684)"/>
        <path id="Trazado_133435" data-name="Trazado 133435" d="M1107.189,1399.6a2.422,2.422,0,0,1,1.756.637,2.325,2.325,0,0,1,.664,1.82v4.7h-1.229v-4.422a1.672,1.672,0,0,0-.428-1.256,1.534,1.534,0,0,0-1.1-.4,1.685,1.685,0,0,0-1.238.473,1.919,1.919,0,0,0-.491,1.429v4.177H1103.9v-6.988h1.228v.91A2.321,2.321,0,0,1,1107.189,1399.6Z" transform="translate(-1098.626 -1378.969)"/>
        <path id="Trazado_133436" data-name="Trazado 133436" d="M1117.89,1395.428h1.229v10.919h-1.192v-1.356a2.572,2.572,0,0,1-.992,1.1,2.729,2.729,0,0,1-1.483.409,3.18,3.18,0,0,1-2.3-.992,3.318,3.318,0,0,1-.7-1.147,4.291,4.291,0,0,1-.264-1.5,3.7,3.7,0,0,1,.91-2.63,3.077,3.077,0,0,1,2.32-1.01,2.777,2.777,0,0,1,1.465.4,2.606,2.606,0,0,1,1,1.065Zm-2.2,10.009a2.086,2.086,0,0,0,1.62-.728,2.9,2.9,0,0,0,0-3.64,2.1,2.1,0,0,0-1.62-.737,2.139,2.139,0,0,0-1.638.71,2.63,2.63,0,0,0-.664,1.865,2.6,2.6,0,0,0,.664,1.82,2.145,2.145,0,0,0,1.6.7Z" transform="translate(-1099.373 -1378.594)"/>
        <path id="Trazado_133437" data-name="Trazado 133437" d="M1128.614,1403.092v.337h-5.46a2.454,2.454,0,0,0,.673,1.82,2.191,2.191,0,0,0,1.592.628,2.128,2.128,0,0,0,1.156-.337,2.219,2.219,0,0,0,.8-.91l1.1.236a3.1,3.1,0,0,1-1.21,1.474,3.275,3.275,0,0,1-1.82.546,3.381,3.381,0,0,1-2.548-1,4.142,4.142,0,0,1,0-5.314,3.347,3.347,0,0,1,2.475-.974,3.153,3.153,0,0,1,2.357.91A3.57,3.57,0,0,1,1128.614,1403.092Zm-3.24-2.548a2.132,2.132,0,0,0-1.447.5,2.266,2.266,0,0,0-.737,1.438h4.186a2.08,2.08,0,0,0-.61-1.438,1.961,1.961,0,0,0-1.392-.5Z" transform="translate(-1100.251 -1378.969)"/>
        <path id="Trazado_133438" data-name="Trazado 133438" d="M1135.08,1399.6a3.136,3.136,0,0,1,1.265.264,3.036,3.036,0,0,1,1.037.71,3.449,3.449,0,0,1,.7,1.156,4.27,4.27,0,0,1,.264,1.51,3.7,3.7,0,0,1-.91,2.639,3.068,3.068,0,0,1-2.32,1,2.823,2.823,0,0,1-1.465-.4,2.624,2.624,0,0,1-.992-1.074v4.841H1131.4v-10.51h1.183v1.365a2.519,2.519,0,0,1,1-1.092A2.724,2.724,0,0,1,1135.08,1399.6Zm-.246,6.206a2.1,2.1,0,0,0,1.62-.7,2.982,2.982,0,0,0,0-3.731,2.1,2.1,0,0,0-1.62-.7,2.127,2.127,0,0,0-1.638.737,2.6,2.6,0,0,0-.664,1.82,2.639,2.639,0,0,0,.664,1.82,2.124,2.124,0,0,0,1.638.755Z" transform="translate(-1101.103 -1378.969)"/>
        <path id="Trazado_133439" data-name="Trazado 133439" d="M1147.229,1403.1v.337h-5.46a2.453,2.453,0,0,0,.673,1.82,2.191,2.191,0,0,0,1.592.628,2.112,2.112,0,0,0,1.947-1.265l1.11.237a3.1,3.1,0,0,1-1.192,1.5,3.275,3.275,0,0,1-1.82.546,3.38,3.38,0,0,1-2.511-.974,4.14,4.14,0,0,1,0-5.314,3.347,3.347,0,0,1,2.475-.974,3.153,3.153,0,0,1,2.357.91A3.574,3.574,0,0,1,1147.229,1403.1Zm-3.24-2.548a2.132,2.132,0,0,0-1.447.5,2.265,2.265,0,0,0-.737,1.438h4.186a2.08,2.08,0,0,0-.61-1.438,1.961,1.961,0,0,0-1.392-.5Z" transform="translate(-1101.933 -1378.973)"/>
        <path id="Trazado_133440" data-name="Trazado 133440" d="M1153.3,1399.6a2.423,2.423,0,0,1,1.756.637,2.325,2.325,0,0,1,.664,1.82v4.7h-1.238v-4.422a1.67,1.67,0,0,0-.419-1.256,1.534,1.534,0,0,0-1.1-.4,1.682,1.682,0,0,0-1.237.473,1.92,1.92,0,0,0-.492,1.429v4.177h-1.238v-6.988h1.238v.91A2.321,2.321,0,0,1,1153.3,1399.6Z" transform="translate(-1102.779 -1378.969)"/>
        <path id="Trazado_133441" data-name="Trazado 133441" d="M1164,1395.428h1.229v10.919h-1.192v-1.356a2.573,2.573,0,0,1-.992,1.1,2.785,2.785,0,0,1-1.483.409,3.167,3.167,0,0,1-1.265-.264,3.088,3.088,0,0,1-1.037-.728,3.32,3.32,0,0,1-.7-1.147,4.291,4.291,0,0,1-.264-1.5,3.7,3.7,0,0,1,.91-2.63,3.077,3.077,0,0,1,2.32-1.01,2.776,2.776,0,0,1,1.465.4,2.607,2.607,0,0,1,1,1.065Zm-2.2,10.009a2.087,2.087,0,0,0,1.62-.728,2.9,2.9,0,0,0,0-3.64,2.1,2.1,0,0,0-1.62-.737,2.138,2.138,0,0,0-1.638.71,2.629,2.629,0,0,0-.664,1.865,2.6,2.6,0,0,0,.664,1.82,2.141,2.141,0,0,0,1.638.7Z" transform="translate(-1103.526 -1378.594)"/>
        <path id="Trazado_133442" data-name="Trazado 133442" d="M1169.272,1397.784a.837.837,0,0,1-.837-.837h0a.792.792,0,0,1,.246-.582.836.836,0,0,1,.592-.237.805.805,0,0,1,.573.237.789.789,0,0,1,.246.582.807.807,0,0,1-.246.592A.783.783,0,0,1,1169.272,1397.784Zm-.628,8.626v-6.988h1.21v6.988Z" transform="translate(-1104.439 -1378.657)"/>
        <path id="Trazado_133443" data-name="Trazado 133443" d="M1178.836,1403.095v.337h-5.46a2.453,2.453,0,0,0,.673,1.82,2.169,2.169,0,0,0,1.592.628,2.112,2.112,0,0,0,1.947-1.265l1.11.237a3.1,3.1,0,0,1-1.228,1.492,3.274,3.274,0,0,1-1.82.546,3.38,3.38,0,0,1-2.511-.974,4.141,4.141,0,0,1,0-5.314,3.33,3.33,0,0,1,2.475-.974,3.126,3.126,0,0,1,2.348.91A3.548,3.548,0,0,1,1178.836,1403.095Zm-3.239-2.548a2.163,2.163,0,0,0-1.456.5,2.3,2.3,0,0,0-.728,1.438h4.186a2.08,2.08,0,0,0-.61-1.438,1.961,1.961,0,0,0-1.392-.5Z" transform="translate(-1104.776 -1378.972)"/>
        <path id="Trazado_133444" data-name="Trazado 133444" d="M1184.908,1399.6a2.423,2.423,0,0,1,1.756.637,2.36,2.36,0,0,1,.664,1.82v4.7h-1.237v-4.422a1.67,1.67,0,0,0-.419-1.256,1.534,1.534,0,0,0-1.1-.4,1.7,1.7,0,0,0-1.247.473,1.948,1.948,0,0,0-.482,1.429v4.177H1181.6v-6.988h1.265v.91A2.318,2.318,0,0,1,1184.908,1399.6Z" transform="translate(-1105.625 -1378.969)"/>
        <path id="Trazado_133445" data-name="Trazado 133445" d="M1192.669,1406.506a1.824,1.824,0,0,1-1.365-.5,1.887,1.887,0,0,1-.5-1.392V1400.5h-1.428v-.983h.528a1.031,1.031,0,0,0,.773-.246,1.222,1.222,0,0,0,.218-.819v-1.265h1.147v2.329h1.538v.983h-1.611v3.985a1.069,1.069,0,0,0,.264.764.915.915,0,0,0,.7.273h.646v.983Z" transform="translate(-1106.325 -1378.752)"/>
        <path id="Trazado_133446" data-name="Trazado 133446" d="M1201.949,1403.1v.337h-5.46a2.449,2.449,0,0,0,.664,1.82,2.191,2.191,0,0,0,1.592.628,2.113,2.113,0,0,0,1.956-1.265l1.11.237a3.154,3.154,0,0,1-1.192,1.5,3.274,3.274,0,0,1-1.82.546,3.418,3.418,0,0,1-2.521-.974,4.158,4.158,0,0,1,0-5.314,3.33,3.33,0,0,1,2.475-.974,3.146,3.146,0,0,1,2.348.91A3.536,3.536,0,0,1,1201.949,1403.1Zm-3.23-2.548a2.145,2.145,0,0,0-1.456.5,2.266,2.266,0,0,0-.737,1.438h4.186a2.04,2.04,0,0,0-.61-1.438,1.926,1.926,0,0,0-1.383-.5Z" transform="translate(-1106.861 -1378.973)"/>
        <path id="Trazado_133447" data-name="Trazado 133447" d="M1105.7,1425.637l-.864-2.393h-4.55l-.855,2.393H1098.1l3.685-10.009h1.52l3.694,10.009Zm-4.968-3.512h3.731l-1.911-5.241Z" transform="translate(-1098.105 -1380.413)"/>
        <path id="Trazado_133448" data-name="Trazado 133448" d="M1113.58,1418.948h1.319l-2.848,6.988H1111l-2.83-6.988h1.31l2.047,5.56Z" transform="translate(-1099.012 -1380.712)"/>
        <path id="Trazado_133449" data-name="Trazado 133449" d="M1122.916,1422.3v.337h-5.46a2.449,2.449,0,0,0,.664,1.82,2.267,2.267,0,0,0,2.73.291,2.143,2.143,0,0,0,.792-.91l1.11.237a3.154,3.154,0,0,1-1.192,1.5,3.274,3.274,0,0,1-1.82.546,3.4,3.4,0,0,1-2.521-.974,4.159,4.159,0,0,1,0-5.314,3.331,3.331,0,0,1,2.475-.974,3.146,3.146,0,0,1,2.348.91A3.523,3.523,0,0,1,1122.916,1422.3Zm-3.23-2.548a2.144,2.144,0,0,0-1.456.5,2.265,2.265,0,0,0-.737,1.438h4.186a2.04,2.04,0,0,0-.609-1.438,1.925,1.925,0,0,0-1.411-.5Z" transform="translate(-1099.74 -1380.704)"/>
        <path id="Trazado_133450" data-name="Trazado 133450" d="M1129,1418.8a2.444,2.444,0,0,1,1.756.637,2.365,2.365,0,0,1,.655,1.82v4.7h-1.228v-4.422a1.672,1.672,0,0,0-.428-1.256,1.5,1.5,0,0,0-1.092-.409,1.689,1.689,0,0,0-1.247.482,1.992,1.992,0,0,0-.491,1.429v4.177h-1.229v-6.988h1.229v.91A2.329,2.329,0,0,1,1129,1418.8Z" transform="translate(-1100.59 -1380.699)"/>
        <path id="Trazado_133451" data-name="Trazado 133451" d="M1136.67,1425.7a1.824,1.824,0,0,1-1.365-.5,1.917,1.917,0,0,1-.491-1.392v-4.131h-1.429v-.983h.555a1,1,0,0,0,.773-.246,1.175,1.175,0,0,0,.228-.819v-1.265h1.146v2.329h1.6v.983h-1.6v3.985a1.032,1.032,0,0,0,.264.765.915.915,0,0,0,.7.273h.637v.983Z" transform="translate(-1101.282 -1380.48)"/>
        <path id="Trazado_133452" data-name="Trazado 133452" d="M1144.413,1418.946h1.228v6.988h-1.183v-.91a2.237,2.237,0,0,1-.865.783,2.743,2.743,0,0,1-1.228.273,2.445,2.445,0,0,1-1.756-.628,2.389,2.389,0,0,1-.655-1.82v-4.7h1.229v4.431a1.669,1.669,0,0,0,.428,1.247,1.516,1.516,0,0,0,1.1.419,1.685,1.685,0,0,0,1.238-.482,2.01,2.01,0,0,0,.491-1.429Z" transform="translate(-1101.874 -1380.711)"/>
        <path id="Trazado_133453" data-name="Trazado 133453" d="M1150.16,1420.172a2.133,2.133,0,0,1,.91-.91,2.619,2.619,0,0,1,1.347-.364v1.156a2.321,2.321,0,0,0-1.629.519,2.169,2.169,0,0,0-.555,1.656v3.731h-1.237v-6.988h1.2Z" transform="translate(-1102.688 -1380.708)"/>
        <path id="Trazado_133454" data-name="Trazado 133454" d="M1160.259,1422.3v.337h-5.46a2.453,2.453,0,0,0,.673,1.82,2.192,2.192,0,0,0,1.592.628,2.12,2.12,0,0,0,1.156-.337,2.218,2.218,0,0,0,.8-.91l1.1.237a3.1,3.1,0,0,1-1.192,1.5,3.274,3.274,0,0,1-1.82.546,3.381,3.381,0,0,1-2.511-.974,4.142,4.142,0,0,1,0-5.314,3.346,3.346,0,0,1,2.475-.974,3.152,3.152,0,0,1,2.357.91A3.563,3.563,0,0,1,1160.259,1422.3Zm-3.239-2.548a2.132,2.132,0,0,0-1.447.5,2.266,2.266,0,0,0-.7,1.474h4.186a2.081,2.081,0,0,0-.61-1.438,1.96,1.96,0,0,0-1.429-.537Z" transform="translate(-1103.106 -1380.704)"/>
        <path id="Trazado_133455" data-name="Trazado 133455" d="M1164.233,1420.172a2.129,2.129,0,0,1,.865-.91,2.59,2.59,0,0,1,1.347-.364v1.156a2.3,2.3,0,0,0-1.629.519,2.168,2.168,0,0,0-.555,1.656v3.731h-1.265v-6.988h1.2Z" transform="translate(-1103.949 -1380.708)"/>
        <path id="Trazado_133456" data-name="Trazado 133456" d="M1171.154,1426.059a3.646,3.646,0,0,1-1.82-.437,3.118,3.118,0,0,1-1.256-1.265,3.918,3.918,0,0,1-.464-1.929,3.567,3.567,0,0,1,.992-2.639,3.713,3.713,0,0,1,5.05,0,4,4,0,0,1,0,5.278A3.416,3.416,0,0,1,1171.154,1426.059Zm0-1.019a2.167,2.167,0,0,0,1.656-.719,2.728,2.728,0,0,0,.655-1.893,2.662,2.662,0,0,0-.655-1.884,2.133,2.133,0,0,0-1.656-.719,2.108,2.108,0,0,0-1.638.719,3.082,3.082,0,0,0,0,3.776,2.153,2.153,0,0,0,1.629.719Z" transform="translate(-1104.365 -1380.699)"/>
        <path id="Trazado_133457" data-name="Trazado 133457" d="M1103.611,1444.99a5.425,5.425,0,0,1-1.974-.355,5.138,5.138,0,0,1-1.583-1.01,4.57,4.57,0,0,1-1.046-1.629,6.223,6.223,0,0,1,0-4.295,4.641,4.641,0,0,1,1.055-1.629,4.968,4.968,0,0,1,1.574-1.01,5.386,5.386,0,0,1,1.974-.355,5.035,5.035,0,0,1,2.657.71,4.38,4.38,0,0,1,1.793,1.929l-1.174.482a3.367,3.367,0,0,0-1.31-1.428,3.74,3.74,0,0,0-1.938-.5,4.053,4.053,0,0,0-1.465.264,3.465,3.465,0,0,0-1.174.755,3.376,3.376,0,0,0-.792,1.238,4.565,4.565,0,0,0-.291,1.656,4.673,4.673,0,0,0,.291,1.674,3.39,3.39,0,0,0,.792,1.238,3.493,3.493,0,0,0,1.174.755,3.917,3.917,0,0,0,1.465.273,3.761,3.761,0,0,0,1.938-.51,3.328,3.328,0,0,0,1.31-1.41l1.174.473a4.368,4.368,0,0,1-1.82,1.956A5.146,5.146,0,0,1,1103.611,1444.99Z" transform="translate(-1098.152 -1382.132)"/>
        <path id="Trazado_133458" data-name="Trazado 133458" d="M1112.205,1439.372a2.15,2.15,0,0,1,.91-.91,2.583,2.583,0,0,1,1.338-.364v1.156a2.288,2.288,0,0,0-1.62.519,2.169,2.169,0,0,0-.564,1.656v3.731h-1.274v-6.988h1.2Z" transform="translate(-1099.266 -1382.437)"/>
        <path id="Trazado_133459" data-name="Trazado 133459" d="M1122.339,1441.5v.337h-5.46a2.45,2.45,0,0,0,.664,1.82,2.191,2.191,0,0,0,1.592.628,2.113,2.113,0,0,0,1.956-1.265l1.11.236a3.154,3.154,0,0,1-1.192,1.5,3.273,3.273,0,0,1-1.82.546,3.417,3.417,0,0,1-2.521-.974,4.158,4.158,0,0,1,0-5.314,3.33,3.33,0,0,1,2.475-.974,3.147,3.147,0,0,1,2.348.91A3.536,3.536,0,0,1,1122.339,1441.5Zm-3.23-2.548a2.145,2.145,0,0,0-1.456.5,2.264,2.264,0,0,0-.737,1.438h4.186a2.04,2.04,0,0,0-.61-1.438,1.924,1.924,0,0,0-1.41-.528Z" transform="translate(-1099.691 -1382.431)"/>
        <path id="Trazado_133460" data-name="Trazado 133460" d="M1126.644,1445.292a2.339,2.339,0,0,1-1.529-.482,1.713,1.713,0,0,1-.6-1.429,2.011,2.011,0,0,1,.191-.91,1.55,1.55,0,0,1,.573-.637,3.073,3.073,0,0,1,.819-.4,7.135,7.135,0,0,1,1.065-.246l1.128-.191c.409-.073.619-.291.619-.646a1.206,1.206,0,0,0-.437-1.037,1.99,1.99,0,0,0-2.2,0,1.339,1.339,0,0,0-.519.974l-1.11-.228a2.183,2.183,0,0,1,.91-1.5,3.263,3.263,0,0,1,1.911-.5,3.9,3.9,0,0,1,1.01.127,2.649,2.649,0,0,1,.846.391,1.757,1.757,0,0,1,.6.746,2.792,2.792,0,0,1,.218,1.156v2.884a1.181,1.181,0,0,0,.164.728.679.679,0,0,0,.546.191h.118v.91h-.61c-.755,0-1.2-.309-1.329-.91h-.055A2.651,2.651,0,0,1,1126.644,1445.292Zm.291-.992a1.885,1.885,0,0,0,1.5-.673,2.838,2.838,0,0,0,.564-1.82l-1.82.355a2.428,2.428,0,0,0-1.083.391,1.018,1.018,0,0,0-.018,1.529,1.416,1.416,0,0,0,.855.191Z" transform="translate(-1100.483 -1382.433)"/>
        <path id="Trazado_133461" data-name="Trazado 133461" d="M1135.549,1444.906a1.823,1.823,0,0,1-1.365-.5,1.885,1.885,0,0,1-.5-1.392V1438.9h-1.429v-.983h.528a1.031,1.031,0,0,0,.774-.246,1.222,1.222,0,0,0,.218-.819v-1.265h1.146v2.329h1.647v.983h-1.611v3.985a1.043,1.043,0,0,0,.273.764.917.917,0,0,0,.692.273h.646v.983Z" transform="translate(-1101.181 -1382.211)"/>
        <path id="Trazado_133462" data-name="Trazado 133462" d="M1139.512,1436.184a.837.837,0,0,1-.837-.837h0a.793.793,0,0,1,.246-.582.846.846,0,0,1,1.174,0,.777.777,0,0,1,.237.582.818.818,0,0,1-.8.836Zm-.628,8.626v-6.988h1.238v6.988Z" transform="translate(-1101.759 -1382.116)"/>
        <path id="Trazado_133463" data-name="Trazado 133463" d="M1147.272,1438.148h1.31l-2.839,6.988h-1.028l-2.83-6.988h1.31l2.047,5.56Z" transform="translate(-1102.048 -1382.442)"/>
        <path id="Trazado_133464" data-name="Trazado 133464" d="M1153.433,1445.289a3.648,3.648,0,0,1-1.82-.437,3.09,3.09,0,0,1-1.265-1.265,3.915,3.915,0,0,1-.464-1.929,3.567,3.567,0,0,1,.992-2.639,3.72,3.72,0,0,1,5.059,0,3.635,3.635,0,0,1,.983,2.639,3.555,3.555,0,0,1-.992,2.639A3.4,3.4,0,0,1,1153.433,1445.289Zm0-1.019a2.149,2.149,0,0,0,1.647-.719,2.665,2.665,0,0,0,.664-1.893,2.622,2.622,0,0,0-.664-1.884,2.118,2.118,0,0,0-1.647-.719,2.082,2.082,0,0,0-1.638.719,2.67,2.67,0,0,0-.655,1.884,2.737,2.737,0,0,0,.655,1.893,2.125,2.125,0,0,0,1.629.692Z" transform="translate(-1102.768 -1382.431)"/>
        <path id="Trazado_133465" data-name="Trazado 133465" d="M1099.4,1464.017v-10.009h3.221a4.789,4.789,0,0,1,2.548.646,3.913,3.913,0,0,1,1.565,1.765,6.167,6.167,0,0,1,.51,2.584,6.724,6.724,0,0,1-.291,2.029,4.739,4.739,0,0,1-.864,1.583,3.8,3.8,0,0,1-1.456,1.037,5.242,5.242,0,0,1-2.011.364Zm1.265-1.156h1.92a3.05,3.05,0,0,0,2.493-1.028,5.122,5.122,0,0,0,0-5.642,3.053,3.053,0,0,0-2.493-1.019h-1.92Z" transform="translate(-1098.221 -1383.87)"/>
        <path id="Trazado_133466" data-name="Trazado 133466" d="M1110.992,1455.384a.837.837,0,0,1-.837-.837h0a.792.792,0,0,1,.246-.582.834.834,0,0,1,.591-.237.8.8,0,0,1,.573.237.788.788,0,0,1,.246.582.806.806,0,0,1-.246.591A.783.783,0,0,1,1110.992,1455.384Zm-.628,8.626v-6.988h1.238v6.97Z" transform="translate(-1099.19 -1383.845)"/>
        <path id="Trazado_133467" data-name="Trazado 133467" d="M1118.75,1457.346h1.31l-2.839,6.97h-1.047l-2.83-6.988h1.31l2.047,5.56Z" transform="translate(-1099.478 -1384.169)"/>
        <path id="Trazado_133468" data-name="Trazado 133468" d="M1128.089,1460.665V1461h-5.46a2.454,2.454,0,0,0,.673,1.82,2.169,2.169,0,0,0,1.592.628,2.112,2.112,0,0,0,1.947-1.265l1.11.237a3.1,3.1,0,0,1-1.192,1.5,3.274,3.274,0,0,1-1.82.546,3.38,3.38,0,0,1-2.511-.974,4.141,4.141,0,0,1,0-5.314,3.33,3.33,0,0,1,2.475-.974,3.126,3.126,0,0,1,2.348.91A3.53,3.53,0,0,1,1128.089,1460.665Zm-3.239-2.548a2.161,2.161,0,0,0-1.456.5,2.306,2.306,0,0,0-.728,1.438h4.186a2.08,2.08,0,0,0-.61-1.438,1.959,1.959,0,0,0-1.392-.473Z" transform="translate(-1100.209 -1384.158)"/>
        <path id="Trazado_133469" data-name="Trazado 133469" d="M1132.06,1458.572a2.151,2.151,0,0,1,.91-.91,2.584,2.584,0,0,1,1.338-.364v1.156a2.288,2.288,0,0,0-1.62.519,2.168,2.168,0,0,0-.555,1.656v3.685H1130.9v-6.988h1.2Z" transform="translate(-1101.058 -1384.166)"/>
        <path id="Trazado_133470" data-name="Trazado 133470" d="M1138.769,1464.086a1.824,1.824,0,0,1-1.365-.5,1.886,1.886,0,0,1-.5-1.392v-4.113h-1.429v-.983H1136a1.031,1.031,0,0,0,.773-.246,1.221,1.221,0,0,0,.218-.819v-1.265h1.146v2.33h1.611v.983h-1.611v3.986a1.069,1.069,0,0,0,.264.764.916.916,0,0,0,.7.273h.646v.983Z" transform="translate(-1101.471 -1383.938)"/>
        <path id="Trazado_133471" data-name="Trazado 133471" d="M1142.732,1455.384a.837.837,0,0,1-.837-.837h0a.792.792,0,0,1,.246-.582.835.835,0,0,1,.591-.237.8.8,0,0,1,.573.237.789.789,0,0,1,.246.582.806.806,0,0,1-.246.591A.783.783,0,0,1,1142.732,1455.384Zm-.628,8.626v-6.988h1.237v6.97Z" transform="translate(-1102.049 -1383.845)"/>
        <path id="Trazado_133472" data-name="Trazado 133472" d="M1151.344,1453.008h1.229v10.919h-1.147v-1.356a2.606,2.606,0,0,1-1,1.1,2.736,2.736,0,0,1-1.474.409,3.216,3.216,0,0,1-2.311-.992,3.409,3.409,0,0,1-.7-1.156,4.2,4.2,0,0,1-.264-1.492,3.641,3.641,0,0,1,.956-2.63,3.05,3.05,0,0,1,2.32-1.01,2.717,2.717,0,0,1,1.456.4,2.548,2.548,0,0,1,1,1.064Zm-2.2,10.009a2.065,2.065,0,0,0,1.62-.728,2.874,2.874,0,0,0,0-3.64,2.088,2.088,0,0,0-1.62-.737,2.164,2.164,0,0,0-1.638.71,2.669,2.669,0,0,0-.655,1.865,2.636,2.636,0,0,0,.655,1.82A2.171,2.171,0,0,0,1149.141,1463.017Z" transform="translate(-1102.389 -1383.78)"/>
        <path id="Trazado_133473" data-name="Trazado 133473" d="M1158.893,1464.459a3.647,3.647,0,0,1-1.82-.437,3.092,3.092,0,0,1-1.265-1.265,3.917,3.917,0,0,1-.464-1.929,3.568,3.568,0,0,1,.992-2.639,3.721,3.721,0,0,1,5.059,0,3.634,3.634,0,0,1,.983,2.639,3.554,3.554,0,0,1-.992,2.639A3.394,3.394,0,0,1,1158.893,1464.459Zm0-1.019a2.185,2.185,0,0,0,1.656-.719,2.727,2.727,0,0,0,.655-1.893,2.661,2.661,0,0,0-.655-1.884,2.145,2.145,0,0,0-1.656-.719,2.1,2.1,0,0,0-1.638.719,2.671,2.671,0,0,0-.655,1.884,2.738,2.738,0,0,0,.655,1.893,2.133,2.133,0,0,0,1.629.719Z" transform="translate(-1103.26 -1384.157)"/>
      </g>
      <g id="Grupo_63650" data-name="Grupo 63650" transform="translate(34.896 106.08)">
        <path id="Trazado_133474" data-name="Trazado 133474" d="M1103.4,1343.118a3.1,3.1,0,0,1,2.366.91,3.351,3.351,0,0,1,.91,2.366,3.194,3.194,0,0,1-.91,2.348,3.122,3.122,0,0,1-2.366.91h-2.147v3.64h-2.129v-10.173Zm-.364,4.8a1.529,1.529,0,0,0,1.174-.4,1.5,1.5,0,0,0,.391-1.11,1.525,1.525,0,0,0-.391-1.1,1.553,1.553,0,0,0-1.174-.409h-1.82v3.021Z" transform="translate(-1099.125 -1342.635)"/>
        <path id="Trazado_133475" data-name="Trazado 133475" d="M1112.149,1353.82a4.7,4.7,0,0,1-2.066-.446,3.379,3.379,0,0,1-1.42-1.319,3.886,3.886,0,0,1-.519-2.038,3.641,3.641,0,0,1,1.11-2.73,4.631,4.631,0,0,1,5.8,0,4.039,4.039,0,0,1,0,5.56A4.15,4.15,0,0,1,1112.149,1353.82Zm0-1.629a1.886,1.886,0,0,0,1.447-.6,2.218,2.218,0,0,0,.546-1.574,2.262,2.262,0,0,0-.546-1.583,1.907,1.907,0,0,0-1.447-.591,1.82,1.82,0,0,0-1.4.6,2.54,2.54,0,0,0,0,3.148,1.823,1.823,0,0,0,1.383.6Z" transform="translate(-1099.937 -1342.919)"/>
        <path id="Trazado_133476" data-name="Trazado 133476" d="M1121.141,1353.816a4.165,4.165,0,0,1-2.138-.51,2.187,2.187,0,0,1-1.037-1.529l1.711-.482a1.376,1.376,0,0,0,1.465,1.092,1.441,1.441,0,0,0,.746-.173.574.574,0,0,0,.291-.564.623.623,0,0,0-.118-.373,1.1,1.1,0,0,0-.373-.273l-.5-.191-.655-.191a7.026,7.026,0,0,1-.673-.209,4.428,4.428,0,0,1-.646-.273,2.518,2.518,0,0,1-.528-.373,1.535,1.535,0,0,1-.4-.573,2.115,2.115,0,0,1-.136-.782,1.874,1.874,0,0,1,.792-1.638,3.579,3.579,0,0,1,2.074-.555,3.635,3.635,0,0,1,1.911.473,2.106,2.106,0,0,1,.983,1.465l-1.592.355a1.227,1.227,0,0,0-1.292-.91,1.393,1.393,0,0,0-.719.164.538.538,0,0,0-.291.491.587.587,0,0,0,0,.218.447.447,0,0,0,.146.173l.209.136a1.417,1.417,0,0,0,.291.118l.318.091.373.1.382.1c.264.073.491.136.691.209a4.68,4.68,0,0,1,.628.3,2.4,2.4,0,0,1,.546.428,2.061,2.061,0,0,1,.364.61,2.249,2.249,0,0,1,.136.81,2.165,2.165,0,0,1-.246,1.056,1.821,1.821,0,0,1-.673.719,3.234,3.234,0,0,1-.91.382A4.993,4.993,0,0,1,1121.141,1353.816Z" transform="translate(-1100.822 -1342.915)"/>
        <path id="Trazado_133477" data-name="Trazado 133477" d="M1127.407,1344.945a1.179,1.179,0,0,1-.868-1.98l.031-.031a1.163,1.163,0,0,1,.837-.346,1.183,1.183,0,0,1,0,2.357Zm-1.047,8.4v-7.279h2.066v7.279Z" transform="translate(-1101.565 -1342.588)"/>
        <path id="Trazado_133478" data-name="Trazado 133478" d="M1133.631,1353.451a2.236,2.236,0,0,1-1.656-.591,2.335,2.335,0,0,1-.582-1.693v-3.448h-1.438v-1.574h.464a1.2,1.2,0,0,0,.91-.3,1.571,1.571,0,0,0,.291-1.092v-.965h1.82v2.357h1.51v1.574h-1.51v3.23c0,.637.282.91.846.91h.664v1.556Z" transform="translate(-1101.902 -1342.696)"/>
        <path id="Trazado_133479" data-name="Trazado 133479" d="M1138.218,1344.945a1.149,1.149,0,0,1-.837-.346,1.117,1.117,0,0,1-.346-.837,1.137,1.137,0,0,1,.346-.828,1.172,1.172,0,0,1,.837-.346,1.147,1.147,0,0,1,.828.346,1.173,1.173,0,0,1,.005,1.66l-.005.005A1.153,1.153,0,0,1,1138.218,1344.945Zm-1.046,8.4v-7.279h2.066v7.279Z" transform="translate(-1102.539 -1342.588)"/>
        <path id="Trazado_133480" data-name="Trazado 133480" d="M1146.417,1346.378h2.175l-3.121,7.279h-1.82l-3.076-7.279h2.2l1.82,5Z" transform="translate(-1102.858 -1342.929)"/>
        <path id="Trazado_133481" data-name="Trazado 133481" d="M1153.6,1353.82a4.724,4.724,0,0,1-2.075-.446,3.307,3.307,0,0,1-1.41-1.319,3.886,3.886,0,0,1-.519-2.038,3.557,3.557,0,0,1,1.11-2.73,4.613,4.613,0,0,1,5.787,0,4.039,4.039,0,0,1,0,5.56A4.135,4.135,0,0,1,1153.6,1353.82Zm0-1.629a1.82,1.82,0,0,0,1.447-.6,2.19,2.19,0,0,0,.555-1.574,2.224,2.224,0,0,0-.555-1.583,1.88,1.88,0,0,0-1.447-.582,1.819,1.819,0,0,0-1.4.6,2.54,2.54,0,0,0,0,3.148A1.822,1.822,0,0,0,1153.6,1352.192Z" transform="translate(-1103.67 -1342.919)"/>
      </g>
      <g id="Grupo_63651" data-name="Grupo 63651" transform="translate(149.038 137.137)">
        <path id="Trazado_133482" data-name="Trazado 133482" d="M1228.362,1377.228a2.938,2.938,0,0,1,1.574.419,2.779,2.779,0,0,1,1.047,1.11,3.257,3.257,0,0,1,.373,1.547,3.055,3.055,0,0,1-.828,2.175,2.85,2.85,0,0,1-2.166.91h-2.493v3.885h-1.274v-10.009Zm-.182,5.014a1.82,1.82,0,0,0,1.392-.537,2.219,2.219,0,0,0,0-2.83,1.817,1.817,0,0,0-1.392-.546h-2.311v3.913Z" transform="translate(-1224.568 -1376.764)"/>
        <path id="Trazado_133483" data-name="Trazado 133483" d="M1235.326,1381.772a2.131,2.131,0,0,1,.865-.91,2.621,2.621,0,0,1,1.347-.364v1.156a2.321,2.321,0,0,0-1.629.519,2.168,2.168,0,0,0-.555,1.656v3.731h-1.228v-6.988h1.2Z" transform="translate(-1225.426 -1377.058)"/>
        <path id="Trazado_133484" data-name="Trazado 133484" d="M1240.063,1378.584a.8.8,0,0,1-.582-.246.814.814,0,0,1-.246-.592.793.793,0,0,1,.246-.582.836.836,0,0,1,1.165,0,.79.79,0,0,1,.246.582.807.807,0,0,1-.246.592A.794.794,0,0,1,1240.063,1378.584Zm-.628,8.626v-6.988h1.238v6.988Z" transform="translate(-1225.886 -1376.737)"/>
        <path id="Trazado_133485" data-name="Trazado 133485" d="M1247.82,1380.548h1.319l-2.848,6.988h-1.046l-2.83-6.988h1.31l2.047,5.56Z" transform="translate(-1226.173 -1377.063)"/>
        <path id="Trazado_133486" data-name="Trazado 133486" d="M1252.663,1387.661a2.4,2.4,0,0,1-1.538-.482,1.712,1.712,0,0,1-.6-1.429,2.009,2.009,0,0,1,.191-.91,1.55,1.55,0,0,1,.573-.637,3.369,3.369,0,0,1,.819-.4,9.158,9.158,0,0,1,1.065-.255l1.128-.182c.409-.073.619-.291.619-.646a1.206,1.206,0,0,0-.437-1.037,1.725,1.725,0,0,0-1.1-.337,1.866,1.866,0,0,0-1.1.318,1.375,1.375,0,0,0-.519.983l-1.11-.237a2.184,2.184,0,0,1,.91-1.492,3.272,3.272,0,0,1,1.911-.5,3.825,3.825,0,0,1,1.01.127,2.554,2.554,0,0,1,.846.391,1.708,1.708,0,0,1,.61.746,2.951,2.951,0,0,1,.209,1.156v2.885a1.181,1.181,0,0,0,.164.728.693.693,0,0,0,.555.191h.109v.91h-.61a1.157,1.157,0,0,1-1.319-.91h-.064A2.666,2.666,0,0,1,1252.663,1387.661Zm.282-.992a1.868,1.868,0,0,0,1.5-.682,2.8,2.8,0,0,0,.564-1.82l-1.82.355a2.483,2.483,0,0,0-1.083.391,1.018,1.018,0,0,0-.018,1.529A1.415,1.415,0,0,0,1252.945,1386.669Z" transform="translate(-1226.903 -1377.051)"/>
        <path id="Trazado_133487" data-name="Trazado 133487" d="M1262.17,1387.65a3.347,3.347,0,0,1-2.5-1,3.969,3.969,0,0,1,0-5.241,3.64,3.64,0,0,1,4.55-.391,3.025,3.025,0,0,1,1.174,1.692l-1.146.191a2.091,2.091,0,0,0-2.057-1.474,2.064,2.064,0,0,0-1.62.719,3.1,3.1,0,0,0,0,3.758,2.07,2.07,0,0,0,1.62.719,2.093,2.093,0,0,0,2.057-1.474l1.146.191a3.019,3.019,0,0,1-1.183,1.7A3.385,3.385,0,0,1,1262.17,1387.65Z" transform="translate(-1227.637 -1377.049)"/>
        <path id="Trazado_133488" data-name="Trazado 133488" d="M1268.623,1378.584a.8.8,0,0,1-.583-.246.814.814,0,0,1-.246-.592.793.793,0,0,1,.246-.582.836.836,0,0,1,1.165,0,.789.789,0,0,1,.246.582.807.807,0,0,1-.246.592A.793.793,0,0,1,1268.623,1378.584Zm-.619,8.626v-6.988h1.228v6.988Z" transform="translate(-1228.458 -1376.737)"/>
        <path id="Trazado_133489" data-name="Trazado 133489" d="M1275.015,1387.328a3.65,3.65,0,0,1-1.82-.437,3.14,3.14,0,0,1-1.247-1.265,3.916,3.916,0,0,1-.464-1.929,3.64,3.64,0,0,1,.992-2.639,3.721,3.721,0,0,1,5.059,0,4,4,0,0,1,0,5.278A3.432,3.432,0,0,1,1275.015,1387.328Zm0-1.019a2.168,2.168,0,0,0,1.656-.719,2.728,2.728,0,0,0,.655-1.893,2.662,2.662,0,0,0-.655-1.883,2.132,2.132,0,0,0-1.656-.719,2.108,2.108,0,0,0-1.638.719,2.668,2.668,0,0,0-.646,1.883,2.732,2.732,0,0,0,.646,1.893,2.154,2.154,0,0,0,1.629.719Zm-.464-7.28,1.82-2.311.655.473-1.592,1.82Z" transform="translate(-1228.791 -1376.718)"/>
        <path id="Trazado_133490" data-name="Trazado 133490" d="M1284.668,1380.4a2.423,2.423,0,0,1,1.756.637,2.365,2.365,0,0,1,.655,1.82v4.7h-1.228v-4.431a1.625,1.625,0,0,0-.428-1.247,1.5,1.5,0,0,0-1.092-.409,1.706,1.706,0,0,0-1.247.482,1.947,1.947,0,0,0-.482,1.428v4.177h-1.238v-6.988h1.238v.91A2.321,2.321,0,0,1,1284.668,1380.4Z" transform="translate(-1229.681 -1377.049)"/>
        <path id="Trazado_133491" data-name="Trazado 133491" d="M1229.988,1397.593h-4.122v3.267h3.64v1.156h-3.64v4.422h-1.3v-10.009h5.414Z" transform="translate(-1224.565 -1378.493)"/>
        <path id="Trazado_133492" data-name="Trazado 133492" d="M1233.73,1400.972a2.152,2.152,0,0,1,.91-.91,2.585,2.585,0,0,1,1.338-.364v1.156a2.288,2.288,0,0,0-1.62.519,2.169,2.169,0,0,0-.564,1.656v3.731h-1.229v-6.988h1.2Z" transform="translate(-1225.286 -1378.788)"/>
        <path id="Trazado_133493" data-name="Trazado 133493" d="M1242.2,1399.746h1.228v6.988h-1.174v-.91a2.176,2.176,0,0,1-.864.782,2.654,2.654,0,0,1-1.219.273,2.452,2.452,0,0,1-1.765-.628,2.388,2.388,0,0,1-.655-1.82v-4.7h1.228v4.431a1.641,1.641,0,0,0,.437,1.247,1.479,1.479,0,0,0,1.092.419,1.711,1.711,0,0,0,1.247-.482,1.961,1.961,0,0,0,.482-1.429Z" transform="translate(-1225.752 -1378.79)"/>
        <path id="Trazado_133494" data-name="Trazado 133494" d="M1248.9,1406.861a3.306,3.306,0,0,1-1.884-.5,2.1,2.1,0,0,1-.91-1.438l1.074-.309a1.552,1.552,0,0,0,.573.974,1.892,1.892,0,0,0,1.147.346,2.587,2.587,0,0,0,.673-.091,1.17,1.17,0,0,0,.519-.346.989.989,0,0,0,.209-.637.935.935,0,0,0-.064-.291,1.014,1.014,0,0,0-.109-.228.569.569,0,0,0-.2-.191,1.958,1.958,0,0,0-.246-.155,1.791,1.791,0,0,0-.309-.127l-.346-.118-.391-.109-.4-.118c-.291-.091-.537-.173-.728-.255a3.41,3.41,0,0,1-.592-.337,1.366,1.366,0,0,1-.455-.555,1.9,1.9,0,0,1-.155-.783,1.824,1.824,0,0,1,.346-1.11,1.893,1.893,0,0,1,.91-.664,3.479,3.479,0,0,1,1.238-.2,3.033,3.033,0,0,1,1.7.455,1.942,1.942,0,0,1,.855,1.365l-1.01.255a1.3,1.3,0,0,0-.537-.91,1.653,1.653,0,0,0-1-.3,1.736,1.736,0,0,0-.91.246.829.829,0,0,0-.391.755.783.783,0,0,0,.1.382,1.557,1.557,0,0,0,.209.273,1.173,1.173,0,0,0,.391.209,3.55,3.55,0,0,0,.409.155l.51.127h.109l.673.191a4.784,4.784,0,0,1,.6.255,2.149,2.149,0,0,1,.546.382,1.907,1.907,0,0,1,.482,1.292,2.091,2.091,0,0,1-.209.91,1.637,1.637,0,0,1-.573.646,2.73,2.73,0,0,1-.81.346A3.8,3.8,0,0,1,1248.9,1406.861Z" transform="translate(-1226.505 -1378.78)"/>
        <path id="Trazado_133495" data-name="Trazado 133495" d="M1256.262,1406.506a1.824,1.824,0,0,1-1.365-.5,1.886,1.886,0,0,1-.5-1.392V1400.5h-1.4v-.983h.528a1.031,1.031,0,0,0,.774-.246,1.222,1.222,0,0,0,.218-.819v-1.265h1.146v2.329h1.61v.983h-1.638v3.985a1.069,1.069,0,0,0,.264.764.915.915,0,0,0,.7.273h.646v.983Z" transform="translate(-1227.125 -1378.562)"/>
        <path id="Trazado_133496" data-name="Trazado 133496" d="M1260.816,1400.972a2.129,2.129,0,0,1,.864-.91,2.637,2.637,0,0,1,1.347-.364v1.156a2.32,2.32,0,0,0-1.629.519,2.168,2.168,0,0,0-.555,1.656v3.731h-1.228v-6.988h1.2Z" transform="translate(-1227.722 -1378.788)"/>
        <path id="Trazado_133497" data-name="Trazado 133497" d="M1266.418,1406.857a2.394,2.394,0,0,1-1.483-.519,1.713,1.713,0,0,1-.6-1.429,2.012,2.012,0,0,1,.191-.91,1.551,1.551,0,0,1,.573-.637,3.074,3.074,0,0,1,.819-.4,7.158,7.158,0,0,1,1.065-.246l1.128-.191c.41-.073.619-.291.619-.646a1.207,1.207,0,0,0-.437-1.037,1.753,1.753,0,0,0-1.11-.337,1.818,1.818,0,0,0-1.092.318,1.376,1.376,0,0,0-.519.983l-1.11-.227a2.183,2.183,0,0,1,.91-1.5,3.264,3.264,0,0,1,1.911-.5,3.9,3.9,0,0,1,1.01.127,2.554,2.554,0,0,1,.846.391,1.76,1.76,0,0,1,.6.746,2.8,2.8,0,0,1,.218,1.156v2.884a1.182,1.182,0,0,0,.164.728.679.679,0,0,0,.546.191h.118v.91h-.61c-.755,0-1.2-.309-1.328-.91h-.055A2.649,2.649,0,0,1,1266.418,1406.857Zm.291-.992a1.869,1.869,0,0,0,1.5-.682,2.8,2.8,0,0,0,.564-1.82l-1.82.355a2.429,2.429,0,0,0-1.083.391,1.018,1.018,0,0,0-.018,1.529,1.422,1.422,0,0,0,.9.227Z" transform="translate(-1228.146 -1378.777)"/>
        <path id="Trazado_133498" data-name="Trazado 133498" d="M1275.93,1406.85a3.346,3.346,0,0,1-2.5-1,3.969,3.969,0,0,1,0-5.241,3.619,3.619,0,0,1,4.531-.391,3.026,3.026,0,0,1,1.174,1.693l-1.146.191a2.129,2.129,0,0,0-.792-1.092,2.157,2.157,0,0,0-1.265-.382,2.065,2.065,0,0,0-1.62.719,3.1,3.1,0,0,0,0,3.758,2.069,2.069,0,0,0,1.62.719,2.168,2.168,0,0,0,1.265-.382,2.134,2.134,0,0,0,.792-1.092l1.146.191a3.064,3.064,0,0,1-1.183,1.7A3.382,3.382,0,0,1,1275.93,1406.85Z" transform="translate(-1228.877 -1378.778)"/>
        <path id="Trazado_133499" data-name="Trazado 133499" d="M1282.383,1397.784a.8.8,0,0,1-.582-.246.814.814,0,0,1-.246-.592.792.792,0,0,1,.246-.582.836.836,0,0,1,1.165,0,.789.789,0,0,1,.246.582.807.807,0,0,1-.246.592A.792.792,0,0,1,1282.383,1397.784Zm-.628,8.626v-6.988h1.237v6.988Z" transform="translate(-1229.698 -1378.466)"/>
        <path id="Trazado_133500" data-name="Trazado 133500" d="M1288.773,1406.528a3.648,3.648,0,0,1-1.82-.437,3.145,3.145,0,0,1-1.265-1.265,3.916,3.916,0,0,1-.464-1.929,3.568,3.568,0,0,1,.992-2.639,3.721,3.721,0,0,1,5.059,0,3.635,3.635,0,0,1,.983,2.639,3.555,3.555,0,0,1-.992,2.639A3.394,3.394,0,0,1,1288.773,1406.528Zm0-1.019a2.186,2.186,0,0,0,1.656-.719,2.729,2.729,0,0,0,.655-1.893,2.662,2.662,0,0,0-.655-1.884,2.146,2.146,0,0,0-1.656-.719,2.112,2.112,0,0,0-1.638.719,2.671,2.671,0,0,0-.655,1.884,2.737,2.737,0,0,0,.655,1.893,2.153,2.153,0,0,0,1.629.719Zm-.464-7.28,1.82-2.311.655.473-1.592,1.82Z" transform="translate(-1230.028 -1378.447)"/>
        <path id="Trazado_133501" data-name="Trazado 133501" d="M1298.4,1399.6a2.444,2.444,0,0,1,1.756.637,2.364,2.364,0,0,1,.655,1.82v4.7h-1.265v-4.422a1.672,1.672,0,0,0-.428-1.256,1.5,1.5,0,0,0-1.092-.41,1.708,1.708,0,0,0-1.247.482,1.993,1.993,0,0,0-.491,1.429v4.177h-1.228v-6.988h1.228v.91A2.328,2.328,0,0,1,1298.4,1399.6Z" transform="translate(-1230.915 -1378.778)"/>
        <path id="Trazado_133502" data-name="Trazado 133502" d="M1229.988,1416.793h-4.122v3.267h3.64v1.146h-3.64v4.431h-1.3v-10.009h5.414Z" transform="translate(-1224.565 -1380.223)"/>
        <path id="Trazado_133503" data-name="Trazado 133503" d="M1233.73,1420.172a2.151,2.151,0,0,1,.91-.91,2.585,2.585,0,0,1,1.338-.364v1.156a2.288,2.288,0,0,0-1.62.519,2.169,2.169,0,0,0-.564,1.656v3.731h-1.229v-6.988h1.2Z" transform="translate(-1225.286 -1380.517)"/>
        <path id="Trazado_133504" data-name="Trazado 133504" d="M1238.472,1416.984a.837.837,0,0,1-.837-.837h0a.793.793,0,0,1,.246-.582.835.835,0,0,1,.591-.237.805.805,0,0,1,.573.237.789.789,0,0,1,.246.582.806.806,0,0,1-.246.591A.782.782,0,0,1,1238.472,1416.984Zm-.628,8.626v-6.988h1.238v6.988Z" transform="translate(-1225.742 -1380.195)"/>
        <path id="Trazado_133505" data-name="Trazado 133505" d="M1246.23,1418.948h1.31l-2.839,6.988h-1.046l-2.83-6.988h1.31l2.047,5.56Z" transform="translate(-1226.029 -1380.521)"/>
        <path id="Trazado_133506" data-name="Trazado 133506" d="M1252.383,1426.059a3.646,3.646,0,0,1-1.82-.437,3.091,3.091,0,0,1-1.265-1.265,3.918,3.918,0,0,1-.464-1.929,3.567,3.567,0,0,1,.992-2.639,3.722,3.722,0,0,1,5.059,0,3.634,3.634,0,0,1,.983,2.639,3.554,3.554,0,0,1-.992,2.639A3.4,3.4,0,0,1,1252.383,1426.059Zm0-1.019a2.149,2.149,0,0,0,1.647-.719,2.728,2.728,0,0,0,.664-1.893,2.671,2.671,0,0,0-.664-1.884,2.118,2.118,0,0,0-1.647-.719,2.082,2.082,0,0,0-1.638.719,2.67,2.67,0,0,0-.655,1.884,2.737,2.737,0,0,0,.655,1.893,2.124,2.124,0,0,0,1.638.719Z" transform="translate(-1226.75 -1380.508)"/>
        <path id="Trazado_133507" data-name="Trazado 133507" d="M1258.725,1425.547v-10.919h1.247v10.919Z" transform="translate(-1227.641 -1380.132)"/>
        <path id="Trazado_133508" data-name="Trazado 133508" d="M1263.443,1416.984a.8.8,0,0,1-.582-.246.814.814,0,0,1-.246-.591.793.793,0,0,1,.246-.582.836.836,0,0,1,1.165,0,.79.79,0,0,1,.246.582.807.807,0,0,1-.246.591A.793.793,0,0,1,1263.443,1416.984Zm-.619,8.626v-6.988h1.237v6.988Z" transform="translate(-1227.992 -1380.196)"/>
        <path id="Trazado_133509" data-name="Trazado 133509" d="M1272.062,1414.628h1.247v10.919h-1.192v-1.356a2.572,2.572,0,0,1-.992,1.1,2.785,2.785,0,0,1-1.483.409,3.172,3.172,0,0,1-1.265-.264,3.088,3.088,0,0,1-1.037-.728,3.266,3.266,0,0,1-.7-1.156,4.021,4.021,0,0,1-.264-1.492,3.7,3.7,0,0,1,.91-2.63,3.077,3.077,0,0,1,2.32-1.01,2.777,2.777,0,0,1,1.465.4,2.607,2.607,0,0,1,1,1.065Zm-2.2,10.009a2.11,2.11,0,0,0,1.62-.728,2.9,2.9,0,0,0,0-3.64,2.1,2.1,0,0,0-1.62-.737,2.139,2.139,0,0,0-1.638.71,2.939,2.939,0,0,0,0,3.722,2.143,2.143,0,0,0,1.638.664Z" transform="translate(-1228.33 -1380.132)"/>
        <path id="Trazado_133510" data-name="Trazado 133510" d="M1278.284,1426.061a2.388,2.388,0,0,1-1.529-.482,1.713,1.713,0,0,1-.6-1.429,2.093,2.093,0,0,1,.191-.91,1.617,1.617,0,0,1,.573-.609,3.281,3.281,0,0,1,.828-.4,8.439,8.439,0,0,1,1.055-.255l1.137-.182c.41-.073.619-.291.619-.646a1.207,1.207,0,0,0-.437-1.037,1.752,1.752,0,0,0-1.11-.337,1.817,1.817,0,0,0-1.092.318,1.348,1.348,0,0,0-.519.983l-1.119-.264a2.12,2.12,0,0,1,.91-1.492,3.235,3.235,0,0,1,1.9-.5,3.888,3.888,0,0,1,1.019.127,2.7,2.7,0,0,1,.846.391,1.757,1.757,0,0,1,.6.746,2.793,2.793,0,0,1,.218,1.156v2.885a1.256,1.256,0,0,0,.155.728.692.692,0,0,0,.555.191h.118v.91h-.619a1.166,1.166,0,0,1-1.319-.91h-.109A2.729,2.729,0,0,1,1278.284,1426.061Zm.282-.992a1.821,1.821,0,0,0,1.5-.682,2.728,2.728,0,0,0,.573-1.82l-1.82.355a2.393,2.393,0,0,0-1.083.391,1.018,1.018,0,0,0-.018,1.529,1.408,1.408,0,0,0,.846.227Z" transform="translate(-1229.211 -1380.509)"/>
        <path id="Trazado_133511" data-name="Trazado 133511" d="M1290.062,1414.628h1.247v10.919h-1.192v-1.356a2.574,2.574,0,0,1-.992,1.1,2.785,2.785,0,0,1-1.483.409,3.173,3.173,0,0,1-1.265-.264,3.088,3.088,0,0,1-1.037-.728,3.27,3.27,0,0,1-.7-1.156,4.021,4.021,0,0,1-.264-1.492,3.7,3.7,0,0,1,.91-2.63,3.077,3.077,0,0,1,2.32-1.01,2.777,2.777,0,0,1,1.465.4,2.605,2.605,0,0,1,1,1.065Zm-2.2,10.009a2.11,2.11,0,0,0,1.62-.728,2.9,2.9,0,0,0,0-3.64,2.1,2.1,0,0,0-1.62-.737,2.139,2.139,0,0,0-1.638.71,2.939,2.939,0,0,0,0,3.722,2.143,2.143,0,0,0,1.638.664Z" transform="translate(-1229.951 -1380.132)"/>
        <path id="Trazado_133512" data-name="Trazado 133512" d="M1224.575,1444.837v-10.009h1.292v10.009Z" transform="translate(-1224.566 -1381.952)"/>
        <path id="Trazado_133513" data-name="Trazado 133513" d="M1232.377,1438.008a2.444,2.444,0,0,1,1.756.637,2.364,2.364,0,0,1,.655,1.82v4.7h-1.237v-4.431a1.66,1.66,0,0,0-.428-1.247,1.5,1.5,0,0,0-1.092-.409,1.706,1.706,0,0,0-1.247.482,1.993,1.993,0,0,0-.491,1.428v4.177h-1.229v-6.988h1.229v.91A2.327,2.327,0,0,1,1232.377,1438.008Z" transform="translate(-1224.97 -1382.238)"/>
        <path id="Trazado_133514" data-name="Trazado 133514" d="M1245.111,1438.008a2.235,2.235,0,0,1,1.629.6,2.189,2.189,0,0,1,.619,1.665v4.859h-1.228v-4.55a1.589,1.589,0,0,0-.382-1.156,1.323,1.323,0,0,0-.974-.391,1.37,1.37,0,0,0-1.065.446,1.875,1.875,0,0,0-.41,1.319v4.322h-1.247v-4.5a1.648,1.648,0,0,0-.391-1.183,1.3,1.3,0,0,0-.992-.41,1.375,1.375,0,0,0-1.065.455,1.966,1.966,0,0,0-.41,1.356v4.277h-1.2v-6.988h1.228v.91a2.225,2.225,0,0,1,.8-.764,2.254,2.254,0,0,1,1.11-.273,2.348,2.348,0,0,1,1.2.3,1.809,1.809,0,0,1,.773.846,2.138,2.138,0,0,1,.837-.846A2.352,2.352,0,0,1,1245.111,1438.008Z" transform="translate(-1225.775 -1382.238)"/>
        <path id="Trazado_133515" data-name="Trazado 133515" d="M1252.464,1445.291a2.39,2.39,0,0,1-1.529-.482,1.713,1.713,0,0,1-.6-1.429,2.009,2.009,0,0,1,.191-.91,1.583,1.583,0,0,1,.564-.637,3.29,3.29,0,0,1,.828-.4,8.446,8.446,0,0,1,1.056-.255l1.137-.182c.41-.073.619-.291.619-.646a1.207,1.207,0,0,0-.437-1.037,1.753,1.753,0,0,0-1.11-.337,1.817,1.817,0,0,0-1.092.318,1.321,1.321,0,0,0-.519.983l-1.11-.237a2.122,2.122,0,0,1,.91-1.492,3.235,3.235,0,0,1,1.9-.5,3.892,3.892,0,0,1,1.019.127,2.717,2.717,0,0,1,.846.391,1.758,1.758,0,0,1,.6.746,2.8,2.8,0,0,1,.218,1.156v2.885a1.254,1.254,0,0,0,.155.728.692.692,0,0,0,.555.191h.109v.91h-.61a1.157,1.157,0,0,1-1.319-.91h-.055A2.659,2.659,0,0,1,1252.464,1445.291Zm.282-.992a1.821,1.821,0,0,0,1.5-.682,2.728,2.728,0,0,0,.573-1.82l-1.82.355a2.4,2.4,0,0,0-1.083.391,1.018,1.018,0,0,0-.018,1.529,1.405,1.405,0,0,0,.855.2Z" transform="translate(-1226.886 -1382.241)"/>
        <path id="Trazado_133516" data-name="Trazado 133516" d="M1264.24,1433.828h1.228v10.919h-1.192v-1.356a2.573,2.573,0,0,1-.992,1.1,2.784,2.784,0,0,1-1.483.41,3.171,3.171,0,0,1-1.265-.264,3.088,3.088,0,0,1-1.037-.728,3.269,3.269,0,0,1-.7-1.156,4.019,4.019,0,0,1-.264-1.492,3.7,3.7,0,0,1,.91-2.63,3.074,3.074,0,0,1,2.329-1,2.775,2.775,0,0,1,1.465.4,2.6,2.6,0,0,1,1,1.065Zm-2.211,10.009a2.121,2.121,0,0,0,1.629-.728,2.9,2.9,0,0,0,0-3.64,2.2,2.2,0,0,0-3.258-.027,2.629,2.629,0,0,0-.664,1.865,2.6,2.6,0,0,0,.664,1.82,2.135,2.135,0,0,0,1.629.7Z" transform="translate(-1227.624 -1381.862)"/>
        <path id="Trazado_133517" data-name="Trazado 133517" d="M1273.24,1438.146h1.192v6.988h-1.183v-.91a2.177,2.177,0,0,1-.864.783,2.678,2.678,0,0,1-1.219.273,2.451,2.451,0,0,1-1.765-.628,2.389,2.389,0,0,1-.655-1.82v-4.7h1.228v4.44a1.67,1.67,0,0,0,.428,1.247,1.517,1.517,0,0,0,1.1.419,1.677,1.677,0,0,0,1.237-.482,1.964,1.964,0,0,0,.491-1.429Z" transform="translate(-1228.543 -1382.249)"/>
        <path id="Trazado_133518" data-name="Trazado 133518" d="M1278.986,1439.372a2.127,2.127,0,0,1,.865-.91,2.634,2.634,0,0,1,1.347-.364v1.156a2.288,2.288,0,0,0-1.62.519,2.168,2.168,0,0,0-.564,1.656v3.731h-1.228v-6.988h1.2Z" transform="translate(-1229.358 -1382.246)"/>
        <path id="Trazado_133519" data-name="Trazado 133519" d="M1289.089,1441.493v.337h-5.459a2.448,2.448,0,0,0,.664,1.82,2.19,2.19,0,0,0,1.592.628,2.118,2.118,0,0,0,1.156-.337,2.157,2.157,0,0,0,.8-.91l1.11.237a3.209,3.209,0,0,1-1.192,1.5,3.273,3.273,0,0,1-1.82.546,3.4,3.4,0,0,1-2.521-.974,4.176,4.176,0,0,1,0-5.314,3.366,3.366,0,0,1,2.438-1.019,3.146,3.146,0,0,1,2.348.91A3.526,3.526,0,0,1,1289.089,1441.493Zm-3.23-2.575a2.145,2.145,0,0,0-1.456.5,2.265,2.265,0,0,0-.737,1.438h4.186a2.04,2.04,0,0,0-.61-1.437A1.926,1.926,0,0,0,1285.859,1438.918Z" transform="translate(-1229.78 -1382.238)"/>
        <path id="Trazado_133520" data-name="Trazado 133520" d="M1292.521,1444.145h3.722v.992h-5.578l3.685-5.987h-3.467v-1h5.35Z" transform="translate(-1230.518 -1382.251)"/>
        <path id="Trazado_133521" data-name="Trazado 133521" d="M1224.575,1464.017v-10.009h1.292v10.009Z" transform="translate(-1224.566 -1383.679)"/>
        <path id="Trazado_133522" data-name="Trazado 133522" d="M1233.962,1457.335h1.2v6.633a3.791,3.791,0,0,1-.91,2.73,3.751,3.751,0,0,1-5.887-1.183l1.01-.5a2.322,2.322,0,0,0,2.339,1.62,2.033,2.033,0,0,0,1.647-.682,2.936,2.936,0,0,0,.564-1.911v-1.292a2.482,2.482,0,0,1-1,1.01,3.068,3.068,0,0,1-3.713-.61,3.749,3.749,0,0,1,0-4.959,3.031,3.031,0,0,1,2.275-.983,2.882,2.882,0,0,1,1.465.391,2.551,2.551,0,0,1,.983,1.037Zm-2.211,5.742a2.137,2.137,0,0,0,1.611-.71,2.47,2.47,0,0,0,.664-1.711,2.445,2.445,0,0,0-.664-1.711,2.192,2.192,0,0,0-3.1-.123q-.064.059-.123.123a2.431,2.431,0,0,0-.664,1.738,2.465,2.465,0,0,0,.664,1.729A2.152,2.152,0,0,0,1231.751,1463.077Z" transform="translate(-1224.899 -1383.968)"/>
        <path id="Trazado_133523" data-name="Trazado 133523" d="M1241.889,1457.2a2.424,2.424,0,0,1,1.756.637,2.326,2.326,0,0,1,.664,1.82v4.65h-1.228v-4.432a1.66,1.66,0,0,0-.428-1.247,1.534,1.534,0,0,0-1.1-.409,1.681,1.681,0,0,0-1.238.482,1.919,1.919,0,0,0-.491,1.429v4.177h-1.228v-6.988h1.274v.91A2.33,2.33,0,0,1,1241.889,1457.2Z" transform="translate(-1225.829 -1383.966)"/>
        <path id="Trazado_133524" data-name="Trazado 133524" d="M1250.363,1464.459a3.648,3.648,0,0,1-1.82-.437,3.119,3.119,0,0,1-1.256-1.265,3.821,3.821,0,0,1-.473-1.929,3.644,3.644,0,0,1,.992-2.639,3.72,3.72,0,0,1,5.059,0,3.552,3.552,0,0,1,.992,2.639,3.638,3.638,0,0,1-.992,2.639A3.416,3.416,0,0,1,1250.363,1464.459Zm0-1.019a2.167,2.167,0,0,0,1.656-.719,2.728,2.728,0,0,0,.655-1.893,2.662,2.662,0,0,0-.655-1.884,2.132,2.132,0,0,0-1.656-.719,2.108,2.108,0,0,0-1.638.719,3.082,3.082,0,0,0,0,3.776,2.153,2.153,0,0,0,1.629.719Z" transform="translate(-1226.569 -1383.967)"/>
        <path id="Trazado_133525" data-name="Trazado 133525" d="M1257.881,1458.572a2.133,2.133,0,0,1,.91-.91,2.589,2.589,0,0,1,1.347-.364v1.156a2.3,2.3,0,0,0-1.629.519,2.168,2.168,0,0,0-.555,1.656v3.685h-1.228v-6.988h1.156Z" transform="translate(-1227.461 -1383.976)"/>
        <path id="Trazado_133526" data-name="Trazado 133526" d="M1263.5,1464.462a2.39,2.39,0,0,1-1.529-.482,1.712,1.712,0,0,1-.6-1.429,2.093,2.093,0,0,1,.191-.91,1.626,1.626,0,0,1,.564-.628,3.286,3.286,0,0,1,.828-.4,8.443,8.443,0,0,1,1.056-.255l1.137-.182c.409-.073.619-.291.619-.646a1.187,1.187,0,0,0-.446-1.037,1.724,1.724,0,0,0-1.1-.337,1.817,1.817,0,0,0-1.092.318,1.32,1.32,0,0,0-.519.983l-1.11-.237a2.121,2.121,0,0,1,.91-1.492,3.219,3.219,0,0,1,1.9-.5,3.887,3.887,0,0,1,1.019.127,2.7,2.7,0,0,1,.846.391,1.756,1.756,0,0,1,.6.746,2.793,2.793,0,0,1,.218,1.156v2.839a1.256,1.256,0,0,0,.155.728.692.692,0,0,0,.555.191h.109v.91h-.609a1.157,1.157,0,0,1-1.319-.91h-.055A2.731,2.731,0,0,1,1263.5,1464.462Zm.282-.992a1.821,1.821,0,0,0,1.5-.682,2.729,2.729,0,0,0,.573-1.82l-1.82.355a2.48,2.48,0,0,0-1.092.391,1.027,1.027,0,0,0-.009,1.529,1.412,1.412,0,0,0,.819.228Z" transform="translate(-1227.88 -1383.969)"/>
        <path id="Trazado_133527" data-name="Trazado 133527" d="M1273.668,1457.2a2.444,2.444,0,0,1,1.756.637,2.365,2.365,0,0,1,.655,1.82v4.65h-1.228v-4.432a1.661,1.661,0,0,0-.428-1.247,1.5,1.5,0,0,0-1.092-.409,1.707,1.707,0,0,0-1.247.482,1.992,1.992,0,0,0-.491,1.429v4.177h-1.228v-6.988h1.228v.91A2.328,2.328,0,0,1,1273.668,1457.2Z" transform="translate(-1228.69 -1383.966)"/>
        <path id="Trazado_133528" data-name="Trazado 133528" d="M1282.06,1464.45a3.346,3.346,0,0,1-2.5-1,3.969,3.969,0,0,1,0-5.241,3.64,3.64,0,0,1,4.55-.391,3.025,3.025,0,0,1,1.174,1.692l-1.146.191a2.091,2.091,0,0,0-2.057-1.474,2.064,2.064,0,0,0-1.62.719,3.1,3.1,0,0,0,0,3.758,2.071,2.071,0,0,0,1.62.719,2.093,2.093,0,0,0,2.057-1.474l1.146.191a3.018,3.018,0,0,1-1.183,1.7A3.384,3.384,0,0,1,1282.06,1464.45Z" transform="translate(-1229.429 -1383.966)"/>
        <path id="Trazado_133529" data-name="Trazado 133529" d="M1288.513,1455.386a.8.8,0,0,1-.582-.246.813.813,0,0,1-.246-.591.792.792,0,0,1,.282-.564.836.836,0,0,1,1.165,0,.789.789,0,0,1,.246.582.807.807,0,0,1-.246.591A.792.792,0,0,1,1288.513,1455.386Zm-.619,8.626v-6.988h1.238v6.97Z" transform="translate(-1230.25 -1383.656)"/>
        <path id="Trazado_133530" data-name="Trazado 133530" d="M1293.584,1464.462a2.392,2.392,0,0,1-1.529-.482,1.685,1.685,0,0,1-.6-1.429,2.09,2.09,0,0,1,.191-.91,1.559,1.559,0,0,1,.564-.628,3.374,3.374,0,0,1,.82-.4,9.116,9.116,0,0,1,1.064-.255l1.128-.182c.42-.073.619-.291.619-.646a1.206,1.206,0,0,0-.437-1.037,1.724,1.724,0,0,0-1.1-.337,1.865,1.865,0,0,0-1.1.318,1.375,1.375,0,0,0-.519.983l-1.1-.237a2.122,2.122,0,0,1,.91-1.492,3.22,3.22,0,0,1,1.9-.5,3.819,3.819,0,0,1,1.01.127,2.552,2.552,0,0,1,.846.391,1.709,1.709,0,0,1,.61.746,2.8,2.8,0,0,1,.218,1.156v2.839a1.189,1.189,0,0,0,.155.728.692.692,0,0,0,.555.191h.109v.91h-.61a1.157,1.157,0,0,1-1.319-.91h-.064A2.667,2.667,0,0,1,1293.584,1464.462Zm.282-.992a1.869,1.869,0,0,0,1.5-.682,2.723,2.723,0,0,0,.564-1.82l-1.82.355a2.482,2.482,0,0,0-1.083.391,1.027,1.027,0,0,0-.009,1.529A1.394,1.394,0,0,0,1293.866,1463.47Z" transform="translate(-1230.589 -1383.969)"/>
      </g>
      <g id="Grupo_63652" data-name="Grupo 63652" transform="translate(148.774 106.08)">
        <path id="Trazado_133531" data-name="Trazado 133531" d="M1231.3,1343.118h2.12v10.273h-2.466l-4.55-7.343v7.343h-2.129v-10.273h2.475l4.55,7.28Z" transform="translate(-1224.275 -1342.636)"/>
        <path id="Trazado_133532" data-name="Trazado 133532" d="M1243.744,1349.91v.491h-5.46a1.879,1.879,0,0,0,.582,1.338,1.984,1.984,0,0,0,2.247.209,1.593,1.593,0,0,0,.619-.737l1.874.273a3.241,3.241,0,0,1-1.283,1.72,3.84,3.84,0,0,1-2.156.61,3.953,3.953,0,0,1-2.848-1.01,3.643,3.643,0,0,1-1.056-2.784,3.724,3.724,0,0,1,1.056-2.793,3.848,3.848,0,0,1,2.784-1.019,3.338,3.338,0,0,1,3.646,3,3.289,3.289,0,0,1-.006.7Zm-3.64-2.257a1.619,1.619,0,0,0-1.774,1.411h3.358a1.531,1.531,0,0,0-.51-1.047,1.606,1.606,0,0,0-1.037-.364Z" transform="translate(-1225.354 -1342.912)"/>
        <path id="Trazado_133533" data-name="Trazado 133533" d="M1251.171,1346.361h1.947v6.761a5.444,5.444,0,0,1-.273,1.82,2.937,2.937,0,0,1-.792,1.247,3.329,3.329,0,0,1-1.219.7,5.046,5.046,0,0,1-1.592.228q-2.894,0-3.767-2.266l1.7-.728a2.476,2.476,0,0,0,.782,1.065,2.017,2.017,0,0,0,1.2.337c1.265,0,1.9-.746,1.9-2.257v-.874a2.3,2.3,0,0,1-.91.719,3.1,3.1,0,0,1-1.3.273,3.271,3.271,0,0,1-1.283-.255,3.43,3.43,0,0,1-1.065-.728,3.482,3.482,0,0,1-.719-1.146,4.307,4.307,0,0,1,0-2.966,3.265,3.265,0,0,1,.728-1.128,3.033,3.033,0,0,1,1.065-.71,3.241,3.241,0,0,1,1.292-.264,2.99,2.99,0,0,1,1.356.309,2.086,2.086,0,0,1,.91.8Zm-3.139,4.832a1.772,1.772,0,0,0,1.338.564,1.819,1.819,0,0,0,1.347-.564,2.046,2.046,0,0,0,0-2.784,1.9,1.9,0,0,0-2.689-.041l-.041.041a1.947,1.947,0,0,0-.537,1.4,1.918,1.918,0,0,0,.582,1.383Z" transform="translate(-1226.184 -1342.912)"/>
        <path id="Trazado_133534" data-name="Trazado 133534" d="M1262.149,1351.69a6.885,6.885,0,0,0,.173,1.82v.2h-1.911l-.164-.792a2.366,2.366,0,0,1-1.019.7,3.889,3.889,0,0,1-1.328.237,3.373,3.373,0,0,1-.682-.064,2.456,2.456,0,0,1-.61-.218,1.851,1.851,0,0,1-.51-.382,1.568,1.568,0,0,1-.337-.573,2.4,2.4,0,0,1,0-1.592,2.014,2.014,0,0,1,.355-.591,2.271,2.271,0,0,1,.582-.437,4.563,4.563,0,0,1,.719-.309,8.351,8.351,0,0,1,.91-.228l1.2-.273a1.2,1.2,0,0,0,.537-.228.455.455,0,0,0,.164-.364.771.771,0,0,0-.355-.71,1.807,1.807,0,0,0-.91-.209,1.254,1.254,0,0,0-1.421,1.064c0,.018-.005.036-.007.055l-1.82-.328a2.459,2.459,0,0,1,1.056-1.674,4.225,4.225,0,0,1,2.293-.537q3.077,0,3.076,2.639Zm-3.64.746a1.649,1.649,0,0,0,1.265-.537,2.208,2.208,0,0,0,.491-1.565l-1.738.491a1.938,1.938,0,0,0-.728.3.622.622,0,0,0-.255.528.678.678,0,0,0,.273.573,1.123,1.123,0,0,0,.728.173Z" transform="translate(-1227.099 -1342.918)"/>
        <path id="Trazado_133535" data-name="Trazado 133535" d="M1267.5,1353.451a2.215,2.215,0,0,1-1.647-.591,2.3,2.3,0,0,1-.582-1.693v-3.448h-1.438v-1.574h.464a1.233,1.233,0,0,0,.91-.3,1.616,1.616,0,0,0,.291-1.092v-.965h1.82v2.357h1.5v1.574h-1.474v3.23c0,.637.282.91.846.91h.655v1.556Z" transform="translate(-1227.838 -1342.696)"/>
        <path id="Trazado_133536" data-name="Trazado 133536" d="M1272.118,1344.945a1.17,1.17,0,0,1-.837-.346,1.15,1.15,0,0,1-.346-.837,1.121,1.121,0,0,1,.355-.828,1.166,1.166,0,0,1,1.648-.009l.008.009a1.173,1.173,0,0,1,.005,1.66l-.005.005A1.138,1.138,0,0,1,1272.118,1344.945Zm-1.037,8.4v-7.279h2.056v7.279Z" transform="translate(-1228.478 -1342.588)"/>
        <path id="Trazado_133537" data-name="Trazado 133537" d="M1280.337,1346.378h2.166l-3.112,7.279h-1.82l-3.076-7.279h2.156l1.82,5Z" transform="translate(-1228.798 -1342.929)"/>
        <path id="Trazado_133538" data-name="Trazado 133538" d="M1287.5,1353.82a4.7,4.7,0,0,1-2.066-.446,3.379,3.379,0,0,1-1.42-1.319,3.886,3.886,0,0,1-.519-2.038,3.642,3.642,0,0,1,1.11-2.73,4.631,4.631,0,0,1,5.8,0,4.039,4.039,0,0,1,0,5.56A4.15,4.15,0,0,1,1287.5,1353.82Zm0-1.629a1.886,1.886,0,0,0,1.447-.6,2.218,2.218,0,0,0,.546-1.574,2.262,2.262,0,0,0-.546-1.583,1.907,1.907,0,0,0-1.447-.591,1.82,1.82,0,0,0-1.41.6,2.575,2.575,0,0,0,0,3.148,1.822,1.822,0,0,0,1.392.6Z" transform="translate(-1229.609 -1342.919)"/>
      </g>
    </g>
  </g>
</svg>
