<svg xmlns="http://www.w3.org/2000/svg" width="293.804" height="373.352" viewBox="0 0 293.804 373.352">
  <g id="Grupo_63690" data-name="Grupo 63690" transform="translate(-360.057 -2038.809)">
    <rect id="Rect치ngulo_8017" data-name="Rect치ngulo 8017" width="293.804" height="373.352" rx="20.609" transform="translate(360.057 2038.809)" fill="#f2f2f2"/>
    <g id="Grupo_63689" data-name="Grupo 63689" transform="translate(379.097 2089.155)">
      <rect id="Rect치ngulo_8018" data-name="Rect치ngulo 8018" width="255.725" height="272.66" fill="#f2f2f2"/>
      <g id="Grupo_63684" data-name="Grupo 63684" transform="translate(29.949 48.916)">
        <path id="Trazado_133771" data-name="Trazado 133771" d="M432.16,2149.875h5.364l-8.985,24.331h-5.563l-8.939-24.331h5.354l6.353,18.441Z" transform="translate(-414.037 -2148.341)"/>
        <path id="Trazado_133772" data-name="Trazado 133772" d="M457.459,2165.98v1.162H444.608a4.539,4.539,0,0,0,1.379,3.167,4.461,4.461,0,0,0,3.049,1.089,4.284,4.284,0,0,0,2.287-.6,3.687,3.687,0,0,0,1.452-1.743l4.447.663a7.623,7.623,0,0,1-3.031,4.057,9.076,9.076,0,0,1-5.118,1.443,9.357,9.357,0,0,1-6.743-2.378,9.964,9.964,0,0,1,.009-13.223,9.074,9.074,0,0,1,6.58-2.414,8.7,8.7,0,0,1,6.217,2.205C456.7,2160.907,457.459,2163.067,457.459,2165.98Zm-8.54-5.345a3.833,3.833,0,0,0-4.211,3.34h7.95a3.631,3.631,0,0,0-1.2-2.478,3.8,3.8,0,0,0-2.5-.862Z" transform="translate(-416.42 -2149.018)"/>
        <path id="Trazado_133773" data-name="Trazado 133773" d="M468,2160.331a5.629,5.629,0,0,1,2.278-2.078,6.868,6.868,0,0,1,3.376-.907v4.32a6.593,6.593,0,0,0-4.138,1.071c-.853.7-1.28,1.933-1.28,3.712v8.449h-4.883V2157.59H468Z" transform="translate(-418.597 -2149.032)"/>
        <path id="Trazado_133774" data-name="Trazado 133774" d="M489.87,2148.185h4.846v25.865h-4.6L490,2171.8a4.988,4.988,0,0,1-2.2,1.96,7.438,7.438,0,0,1-3.24.7,8.37,8.37,0,0,1-3.231-.626,7.82,7.82,0,0,1-4.447-4.61,10.593,10.593,0,0,1-.626-3.793,9.833,9.833,0,0,1,1.143-4.819,7.767,7.767,0,0,1,3.022-3.14,8.315,8.315,0,0,1,4.147-1.026,7.638,7.638,0,0,1,3.14.626,5.017,5.017,0,0,1,2.169,1.815Zm-4.193,22.244a4.275,4.275,0,0,0,3.267-1.379,5.673,5.673,0,0,0,0-7.26,4.3,4.3,0,0,0-3.258-1.389,4.346,4.346,0,0,0-3.294,1.371,5.734,5.734,0,0,0,0,7.26,4.375,4.375,0,0,0,3.294,1.4Z" transform="translate(-419.79 -2148.185)"/>
        <path id="Trazado_133775" data-name="Trazado 133775" d="M518.276,2165.982l-.045,1.162H505.4a4.468,4.468,0,0,0,1.379,3.167,4.422,4.422,0,0,0,3.049,1.089,4.245,4.245,0,0,0,2.26-.6,3.707,3.707,0,0,0,1.479-1.724l4.438.662a7.579,7.579,0,0,1-3.031,4.057,9.017,9.017,0,0,1-5.118,1.443,9.384,9.384,0,0,1-6.743-2.378,9.991,9.991,0,0,1,.009-13.223,9.073,9.073,0,0,1,6.589-2.414,8.681,8.681,0,0,1,6.208,2.205Q518.258,2161.617,518.276,2165.982Zm-8.54-5.345a3.84,3.84,0,0,0-4.211,3.34h7.95a3.627,3.627,0,0,0-1.189-2.478A3.818,3.818,0,0,0,509.736,2160.636Z" transform="translate(-422.041 -2149.02)"/>
      </g>
      <g id="Grupo_63685" data-name="Grupo 63685" transform="translate(33.878 136.966)">
        <path id="Trazado_133776" data-name="Trazado 133776" d="M425.945,2255.488l-.862-2.387h-4.538l-.853,2.387h-1.325l3.676-9.983h1.516l3.685,9.983Zm-4.955-3.5h3.721l-1.906-5.2Z" transform="translate(-418.367 -2245.233)"/>
        <path id="Trazado_133777" data-name="Trazado 133777" d="M431.219,2250.046a2.156,2.156,0,0,1,.908-.907,2.576,2.576,0,0,1,1.334-.363v1.153a2.29,2.29,0,0,0-1.615.517,2.162,2.162,0,0,0-.563,1.652v3.721h-1.225v-6.97h1.2Z" transform="translate(-419.448 -2245.536)"/>
        <path id="Trazado_133778" data-name="Trazado 133778" d="M442.527,2248.675a2.232,2.232,0,0,1,1.625.6,2.185,2.185,0,0,1,.617,1.661v4.846h-1.225v-4.538a1.586,1.586,0,0,0-.381-1.153,1.345,1.345,0,0,0-.971-.39,1.4,1.4,0,0,0-1.071.445,1.916,1.916,0,0,0-.4,1.316v4.311h-1.252v-4.483a1.645,1.645,0,0,0-.381-1.18,1.316,1.316,0,0,0-.989-.408,1.37,1.37,0,0,0-1.062.454,1.962,1.962,0,0,0-.408,1.352v4.266h-1.271v-6.97h1.225v.908a2.138,2.138,0,0,1,.8-.762,2.254,2.254,0,0,1,1.107-.272,2.314,2.314,0,0,1,1.189.3,1.816,1.816,0,0,1,.78.844,2.078,2.078,0,0,1,.835-.844A2.349,2.349,0,0,1,442.527,2248.675Z" transform="translate(-419.938 -2245.526)"/>
        <path id="Trazado_133779" data-name="Trazado 133779" d="M451.166,2255.917a3.627,3.627,0,0,1-1.815-.436,3.1,3.1,0,0,1-1.252-1.262,3.8,3.8,0,0,1-.472-1.924,3.63,3.63,0,0,1,.989-2.632,3.713,3.713,0,0,1,5.046,0,3.992,3.992,0,0,1,0,5.264A3.4,3.4,0,0,1,451.166,2255.917Zm0-1.017a2.159,2.159,0,0,0,1.652-.717,2.723,2.723,0,0,0,.653-1.888,2.658,2.658,0,0,0-.653-1.879,2.134,2.134,0,0,0-1.652-.717,2.105,2.105,0,0,0-1.634.717,3.074,3.074,0,0,0,0,3.766,2.141,2.141,0,0,0,1.624.717Z" transform="translate(-421.072 -2245.526)"/>
        <path id="Trazado_133780" data-name="Trazado 133780" d="M460.8,2248.675a2.425,2.425,0,0,1,1.752.635,2.36,2.36,0,0,1,.663,1.815v4.692h-1.234v-4.411a1.669,1.669,0,0,0-.417-1.252,1.535,1.535,0,0,0-1.1-.408,1.678,1.678,0,0,0-1.234.481,1.914,1.914,0,0,0-.49,1.425v4.166h-1.234v-6.97h1.234v.908A2.314,2.314,0,0,1,460.8,2248.675Z" transform="translate(-421.986 -2245.526)"/>
        <path id="Trazado_133781" data-name="Trazado 133781" d="M467,2246.857a.788.788,0,0,1-.581-.245.81.81,0,0,1-.245-.59.789.789,0,0,1,.245-.581.834.834,0,0,1,1.162,0,.789.789,0,0,1,.245.581.81.81,0,0,1-.245.59A.788.788,0,0,1,467,2246.857Zm-.617,8.6v-6.97h1.225v6.97Z" transform="translate(-422.788 -2245.206)"/>
        <path id="Trazado_133782" data-name="Trazado 133782" d="M472.039,2255.918a2.409,2.409,0,0,1-1.534-.481,1.706,1.706,0,0,1-.6-1.425,1.882,1.882,0,0,1,.2-.907,1.513,1.513,0,0,1,.563-.635,3.421,3.421,0,0,1,.817-.4,7.743,7.743,0,0,1,1.062-.245l1.125-.191c.417-.073.617-.291.617-.644a1.207,1.207,0,0,0-.436-1.035,1.72,1.72,0,0,0-1.1-.336,1.866,1.866,0,0,0-1.1.317,1.369,1.369,0,0,0-.517.98l-1.1-.227a2.113,2.113,0,0,1,.908-1.5,3.208,3.208,0,0,1,1.9-.5,3.809,3.809,0,0,1,1.007.127,2.551,2.551,0,0,1,.844.39,1.717,1.717,0,0,1,.608.744,2.8,2.8,0,0,1,.218,1.153v2.877a1.181,1.181,0,0,0,.154.726.69.69,0,0,0,.554.191h.109v.907h-.608a1.152,1.152,0,0,1-1.316-.907h-.064A2.642,2.642,0,0,1,472.039,2255.918Zm.281-.989a1.858,1.858,0,0,0,1.5-.681,2.725,2.725,0,0,0,.563-1.815l-1.815.354a2.469,2.469,0,0,0-1.08.39,1.006,1.006,0,0,0-.009,1.525,1.359,1.359,0,0,0,.871.227Z" transform="translate(-423.132 -2245.528)"/>
        <path id="Trazado_133783" data-name="Trazado 133783" d="M424.385,2269.482a2.594,2.594,0,0,1,1.443.907,2.443,2.443,0,0,1,.535,1.633,2.623,2.623,0,0,1-.771,1.951,2.785,2.785,0,0,1-2.051.753h-3.884v-9.983h3.022a3.067,3.067,0,0,1,2.142.735,2.476,2.476,0,0,1,.808,1.915,2.574,2.574,0,0,1-.318,1.28A2.089,2.089,0,0,1,424.385,2269.482Zm.054-2.051a1.522,1.522,0,0,0-.481-1.153,1.814,1.814,0,0,0-1.289-.454h-1.815v3.258h2.069a1.423,1.423,0,0,0,1.107-.472,1.742,1.742,0,0,0,.408-1.179Zm-1.116,6.135a1.815,1.815,0,0,0,1.316-.49,1.76,1.76,0,0,0,0-2.459,1.941,1.941,0,0,0-1.389-.481H420.9v3.43Z" transform="translate(-418.486 -2247.012)"/>
        <path id="Trazado_133784" data-name="Trazado 133784" d="M430.85,2275.119a2.322,2.322,0,0,1-1.525-.481,1.707,1.707,0,0,1-.6-1.425,2,2,0,0,1,.191-.907,1.573,1.573,0,0,1,.563-.635,3.43,3.43,0,0,1,.817-.4,7.743,7.743,0,0,1,1.062-.245l1.125-.19c.417-.073.617-.291.617-.645a1.207,1.207,0,0,0-.436-1.035,1.723,1.723,0,0,0-1.1-.336,1.756,1.756,0,0,0-1.089.327,1.282,1.282,0,0,0-.517.971l-1.107-.227a2.114,2.114,0,0,1,.908-1.5,3.21,3.21,0,0,1,1.9-.5,3.809,3.809,0,0,1,1.007.127,2.547,2.547,0,0,1,.844.39,1.714,1.714,0,0,1,.608.744,2.805,2.805,0,0,1,.218,1.153v2.877a1.242,1.242,0,0,0,.154.726.691.691,0,0,0,.554.191h.109v.907h-.608a1.152,1.152,0,0,1-1.316-.907h-.054A2.667,2.667,0,0,1,430.85,2275.119Zm.281-.989a1.877,1.877,0,0,0,1.5-.672,2.788,2.788,0,0,0,.572-1.815l-1.815.354a2.472,2.472,0,0,0-1.08.39,1.024,1.024,0,0,0-.009,1.525,1.386,1.386,0,0,0,.835.218Z" transform="translate(-419.325 -2247.303)"/>
        <path id="Trazado_133785" data-name="Trazado 133785" d="M437.677,2274.6v-10.89h1.243v10.89Z" transform="translate(-420.153 -2246.916)"/>
        <path id="Trazado_133786" data-name="Trazado 133786" d="M443.35,2275.119a2.322,2.322,0,0,1-1.525-.481,1.707,1.707,0,0,1-.6-1.425,2,2,0,0,1,.191-.907,1.573,1.573,0,0,1,.563-.635,3.43,3.43,0,0,1,.817-.4,7.743,7.743,0,0,1,1.062-.245l1.125-.19c.417-.073.617-.291.617-.645a1.207,1.207,0,0,0-.436-1.035,1.723,1.723,0,0,0-1.1-.336,1.756,1.756,0,0,0-1.089.327,1.282,1.282,0,0,0-.517.971l-1.107-.227a2.114,2.114,0,0,1,.908-1.5,3.21,3.21,0,0,1,1.9-.5,3.809,3.809,0,0,1,1.007.127,2.547,2.547,0,0,1,.844.39,1.714,1.714,0,0,1,.608.744,2.805,2.805,0,0,1,.218,1.153v2.877a1.242,1.242,0,0,0,.154.726.691.691,0,0,0,.554.191h.064v.907H447a1.152,1.152,0,0,1-1.316-.907h-.054A2.67,2.67,0,0,1,443.35,2275.119Zm.281-.989a1.877,1.877,0,0,0,1.5-.672,2.788,2.788,0,0,0,.572-1.815l-1.815.354a2.472,2.472,0,0,0-1.08.39,1.024,1.024,0,0,0-.009,1.525,1.386,1.386,0,0,0,.835.218Z" transform="translate(-420.48 -2247.303)"/>
        <path id="Trazado_133787" data-name="Trazado 133787" d="M453.462,2267.875a2.449,2.449,0,0,1,1.761.635,2.36,2.36,0,0,1,.653,1.815v4.692h-1.225v-4.411a1.671,1.671,0,0,0-.427-1.252,1.5,1.5,0,0,0-1.089-.4,1.675,1.675,0,0,0-1.243.472,1.987,1.987,0,0,0-.49,1.425v4.166h-1.225v-6.97H451.4v.908A2.323,2.323,0,0,1,453.462,2267.875Z" transform="translate(-421.308 -2247.302)"/>
        <path id="Trazado_133788" data-name="Trazado 133788" d="M461.9,2275.108a3.33,3.33,0,0,1-2.5-1,3.956,3.956,0,0,1,0-5.227,3.608,3.608,0,0,1,4.52-.39,3.021,3.021,0,0,1,1.171,1.688l-1.144.191a2.088,2.088,0,0,0-2.051-1.47,2.062,2.062,0,0,0-1.615.717,3.094,3.094,0,0,0,0,3.757,2.178,2.178,0,0,0,3.666-.762l1.144.191a3.061,3.061,0,0,1-1.18,1.7A3.363,3.363,0,0,1,461.9,2275.108Z" transform="translate(-422.071 -2247.302)"/>
        <path id="Trazado_133789" data-name="Trazado 133789" d="M473.8,2271.364v.336h-5.445a2.441,2.441,0,0,0,.663,1.815,2.178,2.178,0,0,0,1.588.626,2.1,2.1,0,0,0,1.951-1.261l1.107.236a3.151,3.151,0,0,1-1.189,1.5,3.26,3.26,0,0,1-1.815.545,3.4,3.4,0,0,1-2.514-.971,4.147,4.147,0,0,1,0-5.3,3.319,3.319,0,0,1,2.468-.971,3.138,3.138,0,0,1,2.341.907A3.528,3.528,0,0,1,473.8,2271.364Zm-3.222-2.541a2.185,2.185,0,0,0-1.452.5,2.261,2.261,0,0,0-.735,1.434h4.175a2.042,2.042,0,0,0-.608-1.434,1.961,1.961,0,0,0-1.379-.5Z" transform="translate(-422.882 -2247.305)"/>
        <path id="Trazado_133790" data-name="Trazado 133790" d="M425,2285.067h-4.048v3.267h3.567v1.134h-3.567v3.267H425v1.153h-5.345v-9.983H425Z" transform="translate(-418.486 -2248.784)"/>
        <path id="Trazado_133791" data-name="Trazado 133791" d="M430.023,2294.319a3.293,3.293,0,0,1-1.879-.5,2.1,2.1,0,0,1-.908-1.434l1.071-.309a1.548,1.548,0,0,0,.572.971,1.876,1.876,0,0,0,1.144.345,2.547,2.547,0,0,0,.672-.091,1.164,1.164,0,0,0,.517-.345.987.987,0,0,0,.209-.635.964.964,0,0,0-.064-.29,1.052,1.052,0,0,0-.109-.227.573.573,0,0,0-.2-.19,2.033,2.033,0,0,0-.245-.154,1.846,1.846,0,0,0-.309-.127l-.345-.118-.39-.109-.4-.118c-.29-.091-.535-.172-.726-.254a3.375,3.375,0,0,1-.59-.336,1.361,1.361,0,0,1-.454-.554,1.861,1.861,0,0,1-.154-.781,1.816,1.816,0,0,1,.345-1.116,1.925,1.925,0,0,1,.908-.653,3.475,3.475,0,0,1,1.234-.2,3.023,3.023,0,0,1,1.7.454,1.942,1.942,0,0,1,.853,1.361l-1.007.254a1.311,1.311,0,0,0-.535-.907,1.648,1.648,0,0,0-1-.3,1.737,1.737,0,0,0-.908.245.825.825,0,0,0-.39.753.777.777,0,0,0,.1.381,1.52,1.52,0,0,0,.209.272,1.144,1.144,0,0,0,.39.209,3.228,3.228,0,0,0,.408.154l.508.127h.109l.672.191a4.778,4.778,0,0,1,.6.254,2.2,2.2,0,0,1,.545.381,1.9,1.9,0,0,1,.481,1.289,2.1,2.1,0,0,1-.209.907,1.554,1.554,0,0,1-.572.635,2.483,2.483,0,0,1-.808.354A3.76,3.76,0,0,1,430.023,2294.319Z" transform="translate(-419.187 -2249.079)"/>
        <path id="Trazado_133792" data-name="Trazado 133792" d="M437.382,2293.956a1.814,1.814,0,0,1-1.361-.5,1.88,1.88,0,0,1-.5-1.388v-4.12H434.1v-.98h.526a1.025,1.025,0,0,0,.771-.245,1.227,1.227,0,0,0,.218-.817v-1.261h1.144v2.323h1.606v.98h-1.606v3.975a1.061,1.061,0,0,0,.263.762.907.907,0,0,0,.7.272h.644v.98Z" transform="translate(-419.821 -2248.852)"/>
        <path id="Trazado_133793" data-name="Trazado 133793" d="M442.21,2294.318a2.381,2.381,0,0,1-1.525-.481,1.68,1.68,0,0,1-.6-1.425,2.059,2.059,0,0,1,.191-.907,1.552,1.552,0,0,1,.563-.626,3.44,3.44,0,0,1,.817-.4,9.317,9.317,0,0,1,1.062-.254l1.125-.182c.417-.073.617-.291.617-.644a1.206,1.206,0,0,0-.436-1.035,1.72,1.72,0,0,0-1.1-.336,1.869,1.869,0,0,0-1.1.318,1.368,1.368,0,0,0-.517.98l-1.071-.245a2.113,2.113,0,0,1,.908-1.488,3.208,3.208,0,0,1,1.9-.5,3.789,3.789,0,0,1,1.007.127,2.547,2.547,0,0,1,.844.39,1.715,1.715,0,0,1,.608.744,2.8,2.8,0,0,1,.218,1.152v2.877a1.181,1.181,0,0,0,.154.726.693.693,0,0,0,.554.19h.109v.908h-.608a1.153,1.153,0,0,1-1.316-.908h-.064A2.64,2.64,0,0,1,442.21,2294.318Zm.281-.989a1.86,1.86,0,0,0,1.5-.681,2.727,2.727,0,0,0,.563-1.815l-1.815.354a2.482,2.482,0,0,0-1.08.39,1.024,1.024,0,0,0-.009,1.525,1.379,1.379,0,0,0,.844.227Z" transform="translate(-420.375 -2249.078)"/>
        <path id="Trazado_133794" data-name="Trazado 133794" d="M452.733,2286.689a3.049,3.049,0,0,1,2.305,1.008,3.7,3.7,0,0,1,.908,2.623,3.736,3.736,0,0,1-.908,2.623,3.04,3.04,0,0,1-2.314,1.007,2.775,2.775,0,0,1-1.488-.408,2.594,2.594,0,0,1-1-1.1v1.352h-1.18v-10.89h1.216v5.255a2.582,2.582,0,0,1,1-1.071A2.783,2.783,0,0,1,452.733,2286.689Zm-.272,6.189a2.142,2.142,0,0,0,1.634-.708,2.624,2.624,0,0,0,.663-1.815,2.666,2.666,0,0,0-.663-1.815,2.14,2.14,0,0,0-1.634-.708,2.089,2.089,0,0,0-1.615.735,2.722,2.722,0,0,0-.663,1.815,2.633,2.633,0,0,0,.663,1.815,2.1,2.1,0,0,0,1.615.68Z" transform="translate(-421.205 -2248.691)"/>
        <path id="Trazado_133795" data-name="Trazado 133795" d="M459.413,2285.257a.809.809,0,0,1-.59-.245.837.837,0,0,1-.236-.59.818.818,0,0,1,.236-.581.844.844,0,0,1,1.171,0,.789.789,0,0,1,.245.581A.835.835,0,0,1,459.413,2285.257Zm-.626,8.6v-6.97h1.234v6.97Z" transform="translate(-422.086 -2248.756)"/>
        <path id="Trazado_133796" data-name="Trazado 133796" d="M462.917,2293.8v-10.89h1.216v10.89Z" transform="translate(-422.486 -2248.691)"/>
        <path id="Trazado_133797" data-name="Trazado 133797" d="M467.642,2285.257a.835.835,0,0,1-.835-.835h0a.789.789,0,0,1,.245-.581.837.837,0,0,1,.59-.236.808.808,0,0,1,.572.236.789.789,0,0,1,.245.581.811.811,0,0,1-.245.59A.784.784,0,0,1,467.642,2285.257Zm-.626,8.6v-6.97h1.234v6.97Z" transform="translate(-422.846 -2248.756)"/>
        <path id="Trazado_133798" data-name="Trazado 133798" d="M476.237,2282.905h1.225v10.89h-1.18v-1.352a2.594,2.594,0,0,1-1,1.1,2.729,2.729,0,0,1-1.47.408,3.2,3.2,0,0,1-2.305-.989,3.384,3.384,0,0,1-.7-1.153,4.164,4.164,0,0,1-.263-1.488,3.63,3.63,0,0,1,.953-2.623,3.041,3.041,0,0,1,2.314-1.008,2.779,2.779,0,0,1,1.452.4,2.617,2.617,0,0,1,1,1.062Zm-2.2,9.983a2.1,2.1,0,0,0,1.615-.726,2.868,2.868,0,0,0,0-3.63,2.1,2.1,0,0,0-1.615-.735,2.14,2.14,0,0,0-1.634.708,2.666,2.666,0,0,0-.663,1.815,2.624,2.624,0,0,0,.663,1.815,2.142,2.142,0,0,0,1.634.744Z" transform="translate(-423.191 -2248.691)"/>
        <path id="Trazado_133799" data-name="Trazado 133799" d="M482.47,2294.319a2.382,2.382,0,0,1-1.525-.481,1.706,1.706,0,0,1-.6-1.425,2.06,2.06,0,0,1,.191-.907,1.578,1.578,0,0,1,.572-.626,3.124,3.124,0,0,1,.817-.4,8.352,8.352,0,0,1,1.062-.254l1.125-.181c.408-.073.617-.291.617-.644a1.206,1.206,0,0,0-.436-1.034,1.752,1.752,0,0,0-1.107-.336,1.81,1.81,0,0,0-1.089.318,1.368,1.368,0,0,0-.517.98l-1.107-.236a2.177,2.177,0,0,1,.908-1.488,3.268,3.268,0,0,1,1.906-.5,3.886,3.886,0,0,1,1.007.127,2.639,2.639,0,0,1,.844.39,1.76,1.76,0,0,1,.6.744,2.8,2.8,0,0,1,.218,1.152v2.877a1.171,1.171,0,0,0,.163.726.671.671,0,0,0,.545.191h.118v.907h-.608c-.753,0-1.2-.309-1.325-.907H484.8A2.642,2.642,0,0,1,482.47,2294.319Zm.29-.989a1.86,1.86,0,0,0,1.5-.681,2.8,2.8,0,0,0,.563-1.815l-1.815.354a2.432,2.432,0,0,0-1.08.39,1.015,1.015,0,0,0-.018,1.525,1.406,1.406,0,0,0,.853.227Z" transform="translate(-424.098 -2249.079)"/>
        <path id="Trazado_133800" data-name="Trazado 133800" d="M494.237,2282.905h1.225v10.89h-1.18v-1.352a2.594,2.594,0,0,1-1,1.1,2.728,2.728,0,0,1-1.47.408,3.2,3.2,0,0,1-2.305-.989,3.384,3.384,0,0,1-.7-1.153,4.164,4.164,0,0,1-.263-1.488,3.63,3.63,0,0,1,.953-2.623,3.041,3.041,0,0,1,2.314-1.008,2.779,2.779,0,0,1,1.452.4,2.617,2.617,0,0,1,1,1.062Zm-2.2,9.983a2.1,2.1,0,0,0,1.615-.726,2.868,2.868,0,0,0,0-3.63,2.1,2.1,0,0,0-1.615-.735,2.14,2.14,0,0,0-1.634.708,2.667,2.667,0,0,0-.662,1.815,2.624,2.624,0,0,0,.662,1.815,2.142,2.142,0,0,0,1.634.744Z" transform="translate(-424.856 -2248.691)"/>
        <path id="Trazado_133801" data-name="Trazado 133801" d="M422.649,2313.246a4.535,4.535,0,0,1-2.6-.708,2.969,2.969,0,0,1-1.3-1.933l1.28-.309a2.069,2.069,0,0,0,.908,1.361,3,3,0,0,0,1.761.5,3.833,3.833,0,0,0,.663-.054,3.291,3.291,0,0,0,.6-.19,1.937,1.937,0,0,0,.49-.327,1.366,1.366,0,0,0,.327-.49,1.547,1.547,0,0,0,.109-.663,1.328,1.328,0,0,0-.082-.472,1.6,1.6,0,0,0-.2-.372,1.22,1.22,0,0,0-.336-.3,3.42,3.42,0,0,0-.408-.245,3.8,3.8,0,0,0-.5-.2l-.526-.164-.572-.163h-.109l-.672-.181-.617-.218a3.326,3.326,0,0,1-.59-.272,4.6,4.6,0,0,1-.49-.345,1.52,1.52,0,0,1-.4-.445,2.174,2.174,0,0,1-.245-.563,2.522,2.522,0,0,1-.091-.708,2.564,2.564,0,0,1,.463-1.534,2.761,2.761,0,0,1,1.2-.907,4.319,4.319,0,0,1,1.652-.3,4.538,4.538,0,0,1,2.4.617,2.723,2.723,0,0,1,1.271,1.815l-1.234.308a1.815,1.815,0,0,0-.826-1.225,2.864,2.864,0,0,0-1.561-.408,2.922,2.922,0,0,0-.762.091,2.068,2.068,0,0,0-.663.281,1.317,1.317,0,0,0-.481.517,1.636,1.636,0,0,0-.182.762,1.256,1.256,0,0,0,.254.762,1.533,1.533,0,0,0,.3.272l.372.227a4.522,4.522,0,0,0,.463.181l.5.154.545.145a11.362,11.362,0,0,1,1.924.635,2.423,2.423,0,0,1,1.479,1.815,3.172,3.172,0,0,1,0,.436,2.779,2.779,0,0,1-.281,1.289,2.367,2.367,0,0,1-.79.908,4.16,4.16,0,0,1-1.116.5A5.284,5.284,0,0,1,422.649,2313.246Z" transform="translate(-418.402 -2250.554)"/>
        <path id="Trazado_133802" data-name="Trazado 133802" d="M435.273,2309.765v.336h-5.445a2.442,2.442,0,0,0,.663,1.815,2.178,2.178,0,0,0,1.588.626,2.118,2.118,0,0,0,1.153-.336,2.147,2.147,0,0,0,.8-.908l1.107.236a3.212,3.212,0,0,1-1.189,1.5,3.254,3.254,0,0,1-1.815.544,3.384,3.384,0,0,1-2.514-.971,3.63,3.63,0,0,1-.953-2.65,3.565,3.565,0,0,1,.962-2.641,3.292,3.292,0,0,1,2.469-.98,3.138,3.138,0,0,1,2.341.907A3.531,3.531,0,0,1,435.273,2309.765Zm-3.222-2.541a2.141,2.141,0,0,0-1.452.5,2.262,2.262,0,0,0-.735,1.434h4.175a2.043,2.043,0,0,0-.608-1.434,1.922,1.922,0,0,0-1.379-.526Z" transform="translate(-419.319 -2250.858)"/>
        <path id="Trazado_133803" data-name="Trazado 133803" d="M443.051,2306.412h1.189v6.616a3.789,3.789,0,0,1-.908,2.723,3.739,3.739,0,0,1-5.872-1.18l1.007-.5a2.314,2.314,0,0,0,2.332,1.615,1.986,1.986,0,0,0,1.634-.681,2.879,2.879,0,0,0,.572-1.906v-1.289a2.481,2.481,0,0,1-1,1.008,3.059,3.059,0,0,1-3.7-.608,3.43,3.43,0,0,1-.908-2.478,3.394,3.394,0,0,1,.908-2.469,3.014,3.014,0,0,1,2.269-.98,2.845,2.845,0,0,1,1.452.39,2.508,2.508,0,0,1,.989,1.034Zm-2.214,5.736a2.106,2.106,0,0,0,1.606-.717,2.54,2.54,0,0,0,0-3.412,2.114,2.114,0,0,0-1.615-.717,2.088,2.088,0,0,0-1.6.7,2.383,2.383,0,0,0-.662,1.724,2.45,2.45,0,0,0,.662,1.725A2.152,2.152,0,0,0,440.836,2312.148Z" transform="translate(-420.126 -2250.853)"/>
        <path id="Trazado_133804" data-name="Trazado 133804" d="M452.023,2306.422h1.225v6.97h-1.18v-.907a2.238,2.238,0,0,1-.862.781,2.727,2.727,0,0,1-1.225.272,2.422,2.422,0,0,1-1.752-.626,2.367,2.367,0,0,1-.653-1.815v-4.7H448.8v4.438a1.662,1.662,0,0,0,.427,1.253,1.535,1.535,0,0,0,1.1.408,1.678,1.678,0,0,0,1.234-.481,2.005,2.005,0,0,0,.49-1.425Z" transform="translate(-421.067 -2250.864)"/>
        <path id="Trazado_133805" data-name="Trazado 133805" d="M457.775,2307.646a2.123,2.123,0,0,1,.862-.908,2.612,2.612,0,0,1,1.343-.363v1.153a2.313,2.313,0,0,0-1.625.517,2.16,2.16,0,0,0-.554,1.652v3.721h-1.225v-6.97h1.2Z" transform="translate(-421.9 -2250.862)"/>
        <path id="Trazado_133806" data-name="Trazado 133806" d="M462.513,2304.457a.79.79,0,0,1-.581-.245.81.81,0,0,1-.245-.59.789.789,0,0,1,.245-.581.834.834,0,0,1,1.162,0,.789.789,0,0,1,.245.581.811.811,0,0,1-.245.59A.79.79,0,0,1,462.513,2304.457Zm-.626,8.6v-6.97h1.225v6.97Z" transform="translate(-422.373 -2250.532)"/>
        <path id="Trazado_133807" data-name="Trazado 133807" d="M471.108,2302.1h1.234V2313h-1.189v-1.352a2.57,2.57,0,0,1-.989,1.1,2.761,2.761,0,0,1-1.479.408,3.146,3.146,0,0,1-1.261-.263,2.978,2.978,0,0,1-1.035-.726,3.3,3.3,0,0,1-.708-1.144,4.256,4.256,0,0,1-.254-1.5,3.7,3.7,0,0,1,.908-2.623,3.067,3.067,0,0,1,2.314-1.007,2.8,2.8,0,0,1,1.461.4,2.593,2.593,0,0,1,.989,1.062Zm-2.2,9.983a2.089,2.089,0,0,0,1.625-.735,2.668,2.668,0,0,0,.653-1.815,2.613,2.613,0,0,0-.663-1.815,2.069,2.069,0,0,0-1.615-.735,2.124,2.124,0,0,0-1.624.708,2.932,2.932,0,0,0,0,3.712,2.134,2.134,0,0,0,1.615.681Z" transform="translate(-422.718 -2250.467)"/>
        <path id="Trazado_133808" data-name="Trazado 133808" d="M477.35,2313.549a2.321,2.321,0,0,1-1.525-.481,1.707,1.707,0,0,1-.6-1.425,2,2,0,0,1,.191-.907,1.57,1.57,0,0,1,.563-.635,3.431,3.431,0,0,1,.817-.4,7.743,7.743,0,0,1,1.062-.245l1.125-.19c.417-.073.617-.29.617-.644a1.207,1.207,0,0,0-.436-1.035,1.722,1.722,0,0,0-1.1-.336,1.758,1.758,0,0,0-1.089.327,1.281,1.281,0,0,0-.517.971l-1.107-.227a2.114,2.114,0,0,1,.908-1.5,3.211,3.211,0,0,1,1.9-.5,3.8,3.8,0,0,1,1.007.127,2.546,2.546,0,0,1,.844.39,1.716,1.716,0,0,1,.608.744,2.8,2.8,0,0,1,.218,1.153v2.877a1.243,1.243,0,0,0,.154.726.691.691,0,0,0,.554.19h.064v.907H481a1.152,1.152,0,0,1-1.316-.907h-.054A2.723,2.723,0,0,1,477.35,2313.549Zm.281-.989a1.881,1.881,0,0,0,1.5-.672,2.788,2.788,0,0,0,.572-1.815l-1.815.354a2.6,2.6,0,0,0-1.08.39,1.024,1.024,0,0,0-.009,1.525,1.381,1.381,0,0,0,.835.19Z" transform="translate(-423.624 -2250.857)"/>
        <path id="Trazado_133809" data-name="Trazado 133809" d="M489.108,2302.1h1.234V2313h-1.189v-1.352a2.571,2.571,0,0,1-.989,1.1,2.762,2.762,0,0,1-1.479.408,3.146,3.146,0,0,1-1.261-.263,2.978,2.978,0,0,1-1.035-.726,3.3,3.3,0,0,1-.708-1.144,4.257,4.257,0,0,1-.254-1.5,3.7,3.7,0,0,1,.908-2.623,3.067,3.067,0,0,1,2.314-1.007,2.8,2.8,0,0,1,1.461.4,2.593,2.593,0,0,1,.989,1.062Zm-2.2,9.983a2.088,2.088,0,0,0,1.624-.735,2.668,2.668,0,0,0,.653-1.815,2.613,2.613,0,0,0-.663-1.815,2.07,2.07,0,0,0-1.615-.735,2.124,2.124,0,0,0-1.625.708,2.932,2.932,0,0,0,0,3.712,2.134,2.134,0,0,0,1.615.681Z" transform="translate(-424.382 -2250.467)"/>
        <path id="Trazado_133810" data-name="Trazado 133810" d="M423.432,2322.285a2.891,2.891,0,0,1,1.561.418,2.8,2.8,0,0,1,1.053,1.107,3.245,3.245,0,0,1,.363,1.543,3.006,3.006,0,0,1-.826,2.169,2.841,2.841,0,0,1-2.151.907h-2.514v3.839h-1.261v-9.983Zm-.181,5a1.815,1.815,0,0,0,1.389-.535,2.245,2.245,0,0,0,0-2.823,1.813,1.813,0,0,0-1.389-.544h-2.332v3.9Z" transform="translate(-418.486 -2252.333)"/>
        <path id="Trazado_133811" data-name="Trazado 133811" d="M430.039,2332.719a2.41,2.41,0,0,1-1.534-.481,1.706,1.706,0,0,1-.6-1.425,1.882,1.882,0,0,1,.2-.907,1.511,1.511,0,0,1,.563-.635,3.421,3.421,0,0,1,.817-.4,9.266,9.266,0,0,1,1.062-.254l1.125-.181c.417-.073.617-.291.617-.645a1.207,1.207,0,0,0-.436-1.034,1.722,1.722,0,0,0-1.1-.336,1.868,1.868,0,0,0-1.1.318,1.368,1.368,0,0,0-.517.98l-1.1-.236a2.113,2.113,0,0,1,.908-1.489,3.21,3.21,0,0,1,1.9-.5,3.809,3.809,0,0,1,1.007.127,2.551,2.551,0,0,1,.844.39,1.717,1.717,0,0,1,.608.744,2.8,2.8,0,0,1,.218,1.153v2.84a1.18,1.18,0,0,0,.154.726.69.69,0,0,0,.554.191h.109v.907h-.608a1.152,1.152,0,0,1-1.316-.907h-.064A2.642,2.642,0,0,1,430.039,2332.719Zm.281-.99a1.859,1.859,0,0,0,1.5-.681,2.725,2.725,0,0,0,.563-1.815l-1.815.354a2.473,2.473,0,0,0-1.08.39,1.006,1.006,0,0,0-.009,1.525,1.358,1.358,0,0,0,.871.227Z" transform="translate(-419.249 -2252.629)"/>
        <path id="Trazado_133812" data-name="Trazado 133812" d="M437.769,2331.6h3.712v.971h-5.554l3.676-5.971h-3.467v-1h5.345Z" transform="translate(-419.991 -2252.64)"/>
      </g>
      <g id="Grupo_63686" data-name="Grupo 63686" transform="translate(34.804 105.8)">
        <path id="Trazado_133813" data-name="Trazado 133813" d="M423.643,2211.395a3.1,3.1,0,0,1,2.369.907,3.351,3.351,0,0,1,.908,2.36,3.221,3.221,0,0,1-.908,2.341,3.121,3.121,0,0,1-2.369.907h-2.133v3.63h-2.124v-10.146Zm-.354,4.792a1.526,1.526,0,0,0,1.171-.4,1.5,1.5,0,0,0,.39-1.107,1.523,1.523,0,0,0-.39-1.1,1.55,1.55,0,0,0-1.171-.408h-1.815v3.013Z" transform="translate(-419.387 -2210.914)"/>
        <path id="Trazado_133814" data-name="Trazado 133814" d="M432.4,2222.078a4.672,4.672,0,0,1-2.06-.445,3.357,3.357,0,0,1-1.416-1.316,3.864,3.864,0,0,1-.517-2.033,3.633,3.633,0,0,1,1.107-2.723,4.619,4.619,0,0,1,5.781,0,4.03,4.03,0,0,1,0,5.545A4.1,4.1,0,0,1,432.4,2222.078Zm0-1.625a1.881,1.881,0,0,0,1.443-.6,2.215,2.215,0,0,0,.545-1.57,2.258,2.258,0,0,0-.545-1.579,1.9,1.9,0,0,0-1.443-.59,1.814,1.814,0,0,0-1.407.6,2.569,2.569,0,0,0,0,3.14,1.816,1.816,0,0,0,1.389.6Z" transform="translate(-420.221 -2211.205)"/>
        <path id="Trazado_133815" data-name="Trazado 133815" d="M441.394,2222.073a4.154,4.154,0,0,1-2.133-.508,2.179,2.179,0,0,1-1.035-1.525l1.706-.481a1.37,1.37,0,0,0,1.461,1.089,1.433,1.433,0,0,0,.744-.172.571.571,0,0,0,.29-.562.629.629,0,0,0-.118-.372,1.02,1.02,0,0,0-.372-.272l-.5-.191-.653-.19a6.923,6.923,0,0,1-.672-.209,3.945,3.945,0,0,1-.644-.272,2.4,2.4,0,0,1-.526-.372,1.518,1.518,0,0,1-.4-.572,2.1,2.1,0,0,1-.136-.781,1.871,1.871,0,0,1,.79-1.634,3.57,3.57,0,0,1,2.069-.553,3.631,3.631,0,0,1,1.906.472,2.1,2.1,0,0,1,.98,1.461l-1.588.354a1.234,1.234,0,0,0-1.3-.908,1.479,1.479,0,0,0-.708.164.536.536,0,0,0-.29.49.587.587,0,0,0,0,.218.44.44,0,0,0,.145.172l.209.136a1.332,1.332,0,0,0,.29.118,2.529,2.529,0,0,0,.318.091l.372.1.381.1a5.6,5.6,0,0,1,.681.209,4.3,4.3,0,0,1,.635.3,2.384,2.384,0,0,1,.545.427,2.067,2.067,0,0,1,.363.608,2.248,2.248,0,0,1,.136.808,2.166,2.166,0,0,1-.245,1.052,1.808,1.808,0,0,1-.672.717,3.235,3.235,0,0,1-.908.381A4.933,4.933,0,0,1,441.394,2222.073Z" transform="translate(-421.129 -2211.2)"/>
        <path id="Trazado_133816" data-name="Trazado 133816" d="M447.666,2213.216a1.176,1.176,0,0,1-.866-1.975l.031-.031a1.161,1.161,0,0,1,.835-.345,1.18,1.18,0,0,1,0,2.351Zm-1.044,8.377v-7.26h2.06v7.26Z" transform="translate(-421.892 -2210.865)"/>
        <path id="Trazado_133817" data-name="Trazado 133817" d="M453.883,2221.7a2.185,2.185,0,0,1-1.652-.59,2.321,2.321,0,0,1-.581-1.688v-3.44h-1.434v-1.57h.463a1.173,1.173,0,0,0,.908-.309,1.522,1.522,0,0,0,.29-1.08v-.962h1.815v2.351H455.2v1.57h-1.507v3.222c0,.635.281.907.844.907h.663v1.552Z" transform="translate(-422.238 -2210.976)"/>
        <path id="Trazado_133818" data-name="Trazado 133818" d="M458.477,2213.216a1.145,1.145,0,0,1-.835-.345,1.171,1.171,0,0,1-.005-1.655l.005-.005a1.167,1.167,0,0,1,.835-.345,1.155,1.155,0,0,1,.826.345,1.171,1.171,0,0,1,.005,1.656l-.005.005A1.153,1.153,0,0,1,458.477,2213.216Zm-1.044,8.377v-7.26h2.06v7.26Z" transform="translate(-422.892 -2210.865)"/>
        <path id="Trazado_133819" data-name="Trazado 133819" d="M466.663,2214.655h2.169l-3.113,7.26H463.9l-3.067-7.26h2.2l1.815,4.982Z" transform="translate(-423.22 -2211.215)"/>
        <path id="Trazado_133820" data-name="Trazado 133820" d="M473.85,2222.077a4.7,4.7,0,0,1-2.069-.445,3.359,3.359,0,0,1-1.416-1.316,3.946,3.946,0,0,1-.508-2.033,3.55,3.55,0,0,1,1.107-2.723,4.6,4.6,0,0,1,5.772,0,4.03,4.03,0,0,1,0,5.545A4.074,4.074,0,0,1,473.85,2222.077Zm0-1.625a1.817,1.817,0,0,0,1.443-.6,2.189,2.189,0,0,0,.554-1.57,2.224,2.224,0,0,0-.554-1.579,1.879,1.879,0,0,0-1.443-.581,1.814,1.814,0,0,0-1.4.6,2.533,2.533,0,0,0,0,3.14A1.817,1.817,0,0,0,473.85,2220.453Z" transform="translate(-424.053 -2211.205)"/>
      </g>
      <g id="Grupo_63687" data-name="Grupo 63687" transform="translate(136.602 136.33)">
        <path id="Trazado_133821" data-name="Trazado 133821" d="M539.126,2255.488l-.853-2.387h-4.538l-.853,2.387h-1.325l3.685-9.983h1.516l3.675,9.983Zm-4.964-3.5h3.712l-1.86-5.2Z" transform="translate(-531.557 -2244.597)"/>
        <path id="Trazado_133822" data-name="Trazado 133822" d="M546.887,2248.29a3.049,3.049,0,0,1,2.305,1.007,4.12,4.12,0,0,1,0,5.246,3,3,0,0,1-2.305,1.008,2.775,2.775,0,0,1-1.488-.408,2.594,2.594,0,0,1-1-1.1v1.352h-1.143V2244.5h1.216v5.246a2.581,2.581,0,0,1,1-1.071A2.784,2.784,0,0,1,546.887,2248.29Zm-.272,6.189a2.16,2.16,0,0,0,1.634-.708,2.623,2.623,0,0,0,.653-1.815,2.658,2.658,0,0,0-.653-1.815,2.158,2.158,0,0,0-1.634-.708,2.089,2.089,0,0,0-1.615.735,2.868,2.868,0,0,0,0,3.63,2.1,2.1,0,0,0,1.634.681Z" transform="translate(-532.639 -2244.505)"/>
        <path id="Trazado_133823" data-name="Trazado 133823" d="M557.3,2248.823h1.225v6.97h-1.171v-.907a2.194,2.194,0,0,1-.907.781,2.649,2.649,0,0,1-1.216.272,2.423,2.423,0,0,1-1.752-.626,2.348,2.348,0,0,1-.662-1.815V2248.8h1.225v4.42a1.635,1.635,0,0,0,.436,1.243,1.47,1.47,0,0,0,1.089.417,1.689,1.689,0,0,0,1.243-.481,1.962,1.962,0,0,0,.481-1.425Z" transform="translate(-533.522 -2244.903)"/>
        <path id="Trazado_133824" data-name="Trazado 133824" d="M563.055,2250.046a2.156,2.156,0,0,1,.908-.907,2.576,2.576,0,0,1,1.334-.363v1.153a2.29,2.29,0,0,0-1.615.517,2.16,2.16,0,0,0-.554,1.652v3.721h-1.271v-6.97h1.2Z" transform="translate(-534.359 -2244.9)"/>
        <path id="Trazado_133825" data-name="Trazado 133825" d="M568.4,2250.046a2.121,2.121,0,0,1,.862-.907,2.646,2.646,0,0,1,1.343-.363v1.153a2.314,2.314,0,0,0-1.625.517,2.2,2.2,0,0,0-.554,1.652v3.721H567.2v-6.97h1.2Z" transform="translate(-534.852 -2244.9)"/>
        <path id="Trazado_133826" data-name="Trazado 133826" d="M573.173,2246.857a.788.788,0,0,1-.581-.245.811.811,0,0,1-.245-.59.789.789,0,0,1,.245-.581.834.834,0,0,1,1.162,0,.788.788,0,0,1,.245.581.81.81,0,0,1-.245.59A.788.788,0,0,1,573.173,2246.857Zm-.617,8.6v-6.97h1.234v6.97Z" transform="translate(-535.329 -2244.57)"/>
        <path id="Trazado_133827" data-name="Trazado 133827" d="M583.771,2248.675a2.239,2.239,0,0,1,1.624.6,2.185,2.185,0,0,1,.617,1.661v4.846h-1.234v-4.538a1.586,1.586,0,0,0-.381-1.153,1.324,1.324,0,0,0-.971-.39,1.4,1.4,0,0,0-1.062.445,1.869,1.869,0,0,0-.408,1.316v4.311h-1.243v-4.483a1.605,1.605,0,0,0-.39-1.18,1.291,1.291,0,0,0-.989-.408,1.353,1.353,0,0,0-1.053.454,1.962,1.962,0,0,0-.408,1.352v4.266h-1.225v-6.97h1.225v.908a2.07,2.07,0,0,1,.8-.762,2.253,2.253,0,0,1,1.107-.272,2.35,2.35,0,0,1,1.189.3,1.815,1.815,0,0,1,.771.844,2.2,2.2,0,0,1,.835-.844A2.4,2.4,0,0,1,583.771,2248.675Z" transform="translate(-535.726 -2244.89)"/>
        <path id="Trazado_133828" data-name="Trazado 133828" d="M590.173,2246.857a.788.788,0,0,1-.581-.245.81.81,0,0,1-.245-.59.789.789,0,0,1,.245-.581.817.817,0,0,1,.581-.236.831.831,0,0,1,.581.236.788.788,0,0,1,.245.581A.836.836,0,0,1,590.173,2246.857Zm-.626,8.6v-6.97h1.234v6.97Z" transform="translate(-536.901 -2244.57)"/>
        <path id="Trazado_133829" data-name="Trazado 133829" d="M599.732,2252.165v.336h-5.445a2.441,2.441,0,0,0,.663,1.815,2.179,2.179,0,0,0,1.588.626,2.12,2.12,0,0,0,1.153-.336,2.22,2.22,0,0,0,.8-.908l1.107.236a3.162,3.162,0,0,1-1.2,1.5,3.214,3.214,0,0,1-1.815.545,3.368,3.368,0,0,1-2.514-.971,4.13,4.13,0,0,1,0-5.3,3.354,3.354,0,0,1,2.478-.971,3.137,3.137,0,0,1,2.341.907A3.52,3.52,0,0,1,599.732,2252.165Zm-3.222-2.541a2.139,2.139,0,0,0-1.452.5,2.261,2.261,0,0,0-.735,1.434H598.5a2.042,2.042,0,0,0-.608-1.434A1.939,1.939,0,0,0,596.51,2249.624Z" transform="translate(-537.248 -2244.896)"/>
        <path id="Trazado_133830" data-name="Trazado 133830" d="M605.812,2248.675a2.457,2.457,0,0,1,1.761.635,2.36,2.36,0,0,1,.653,1.815v4.692H607v-4.411a1.67,1.67,0,0,0-.427-1.252,1.5,1.5,0,0,0-1.089-.408,1.689,1.689,0,0,0-1.243.481,1.914,1.914,0,0,0-.49,1.425v4.166h-1.225v-6.97h1.225v.908A2.323,2.323,0,0,1,605.812,2248.675Z" transform="translate(-538.119 -2244.89)"/>
        <path id="Trazado_133831" data-name="Trazado 133831" d="M613.533,2255.56a1.813,1.813,0,0,1-1.361-.5,1.918,1.918,0,0,1-.5-1.389v-4.1h-1.416v-.98h.526a1,1,0,0,0,.771-.245,1.215,1.215,0,0,0,.227-.817v-1.243h1.134v2.323h1.606v.98h-1.606v3.957a1.036,1.036,0,0,0,.272.762.907.907,0,0,0,.7.272h.635v.98Z" transform="translate(-538.834 -2244.669)"/>
        <path id="Trazado_133832" data-name="Trazado 133832" d="M619.677,2255.917a3.625,3.625,0,0,1-1.815-.436,3.1,3.1,0,0,1-1.252-1.261,3.9,3.9,0,0,1-.463-1.924,3.56,3.56,0,0,1,.989-2.632,3.7,3.7,0,0,1,5.037,0,3.992,3.992,0,0,1,0,5.264A3.4,3.4,0,0,1,619.677,2255.917Zm0-1.016a2.16,2.16,0,0,0,1.643-.717,2.724,2.724,0,0,0,.653-1.888,2.657,2.657,0,0,0-.653-1.879,2.121,2.121,0,0,0-1.643-.717,2.077,2.077,0,0,0-1.634.717,2.657,2.657,0,0,0-.653,1.879,2.724,2.724,0,0,0,.653,1.888A2.115,2.115,0,0,0,619.677,2254.9Z" transform="translate(-539.378 -2244.891)"/>
        <path id="Trazado_133833" data-name="Trazado 133833" d="M538.191,2265.867h-4.066v3.267h3.63v1.143h-3.63v3.258h4.057v1.153h-5.354v-9.983h5.354Z" transform="translate(-531.674 -2246.373)"/>
        <path id="Trazado_133834" data-name="Trazado 133834" d="M543.213,2275.119a3.3,3.3,0,0,1-1.879-.5,2.069,2.069,0,0,1-.908-1.434l1.071-.309a1.472,1.472,0,0,0,.572.971,1.816,1.816,0,0,0,1.143.345,2.547,2.547,0,0,0,.672-.091,1.084,1.084,0,0,0,.508-.345.909.909,0,0,0,.209-.635,1.367,1.367,0,0,0-.054-.291,1.08,1.08,0,0,0-.118-.227.51.51,0,0,0-.2-.19,2.088,2.088,0,0,0-.236-.154l-.318-.127-.336-.118-.39-.109-.408-.118c-.29-.091-.526-.172-.717-.254a3.074,3.074,0,0,1-.59-.336,1.361,1.361,0,0,1-.454-.553,1.726,1.726,0,0,1-.154-.781,1.815,1.815,0,0,1,.336-1.107,1.9,1.9,0,0,1,.908-.663,3.437,3.437,0,0,1,1.234-.2,3.049,3.049,0,0,1,1.7.454,1.908,1.908,0,0,1,.844,1.361l-1.007.254a1.324,1.324,0,0,0-.526-.907,1.687,1.687,0,0,0-1-.3,1.744,1.744,0,0,0-.908.245.833.833,0,0,0-.381.753.686.686,0,0,0,.1.381.971.971,0,0,0,.209.272,1.378,1.378,0,0,0,.381.218l.408.145.517.127h.1c.281.063.5.127.672.181a5.5,5.5,0,0,1,.608.254,1.974,1.974,0,0,1,.535.381,1.755,1.755,0,0,1,.345.545,1.949,1.949,0,0,1,.136.744,1.978,1.978,0,0,1-.209.908,1.692,1.692,0,0,1-.563.645,2.734,2.734,0,0,1-.817.345A3.706,3.706,0,0,1,543.213,2275.119Z" transform="translate(-532.377 -2246.667)"/>
        <path id="Trazado_133835" data-name="Trazado 133835" d="M550.56,2274.758a1.814,1.814,0,0,1-1.361-.5,1.9,1.9,0,0,1-.49-1.388v-4.1h-1.452v-.98h.517a1,1,0,0,0,.771-.245,1.169,1.169,0,0,0,.227-.817v-1.261h1.207v2.323h1.6v.98h-1.6v3.975a1.027,1.027,0,0,0,.263.762.907.907,0,0,0,.7.272h.635v.98Z" transform="translate(-533.009 -2246.443)"/>
        <path id="Trazado_133836" data-name="Trazado 133836" d="M555.39,2275.12a2.322,2.322,0,0,1-1.525-.481,1.707,1.707,0,0,1-.6-1.425,2,2,0,0,1,.191-.907,1.542,1.542,0,0,1,.572-.635,3.116,3.116,0,0,1,.817-.4,7.116,7.116,0,0,1,1.062-.245l1.125-.19c.408-.073.617-.291.617-.645a1.207,1.207,0,0,0-.436-1.035,1.989,1.989,0,0,0-2.2,0,1.334,1.334,0,0,0-.517.971l-1.107-.227a2.179,2.179,0,0,1,.908-1.5,3.267,3.267,0,0,1,1.906-.5,3.9,3.9,0,0,1,1.007.127,2.718,2.718,0,0,1,.844.39,1.759,1.759,0,0,1,.6.744,2.806,2.806,0,0,1,.218,1.153v2.877a1.171,1.171,0,0,0,.163.726.671.671,0,0,0,.544.191h.118v.908h-.608c-.753,0-1.2-.309-1.325-.908h-.054A2.64,2.64,0,0,1,555.39,2275.12Zm.29-.989a1.816,1.816,0,0,0,1.488-.672,2.788,2.788,0,0,0,.572-1.815l-1.815.354a2.429,2.429,0,0,0-1.08.39,1.015,1.015,0,0,0-.018,1.525,1.409,1.409,0,0,0,.853.218Z" transform="translate(-533.564 -2246.668)"/>
        <path id="Trazado_133837" data-name="Trazado 133837" d="M565.515,2267.875a2.425,2.425,0,0,1,1.752.635,2.36,2.36,0,0,1,.653,1.815v4.692h-1.225v-4.411a1.634,1.634,0,0,0-.427-1.252,1.5,1.5,0,0,0-1.089-.4,1.7,1.7,0,0,0-1.243.472,1.988,1.988,0,0,0-.49,1.425v4.166h-1.189v-6.97h1.225v.908A2.341,2.341,0,0,1,565.515,2267.875Z" transform="translate(-534.396 -2246.666)"/>
        <path id="Trazado_133838" data-name="Trazado 133838" d="M573.9,2275.108a3.338,3.338,0,0,1-2.5-1,3.975,3.975,0,0,1,0-5.227,3.63,3.63,0,0,1,4.538-.39,3.086,3.086,0,0,1,1.18,1.688l-1.153.191a2.09,2.09,0,0,0-.79-1.089,2.139,2.139,0,0,0-1.261-.381,2.027,2.027,0,0,0-1.606.717,3.1,3.1,0,0,0,0,3.757,2.053,2.053,0,0,0,1.606.708,2.138,2.138,0,0,0,1.261-.381,2.09,2.09,0,0,0,.79-1.089l1.153.191a3.1,3.1,0,0,1-1.18,1.7A3.4,3.4,0,0,1,573.9,2275.108Z" transform="translate(-535.151 -2246.666)"/>
        <path id="Trazado_133839" data-name="Trazado 133839" d="M581.36,2275.12a2.322,2.322,0,0,1-1.525-.481,1.707,1.707,0,0,1-.6-1.425,2,2,0,0,1,.191-.907,1.573,1.573,0,0,1,.563-.635,3.316,3.316,0,0,1,.826-.4,7.118,7.118,0,0,1,1.062-.245l1.125-.19c.408-.073.617-.291.617-.645a1.207,1.207,0,0,0-.436-1.035,1.988,1.988,0,0,0-2.2,0,1.335,1.335,0,0,0-.517.971l-1.107-.227a2.114,2.114,0,0,1,.908-1.5,3.224,3.224,0,0,1,1.9-.5,3.965,3.965,0,0,1,1.016.127,2.717,2.717,0,0,1,.844.39,1.76,1.76,0,0,1,.6.744,2.805,2.805,0,0,1,.218,1.153v2.877a1.171,1.171,0,0,0,.163.726.662.662,0,0,0,.545.191h.054v.908h-.617a1.162,1.162,0,0,1-1.316-.908h-.054A2.652,2.652,0,0,1,581.36,2275.12Zm.29-.989a1.816,1.816,0,0,0,1.488-.672,2.787,2.787,0,0,0,.572-1.815L581.9,2272a2.381,2.381,0,0,0-1.08.39,1.015,1.015,0,0,0-.018,1.525,1.409,1.409,0,0,0,.853.218Z" transform="translate(-535.965 -2246.668)"/>
        <path id="Trazado_133840" data-name="Trazado 133840" d="M595.311,2267.874a2.232,2.232,0,0,1,1.625.6,2.163,2.163,0,0,1,.617,1.661v4.846h-1.225v-4.538a1.586,1.586,0,0,0-.381-1.153,1.316,1.316,0,0,0-.971-.381,1.36,1.36,0,0,0-1.062.436,1.87,1.87,0,0,0-.408,1.316v4.311h-1.243V2270.5a1.659,1.659,0,0,0-.39-1.189,1.3,1.3,0,0,0-.989-.4,1.361,1.361,0,0,0-1.062.445,1.962,1.962,0,0,0-.408,1.353v4.265h-1.225V2268h1.225v.908a2.171,2.171,0,0,1,.8-.771,2.259,2.259,0,0,1,1.116-.272,2.348,2.348,0,0,1,1.189.3,1.813,1.813,0,0,1,.771.844,2.194,2.194,0,0,1,.835-.844A2.364,2.364,0,0,1,595.311,2267.874Z" transform="translate(-536.793 -2246.665)"/>
        <path id="Trazado_133841" data-name="Trazado 133841" d="M601.732,2266.057a.835.835,0,0,1-.835-.835h0a.789.789,0,0,1,.245-.581.838.838,0,0,1,.59-.236.808.808,0,0,1,.572.236.788.788,0,0,1,.245.581.81.81,0,0,1-.245.59A.784.784,0,0,1,601.732,2266.057Zm-.626,8.6v-6.97h1.234v6.97Z" transform="translate(-537.969 -2246.345)"/>
        <path id="Trazado_133842" data-name="Trazado 133842" d="M611.284,2271.364v.336h-5.445a2.441,2.441,0,0,0,.672,1.815,2.178,2.178,0,0,0,1.588.626,2.106,2.106,0,0,0,1.942-1.261l1.107.236a3.1,3.1,0,0,1-1.189,1.5,3.26,3.26,0,0,1-1.815.545,3.366,3.366,0,0,1-2.5-.971,4.129,4.129,0,0,1,0-5.3,3.339,3.339,0,0,1,2.468-.971,3.15,3.15,0,0,1,2.351.907A3.565,3.565,0,0,1,611.284,2271.364Zm-3.231-2.541a2.135,2.135,0,0,0-1.443.5,2.261,2.261,0,0,0-.735,1.434h4.175a2.076,2.076,0,0,0-.608-1.434,1.959,1.959,0,0,0-1.389-.5Z" transform="translate(-538.318 -2246.669)"/>
        <path id="Trazado_133843" data-name="Trazado 133843" d="M617.361,2267.875a2.425,2.425,0,0,1,1.752.635,2.36,2.36,0,0,1,.662,1.815v4.692h-1.234v-4.411a1.67,1.67,0,0,0-.417-1.252,1.53,1.53,0,0,0-1.1-.4,1.677,1.677,0,0,0-1.234.472,1.915,1.915,0,0,0-.49,1.425v4.166h-1.234v-6.97H615.3v.908A2.313,2.313,0,0,1,617.361,2267.875Z" transform="translate(-539.186 -2246.666)"/>
        <path id="Trazado_133844" data-name="Trazado 133844" d="M625.082,2274.758a1.814,1.814,0,0,1-1.361-.5,1.88,1.88,0,0,1-.5-1.388v-4.1H621.8v-.98h.526a1.025,1.025,0,0,0,.771-.245,1.227,1.227,0,0,0,.218-.817v-1.261h1.143v2.323h1.606v.98h-1.606v3.975a1.061,1.061,0,0,0,.263.762.906.906,0,0,0,.7.272h.644v.98Z" transform="translate(-539.901 -2246.443)"/>
        <path id="Trazado_133845" data-name="Trazado 133845" d="M631.231,2275.117a3.627,3.627,0,0,1-1.815-.436,3.107,3.107,0,0,1-1.207-1.261,3.8,3.8,0,0,1-.472-1.924,3.63,3.63,0,0,1,.989-2.632,3.713,3.713,0,0,1,5.046,0,3.992,3.992,0,0,1,0,5.264A3.4,3.4,0,0,1,631.231,2275.117Zm0-1.016a2.16,2.16,0,0,0,1.652-.717,2.723,2.723,0,0,0,.653-1.888,2.658,2.658,0,0,0-.653-1.879,2.134,2.134,0,0,0-1.652-.717,2.108,2.108,0,0,0-1.634.717,3.074,3.074,0,0,0,0,3.766,2.142,2.142,0,0,0,1.625.717Z" transform="translate(-540.45 -2246.666)"/>
        <path id="Trazado_133846" data-name="Trazado 133846" d="M532.837,2293.888v-9.983h1.289v9.983Z" transform="translate(-531.675 -2248.148)"/>
        <path id="Trazado_133847" data-name="Trazado 133847" d="M540.63,2287.075a2.442,2.442,0,0,1,1.752.635,2.36,2.36,0,0,1,.653,1.815v4.692H541.8v-4.42a1.664,1.664,0,0,0-.427-1.243,1.5,1.5,0,0,0-1.089-.408,1.7,1.7,0,0,0-1.243.481,1.988,1.988,0,0,0-.49,1.425v4.166h-1.225v-6.97h1.225v.907A2.324,2.324,0,0,1,540.63,2287.075Z" transform="translate(-532.091 -2248.441)"/>
        <path id="Trazado_133848" data-name="Trazado 133848" d="M548.373,2294.319a3.294,3.294,0,0,1-1.879-.5,2.1,2.1,0,0,1-.908-1.434l1.071-.309a1.548,1.548,0,0,0,.572.971,1.876,1.876,0,0,0,1.144.345,2.546,2.546,0,0,0,.672-.091,1.164,1.164,0,0,0,.517-.345.909.909,0,0,0,.2-.635.758.758,0,0,0-.055-.29,1.056,1.056,0,0,0-.109-.227.573.573,0,0,0-.2-.19,2.039,2.039,0,0,0-.245-.154,2.149,2.149,0,0,0-.318-.127l-.336-.118-.39-.109-.4-.118c-.29-.091-.535-.172-.726-.254a3.378,3.378,0,0,1-.59-.336,1.361,1.361,0,0,1-.454-.554,1.862,1.862,0,0,1-.154-.781,1.816,1.816,0,0,1,.345-1.116,1.925,1.925,0,0,1,.908-.653,3.475,3.475,0,0,1,1.234-.2,3.024,3.024,0,0,1,1.7.454,1.942,1.942,0,0,1,.853,1.361l-1.007.254a1.333,1.333,0,0,0-.536-.907,1.666,1.666,0,0,0-1-.3,1.737,1.737,0,0,0-.907.245.825.825,0,0,0-.39.753.776.776,0,0,0,.1.381.91.91,0,0,0,.59.481,4.045,4.045,0,0,0,.417.154l.508.127h.109l.672.191a4.84,4.84,0,0,1,.6.254,2.2,2.2,0,0,1,.544.381,1.9,1.9,0,0,1,.481,1.289,2.1,2.1,0,0,1-.209.907,1.616,1.616,0,0,1-.572.635,2.481,2.481,0,0,1-.808.354A3.76,3.76,0,0,1,548.373,2294.319Z" transform="translate(-532.854 -2248.443)"/>
        <path id="Trazado_133849" data-name="Trazado 133849" d="M554.173,2285.257a.789.789,0,0,1-.581-.245.811.811,0,0,1-.245-.59.789.789,0,0,1,.245-.581.834.834,0,0,1,1.162,0,.789.789,0,0,1,.245.581.81.81,0,0,1-.245.59A.789.789,0,0,1,554.173,2285.257Zm-.626,8.6v-6.97h1.234v6.97Z" transform="translate(-533.572 -2248.12)"/>
        <path id="Trazado_133850" data-name="Trazado 133850" d="M561.4,2287.075a3.29,3.29,0,0,1,1.261.254,3.2,3.2,0,0,1,1.035.717,3.384,3.384,0,0,1,.7,1.153,4.283,4.283,0,0,1,.254,1.507,3.628,3.628,0,0,1-.908,2.623,3.04,3.04,0,0,1-2.314,1.007,2.781,2.781,0,0,1-1.461-.4,2.632,2.632,0,0,1-1-1.071v4.828h-1.225v-10.482h1.189v1.352a2.523,2.523,0,0,1,.989-1.08A2.766,2.766,0,0,1,561.4,2287.075Zm-.245,6.189a2.1,2.1,0,0,0,1.615-.7,2.978,2.978,0,0,0,0-3.721,2.1,2.1,0,0,0-1.615-.7,2.142,2.142,0,0,0-1.634.726,2.841,2.841,0,0,0,0,3.63A2.143,2.143,0,0,0,561.159,2293.264Z" transform="translate(-533.979 -2248.441)"/>
        <path id="Trazado_133851" data-name="Trazado 133851" d="M568.093,2285.257a.789.789,0,0,1-.581-.245.811.811,0,0,1-.245-.59.789.789,0,0,1,.245-.581.834.834,0,0,1,1.162,0,.788.788,0,0,1,.245.581.81.81,0,0,1-.245.59A.789.789,0,0,1,568.093,2285.257Zm-.617,8.6v-6.97h1.234v6.97Z" transform="translate(-534.859 -2248.12)"/>
        <path id="Trazado_133852" data-name="Trazado 133852" d="M576.677,2282.905H577.9v10.89h-1.189v-1.352a2.571,2.571,0,0,1-.989,1.1,2.729,2.729,0,0,1-1.479.408,3.175,3.175,0,0,1-1.261-.263,3.046,3.046,0,0,1-1.035-.726,3.24,3.24,0,0,1-.7-1.153,4.164,4.164,0,0,1-.263-1.488,3.7,3.7,0,0,1,.908-2.623,3.066,3.066,0,0,1,2.314-1.008,2.783,2.783,0,0,1,1.461.4,2.617,2.617,0,0,1,1,1.062Zm-2.2,9.983a2.106,2.106,0,0,0,1.615-.726,2.894,2.894,0,0,0,0-3.63,2.1,2.1,0,0,0-1.615-.735,2.133,2.133,0,0,0-1.634.708,2.932,2.932,0,0,0,0,3.712,2.133,2.133,0,0,0,1.652.662Z" transform="translate(-535.202 -2248.056)"/>
        <path id="Trazado_133853" data-name="Trazado 133853" d="M587.424,2290.565v.336h-5.445a2.442,2.442,0,0,0,.672,1.815,2.18,2.18,0,0,0,1.588.626,2.12,2.12,0,0,0,1.153-.336,2.276,2.276,0,0,0,.8-.907l1.1.236a3.1,3.1,0,0,1-1.189,1.5,3.257,3.257,0,0,1-1.815.544,3.366,3.366,0,0,1-2.5-.971,4.13,4.13,0,0,1,0-5.3,3.339,3.339,0,0,1,2.468-.971,3.149,3.149,0,0,1,2.351.907A3.555,3.555,0,0,1,587.424,2290.565Zm-3.231-2.541a2.134,2.134,0,0,0-1.443.5,2.261,2.261,0,0,0-.735,1.434h4.175a2.076,2.076,0,0,0-.608-1.434A1.959,1.959,0,0,0,584.193,2288.024Z" transform="translate(-536.112 -2248.446)"/>
        <path id="Trazado_133854" data-name="Trazado 133854" d="M590.859,2293.206h3.721v.989h-5.563l3.676-5.972h-3.458v-1h5.345Z" transform="translate(-536.87 -2248.455)"/>
        <path id="Trazado_133855" data-name="Trazado 133855" d="M538.191,2304.271h-4.066v3.267h3.63v1.18h-3.63v3.267h4.057v1.153h-5.354v-9.983h5.354Z" transform="translate(-531.674 -2249.928)"/>
        <path id="Trazado_133856" data-name="Trazado 133856" d="M544.352,2306.285a2.456,2.456,0,0,1,1.761.635,2.36,2.36,0,0,1,.653,1.815v4.692h-1.225v-4.42a1.663,1.663,0,0,0-.427-1.243,1.525,1.525,0,0,0-1.1-.408,1.677,1.677,0,0,0-1.234.481,1.914,1.914,0,0,0-.49,1.425v4.166h-1.225v-6.97h1.225v.907A2.323,2.323,0,0,1,544.352,2306.285Z" transform="translate(-532.436 -2250.217)"/>
        <path id="Trazado_133857" data-name="Trazado 133857" d="M556,2309.763v.336h-5.445a2.442,2.442,0,0,0,.672,1.815,2.163,2.163,0,0,0,1.588.626,2.106,2.106,0,0,0,1.942-1.261l1.107.236a3.1,3.1,0,0,1-1.189,1.5,3.25,3.25,0,0,1-1.815.544,3.367,3.367,0,0,1-2.5-.971,4.13,4.13,0,0,1,0-5.3,3.321,3.321,0,0,1,2.469-.971,3.119,3.119,0,0,1,2.341.907A3.52,3.52,0,0,1,556,2309.763Zm-3.231-2.541a2.159,2.159,0,0,0-1.452.5,2.2,2.2,0,0,0-.726,1.434h4.175a2.125,2.125,0,0,0-.608-1.434,1.959,1.959,0,0,0-1.388-.526Z" transform="translate(-533.207 -2250.22)"/>
        <path id="Trazado_133858" data-name="Trazado 133858" d="M559.989,2307.646a2.156,2.156,0,0,1,.908-.908,2.578,2.578,0,0,1,1.334-.363v1.153a2.289,2.289,0,0,0-1.615.517,2.16,2.16,0,0,0-.554,1.652v3.721h-1.234v-6.97h1.2Z" transform="translate(-534.079 -2250.226)"/>
        <path id="Trazado_133859" data-name="Trazado 133859" d="M568.52,2306.425h1.316l-2.832,6.97h-1.035l-2.823-6.97h1.3l2.042,5.545Z" transform="translate(-534.478 -2250.23)"/>
        <path id="Trazado_133860" data-name="Trazado 133860" d="M573.37,2313.549a2.382,2.382,0,0,1-1.525-.481,1.706,1.706,0,0,1-.6-1.425,2.06,2.06,0,0,1,.191-.907,1.613,1.613,0,0,1,.563-.626,3.325,3.325,0,0,1,.826-.4,8.6,8.6,0,0,1,1.053-.254l1.134-.181c.408-.073.608-.291.608-.644a1.207,1.207,0,0,0-.436-1.035,1.72,1.72,0,0,0-1.1-.336,1.81,1.81,0,0,0-1.089.318,1.314,1.314,0,0,0-.517.98l-1.107-.236a2.112,2.112,0,0,1,.908-1.488,3.21,3.21,0,0,1,1.9-.5,3.955,3.955,0,0,1,1.016.127,2.71,2.71,0,0,1,.844.39,1.76,1.76,0,0,1,.6.744,2.8,2.8,0,0,1,.218,1.153v2.877a1.243,1.243,0,0,0,.154.726.691.691,0,0,0,.554.19h.045v.908H577a1.153,1.153,0,0,1-1.316-.908h-.054A2.724,2.724,0,0,1,573.37,2313.549Zm.281-.989a1.817,1.817,0,0,0,1.5-.681,2.723,2.723,0,0,0,.572-1.815l-1.815.354a2.483,2.483,0,0,0-1.089.39,1.024,1.024,0,0,0-.009,1.525,1.4,1.4,0,0,0,.844.2Z" transform="translate(-535.227 -2250.222)"/>
        <path id="Trazado_133861" data-name="Trazado 133861" d="M582.9,2313.548a3.33,3.33,0,0,1-2.5-1,3.975,3.975,0,0,1,0-5.228,3.63,3.63,0,0,1,4.538-.39,3.084,3.084,0,0,1,1.18,1.688l-1.153.19a2.087,2.087,0,0,0-2.051-1.47,2.025,2.025,0,0,0-1.606.717,3.085,3.085,0,0,0,0,3.748,2.025,2.025,0,0,0,1.606.717,2.088,2.088,0,0,0,2.051-1.47l1.153.191a3.109,3.109,0,0,1-1.18,1.7A3.415,3.415,0,0,1,582.9,2313.548Z" transform="translate(-535.983 -2250.22)"/>
        <path id="Trazado_133862" data-name="Trazado 133862" d="M589.342,2304.457a.835.835,0,0,1-.835-.835h0a.789.789,0,0,1,.245-.581.838.838,0,0,1,.59-.236.809.809,0,0,1,.572.236.789.789,0,0,1,.245.581.81.81,0,0,1-.245.59A.785.785,0,0,1,589.342,2304.457Zm-.626,8.6v-6.97h1.234v6.97Z" transform="translate(-536.823 -2249.896)"/>
        <path id="Trazado_133863" data-name="Trazado 133863" d="M595.723,2313.207a3.624,3.624,0,0,1-1.815-.436,3.1,3.1,0,0,1-1.252-1.261,3.892,3.892,0,0,1-.4-1.933,3.559,3.559,0,0,1,.989-2.632,3.7,3.7,0,0,1,5.037,0,3.992,3.992,0,0,1,0,5.264A3.4,3.4,0,0,1,595.723,2313.207Zm0-1.016a2.159,2.159,0,0,0,1.652-.717,2.723,2.723,0,0,0,.654-1.888,2.657,2.657,0,0,0-.654-1.878,2.133,2.133,0,0,0-1.652-.717,2.107,2.107,0,0,0-1.634.717,3.074,3.074,0,0,0,0,3.766,2.142,2.142,0,0,0,1.625.69Zm-.454-7.26,1.815-2.305.653.472-1.588,1.815Z" transform="translate(-537.169 -2249.879)"/>
        <path id="Trazado_133864" data-name="Trazado 133864" d="M605.352,2306.285a2.456,2.456,0,0,1,1.761.635,2.359,2.359,0,0,1,.653,1.815v4.692h-1.225v-4.42a1.664,1.664,0,0,0-.427-1.243,1.524,1.524,0,0,0-1.1-.408,1.677,1.677,0,0,0-1.234.481,1.914,1.914,0,0,0-.49,1.425v4.166h-1.225v-6.97h1.225v.907A2.323,2.323,0,0,1,605.352,2306.285Z" transform="translate(-538.077 -2250.217)"/>
        <path id="Trazado_133865" data-name="Trazado 133865" d="M538.191,2323.465h-4.066v3.267h3.63v1.135h-3.63v3.267h4.057v1.135h-5.354v-9.983h5.354Z" transform="translate(-531.674 -2251.697)"/>
        <path id="Trazado_133866" data-name="Trazado 133866" d="M544.352,2325.475a2.457,2.457,0,0,1,1.761.635,2.36,2.36,0,0,1,.653,1.815v4.637h-1.225v-4.42a1.652,1.652,0,0,0-.427-1.243,1.526,1.526,0,0,0-1.1-.408,1.678,1.678,0,0,0-1.234.481,1.915,1.915,0,0,0-.49,1.425v4.166h-1.225v-6.97h1.225v.907A2.323,2.323,0,0,1,544.352,2325.475Z" transform="translate(-532.436 -2251.992)"/>
        <path id="Trazado_133867" data-name="Trazado 133867" d="M553.051,2322.332h-.517a1.2,1.2,0,0,0-.254,0l-.227.073a.506.506,0,0,0-.209.118l-.163.181a.775.775,0,0,0-.136.254,2.653,2.653,0,0,0-.073.345,2.194,2.194,0,0,0,0,.436v1.434h1.615v.98h-1.615v6.026h-1.252v-5.99h-1.352v-.98h1.352v-1.461a3.6,3.6,0,0,1,.073-.808,2.624,2.624,0,0,1,.2-.617,1.566,1.566,0,0,1,.327-.445,2.561,2.561,0,0,1,.427-.3,2.063,2.063,0,0,1,.526-.172,4.874,4.874,0,0,1,.608-.091h.672Z" transform="translate(-533.158 -2251.607)"/>
        <path id="Trazado_133868" data-name="Trazado 133868" d="M560.993,2328.935v.336h-5.445a2.442,2.442,0,0,0,.672,1.815,2.178,2.178,0,0,0,1.588.626,2.12,2.12,0,0,0,1.153-.336,2.22,2.22,0,0,0,.8-.907l1.1.236a3.1,3.1,0,0,1-1.189,1.5,3.255,3.255,0,0,1-1.815.545,3.367,3.367,0,0,1-2.5-.971,4.131,4.131,0,0,1,0-5.3,3.338,3.338,0,0,1,2.468-.971,3.148,3.148,0,0,1,2.351.907A3.536,3.536,0,0,1,560.993,2328.935Zm-3.231-2.541a2.135,2.135,0,0,0-1.443.5,2.262,2.262,0,0,0-.735,1.434h4.175a2.077,2.077,0,0,0-.608-1.434,1.961,1.961,0,0,0-1.389-.472Z" transform="translate(-533.668 -2251.994)"/>
        <path id="Trazado_133869" data-name="Trazado 133869" d="M564.985,2326.846a2.121,2.121,0,0,1,.862-.908,2.591,2.591,0,0,1,1.343-.363v1.153a2.294,2.294,0,0,0-1.624.517,2.16,2.16,0,0,0-.554,1.652v3.675h-1.225v-6.97h1.2Z" transform="translate(-534.537 -2252.001)"/>
        <path id="Trazado_133870" data-name="Trazado 133870" d="M576.241,2325.474a2.232,2.232,0,0,1,1.625.6,2.162,2.162,0,0,1,.617,1.661v4.828h-1.225v-4.538a1.586,1.586,0,0,0-.381-1.153,1.323,1.323,0,0,0-.971-.39,1.373,1.373,0,0,0-1.062.445,1.87,1.87,0,0,0-.408,1.316v4.32h-1.243v-4.483a1.655,1.655,0,0,0-.39-1.18,1.3,1.3,0,0,0-.989-.408,1.369,1.369,0,0,0-1.062.454,1.962,1.962,0,0,0-.408,1.352v4.265h-1.225v-6.97h1.225v.907a2.213,2.213,0,0,1,.8-.762,2.254,2.254,0,0,1,1.107-.272,2.344,2.344,0,0,1,1.2.3,1.813,1.813,0,0,1,.771.844,2.193,2.193,0,0,1,.835-.844A2.364,2.364,0,0,1,576.241,2325.474Z" transform="translate(-535.03 -2251.991)"/>
        <path id="Trazado_133871" data-name="Trazado 133871" d="M588.1,2328.935v.336h-5.445a2.442,2.442,0,0,0,.672,1.815,2.178,2.178,0,0,0,1.588.626,2.12,2.12,0,0,0,1.153-.336,2.22,2.22,0,0,0,.8-.907l1.1.236a3.1,3.1,0,0,1-1.189,1.5,3.255,3.255,0,0,1-1.815.545,3.367,3.367,0,0,1-2.5-.971,4.13,4.13,0,0,1,0-5.3,3.338,3.338,0,0,1,2.468-.971,3.148,3.148,0,0,1,2.351.907A3.54,3.54,0,0,1,588.1,2328.935Zm-3.231-2.541a2.136,2.136,0,0,0-1.443.5,2.262,2.262,0,0,0-.735,1.434h4.175a2.077,2.077,0,0,0-.608-1.434,1.961,1.961,0,0,0-1.352-.472Z" transform="translate(-536.175 -2251.994)"/>
        <path id="Trazado_133872" data-name="Trazado 133872" d="M595.987,2321.285h1.225v10.89h-1.189v-1.352a2.57,2.57,0,0,1-.989,1.1,2.764,2.764,0,0,1-1.479.409,3.142,3.142,0,0,1-1.261-.263,3.181,3.181,0,0,1-1.035-.726,3.238,3.238,0,0,1-.7-1.153,3.991,3.991,0,0,1-.263-1.488,3.7,3.7,0,0,1,.908-2.623,3.065,3.065,0,0,1,2.314-1.007,2.781,2.781,0,0,1,1.461.4,2.616,2.616,0,0,1,1,1.062Zm-2.2,9.983a2.107,2.107,0,0,0,1.615-.726,2.894,2.894,0,0,0,0-3.63,2.1,2.1,0,0,0-1.615-.735,2.132,2.132,0,0,0-1.634.708,2.623,2.623,0,0,0-.662,1.86,2.585,2.585,0,0,0,.662,1.815,2.132,2.132,0,0,0,1.634.708Z" transform="translate(-536.988 -2251.604)"/>
        <path id="Trazado_133873" data-name="Trazado 133873" d="M602.22,2332.719a2.383,2.383,0,0,1-1.525-.481,1.707,1.707,0,0,1-.6-1.425,2,2,0,0,1,.191-.907,1.573,1.573,0,0,1,.563-.635,3.324,3.324,0,0,1,.826-.4,8.511,8.511,0,0,1,1.053-.254l1.134-.181c.408-.073.617-.291.617-.645a1.207,1.207,0,0,0-.436-1.034,1.755,1.755,0,0,0-1.107-.336,1.813,1.813,0,0,0-1.089.318,1.316,1.316,0,0,0-.517.98l-1.089-.236a2.113,2.113,0,0,1,.907-1.489,3.226,3.226,0,0,1,1.9-.5,3.956,3.956,0,0,1,1.016.127,2.728,2.728,0,0,1,.844.39,1.762,1.762,0,0,1,.6.744,2.8,2.8,0,0,1,.218,1.153v2.84a1.243,1.243,0,0,0,.154.726.69.69,0,0,0,.554.191h.118v.907h-.617a1.162,1.162,0,0,1-1.316-.907h-.054A2.652,2.652,0,0,1,602.22,2332.719Zm.281-.99a1.815,1.815,0,0,0,1.5-.681,2.722,2.722,0,0,0,.572-1.815l-1.815.354a2.387,2.387,0,0,0-1.08.39,1.015,1.015,0,0,0-.018,1.525A1.393,1.393,0,0,0,602.5,2331.729Z" transform="translate(-537.894 -2251.993)"/>
        <path id="Trazado_133874" data-name="Trazado 133874" d="M613.987,2321.285h1.225v10.89h-1.189v-1.352a2.57,2.57,0,0,1-.989,1.1,2.764,2.764,0,0,1-1.479.409,3.142,3.142,0,0,1-1.261-.263,3.181,3.181,0,0,1-1.035-.726,3.238,3.238,0,0,1-.7-1.153,3.99,3.99,0,0,1-.263-1.488,3.7,3.7,0,0,1,.908-2.623,3.065,3.065,0,0,1,2.314-1.007,2.781,2.781,0,0,1,1.461.4,2.616,2.616,0,0,1,1,1.062Zm-2.2,9.983a2.107,2.107,0,0,0,1.615-.726,2.894,2.894,0,0,0,0-3.63,2.1,2.1,0,0,0-1.615-.735,2.132,2.132,0,0,0-1.634.708,2.623,2.623,0,0,0-.662,1.86,2.584,2.584,0,0,0,.662,1.815A2.132,2.132,0,0,0,611.79,2331.268Z" transform="translate(-538.652 -2251.604)"/>
      </g>
      <g id="Grupo_63688" data-name="Grupo 63688" transform="translate(137.491 105.8)">
        <path id="Trazado_133875" data-name="Trazado 133875" d="M539.543,2211.4h2.115v10.246H539.2l-4.538-7.324v7.324h-2.124V2211.4h2.469l4.538,7.26Z" transform="translate(-532.537 -2210.914)"/>
        <path id="Trazado_133876" data-name="Trazado 133876" d="M551.986,2218.177v.49h-5.445a1.871,1.871,0,0,0,.581,1.334,2.022,2.022,0,0,0,2.242.209,1.585,1.585,0,0,0,.617-.735l1.87.272a3.185,3.185,0,0,1-1.28,1.715,3.834,3.834,0,0,1-2.151.608,3.94,3.94,0,0,1-2.841-1.007,3.633,3.633,0,0,1-1.053-2.777,3.712,3.712,0,0,1,1.053-2.786,3.839,3.839,0,0,1,2.777-1.016,3.329,3.329,0,0,1,3.63,3.693Zm-3.63-2.25a1.616,1.616,0,0,0-1.77,1.407h3.349a1.534,1.534,0,0,0-.508-1.044,1.6,1.6,0,0,0-1.035-.363Z" transform="translate(-533.645 -2211.198)"/>
        <path id="Trazado_133877" data-name="Trazado 133877" d="M559.418,2214.637h1.942v6.743a5.453,5.453,0,0,1-.272,1.815,2.988,2.988,0,0,1-.79,1.243,3.322,3.322,0,0,1-1.216.7,5.009,5.009,0,0,1-1.588.227q-2.886,0-3.757-2.26l1.7-.726a2.459,2.459,0,0,0,.78,1.062,2.005,2.005,0,0,0,1.2.336c1.262,0,1.9-.744,1.9-2.251v-.871a2.3,2.3,0,0,1-.908.717,3.075,3.075,0,0,1-1.3.272,3.243,3.243,0,0,1-1.28-.254,3.4,3.4,0,0,1-1.062-.726,3.447,3.447,0,0,1-.717-1.144,4.3,4.3,0,0,1,0-2.958,3.252,3.252,0,0,1,.726-1.125,3.03,3.03,0,0,1,1.062-.708,3.28,3.28,0,0,1,1.289-.263,3,3,0,0,1,1.352.308,2.1,2.1,0,0,1,.908.8Zm-3.131,4.819a1.759,1.759,0,0,0,1.334.563,1.816,1.816,0,0,0,1.343-.562,2.043,2.043,0,0,0,0-2.777,1.9,1.9,0,0,0-2.682-.041l-.041.041a1.943,1.943,0,0,0-.535,1.4,1.9,1.9,0,0,0,.581,1.379Z" transform="translate(-534.497 -2211.198)"/>
        <path id="Trazado_133878" data-name="Trazado 133878" d="M570.395,2219.952a6.783,6.783,0,0,0,.172,1.815v.2h-1.906l-.163-.79a2.347,2.347,0,0,1-1.016.7,3.828,3.828,0,0,1-1.316.236,3.945,3.945,0,0,1-.681-.063,2.516,2.516,0,0,1-.617-.218,1.819,1.819,0,0,1-.508-.381,1.515,1.515,0,0,1-.336-.581,2.127,2.127,0,0,1-.127-.789,2.189,2.189,0,0,1,.127-.79,1.876,1.876,0,0,1,.354-.59,2.231,2.231,0,0,1,.581-.436,4.491,4.491,0,0,1,.717-.309,8.474,8.474,0,0,1,.908-.227l1.2-.272a1.29,1.29,0,0,0,.544-.227.482.482,0,0,0,.154-.363.769.769,0,0,0-.354-.708,1.816,1.816,0,0,0-.908-.209,1.253,1.253,0,0,0-1.418,1.061c0,.018,0,.037-.006.055l-1.815-.326a2.453,2.453,0,0,1,1.053-1.67,4.222,4.222,0,0,1,2.287-.535q3.067,0,3.068,2.632Zm-3.63.735a1.634,1.634,0,0,0,1.261-.526,2.207,2.207,0,0,0,.49-1.561l-1.733.49a1.935,1.935,0,0,0-.726.3.617.617,0,0,0-.254.526.672.672,0,0,0,.272.572,1.106,1.106,0,0,0,.726.172Z" transform="translate(-535.437 -2211.204)"/>
        <path id="Trazado_133879" data-name="Trazado 133879" d="M575.754,2221.7a2.172,2.172,0,0,1-1.643-.59,2.29,2.29,0,0,1-.581-1.688v-3.44H572.1v-1.57h.463a1.2,1.2,0,0,0,.908-.309,1.571,1.571,0,0,0,.29-1.08v-.962h1.815v2.351h1.5v1.57H575.6v3.222c0,.635.281.907.844.907h.653v1.552Z" transform="translate(-536.195 -2210.976)"/>
        <path id="Trazado_133880" data-name="Trazado 133880" d="M580.377,2213.216a1.169,1.169,0,0,1-.835-.345,1.142,1.142,0,0,1-.345-.835,1.115,1.115,0,0,1,.354-.826,1.161,1.161,0,0,1,1.643-.009l.009.009a1.171,1.171,0,0,1,.005,1.656l-.005.005A1.134,1.134,0,0,1,580.377,2213.216Zm-1.035,8.377v-7.26h2.051v7.26Z" transform="translate(-536.851 -2210.865)"/>
        <path id="Trazado_133881" data-name="Trazado 133881" d="M588.583,2214.655h2.16l-3.1,7.26h-1.815l-3.067-7.26h2.151l1.815,4.982Z" transform="translate(-537.181 -2211.215)"/>
        <path id="Trazado_133882" data-name="Trazado 133882" d="M595.75,2222.078a4.672,4.672,0,0,1-2.06-.445,3.357,3.357,0,0,1-1.416-1.316,3.864,3.864,0,0,1-.517-2.033,3.633,3.633,0,0,1,1.107-2.723,4.619,4.619,0,0,1,5.781,0,4.03,4.03,0,0,1,0,5.545A4.1,4.1,0,0,1,595.75,2222.078Zm0-1.625a1.881,1.881,0,0,0,1.443-.6,2.215,2.215,0,0,0,.544-1.57,2.258,2.258,0,0,0-.544-1.579,1.9,1.9,0,0,0-1.443-.59,1.814,1.814,0,0,0-1.407.6,2.569,2.569,0,0,0,0,3.14,1.816,1.816,0,0,0,1.389.6Z" transform="translate(-538.013 -2211.205)"/>
      </g>
    </g>
  </g>
</svg>
