<svg xmlns="http://www.w3.org/2000/svg" width="295.2" height="375.125" viewBox="0 0 295.2 375.125">
  <g id="Grupo_63726" data-name="Grupo 63726" transform="translate(-1043.031 -2482.785)">
    <rect id="Rect치ngulo_8041" data-name="Rect치ngulo 8041" width="295.2" height="375.125" rx="20.609" transform="translate(1043.031 2482.785)" fill="#f2f2f2"/>
    <g id="Grupo_63725" data-name="Grupo 63725" transform="translate(1062.161 2533.37)">
      <rect id="Rect치ngulo_8042" data-name="Rect치ngulo 8042" width="256.939" height="273.954" fill="#f2f2f2"/>
      <g id="Grupo_63720" data-name="Grupo 63720" transform="translate(32.744 50.689)">
        <path id="Trazado_134081" data-name="Trazado 134081" d="M1116.616,2593.851h5.052V2618.3H1115.8l-10.824-17.471V2618.3h-5.061v-24.447h5.808l10.887,17.38Z" transform="translate(-1099.92 -2593.851)"/>
        <path id="Trazado_134082" data-name="Trazado 134082" d="M1146.135,2610l-.055,1.167H1133.2a4.487,4.487,0,0,0,1.432,3.182,4.441,4.441,0,0,0,3.064,1.094,4.269,4.269,0,0,0,2.289-.6,3.652,3.652,0,0,0,1.459-1.751l4.468.666a7.618,7.618,0,0,1-3.073,4.076,9.06,9.06,0,0,1-5.143,1.45,9.432,9.432,0,0,1-6.775-2.389,10.038,10.038,0,0,1,.009-13.285,9.117,9.117,0,0,1,6.62-2.426,8.726,8.726,0,0,1,6.2,2.216Q1146.116,2605.611,1146.135,2610Zm-8.581-5.371a3.865,3.865,0,0,0-4.231,3.356h7.988a3.646,3.646,0,0,0-1.213-2.49A3.8,3.8,0,0,0,1137.554,2604.627Z" transform="translate(-1102.43 -2594.496)"/>
        <path id="Trazado_134083" data-name="Trazado 134083" d="M1163.744,2601.554h4.632v16.112a12.936,12.936,0,0,1-.647,4.331,7.2,7.2,0,0,1-1.888,2.963,7.943,7.943,0,0,1-2.845,1.651,12.385,12.385,0,0,1-3.793.538q-6.884,0-8.963-5.4l4.04-1.723a5.979,5.979,0,0,0,1.878,2.526,4.837,4.837,0,0,0,2.863.811c3.009,0,4.559-1.823,4.559-5.371v-2.024a5.469,5.469,0,0,1-2.188,1.714,7.226,7.226,0,0,1-3.091.647,7.7,7.7,0,0,1-5.581-2.344,7.865,7.865,0,0,1-1.714-2.736,10.032,10.032,0,0,1,0-7.049,7.634,7.634,0,0,1,1.723-2.736,8.123,8.123,0,0,1,2.535-1.7,7.93,7.93,0,0,1,3.073-.6,7.056,7.056,0,0,1,3.228.72,5.083,5.083,0,0,1,2.152,1.915Zm-7.468,11.5a4.459,4.459,0,0,0,6.305.078c.026-.025.052-.051.078-.078a4.869,4.869,0,0,0,0-6.62,4.514,4.514,0,0,0-6.383,0,4.65,4.65,0,0,0-1.277,3.346A4.556,4.556,0,0,0,1156.276,2613.052Z" transform="translate(-1104.356 -2594.496)"/>
        <path id="Trazado_134084" data-name="Trazado 134084" d="M1180.349,2604.321a5.722,5.722,0,0,1,2.289-2.088,6.91,6.91,0,0,1,3.4-.912v4.34a6.651,6.651,0,0,0-4.167,1.076c-.857.7-1.286,1.942-1.286,3.729v8.489h-4.906v-17.389h4.669Z" transform="translate(-1106.599 -2594.51)"/>
        <path id="Trazado_134085" data-name="Trazado 134085" d="M1198.028,2619.285a11.058,11.058,0,0,1-4.924-1.058,8,8,0,0,1-3.374-3.137,9.3,9.3,0,0,1-1.231-4.851,8.518,8.518,0,0,1,2.644-6.6,11.042,11.042,0,0,1,13.787,0,9.61,9.61,0,0,1,0,13.222A9.764,9.764,0,0,1,1198.028,2619.285Zm-.055-3.875a4.47,4.47,0,0,0,3.447-1.386,6.028,6.028,0,0,0,0-7.513,4.467,4.467,0,0,0-3.447-1.423,4.294,4.294,0,0,0-3.337,1.4,6.072,6.072,0,0,0,0,7.532A4.315,4.315,0,0,0,1197.973,2615.409Z" transform="translate(-1107.728 -2594.501)"/>
      </g>
      <g id="Grupo_63721" data-name="Grupo 63721" transform="translate(34.039 136.977)">
        <path id="Trazado_134086" data-name="Trazado 134086" d="M1106.423,2689.481a2.9,2.9,0,0,1,1.568.419,2.815,2.815,0,0,1,1.058,1.112,3.263,3.263,0,0,1,.365,1.55,3.021,3.021,0,0,1-.83,2.179,2.854,2.854,0,0,1-2.161.912H1103.9v3.894h-1.267v-10.03Zm-.182,5.024a1.825,1.825,0,0,0,1.4-.538,2.255,2.255,0,0,0,0-2.836,1.822,1.822,0,0,0-1.4-.547H1103.9v3.921Z" transform="translate(-1101.454 -2688.569)"/>
        <path id="Trazado_134087" data-name="Trazado 134087" d="M1114.376,2699.927a3.655,3.655,0,0,1-1.824-.438,3.129,3.129,0,0,1-1.268-1.267,3.914,3.914,0,0,1-.465-1.933,3.648,3.648,0,0,1,.994-2.645,3.729,3.729,0,0,1,5.07,0,4.011,4.011,0,0,1,0,5.289A3.439,3.439,0,0,1,1114.376,2699.927Zm0-1.021a2.17,2.17,0,0,0,1.66-.72,2.737,2.737,0,0,0,.656-1.9,2.671,2.671,0,0,0-.656-1.887,2.142,2.142,0,0,0-1.66-.72,2.113,2.113,0,0,0-1.641.72,2.669,2.669,0,0,0-.647,1.887,2.737,2.737,0,0,0,.647,1.9,2.151,2.151,0,0,0,1.632.72Z" transform="translate(-1102.175 -2688.848)"/>
        <path id="Trazado_134088" data-name="Trazado 134088" d="M1125.827,2688.481h1.231v10.942h-1.194v-1.359a2.584,2.584,0,0,1-.994,1.1,2.782,2.782,0,0,1-1.486.41,3.158,3.158,0,0,1-1.267-.264,2.991,2.991,0,0,1-1.04-.729,3.271,3.271,0,0,1-.711-1.158,4.2,4.2,0,0,1-.255-1.5,3.713,3.713,0,0,1,.912-2.635,3.082,3.082,0,0,1,2.325-1.012,2.8,2.8,0,0,1,1.468.4,2.621,2.621,0,0,1,1,1.067Zm-2.216,10.03a2.127,2.127,0,0,0,1.632-.729,2.681,2.681,0,0,0,.656-1.824,2.626,2.626,0,0,0-.666-1.824,2.079,2.079,0,0,0-1.623-.739,2.133,2.133,0,0,0-1.632.711,2.636,2.636,0,0,0-.666,1.824,2.6,2.6,0,0,0,.666,1.823,2.134,2.134,0,0,0,1.632.748Z" transform="translate(-1102.994 -2688.481)"/>
        <path id="Trazado_134089" data-name="Trazado 134089" d="M1136.588,2696.156v.338h-5.471a2.492,2.492,0,0,0,.666,1.824,2.2,2.2,0,0,0,1.6.629,2.115,2.115,0,0,0,1.961-1.268l1.112.237a3.115,3.115,0,0,1-1.194,1.5,3.276,3.276,0,0,1-1.824.547,3.42,3.42,0,0,1-2.526-.976,4.167,4.167,0,0,1,0-5.325,3.336,3.336,0,0,1,2.48-.976,3.153,3.153,0,0,1,2.353.912A3.535,3.535,0,0,1,1136.588,2696.156Zm-3.246-2.553a2.171,2.171,0,0,0-1.459.5,2.271,2.271,0,0,0-.739,1.441h4.2a2.1,2.1,0,0,0-.62-1.441,1.931,1.931,0,0,0-1.413-.5Z" transform="translate(-1103.862 -2688.852)"/>
        <path id="Trazado_134090" data-name="Trazado 134090" d="M1140.517,2694.027a2.169,2.169,0,0,1,.912-.912,2.589,2.589,0,0,1,1.34-.365v1.158a2.3,2.3,0,0,0-1.623.52,2.173,2.173,0,0,0-.565,1.659v3.739h-1.231v-7h1.2Z" transform="translate(-1104.691 -2688.857)"/>
        <path id="Trazado_134091" data-name="Trazado 134091" d="M1147.446,2699.927a3.655,3.655,0,0,1-1.824-.438,3.21,3.21,0,0,1-1.267-1.267,3.913,3.913,0,0,1-.465-1.933,3.647,3.647,0,0,1,.994-2.645,3.729,3.729,0,0,1,5.07,0,4.012,4.012,0,0,1,0,5.289A3.439,3.439,0,0,1,1147.446,2699.927Zm0-1.021a2.169,2.169,0,0,0,1.66-.72,2.736,2.736,0,0,0,.656-1.9,2.67,2.67,0,0,0-.656-1.887,2.142,2.142,0,0,0-1.66-.72,2.113,2.113,0,0,0-1.641.72,2.669,2.669,0,0,0-.647,1.887,2.737,2.737,0,0,0,.647,1.9,2.151,2.151,0,0,0,1.632.72Z" transform="translate(-1105.091 -2688.848)"/>
        <path id="Trazado_134092" data-name="Trazado 134092" d="M1155.959,2699.929a3.352,3.352,0,0,1-1.887-.5,2.07,2.07,0,0,1-.912-1.441l1.076-.31a1.5,1.5,0,0,0,.565.976,1.9,1.9,0,0,0,1.158.347,2.493,2.493,0,0,0,.666-.091,1.173,1.173,0,0,0,.52-.346.914.914,0,0,0,.21-.638.966.966,0,0,0-.064-.292.9.9,0,0,0-.109-.228.572.572,0,0,0-.2-.192l-.237-.155a2.47,2.47,0,0,0-.319-.128l-.337-.119-.392-.109-.41-.119c-.292-.091-.538-.173-.729-.255a3.284,3.284,0,0,1-.583-.337,1.309,1.309,0,0,1-.465-.556,1.871,1.871,0,0,1-.155-.784,1.824,1.824,0,0,1,.347-1.112,1.892,1.892,0,0,1,.912-.666,3.511,3.511,0,0,1,1.249-.2,3.091,3.091,0,0,1,1.705.456,1.971,1.971,0,0,1,.848,1.368l-1.012.255a1.331,1.331,0,0,0-.538-.912,1.653,1.653,0,0,0-1-.3,1.732,1.732,0,0,0-.912.246.829.829,0,0,0-.392.757.694.694,0,0,0,.109.383.977.977,0,0,0,.21.273,1.017,1.017,0,0,0,.383.21,3.415,3.415,0,0,0,.41.155l.511.128h.109l.675.191a4.823,4.823,0,0,1,.6.255,2.209,2.209,0,0,1,.547.383,1.826,1.826,0,0,1,.346.538,2.039,2.039,0,0,1,.137.757,2.106,2.106,0,0,1-.21.912,1.641,1.641,0,0,1-.574.647,2.613,2.613,0,0,1-.812.346A3.752,3.752,0,0,1,1155.959,2699.929Z" transform="translate(-1105.908 -2688.85)"/>
        <path id="Trazado_134093" data-name="Trazado 134093" d="M1164.046,2699.927a3.655,3.655,0,0,1-1.824-.438,3.119,3.119,0,0,1-1.258-1.267,3.817,3.817,0,0,1-.474-1.933,3.648,3.648,0,0,1,.994-2.645,3.729,3.729,0,0,1,5.07,0,4.012,4.012,0,0,1,0,5.289A3.419,3.419,0,0,1,1164.046,2699.927Zm0-1.021a2.169,2.169,0,0,0,1.66-.72,2.737,2.737,0,0,0,.657-1.9,2.671,2.671,0,0,0-.657-1.887,2.142,2.142,0,0,0-1.66-.72,2.113,2.113,0,0,0-1.641.72,3.088,3.088,0,0,0,0,3.784,2.151,2.151,0,0,0,1.632.72Z" transform="translate(-1106.554 -2688.848)"/>
        <path id="Trazado_134094" data-name="Trazado 134094" d="M1106.857,2718.835a5.417,5.417,0,0,1-1.979-.356,5.138,5.138,0,0,1-1.587-1.012,4.571,4.571,0,0,1-1.049-1.632,6.238,6.238,0,0,1,0-4.3,4.641,4.641,0,0,1,1.058-1.632,4.975,4.975,0,0,1,1.578-1.012,5.4,5.4,0,0,1,1.979-.355,5.061,5.061,0,0,1,2.663.711,4.394,4.394,0,0,1,1.8,1.96l-1.176.483a3.379,3.379,0,0,0-1.313-1.432,3.758,3.758,0,0,0-1.942-.5,4.079,4.079,0,0,0-1.468.264,3.467,3.467,0,0,0-1.176.757,3.365,3.365,0,0,0-.793,1.24,4.558,4.558,0,0,0-.292,1.659,4.659,4.659,0,0,0,.292,1.678,3.367,3.367,0,0,0,.793,1.24,3.469,3.469,0,0,0,1.176.757,3.9,3.9,0,0,0,1.468.264,3.756,3.756,0,0,0,1.942-.5,3.34,3.34,0,0,0,1.313-1.413l1.176.474a4.377,4.377,0,0,1-1.824,1.961A5.167,5.167,0,0,1,1106.857,2718.835Z" transform="translate(-1101.386 -2690.249)"/>
        <path id="Trazado_134095" data-name="Trazado 134095" d="M1117.136,2719.127a3.658,3.658,0,0,1-1.824-.437,3.086,3.086,0,0,1-1.267-1.268,3.913,3.913,0,0,1-.465-1.933,3.577,3.577,0,0,1,.994-2.645,3.729,3.729,0,0,1,5.07,0,3.649,3.649,0,0,1,.985,2.645,3.568,3.568,0,0,1-.994,2.644A3.4,3.4,0,0,1,1117.136,2719.127Zm0-1.021a2.191,2.191,0,0,0,1.66-.72,3.055,3.055,0,0,0,0-3.784,2.152,2.152,0,0,0-1.66-.72,2.1,2.1,0,0,0-1.641.72,3.055,3.055,0,0,0,0,3.784,2.134,2.134,0,0,0,1.632.72Z" transform="translate(-1102.419 -2690.541)"/>
        <path id="Trazado_134096" data-name="Trazado 134096" d="M1126.77,2711.851a2.452,2.452,0,0,1,1.76.638,2.369,2.369,0,0,1,.656,1.824v4.714h-1.231V2714.6a1.678,1.678,0,0,0-.428-1.258,1.5,1.5,0,0,0-1.094-.41,1.712,1.712,0,0,0-1.249.483,2,2,0,0,0-.492,1.432v4.185h-1.231v-7h1.231v.912A2.333,2.333,0,0,1,1126.77,2711.851Z" transform="translate(-1103.29 -2690.541)"/>
        <path id="Trazado_134097" data-name="Trazado 134097" d="M1134.494,2718.778a1.822,1.822,0,0,1-1.368-.5,1.888,1.888,0,0,1-.5-1.4v-4.122h-1.4v-.985h.529a.986.986,0,0,0,.766-.246,1.175,1.175,0,0,0,.228-.821v-1.268h1.149v2.334h1.6v.985h-1.6v3.994a1.067,1.067,0,0,0,.264.766.912.912,0,0,0,.7.274h.638v.985Z" transform="translate(-1103.975 -2690.328)"/>
        <path id="Trazado_134098" data-name="Trazado 134098" d="M1139.044,2713.228a2.132,2.132,0,0,1,.866-.912,2.6,2.6,0,0,1,1.35-.365v1.158a2.324,2.324,0,0,0-1.632.52,2.169,2.169,0,0,0-.556,1.659v3.739h-1.231v-7h1.2Z" transform="translate(-1104.558 -2690.55)"/>
        <path id="Trazado_134099" data-name="Trazado 134099" d="M1145.967,2719.128a3.657,3.657,0,0,1-1.824-.438,3.118,3.118,0,0,1-1.258-1.268,3.912,3.912,0,0,1-.465-1.933,3.576,3.576,0,0,1,.994-2.644,3.721,3.721,0,0,1,5.061,0,4.011,4.011,0,0,1,0,5.289A3.42,3.42,0,0,1,1145.967,2719.128Zm0-1.021a2.17,2.17,0,0,0,1.65-.72,3.054,3.054,0,0,0,0-3.784,2.252,2.252,0,0,0-3.183-.118c-.04.038-.08.077-.118.118a3.09,3.09,0,0,0,0,3.784,2.152,2.152,0,0,0,1.651.72Z" transform="translate(-1104.961 -2690.541)"/>
        <path id="Trazado_134100" data-name="Trazado 134100" d="M1152.3,2718.623v-10.942h1.24v10.942Z" transform="translate(-1105.832 -2690.174)"/>
        <path id="Trazado_134101" data-name="Trazado 134101" d="M1158.022,2719.129a2.366,2.366,0,0,1-1.541-.483,1.715,1.715,0,0,1-.6-1.432,1.9,1.9,0,0,1,.2-.912,1.52,1.52,0,0,1,.565-.638,3.434,3.434,0,0,1,.821-.4,7.609,7.609,0,0,1,1.067-.246l1.131-.191c.419-.073.62-.292.62-.648a1.213,1.213,0,0,0-.438-1.039,1.727,1.727,0,0,0-1.1-.337,1.874,1.874,0,0,0-1.1.319,1.375,1.375,0,0,0-.52.985l-1.112-.228a2.169,2.169,0,0,1,.912-1.5,3.226,3.226,0,0,1,1.906-.5,3.825,3.825,0,0,1,1.012.127,2.564,2.564,0,0,1,.848.392,1.724,1.724,0,0,1,.611.748,3,3,0,0,1,.21,1.158v2.891a1.176,1.176,0,0,0,.164.729.694.694,0,0,0,.556.191h.109v.912h-.666a1.158,1.158,0,0,1-1.322-.912h-.064A2.652,2.652,0,0,1,1158.022,2719.129Zm.283-.994a1.868,1.868,0,0,0,1.5-.684,2.739,2.739,0,0,0,.565-1.824l-1.824.356a2.483,2.483,0,0,0-1.085.392,1.011,1.011,0,0,0-.009,1.532,1.369,1.369,0,0,0,.812.228Z" transform="translate(-1106.148 -2690.542)"/>
        <path id="Trazado_134102" data-name="Trazado 134102" d="M1169.758,2707.681h1.231v10.942H1169.8v-1.359a2.6,2.6,0,0,1-1,1.1,2.742,2.742,0,0,1-1.477.41,3.158,3.158,0,0,1-1.267-.264,3.108,3.108,0,0,1-1.049-.729,3.4,3.4,0,0,1-.7-1.158,4.2,4.2,0,0,1-.255-1.5,3.646,3.646,0,0,1,.912-2.635,3.054,3.054,0,0,1,2.325-1.012,2.811,2.811,0,0,1,1.486.374,2.609,2.609,0,0,1,.994,1.067Zm-2.207,10.03a2.108,2.108,0,0,0,1.632-.729,2.683,2.683,0,0,0,.656-1.824,2.625,2.625,0,0,0-.666-1.824,2.1,2.1,0,0,0-1.623-.739,2.169,2.169,0,0,0-1.641.711,2.67,2.67,0,0,0-.656,1.869,2.637,2.637,0,0,0,.656,1.824,2.171,2.171,0,0,0,1.641.7Z" transform="translate(-1106.868 -2690.174)"/>
        <path id="Trazado_134103" data-name="Trazado 134103" d="M1177.306,2719.127a3.657,3.657,0,0,1-1.824-.437,3.132,3.132,0,0,1-1.267-1.268,3.914,3.914,0,0,1-.465-1.933,3.649,3.649,0,0,1,.994-2.645,3.729,3.729,0,0,1,5.07,0,4.011,4.011,0,0,1,0,5.289A3.439,3.439,0,0,1,1177.306,2719.127Zm0-1.021a2.167,2.167,0,0,0,1.66-.72,3.055,3.055,0,0,0,0-3.784,2.142,2.142,0,0,0-1.66-.72,2.114,2.114,0,0,0-1.641.72,3.09,3.09,0,0,0,0,3.784,2.152,2.152,0,0,0,1.632.72Z" transform="translate(-1107.723 -2690.541)"/>
        <path id="Trazado_134104" data-name="Trazado 134104" d="M1184.833,2713.228a2.166,2.166,0,0,1,.912-.912,2.585,2.585,0,0,1,1.34-.365v1.158a2.3,2.3,0,0,0-1.623.52,2.172,2.172,0,0,0-.565,1.659v3.739h-1.268v-7h1.2Z" transform="translate(-1108.594 -2690.55)"/>
        <path id="Trazado_134105" data-name="Trazado 134105" d="M1108.954,2737.911l-.866-2.4h-4.559l-.857,2.4h-1.331l3.693-10.03h1.523l3.7,10.03Zm-4.979-3.52h3.739l-1.915-5.252Z" transform="translate(-1101.34 -2691.954)"/>
        <path id="Trazado_134106" data-name="Trazado 134106" d="M1117.334,2731.2h1.24v7h-1.185v-.912a2.2,2.2,0,0,1-.912.784,2.661,2.661,0,0,1-1.222.274,2.439,2.439,0,0,1-1.76-.629,2.36,2.36,0,0,1-.666-1.824v-4.714h1.277v4.441a1.67,1.67,0,0,0,.428,1.258,1.534,1.534,0,0,0,1.1.41,1.691,1.691,0,0,0,1.24-.483,1.972,1.972,0,0,0,.483-1.432Z" transform="translate(-1102.352 -2692.245)"/>
        <path id="Trazado_134107" data-name="Trazado 134107" d="M1124.011,2737.977a1.822,1.822,0,0,1-1.368-.5,1.889,1.889,0,0,1-.5-1.4v-4.14h-1.432v-.985h.529a1.031,1.031,0,0,0,.775-.246,1.233,1.233,0,0,0,.219-.821v-1.267h1.149v2.334H1125v.985h-1.614v3.994a1.066,1.066,0,0,0,.264.766.91.91,0,0,0,.7.274H1125v.985Z" transform="translate(-1103.048 -2692.02)"/>
        <path id="Trazado_134108" data-name="Trazado 134108" d="M1130.156,2738.327a3.65,3.65,0,0,1-1.824-.438,3.119,3.119,0,0,1-1.258-1.268,3.817,3.817,0,0,1-.474-1.933,3.647,3.647,0,0,1,.994-2.644,3.728,3.728,0,0,1,5.07,0,4.011,4.011,0,0,1,0,5.288A3.419,3.419,0,0,1,1130.156,2738.327Zm0-1.021a2.169,2.169,0,0,0,1.66-.72,2.736,2.736,0,0,0,.657-1.9,2.67,2.67,0,0,0-.657-1.887,2.143,2.143,0,0,0-1.66-.72,2.116,2.116,0,0,0-1.641.72,3.089,3.089,0,0,0,0,3.784,2.151,2.151,0,0,0,1.632.72Z" transform="translate(-1103.567 -2692.234)"/>
        <path id="Trazado_134109" data-name="Trazado 134109" d="M1137.693,2732.428a2.132,2.132,0,0,1,.866-.912,2.585,2.585,0,0,1,1.34-.365v1.158a2.3,2.3,0,0,0-1.623.52,2.17,2.17,0,0,0-.556,1.66v3.738h-1.24v-7h1.213Z" transform="translate(-1104.438 -2692.243)"/>
        <path id="Trazado_134110" data-name="Trazado 134110" d="M1142.429,2729.24a.839.839,0,0,1-.839-.839h0a.791.791,0,0,1,.246-.583.847.847,0,0,1,1.176,0,.82.82,0,0,1,.237.583.841.841,0,0,1-.237.593A.813.813,0,0,1,1142.429,2729.24Zm-.629,8.645v-7h1.286v7Z" transform="translate(-1104.888 -2691.928)"/>
        <path id="Trazado_134111" data-name="Trazado 134111" d="M1148.062,2737.977a1.822,1.822,0,0,1-1.368-.5,1.914,1.914,0,0,1-.492-1.4v-4.14h-1.432v-.985h.52a1.009,1.009,0,0,0,.775-.246,1.174,1.174,0,0,0,.228-.821v-1.267h1.149v2.334h1.6v.985h-1.6v3.994a1.031,1.031,0,0,0,.265.766.911.911,0,0,0,.7.274h.638v.985Z" transform="translate(-1105.169 -2692.02)"/>
        <path id="Trazado_134112" data-name="Trazado 134112" d="M1152.883,2738.33a2.332,2.332,0,0,1-1.532-.483,1.715,1.715,0,0,1-.6-1.432,2.007,2.007,0,0,1,.192-.912,1.548,1.548,0,0,1,.574-.638,3.129,3.129,0,0,1,.821-.4,7.154,7.154,0,0,1,1.067-.246l1.131-.191c.41-.073.62-.292.62-.647a1.212,1.212,0,0,0-.438-1.04,2,2,0,0,0-2.207,0,1.34,1.34,0,0,0-.52.976l-1.112-.228a2.186,2.186,0,0,1,.912-1.5,3.283,3.283,0,0,1,1.915-.5,3.912,3.912,0,0,1,1.012.128,2.656,2.656,0,0,1,.848.392,1.768,1.768,0,0,1,.6.748,2.819,2.819,0,0,1,.219,1.158v2.89a1.176,1.176,0,0,0,.164.729.673.673,0,0,0,.547.192h.119v.912h-.611c-.757,0-1.2-.31-1.331-.912h-.055A2.653,2.653,0,0,1,1152.883,2738.33Zm.292-.994a1.89,1.89,0,0,0,1.5-.675,2.844,2.844,0,0,0,.565-1.824l-1.824.356a2.442,2.442,0,0,0-1.085.392,1.02,1.02,0,0,0-.018,1.532,1.413,1.413,0,0,0,.857.219Z" transform="translate(-1105.695 -2692.236)"/>
        <path id="Trazado_134113" data-name="Trazado 134113" d="M1160.907,2732.428a2.165,2.165,0,0,1,.912-.912,2.584,2.584,0,0,1,1.34-.365v1.158a2.3,2.3,0,0,0-1.623.52,2.169,2.169,0,0,0-.556,1.66v3.738h-1.24v-7h1.2Z" transform="translate(-1106.488 -2692.243)"/>
        <path id="Trazado_134114" data-name="Trazado 134114" d="M1165.649,2729.24a.839.839,0,0,1-.839-.839h0a.791.791,0,0,1,.246-.583.836.836,0,0,1,.593-.237.813.813,0,0,1,.574.237.79.79,0,0,1,.246.583.813.813,0,0,1-.246.593A.786.786,0,0,1,1165.649,2729.24Zm-.629,8.645v-7h1.24v7Z" transform="translate(-1106.935 -2691.928)"/>
        <path id="Trazado_134115" data-name="Trazado 134115" d="M1172.037,2738.328a3.65,3.65,0,0,1-1.824-.438,3.118,3.118,0,0,1-1.258-1.268,3.913,3.913,0,0,1-.465-1.933,3.575,3.575,0,0,1,.994-2.644,3.72,3.72,0,0,1,5.061,0,4.011,4.011,0,0,1,0,5.288A3.419,3.419,0,0,1,1172.037,2738.328Zm0-1.021a2.17,2.17,0,0,0,1.65-.72,2.736,2.736,0,0,0,.657-1.9,2.671,2.671,0,0,0-.657-1.887,2.251,2.251,0,0,0-3.183-.117c-.04.037-.08.076-.118.117a3.089,3.089,0,0,0,0,3.784,2.152,2.152,0,0,0,1.651.72Z" transform="translate(-1107.259 -2692.234)"/>
        <path id="Trazado_134116" data-name="Trazado 134116" d="M1102.63,2757.111v-10.03h3.228a4.8,4.8,0,0,1,2.553.647,3.931,3.931,0,0,1,1.568,1.769,6.181,6.181,0,0,1,.511,2.59,6.739,6.739,0,0,1-.292,2.033,4.766,4.766,0,0,1-.866,1.587,3.8,3.8,0,0,1-1.459,1.04,5.219,5.219,0,0,1-2.015.365Zm1.267-1.158h1.924a3.056,3.056,0,0,0,2.5-1.031,5.135,5.135,0,0,0,0-5.654,3.064,3.064,0,0,0-2.5-1.021H1103.9Z" transform="translate(-1101.454 -2693.646)"/>
        <path id="Trazado_134117" data-name="Trazado 134117" d="M1114.229,2748.44a.839.839,0,0,1-.839-.839h0a.79.79,0,0,1,.246-.583.837.837,0,0,1,.593-.237.813.813,0,0,1,.574.237.79.79,0,0,1,.246.583.816.816,0,0,1-.246.593A.788.788,0,0,1,1114.229,2748.44Zm-.629,8.644v-7h1.24v7Z" transform="translate(-1102.402 -2693.62)"/>
        <path id="Trazado_134118" data-name="Trazado 134118" d="M1119.889,2757.557a3.312,3.312,0,0,1-1.888-.5,2.08,2.08,0,0,1-.912-1.441l1.076-.31a1.48,1.48,0,0,0,.574.976,1.826,1.826,0,0,0,1.149.346,2.581,2.581,0,0,0,.675-.091,1.091,1.091,0,0,0,.511-.346.914.914,0,0,0,.21-.638.945.945,0,0,0-.173-.52.508.508,0,0,0-.246-.21,2.1,2.1,0,0,0-.237-.155,2.466,2.466,0,0,0-.319-.128l-.337-.118-.392-.109-.41-.119c-.292-.091-.529-.173-.72-.255a3.071,3.071,0,0,1-.593-.338,1.284,1.284,0,0,1-.456-.556,1.734,1.734,0,0,1-.155-.784,1.821,1.821,0,0,1,.337-1.112,1.915,1.915,0,0,1,.912-.666,3.454,3.454,0,0,1,1.24-.2,3.055,3.055,0,0,1,1.705.456,1.917,1.917,0,0,1,.848,1.368l-1.012.255a1.332,1.332,0,0,0-.529-.912,1.7,1.7,0,0,0-1-.3,1.752,1.752,0,0,0-.912.246.837.837,0,0,0-.383.757.69.69,0,0,0,.1.383.974.974,0,0,0,.21.273,1.383,1.383,0,0,0,.383.219l.41.146.52.128h.1c.283.064.5.128.675.182a5.535,5.535,0,0,1,.611.255,1.982,1.982,0,0,1,.538.383,1.746,1.746,0,0,1,.347.547,1.958,1.958,0,0,1,.137.748,1.988,1.988,0,0,1-.21.912,1.7,1.7,0,0,1-.565.647,2.739,2.739,0,0,1-.821.346A3.723,3.723,0,0,1,1119.889,2757.557Z" transform="translate(-1102.728 -2693.929)"/>
        <path id="Trazado_134119" data-name="Trazado 134119" d="M1127.962,2757.558a3.345,3.345,0,0,1-2.508-1,3.975,3.975,0,0,1,0-5.252,3.627,3.627,0,0,1,4.541-.392,3.036,3.036,0,0,1,1.176,1.7l-1.149.191a2.1,2.1,0,0,0-2.061-1.477,2.068,2.068,0,0,0-1.623.72,3.108,3.108,0,0,0,0,3.775,2.188,2.188,0,0,0,3.684-.766l1.149.191a3.029,3.029,0,0,1-1.185,1.705A3.384,3.384,0,0,1,1127.962,2757.558Z" transform="translate(-1103.378 -2693.93)"/>
        <path id="Trazado_134120" data-name="Trazado 134120" d="M1134.41,2748.441a.793.793,0,0,1-.583-.246.817.817,0,0,1-.246-.593.792.792,0,0,1,.246-.583.838.838,0,0,1,1.167,0,.792.792,0,0,1,.246.583.817.817,0,0,1-.246.593A.793.793,0,0,1,1134.41,2748.441Zm-.62,8.644v-7h1.231v7Z" transform="translate(-1104.182 -2693.621)"/>
        <path id="Trazado_134121" data-name="Trazado 134121" d="M1141.615,2750.261a3.138,3.138,0,0,1,1.268.264,3.068,3.068,0,0,1,1.04.711,3.482,3.482,0,0,1,.7,1.158,4.29,4.29,0,0,1,.264,1.513,3.707,3.707,0,0,1-.912,2.644,3.071,3.071,0,0,1-2.325,1,2.819,2.819,0,0,1-1.468-.4,2.625,2.625,0,0,1-.994-1.076v4.851h-1.24v-10.541h1.167v1.368a2.5,2.5,0,0,1,.994-1.094A2.775,2.775,0,0,1,1141.615,2750.261Zm-.246,6.219a2.108,2.108,0,0,0,1.623-.7,2.992,2.992,0,0,0,0-3.739,2.1,2.1,0,0,0-1.623-.7,2.133,2.133,0,0,0-1.641.739,2.621,2.621,0,0,0-.675,1.824,2.656,2.656,0,0,0,.675,1.824,2.127,2.127,0,0,0,1.641.748Z" transform="translate(-1104.567 -2693.927)"/>
        <path id="Trazado_134122" data-name="Trazado 134122" d="M1147.69,2757.023v-10.942h1.249v10.942Z" transform="translate(-1105.426 -2693.559)"/>
        <path id="Trazado_134123" data-name="Trazado 134123" d="M1152.41,2748.441a.793.793,0,0,1-.584-.246.817.817,0,0,1-.246-.593.791.791,0,0,1,.246-.583.838.838,0,0,1,1.167,0,.791.791,0,0,1,.246.583.817.817,0,0,1-.246.593A.793.793,0,0,1,1152.41,2748.441Zm-.62,8.644v-7h1.231v7Z" transform="translate(-1105.769 -2693.621)"/>
        <path id="Trazado_134124" data-name="Trazado 134124" d="M1159.22,2750.26a2.436,2.436,0,0,1,1.76.638,2.371,2.371,0,0,1,.666,1.824v4.714h-1.24V2753a1.677,1.677,0,0,0-.419-1.258,1.536,1.536,0,0,0-1.1-.4,1.669,1.669,0,0,0-1.24.474,1.923,1.923,0,0,0-.492,1.432v4.186h-1.24v-7h1.2v.912A2.326,2.326,0,0,1,1159.22,2750.26Z" transform="translate(-1106.151 -2693.927)"/>
        <path id="Trazado_134125" data-name="Trazado 134125" d="M1166.372,2757.559a2.319,2.319,0,0,1-1.532-.483,1.7,1.7,0,0,1-.611-1.432,2.009,2.009,0,0,1,.2-.912,1.52,1.52,0,0,1,.565-.638,3.441,3.441,0,0,1,.821-.4,7.639,7.639,0,0,1,1.067-.246l1.131-.192c.419-.073.62-.292.62-.647a1.213,1.213,0,0,0-.438-1.04,1.731,1.731,0,0,0-1.1-.337,1.819,1.819,0,0,0-1.1.328,1.341,1.341,0,0,0-.52.976l-1.1-.228a2.124,2.124,0,0,1,.912-1.5,3.225,3.225,0,0,1,1.906-.5,3.824,3.824,0,0,1,1.012.128,2.558,2.558,0,0,1,.848.392,1.725,1.725,0,0,1,.611.748,2.819,2.819,0,0,1,.219,1.158v2.891a1.186,1.186,0,0,0,.155.729.693.693,0,0,0,.556.192h.109v.912h-.611a1.158,1.158,0,0,1-1.322-.912h-.064A2.655,2.655,0,0,1,1166.372,2757.559Zm.283-.994a1.89,1.89,0,0,0,1.5-.675,2.8,2.8,0,0,0,.565-1.824l-1.824.356a2.6,2.6,0,0,0-1.085.392,1.029,1.029,0,0,0-.009,1.532,1.367,1.367,0,0,0,.848.192Z" transform="translate(-1106.884 -2693.93)"/>
        <path id="Trazado_134126" data-name="Trazado 134126" d="M1178.147,2746.081h1.24v10.942h-1.195v-1.359a2.647,2.647,0,0,1-.994,1.1,2.784,2.784,0,0,1-1.486.41,3.154,3.154,0,0,1-1.267-.265,2.981,2.981,0,0,1-1.04-.729,3.311,3.311,0,0,1-.711-1.149,4.274,4.274,0,0,1-.255-1.5,3.645,3.645,0,0,1,.912-2.635,3.064,3.064,0,0,1,2.325-1.012,2.813,2.813,0,0,1,1.468.4,2.6,2.6,0,0,1,.994,1.067Zm-2.207,10.03a2.107,2.107,0,0,0,1.632-.729,2.681,2.681,0,0,0,.657-1.824,2.647,2.647,0,0,0-.666-1.824,2.1,2.1,0,0,0-1.623-.739,2.169,2.169,0,0,0-1.641.711,2.671,2.671,0,0,0-.656,1.869,2.637,2.637,0,0,0,.656,1.824,2.173,2.173,0,0,0,1.641.7Z" transform="translate(-1107.607 -2693.559)"/>
        <path id="Trazado_134127" data-name="Trazado 134127" d="M1185.7,2757.557a3.65,3.65,0,0,1-1.824-.438,3.209,3.209,0,0,1-1.267-1.267,3.914,3.914,0,0,1-.465-1.933,3.647,3.647,0,0,1,.994-2.644,3.728,3.728,0,0,1,5.07,0,4.011,4.011,0,0,1,0,5.289A3.437,3.437,0,0,1,1185.7,2757.557Zm0-1.021a2.171,2.171,0,0,0,1.66-.72,3.055,3.055,0,0,0,0-3.784,2.143,2.143,0,0,0-1.66-.72,2.115,2.115,0,0,0-1.641.72,3.09,3.09,0,0,0,0,3.784,2.15,2.15,0,0,0,1.632.693Z" transform="translate(-1108.463 -2693.929)"/>
        <path id="Trazado_134128" data-name="Trazado 134128" d="M1108,2767.446h-4.067v3.282h3.583v1.14h-3.583v3.283H1108v1.14h-5.371v-10.03H1108Z" transform="translate(-1101.454 -2695.337)"/>
        <path id="Trazado_134129" data-name="Trazado 134129" d="M1110.85,2776.2v-10.942h1.258V2776.2Z" transform="translate(-1102.178 -2695.249)"/>
        <path id="Trazado_134130" data-name="Trazado 134130" d="M1121.048,2772.927v.337h-5.471a2.453,2.453,0,0,0,.675,1.824,2.189,2.189,0,0,0,1.6.629,2.127,2.127,0,0,0,1.158-.338,2.228,2.228,0,0,0,.8-.912l1.1.237a3.115,3.115,0,0,1-1.195,1.5,3.279,3.279,0,0,1-1.824.547,3.383,3.383,0,0,1-2.517-.975,4.15,4.15,0,0,1,0-5.325,3.355,3.355,0,0,1,2.48-.976,3.164,3.164,0,0,1,2.362.912A3.569,3.569,0,0,1,1121.048,2772.927Zm-3.246-2.553a2.145,2.145,0,0,0-1.45.5,2.272,2.272,0,0,0-.739,1.441h4.194a2.086,2.086,0,0,0-.611-1.441,1.97,1.97,0,0,0-1.4-.474Z" transform="translate(-1102.492 -2695.621)"/>
        <path id="Trazado_134131" data-name="Trazado 134131" d="M1128.82,2769.589h1.194v6.647a3.807,3.807,0,0,1-.912,2.736,3.766,3.766,0,0,1-5.909-1.186l1.021-.5a2.316,2.316,0,0,0,2.344,1.623,2,2,0,0,0,1.641-.684,2.947,2.947,0,0,0,.565-1.915v-1.295a2.477,2.477,0,0,1-.994,1.012,3.081,3.081,0,0,1-3.729-.611,3.482,3.482,0,0,1-.912-2.489,3.409,3.409,0,0,1,.912-2.48,3,3,0,0,1,2.271-.985,2.87,2.87,0,0,1,1.468.392,2.582,2.582,0,0,1,.994,1.039Zm-2.225,5.754a2.142,2.142,0,0,0,1.614-.711,2.544,2.544,0,0,0,0-3.428,2.088,2.088,0,0,0-1.614-.72,2.123,2.123,0,0,0-1.614.693,2.461,2.461,0,0,0-.657,1.741,2.425,2.425,0,0,0,.666,1.732A2.116,2.116,0,0,0,1126.595,2775.342Z" transform="translate(-1103.26 -2695.62)"/>
        <path id="Trazado_134132" data-name="Trazado 134132" d="M1135.023,2776.729a2.39,2.39,0,0,1-1.532-.483,1.714,1.714,0,0,1-.6-1.431,2.074,2.074,0,0,1,.192-.912,1.587,1.587,0,0,1,.574-.629,3.137,3.137,0,0,1,.821-.4,8.429,8.429,0,0,1,1.067-.255l1.131-.182c.41-.073.62-.292.62-.647a1.212,1.212,0,0,0-.438-1.04,1.754,1.754,0,0,0-1.112-.337,1.816,1.816,0,0,0-1.094.319,1.375,1.375,0,0,0-.52.984l-1.112-.237a2.152,2.152,0,0,1,.912-1.5,3.287,3.287,0,0,1,1.915-.5,3.886,3.886,0,0,1,1.012.128,2.729,2.729,0,0,1,.848.392,1.767,1.767,0,0,1,.6.748,2.818,2.818,0,0,1,.219,1.158v2.845a1.177,1.177,0,0,0,.164.729.665.665,0,0,0,.547.191h.119v.912h-.684a1.167,1.167,0,0,1-1.322-.912h-.055A2.68,2.68,0,0,1,1135.023,2776.729Zm.292-.994a1.825,1.825,0,0,0,1.5-.684,2.734,2.734,0,0,0,.574-1.823l-1.824.355a2.391,2.391,0,0,0-1.085.392,1.02,1.02,0,0,0-.018,1.532,1.415,1.415,0,0,0,.83.228Z" transform="translate(-1104.121 -2695.621)"/>
        <path id="Trazado_134133" data-name="Trazado 134133" d="M1145.12,2769.451a2.453,2.453,0,0,1,1.76.638,2.369,2.369,0,0,1,.656,1.824v4.659h-1.231v-4.44a1.632,1.632,0,0,0-.428-1.249,1.5,1.5,0,0,0-1.094-.41,1.712,1.712,0,0,0-1.249.483,2,2,0,0,0-.492,1.431v4.185h-1.231v-7h1.231v.912A2.331,2.331,0,0,1,1145.12,2769.451Z" transform="translate(-1104.908 -2695.619)"/>
        <path id="Trazado_134134" data-name="Trazado 134134" d="M1152.841,2776.358a1.823,1.823,0,0,1-1.368-.5,1.889,1.889,0,0,1-.5-1.4v-4.121h-1.431v-.985h.529a1.031,1.031,0,0,0,.775-.246,1.234,1.234,0,0,0,.219-.821v-1.267h1.149v2.334h1.6v.985h-1.6v3.994a1.069,1.069,0,0,0,.264.766.911.911,0,0,0,.7.273h.638v.985Z" transform="translate(-1105.589 -2695.405)"/>
        <path id="Trazado_134135" data-name="Trazado 134135" d="M1162.165,2772.927v.337h-5.471a2.453,2.453,0,0,0,.666,1.824,2.271,2.271,0,0,0,2.735.292,2.14,2.14,0,0,0,.793-.912l1.112.237a3.166,3.166,0,0,1-1.195,1.5,3.277,3.277,0,0,1-1.824.547,3.4,3.4,0,0,1-2.526-.975,4.168,4.168,0,0,1,0-5.325,3.336,3.336,0,0,1,2.48-.976,3.152,3.152,0,0,1,2.353.912A3.541,3.541,0,0,1,1162.165,2772.927Zm-3.237-2.553a2.149,2.149,0,0,0-1.459.5,2.272,2.272,0,0,0-.739,1.441h4.195a2.052,2.052,0,0,0-.611-1.441,1.931,1.931,0,0,0-1.414-.474Z" transform="translate(-1106.114 -2695.621)"/>
      </g>
      <g id="Grupo_63722" data-name="Grupo 63722" transform="translate(34.969 106.303)">
        <path id="Trazado_134136" data-name="Trazado 134136" d="M1106.646,2655.371a3.111,3.111,0,0,1,2.371.912,3.367,3.367,0,0,1,.912,2.371,3.2,3.2,0,0,1-.912,2.353,3.13,3.13,0,0,1-2.371.912h-2.152v3.647h-2.134v-10.194Zm-.365,4.814a1.532,1.532,0,0,0,1.176-.4,1.505,1.505,0,0,0,.392-1.113,1.529,1.529,0,0,0-.392-1.1,1.557,1.557,0,0,0-1.176-.41h-1.824v3.027Z" transform="translate(-1102.36 -2654.887)"/>
        <path id="Trazado_134137" data-name="Trazado 134137" d="M1115.392,2666.089a4.708,4.708,0,0,1-2.07-.447,3.376,3.376,0,0,1-1.422-1.322,3.883,3.883,0,0,1-.52-2.042,3.649,3.649,0,0,1,1.112-2.736,4.641,4.641,0,0,1,5.808,0,4.049,4.049,0,0,1,0,5.571A4.122,4.122,0,0,1,1115.392,2666.089Zm0-1.632a1.888,1.888,0,0,0,1.45-.6,2.225,2.225,0,0,0,.547-1.577,2.269,2.269,0,0,0-.547-1.587,1.913,1.913,0,0,0-1.45-.593,1.824,1.824,0,0,0-1.4.6,2.545,2.545,0,0,0,0,3.155,1.824,1.824,0,0,0,1.386.6Z" transform="translate(-1103.155 -2655.166)"/>
        <path id="Trazado_134138" data-name="Trazado 134138" d="M1124.382,2666.084a4.174,4.174,0,0,1-2.143-.511,2.189,2.189,0,0,1-1.04-1.532l1.714-.483a1.378,1.378,0,0,0,1.468,1.094,1.446,1.446,0,0,0,.748-.173.573.573,0,0,0,.292-.565.629.629,0,0,0-.119-.374,1.125,1.125,0,0,0-.374-.273l-.5-.192-.656-.191a6.984,6.984,0,0,1-.675-.209,4.382,4.382,0,0,1-.647-.273,2.434,2.434,0,0,1-.529-.374,1.527,1.527,0,0,1-.4-.575,2.11,2.11,0,0,1-.137-.784,1.878,1.878,0,0,1,.793-1.642,3.587,3.587,0,0,1,2.079-.556,3.646,3.646,0,0,1,1.915.474,2.114,2.114,0,0,1,.985,1.468l-1.6.355a1.232,1.232,0,0,0-1.295-.912,1.4,1.4,0,0,0-.72.164.557.557,0,0,0-.246.711.441.441,0,0,0,.146.173l.21.137a1.368,1.368,0,0,0,.292.119,2.834,2.834,0,0,0,.319.091l.374.1.383.1a6.336,6.336,0,0,1,.693.21,4.771,4.771,0,0,1,.629.3,2.388,2.388,0,0,1,.547.429,2.076,2.076,0,0,1,.365.611,2.3,2.3,0,0,1,.137.812,2.177,2.177,0,0,1-.246,1.058,1.819,1.819,0,0,1-.675.721,3.256,3.256,0,0,1-.912.383A4.986,4.986,0,0,1,1124.382,2666.084Z" transform="translate(-1104.021 -2655.161)"/>
        <path id="Trazado_134139" data-name="Trazado 134139" d="M1130.645,2657.2a1.181,1.181,0,0,1-.87-1.984l.031-.031a1.165,1.165,0,0,1,.839-.346,1.185,1.185,0,0,1,0,2.361Zm-1.049,8.417v-7.295h2.07v7.295Z" transform="translate(-1104.748 -2654.841)"/>
        <path id="Trazado_134140" data-name="Trazado 134140" d="M1136.874,2665.725a2.2,2.2,0,0,1-1.659-.593,2.336,2.336,0,0,1-.584-1.7v-3.456h-1.441V2658.4h.465a1.178,1.178,0,0,0,.912-.31,1.529,1.529,0,0,0,.292-1.085v-.967h1.824v2.362h1.514v1.577h-1.514v3.237c0,.638.283.912.848.912h.666v1.559Z" transform="translate(-1105.078 -2654.947)"/>
        <path id="Trazado_134141" data-name="Trazado 134141" d="M1141.455,2657.2a1.15,1.15,0,0,1-.839-.346,1.111,1.111,0,0,1-.346-.839,1.141,1.141,0,0,1,.346-.83,1.173,1.173,0,0,1,.839-.346,1.16,1.16,0,0,1,.83.346,1.177,1.177,0,0,1,.005,1.663l-.005.006A1.159,1.159,0,0,1,1141.455,2657.2Zm-1.049,8.417v-7.295h2.07v7.295Z" transform="translate(-1105.702 -2654.841)"/>
        <path id="Trazado_134142" data-name="Trazado 134142" d="M1149.664,2658.631h2.179l-3.128,7.295h-1.824l-3.082-7.295h2.207l1.824,5.006Z" transform="translate(-1106.014 -2655.175)"/>
        <path id="Trazado_134143" data-name="Trazado 134143" d="M1156.842,2666.089a4.727,4.727,0,0,1-2.079-.447,3.3,3.3,0,0,1-1.413-1.322,3.885,3.885,0,0,1-.52-2.042,3.568,3.568,0,0,1,1.113-2.736,4.623,4.623,0,0,1,5.8,0,4.049,4.049,0,0,1,0,5.571A4.1,4.1,0,0,1,1156.842,2666.089Zm0-1.632a1.825,1.825,0,0,0,1.45-.6,2.2,2.2,0,0,0,.556-1.577,2.235,2.235,0,0,0-.556-1.587,1.886,1.886,0,0,0-1.45-.583,1.824,1.824,0,0,0-1.4.6,2.546,2.546,0,0,0,0,3.155A1.825,1.825,0,0,0,1156.842,2664.457Z" transform="translate(-1106.809 -2655.165)"/>
      </g>
      <g id="Grupo_63723" data-name="Grupo 63723" transform="translate(137.251 137.615)">
        <path id="Trazado_134144" data-name="Trazado 134144" d="M1220.036,2699.634a5.32,5.32,0,0,1-1.97-.356,4.933,4.933,0,0,1-1.587-1.012,4.555,4.555,0,0,1-1.058-1.632,6.164,6.164,0,0,1,0-4.3,4.613,4.613,0,0,1,1.049-1.632,4.921,4.921,0,0,1,1.587-1.012,5.548,5.548,0,0,1,3.93,0,4.542,4.542,0,0,1,2.635,2.635,5.813,5.813,0,0,1,.383,2.143,5.911,5.911,0,0,1-.383,2.161,4.643,4.643,0,0,1-1.058,1.632,4.883,4.883,0,0,1-1.578,1.012A5.346,5.346,0,0,1,1220.036,2699.634Zm0-1.2a3.65,3.65,0,0,0,2.654-1.058,3.91,3.91,0,0,0,1.048-2.9,4.558,4.558,0,0,0-.283-1.66,3.367,3.367,0,0,0-.793-1.24,3.472,3.472,0,0,0-1.176-.757,3.987,3.987,0,0,0-1.45-.264,4.035,4.035,0,0,0-1.459.264,3.425,3.425,0,0,0-1.185.757,3.368,3.368,0,0,0-.793,1.24,4.579,4.579,0,0,0-.283,1.66,4.731,4.731,0,0,0,.283,1.687,3.432,3.432,0,0,0,.793,1.249,3.709,3.709,0,0,0,1.185.757,4.03,4.03,0,0,0,1.459.264Z" transform="translate(-1214.574 -2689.194)"/>
        <path id="Trazado_134145" data-name="Trazado 134145" d="M1232.016,2692.651a3.127,3.127,0,0,1,1.267.264,3.066,3.066,0,0,1,1.04.711,3.324,3.324,0,0,1,.7,1.158,4.285,4.285,0,0,1,.264,1.514,3.645,3.645,0,0,1-.912,2.635,3.054,3.054,0,0,1-2.325,1.012,2.732,2.732,0,0,1-1.459-.4,2.65,2.65,0,0,1-1-1.076v4.851h-1.231v-10.532h1.185v1.359a2.561,2.561,0,0,1,1-1.085A2.731,2.731,0,0,1,1232.016,2692.651Zm-.237,6.219a2.1,2.1,0,0,0,1.614-.7,2.953,2.953,0,0,0,0-3.738,2.1,2.1,0,0,0-1.614-.7,2.16,2.16,0,0,0-1.65.729,2.882,2.882,0,0,0,0,3.647A2.159,2.159,0,0,0,1231.779,2698.87Z" transform="translate(-1215.749 -2689.487)"/>
        <path id="Trazado_134146" data-name="Trazado 134146" d="M1239.294,2694.027a2.135,2.135,0,0,1,.866-.912,2.66,2.66,0,0,1,1.35-.365v1.158a2.3,2.3,0,0,0-1.623.52,2.173,2.173,0,0,0-.565,1.659v3.739h-1.231v-7h1.2Z" transform="translate(-1216.607 -2689.496)"/>
        <path id="Trazado_134147" data-name="Trazado 134147" d="M1249.408,2696.157v.338h-5.471a2.453,2.453,0,0,0,.666,1.824,2.189,2.189,0,0,0,1.6.629,2.127,2.127,0,0,0,1.158-.337,2.163,2.163,0,0,0,.8-.912l1.112.237a3.227,3.227,0,0,1-1.195,1.5,3.274,3.274,0,0,1-1.824.547,3.4,3.4,0,0,1-2.526-.976,4.167,4.167,0,0,1,0-5.325,3.338,3.338,0,0,1,2.48-.976,3.153,3.153,0,0,1,2.353.912A3.538,3.538,0,0,1,1249.408,2696.157Zm-3.237-2.553a2.15,2.15,0,0,0-1.459.5,2.271,2.271,0,0,0-.739,1.441h4.194a2.052,2.052,0,0,0-.611-1.441,1.932,1.932,0,0,0-1.386-.5Z" transform="translate(-1217.019 -2689.492)"/>
        <path id="Trazado_134148" data-name="Trazado 134148" d="M1254.329,2699.929a3.313,3.313,0,0,1-1.887-.5,2.107,2.107,0,0,1-.912-1.441l1.076-.31a1.478,1.478,0,0,0,.574.976,1.89,1.89,0,0,0,1.149.347,2.6,2.6,0,0,0,.675-.091,1.173,1.173,0,0,0,.52-.346.914.914,0,0,0,.2-.638.761.761,0,0,0-.055-.292c0-.082-.073-.164-.109-.228a.574.574,0,0,0-.2-.192,2.015,2.015,0,0,0-.246-.155,2.134,2.134,0,0,0-.319-.128l-.337-.119-.392-.109-.4-.119a7.091,7.091,0,0,1-.729-.255,3.357,3.357,0,0,1-.593-.337,1.366,1.366,0,0,1-.456-.556,1.869,1.869,0,0,1-.155-.784,1.823,1.823,0,0,1,.337-1.112,1.913,1.913,0,0,1,.912-.666,3.5,3.5,0,0,1,1.24-.2,3.057,3.057,0,0,1,1.705.456,1.953,1.953,0,0,1,.857,1.368l-1.012.255a1.365,1.365,0,0,0-.538-.912,1.674,1.674,0,0,0-1-.3,1.708,1.708,0,0,0-.912.246.828.828,0,0,0-.392.757.784.784,0,0,0,.1.383.914.914,0,0,0,.593.483,4.086,4.086,0,0,0,.42.155l.51.128h.109l.666.191a5.02,5.02,0,0,1,.611.255,2.206,2.206,0,0,1,.547.383,1.808,1.808,0,0,1,.337.538,1.827,1.827,0,0,1,.146.757,2.108,2.108,0,0,1-.21.912,1.825,1.825,0,0,1-.574.647,2.74,2.74,0,0,1-.821.346A3.716,3.716,0,0,1,1254.329,2699.929Z" transform="translate(-1217.792 -2689.489)"/>
        <path id="Trazado_134149" data-name="Trazado 134149" d="M1260.15,2690.841a.792.792,0,0,1-.584-.246.814.814,0,0,1-.246-.593.791.791,0,0,1,.246-.584.823.823,0,0,1,.584-.237.835.835,0,0,1,.584.237.791.791,0,0,1,.246.584A.839.839,0,0,1,1260.15,2690.841Zm-.629,8.644v-7h1.24v7Z" transform="translate(-1218.479 -2689.181)"/>
        <path id="Trazado_134150" data-name="Trazado 134150" d="M1267.926,2692.8h1.322l-2.854,7h-1.049l-2.836-7h1.313l2.052,5.571Z" transform="translate(-1218.76 -2689.5)"/>
        <path id="Trazado_134151" data-name="Trazado 134151" d="M1274.086,2699.927a3.655,3.655,0,0,1-1.824-.438,3.129,3.129,0,0,1-1.267-1.267,3.913,3.913,0,0,1-.465-1.933,3.577,3.577,0,0,1,.994-2.645,3.729,3.729,0,0,1,5.07,0,3.645,3.645,0,0,1,.985,2.645,3.567,3.567,0,0,1-.994,2.644A3.4,3.4,0,0,1,1274.086,2699.927Zm0-1.021a2.192,2.192,0,0,0,1.66-.72,2.737,2.737,0,0,0,.656-1.9,2.67,2.67,0,0,0-.656-1.887,2.151,2.151,0,0,0-1.66-.72,2.113,2.113,0,0,0-1.641.72,2.67,2.67,0,0,0-.656,1.887,2.736,2.736,0,0,0,.656,1.9,2.151,2.151,0,0,0,1.632.72Z" transform="translate(-1219.466 -2689.487)"/>
        <path id="Trazado_134152" data-name="Trazado 134152" d="M1221.235,2709.848H1217.1v3.273h3.647v1.158H1217.1v4.431h-1.3v-10.03h5.425Z" transform="translate(-1214.642 -2690.9)"/>
        <path id="Trazado_134153" data-name="Trazado 134153" d="M1224.967,2713.228a2.167,2.167,0,0,1,.912-.912,2.585,2.585,0,0,1,1.34-.365v1.158a2.3,2.3,0,0,0-1.623.52,2.172,2.172,0,0,0-.565,1.659v3.739H1223.8v-7h1.2Z" transform="translate(-1215.347 -2691.188)"/>
        <path id="Trazado_134154" data-name="Trazado 134154" d="M1229.709,2710.041a.839.839,0,0,1-.839-.839h0a.79.79,0,0,1,.246-.583.836.836,0,0,1,.593-.237.812.812,0,0,1,.574.237.79.79,0,0,1,.246.583.813.813,0,0,1-.246.593A.787.787,0,0,1,1229.709,2710.041Zm-.629,8.644v-7h1.24v7Z" transform="translate(-1215.794 -2690.874)"/>
        <path id="Trazado_134155" data-name="Trazado 134155" d="M1236.1,2719.128a3.658,3.658,0,0,1-1.824-.438,3.119,3.119,0,0,1-1.258-1.268,3.911,3.911,0,0,1-.465-1.933,3.576,3.576,0,0,1,.994-2.644,3.72,3.72,0,0,1,5.061,0,4.011,4.011,0,0,1,0,5.289A3.419,3.419,0,0,1,1236.1,2719.128Zm0-1.021a2.17,2.17,0,0,0,1.651-.72,2.735,2.735,0,0,0,.656-1.9,2.67,2.67,0,0,0-.656-1.887,2.252,2.252,0,0,0-3.183-.118c-.04.038-.08.077-.118.118a3.088,3.088,0,0,0,0,3.784,2.151,2.151,0,0,0,1.65.72Z" transform="translate(-1216.118 -2691.179)"/>
        <path id="Trazado_134156" data-name="Trazado 134156" d="M1222.135,2737.912l-.857-2.389h-4.559l-.857,2.4h-1.331l3.7-10.03h1.523l3.693,10.03Zm-4.988-3.52h3.729l-1.869-5.252Z" transform="translate(-1214.53 -2692.594)"/>
        <path id="Trazado_134157" data-name="Trazado 134157" d="M1233.342,2731.05a2.25,2.25,0,0,1,1.632.6,2.194,2.194,0,0,1,.62,1.669v4.869h-1.231v-4.559a1.558,1.558,0,0,0-.392-1.158,1.308,1.308,0,0,0-.976-.383,1.4,1.4,0,0,0-1.067.438,1.925,1.925,0,0,0-.4,1.323v4.331h-1.258v-4.5a1.658,1.658,0,0,0-.383-1.194,1.313,1.313,0,0,0-.994-.4,1.368,1.368,0,0,0-1.067.447,1.971,1.971,0,0,0-.41,1.359v4.286h-1.185v-7h1.231v.912a2.113,2.113,0,0,1,.8-.775,2.253,2.253,0,0,1,1.113-.273,2.318,2.318,0,0,1,1.194.3,1.82,1.82,0,0,1,.775.848,2.171,2.171,0,0,1,.848-.848A2.344,2.344,0,0,1,1233.342,2731.05Z" transform="translate(-1215.561 -2692.871)"/>
        <path id="Trazado_134158" data-name="Trazado 134158" d="M1245.188,2734.558v.337h-5.471a2.454,2.454,0,0,0,.666,1.824,2.19,2.19,0,0,0,1.6.629,2.153,2.153,0,0,0,1.167-.337,2.2,2.2,0,0,0,.793-.912l1.112.237a3.167,3.167,0,0,1-1.194,1.5,3.278,3.278,0,0,1-1.824.547,3.42,3.42,0,0,1-2.526-.976,4.167,4.167,0,0,1,0-5.325,3.335,3.335,0,0,1,2.48-.975,3.153,3.153,0,0,1,2.353.912A3.546,3.546,0,0,1,1245.188,2734.558Zm-3.237-2.553a2.148,2.148,0,0,0-1.459.5,2.272,2.272,0,0,0-.739,1.441h4.194a2.051,2.051,0,0,0-.611-1.441,1.93,1.93,0,0,0-1.386-.5Z" transform="translate(-1216.647 -2692.877)"/>
        <path id="Trazado_134159" data-name="Trazado 134159" d="M1251.26,2731.051a2.453,2.453,0,0,1,1.76.638,2.37,2.37,0,0,1,.656,1.824v4.714h-1.231V2733.8a1.678,1.678,0,0,0-.429-1.258,1.5,1.5,0,0,0-1.094-.4,1.7,1.7,0,0,0-1.249.474,2,2,0,0,0-.492,1.432v4.185h-1.231v-7h1.231v.912A2.334,2.334,0,0,1,1251.26,2731.051Z" transform="translate(-1217.476 -2692.872)"/>
        <path id="Trazado_134160" data-name="Trazado 134160" d="M1258.4,2738.33a2.332,2.332,0,0,1-1.532-.483,1.715,1.715,0,0,1-.6-1.432,2.017,2.017,0,0,1,.191-.912,1.548,1.548,0,0,1,.574-.638,3.127,3.127,0,0,1,.821-.4,7.154,7.154,0,0,1,1.067-.246l1.131-.191c.41-.073.62-.292.62-.647a1.213,1.213,0,0,0-.438-1.04,2,2,0,0,0-2.207,0,1.34,1.34,0,0,0-.52.976l-1.112-.228a2.189,2.189,0,0,1,.912-1.5,3.283,3.283,0,0,1,1.915-.5,3.906,3.906,0,0,1,1.012.128,2.554,2.554,0,0,1,.848.392,1.77,1.77,0,0,1,.6.748,2.819,2.819,0,0,1,.219,1.158v2.89a1.176,1.176,0,0,0,.164.729.673.673,0,0,0,.547.192h.119v.912h-.611c-.757,0-1.2-.31-1.331-.912h-.055A2.682,2.682,0,0,1,1258.4,2738.33Zm.292-.994a1.89,1.89,0,0,0,1.5-.675,2.843,2.843,0,0,0,.565-1.824l-1.824.356a2.442,2.442,0,0,0-1.085.392,1.021,1.021,0,0,0-.09,1.442,1.065,1.065,0,0,0,.09.09,1.417,1.417,0,0,0,.839.219Z" transform="translate(-1218.209 -2692.874)"/>
        <path id="Trazado_134161" data-name="Trazado 134161" d="M1266.108,2737.21h3.729v.994h-5.608l3.647-6H1264.4v-1h5.362Z" transform="translate(-1218.911 -2692.885)"/>
        <path id="Trazado_134162" data-name="Trazado 134162" d="M1273.552,2738.329a2.347,2.347,0,0,1-1.541-.483,1.715,1.715,0,0,1-.6-1.432,2.005,2.005,0,0,1,.191-.912,1.548,1.548,0,0,1,.574-.638,3.129,3.129,0,0,1,.821-.4,7.4,7.4,0,0,1,1.067-.246l1.131-.191c.41-.073.62-.292.62-.647a1.213,1.213,0,0,0-.438-1.04,1.756,1.756,0,0,0-1.112-.337,1.818,1.818,0,0,0-1.094.328,1.34,1.34,0,0,0-.52.976l-1.112-.228a2.189,2.189,0,0,1,.912-1.5,3.283,3.283,0,0,1,1.915-.5,3.924,3.924,0,0,1,1.012.127,2.558,2.558,0,0,1,.848.392,1.767,1.767,0,0,1,.6.748,2.817,2.817,0,0,1,.219,1.158v2.89a1.177,1.177,0,0,0,.164.729.686.686,0,0,0,.547.191h.119v.912h-.611c-.757,0-1.2-.31-1.331-.912h-.128A2.671,2.671,0,0,1,1273.552,2738.329Zm.283-.994a1.89,1.89,0,0,0,1.5-.675,2.844,2.844,0,0,0,.565-1.824l-1.824.356a2.442,2.442,0,0,0-1.085.392,1.021,1.021,0,0,0-.09,1.442,1.083,1.083,0,0,0,.09.09,1.417,1.417,0,0,0,.839.219Z" transform="translate(-1219.544 -2692.873)"/>
        <path id="Trazado_134163" data-name="Trazado 134163" d="M1283.67,2731.051a2.435,2.435,0,0,1,1.76.638,2.371,2.371,0,0,1,.666,1.824v4.714h-1.24V2733.8a1.676,1.676,0,0,0-.42-1.258,1.534,1.534,0,0,0-1.1-.4,1.688,1.688,0,0,0-1.24.474,1.925,1.925,0,0,0-.492,1.432v4.186h-1.24v-7h1.24v.912A2.325,2.325,0,0,1,1283.67,2731.051Z" transform="translate(-1220.333 -2692.872)"/>
        <path id="Trazado_134164" data-name="Trazado 134164" d="M1291.391,2737.977a1.823,1.823,0,0,1-1.368-.5,1.889,1.889,0,0,1-.5-1.4v-4.14h-1.432v-.985h.529a1.031,1.031,0,0,0,.775-.246,1.233,1.233,0,0,0,.219-.821v-1.267h1.149v2.334h1.614v.985h-1.614v3.994a1.066,1.066,0,0,0,.265.766.91.91,0,0,0,.7.274h.647v.985Z" transform="translate(-1221.015 -2692.658)"/>
        <path id="Trazado_134165" data-name="Trazado 134165" d="M1300.718,2734.558v.337h-5.471a2.453,2.453,0,0,0,.666,1.824,2.2,2.2,0,0,0,1.6.629,2.153,2.153,0,0,0,1.167-.337,2.2,2.2,0,0,0,.793-.912l1.112.237a3.168,3.168,0,0,1-1.194,1.5,3.278,3.278,0,0,1-1.824.547,3.42,3.42,0,0,1-2.526-.976,4.167,4.167,0,0,1,0-5.325,3.335,3.335,0,0,1,2.48-.975,3.152,3.152,0,0,1,2.353.912A3.547,3.547,0,0,1,1300.718,2734.558Zm-3.237-2.553a2.149,2.149,0,0,0-1.459.5,2.272,2.272,0,0,0-.739,1.441h4.2a2.1,2.1,0,0,0-.62-1.441A1.929,1.929,0,0,0,1297.481,2732Z" transform="translate(-1221.542 -2692.877)"/>
        <path id="Trazado_134166" data-name="Trazado 134166" d="M1219.6,2747.081a2.949,2.949,0,0,1,1.577.419,2.8,2.8,0,0,1,1.049,1.112,3.265,3.265,0,0,1,.374,1.55,3.062,3.062,0,0,1-.83,2.179,2.856,2.856,0,0,1-2.17.912h-2.5v3.894h-1.277v-10.03Zm-.182,5.024a1.823,1.823,0,0,0,1.4-.538,2.223,2.223,0,0,0,0-2.835,1.822,1.822,0,0,0-1.4-.547h-2.316v3.921Z" transform="translate(-1214.645 -2694.285)"/>
        <path id="Trazado_134167" data-name="Trazado 134167" d="M1230.748,2753.753v.337h-5.471a2.453,2.453,0,0,0,.675,1.824,2.189,2.189,0,0,0,1.6.629,2.127,2.127,0,0,0,1.158-.337,2.231,2.231,0,0,0,.8-.912l1.1.237a3.113,3.113,0,0,1-1.194,1.5,3.274,3.274,0,0,1-1.824.547,3.382,3.382,0,0,1-2.517-.976,4.149,4.149,0,0,1,0-5.325,3.353,3.353,0,0,1,2.425-1.021,3.164,3.164,0,0,1,2.362.912A3.571,3.571,0,0,1,1230.748,2753.753Zm-3.246-2.581a2.144,2.144,0,0,0-1.45.5,2.271,2.271,0,0,0-.739,1.441h4.195a2.086,2.086,0,0,0-.611-1.441A1.968,1.968,0,0,0,1227.5,2751.173Z" transform="translate(-1215.375 -2694.565)"/>
        <path id="Trazado_134168" data-name="Trazado 134168" d="M1235.668,2757.553a3.358,3.358,0,0,1-1.9-.5,2.1,2.1,0,0,1-.912-1.441l1.076-.31a1.479,1.479,0,0,0,.574.976,1.825,1.825,0,0,0,1.149.346,2.623,2.623,0,0,0,.675-.091,1.091,1.091,0,0,0,.511-.346.914.914,0,0,0,.21-.638.945.945,0,0,0-.173-.52.579.579,0,0,0-.2-.191l-.237-.155a2.467,2.467,0,0,0-.319-.128l-.337-.118-.392-.11-.41-.118a6.979,6.979,0,0,1-.72-.255,3.074,3.074,0,0,1-.593-.337,1.379,1.379,0,0,1-.474-.62,1.881,1.881,0,0,1-.146-.784,1.827,1.827,0,0,1,.337-1.122,1.991,1.991,0,0,1,.912-.656,3.55,3.55,0,0,1,1.249-.2,3.055,3.055,0,0,1,1.705.456,1.917,1.917,0,0,1,.848,1.368l-1.012.255a1.331,1.331,0,0,0-.529-.912,1.7,1.7,0,0,0-1.012-.3,1.734,1.734,0,0,0-.912.246.848.848,0,0,0-.392.757.694.694,0,0,0,.109.383.974.974,0,0,0,.21.273,1.187,1.187,0,0,0,.383.21,3.225,3.225,0,0,0,.41.155l.511.128h.109l.675.192a4.793,4.793,0,0,1,.6.255,1.934,1.934,0,0,1,.547.383,1.813,1.813,0,0,1,.346.538,2.041,2.041,0,0,1,.137.757,1.99,1.99,0,0,1-.21.912,1.56,1.56,0,0,1-.574.638,2.409,2.409,0,0,1-.811.355A3.7,3.7,0,0,1,1235.668,2757.553Z" transform="translate(-1216.146 -2694.563)"/>
        <path id="Trazado_134169" data-name="Trazado 134169" d="M1242.453,2757.56a2.393,2.393,0,0,1-1.532-.483,1.714,1.714,0,0,1-.6-1.432,2.07,2.07,0,0,1,.192-.912,1.62,1.62,0,0,1,.565-.629,3.335,3.335,0,0,1,.83-.4,8.623,8.623,0,0,1,1.058-.255l1.14-.182c.41-.073.62-.292.62-.647a1.212,1.212,0,0,0-.438-1.04,1.757,1.757,0,0,0-1.113-.337,1.819,1.819,0,0,0-1.094.319,1.322,1.322,0,0,0-.52.985l-1.113-.237a2.123,2.123,0,0,1,.912-1.5,3.239,3.239,0,0,1,1.906-.5,3.972,3.972,0,0,1,1.021.127,2.735,2.735,0,0,1,.848.392,1.767,1.767,0,0,1,.6.748,2.818,2.818,0,0,1,.219,1.158v2.891a1.248,1.248,0,0,0,.155.729.694.694,0,0,0,.556.191h.109v.912h-.611a1.158,1.158,0,0,1-1.322-.912h-.046A2.664,2.664,0,0,1,1242.453,2757.56Zm.283-.994a1.824,1.824,0,0,0,1.5-.684,2.735,2.735,0,0,0,.574-1.823l-1.824.356a2.39,2.39,0,0,0-1.085.392,1.02,1.02,0,0,0-.018,1.532,1.406,1.406,0,0,0,.848.2Z" transform="translate(-1216.803 -2694.569)"/>
        <path id="Trazado_134170" data-name="Trazado 134170" d="M1254.237,2746.081h1.231v10.942h-1.195v-1.359a2.585,2.585,0,0,1-.994,1.1,2.784,2.784,0,0,1-1.486.41,3.154,3.154,0,0,1-1.267-.265,3.079,3.079,0,0,1-1.04-.729,3.256,3.256,0,0,1-.7-1.158,4.007,4.007,0,0,1-.264-1.5,3.711,3.711,0,0,1,.912-2.635,3.081,3.081,0,0,1,2.325-1.012,2.8,2.8,0,0,1,1.468.4,2.623,2.623,0,0,1,1,1.067Zm-2.216,10.03a2.126,2.126,0,0,0,1.632-.729,2.909,2.909,0,0,0,0-3.647,2.2,2.2,0,0,0-3.265-.027,2.637,2.637,0,0,0-.666,1.869,2.6,2.6,0,0,0,.666,1.824,2.134,2.134,0,0,0,1.632.7Z" transform="translate(-1217.526 -2694.197)"/>
        <path id="Trazado_134171" data-name="Trazado 134171" d="M1261.777,2757.557a3.65,3.65,0,0,1-1.824-.438,3.119,3.119,0,0,1-1.258-1.267,3.919,3.919,0,0,1-.465-1.942,3.566,3.566,0,0,1,.994-2.644,3.72,3.72,0,0,1,5.061,0,4.011,4.011,0,0,1,0,5.288A3.421,3.421,0,0,1,1261.777,2757.557Zm0-1.021a2.171,2.171,0,0,0,1.66-.72,3.055,3.055,0,0,0,0-3.784,2.143,2.143,0,0,0-1.66-.72,2.115,2.115,0,0,0-1.641.72,3.091,3.091,0,0,0,0,3.784,2.151,2.151,0,0,0,1.632.693Z" transform="translate(-1218.382 -2694.566)"/>
        <path id="Trazado_134172" data-name="Trazado 134172" d="M1226.379,2776.291h-1.24l-.666-8.28-3.21,8.28h-.757l-3.182-8.207-.684,8.207h-1.24l.757-10.03h1.687l3.036,7.824,3.055-7.824h1.687Z" transform="translate(-1214.607 -2695.976)"/>
        <path id="Trazado_134173" data-name="Trazado 134173" d="M1231.583,2776.729a2.391,2.391,0,0,1-1.532-.483,1.714,1.714,0,0,1-.6-1.431,2.071,2.071,0,0,1,.192-.912,1.585,1.585,0,0,1,.574-.629,3.137,3.137,0,0,1,.821-.4,8.429,8.429,0,0,1,1.067-.255l1.131-.182c.41-.073.62-.292.62-.647a1.213,1.213,0,0,0-.438-1.04,1.754,1.754,0,0,0-1.113-.337,1.816,1.816,0,0,0-1.094.319,1.375,1.375,0,0,0-.52.984l-1.113-.237a2.188,2.188,0,0,1,.912-1.5,3.287,3.287,0,0,1,1.915-.5,3.893,3.893,0,0,1,1.012.128,2.646,2.646,0,0,1,.848.392,1.767,1.767,0,0,1,.6.748,2.819,2.819,0,0,1,.219,1.158v2.845a1.176,1.176,0,0,0,.164.729.674.674,0,0,0,.547.191h.119v.912h-.611c-.757,0-1.2-.31-1.331-.912h-.055A2.679,2.679,0,0,1,1231.583,2776.729Zm.292-.994a1.869,1.869,0,0,0,1.5-.684,2.81,2.81,0,0,0,.565-1.823l-1.824.355a2.445,2.445,0,0,0-1.085.392,1.021,1.021,0,0,0-.09,1.441,1.034,1.034,0,0,0,.09.09A1.415,1.415,0,0,0,1231.875,2775.736Z" transform="translate(-1215.845 -2696.259)"/>
        <path id="Trazado_134174" data-name="Trazado 134174" d="M1238.4,2776.2v-10.942h1.249V2776.2Z" transform="translate(-1216.634 -2695.888)"/>
        <path id="Trazado_134175" data-name="Trazado 134175" d="M1248.588,2772.927v.337h-5.471a2.453,2.453,0,0,0,.675,1.824,2.189,2.189,0,0,0,1.6.629,2.126,2.126,0,0,0,1.158-.338,2.228,2.228,0,0,0,.8-.912l1.112.237a3.177,3.177,0,0,1-1.2,1.5,3.277,3.277,0,0,1-1.824.547,3.383,3.383,0,0,1-2.517-.975,4.149,4.149,0,0,1,0-5.325,3.37,3.37,0,0,1,2.489-.976,3.152,3.152,0,0,1,2.353.912A3.521,3.521,0,0,1,1248.588,2772.927Zm-3.237-2.553a2.15,2.15,0,0,0-1.459.5,2.273,2.273,0,0,0-.739,1.441h4.194a2.087,2.087,0,0,0-.611-1.441,1.949,1.949,0,0,0-1.377-.474Z" transform="translate(-1216.947 -2696.26)"/>
        <path id="Trazado_134176" data-name="Trazado 134176" d="M1255.316,2769.6h1.322l-2.854,6.985h-1.049l-2.836-7h1.313l2.052,5.571Z" transform="translate(-1217.648 -2696.269)"/>
        <path id="Trazado_134177" data-name="Trazado 134177" d="M1261.476,2776.727a3.65,3.65,0,0,1-1.824-.438,3.128,3.128,0,0,1-1.267-1.267,3.913,3.913,0,0,1-.465-1.933,3.576,3.576,0,0,1,.994-2.644,3.728,3.728,0,0,1,5.07,0,4.011,4.011,0,0,1,0,5.289A3.438,3.438,0,0,1,1261.476,2776.727Zm0-1.021a2.17,2.17,0,0,0,1.66-.72,2.736,2.736,0,0,0,.656-1.9,2.669,2.669,0,0,0-.656-1.887,2.143,2.143,0,0,0-1.66-.72,2.114,2.114,0,0,0-1.641.72,2.669,2.669,0,0,0-.657,1.887,2.736,2.736,0,0,0,.657,1.9,2.15,2.15,0,0,0,1.632.72Z" transform="translate(-1218.355 -2696.257)"/>
        <path id="Trazado_134178" data-name="Trazado 134178" d="M1267.8,2776.2v-10.942h1.249V2776.2Z" transform="translate(-1219.226 -2695.888)"/>
        <path id="Trazado_134179" data-name="Trazado 134179" d="M1274.806,2776.727a3.65,3.65,0,0,1-1.824-.438,3.079,3.079,0,0,1-1.267-1.267,3.913,3.913,0,0,1-.465-1.933,3.576,3.576,0,0,1,.994-2.644,3.437,3.437,0,0,1,2.526-.994,3.472,3.472,0,0,1,2.544.994,3.643,3.643,0,0,1,.985,2.644,3.568,3.568,0,0,1-.994,2.645A3.42,3.42,0,0,1,1274.806,2776.727Zm0-1.021a2.153,2.153,0,0,0,1.65-.72,2.735,2.735,0,0,0,.666-1.9,2.682,2.682,0,0,0-.666-1.887,2.123,2.123,0,0,0-1.65-.72,2.087,2.087,0,0,0-1.641.72,2.67,2.67,0,0,0-.656,1.887,2.736,2.736,0,0,0,.656,1.9A2.125,2.125,0,0,0,1274.806,2775.706Z" transform="translate(-1219.53 -2696.257)"/>
      </g>
      <g id="Grupo_63724" data-name="Grupo 63724" transform="translate(138.144 106.303)">
        <path id="Trazado_134180" data-name="Trazado 134180" d="M1222.549,2655.371h2.125v10.294H1222.2l-4.559-7.358v7.358h-2.134v-10.294h2.48l4.559,7.295Z" transform="translate(-1215.51 -2654.888)"/>
        <path id="Trazado_134181" data-name="Trazado 134181" d="M1234.995,2662.171v.492h-5.471a1.88,1.88,0,0,0,.584,1.34,2.034,2.034,0,0,0,2.252.21,1.6,1.6,0,0,0,.62-.739l1.878.273a3.25,3.25,0,0,1-1.286,1.723,3.783,3.783,0,0,1-2.161.611,3.962,3.962,0,0,1-2.854-1.012,3.649,3.649,0,0,1-1.058-2.79,3.728,3.728,0,0,1,1.058-2.8,3.857,3.857,0,0,1,2.79-1.021,3.345,3.345,0,0,1,3.647,3.711Zm-3.647-2.261a1.624,1.624,0,0,0-1.778,1.414h3.365a1.541,1.541,0,0,0-.51-1.049,1.611,1.611,0,0,0-1.04-.365Z" transform="translate(-1216.566 -2655.159)"/>
        <path id="Trazado_134182" data-name="Trazado 134182" d="M1242.418,2658.614h1.951v6.775a5.479,5.479,0,0,1-.273,1.824,2.946,2.946,0,0,1-.793,1.249,3.328,3.328,0,0,1-1.222.7,5.034,5.034,0,0,1-1.6.228q-2.9,0-3.775-2.271l1.705-.729a2.474,2.474,0,0,0,.784,1.067,2.015,2.015,0,0,0,1.2.337c1.267,0,1.906-.748,1.906-2.261v-.875a2.311,2.311,0,0,1-.912.72,3.091,3.091,0,0,1-1.3.274,3.265,3.265,0,0,1-1.286-.255,3.243,3.243,0,0,1-1.787-1.879,4.315,4.315,0,0,1,0-2.972,3.27,3.27,0,0,1,.729-1.131,3.045,3.045,0,0,1,1.067-.711,3.246,3.246,0,0,1,1.295-.264,3,3,0,0,1,1.359.31,2.108,2.108,0,0,1,.912.8Zm-3.146,4.842a1.767,1.767,0,0,0,1.34.565,1.824,1.824,0,0,0,1.349-.565,2.052,2.052,0,0,0,0-2.79,1.9,1.9,0,0,0-2.694-.041l-.041.041a1.953,1.953,0,0,0-.538,1.4,1.913,1.913,0,0,0,.584,1.386Z" transform="translate(-1217.379 -2655.158)"/>
        <path id="Trazado_134183" data-name="Trazado 134183" d="M1253.4,2663.954a6.825,6.825,0,0,0,.173,1.824v.2h-1.915l-.164-.793a2.364,2.364,0,0,1-1.021.7,3.861,3.861,0,0,1-1.331.237,4.205,4.205,0,0,1-.684-.064,2.474,2.474,0,0,1-.611-.219,1.824,1.824,0,0,1-.51-.383,1.522,1.522,0,0,1-.337-.584,2.125,2.125,0,0,1-.137-.793,2.2,2.2,0,0,1,.137-.793,1.887,1.887,0,0,1,.356-.593,2.249,2.249,0,0,1,.584-.438,4.506,4.506,0,0,1,.72-.31,8.5,8.5,0,0,1,.912-.228l1.2-.273a1.19,1.19,0,0,0,.538-.228.457.457,0,0,0,.164-.365.775.775,0,0,0-.356-.711,1.823,1.823,0,0,0-.912-.21,1.259,1.259,0,0,0-1.425,1.066c0,.018,0,.037-.006.056l-1.824-.328a2.464,2.464,0,0,1,1.058-1.678,4.241,4.241,0,0,1,2.3-.538q3.081,0,3.082,2.644Zm-3.647.739a1.642,1.642,0,0,0,1.267-.529,2.217,2.217,0,0,0,.492-1.568l-1.741.492a1.947,1.947,0,0,0-.73.3.619.619,0,0,0-.255.529.677.677,0,0,0,.274.575,1.113,1.113,0,0,0,.729.173Z" transform="translate(-1218.274 -2655.164)"/>
        <path id="Trazado_134184" data-name="Trazado 134184" d="M1258.745,2665.725a2.182,2.182,0,0,1-1.65-.593,2.3,2.3,0,0,1-.584-1.7v-3.456h-1.441V2658.4h.465a1.2,1.2,0,0,0,.912-.31,1.579,1.579,0,0,0,.292-1.085v-.967h1.824v2.362h1.5v1.577h-1.477v3.237c0,.638.283.912.848.912h.656v1.559Z" transform="translate(-1218.997 -2654.947)"/>
        <path id="Trazado_134185" data-name="Trazado 134185" d="M1263.355,2657.2a1.169,1.169,0,0,1-.839-.346,1.148,1.148,0,0,1-.346-.839,1.12,1.12,0,0,1,.356-.83,1.167,1.167,0,0,1,1.65-.009l.009.009a1.177,1.177,0,0,1,.005,1.663l-.005.006A1.139,1.139,0,0,1,1263.355,2657.2Zm-1.04,8.417v-7.295h2.061v7.295Z" transform="translate(-1219.623 -2654.841)"/>
        <path id="Trazado_134186" data-name="Trazado 134186" d="M1271.584,2658.631h2.17l-3.119,7.295h-1.824l-3.082-7.295h2.161l1.824,5.006Z" transform="translate(-1219.937 -2655.175)"/>
        <path id="Trazado_134187" data-name="Trazado 134187" d="M1278.742,2666.089a4.708,4.708,0,0,1-2.07-.447,3.375,3.375,0,0,1-1.422-1.322,3.884,3.884,0,0,1-.52-2.042,3.651,3.651,0,0,1,1.112-2.736,4.641,4.641,0,0,1,5.808,0,4.049,4.049,0,0,1,0,5.571A4.123,4.123,0,0,1,1278.742,2666.089Zm0-1.632a1.888,1.888,0,0,0,1.45-.6,2.225,2.225,0,0,0,.547-1.577,2.268,2.268,0,0,0-.547-1.587,1.913,1.913,0,0,0-1.45-.593,1.821,1.821,0,0,0-1.413.6,2.581,2.581,0,0,0,0,3.155,1.824,1.824,0,0,0,1.4.6Z" transform="translate(-1220.73 -2655.166)"/>
      </g>
    </g>
  </g>
</svg>
