<svg xmlns="http://www.w3.org/2000/svg" width="393.978" height="290.593" viewBox="0 0 393.978 290.593">
  <g id="Grupo_63933" data-name="Grupo 63933" transform="translate(-186 -8805.346)">
    <g id="Image_Place_Holder" data-name="Image Place Holder" transform="translate(186 8829.245)" opacity="0.1">
      <rect id="Image_Place_Holder-2" data-name="Image Place Holder" width="393.978" height="266.693" rx="10" fill="#d44f4a"/>
    </g>
    <g id="humaaans_sitting-1" data-name="humaaans sitting-1" transform="translate(107.44 5823.428)">
      <g id="Grupo_63756" data-name="Grupo 63756">
        <g id="Grupo_63755" data-name="Grupo 63755">
          <rect id="Rectángulo_8091" data-name="Rectángulo 8091" width="188.18" height="188.18" transform="translate(179.38 2981.918)" fill="#b9d6d6"/>
          <g id="Grupo_63754" data-name="Grupo 63754">
            <g id="Grupo_63753" data-name="Grupo 63753">
              <g id="Grupo_63743" data-name="Grupo 63743">
                <g id="Grupo_63740" data-name="Grupo 63740">
                  <rect id="Rectángulo_8092" data-name="Rectángulo 8092" width="71.27" height="20.79" transform="translate(237.84 3093.598)" fill="#9cb4d8"/>
                  <path id="Trazado_134188" data-name="Trazado 134188" d="M227,3052.018h92.95v36.8a10.65,10.65,0,0,1-10.65,10.65H237.65a10.65,10.65,0,0,1-10.65-10.65v-36.8Z" fill="#6881ac"/>
                  <path id="Trazado_134189" data-name="Trazado 134189" d="M315.41,3045.308H231.53l-4.53,6.7h92.94Z" fill="#9cb4d8"/>
                  <g id="Grupo_63739" data-name="Grupo 63739">
                    <path id="Trazado_134190" data-name="Trazado 134190" d="M244.01,3212.138h58.92V3201H244.01Zm0-73.29v11.13h58.92v-11.13Zm0,26.67h58.92v-11.13H244.01Zm0,15.54h58.92v-11.13H244.01Zm0,15.54h58.92v-11.13H244.01Z" fill="#313444"/>
                    <path id="Trazado_134191" data-name="Trazado 134191" d="M310.99,3111.778h-75a9.69,9.69,0,0,0-9.69,9.69h0v69.31h10.89v-59.57h72.64v59.57h10.89v-69.31a9.69,9.69,0,0,0-9.69-9.69Z" fill="#6881ac"/>
                  </g>
                </g>
                <path id="Trazado_134192" data-name="Trazado 134192" d="M287.61,3073.638v18h3.4v-18Zm22.37,0h-3.4v18h3.4Zm-8.14,0v18h3.4v-18Zm-4.75,0v18h3.38v-18Zm-4.74,0v18h3.4v-18Z" fill="#313444"/>
                <g id="Grupo_63741" data-name="Grupo 63741">
                  <path id="Trazado_134193" data-name="Trazado 134193" d="M235.35,3055.958a2.1,2.1,0,0,0-1.78,3.77Z" fill="#313444"/>
                  <path id="Trazado_134194" data-name="Trazado 134194" d="M235.81,3056.168l-1.79,3.77a2.1,2.1,0,0,0,1.79-3.77Z" fill="#313444"/>
                </g>
                <g id="Grupo_63742" data-name="Grupo 63742">
                  <path id="Trazado_134195" data-name="Trazado 134195" d="M314.14,3055.958a2.1,2.1,0,0,0-1.78,3.76Z" fill="#313444"/>
                  <path id="Trazado_134196" data-name="Trazado 134196" d="M314.6,3056.168l-1.79,3.77a2.1,2.1,0,0,0,1.79-3.77Z" fill="#313444"/>
                </g>
              </g>
              <g id="Grupo_63748" data-name="Grupo 63748">
                <g id="Grupo_63745" data-name="Grupo 63745">
                  <g id="Grupo_63744" data-name="Grupo 63744">
                    <rect id="Rectángulo_8093" data-name="Rectángulo 8093" width="15.01" height="45.18" transform="translate(197.79 3071.918)" fill="#313444"/>
                    <path id="Trazado_134197" data-name="Trazado 134197" d="M219.35,3167.588l-6.55-23.66v-23.08h-15v20.48l-10.67,9.14-7.74,28.14,5.64,3.84a9,9,0,0,0,9.28-7.34l.61-3.26a7.15,7.15,0,0,1,13.73-1.18l.13.35a5.57,5.57,0,0,0,10.58-3.43Z" fill="#313444"/>
                    <path id="Trazado_134198" data-name="Trazado 134198" d="M216.08,3093.958H187.47v-6.56a28.61,28.61,0,0,1,28.61-28.61h0Z" fill="#9cb4d8"/>
                    <path id="Trazado_134199" data-name="Trazado 134199" d="M224.05,3055.038l-7.97,3.75v35.17h7.97Z" fill="#6881ac"/>
                  </g>
                  <rect id="Rectángulo_8094" data-name="Rectángulo 8094" width="5.63" height="20.4" transform="translate(190.73 3109.668)" fill="#9cb4d8"/>
                  <rect id="Rectángulo_8095" data-name="Rectángulo 8095" width="5.63" height="20.4" transform="translate(214.11 3109.668)" fill="#9cb4d8"/>
                </g>
                <g id="Grupo_63747" data-name="Grupo 63747">
                  <g id="Grupo_63746" data-name="Grupo 63746">
                    <rect id="Rectángulo_8096" data-name="Rectángulo 8096" width="15.01" height="45.18" transform="translate(334.15 3071.918)" fill="#313444"/>
                    <path id="Trazado_134200" data-name="Trazado 134200" d="M327.59,3167.588l6.55-23.66v-23.08h15v20.48l10.67,9.14,7.74,28.14-5.64,3.84a9,9,0,0,1-9.28-7.34l-.61-3.26a7.15,7.15,0,0,0-13.73-1.18l-.13.35a5.57,5.57,0,0,1-10.58-3.43Z" fill="#313444"/>
                    <path id="Trazado_134201" data-name="Trazado 134201" d="M330.86,3093.958h28.61v-6.56a28.61,28.61,0,0,0-28.61-28.61h0Z" fill="#9cb4d8"/>
                    <path id="Trazado_134202" data-name="Trazado 134202" d="M322.89,3055.038l7.97,3.75v35.17h-7.97Z" fill="#6881ac"/>
                  </g>
                  <rect id="Rectángulo_8097" data-name="Rectángulo 8097" width="5.63" height="20.4" transform="translate(350.58 3109.668)" fill="#9cb4d8"/>
                  <rect id="Rectángulo_8098" data-name="Rectángulo 8098" width="5.63" height="20.4" transform="translate(327.2 3109.668)" fill="#9cb4d8"/>
                </g>
              </g>
              <g id="Grupo_63752" data-name="Grupo 63752">
                <path id="Trazado_134203" data-name="Trazado 134203" d="M310.87,3017.628h-74.8c-5.57,0-10.08,11.44-10.08,17s4.51,3.16,10.08,3.16h14.34c.37,3.68,3.44-11.25,7.21-11.25h31.7c3.77,0,6.84,14.93,7.21,11.25h14.34c5.57,0,10.08,2.4,10.08-3.16S316.47,3017.628,310.87,3017.628Z" fill="#6881ac"/>
                <path id="Trazado_134204" data-name="Trazado 134204" d="M310.87,3025.728h-74.8a10.09,10.09,0,0,0,0,20.17h14.34c.37,3.68,3.44-11.25,7.21-11.25h31.7c3.77,0,6.84,14.93,7.21,11.25h14.34a10.09,10.09,0,0,0,0-20.17Z" fill="#313444"/>
                <g id="Grupo_63751" data-name="Grupo 63751">
                  <g id="Grupo_63749" data-name="Grupo 63749">
                    <circle id="Elipse_5342" data-name="Elipse 5342" cx="16.88" cy="16.88" r="16.88" transform="translate(235.65 3017.758)" fill="#313444"/>
                    <path id="Trazado_134205" data-name="Trazado 134205" d="M266.27,3034.638a13.74,13.74,0,1,1-13.74-13.74,13.74,13.74,0,0,1,13.74,13.74Z" fill="#3a5ce8"/>
                    <path id="Trazado_134206" data-name="Trazado 134206" d="M261.01,3034.638a8.485,8.485,0,1,1,0-.01Z" fill="#313444"/>
                    <path id="Trazado_134207" data-name="Trazado 134207" d="M250.84,3030.058a3.55,3.55,0,1,1-3.55-3.55h.01a3.531,3.531,0,0,1,3.54,3.52Z" fill="#fff"/>
                  </g>
                  <g id="Grupo_63750" data-name="Grupo 63750">
                    <circle id="Elipse_5343" data-name="Elipse 5343" cx="16.88" cy="16.88" r="16.88" transform="translate(277.53 3017.758)" fill="#313444"/>
                    <path id="Trazado_134208" data-name="Trazado 134208" d="M308.14,3034.638a13.74,13.74,0,1,1-13.74-13.74h.01a13.73,13.73,0,0,1,13.73,13.73Z" fill="#3a5ce8"/>
                    <path id="Trazado_134209" data-name="Trazado 134209" d="M302.89,3034.638a8.485,8.485,0,1,1,0-.01Z" fill="#313444"/>
                    <path id="Trazado_134210" data-name="Trazado 134210" d="M292.72,3030.058a3.55,3.55,0,1,1-3.55-3.55h.01a3.54,3.54,0,0,1,3.54,3.54Z" fill="#fff"/>
                  </g>
                </g>
              </g>
            </g>
            <path id="Trazado_134211" data-name="Trazado 134211" d="M339.98,3214.728c0,3.78-29.13,6.85-65.06,6.85s-65.07-3.11-65.07-6.85,29.13-6.85,65.07-6.85S339.98,3210.908,339.98,3214.728Z" opacity="0.1" style="isolation: isolate"/>
          </g>
        </g>
      </g>
    </g>
  </g>
</svg>
