<svg xmlns="http://www.w3.org/2000/svg" xmlns:xlink="http://www.w3.org/1999/xlink" width="160.198" height="150.249" viewBox="0 0 160.198 150.249">
  <defs>
    <linearGradient id="linear-gradient" x1="60.426" y1="163.829" x2="63.065" y2="165.324" gradientUnits="objectBoundingBox">
      <stop offset="0" stop-color="#d44f4a"/>
      <stop offset="1" stop-color="#e4c7a1"/>
    </linearGradient>
    <linearGradient id="linear-gradient-2" x1="54.175" y1="168.438" x2="56.593" y2="169.985" xlink:href="#linear-gradient"/>
    <linearGradient id="linear-gradient-3" x1="29.844" y1="574.446" x2="31.181" y2="579.651" xlink:href="#linear-gradient"/>
    <linearGradient id="linear-gradient-4" x1="32.868" y1="205.435" x2="34.324" y2="207.299" xlink:href="#linear-gradient"/>
    <linearGradient id="linear-gradient-5" x1="40.262" y1="165.289" x2="42.043" y2="166.804" xlink:href="#linear-gradient"/>
    <linearGradient id="linear-gradient-6" x1="28.247" y1="136.638" x2="29.53" y2="137.92" xlink:href="#linear-gradient"/>
  </defs>
  <g id="Grupo_63803" data-name="Grupo 63803" transform="translate(-869.199 -5419.551)">
    <g id="Grupo_63804" data-name="Grupo 63804">
      <path id="Trazado_134334" data-name="Trazado 134334" d="M876.3,5499.657c0-1.473.048-2.931.128-4.381l-7.088-.424q-.144,2.4-.144,4.805a79.762,79.762,0,0,0,37.3,67.716l3.8-6A72.7,72.7,0,0,1,876.3,5499.657Z" fill="url(#linear-gradient)"/>
      <path id="Trazado_134335" data-name="Trazado 134335" d="M1022.292,5499.657a73.059,73.059,0,0,1-37.751,63.92l3.437,6.223a80.17,80.17,0,0,0,41.419-70.143Z" fill="url(#linear-gradient-2)"/>
      <path id="Trazado_134336" data-name="Trazado 134336" d="M996.076,5434.617a80.178,80.178,0,0,0-81.165-7.321l3.06,6.408a73.066,73.066,0,0,1,73.955,6.688Z" fill="url(#linear-gradient-3)"/>
    </g>
    <g id="Grupo_63805" data-name="Grupo 63805">
      <path id="Trazado_134337" data-name="Trazado 134337" d="M959.943,5445.246l1.362-6.977a62.726,62.726,0,0,0-74.485,56.47l7.081.569a55.611,55.611,0,0,1,66.01-50.062Z" fill="url(#linear-gradient-4)"/>
      <path id="Trazado_134338" data-name="Trazado 134338" d="M1004.262,5491.792a55.635,55.635,0,0,1-53.194,63.494l.24,7.1a63.53,63.53,0,0,0,6.993-.625,62.7,62.7,0,0,0,52.993-70.984Z" fill="url(#linear-gradient-5)"/>
    </g>
    <circle id="Elipse_5350" data-name="Elipse 5350" cx="43.558" cy="43.558" r="43.558" transform="translate(905.74 5456.1)" fill="url(#linear-gradient-6)"/>
    <path id="Trazado_134339" data-name="Trazado 134339" d="M949.3,5547.661a48,48,0,1,1,48-48h0A48.06,48.06,0,0,1,949.3,5547.661Zm0-87.124a39.12,39.12,0,1,0,39.12,39.12h0A39.168,39.168,0,0,0,949.3,5460.537Z" fill="#e6e6e6"/>
    <g id="Grupo_63806" data-name="Grupo 63806">
      <path id="Trazado_134340" data-name="Trazado 134340" d="M936.121,5516.134q-6.463,0-9.66-4.39t-3.2-11.71q0-7.329,3.2-11.711t9.66-4.389q6.456,0,9.66,4.389t3.2,11.711q0,7.329-3.2,11.71T936.121,5516.134Zm-4.589-23.6a20.1,20.1,0,0,0,.008,15.05,5.109,5.109,0,0,0,9.171,0,19.946,19.946,0,0,0,0-15.05,5.11,5.11,0,0,0-9.171,0Z" fill="#fff"/>
      <path id="Trazado_134341" data-name="Trazado 134341" d="M972.23,5484.647v6.039H959.943v5.207a11.383,11.383,0,0,1,3.156-.4,11.707,11.707,0,0,1,7.753,2.716,9.058,9.058,0,0,1,3.244,7.329,9.755,9.755,0,0,1-3.356,7.609,12.013,12.013,0,0,1-8.306,3.012,13.619,13.619,0,0,1-10.549-4.678l3.644-5.078c.273.272.625.593,1.074.985a14.8,14.8,0,0,0,2.451,1.53,7.423,7.423,0,0,0,3.556.961,5.035,5.035,0,0,0,3.164-1.073,3.743,3.743,0,0,0,1.378-3.156,3.808,3.808,0,0,0-1.49-3.2,6.148,6.148,0,0,0-3.853-1.137,11.841,11.841,0,0,0-5.479,1.69l-2.891-3.116v-15.219Z" fill="#fff"/>
    </g>
  </g>
</svg>
