<svg xmlns="http://www.w3.org/2000/svg" xmlns:xlink="http://www.w3.org/1999/xlink" width="160.198" height="150.249" viewBox="0 0 160.198 150.249">
  <defs>
    <linearGradient id="linear-gradient" x1="60.425" y1="163.829" x2="63.063" y2="165.324" gradientUnits="objectBoundingBox">
      <stop offset="0" stop-color="#d44f4a"/>
      <stop offset="1" stop-color="#e4c7a1"/>
    </linearGradient>
    <linearGradient id="linear-gradient-2" x1="54.176" y1="168.438" x2="56.595" y2="169.985" xlink:href="#linear-gradient"/>
    <linearGradient id="linear-gradient-3" x1="29.844" y1="574.446" x2="31.181" y2="579.651" xlink:href="#linear-gradient"/>
    <linearGradient id="linear-gradient-4" x1="32.868" y1="205.435" x2="34.325" y2="207.299" xlink:href="#linear-gradient"/>
    <linearGradient id="linear-gradient-5" x1="40.261" y1="165.289" x2="42.043" y2="166.804" xlink:href="#linear-gradient"/>
    <linearGradient id="linear-gradient-6" x1="28.247" y1="136.638" x2="29.53" y2="137.92" xlink:href="#linear-gradient"/>
  </defs>
  <g id="Grupo_63799" data-name="Grupo 63799" transform="translate(-684.311 -5419.551)">
    <g id="Grupo_63800" data-name="Grupo 63800">
      <path id="Trazado_134326" data-name="Trazado 134326" d="M691.416,5499.657c0-1.473.048-2.931.128-4.381l-7.089-.424q-.144,2.4-.144,4.805a79.762,79.762,0,0,0,37.3,67.716l3.805-6A72.7,72.7,0,0,1,691.416,5499.657Z" fill="url(#linear-gradient)"/>
      <path id="Trazado_134327" data-name="Trazado 134327" d="M837.4,5499.657a73.06,73.06,0,0,1-37.75,63.92l3.436,6.223a80.17,80.17,0,0,0,41.419-70.143Z" fill="url(#linear-gradient-2)"/>
      <path id="Trazado_134328" data-name="Trazado 134328" d="M811.188,5434.617a80.178,80.178,0,0,0-81.165-7.321l3.06,6.408a73.067,73.067,0,0,1,73.956,6.688Z" fill="url(#linear-gradient-3)"/>
    </g>
    <g id="Grupo_63801" data-name="Grupo 63801">
      <path id="Trazado_134329" data-name="Trazado 134329" d="M775.055,5445.246l1.362-6.977a62.727,62.727,0,0,0-74.484,56.47l7.08.569a55.611,55.611,0,0,1,66.01-50.062Z" fill="url(#linear-gradient-4)"/>
      <path id="Trazado_134330" data-name="Trazado 134330" d="M819.374,5491.792a55.635,55.635,0,0,1-53.194,63.494l.24,7.1a63.53,63.53,0,0,0,6.993-.625,62.7,62.7,0,0,0,52.994-70.984Z" fill="url(#linear-gradient-5)"/>
    </g>
    <circle id="Elipse_5349" data-name="Elipse 5349" cx="43.558" cy="43.558" r="43.558" transform="translate(720.851 5456.098)" fill="url(#linear-gradient-6)"/>
    <path id="Trazado_134331" data-name="Trazado 134331" d="M764.41,5547.661a48,48,0,1,1,48-48h0A48.06,48.06,0,0,1,764.41,5547.661Zm0-87.124a39.12,39.12,0,1,0,39.12,39.12h0A39.168,39.168,0,0,0,764.41,5460.537Z" fill="#e6e6e6"/>
    <g id="Grupo_63802" data-name="Grupo 63802">
      <path id="Trazado_134332" data-name="Trazado 134332" d="M751.41,5516.134q-6.448,0-9.66-4.39t-3.2-11.71q0-7.329,3.2-11.711t9.66-4.389q6.456,0,9.66,4.389t3.2,11.711q0,7.329-3.2,11.71T751.41,5516.134Zm-4.622-23.6a20.047,20.047,0,0,0,0,15.05,5.118,5.118,0,0,0,9.179,0,20.047,20.047,0,0,0,0-15.05,5.118,5.118,0,0,0-9.179,0Z" fill="#fff"/>
      <path id="Trazado_134333" data-name="Trazado 134333" d="M779.108,5502.325v-5.431h6.672v5.431H789.3v5.983H785.78v7.433h-6.672v-7.433H766.589v-5.3l11.093-18.423h7.554l-10.557,17.678Z" fill="#fff"/>
    </g>
  </g>
</svg>
