<svg xmlns="http://www.w3.org/2000/svg" width="169.674" height="169.674" viewBox="0 0 169.674 169.674">
  <g id="Grupo_63931" data-name="Grupo 63931" transform="translate(-700.711 -2560.386)">
    <g id="Icon" transform="translate(700.711 2560.386)">
      <circle id="Base" cx="84.837" cy="84.837" r="84.837" fill="#fff"/>
    </g>
    <g id="Grupo_63572" data-name="Grupo 63572" transform="translate(722.455 2581.69)">
      <g id="Grupo_63571" data-name="Grupo 63571">
        <path id="Trazado_132934" data-name="Trazado 132934" d="M710.255,240.786l-6.738-6.016-13.727,5.275-1.867,7.708-7.179,32.565,23.31,10.155,2.893-3.734a62.149,62.149,0,0,0,3.308-45.952Z" transform="translate(-587.324 -194.676)" fill="#fe7d43"/>
        <g id="Grupo_63570" data-name="Grupo 63570" transform="translate(2.232 3.009)">
          <g id="Grupo_63569" data-name="Grupo 63569">
            <g id="Grupo_63568" data-name="Grupo 63568">
              <path id="Trazado_132935" data-name="Trazado 132935" d="M688.529,272.375l-8.18,3.951-21.032,14.815,9.374,20.914,6.692,1.658v0a62.059,62.059,0,0,0,33.922-31.14Z" transform="translate(-591.831 -193.693)" fill="#ee6161"/>
              <path id="Trazado_132936" data-name="Trazado 132936" d="M670.816,290.569l-4.462-3.128-26.668-4.05-12.813,20.584,5.9,7.428v0a62.161,62.161,0,0,0,46.057,1.139v0Z" transform="translate(-595.275 -192.524)" fill="#c2a1d5"/>
              <path id="Trazado_132937" data-name="Trazado 132937" d="M643.472,285.15l-14.822-23.285-25.864,8v11.2a62.16,62.16,0,0,0,32.542,32.62v0l9.372-21.432Z" transform="translate(-597.832 -194.809)" fill="#8ac9fe"/>
              <path id="Trazado_132938" data-name="Trazado 132938" d="M609.258,230.554l-7.022,7.782h0a62.168,62.168,0,0,0,1.028,46.059h0l21.576-9.036,2.821-6.48,1.694-31.873Z" transform="translate(-598.307 -198.133)" fill="#75cdd5"/>
              <path id="Trazado_132939" data-name="Trazado 132939" d="M645.384,206.816H632.906a62.142,62.142,0,0,0-31.05,34.04h0l21.848,8.353,14.284-7.232,18.891-16.993Z" transform="translate(-597.93 -200.653)" fill="#6cf5c2"/>
              <path id="Trazado_132940" data-name="Trazado 132940" d="M689.112,247l-1.144-5.088-14.1,3.575-.76,6.509a21.847,21.847,0,0,1-.968,16.183l.305,5.193,9.214,4.9,5.511-2.661A38.662,38.662,0,0,0,689.112,247Z" transform="translate(-590.47 -196.927)" fill="#fd6930"/>
              <path id="Trazado_132941" data-name="Trazado 132941" d="M673.47,265.654A21.863,21.863,0,0,1,661.6,276.7l-2.011,3.783,4.192,10.737,3.563,1.234A38.662,38.662,0,0,0,688.5,273.089Z" transform="translate(-591.802 -194.407)" fill="#e94444"/>
              <path id="Trazado_132942" data-name="Trazado 132942" d="M663.886,275.657a21.842,21.842,0,0,1-16.21-.207l-4.4.477L638.044,286.6l2.912,4.219a38.679,38.679,0,0,0,28.674.6Z" transform="translate(-594.089 -193.367)" fill="#a274bf"/>
              <path id="Trazado_132943" data-name="Trazado 132943" d="M637.758,265.44l-3.441-2.489-11.233,3.893-.792,5.076a38.679,38.679,0,0,0,20.337,20.222l6.72-15.364a21.859,21.859,0,0,1-11.59-11.337Z" transform="translate(-595.761 -194.694)" fill="#26a6fe"/>
              <path id="Trazado_132944" data-name="Trazado 132944" d="M686.6,208.817a62.06,62.06,0,0,0-56.672-1.409l10.046,21.13,9.98,4.475,31.4,5.316,9.137-19.389Z" transform="translate(-594.951 -201.244)" fill="#fee97d"/>
            </g>
          </g>
        </g>
        <path id="Trazado_132945" data-name="Trazado 132945" d="M720.7,239.66a1.679,1.679,0,0,1-1.089,2.149l-8.452,2.637-16.008,5A45.3,45.3,0,0,0,673.7,223.577l8.133-14.66,4.3-7.759a1.677,1.677,0,0,1,2.309-.638A72.719,72.719,0,0,1,720.7,239.66Z" transform="translate(-588.072 -198.336)" fill="#fec165"/>
        <path id="Trazado_132946" data-name="Trazado 132946" d="M636.211,258.83a21.7,21.7,0,0,1,1.292-7.406l-.192-9.087h-9.348l-6.124,3.1a38.689,38.689,0,0,0,.755,28.67l15.466-6.48a21.7,21.7,0,0,1-1.849-8.8Z" transform="translate(-593.831 -193.873)" fill="#2abcc8"/>
        <path id="Trazado_132947" data-name="Trazado 132947" d="M648.68,228.447l-7.826-2.529a38.654,38.654,0,0,0-19.246,21.262l15.664,5.987a21.865,21.865,0,0,1,10.782-12.106v0l3.588-4.041Z" transform="translate(-593.601 -195.616)" fill="#00f2a6"/>
        <path id="Trazado_132948" data-name="Trazado 132948" d="M674.289,227.023h0a38.617,38.617,0,0,0-35.278-.73l7.2,15.143a21.816,21.816,0,0,1,19.945.252l5.487.27,5.368-7.157Z" transform="translate(-591.754 -195.991)" fill="#fedf30"/>
        <path id="Trazado_132949" data-name="Trazado 132949" d="M696.239,247.207l-6.323,1.972-15.89,5a22.1,22.1,0,0,0-10.56-12.423l8.109-14.618,3.211-5.791a45.3,45.3,0,0,1,21.453,25.864Z" transform="translate(-589.158 -196.101)" fill="#fdb441"/>
        <path id="Trazado_132950" data-name="Trazado 132950" d="M730.61,239.209a74.582,74.582,0,0,0-33.124-40.194,3.637,3.637,0,0,0-5,1.383l-3.375,6.083a63.91,63.91,0,1,0-28.916,120.9,63.27,63.27,0,0,0,39.3-13.516,1.956,1.956,0,0,0-2.408-3.083,59.98,59.98,0,0,1-14.133,8.234l-6.689-18.349a40.777,40.777,0,0,0,19.525-17.853l17.486,8.649a60.166,60.166,0,0,1-10.164,13.921,1.957,1.957,0,1,0,2.8,2.734,63.955,63.955,0,0,0,15.735-62.2l6.606-2.062a3.637,3.637,0,0,0,2.355-4.655Zm-43.4-29.3-9.461,17.054a40.588,40.588,0,0,0-33.546-.719l-8.375-17.615a60.215,60.215,0,0,1,51.382,1.281Zm9.589,53.575a36.408,36.408,0,0,1-2.816,14.077l-11.555-5.715a23.759,23.759,0,0,0,.856-13.945l12.284-3.833A36.668,36.668,0,0,1,696.8,263.481Zm-36.606,23.756a23.724,23.724,0,0,0,6.665-.952l4.407,12.09a36.624,36.624,0,0,1-23.543-.476l5.166-11.813A23.748,23.748,0,0,0,660.194,287.236Zm0-3.912a19.76,19.76,0,0,1-10.979-3.314,1.956,1.956,0,1,0-2.168,3.257,23.946,23.946,0,0,0,2.229,1.314l-5.154,11.784a36.846,36.846,0,0,1-16.7-16.591l11.886-4.98a23.758,23.758,0,0,0,1.238,2.038,1.956,1.956,0,0,0,3.234-2.2,19.843,19.843,0,1,1,16.416,8.7Zm-36.607-19.843a36.613,36.613,0,0,1,1.633-10.839l12.049,4.606a23.824,23.824,0,0,0,.458,13.965l-11.866,4.971A36.45,36.45,0,0,1,623.587,263.481Zm36.607-23.756a23.616,23.616,0,0,0-8.779,1.682l-5.53-11.631a36.693,36.693,0,0,1,29.963.609l-6.256,11.279a23.629,23.629,0,0,0-9.4-1.94Zm21.86,14.457a23.91,23.91,0,0,0-9.011-10.673l9.464-17.059A43.048,43.048,0,0,1,700.7,248.364Zm-64.281-33.122a60.17,60.17,0,0,1,14.536-10.726l8.378,17.624A40.648,40.648,0,0,0,632.4,234a1.956,1.956,0,1,0,2.684,2.847,36.691,36.691,0,0,1,7.287-5.346l5.54,11.653a23.915,23.915,0,0,0-9.3,10.417l-12.031-4.6a36.438,36.438,0,0,1,3.32-6.038,1.957,1.957,0,0,0-3.237-2.2,40.409,40.409,0,0,0-3.739,6.842L604.7,240.607a59.9,59.9,0,0,1,13.074-19.546Zm-14.442,23.213,18.229,6.969a40.573,40.573,0,0,0,.69,26.454l-18,7.54a60.474,60.474,0,0,1-.921-40.962Zm2.459,44.56,18.014-7.546a40.786,40.786,0,0,0,18.749,18.666l-7.82,17.881a60.487,60.487,0,0,1-28.943-29Zm73.5,31.552a60.508,60.508,0,0,1-40.962-1.008l7.823-17.888a40.53,40.53,0,0,0,26.455.562Zm-4.365-23.4-4.416-12.111a23.918,23.918,0,0,0,10.24-9.5l11.533,5.7a36.842,36.842,0,0,1-17.357,15.906Zm45.259-33.508a59.823,59.823,0,0,1-5.195,24.468L697.5,279.3a40.575,40.575,0,0,0,1.813-26.4l18.6-5.805A59.989,59.989,0,0,1,720.185,263.481ZM704.44,247.2a46.942,46.942,0,0,0-20.035-24.169l11.365-20.485a70.657,70.657,0,0,1,31.046,37.672Z" transform="translate(-596.289 -198.524)" fill="#5b3b3b"/>
      </g>
    </g>
  </g>
</svg>
