<svg xmlns="http://www.w3.org/2000/svg" width="169.674" height="169.674" viewBox="0 0 169.674 169.674">
  <g id="Grupo_63930" data-name="Grupo 63930" transform="translate(-271.146 -2560.386)">
    <g id="Icon" transform="translate(271.146 2560.386)">
      <circle id="Base" cx="84.837" cy="84.837" r="84.837" transform="translate(0)" fill="#fff"/>
    </g>
    <g id="Grupo_63567" data-name="Grupo 63567" transform="translate(320.813 2584.262)">
      <g id="Grupo_63566" data-name="Grupo 63566" transform="translate(0)">
        <g id="Grupo_63554" data-name="Grupo 63554" transform="translate(16.131 35.418)">
          <g id="Grupo_63553" data-name="Grupo 63553">
            <g id="Grupo_63552" data-name="Grupo 63552">
              <path id="Trazado_132915" data-name="Trazado 132915" d="M282.336,266.125l-11.356-.734-23.206,19.892L267.183,310.8l24.283-21.854,3.214-7.915Z" transform="translate(-247.774 -229.415)" fill="#01d0fb"/>
              <path id="Trazado_132916" data-name="Trazado 132916" d="M291.21,256.972l-8.895-2.091-13.563,11.626,20.486,23.554L302.972,277.7l1.153-6.45Z" transform="translate(-245.547 -230.53)" fill="#62dbfb"/>
              <path id="Trazado_132917" data-name="Trazado 132917" d="M306.112,244.461l-11.081-.441-14.016,12.014,20.656,22.821,13.785-12.407,3.817-7.68Z" transform="translate(-244.245 -231.683)" fill="#99e6fc"/>
              <path id="Trazado_132918" data-name="Trazado 132918" d="M321.927,248.745a8.8,8.8,0,0,1-.625,12.418l-7.192,6.47L293.685,245.2l14.393-12.337,6.217,7.439Z" transform="translate(-242.9 -232.867)" fill="#c8effe"/>
            </g>
          </g>
        </g>
        <path id="Trazado_132919" data-name="Trazado 132919" d="M273.992,254.9l-11.675,4.011-22.746,36.644,31.675,12.964,20.8-30.069,1.161-11.21Z" transform="translate(-232.514 -195.11)" fill="#05e39c"/>
        <g id="Grupo_63557" data-name="Grupo 63557" transform="translate(29.803 13.822)">
          <g id="Grupo_63556" data-name="Grupo 63556">
            <g id="Grupo_63555" data-name="Grupo 63555">
              <path id="Trazado_132920" data-name="Trazado 132920" d="M284.328,240.745l-13.349,2.2-10.845,17.472,29.725,19.539,11.063-16,1.378-10.9Z" transform="translate(-260.134 -210.435)" fill="#00f2a6"/>
              <path id="Trazado_132921" data-name="Trazado 132921" d="M310.678,240.4l-20.7-13.292-10,1.091-10.045,16.186L299.88,265.4l11.409-16.5Z" transform="translate(-259.093 -211.883)" fill="#6cf5c2"/>
              <path id="Trazado_132922" data-name="Trazado 132922" d="M314.01,229.586a8.792,8.792,0,0,1,2.229,12.231l-5.913,8.548-31.306-20.7,10.131-16.319,14.335,8.962Z" transform="translate(-258.129 -213.344)" fill="#9cf8d2"/>
            </g>
          </g>
        </g>
        <g id="Grupo_63564" data-name="Grupo 63564" transform="translate(1.817 1.817)">
          <path id="Trazado_132923" data-name="Trazado 132923" d="M252.57,249.316l-16.241,40.23a20.275,20.275,0,1,0,37.6,15.18l16.059-39.779Z" transform="translate(-234.832 -197.52)" fill="#fed402"/>
          <g id="Grupo_63559" data-name="Grupo 63559" transform="translate(16.826 2.177)">
            <g id="Grupo_63558" data-name="Grupo 63558">
              <path id="Trazado_132924" data-name="Trazado 132924" d="M294.009,247.081l-27.634-12.929-8.232,2.49-8.1,19.516,36.755,14.3,7.639-18.951Z" transform="translate(-250.045 -201.307)" fill="#fee45a"/>
              <path id="Trazado_132925" data-name="Trazado 132925" d="M300.558,226.827l-29.415-9.43-6.109,2.774-7.582,18.279,36.213,14.833,7.7-19.083Z" transform="translate(-249.259 -203.086)" fill="#fee97d"/>
              <path id="Trazado_132926" data-name="Trazado 132926" d="M299.942,213.591a8.793,8.793,0,0,1,4.91,11.423l-4.21,10.559-36.335-14.03,6.582-15.863a8.776,8.776,0,0,1,7.72-.594Z" transform="translate(-248.531 -204.459)" fill="#fef0ae"/>
            </g>
          </g>
          <g id="Grupo_63560" data-name="Grupo 63560">
            <path id="Trazado_132927" data-name="Trazado 132927" d="M234.834,283.986v-72.7a8.79,8.79,0,0,1,8.791-8.791h22.967a8.79,8.79,0,0,1,8.793,8.791V302.3a20.275,20.275,0,1,1-40.55,0Z" transform="translate(-234.834 -202.491)" fill="#f9f7f8"/>
          </g>
          <g id="Grupo_63563" data-name="Grupo 63563">
            <g id="Grupo_63562" data-name="Grupo 63562">
              <g id="Grupo_63561" data-name="Grupo 63561">
                <path id="Trazado_132928" data-name="Trazado 132928" d="M275.384,211.282v11.25h-40.55v-11.25a8.79,8.79,0,0,1,8.791-8.791h22.967a8.79,8.79,0,0,1,8.793,8.791Z" transform="translate(-234.834 -202.491)" fill="#f9b1b1"/>
                <path id="Trazado_132929" data-name="Trazado 132929" d="M234.834,220.608h40.55v20.485h-40.55Z" transform="translate(-234.834 -200.568)" fill="#f79595"/>
                <path id="Trazado_132930" data-name="Trazado 132930" d="M234.834,239.127h40.55v20.484h-40.55Z" transform="translate(-234.834 -198.602)" fill="#f47c7c"/>
                <path id="Trazado_132931" data-name="Trazado 132931" d="M234.834,257.645h40.55v20.486h-40.55Z" transform="translate(-234.834 -196.636)" fill="#ee6161"/>
              </g>
            </g>
          </g>
        </g>
        <circle id="Elipse_5340" data-name="Elipse 5340" cx="6.895" cy="6.895" r="6.895" transform="translate(14.785 94.799)" fill="#e5e1e5"/>
        <g id="Grupo_63565" data-name="Grupo 63565">
          <path id="Trazado_132932" data-name="Trazado 132932" d="M329.7,250.925l-6.687-7.4a10.6,10.6,0,0,0-3.1-14.112l-9.647-6.671a10.627,10.627,0,0,0-6.677-10.261l-21.334-8.506a10.521,10.521,0,0,0-7.932.035,10.571,10.571,0,0,0-7.551-3.166H243.8a10.62,10.62,0,0,0-10.608,10.607v91.022a22.08,22.08,0,0,0,36.59,16.653,1.794,1.794,0,0,0,.163-.128L311.3,281.78a1.817,1.817,0,0,0-2.431-2.7l-1.7,1.534-5.536-6.124,8.692-12.567,7.9,8.739-3.6,3.237a1.817,1.817,0,1,0,2.431,2.7l11.878-10.69a10.609,10.609,0,0,0,.754-14.983Zm-8.96-14.034a6.929,6.929,0,0,1-1.125,5.218l-4.933,7.134-11.231-7.767,5.946-14.913,8.45,5.844a6.929,6.929,0,0,1,2.894,4.485ZM303.467,265.45l-7.51-5.193,6.108-15.318,10.544,7.292Zm-11.21,16.208-3.789-2.619,6.108-15.319,6.823,4.719Zm2.8-28.946-5.265-2.1a1.817,1.817,0,1,0-1.345,3.375l5.265,2.1-6.241,15.652-10.094-4.024V249.574l3.846,1.533a1.8,1.8,0,0,0,.671.131,1.818,1.818,0,0,0,.674-3.505l-5.191-2.07V227.522l23.921,9.537Zm-21.312-11.339h-20.58a1.817,1.817,0,0,0,0,3.634h20.58v16.851H236.825V245.007h8.595a1.817,1.817,0,0,0,0-3.634h-8.595V224.522H273.74v16.851Zm-36.917,24.119H273.74v16.851H236.825Zm40.549,6.136,8.747,3.488-8.747,21.937ZM288.7,293.2l2.014,2.228-9.417,8.474Zm-7.851,4.964,6.244-15.661,3.1,2.146Zm.061-90.809,21.334,8.506a6.984,6.984,0,0,1,4.333,7.4c0,.014,0,.029-.008.043a7.007,7.007,0,0,1-.43,1.617l-3.494,8.763L277.374,223.61V211.455a10.545,10.545,0,0,0-.93-4.337,6.918,6.918,0,0,1,4.461.236ZM243.8,204.481h22.968a6.983,6.983,0,0,1,6.974,6.974v9.434H236.825v-9.434A6.983,6.983,0,0,1,243.8,204.481Zm-6.974,98v-16.5H273.74v16.5a18.458,18.458,0,0,1-36.916,0Zm67.643-19.434-11.057,9.952-2.593-2.868,8.692-12.567Zm24.324-24.654a6.927,6.927,0,0,1-2.285,4.821l-5.579,5.021-8.48-9.379,8.458-12.23,6.094,6.74a6.928,6.928,0,0,1,1.793,5.027Z" transform="translate(-233.191 -200.848)" fill="#5b3b3b"/>
          <path id="Trazado_132933" data-name="Trazado 132933" d="M253.627,284.907a8.713,8.713,0,1,0,8.712,8.713A8.723,8.723,0,0,0,253.627,284.907Zm0,13.791a5.079,5.079,0,1,1,5.078-5.078A5.085,5.085,0,0,1,253.627,298.7Z" transform="translate(-231.946 -191.925)" fill="#5b3b3b"/>
        </g>
      </g>
    </g>
  </g>
</svg>
