<svg xmlns="http://www.w3.org/2000/svg" width="294.581" height="374.339" viewBox="0 0 294.581 374.339">
  <g id="Grupo_63643" data-name="Grupo 63643" transform="translate(-360.057 -1170.532)">
    <rect id="Rect치ngulo_7985" data-name="Rect치ngulo 7985" width="294.581" height="374.339" rx="20.609" transform="translate(360.057 1170.532)" fill="#f2f2f2"/>
    <g id="Grupo_63642" data-name="Grupo 63642" transform="translate(379.147 1221.011)">
      <rect id="Rect치ngulo_7986" data-name="Rect치ngulo 7986" width="256.401" height="273.38" fill="#f2f2f2"/>
      <g id="Grupo_63637" data-name="Grupo 63637" transform="translate(30.028 49.046)">
        <path id="Trazado_133317" data-name="Trazado 133317" d="M433.018,1305.993l-1.774-5.032H421l-1.774,5.032h-5.187l8.981-24.4h6.2l8.981,24.4Zm-10.537-9.263h7.279l-3.64-10.355Z" transform="translate(-414.037 -1280.06)"/>
        <path id="Trazado_133318" data-name="Trazado 133318" d="M456.388,1289.338l-7.634,13.649h7.4v3.7h-14.3l7.6-13.649h-7.006v-3.7Z" transform="translate(-416.542 -1280.757)"/>
        <path id="Trazado_133319" data-name="Trazado 133319" d="M472.942,1289.338H477.8v17.352h-4.6l-.127-2.093a6.627,6.627,0,0,1-5.523,2.429,6.792,6.792,0,0,1-4.8-1.556,5.825,5.825,0,0,1-1.665-4.45v-11.683h4.877v10.619a3.014,3.014,0,0,0,.864,2.375,3.308,3.308,0,0,0,2.257.764,3.868,3.868,0,0,0,2.73-.992,4.2,4.2,0,0,0,1.092-3.212Z" transform="translate(-418.273 -1280.757)"/>
        <path id="Trazado_133320" data-name="Trazado 133320" d="M484.987,1305.841v-25.933H489.9v25.933Z" transform="translate(-420.427 -1279.908)"/>
      </g>
      <g id="Grupo_63638" data-name="Grupo 63638" transform="translate(34.314 136.691)">
        <path id="Trazado_133321" data-name="Trazado 133321" d="M423.873,1387.36a5.425,5.425,0,0,1-1.975-.355,5.118,5.118,0,0,1-1.583-1.01,4.607,4.607,0,0,1-1.046-1.629,5.842,5.842,0,0,1-.382-2.156,5.76,5.76,0,0,1,.382-2.138,4.546,4.546,0,0,1,2.63-2.639,5.382,5.382,0,0,1,1.975-.355,5.033,5.033,0,0,1,2.657.71,4.384,4.384,0,0,1,1.793,1.956l-1.174.482a3.373,3.373,0,0,0-1.31-1.428,3.74,3.74,0,0,0-1.938-.5,4.047,4.047,0,0,0-1.465.264,3.447,3.447,0,0,0-1.174.755,3.35,3.35,0,0,0-.792,1.238,4.548,4.548,0,0,0-.291,1.656,4.655,4.655,0,0,0,.291,1.674,3.364,3.364,0,0,0,.792,1.237,3.473,3.473,0,0,0,1.174.755,3.9,3.9,0,0,0,1.465.264,3.748,3.748,0,0,0,1.938-.5,3.308,3.308,0,0,0,1.31-1.42l1.174.482a4.374,4.374,0,0,1-1.82,1.956A5.153,5.153,0,0,1,423.873,1387.36Z" transform="translate(-418.76 -1376.305)"/>
        <path id="Trazado_133322" data-name="Trazado 133322" d="M434.155,1387.659a3.645,3.645,0,0,1-1.82-.437,3.08,3.08,0,0,1-1.265-1.265,3.907,3.907,0,0,1-.464-1.929,3.559,3.559,0,0,1,.992-2.639,3.721,3.721,0,0,1,5.059,0,4.022,4.022,0,0,1,0,5.278A3.4,3.4,0,0,1,434.155,1387.659Zm0-1.019a2.187,2.187,0,0,0,1.656-.719,2.732,2.732,0,0,0,.655-1.893,2.662,2.662,0,0,0-.655-1.884,2.147,2.147,0,0,0-1.656-.719,2.107,2.107,0,0,0-1.638.719,2.662,2.662,0,0,0-.655,1.884,2.732,2.732,0,0,0,.655,1.893,2.151,2.151,0,0,0,1.629.719Z" transform="translate(-419.815 -1376.604)"/>
        <path id="Trazado_133323" data-name="Trazado 133323" d="M443.79,1380.4a2.444,2.444,0,0,1,1.756.637,2.365,2.365,0,0,1,.655,1.82v4.7h-1.228v-4.431a1.668,1.668,0,0,0-.428-1.247,1.5,1.5,0,0,0-1.092-.409,1.7,1.7,0,0,0-1.247.482,1.993,1.993,0,0,0-.491,1.429v4.177h-1.228v-6.988h1.228v.91A2.327,2.327,0,0,1,443.79,1380.4Z" transform="translate(-420.705 -1376.603)"/>
        <path id="Trazado_133324" data-name="Trazado 133324" d="M449.64,1378.7a4.31,4.31,0,0,1,.073-.81,3.07,3.07,0,0,1,.2-.619,1.453,1.453,0,0,1,.328-.446,2.594,2.594,0,0,1,.437-.3,1.929,1.929,0,0,1,.528-.173,4.522,4.522,0,0,1,.6-.091h.682v1.028h-.528a1.2,1.2,0,0,0-.255,0,1.164,1.164,0,0,0-.218.073.5.5,0,0,0-.209.118l-.164.182a.63.63,0,0,0-.136.255,1.59,1.59,0,0,0-.082.346,2.906,2.906,0,0,0,0,.437v1.438h1.629v.983H450.9v6.005h-1.219v-6.005h-1.419v-.983H449.6Zm4.9-.173a.837.837,0,0,1-.837-.837h0a.79.79,0,0,1,.246-.582.836.836,0,0,1,.591-.237.807.807,0,0,1,.573.237.789.789,0,0,1,.246.582.813.813,0,0,1-.246.591.786.786,0,0,1-.573.246Zm-.628,8.626v-6.988h1.237v6.988Z" transform="translate(-421.405 -1376.231)"/>
        <path id="Trazado_133325" data-name="Trazado 133325" d="M460.136,1387.662a2.389,2.389,0,0,1-1.529-.482,1.713,1.713,0,0,1-.6-1.429,2.064,2.064,0,0,1,.191-.91,1.617,1.617,0,0,1,.564-.628,3.27,3.27,0,0,1,.828-.4,8.42,8.42,0,0,1,1.056-.255l1.137-.182c.409-.073.619-.291.619-.646a1.192,1.192,0,0,0-.446-1.037,1.725,1.725,0,0,0-1.1-.337,1.816,1.816,0,0,0-1.092.318,1.318,1.318,0,0,0-.519.983l-1.11-.237a2.118,2.118,0,0,1,.91-1.492,3.219,3.219,0,0,1,1.9-.5,3.61,3.61,0,0,1,1.019.127,2.705,2.705,0,0,1,.846.391,1.763,1.763,0,0,1,.6.746,2.809,2.809,0,0,1,.218,1.156v2.884a1.248,1.248,0,0,0,.155.728.692.692,0,0,0,.555.191h.109v.91h-.61a1.156,1.156,0,0,1-1.319-.91h-.055A2.732,2.732,0,0,1,460.136,1387.662Zm.282-.992a1.824,1.824,0,0,0,1.5-.682,2.733,2.733,0,0,0,.573-1.82l-1.82.355a2.475,2.475,0,0,0-1.092.391,1.027,1.027,0,0,0-.009,1.529A1.4,1.4,0,0,0,460.418,1386.67Z" transform="translate(-422.283 -1376.606)"/>
        <path id="Trazado_133326" data-name="Trazado 133326" d="M470.663,1380.022a3.035,3.035,0,0,1,2.311,1.01,3.7,3.7,0,0,1,.91,2.63,3.748,3.748,0,0,1-.91,2.63,3.047,3.047,0,0,1-2.32,1.01,2.817,2.817,0,0,1-1.492-.41,2.579,2.579,0,0,1-.992-1.1v1.356h-1.183v-10.919h1.156v5.26a2.578,2.578,0,0,1,1-1.074A2.788,2.788,0,0,1,470.663,1380.022Zm-.273,6.206a2.142,2.142,0,0,0,1.638-.71,2.939,2.939,0,0,0,0-3.722,2.139,2.139,0,0,0-1.638-.71,2.1,2.1,0,0,0-1.62.737,2.9,2.9,0,0,0,0,3.64A2.112,2.112,0,0,0,470.39,1386.228Z" transform="translate(-423.092 -1376.228)"/>
        <path id="Trazado_133327" data-name="Trazado 133327" d="M476.727,1387.147v-10.919h1.247v10.919Z" transform="translate(-423.969 -1376.228)"/>
        <path id="Trazado_133328" data-name="Trazado 133328" d="M486.9,1383.892v.337h-5.46a2.449,2.449,0,0,0,.673,1.82,2.188,2.188,0,0,0,1.592.628,2.135,2.135,0,0,0,1.156-.337,2.289,2.289,0,0,0,.8-.91l1.11.236a3.17,3.17,0,0,1-1.2,1.5,3.278,3.278,0,0,1-1.82.546,3.383,3.383,0,0,1-2.593-1.028,4.141,4.141,0,0,1,0-5.314,3.358,3.358,0,0,1,2.475-.974,3.154,3.154,0,0,1,2.357.91A3.529,3.529,0,0,1,486.9,1383.892Zm-3.239-2.548a2.131,2.131,0,0,0-1.447.5,2.265,2.265,0,0,0-.737,1.438h4.231a2.08,2.08,0,0,0-.61-1.438A1.961,1.961,0,0,0,483.664,1381.344Z" transform="translate(-424.282 -1376.603)"/>
        <path id="Trazado_133329" data-name="Trazado 133329" d="M425.071,1406.437l-2.575-4.55h-1.574v4.55h-1.265v-10.009h3.276a3,3,0,0,1,2.248.792,2.821,2.821,0,0,1,.773,2.038,2.512,2.512,0,0,1-2.22,2.621l2.784,4.55Zm-4.149-8.89v3.376h1.884a2.115,2.115,0,0,0,1.465-.455,1.575,1.575,0,0,0,.482-1.219,1.619,1.619,0,0,0-.491-1.238,2.052,2.052,0,0,0-1.456-.464Z" transform="translate(-418.829 -1378.047)"/>
        <path id="Trazado_133330" data-name="Trazado 133330" d="M434.849,1403.092v.337h-5.46a2.449,2.449,0,0,0,.673,1.82,2.169,2.169,0,0,0,1.592.628,2.113,2.113,0,0,0,1.947-1.265l1.11.237a3.106,3.106,0,0,1-1.192,1.5,3.276,3.276,0,0,1-1.82.546,3.381,3.381,0,0,1-2.539-1.01,4.141,4.141,0,0,1,0-5.314,3.346,3.346,0,0,1,2.475-.974,3.119,3.119,0,0,1,2.348.91A3.53,3.53,0,0,1,434.849,1403.092Zm-3.239-2.548a2.161,2.161,0,0,0-1.456.5,2.3,2.3,0,0,0-.728,1.438h4.186a2.08,2.08,0,0,0-.61-1.438,1.965,1.965,0,0,0-1.392-.5Z" transform="translate(-419.598 -1378.333)"/>
        <path id="Trazado_133331" data-name="Trazado 133331" d="M439.771,1406.861a3.345,3.345,0,0,1-1.884-.5,2.1,2.1,0,0,1-.91-1.438l1.074-.309a1.5,1.5,0,0,0,.564.974,1.9,1.9,0,0,0,1.156.346,2.523,2.523,0,0,0,.664-.091,1.12,1.12,0,0,0,.519-.346.911.911,0,0,0,.209-.637.965.965,0,0,0-.064-.291.751.751,0,0,0-.109-.227.575.575,0,0,0-.2-.191l-.237-.155-.318-.127-.337-.118-.391-.109-.409-.118c-.291-.091-.537-.173-.728-.255a3.285,3.285,0,0,1-.582-.337,1.306,1.306,0,0,1-.464-.555,1.87,1.87,0,0,1-.155-.782,1.819,1.819,0,0,1,.346-1.119,1.926,1.926,0,0,1,.91-.655,3.505,3.505,0,0,1,1.247-.2,3.079,3.079,0,0,1,1.7.455,1.94,1.94,0,0,1,.846,1.365l-1.01.255a1.311,1.311,0,0,0-.537-.91,1.652,1.652,0,0,0-1-.3,1.73,1.73,0,0,0-.91.246.846.846,0,0,0-.391.755.7.7,0,0,0,.109.382.982.982,0,0,0,.209.273,1.028,1.028,0,0,0,.382.209,3.426,3.426,0,0,0,.409.155l.51.127h.109l.673.191a4.768,4.768,0,0,1,.6.255,2.036,2.036,0,0,1,.546.382,1.817,1.817,0,0,1,.346.537,2.038,2.038,0,0,1,.137.755,2.1,2.1,0,0,1-.209.91,1.562,1.562,0,0,1-.573.637,2.421,2.421,0,0,1-.81.355A3.773,3.773,0,0,1,439.771,1406.861Z" transform="translate(-420.389 -1378.335)"/>
        <path id="Trazado_133332" data-name="Trazado 133332" d="M448.7,1399.6a3.294,3.294,0,0,1,1.265.255,3.189,3.189,0,0,1,1.037.719,3.241,3.241,0,0,1,.7,1.156,4.272,4.272,0,0,1,.264,1.51,3.639,3.639,0,0,1-.91,2.63,3.048,3.048,0,0,1-2.32,1.01,2.735,2.735,0,0,1-1.456-.4,2.588,2.588,0,0,1-1-1.074v4.841h-1.228v-10.51h1.183v1.356a2.551,2.551,0,0,1,1-1.083A2.724,2.724,0,0,1,448.7,1399.6Zm-.237,6.206a2.1,2.1,0,0,0,1.611-.7,2.947,2.947,0,0,0,0-3.731,2.1,2.1,0,0,0-1.611-.7,2.157,2.157,0,0,0-1.647.728,2.876,2.876,0,0,0,0,3.64,2.158,2.158,0,0,0,1.647.764Z" transform="translate(-421.116 -1378.333)"/>
        <path id="Trazado_133333" data-name="Trazado 133333" d="M457.655,1406.859a3.645,3.645,0,0,1-1.82-.437,3.08,3.08,0,0,1-1.265-1.265,3.907,3.907,0,0,1-.464-1.929,3.559,3.559,0,0,1,.992-2.639,3.43,3.43,0,0,1,2.521-.992,3.465,3.465,0,0,1,2.539.992,4.022,4.022,0,0,1,0,5.278A3.405,3.405,0,0,1,457.655,1406.859Zm0-1.019a2.151,2.151,0,0,0,1.647-.719,2.735,2.735,0,0,0,.664-1.893,2.675,2.675,0,0,0-.664-1.884,2.118,2.118,0,0,0-1.647-.719,2.082,2.082,0,0,0-1.638.719,2.662,2.662,0,0,0-.655,1.884,2.732,2.732,0,0,0,.655,1.893,2.123,2.123,0,0,0,1.638.719Z" transform="translate(-421.931 -1378.333)"/>
        <path id="Trazado_133334" data-name="Trazado 133334" d="M467.291,1399.6a2.455,2.455,0,0,1,1.765.637,2.365,2.365,0,0,1,.655,1.82v4.7h-1.228v-4.431a1.667,1.667,0,0,0-.428-1.247,1.5,1.5,0,0,0-1.092-.41,1.69,1.69,0,0,0-1.247.482,1.993,1.993,0,0,0-.491,1.429v4.177H464v-6.988h1.228v.91A2.327,2.327,0,0,1,467.291,1399.6Z" transform="translate(-422.823 -1378.333)"/>
        <path id="Trazado_133335" data-name="Trazado 133335" d="M475.041,1406.859a3.306,3.306,0,0,1-1.874-.519,2.1,2.1,0,0,1-.91-1.438l1.074-.309a1.475,1.475,0,0,0,.573.974,1.891,1.891,0,0,0,1.147.346,2.586,2.586,0,0,0,.673-.091,1.169,1.169,0,0,0,.519-.346.912.912,0,0,0,.2-.637.755.755,0,0,0-.055-.291,1.746,1.746,0,0,0-.109-.228.577.577,0,0,0-.2-.191,2.038,2.038,0,0,0-.246-.155,1.961,1.961,0,0,0-.318-.127l-.337-.118-.391-.109-.4-.118a7.333,7.333,0,0,1-.728-.255,3.362,3.362,0,0,1-.591-.337,1.366,1.366,0,0,1-.455-.555,1.871,1.871,0,0,1-.155-.783,1.819,1.819,0,0,1,.346-1.119,1.925,1.925,0,0,1,.91-.655,3.469,3.469,0,0,1,1.238-.2,3.049,3.049,0,0,1,1.7.455,1.944,1.944,0,0,1,.855,1.365l-1.01.255a1.333,1.333,0,0,0-.537-.91,1.665,1.665,0,0,0-1-.3,1.705,1.705,0,0,0-.91.246.827.827,0,0,0-.391.755.783.783,0,0,0,.1.382.912.912,0,0,0,.591.482,4.013,4.013,0,0,0,.419.155l.51.128h.109l.664.191a4.833,4.833,0,0,1,.61.255,2.186,2.186,0,0,1,.546.382,1.909,1.909,0,0,1,.482,1.292,2.1,2.1,0,0,1-.209.91,1.7,1.7,0,0,1-.573.637,2.57,2.57,0,0,1-.819.355A3.746,3.746,0,0,1,475.041,1406.859Z" transform="translate(-423.566 -1378.333)"/>
        <path id="Trazado_133336" data-name="Trazado 133336" d="M481.835,1406.862a2.4,2.4,0,0,1-1.538-.482,1.712,1.712,0,0,1-.6-1.429,2.066,2.066,0,0,1,.191-.91,1.574,1.574,0,0,1,.573-.628,3.1,3.1,0,0,1,.819-.4,9.111,9.111,0,0,1,1.065-.255l1.128-.182c.409-.073.619-.291.619-.646a1.209,1.209,0,0,0-.437-1.037,1.743,1.743,0,0,0-1.1-.337,1.818,1.818,0,0,0-1.1.318,1.369,1.369,0,0,0-.519.983l-1.11-.237a2.182,2.182,0,0,1,.91-1.492,3.269,3.269,0,0,1,1.911-.5,3.819,3.819,0,0,1,1.01.127,2.558,2.558,0,0,1,.846.391,1.7,1.7,0,0,1,.6.746,2.809,2.809,0,0,1,.218,1.156v2.885a1.174,1.174,0,0,0,.164.728.686.686,0,0,0,.546.191h.118v.91h-.61c-.755,0-1.2-.309-1.329-.91h-.055A2.668,2.668,0,0,1,481.835,1406.862Zm.282-.992a1.87,1.87,0,0,0,1.5-.682,2.8,2.8,0,0,0,.564-1.82l-1.82.355a2.428,2.428,0,0,0-1.083.391,1.018,1.018,0,0,0-.09,1.438,1.057,1.057,0,0,0,.09.091,1.42,1.42,0,0,0,.837.227Z" transform="translate(-424.236 -1378.335)"/>
        <path id="Trazado_133337" data-name="Trazado 133337" d="M492.362,1399.222a3.018,3.018,0,0,1,2.3,1.01,3.637,3.637,0,0,1,.91,2.63,3.716,3.716,0,0,1-.91,2.63,3.015,3.015,0,0,1-2.311,1.01,2.792,2.792,0,0,1-1.492-.409,2.606,2.606,0,0,1-1-1.1v1.356h-1.183v-10.919H489.9v5.269a2.563,2.563,0,0,1,.992-1.074A2.848,2.848,0,0,1,492.362,1399.222Zm-.273,6.206a2.171,2.171,0,0,0,1.638-.71,2.965,2.965,0,0,0,0-3.722,2.165,2.165,0,0,0-1.638-.71,2.089,2.089,0,0,0-1.62.737,2.619,2.619,0,0,0-.664,1.82,2.676,2.676,0,0,0,.655,1.82A2.133,2.133,0,0,0,492.089,1405.428Z" transform="translate(-425.045 -1377.957)"/>
        <path id="Trazado_133338" data-name="Trazado 133338" d="M498.427,1406.347v-10.919h1.247v10.919Z" transform="translate(-425.924 -1377.957)"/>
        <path id="Trazado_133339" data-name="Trazado 133339" d="M508.6,1403.1v.337h-5.46a2.449,2.449,0,0,0,.664,1.82,2.2,2.2,0,0,0,1.592.628,2.113,2.113,0,0,0,1.956-1.265l1.11.237a3.16,3.16,0,0,1-1.192,1.5,3.276,3.276,0,0,1-1.82.546,3.417,3.417,0,0,1-2.521-.974,4.159,4.159,0,0,1,0-5.314,3.329,3.329,0,0,1,2.475-.974,3.147,3.147,0,0,1,2.348.91A3.527,3.527,0,0,1,508.6,1403.1Zm-3.23-2.548a2.146,2.146,0,0,0-1.456.5,2.265,2.265,0,0,0-.737,1.438h4.195a2.089,2.089,0,0,0-.619-1.438,1.928,1.928,0,0,0-1.383-.5Z" transform="translate(-426.243 -1378.336)"/>
        <path id="Trazado_133340" data-name="Trazado 133340" d="M426,1415.628h1.274v10.009H426v-4.44h-5.068v4.44h-1.274v-10.009h1.274v4.422H426Z" transform="translate(-418.829 -1379.777)"/>
        <path id="Trazado_133341" data-name="Trazado 133341" d="M433.905,1426.059a3.644,3.644,0,0,1-1.82-.437,3.08,3.08,0,0,1-1.265-1.265,3.907,3.907,0,0,1-.464-1.929,3.568,3.568,0,0,1,.992-2.639,3.721,3.721,0,0,1,5.059,0,3.639,3.639,0,0,1,.983,2.639,3.562,3.562,0,0,1-.992,2.639A3.4,3.4,0,0,1,433.905,1426.059Zm0-1.019a2.187,2.187,0,0,0,1.656-.719,2.733,2.733,0,0,0,.655-1.893,2.662,2.662,0,0,0-.655-1.884,2.147,2.147,0,0,0-1.656-.719,2.107,2.107,0,0,0-1.638.719,2.662,2.662,0,0,0-.655,1.884,2.733,2.733,0,0,0,.655,1.893,2.15,2.15,0,0,0,1.638.719Z" transform="translate(-419.792 -1380.062)"/>
        <path id="Trazado_133342" data-name="Trazado 133342" d="M443.542,1418.8a2.443,2.443,0,0,1,1.756.637,2.364,2.364,0,0,1,.655,1.82v4.7h-1.228v-4.431a1.657,1.657,0,0,0-.428-1.247,1.5,1.5,0,0,0-1.092-.409,1.7,1.7,0,0,0-1.247.482,1.993,1.993,0,0,0-.491,1.429v4.177h-1.21v-6.988h1.228v.91A2.328,2.328,0,0,1,443.542,1418.8Z" transform="translate(-420.684 -1380.062)"/>
        <path id="Trazado_133343" data-name="Trazado 133343" d="M455.189,1422.3v.337h-5.46a2.45,2.45,0,0,0,.664,1.82,2.189,2.189,0,0,0,1.592.628,2.124,2.124,0,0,0,1.156-.337,2.231,2.231,0,0,0,.8-.91l1.11.237a3.17,3.17,0,0,1-1.2,1.5,3.231,3.231,0,0,1-1.82.546,3.381,3.381,0,0,1-2.521-.974,4.14,4.14,0,0,1,0-5.314,3.365,3.365,0,0,1,2.484-.974,3.146,3.146,0,0,1,2.348.91A3.508,3.508,0,0,1,455.189,1422.3Zm-3.23-2.548a2.145,2.145,0,0,0-1.456.5,2.266,2.266,0,0,0-.737,1.438h4.186a2.049,2.049,0,0,0-.61-1.438,1.944,1.944,0,0,0-1.419-.5Z" transform="translate(-421.431 -1380.067)"/>
        <path id="Trazado_133344" data-name="Trazado 133344" d="M460.121,1426.061a3.306,3.306,0,0,1-1.884-.5,2.105,2.105,0,0,1-.91-1.438l1.074-.309a1.476,1.476,0,0,0,.573.974,1.822,1.822,0,0,0,1.147.346,2.592,2.592,0,0,0,.673-.091,1.1,1.1,0,0,0,.51-.346.911.911,0,0,0,.209-.637.985.985,0,0,0-.055-.291,1.036,1.036,0,0,0-.118-.228.511.511,0,0,0-.2-.191,1.453,1.453,0,0,0-.237-.155l-.318-.128-.337-.118-.391-.109-.4-.118a7.329,7.329,0,0,1-.728-.255,3.068,3.068,0,0,1-.591-.337,1.365,1.365,0,0,1-.455-.555,1.731,1.731,0,0,1-.155-.783,1.821,1.821,0,0,1,.337-1.119,1.952,1.952,0,0,1,.91-.655,3.429,3.429,0,0,1,1.238-.2,3.048,3.048,0,0,1,1.7.455,1.911,1.911,0,0,1,.846,1.365l-1.01.255a1.3,1.3,0,0,0-.528-.91,1.814,1.814,0,0,0-1.911-.055.828.828,0,0,0-.391.755.691.691,0,0,0,.1.382.982.982,0,0,0,.209.273,1.189,1.189,0,0,0,.382.209,4.12,4.12,0,0,0,.409.155l.519.127h.1l.673.191a4.14,4.14,0,0,1,.61.255,1.978,1.978,0,0,1,.537.382,1.642,1.642,0,0,1,.346.537,1.984,1.984,0,0,1,.146.755,2.1,2.1,0,0,1-.209.91,1.693,1.693,0,0,1-.573.637,2.567,2.567,0,0,1-.819.355A3.74,3.74,0,0,1,460.121,1426.061Z" transform="translate(-422.222 -1380.064)"/>
        <path id="Trazado_133345" data-name="Trazado 133345" d="M467.472,1425.7a1.822,1.822,0,0,1-1.365-.5,1.913,1.913,0,0,1-.491-1.392v-4.131h-1.429v-.983h.519a1,1,0,0,0,.773-.246,1.175,1.175,0,0,0,.228-.819v-1.265h1.146v2.329h1.6v.983h-1.6v3.985a1.031,1.031,0,0,0,.264.764.913.913,0,0,0,.7.273h.637v.983Z" transform="translate(-422.84 -1379.843)"/>
        <path id="Trazado_133346" data-name="Trazado 133346" d="M473.625,1426.059a3.644,3.644,0,0,1-1.82-.437,3.08,3.08,0,0,1-1.265-1.265,3.907,3.907,0,0,1-.464-1.929,3.568,3.568,0,0,1,.992-2.639,3.721,3.721,0,0,1,5.059,0,3.639,3.639,0,0,1,.983,2.639,3.562,3.562,0,0,1-.992,2.639A3.4,3.4,0,0,1,473.625,1426.059Zm0-1.019a2.151,2.151,0,0,0,1.647-.719,2.666,2.666,0,0,0,.664-1.893,2.63,2.63,0,0,0-.664-1.884,2.118,2.118,0,0,0-1.647-.719,2.082,2.082,0,0,0-1.638.719,2.662,2.662,0,0,0-.655,1.884,2.733,2.733,0,0,0,.655,1.893,2.121,2.121,0,0,0,1.629.719Z" transform="translate(-423.37 -1380.062)"/>
        <path id="Trazado_133347" data-name="Trazado 133347" d="M420.922,1443.682H424.4v1.156h-4.741v-10.009h1.265Z" transform="translate(-418.829 -1381.506)"/>
        <path id="Trazado_133348" data-name="Trazado 133348" d="M432.751,1441.493v.337h-5.46a2.448,2.448,0,0,0,.664,1.82,2.188,2.188,0,0,0,1.592.628,2.113,2.113,0,0,0,1.956-1.265l1.11.236a3.16,3.16,0,0,1-1.192,1.5,3.276,3.276,0,0,1-1.82.546,3.418,3.418,0,0,1-2.521-.974,4.159,4.159,0,0,1,0-5.314,3.326,3.326,0,0,1,2.439-1,3.145,3.145,0,0,1,2.348.91A3.51,3.51,0,0,1,432.751,1441.493Zm-3.23-2.575a2.146,2.146,0,0,0-1.456.5,2.265,2.265,0,0,0-.737,1.438h4.186a2.048,2.048,0,0,0-.61-1.438A1.928,1.928,0,0,0,429.521,1438.918Z" transform="translate(-419.411 -1381.792)"/>
        <path id="Trazado_133349" data-name="Trazado 133349" d="M437.046,1445.291a2.389,2.389,0,0,1-1.529-.482,1.712,1.712,0,0,1-.6-1.429,2,2,0,0,1,.191-.91,1.544,1.544,0,0,1,.573-.637,3.074,3.074,0,0,1,.819-.4,8.211,8.211,0,0,1,1.065-.255l1.128-.182c.409-.073.619-.291.619-.646a1.209,1.209,0,0,0-.437-1.037,1.753,1.753,0,0,0-1.11-.337,1.815,1.815,0,0,0-1.092.319,1.368,1.368,0,0,0-.519.983l-1.11-.237a2.182,2.182,0,0,1,.91-1.492,3.27,3.27,0,0,1,1.911-.5,3.912,3.912,0,0,1,1.01.127,2.727,2.727,0,0,1,.846.391,1.763,1.763,0,0,1,.6.746,2.808,2.808,0,0,1,.218,1.156v2.884a1.174,1.174,0,0,0,.164.728.678.678,0,0,0,.546.191h.118v.91h-.61c-.755,0-1.2-.309-1.329-.91h-.055A2.651,2.651,0,0,1,437.046,1445.291Zm.291-.992a1.822,1.822,0,0,0,1.492-.682,2.732,2.732,0,0,0,.573-1.82l-1.82.355a2.429,2.429,0,0,0-1.083.391,1.018,1.018,0,0,0-.018,1.529,1.413,1.413,0,0,0,.892.2Z" transform="translate(-420.203 -1381.796)"/>
        <path id="Trazado_133350" data-name="Trazado 133350" d="M443.907,1444.747v-10.919h1.228v10.919Z" transform="translate(-421.013 -1381.416)"/>
        <path id="Trazado_133351" data-name="Trazado 133351" d="M422.66,1464.166a4.549,4.549,0,0,1-2.612-.71,3,3,0,0,1-1.3-1.938l1.283-.309a2.076,2.076,0,0,0,.91,1.365,3.022,3.022,0,0,0,1.765.5,3.136,3.136,0,0,0,.664-.064,2.825,2.825,0,0,0,.6-.182,1.942,1.942,0,0,0,.491-.328,1.367,1.367,0,0,0,.328-.491,1.578,1.578,0,0,0,.109-.664,1.329,1.329,0,0,0-.082-.473,1.606,1.606,0,0,0-.2-.373,1.22,1.22,0,0,0-.337-.3,3.345,3.345,0,0,0-.409-.246,3.69,3.69,0,0,0-.5-.2l-.528-.173-.573-.155h-.109l-.673-.191a6.525,6.525,0,0,1-.619-.209,4.292,4.292,0,0,1-.591-.273,4.64,4.64,0,0,1-.491-.346,1.54,1.54,0,0,1-.4-.446,2.178,2.178,0,0,1-.246-.564,2.8,2.8,0,0,1,.373-2.248,2.726,2.726,0,0,1,1.2-.91,4.318,4.318,0,0,1,1.656-.3,4.541,4.541,0,0,1,2.4.619,2.729,2.729,0,0,1,1.274,1.82l-1.237.318a1.818,1.818,0,0,0-.828-1.228,2.856,2.856,0,0,0-1.565-.419,2.9,2.9,0,0,0-.764.1,2.041,2.041,0,0,0-.664.282,1.323,1.323,0,0,0-.482.519,1.582,1.582,0,0,0-.182.764,1.26,1.26,0,0,0,.255.764,1.529,1.529,0,0,0,.3.273,3.761,3.761,0,0,0,.373.219,3.132,3.132,0,0,0,.464.182l.5.164.546.145a11.334,11.334,0,0,1,1.929.637,2.427,2.427,0,0,1,1.483,1.82,3.18,3.18,0,0,1,0,.437,2.788,2.788,0,0,1-.282,1.292,2.381,2.381,0,0,1-.792.91,4.165,4.165,0,0,1-1.119.5A5.352,5.352,0,0,1,422.66,1464.166Z" transform="translate(-418.747 -1383.227)"/>
        <path id="Trazado_133352" data-name="Trazado 133352" d="M435.291,1460.667V1461h-5.46a2.449,2.449,0,0,0,.664,1.82,2.179,2.179,0,0,0,1.592.619,2.119,2.119,0,0,0,1.156-.328,2.211,2.211,0,0,0,.8-.91l1.11.237a3.221,3.221,0,0,1-1.192,1.5,3.276,3.276,0,0,1-1.82.546,3.4,3.4,0,0,1-2.521-.974,4.159,4.159,0,0,1,0-5.314,3.329,3.329,0,0,1,2.475-.974,3.142,3.142,0,0,1,2.348.91A3.53,3.53,0,0,1,435.291,1460.667Zm-3.23-2.548a2.146,2.146,0,0,0-1.456.5,2.237,2.237,0,0,0-.737,1.438h4.186a2.031,2.031,0,0,0-.61-1.438,1.929,1.929,0,0,0-1.383-.473Z" transform="translate(-419.64 -1383.523)"/>
        <path id="Trazado_133353" data-name="Trazado 133353" d="M443.066,1457.335h1.192v6.633a3.808,3.808,0,0,1-.91,2.73,3.749,3.749,0,0,1-5.887-1.183l1.01-.5a2.313,2.313,0,0,0,2.339,1.611,1.994,1.994,0,0,0,1.638-.682,2.858,2.858,0,0,0,.573-1.9v-1.292a2.417,2.417,0,0,1-1,1,2.887,2.887,0,0,1-1.456.382,3,3,0,0,1-2.257-.983,3.442,3.442,0,0,1-.91-2.484,3.4,3.4,0,0,1,.91-2.475,3.019,3.019,0,0,1,2.275-.983,2.853,2.853,0,0,1,1.456.391,2.518,2.518,0,0,1,.992,1.037Zm-2.22,5.742a2.1,2.1,0,0,0,1.611-.71,2.547,2.547,0,0,0,0-3.422,2.193,2.193,0,0,0-3.1-.123c-.042.039-.083.08-.122.123a2.585,2.585,0,0,0,0,3.458A2.124,2.124,0,0,0,440.845,1463.077Z" transform="translate(-420.426 -1383.522)"/>
        <path id="Trazado_133354" data-name="Trazado 133354" d="M452.035,1457.344h1.228v6.97H452.08v-.91a2.243,2.243,0,0,1-.864.782,2.743,2.743,0,0,1-1.228.273,2.4,2.4,0,0,1-1.756-.637,2.348,2.348,0,0,1-.655-1.82v-4.7H448.8v4.431a1.631,1.631,0,0,0,.428,1.247,1.515,1.515,0,0,0,1.1.419,1.686,1.686,0,0,0,1.238-.482,2.014,2.014,0,0,0,.491-1.429Z" transform="translate(-421.343 -1383.53)"/>
        <path id="Trazado_133355" data-name="Trazado 133355" d="M457.778,1458.572a2.124,2.124,0,0,1,.864-.91,2.618,2.618,0,0,1,1.347-.364v1.156a2.319,2.319,0,0,0-1.629.519,2.165,2.165,0,0,0-.555,1.656v3.685h-1.228v-6.988h1.2Z" transform="translate(-422.154 -1383.53)"/>
        <path id="Trazado_133356" data-name="Trazado 133356" d="M464.7,1464.459a3.645,3.645,0,0,1-1.82-.437,3.08,3.08,0,0,1-1.265-1.265,3.907,3.907,0,0,1-.464-1.929,3.559,3.559,0,0,1,.992-2.639,3.431,3.431,0,0,1,2.521-.992,3.466,3.466,0,0,1,2.539.992,4.022,4.022,0,0,1,0,5.278A3.419,3.419,0,0,1,464.7,1464.459Zm0-1.028a2.142,2.142,0,0,0,1.647-.71,2.736,2.736,0,0,0,.664-1.893,2.675,2.675,0,0,0-.664-1.884,2.118,2.118,0,0,0-1.647-.719,2.082,2.082,0,0,0-1.638.719,2.662,2.662,0,0,0-.655,1.884,2.732,2.732,0,0,0,.655,1.893,2.114,2.114,0,0,0,1.638.673Z" transform="translate(-422.565 -1383.521)"/>
      </g>
      <g id="Grupo_63639" data-name="Grupo 63639" transform="translate(34.896 106.08)">
        <path id="Trazado_133357" data-name="Trazado 133357" d="M423.664,1343.118a3.1,3.1,0,0,1,2.366.91,3.358,3.358,0,0,1,.91,2.366,3.232,3.232,0,0,1-.91,2.348,3.123,3.123,0,0,1-2.366.91h-2.147v3.639h-2.129v-10.173Zm-.364,4.8a1.53,1.53,0,0,0,1.174-.4,1.5,1.5,0,0,0,.391-1.11,1.525,1.525,0,0,0-.391-1.1,1.554,1.554,0,0,0-1.174-.409h-1.82v3.021Z" transform="translate(-419.387 -1342.635)"/>
        <path id="Trazado_133358" data-name="Trazado 133358" d="M432.411,1353.821a4.7,4.7,0,0,1-2.066-.446,3.372,3.372,0,0,1-1.419-1.319,3.878,3.878,0,0,1-.519-2.038,3.642,3.642,0,0,1,1.11-2.73,4.631,4.631,0,0,1,5.8,0,4.041,4.041,0,0,1,0,5.56A4.15,4.15,0,0,1,432.411,1353.821Zm0-1.629a1.886,1.886,0,0,0,1.447-.6,2.223,2.223,0,0,0,.546-1.574,2.262,2.262,0,0,0-.546-1.583,1.909,1.909,0,0,0-1.447-.591,1.82,1.82,0,0,0-1.4.6,2.54,2.54,0,0,0,0,3.149,1.822,1.822,0,0,0,1.383.6Z" transform="translate(-420.199 -1342.919)"/>
        <path id="Trazado_133359" data-name="Trazado 133359" d="M441.4,1353.816a4.167,4.167,0,0,1-2.138-.51,2.185,2.185,0,0,1-1.037-1.529l1.711-.482a1.375,1.375,0,0,0,1.465,1.092,1.44,1.44,0,0,0,.746-.173.574.574,0,0,0,.291-.564.63.63,0,0,0-.118-.373,1.116,1.116,0,0,0-.373-.273l-.5-.191-.655-.191a6.954,6.954,0,0,1-.673-.209,4.031,4.031,0,0,1-.646-.273,2.469,2.469,0,0,1-.528-.373,1.523,1.523,0,0,1-.4-.573,2.112,2.112,0,0,1-.136-.783,1.875,1.875,0,0,1,.792-1.638,3.579,3.579,0,0,1,2.075-.555,3.638,3.638,0,0,1,1.911.473,2.109,2.109,0,0,1,.983,1.465l-1.592.355a1.228,1.228,0,0,0-1.292-.91,1.392,1.392,0,0,0-.719.164.535.535,0,0,0-.291.491.589.589,0,0,0,0,.218.444.444,0,0,0,.146.173l.209.136a1.4,1.4,0,0,0,.291.118l.318.091.373.1.382.1c.264.073.491.136.692.209a4.722,4.722,0,0,1,.628.3,2.394,2.394,0,0,1,.546.427,2.064,2.064,0,0,1,.364.61,2.253,2.253,0,0,1,.137.81,2.184,2.184,0,0,1-.246,1.056,1.82,1.82,0,0,1-.673.719,3.244,3.244,0,0,1-.91.382A5,5,0,0,1,441.4,1353.816Z" transform="translate(-421.084 -1342.915)"/>
        <path id="Trazado_133360" data-name="Trazado 133360" d="M447.669,1344.945a1.179,1.179,0,0,1-.868-1.98l.031-.031a1.163,1.163,0,0,1,.837-.346,1.183,1.183,0,0,1,0,2.357Zm-1.046,8.4v-7.279h2.066v7.279Z" transform="translate(-421.827 -1342.588)"/>
        <path id="Trazado_133361" data-name="Trazado 133361" d="M453.893,1353.452a2.236,2.236,0,0,1-1.656-.591,2.328,2.328,0,0,1-.582-1.693v-3.449h-1.438v-1.574h.464a1.2,1.2,0,0,0,.91-.3,1.571,1.571,0,0,0,.291-1.092v-.964h1.82v2.357h1.51v1.574H453.7v3.23c0,.637.282.91.846.91h.664v1.556Z" transform="translate(-422.164 -1342.696)"/>
        <path id="Trazado_133362" data-name="Trazado 133362" d="M458.48,1344.945a1.149,1.149,0,0,1-.837-.346,1.11,1.11,0,0,1-.346-.837,1.138,1.138,0,0,1,.346-.828,1.17,1.17,0,0,1,.837-.346,1.149,1.149,0,0,1,.828.346,1.174,1.174,0,0,1,.005,1.66l-.005.005A1.156,1.156,0,0,1,458.48,1344.945Zm-1.046,8.4v-7.279H459.5v7.279Z" transform="translate(-422.801 -1342.588)"/>
        <path id="Trazado_133363" data-name="Trazado 133363" d="M466.679,1346.378h2.175l-3.121,7.28h-1.82l-3.076-7.28h2.2l1.82,5Z" transform="translate(-423.12 -1342.929)"/>
        <path id="Trazado_133364" data-name="Trazado 133364" d="M473.86,1353.82a4.723,4.723,0,0,1-2.075-.446,3.3,3.3,0,0,1-1.41-1.319,3.878,3.878,0,0,1-.519-2.038,3.557,3.557,0,0,1,1.11-2.73,4.614,4.614,0,0,1,5.787,0,4.041,4.041,0,0,1,0,5.56A4.136,4.136,0,0,1,473.86,1353.82Zm0-1.629a1.822,1.822,0,0,0,1.447-.6,2.2,2.2,0,0,0,.555-1.574,2.228,2.228,0,0,0-.555-1.583,1.881,1.881,0,0,0-1.447-.582,1.819,1.819,0,0,0-1.4.6,2.54,2.54,0,0,0,0,3.148A1.822,1.822,0,0,0,473.86,1352.192Z" transform="translate(-423.932 -1342.92)"/>
      </g>
      <g id="Grupo_63640" data-name="Grupo 63640" transform="translate(149.038 137.327)">
        <path id="Trazado_133365" data-name="Trazado 133365" d="M550.25,1378.393h-4.122v3.267h3.64v1.147h-3.64v4.431h-1.3v-10.009h5.414Z" transform="translate(-544.827 -1376.955)"/>
        <path id="Trazado_133366" data-name="Trazado 133366" d="M553.992,1381.772a2.152,2.152,0,0,1,.91-.91,2.584,2.584,0,0,1,1.338-.364v1.156a2.287,2.287,0,0,0-1.62.519,2.164,2.164,0,0,0-.555,1.656v3.731h-1.237v-6.988h1.2Z" transform="translate(-545.548 -1377.25)"/>
        <path id="Trazado_133367" data-name="Trazado 133367" d="M558.734,1378.584a.837.837,0,0,1-.837-.837h0a.79.79,0,0,1,.246-.582.837.837,0,0,1,.591-.237.807.807,0,0,1,.573.237.79.79,0,0,1,.246.582.814.814,0,0,1-.246.591A.785.785,0,0,1,558.734,1378.584Zm-.628,8.626v-6.988h1.238v6.988Z" transform="translate(-546.004 -1376.928)"/>
        <path id="Trazado_133368" data-name="Trazado 133368" d="M565.116,1387.659a3.645,3.645,0,0,1-1.82-.437,3.114,3.114,0,0,1-1.256-1.265,3.908,3.908,0,0,1-.464-1.929,3.568,3.568,0,0,1,.992-2.639,3.713,3.713,0,0,1,5.05,0,4,4,0,0,1,0,5.278A3.419,3.419,0,0,1,565.116,1387.659Zm0-1.019a2.166,2.166,0,0,0,1.647-.719,2.733,2.733,0,0,0,.655-1.893,2.662,2.662,0,0,0-.655-1.884,2.248,2.248,0,0,0-3.177-.118c-.04.038-.08.077-.117.118a3.082,3.082,0,0,0,0,3.776A2.151,2.151,0,0,0,565.116,1386.64Z" transform="translate(-546.335 -1377.24)"/>
        <path id="Trazado_133369" data-name="Trazado 133369" d="M544.837,1406.437v-10.009h1.292v10.009Z" transform="translate(-544.828 -1378.684)"/>
        <path id="Trazado_133370" data-name="Trazado 133370" d="M552.639,1399.6a2.444,2.444,0,0,1,1.756.637,2.365,2.365,0,0,1,.655,1.82v4.7h-1.237v-4.422a1.672,1.672,0,0,0-.428-1.256,1.5,1.5,0,0,0-1.092-.41,1.705,1.705,0,0,0-1.247.482,1.993,1.993,0,0,0-.491,1.429v4.177h-1.228v-6.988h1.228v.91A2.327,2.327,0,0,1,552.639,1399.6Z" transform="translate(-545.232 -1378.969)"/>
        <path id="Trazado_133371" data-name="Trazado 133371" d="M563.333,1395.428h1.238v10.919h-1.183v-1.356a2.605,2.605,0,0,1-1,1.1,2.736,2.736,0,0,1-1.474.409,3.167,3.167,0,0,1-1.265-.264,3.115,3.115,0,0,1-1.046-.728,3.409,3.409,0,0,1-.7-1.156,4.193,4.193,0,0,1-.255-1.492,3.637,3.637,0,0,1,.91-2.63,3.048,3.048,0,0,1,2.32-1.01,2.806,2.806,0,0,1,1.465.4,2.6,2.6,0,0,1,.992,1.065Zm-2.2,10.009a2.133,2.133,0,0,0,1.629-.728,2.676,2.676,0,0,0,.655-1.82,2.618,2.618,0,0,0-.664-1.82,2.088,2.088,0,0,0-1.62-.737,2.165,2.165,0,0,0-1.638.71,2.662,2.662,0,0,0-.655,1.865,2.632,2.632,0,0,0,.655,1.82,2.167,2.167,0,0,0,1.638.7Z" transform="translate(-545.981 -1378.594)"/>
        <path id="Trazado_133372" data-name="Trazado 133372" d="M568.605,1397.784a.794.794,0,0,1-.582-.246.814.814,0,0,1-.246-.591.79.79,0,0,1,.246-.582.836.836,0,0,1,1.165,0,.789.789,0,0,1,.246.582.814.814,0,0,1-.246.591A.794.794,0,0,1,568.605,1397.784Zm-.628,8.626v-6.988h1.237v6.988Z" transform="translate(-546.894 -1378.657)"/>
        <path id="Trazado_133373" data-name="Trazado 133373" d="M575.222,1396.464h-.528a1.185,1.185,0,0,0-.255,0l-.218.073a.5.5,0,0,0-.209.118l-.164.182a.631.631,0,0,0-.137.255,1.608,1.608,0,0,0-.082.346,3.144,3.144,0,0,0,0,.437v1.438h1.62v.983H573.6v6.006h-1.228v-6.006h-1.347v-.983h1.347v-1.465a4.3,4.3,0,0,1,.073-.81,3.068,3.068,0,0,1,.2-.619,1.6,1.6,0,0,1,.337-.446,2.579,2.579,0,0,1,.428-.3,1.934,1.934,0,0,1,.528-.173,4.6,4.6,0,0,1,.6-.091h.682Z" transform="translate(-547.187 -1378.592)"/>
        <path id="Trazado_133374" data-name="Trazado 133374" d="M583.161,1403.1v.337H577.7a2.448,2.448,0,0,0,.664,1.82,2.2,2.2,0,0,0,1.592.628,2.113,2.113,0,0,0,1.956-1.265l1.11.237a3.16,3.16,0,0,1-1.192,1.5,3.276,3.276,0,0,1-1.82.546,3.418,3.418,0,0,1-2.521-.974,4.159,4.159,0,0,1,0-5.314,3.329,3.329,0,0,1,2.475-.974,3.147,3.147,0,0,1,2.348.91A3.527,3.527,0,0,1,583.161,1403.1Zm-3.23-2.548a2.146,2.146,0,0,0-1.456.5,2.265,2.265,0,0,0-.737,1.438h4.195a2.093,2.093,0,0,0-.619-1.438,1.925,1.925,0,0,0-1.392-.5Z" transform="translate(-547.683 -1378.973)"/>
        <path id="Trazado_133375" data-name="Trazado 133375" d="M587.142,1400.972a2.1,2.1,0,0,1,.91-.91,2.582,2.582,0,0,1,1.338-.364v1.156a2.286,2.286,0,0,0-1.62.519,2.168,2.168,0,0,0-.564,1.656v3.731h-1.228v-6.988h1.165Z" transform="translate(-548.533 -1378.979)"/>
        <path id="Trazado_133376" data-name="Trazado 133376" d="M597.238,1403.1v.337h-5.46a2.449,2.449,0,0,0,.664,1.82,2.266,2.266,0,0,0,2.73.291,2.144,2.144,0,0,0,.792-.91l1.11.236a3.16,3.16,0,0,1-1.192,1.5,3.276,3.276,0,0,1-1.82.546,3.4,3.4,0,0,1-2.521-.974,4.158,4.158,0,0,1,0-5.314,3.328,3.328,0,0,1,2.475-.974,3.146,3.146,0,0,1,2.348.91A3.531,3.531,0,0,1,597.238,1403.1Zm-3.23-2.548a2.146,2.146,0,0,0-1.456.5,2.265,2.265,0,0,0-.737,1.438H596a2.048,2.048,0,0,0-.61-1.438,1.928,1.928,0,0,0-1.383-.5Z" transform="translate(-548.948 -1378.975)"/>
        <path id="Trazado_133377" data-name="Trazado 133377" d="M603.32,1399.6a2.444,2.444,0,0,1,1.756.637,2.365,2.365,0,0,1,.655,1.82v4.7H604.5v-4.422a1.673,1.673,0,0,0-.428-1.256,1.5,1.5,0,0,0-1.092-.41,1.69,1.69,0,0,0-1.247.482,1.993,1.993,0,0,0-.491,1.429v4.177h-1.228v-6.988h1.228v.91A2.327,2.327,0,0,1,603.32,1399.6Z" transform="translate(-549.798 -1378.969)"/>
        <path id="Trazado_133378" data-name="Trazado 133378" d="M611.032,1406.506a1.822,1.822,0,0,1-1.365-.5,1.913,1.913,0,0,1-.491-1.392V1400.5h-1.429v-.983h.519a1,1,0,0,0,.773-.246,1.175,1.175,0,0,0,.228-.819v-1.265h1.146v2.329h1.6v.983h-1.6v3.985a1.031,1.031,0,0,0,.264.764.913.913,0,0,0,.7.273h.637v.983Z" transform="translate(-550.494 -1378.753)"/>
        <path id="Trazado_133379" data-name="Trazado 133379" d="M620.361,1403.1v.337H614.9a2.482,2.482,0,0,0,.673,1.82,2.188,2.188,0,0,0,1.592.628,2.132,2.132,0,0,0,1.156-.337,2.231,2.231,0,0,0,.8-.91l1.11.236a3.169,3.169,0,0,1-1.2,1.5,3.276,3.276,0,0,1-1.82.546,3.379,3.379,0,0,1-2.511-.974,4.14,4.14,0,0,1,0-5.314,3.363,3.363,0,0,1,2.484-.974,3.146,3.146,0,0,1,2.348.91A3.532,3.532,0,0,1,620.361,1403.1Zm-3.23-2.548a2.145,2.145,0,0,0-1.456.5,2.265,2.265,0,0,0-.737,1.438h4.186a2.08,2.08,0,0,0-.61-1.438,1.946,1.946,0,0,0-1.383-.5Z" transform="translate(-551.033 -1378.975)"/>
        <path id="Trazado_133380" data-name="Trazado 133380" d="M544.837,1425.637v-10.009h3.23a4.828,4.828,0,0,1,2.548.646,4.027,4.027,0,0,1,1.565,1.765,6.166,6.166,0,0,1,.51,2.584,6.474,6.474,0,0,1-.3,2.029,4.464,4.464,0,0,1-.864,1.583,3.832,3.832,0,0,1-1.456,1.037,5.159,5.159,0,0,1-2,.364Zm1.274-1.156h1.911a3.071,3.071,0,0,0,2.5-1.028,4.35,4.35,0,0,0,.837-2.83,4.284,4.284,0,0,0-.846-2.812,3.038,3.038,0,0,0-2.493-1.019h-1.893Z" transform="translate(-544.828 -1380.413)"/>
        <path id="Trazado_133381" data-name="Trazado 133381" d="M556.435,1416.984a.793.793,0,0,1-.582-.246.814.814,0,0,1-.246-.591.789.789,0,0,1,.246-.582.817.817,0,0,1,.582-.237.834.834,0,0,1,.582.237.79.79,0,0,1,.246.582A.837.837,0,0,1,556.435,1416.984Zm-.628,8.626v-6.988h1.237v6.988Z" transform="translate(-545.798 -1380.386)"/>
        <path id="Trazado_133382" data-name="Trazado 133382" d="M562.09,1426.061a3.306,3.306,0,0,1-1.884-.5,2.105,2.105,0,0,1-.91-1.438l1.074-.309a1.553,1.553,0,0,0,.573.974,1.89,1.89,0,0,0,1.146.346,2.591,2.591,0,0,0,.673-.091,1.169,1.169,0,0,0,.519-.346.99.99,0,0,0,.209-.637.962.962,0,0,0-.064-.291,1.041,1.041,0,0,0-.109-.228.575.575,0,0,0-.2-.191,2.02,2.02,0,0,0-.246-.155,1.833,1.833,0,0,0-.309-.128l-.346-.118-.391-.109-.4-.118c-.291-.091-.537-.173-.728-.255a3.327,3.327,0,0,1-.591-.337,1.365,1.365,0,0,1-.455-.555,1.869,1.869,0,0,1-.155-.783,1.817,1.817,0,0,1,.346-1.119,1.925,1.925,0,0,1,.91-.655,3.47,3.47,0,0,1,1.238-.2,3.032,3.032,0,0,1,1.7.455,1.944,1.944,0,0,1,.855,1.365l-1.01.255a1.31,1.31,0,0,0-.537-.91,1.651,1.651,0,0,0-1-.3,1.731,1.731,0,0,0-.91.246.828.828,0,0,0-.391.755.783.783,0,0,0,.1.382,1.527,1.527,0,0,0,.209.273,1.162,1.162,0,0,0,.391.209,3.408,3.408,0,0,0,.409.155l.51.127h.109l.673.191a4.766,4.766,0,0,1,.6.255,2.189,2.189,0,0,1,.546.382,1.909,1.909,0,0,1,.482,1.292,2.105,2.105,0,0,1-.209.91,1.561,1.561,0,0,1-.573.637,2.493,2.493,0,0,1-.81.355A3.812,3.812,0,0,1,562.09,1426.061Z" transform="translate(-546.13 -1380.701)"/>
        <path id="Trazado_133383" data-name="Trazado 133383" d="M569.451,1425.7a1.822,1.822,0,0,1-1.365-.5,1.886,1.886,0,0,1-.5-1.392v-4.131h-1.429v-.983h.528a1.032,1.032,0,0,0,.773-.246,1.231,1.231,0,0,0,.218-.819v-1.265h1.146v2.329h1.611v.983h-1.611v3.985a1.065,1.065,0,0,0,.264.764.913.913,0,0,0,.7.273h.646v.983Z" transform="translate(-546.748 -1380.48)"/>
        <path id="Trazado_133384" data-name="Trazado 133384" d="M574.276,1426.061a2.388,2.388,0,0,1-1.529-.482,1.685,1.685,0,0,1-.6-1.429,2.065,2.065,0,0,1,.191-.91,1.551,1.551,0,0,1,.564-.628,3.368,3.368,0,0,1,.819-.4,9.132,9.132,0,0,1,1.065-.255l1.128-.182c.419-.073.619-.291.619-.646a1.208,1.208,0,0,0-.437-1.037,1.725,1.725,0,0,0-1.1-.337,1.866,1.866,0,0,0-1.1.318,1.369,1.369,0,0,0-.519.983l-1.128-.246a2.118,2.118,0,0,1,.91-1.492,3.218,3.218,0,0,1,1.9-.5,3.813,3.813,0,0,1,1.01.127,2.553,2.553,0,0,1,.846.391,1.715,1.715,0,0,1,.61.746,2.81,2.81,0,0,1,.218,1.156v2.884a1.185,1.185,0,0,0,.155.728.692.692,0,0,0,.555.191h.109v.91h-.61a1.156,1.156,0,0,1-1.319-.91h-.064A2.666,2.666,0,0,1,574.276,1426.061Zm.282-.992a1.87,1.87,0,0,0,1.5-.682,2.733,2.733,0,0,0,.564-1.82l-1.82.355a2.478,2.478,0,0,0-1.083.391,1.027,1.027,0,0,0-.009,1.529,1.392,1.392,0,0,0,.846.228Z" transform="translate(-547.287 -1380.7)"/>
        <path id="Trazado_133385" data-name="Trazado 133385" d="M584.391,1418.8a2.454,2.454,0,0,1,1.765.637,2.364,2.364,0,0,1,.655,1.82v4.7h-1.228v-4.431a1.667,1.667,0,0,0-.428-1.247,1.5,1.5,0,0,0-1.092-.409,1.689,1.689,0,0,0-1.247.482,1.919,1.919,0,0,0-.491,1.429v4.177H581.1v-6.988h1.228v.91A2.327,2.327,0,0,1,584.391,1418.8Z" transform="translate(-548.094 -1380.699)"/>
        <path id="Trazado_133386" data-name="Trazado 133386" d="M592.111,1425.7a1.822,1.822,0,0,1-1.365-.5,1.913,1.913,0,0,1-.491-1.392v-4.131h-1.438v-.983h.528a1.015,1.015,0,0,0,.773-.246,1.22,1.22,0,0,0,.227-.819v-1.265h1.137v2.329h1.611v.983h-1.611v3.985a1.038,1.038,0,0,0,.273.764.913.913,0,0,0,.7.273h.637v.983Z" transform="translate(-548.789 -1380.48)"/>
        <path id="Trazado_133387" data-name="Trazado 133387" d="M601.441,1422.3v.337h-5.46a2.449,2.449,0,0,0,.673,1.82,2.189,2.189,0,0,0,1.592.628,2.126,2.126,0,0,0,1.156-.337,2.233,2.233,0,0,0,.8-.91l1.1.237a3.109,3.109,0,0,1-1.192,1.5,3.281,3.281,0,0,1-1.82.546,3.38,3.38,0,0,1-2.511-.974,4.14,4.14,0,0,1,0-5.314,3.345,3.345,0,0,1,2.475-.974,3.154,3.154,0,0,1,2.357.91A3.563,3.563,0,0,1,601.441,1422.3Zm-3.239-2.548a2.131,2.131,0,0,0-1.447.5,2.265,2.265,0,0,0-.737,1.438H600.2a2.08,2.08,0,0,0-.61-1.438A1.964,1.964,0,0,0,598.2,1419.749Z" transform="translate(-549.329 -1380.704)"/>
        <path id="Trazado_133388" data-name="Trazado 133388" d="M544.837,1444.837v-10.009h1.292v10.009Z" transform="translate(-544.828 -1382.143)"/>
        <path id="Trazado_133389" data-name="Trazado 133389" d="M552.639,1438.008a2.443,2.443,0,0,1,1.756.637,2.365,2.365,0,0,1,.655,1.82v4.7h-1.237v-4.431a1.668,1.668,0,0,0-.428-1.247,1.5,1.5,0,0,0-1.092-.409,1.705,1.705,0,0,0-1.247.482,1.993,1.993,0,0,0-.491,1.429v4.177h-1.228v-6.988h1.228v.91A2.327,2.327,0,0,1,552.639,1438.008Z" transform="translate(-545.232 -1382.429)"/>
        <path id="Trazado_133390" data-name="Trazado 133390" d="M565.373,1438.008a2.237,2.237,0,0,1,1.629.6,2.189,2.189,0,0,1,.619,1.665v4.859h-1.228v-4.55a1.589,1.589,0,0,0-.382-1.156,1.324,1.324,0,0,0-.974-.391,1.369,1.369,0,0,0-1.065.446,1.875,1.875,0,0,0-.409,1.319v4.322h-1.247v-4.5a1.657,1.657,0,0,0-.391-1.183,1.3,1.3,0,0,0-.992-.409,1.372,1.372,0,0,0-1.065.455,1.965,1.965,0,0,0-.409,1.356v4.277h-1.2v-6.988h1.228v.91a2.216,2.216,0,0,1,.8-.764,2.247,2.247,0,0,1,1.11-.273,2.35,2.35,0,0,1,1.2.3,1.818,1.818,0,0,1,.773.846,2.14,2.14,0,0,1,.837-.846A2.349,2.349,0,0,1,565.373,1438.008Z" transform="translate(-546.037 -1382.429)"/>
        <path id="Trazado_133391" data-name="Trazado 133391" d="M575.5,1438.146h1.192v6.988h-1.183v-.91a2.178,2.178,0,0,1-.864.782,2.682,2.682,0,0,1-1.219.273,2.45,2.45,0,0,1-1.765-.628,2.385,2.385,0,0,1-.655-1.82v-4.7h1.228v4.441a1.67,1.67,0,0,0,.428,1.247,1.516,1.516,0,0,0,1.1.419,1.679,1.679,0,0,0,1.237-.482,1.968,1.968,0,0,0,.491-1.428Z" transform="translate(-547.184 -1382.44)"/>
        <path id="Trazado_133392" data-name="Trazado 133392" d="M582.172,1444.906a1.822,1.822,0,0,1-1.365-.5,1.912,1.912,0,0,1-.491-1.392V1438.9h-1.429v-.983h.528a.986.986,0,0,0,.764-.245,1.175,1.175,0,0,0,.227-.819v-1.265h1.147v2.329h1.6v.983h-1.6v3.985a1.03,1.03,0,0,0,.264.764.913.913,0,0,0,.7.273h.637v.983Z" transform="translate(-547.895 -1382.211)"/>
        <path id="Trazado_133393" data-name="Trazado 133393" d="M587.045,1445.291a2.4,2.4,0,0,1-1.538-.482,1.712,1.712,0,0,1-.6-1.429,2,2,0,0,1,.191-.91,1.544,1.544,0,0,1,.573-.637,3.073,3.073,0,0,1,.819-.4,8.6,8.6,0,0,1,1.065-.255l1.128-.182c.409-.073.619-.291.619-.646a1.209,1.209,0,0,0-.437-1.037,1.753,1.753,0,0,0-1.11-.337,1.815,1.815,0,0,0-1.092.319,1.368,1.368,0,0,0-.519.983l-1.11-.237a2.182,2.182,0,0,1,.91-1.492,3.27,3.27,0,0,1,1.911-.5,3.912,3.912,0,0,1,1.01.127,2.552,2.552,0,0,1,.846.391,1.764,1.764,0,0,1,.6.746,2.807,2.807,0,0,1,.218,1.156v2.884a1.174,1.174,0,0,0,.164.728.685.685,0,0,0,.546.191h.118v.91h-.673c-.755,0-1.2-.309-1.329-.91H589.3A2.649,2.649,0,0,1,587.045,1445.291Zm.282-.992a1.87,1.87,0,0,0,1.5-.682,2.8,2.8,0,0,0,.564-1.82l-1.82.355a2.43,2.43,0,0,0-1.083.391,1.018,1.018,0,0,0-.018,1.529,1.415,1.415,0,0,0,.819.2Z" transform="translate(-548.436 -1382.432)"/>
        <path id="Trazado_133394" data-name="Trazado 133394" d="M597.531,1437.633a3.017,3.017,0,0,1,2.3,1.01,3.636,3.636,0,0,1,.91,2.63,3.716,3.716,0,0,1-.91,2.63,3.033,3.033,0,0,1-2.311,1.01,2.792,2.792,0,0,1-1.492-.41,2.6,2.6,0,0,1-1-1.1v1.356h-1.192v-10.919h1.228v5.268a2.561,2.561,0,0,1,.992-1.074A2.849,2.849,0,0,1,597.531,1437.633Zm-.273,6.206a2.171,2.171,0,0,0,1.638-.71,2.632,2.632,0,0,0,.655-1.82,2.662,2.662,0,0,0-.655-1.865,2.165,2.165,0,0,0-1.638-.71,2.088,2.088,0,0,0-1.62.737,2.62,2.62,0,0,0-.664,1.82,2.675,2.675,0,0,0,.655,1.82,2.12,2.12,0,0,0,1.629.719Z" transform="translate(-549.241 -1382.054)"/>
        <path id="Trazado_133395" data-name="Trazado 133395" d="M603.6,1444.747v-10.919h1.247v10.919Z" transform="translate(-550.12 -1382.053)"/>
        <path id="Trazado_133396" data-name="Trazado 133396" d="M613.771,1441.5v.337h-5.46a2.449,2.449,0,0,0,.664,1.82,2.188,2.188,0,0,0,1.592.628,2.113,2.113,0,0,0,1.956-1.265l1.11.237a3.16,3.16,0,0,1-1.192,1.5,3.276,3.276,0,0,1-1.82.546,3.417,3.417,0,0,1-2.521-.974,4.159,4.159,0,0,1,0-5.314,3.329,3.329,0,0,1,2.475-.974,3.147,3.147,0,0,1,2.348.91A3.527,3.527,0,0,1,613.771,1441.5Zm-3.23-2.548a2.145,2.145,0,0,0-1.456.5,2.265,2.265,0,0,0-.737,1.438h4.186a2.047,2.047,0,0,0-.61-1.438,1.925,1.925,0,0,0-1.383-.528Z" transform="translate(-550.44 -1382.432)"/>
        <path id="Trazado_133397" data-name="Trazado 133397" d="M544.837,1464.017v-10.009h1.292v10.009Z" transform="translate(-544.828 -1383.87)"/>
        <path id="Trazado_133398" data-name="Trazado 133398" d="M552.639,1457.2a2.443,2.443,0,0,1,1.756.637,2.365,2.365,0,0,1,.655,1.82v4.65h-1.237v-4.432a1.667,1.667,0,0,0-.428-1.247,1.5,1.5,0,0,0-1.092-.41,1.706,1.706,0,0,0-1.247.482,1.993,1.993,0,0,0-.491,1.429v4.177h-1.228v-6.988h1.228v.91A2.327,2.327,0,0,1,552.639,1457.2Z" transform="translate(-545.232 -1384.157)"/>
        <path id="Trazado_133399" data-name="Trazado 133399" d="M559.786,1464.461a2.389,2.389,0,0,1-1.529-.482,1.712,1.712,0,0,1-.6-1.429,2.065,2.065,0,0,1,.191-.91,1.575,1.575,0,0,1,.573-.628,3.073,3.073,0,0,1,.819-.4,8.215,8.215,0,0,1,1.065-.255l1.128-.182c.409-.073.619-.291.619-.646a1.209,1.209,0,0,0-.437-1.037,1.752,1.752,0,0,0-1.11-.337,1.816,1.816,0,0,0-1.092.318,1.369,1.369,0,0,0-.519.983l-1.11-.237a2.182,2.182,0,0,1,.91-1.492,3.269,3.269,0,0,1,1.911-.5,3.891,3.891,0,0,1,1.01.127,2.645,2.645,0,0,1,.846.391,1.764,1.764,0,0,1,.6.746,2.808,2.808,0,0,1,.218,1.156v2.839a1.175,1.175,0,0,0,.164.728.679.679,0,0,0,.546.191h.118v.91h-.61c-.755,0-1.2-.309-1.329-.91h-.055A2.678,2.678,0,0,1,559.786,1464.461Zm.291-.992a1.87,1.87,0,0,0,1.5-.682,2.8,2.8,0,0,0,.564-1.82l-1.82.355a2.431,2.431,0,0,0-1.083.391,1.018,1.018,0,0,0-.018,1.529A1.413,1.413,0,0,0,560.077,1463.47Z" transform="translate(-545.982 -1384.16)"/>
        <path id="Trazado_133400" data-name="Trazado 133400" d="M570.3,1457.2a3.294,3.294,0,0,1,1.265.255,3.192,3.192,0,0,1,1.037.719,3.394,3.394,0,0,1,.7,1.156,4.273,4.273,0,0,1,.255,1.51,3.639,3.639,0,0,1-.91,2.63,3.048,3.048,0,0,1-2.32,1.01,2.789,2.789,0,0,1-1.465-.4,2.625,2.625,0,0,1-.992-1.074v4.841h-1.237v-10.51h1.192v1.356a2.53,2.53,0,0,1,.992-1.083A2.77,2.77,0,0,1,570.3,1457.2Zm-.246,6.206a2.1,2.1,0,0,0,1.62-.7,2.986,2.986,0,0,0,0-3.731,2.1,2.1,0,0,0-1.62-.7,2.143,2.143,0,0,0-1.638.728,2.848,2.848,0,0,0,0,3.64,2.151,2.151,0,0,0,1.638.755Z" transform="translate(-546.791 -1384.157)"/>
        <path id="Trazado_133401" data-name="Trazado 133401" d="M582.451,1460.666V1461h-5.46a2.486,2.486,0,0,0,.664,1.82,2.2,2.2,0,0,0,1.592.628,2.113,2.113,0,0,0,1.956-1.265l1.11.236a3.106,3.106,0,0,1-1.192,1.5,3.278,3.278,0,0,1-1.82.546,3.419,3.419,0,0,1-2.52-.974,4.159,4.159,0,0,1,0-5.314,3.328,3.328,0,0,1,2.475-.974,3.128,3.128,0,0,1,2.348.91A3.527,3.527,0,0,1,582.451,1460.666Zm-3.239-2.548a2.161,2.161,0,0,0-1.456.5,2.207,2.207,0,0,0-.728,1.438h4.186a2.09,2.09,0,0,0-.619-1.438,1.93,1.93,0,0,0-1.383-.473Z" transform="translate(-547.619 -1384.158)"/>
        <path id="Trazado_133402" data-name="Trazado 133402" d="M587.351,1464.086a1.823,1.823,0,0,1-1.365-.5,1.886,1.886,0,0,1-.5-1.392v-4.113h-1.429v-.983h.528a1.032,1.032,0,0,0,.773-.246,1.23,1.23,0,0,0,.218-.819v-1.265h1.147v2.329h1.6v.983h-1.6v3.985a1.065,1.065,0,0,0,.264.764.913.913,0,0,0,.7.273h.637v.983Z" transform="translate(-548.36 -1383.939)"/>
        <path id="Trazado_133403" data-name="Trazado 133403" d="M596.671,1460.667V1461h-5.46a2.449,2.449,0,0,0,.664,1.82,2.189,2.189,0,0,0,1.592.628,2.125,2.125,0,0,0,1.156-.337,2.164,2.164,0,0,0,.8-.91l1.11.237a3.22,3.22,0,0,1-1.192,1.5,3.276,3.276,0,0,1-1.82.546,3.4,3.4,0,0,1-2.521-.974,4.159,4.159,0,0,1,0-5.314,3.329,3.329,0,0,1,2.475-.974,3.146,3.146,0,0,1,2.348.91A3.529,3.529,0,0,1,596.671,1460.667Zm-3.23-2.548a2.145,2.145,0,0,0-1.456.5,2.265,2.265,0,0,0-.737,1.438h4.186a2.047,2.047,0,0,0-.61-1.438,1.929,1.929,0,0,0-1.383-.473Z" transform="translate(-548.899 -1384.16)"/>
        <path id="Trazado_133404" data-name="Trazado 133404" d="M602.741,1457.2a2.455,2.455,0,0,1,1.765.637,2.365,2.365,0,0,1,.655,1.82v4.65h-1.228v-4.432a1.667,1.667,0,0,0-.428-1.247,1.5,1.5,0,0,0-1.092-.41,1.689,1.689,0,0,0-1.247.482,1.993,1.993,0,0,0-.491,1.429v4.177h-1.228v-6.988h1.228v.91A2.328,2.328,0,0,1,602.741,1457.2Z" transform="translate(-549.746 -1384.157)"/>
        <path id="Trazado_133405" data-name="Trazado 133405" d="M610.462,1464.086a1.823,1.823,0,0,1-1.365-.5,1.913,1.913,0,0,1-.491-1.392v-4.113h-1.429v-.983h.519a1,1,0,0,0,.773-.246,1.174,1.174,0,0,0,.227-.819v-1.265h1.147v2.329h1.6v.983h-1.6v3.985a1.031,1.031,0,0,0,.264.764.913.913,0,0,0,.7.273h.637v.983Z" transform="translate(-550.443 -1383.939)"/>
        <path id="Trazado_133406" data-name="Trazado 133406" d="M619.791,1460.667V1461h-5.46a2.449,2.449,0,0,0,.673,1.82,2.188,2.188,0,0,0,1.592.628,2.124,2.124,0,0,0,1.156-.337,2.229,2.229,0,0,0,.8-.91l1.11.237a3.17,3.17,0,0,1-1.2,1.5,3.276,3.276,0,0,1-1.82.546,3.378,3.378,0,0,1-2.511-.974,4.14,4.14,0,0,1,0-5.314,3.362,3.362,0,0,1,2.484-.974,3.146,3.146,0,0,1,2.348.91A3.532,3.532,0,0,1,619.791,1460.667Zm-3.23-2.548a2.145,2.145,0,0,0-1.456.5,2.265,2.265,0,0,0-.737,1.438h4.186a2.08,2.08,0,0,0-.61-1.438,1.951,1.951,0,0,0-1.383-.473Z" transform="translate(-550.982 -1384.16)"/>
      </g>
      <g id="Grupo_63641" data-name="Grupo 63641" transform="translate(148.774 106.08)">
        <path id="Trazado_133407" data-name="Trazado 133407" d="M551.562,1343.118h2.12v10.273h-2.466l-4.55-7.343v7.343h-2.129v-10.273h2.475l4.55,7.279Z" transform="translate(-544.537 -1342.636)"/>
        <path id="Trazado_133408" data-name="Trazado 133408" d="M564.006,1349.91v.491h-5.46a1.875,1.875,0,0,0,.582,1.338,1.983,1.983,0,0,0,2.247.209,1.6,1.6,0,0,0,.619-.737l1.875.273a3.2,3.2,0,0,1-1.283,1.72,3.844,3.844,0,0,1-2.157.61,3.953,3.953,0,0,1-2.848-1.01,3.643,3.643,0,0,1-1.056-2.784,3.72,3.72,0,0,1,1.056-2.793,3.847,3.847,0,0,1,2.784-1.019,3.338,3.338,0,0,1,3.64,3.7Zm-3.64-2.257a1.619,1.619,0,0,0-1.774,1.41h3.358a1.538,1.538,0,0,0-.51-1.046,1.608,1.608,0,0,0-1.037-.364Z" transform="translate(-545.616 -1342.913)"/>
        <path id="Trazado_133409" data-name="Trazado 133409" d="M571.433,1346.361h1.947v6.761a5.464,5.464,0,0,1-.273,1.82,2.944,2.944,0,0,1-.792,1.247,3.336,3.336,0,0,1-1.219.7,5.046,5.046,0,0,1-1.592.228q-2.894,0-3.767-2.266l1.7-.728a2.466,2.466,0,0,0,.783,1.065,2.016,2.016,0,0,0,1.2.337c1.265,0,1.9-.746,1.9-2.257v-.874a2.306,2.306,0,0,1-.91.719,3.1,3.1,0,0,1-1.3.273,3.269,3.269,0,0,1-1.283-.255,3.237,3.237,0,0,1-1.783-1.874,4.306,4.306,0,0,1,0-2.966,3.252,3.252,0,0,1,.728-1.128,3.024,3.024,0,0,1,1.065-.71,3.27,3.27,0,0,1,1.292-.264,2.994,2.994,0,0,1,1.356.309,2.092,2.092,0,0,1,.91.8Zm-3.139,4.832a1.77,1.77,0,0,0,1.338.564,1.82,1.82,0,0,0,1.347-.564,2.048,2.048,0,0,0,0-2.784,1.9,1.9,0,0,0-2.689-.041l-.041.041a1.947,1.947,0,0,0-.537,1.4,1.912,1.912,0,0,0,.582,1.383Z" transform="translate(-546.446 -1342.912)"/>
        <path id="Trazado_133410" data-name="Trazado 133410" d="M582.412,1351.69a6.807,6.807,0,0,0,.173,1.82v.2h-1.911l-.164-.792a2.369,2.369,0,0,1-1.019.7,3.836,3.836,0,0,1-1.319.237,3.309,3.309,0,0,1-.682-.064,2.534,2.534,0,0,1-.619-.218,1.841,1.841,0,0,1-.51-.382,1.54,1.54,0,0,1-.337-.573,2.547,2.547,0,0,1,0-1.592,1.977,1.977,0,0,1,.355-.591,2.238,2.238,0,0,1,.582-.437,4.481,4.481,0,0,1,.719-.309,8.291,8.291,0,0,1,.91-.228l1.2-.273a1.3,1.3,0,0,0,.546-.227.484.484,0,0,0,.155-.364.771.771,0,0,0-.355-.71,1.811,1.811,0,0,0-.91-.209,1.256,1.256,0,0,0-1.422,1.064c0,.018,0,.036-.006.055l-1.82-.328a2.458,2.458,0,0,1,1.055-1.674,4.221,4.221,0,0,1,2.293-.537q3.075,0,3.076,2.639Zm-3.64.746a1.65,1.65,0,0,0,1.265-.537,2.212,2.212,0,0,0,.491-1.565l-1.738.491a1.933,1.933,0,0,0-.728.3.617.617,0,0,0-.255.528.676.676,0,0,0,.273.573,1.122,1.122,0,0,0,.728.173Z" transform="translate(-547.361 -1342.918)"/>
        <path id="Trazado_133411" data-name="Trazado 133411" d="M587.764,1353.452a2.214,2.214,0,0,1-1.647-.591,2.3,2.3,0,0,1-.582-1.693v-3.449H584.1v-1.574h.464a1.236,1.236,0,0,0,.91-.3,1.621,1.621,0,0,0,.291-1.092v-.964h1.82v2.357h1.5v1.574h-1.474v3.23c0,.637.282.91.846.91h.655v1.556Z" transform="translate(-548.1 -1342.696)"/>
        <path id="Trazado_133412" data-name="Trazado 133412" d="M592.38,1344.945a1.177,1.177,0,0,1-.837-.346,1.146,1.146,0,0,1-.346-.837,1.118,1.118,0,0,1,.355-.828,1.164,1.164,0,0,1,1.647-.009l.009.009a1.174,1.174,0,0,1,.005,1.66l-.005.005A1.138,1.138,0,0,1,592.38,1344.945Zm-1.037,8.4v-7.279H593.4v7.279Z" transform="translate(-548.74 -1342.588)"/>
        <path id="Trazado_133413" data-name="Trazado 133413" d="M600.6,1346.378h2.166l-3.112,7.28h-1.82l-3.076-7.28h2.157l1.82,5Z" transform="translate(-549.06 -1342.929)"/>
        <path id="Trazado_133414" data-name="Trazado 133414" d="M607.761,1353.821a4.7,4.7,0,0,1-2.065-.446,3.371,3.371,0,0,1-1.419-1.319,3.878,3.878,0,0,1-.519-2.038,3.642,3.642,0,0,1,1.11-2.73,4.631,4.631,0,0,1,5.8,0,4.04,4.04,0,0,1,0,5.56A4.15,4.15,0,0,1,607.761,1353.821Zm0-1.629a1.886,1.886,0,0,0,1.447-.6,2.223,2.223,0,0,0,.546-1.574,2.263,2.263,0,0,0-.546-1.583,1.909,1.909,0,0,0-1.447-.591,1.817,1.817,0,0,0-1.41.6,2.576,2.576,0,0,0,0,3.149,1.821,1.821,0,0,0,1.392.6Z" transform="translate(-549.871 -1342.919)"/>
      </g>
    </g>
  </g>
</svg>
