<svg xmlns="http://www.w3.org/2000/svg" width="393.978" height="290.349" viewBox="0 0 393.978 290.349">
  <g id="Grupo_63934" data-name="Grupo 63934" transform="translate(-603.011 -8805.59)">
    <rect id="Image_Place_Holder" data-name="Image Place Holder" width="393.978" height="266.693" rx="10" transform="translate(603.011 8829.245)" fill="#d44f4a"/>
    <g id="Grupo_63774" data-name="Grupo 63774" transform="translate(263.653 5823.297)">
      <g id="Grupo_63773" data-name="Grupo 63773">
        <circle id="Elipse_5344" data-name="Elipse 5344" cx="94.08" cy="94.08" r="94.08" transform="translate(442.346 2982.293)" fill="#d8b8ba"/>
        <g id="Grupo_63772" data-name="Grupo 63772">
          <path id="Trazado_134212" data-name="Trazado 134212" d="M593.178,3215.548c0,3.3-25.445,5.986-56.84,5.986s-56.841-2.665-56.841-5.986,25.445-5.977,56.841-5.977S593.178,3212.244,593.178,3215.548Z" opacity="0.1" style="isolation: isolate"/>
          <g id="Grupo_63771" data-name="Grupo 63771">
            <g id="Grupo_63759" data-name="Grupo 63759">
              <g id="Grupo_63757" data-name="Grupo 63757">
                <path id="Trazado_134213" data-name="Trazado 134213" d="M491.895,3196.151l7.558,3.686-.159,8.25a1.021,1.021,0,0,1-1.963.391l-1.91-4.334-5.8-2.149Z" fill="#313444"/>
                <path id="Trazado_134214" data-name="Trazado 134214" d="M505.288,3146.149s-26.644,13.935-25.809,51.21h12.7s-3.278-36.05,18.846-44.238Z" fill="#313444"/>
                <path id="Trazado_134215" data-name="Trazado 134215" d="M477.028,3189.987h17.2v11.4a6.119,6.119,0,0,1-6.119,6.119h-4.974a6.119,6.119,0,0,1-6.119-6.119v-11.4Z" fill="#d9353a"/>
                <path id="Trazado_134216" data-name="Trazado 134216" d="M479.479,3197.359l-9.21,3.686.213,9.023a1.031,1.031,0,0,0,1.928.462l2.735-5.178,7.105-2.149Z" fill="#313444"/>
                <path id="Trazado_134217" data-name="Trazado 134217" d="M488.822,3197.972l-2.273,5.844,1.847,3.987-.133,3.89a1.021,1.021,0,0,0,1.98.444l4.335-9.272Z" fill="#313444"/>
              </g>
              <g id="Grupo_63758" data-name="Grupo 63758">
                <path id="Trazado_134218" data-name="Trazado 134218" d="M580.966,3196.151l-7.567,3.686.16,8.25a1.021,1.021,0,0,0,1.963.391l1.909-4.343,5.8-2.149Z" fill="#313444"/>
                <path id="Trazado_134219" data-name="Trazado 134219" d="M567.564,3146.149s26.644,13.935,25.81,51.21h-12.7s3.277-36.05-18.846-44.238Z" fill="#313444"/>
                <path id="Trazado_134220" data-name="Trazado 134220" d="M589.706,3207.5h-4.974a6.118,6.118,0,0,1-6.119-6.119v-11.4h17.212v11.4A6.119,6.119,0,0,1,589.706,3207.5Z" fill="#d9353a"/>
                <path id="Trazado_134221" data-name="Trazado 134221" d="M593.374,3197.359l9.209,3.686-.213,9.023a1.03,1.03,0,0,1-1.927.462l-2.735-5.178-7.1-2.149Z" fill="#313444"/>
                <path id="Trazado_134222" data-name="Trazado 134222" d="M584.039,3197.972l2.265,5.844-1.847,3.987.133,3.89a1.021,1.021,0,0,1-1.981.444l-4.334-9.272Z" fill="#313444"/>
              </g>
            </g>
            <rect id="Rectángulo_8099" data-name="Rectángulo 8099" width="37.275" height="30.721" transform="translate(517.784 3139.186)" fill="#aa2731"/>
            <rect id="Rectángulo_8100" data-name="Rectángulo 8100" width="37.275" height="30.721" transform="translate(517.784 3114.203)" fill="#313444"/>
            <path id="Trazado_134223" data-name="Trazado 134223" d="M562.609,3155h-52.4a8.749,8.749,0,0,1-8.74-8.739h0a8.749,8.749,0,0,1,8.74-8.74h52.4a8.749,8.749,0,0,1,8.739,8.74h0A8.749,8.749,0,0,1,562.609,3155Z" fill="#d9353a"/>
            <g id="Grupo_63768" data-name="Grupo 63768">
              <g id="Grupo_63763" data-name="Grupo 63763">
                <g id="Grupo_63762" data-name="Grupo 63762">
                  <g id="Grupo_63760" data-name="Grupo 63760">
                    <path id="Trazado_134224" data-name="Trazado 134224" d="M518.175,3197.234h12.016l3.339-2.638h-18.7Z" fill="#313444"/>
                    <path id="Trazado_134225" data-name="Trazado 134225" d="M514.827,3182.749l3.348,2.638h12.016l3.339-2.638Z" fill="#313444"/>
                    <path id="Trazado_134226" data-name="Trazado 134226" d="M514.827,3188.46h18.7l-3.339-3.073H518.175Z" fill="#6881ac"/>
                    <path id="Trazado_134227" data-name="Trazado 134227" d="M518.175,3191.533h12.016l3.339-3.073h-18.7Z" fill="#313444"/>
                    <path id="Trazado_134228" data-name="Trazado 134228" d="M514.827,3194.6h18.7l-3.339-3.064H518.175Z" fill="#6881ac"/>
                  </g>
                  <g id="Grupo_63761" data-name="Grupo 63761">
                    <path id="Trazado_134229" data-name="Trazado 134229" d="M518.175,3209.091h12.016l3.339-2.638h-18.7Z" fill="#313444"/>
                    <path id="Trazado_134230" data-name="Trazado 134230" d="M514.827,3200.307h18.7l-3.339-3.073H518.175Z" fill="#6881ac"/>
                    <path id="Trazado_134231" data-name="Trazado 134231" d="M518.175,3203.38h12.016l3.339-3.073h-18.7Z" fill="#313444"/>
                    <path id="Trazado_134232" data-name="Trazado 134232" d="M514.827,3206.453h18.7l-3.339-3.073H518.175Z" fill="#6881ac"/>
                  </g>
                </g>
                <path id="Trazado_134233" data-name="Trazado 134233" d="M534.064,3215.619H514.3l1.35-6.99h17.052Z" fill="#d9353a"/>
                <path id="Trazado_134234" data-name="Trazado 134234" d="M534.064,3215.619H514.3l1.35,1.563h17.052Z" fill="#aa2731"/>
              </g>
              <g id="Grupo_63767" data-name="Grupo 63767">
                <g id="Grupo_63766" data-name="Grupo 63766">
                  <g id="Grupo_63764" data-name="Grupo 63764">
                    <path id="Trazado_134235" data-name="Trazado 134235" d="M542.661,3197.234h12.016l3.348-2.638h-18.7Z" fill="#313444"/>
                    <path id="Trazado_134236" data-name="Trazado 134236" d="M539.322,3182.749l3.339,2.638h12.016l3.348-2.638Z" fill="#313444"/>
                    <path id="Trazado_134237" data-name="Trazado 134237" d="M539.322,3188.46h18.7l-3.348-3.073H542.661Z" fill="#6881ac"/>
                    <path id="Trazado_134238" data-name="Trazado 134238" d="M542.661,3191.533h12.016l3.348-3.073h-18.7Z" fill="#313444"/>
                    <path id="Trazado_134239" data-name="Trazado 134239" d="M539.322,3194.6h18.7l-3.348-3.064H542.661Z" fill="#6881ac"/>
                  </g>
                  <g id="Grupo_63765" data-name="Grupo 63765">
                    <path id="Trazado_134240" data-name="Trazado 134240" d="M542.661,3209.091h12.016l3.348-2.638h-18.7Z" fill="#313444"/>
                    <path id="Trazado_134241" data-name="Trazado 134241" d="M539.322,3200.307h18.7l-3.348-3.073H542.661Z" fill="#6881ac"/>
                    <path id="Trazado_134242" data-name="Trazado 134242" d="M542.661,3203.38h12.016l3.348-3.073h-18.7Z" fill="#313444"/>
                    <path id="Trazado_134243" data-name="Trazado 134243" d="M539.322,3206.453h18.7l-3.348-3.073H542.661Z" fill="#6881ac"/>
                  </g>
                </g>
                <path id="Trazado_134244" data-name="Trazado 134244" d="M558.55,3215.619H538.789l1.359-6.99H557.2Z" fill="#d9353a"/>
                <path id="Trazado_134245" data-name="Trazado 134245" d="M558.55,3215.619H538.789l1.359,1.563H557.2Z" fill="#aa2731"/>
              </g>
            </g>
            <rect id="Rectángulo_8101" data-name="Rectángulo 8101" width="46.423" height="14.059" transform="translate(513.219 3169.436)" fill="#d9353a"/>
            <g id="Grupo_63770" data-name="Grupo 63770">
              <path id="Trazado_134246" data-name="Trazado 134246" d="M561.063,3134.4H511.79a41.5,41.5,0,0,1-41.5-41.5h0a41.5,41.5,0,0,1,41.494-41.512h49.282a41.5,41.5,0,0,1,41.5,41.5h0a41.5,41.5,0,0,1-41.494,41.511Z" fill="#d9353a"/>
              <path id="Trazado_134247" data-name="Trazado 134247" d="M556.489,3126.7H516.363a33.811,33.811,0,0,1-33.811-33.8h0a33.821,33.821,0,0,1,33.811-33.812h40.126A33.821,33.821,0,0,1,590.3,3092.9h0A33.812,33.812,0,0,1,556.489,3126.7Z" fill="#313444"/>
              <path id="Trazado_134248" data-name="Trazado 134248" d="M512.154,3086.751a4.342,4.342,0,0,0-6.142,0l0,0-10.365,10.364a4.346,4.346,0,0,0,6.146,6.146l4.219-4.219a4.343,4.343,0,0,1,6.142,0l0,0,4.218,4.219a4.346,4.346,0,0,0,6.146-6.146Zm65.055,10.364-10.364-10.364a4.343,4.343,0,0,0-6.142,0l0,0-10.364,10.364a4.346,4.346,0,0,0,6.145,6.146l4.219-4.219a4.343,4.343,0,0,1,6.142,0l0,0,4.219,4.219a4.346,4.346,0,1,0,6.145-6.146Z" fill="#00cfff"/>
              <g id="Grupo_63769" data-name="Grupo 63769">
                <path id="Trazado_134249" data-name="Trazado 134249" d="M483.582,3067.7l24.992-11.217-4.716-1.687Z" fill="#d9353a"/>
                <path id="Trazado_134250" data-name="Trazado 134250" d="M559.163,3054.183l-22.736,1.03-22.736-1.03-5.116,2.3,3.89,1.385,7.372,12.9h33.181l7.38-12.9,3.881-1.385Z" fill="#d9353a"/>
                <path id="Trazado_134251" data-name="Trazado 134251" d="M568.994,3054.8l-4.716,1.688L589.27,3067.7Z" fill="#d9353a"/>
              </g>
            </g>
          </g>
        </g>
      </g>
    </g>
  </g>
</svg>
