<svg xmlns="http://www.w3.org/2000/svg" width="293.728" height="373.255" viewBox="0 0 293.728 373.255">
  <g id="Grupo_63702" data-name="Grupo 63702" transform="translate(-1043.031 -2038.809)">
    <rect id="Rect치ngulo_8025" data-name="Rect치ngulo 8025" width="293.728" height="373.255" rx="20.609" transform="translate(1043.031 2038.809)" fill="#f2f2f2"/>
    <g id="Grupo_63701" data-name="Grupo 63701" transform="translate(1062.065 2089.142)">
      <rect id="Rect치ngulo_8026" data-name="Rect치ngulo 8026" width="255.659" height="272.589" transform="translate(0 0)" fill="#f2f2f2"/>
      <g id="Grupo_63696" data-name="Grupo 63696" transform="translate(31.574 48.904)">
        <path id="Trazado_133883" data-name="Trazado 133883" d="M1127.7,2174.2h-5.036l-1.6-18.327-6.161,18.327h-3.266l-6.16-18.327-1.615,18.327h-5.054l2.042-24.325h7.2l5.181,15.27,5.253-15.27h7.2Z" transform="translate(-1098.81 -2148.342)"/>
        <path id="Trazado_133884" data-name="Trazado 133884" d="M1149.723,2170.186a16.1,16.1,0,0,0,.426,4.219v.472h-4.536l-.381-1.887a5.611,5.611,0,0,1-2.422,1.669,8.961,8.961,0,0,1-3.13.553,8.412,8.412,0,0,1-1.624-.145,5.653,5.653,0,0,1-1.452-.517,4.318,4.318,0,0,1-1.207-.907,3.98,3.98,0,0,1-.807-1.37,5.6,5.6,0,0,1-.3-1.878,5.1,5.1,0,0,1,.318-1.878,4.231,4.231,0,0,1,.844-1.406,4.935,4.935,0,0,1,1.361-1.025,10.062,10.062,0,0,1,1.715-.744,19.362,19.362,0,0,1,2.06-.535l2.84-.644a3.148,3.148,0,0,0,1.288-.545,1.09,1.09,0,0,0,.381-.907,1.813,1.813,0,0,0-.853-1.66,3.876,3.876,0,0,0-2.06-.508q-2.977,0-3.384,2.64l-4.292-.771a5.8,5.8,0,0,1,2.5-3.947,9.98,9.98,0,0,1,5.444-1.27q7.258,0,7.258,6.242Zm-8.529,1.742a3.921,3.921,0,0,0,2.994-1.252,5.291,5.291,0,0,0,1.161-3.711l-4.11,1.2a4.912,4.912,0,0,0-1.724.708,1.451,1.451,0,0,0-.6,1.243,1.628,1.628,0,0,0,.635,1.379A2.726,2.726,0,0,0,1141.194,2171.928Z" transform="translate(-1102.099 -2149.019)"/>
        <path id="Trazado_133885" data-name="Trazado 133885" d="M1161.145,2160.33a5.649,5.649,0,0,1,2.268-2.078,6.93,6.93,0,0,1,3.384-.907v4.319a6.59,6.59,0,0,0-4.137,1.071c-.853.7-1.279,1.933-1.279,3.711v8.447H1156.5v-17.3h4.645Z" transform="translate(-1104.158 -2149.034)"/>
        <path id="Trazado_133886" data-name="Trazado 133886" d="M1175.635,2160.33a5.649,5.649,0,0,1,2.268-2.078,6.93,6.93,0,0,1,3.384-.907v4.319a6.59,6.59,0,0,0-4.137,1.071c-.853.7-1.279,1.933-1.279,3.711v8.447h-4.881v-17.3h4.645Z" transform="translate(-1105.501 -2149.034)"/>
        <path id="Trazado_133887" data-name="Trazado 133887" d="M1193.26,2174.379a10.893,10.893,0,0,1-4.9-1.061,7.965,7.965,0,0,1-3.366-3.112,9.332,9.332,0,0,1-1.216-4.827,8.464,8.464,0,0,1,2.622-6.569,11,11,0,0,1,13.727,0,9.562,9.562,0,0,1,0,13.156A9.735,9.735,0,0,1,1193.26,2174.379Zm0-3.856a4.474,4.474,0,0,0,3.4-1.379,6.033,6.033,0,0,0,0-7.476,4.445,4.445,0,0,0-3.4-1.442,4.244,4.244,0,0,0-3.321,1.424,6.042,6.042,0,0,0,0,7.458A4.266,4.266,0,0,0,1193.26,2170.523Zm-1.452-16.141,4.419-6.2,2.386,1.688-3.82,4.537Z" transform="translate(-1106.686 -2148.185)"/>
        <path id="Trazado_133888" data-name="Trazado 133888" d="M1218.9,2157.283a6.751,6.751,0,0,1,4.791,1.515,5.773,5.773,0,0,1,1.669,4.437v11.65H1220.5v-10.606a2.987,2.987,0,0,0-.907-2.386,3.23,3.23,0,0,0-2.232-.762,4.565,4.565,0,0,0-1.443.218,3.97,3.97,0,0,0-1.216.689,3.019,3.019,0,0,0-.862,1.3,5.983,5.983,0,0,0-.327,2.005v9.545h-4.854v-17.3h4.854v1.915A6.677,6.677,0,0,1,1218.9,2157.283Z" transform="translate(-1108.993 -2149.027)"/>
      </g>
      <g id="Grupo_63697" data-name="Grupo 63697" transform="translate(34.341 136.294)">
        <path id="Trazado_133889" data-name="Trazado 133889" d="M1107.974,2246.671h-4.047v3.266h3.566v1.143h-3.566v3.3h4.047v1.152h-5.344v-9.98h5.344Z" transform="translate(-1101.931 -2244.602)"/>
        <path id="Trazado_133890" data-name="Trazado 133890" d="M1113,2255.917a3.3,3.3,0,0,1-1.878-.5,2.1,2.1,0,0,1-.907-1.434l1.071-.308a1.548,1.548,0,0,0,.572.971,1.878,1.878,0,0,0,1.143.345,2.536,2.536,0,0,0,.671-.091,1.165,1.165,0,0,0,.517-.344.987.987,0,0,0,.209-.635.955.955,0,0,0-.063-.29,1.037,1.037,0,0,0-.109-.227.574.574,0,0,0-.2-.19,2.046,2.046,0,0,0-.245-.155,1.851,1.851,0,0,0-.308-.127l-.345-.118-.39-.109-.4-.118c-.29-.091-.535-.173-.726-.254a3.361,3.361,0,0,1-.59-.336,1.362,1.362,0,0,1-.454-.553,1.861,1.861,0,0,1-.154-.78,1.814,1.814,0,0,1,.345-1.107,1.887,1.887,0,0,1,.907-.662,3.484,3.484,0,0,1,1.234-.2,3.024,3.024,0,0,1,1.7.454,1.941,1.941,0,0,1,.853,1.361l-1.007.254a1.332,1.332,0,0,0-.535-.907,1.646,1.646,0,0,0-1-.3,1.736,1.736,0,0,0-.907.245.825.825,0,0,0-.39.753.779.779,0,0,0,.1.381,1.532,1.532,0,0,0,.209.272,1.145,1.145,0,0,0,.39.208,3.23,3.23,0,0,0,.408.154l.508.127h.109l.671.191a4.72,4.72,0,0,1,.6.254,2.2,2.2,0,0,1,.544.381,1.9,1.9,0,0,1,.481,1.288,2.1,2.1,0,0,1-.209.907,1.629,1.629,0,0,1-.572.644,2.729,2.729,0,0,1-.807.345A3.725,3.725,0,0,1,1113,2255.917Z" transform="translate(-1102.633 -2244.893)"/>
        <path id="Trazado_133891" data-name="Trazado 133891" d="M1120.354,2255.558a1.813,1.813,0,0,1-1.361-.5,1.88,1.88,0,0,1-.5-1.388v-4.1h-1.425v-.98h.526a1.025,1.025,0,0,0,.771-.245,1.227,1.227,0,0,0,.218-.816v-1.243h1.143v2.323h1.606v.98h-1.606v3.956a1.062,1.062,0,0,0,.263.762.907.907,0,0,0,.7.272h.644v.98Z" transform="translate(-1103.269 -2244.67)"/>
        <path id="Trazado_133892" data-name="Trazado 133892" d="M1125.183,2255.917a2.358,2.358,0,0,1-1.524-.481,1.706,1.706,0,0,1-.6-1.425,2.007,2.007,0,0,1,.191-.907,1.512,1.512,0,0,1,.563-.635,3.436,3.436,0,0,1,.817-.4,7.742,7.742,0,0,1,1.062-.245l1.125-.19c.417-.073.617-.291.617-.644a1.207,1.207,0,0,0-.436-1.035,1.721,1.721,0,0,0-1.1-.335,1.866,1.866,0,0,0-1.1.317,1.368,1.368,0,0,0-.517.98l-1.1-.227a2.113,2.113,0,0,1,.907-1.5,3.206,3.206,0,0,1,1.9-.5,3.807,3.807,0,0,1,1.007.127,2.549,2.549,0,0,1,.844.39,1.715,1.715,0,0,1,.608.744,2.806,2.806,0,0,1,.218,1.152v2.876a1.182,1.182,0,0,0,.154.726.689.689,0,0,0,.553.19h.109v.907h-.608a1.152,1.152,0,0,1-1.316-.907h-.064A2.642,2.642,0,0,1,1125.183,2255.917Zm.281-.989a1.858,1.858,0,0,0,1.5-.681,2.724,2.724,0,0,0,.563-1.814l-1.815.354a2.469,2.469,0,0,0-1.08.39,1.023,1.023,0,0,0-.009,1.524A1.375,1.375,0,0,0,1125.464,2254.928Z" transform="translate(-1103.824 -2244.893)"/>
        <path id="Trazado_133893" data-name="Trazado 133893" d="M1135.7,2248.289a3.048,3.048,0,0,1,2.3,1.007,3.694,3.694,0,0,1,.907,2.622,3.734,3.734,0,0,1-.907,2.622,3.039,3.039,0,0,1-2.314,1.007,2.776,2.776,0,0,1-1.488-.408,2.593,2.593,0,0,1-1-1.1v1.352h-1.179V2244.5h1.216v5.244a2.582,2.582,0,0,1,1-1.071A2.784,2.784,0,0,1,1135.7,2248.289Zm-.272,6.188a2.158,2.158,0,0,0,1.633-.708,2.624,2.624,0,0,0,.662-1.814,2.666,2.666,0,0,0-.662-1.815,2.158,2.158,0,0,0-1.633-.708,2.088,2.088,0,0,0-1.615.735,2.867,2.867,0,0,0,0,3.629,2.1,2.1,0,0,0,1.615.68Z" transform="translate(-1104.656 -2244.505)"/>
        <path id="Trazado_133894" data-name="Trazado 133894" d="M1141.78,2255.393V2244.5h1.243v10.888Z" transform="translate(-1105.56 -2244.505)"/>
        <path id="Trazado_133895" data-name="Trazado 133895" d="M1151.945,2252.162v.336H1146.5a2.441,2.441,0,0,0,.671,1.814,2.178,2.178,0,0,0,1.588.626,2.105,2.105,0,0,0,1.942-1.261l1.107.236a3.1,3.1,0,0,1-1.188,1.5,3.261,3.261,0,0,1-1.815.544,3.365,3.365,0,0,1-2.5-.971,4.128,4.128,0,0,1,0-5.3,3.339,3.339,0,0,1,2.468-.971,3.148,3.148,0,0,1,2.35.907A3.556,3.556,0,0,1,1151.945,2252.162Zm-3.23-2.54a2.135,2.135,0,0,0-1.443.5,2.262,2.262,0,0,0-.735,1.434h4.146a2.077,2.077,0,0,0-.608-1.434,1.961,1.961,0,0,0-1.361-.5Z" transform="translate(-1105.89 -2244.895)"/>
        <path id="Trazado_133896" data-name="Trazado 133896" d="M1108.954,2264.705h1.27v9.98h-1.27v-4.428H1103.9v4.428h-1.27v-9.98h1.27v4.409h5.054Z" transform="translate(-1101.931 -2246.377)"/>
        <path id="Trazado_133897" data-name="Trazado 133897" d="M1116.868,2275.115a3.622,3.622,0,0,1-1.815-.436,3.061,3.061,0,0,1-1.261-1.261,3.9,3.9,0,0,1-.463-1.924,3.559,3.559,0,0,1,.989-2.631,3.711,3.711,0,0,1,5.045,0,3.632,3.632,0,0,1,.98,2.631,3.55,3.55,0,0,1-.989,2.631A3.387,3.387,0,0,1,1116.868,2275.115Zm0-1.016a2.18,2.18,0,0,0,1.651-.717,3.04,3.04,0,0,0,0-3.765,2.142,2.142,0,0,0-1.651-.717,2.1,2.1,0,0,0-1.633.717,3.039,3.039,0,0,0,0,3.765,2.121,2.121,0,0,0,1.633.717Z" transform="translate(-1102.922 -2246.671)"/>
        <path id="Trazado_133898" data-name="Trazado 133898" d="M1126.505,2267.875a2.441,2.441,0,0,1,1.751.635,2.359,2.359,0,0,1,.653,1.815v4.691h-1.225v-4.41a1.67,1.67,0,0,0-.426-1.252,1.5,1.5,0,0,0-1.089-.4,1.7,1.7,0,0,0-1.243.472,1.987,1.987,0,0,0-.49,1.425v4.165h-1.207v-6.968h1.225v.907A2.324,2.324,0,0,1,1126.505,2267.875Z" transform="translate(-1103.84 -2246.671)"/>
        <path id="Trazado_133899" data-name="Trazado 133899" d="M1138.143,2271.365v.336H1132.7a2.44,2.44,0,0,0,.662,1.814,2.178,2.178,0,0,0,1.588.626,2.118,2.118,0,0,0,1.152-.335,2.22,2.22,0,0,0,.8-.907l1.107.236a3.161,3.161,0,0,1-1.2,1.5,3.235,3.235,0,0,1-1.815.544,3.366,3.366,0,0,1-2.513-.971,4.129,4.129,0,0,1,0-5.3,3.356,3.356,0,0,1,2.477-.971,3.137,3.137,0,0,1,2.341.907A3.528,3.528,0,0,1,1138.143,2271.365Zm-3.221-2.541a2.184,2.184,0,0,0-1.452.5,2.261,2.261,0,0,0-.735,1.433h4.174a2.041,2.041,0,0,0-.608-1.433,1.978,1.978,0,0,0-1.415-.5Z" transform="translate(-1104.609 -2246.677)"/>
        <path id="Trazado_133900" data-name="Trazado 133900" d="M1143.085,2275.117a3.3,3.3,0,0,1-1.878-.5,2.069,2.069,0,0,1-.907-1.433l1.071-.309a1.472,1.472,0,0,0,.572.971,1.816,1.816,0,0,0,1.143.344,2.545,2.545,0,0,0,.671-.091,1.085,1.085,0,0,0,.508-.345.909.909,0,0,0,.209-.635.994.994,0,0,0-.054-.29,1.343,1.343,0,0,0-.118-.227.572.572,0,0,0-.2-.19,1.431,1.431,0,0,0-.236-.154,2.117,2.117,0,0,0-.318-.127l-.336-.118-.39-.109-.4-.118a7.137,7.137,0,0,1-.726-.254,3.048,3.048,0,0,1-.59-.336,1.362,1.362,0,0,1-.454-.553,1.729,1.729,0,0,1-.154-.78,1.815,1.815,0,0,1,.336-1.107,1.9,1.9,0,0,1,.907-.662,3.441,3.441,0,0,1,1.234-.2,3.048,3.048,0,0,1,1.7.454,1.907,1.907,0,0,1,.844,1.361l-1.007.254a1.312,1.312,0,0,0-.526-.907,1.687,1.687,0,0,0-1-.3,1.711,1.711,0,0,0-.907.245.825.825,0,0,0-.39.753.686.686,0,0,0,.1.381.973.973,0,0,0,.209.272,1.176,1.176,0,0,0,.381.218l.408.145.517.127h.1c.281.063.5.127.671.181a5.442,5.442,0,0,1,.608.254,1.972,1.972,0,0,1,.535.381,1.6,1.6,0,0,1,.345.544,1.934,1.934,0,0,1,.145.744,2.1,2.1,0,0,1-.209.907,1.815,1.815,0,0,1-.572.644,2.725,2.725,0,0,1-.817.345A3.7,3.7,0,0,1,1143.085,2275.117Z" transform="translate(-1105.423 -2246.673)"/>
        <path id="Trazado_133901" data-name="Trazado 133901" d="M1150.435,2274.756a1.814,1.814,0,0,1-1.361-.5,1.9,1.9,0,0,1-.49-1.388v-4.1h-1.424v-.98h.517a1,1,0,0,0,.771-.245,1.169,1.169,0,0,0,.227-.817v-1.261h1.143v2.323h1.6v.98h-1.6v3.974a1.027,1.027,0,0,0,.263.762.906.906,0,0,0,.7.272h.635v.98Z" transform="translate(-1106.059 -2246.448)"/>
        <path id="Trazado_133902" data-name="Trazado 133902" d="M1156.588,2275.115a3.623,3.623,0,0,1-1.815-.436,3.059,3.059,0,0,1-1.261-1.261,3.893,3.893,0,0,1-.463-1.924,3.558,3.558,0,0,1,.989-2.631,3.711,3.711,0,0,1,5.045,0,3.631,3.631,0,0,1,.98,2.631,3.55,3.55,0,0,1-.989,2.631A3.387,3.387,0,0,1,1156.588,2275.115Zm0-1.016a2.142,2.142,0,0,0,1.642-.717,3,3,0,0,0,0-3.765,2.113,2.113,0,0,0-1.642-.717,2.076,2.076,0,0,0-1.633.717,3.039,3.039,0,0,0,0,3.765,2.114,2.114,0,0,0,1.624.717Z" transform="translate(-1106.604 -2246.671)"/>
        <path id="Trazado_133903" data-name="Trazado 133903" d="M1106.832,2294.007a5.389,5.389,0,0,1-1.969-.354,5.1,5.1,0,0,1-1.579-1.007,4.54,4.54,0,0,1-1.043-1.624,5.816,5.816,0,0,1-.381-2.15,5.742,5.742,0,0,1,.381-2.132,4.615,4.615,0,0,1,1.052-1.624,4.788,4.788,0,0,1,1.57-1.007,5.374,5.374,0,0,1,1.969-.354,5.041,5.041,0,0,1,2.649.708,4.373,4.373,0,0,1,1.787,1.951l-1.171.481a3.363,3.363,0,0,0-1.306-1.425,3.737,3.737,0,0,0-1.933-.5,4.055,4.055,0,0,0-1.461.263,3.448,3.448,0,0,0-1.17.753,3.35,3.35,0,0,0-.789,1.234,4.541,4.541,0,0,0-.29,1.651,4.642,4.642,0,0,0,.29,1.669,3.348,3.348,0,0,0,.789,1.234,3.452,3.452,0,0,0,1.17.753,3.89,3.89,0,0,0,1.461.263,3.738,3.738,0,0,0,1.933-.5,3.292,3.292,0,0,0,1.306-1.415l1.171.481a4.356,4.356,0,0,1-1.815,1.95A5.116,5.116,0,0,1,1106.832,2294.007Z" transform="translate(-1101.859 -2248.143)"/>
        <path id="Trazado_133904" data-name="Trazado 133904" d="M1115.8,2294.318a2.382,2.382,0,0,1-1.533-.481,1.705,1.705,0,0,1-.6-1.424,2.057,2.057,0,0,1,.19-.907,1.578,1.578,0,0,1,.572-.626,3.113,3.113,0,0,1,.817-.4,9.316,9.316,0,0,1,1.062-.254l1.125-.181c.408-.073.617-.29.617-.644a1.206,1.206,0,0,0-.436-1.034,1.737,1.737,0,0,0-1.1-.336,1.813,1.813,0,0,0-1.1.318,1.368,1.368,0,0,0-.517.98l-1.107-.236a2.176,2.176,0,0,1,.907-1.488,3.268,3.268,0,0,1,1.905-.5,3.88,3.88,0,0,1,1.007.127,2.55,2.55,0,0,1,.844.39,1.692,1.692,0,0,1,.6.744,2.8,2.8,0,0,1,.218,1.152v2.876a1.171,1.171,0,0,0,.163.726.684.684,0,0,0,.544.19h.118v.907h-.608c-.753,0-1.2-.309-1.325-.907h-.054A2.643,2.643,0,0,1,1115.8,2294.318Zm.281-.989a1.86,1.86,0,0,0,1.5-.681,2.794,2.794,0,0,0,.563-1.814l-1.815.354a2.431,2.431,0,0,0-1.08.39,1.016,1.016,0,0,0-.09,1.434,1.1,1.1,0,0,0,.09.09,1.411,1.411,0,0,0,.835.227Z" transform="translate(-1102.954 -2248.453)"/>
        <path id="Trazado_133905" data-name="Trazado 133905" d="M1122.63,2293.793v-10.888h1.234v10.888Z" transform="translate(-1103.785 -2248.065)"/>
        <path id="Trazado_133906" data-name="Trazado 133906" d="M1127.346,2285.256a.789.789,0,0,1-.581-.245.81.81,0,0,1-.245-.59.788.788,0,0,1,.245-.581.818.818,0,0,1,.581-.236.83.83,0,0,1,.581.236.788.788,0,0,1,.245.581A.835.835,0,0,1,1127.346,2285.256Zm-.626,8.6v-6.968h1.234v6.968Z" transform="translate(-1104.146 -2248.129)"/>
        <path id="Trazado_133907" data-name="Trazado 133907" d="M1135.939,2282.905h1.234v10.888h-1.189v-1.352a2.633,2.633,0,0,1-.989,1.1,2.758,2.758,0,0,1-1.479.408,3.141,3.141,0,0,1-1.261-.263,2.973,2.973,0,0,1-1.034-.726,3.256,3.256,0,0,1-.708-1.152,4.181,4.181,0,0,1-.254-1.488,3.628,3.628,0,0,1,.907-2.622,3.066,3.066,0,0,1,2.314-1.007,2.8,2.8,0,0,1,1.461.4,2.594,2.594,0,0,1,.989,1.062Zm-2.2,9.98a2.123,2.123,0,0,0,1.624-.726,2.668,2.668,0,0,0,.653-1.814,2.633,2.633,0,0,0-.662-1.815,2.069,2.069,0,0,0-1.615-.735,2.125,2.125,0,0,0-1.624.708,2.623,2.623,0,0,0-.662,1.815,2.585,2.585,0,0,0,.662,1.815,2.125,2.125,0,0,0,1.624.744Z" transform="translate(-1104.491 -2248.065)"/>
        <path id="Trazado_133908" data-name="Trazado 133908" d="M1143.5,2294.315a3.625,3.625,0,0,1-1.815-.436,3.2,3.2,0,0,1-1.261-1.261,3.9,3.9,0,0,1-.463-1.924,3.629,3.629,0,0,1,.989-2.631,3.711,3.711,0,0,1,5.045,0,3.991,3.991,0,0,1,0,5.262A3.422,3.422,0,0,1,1143.5,2294.315Zm0-1.016a2.16,2.16,0,0,0,1.651-.717,3.039,3.039,0,0,0,0-3.765,2.132,2.132,0,0,0-1.651-.717,2.105,2.105,0,0,0-1.633.717,3.074,3.074,0,0,0,0,3.765,2.14,2.14,0,0,0,1.624.717Z" transform="translate(-1105.391 -2248.451)"/>
        <path id="Trazado_133909" data-name="Trazado 133909" d="M1106.832,2313.237a5.389,5.389,0,0,1-1.969-.354,5.092,5.092,0,0,1-1.579-1.007,4.547,4.547,0,0,1-1.043-1.624,6.205,6.205,0,0,1,0-4.282,4.616,4.616,0,0,1,1.052-1.624,4.543,4.543,0,0,1,1.57-1,5.22,5.22,0,0,1,1.969-.363,5.033,5.033,0,0,1,2.649.708,4.37,4.37,0,0,1,1.787,1.924l-1.17.481a3.362,3.362,0,0,0-1.307-1.424,3.737,3.737,0,0,0-1.932-.5,4.061,4.061,0,0,0-1.461.263,3.454,3.454,0,0,0-1.17.753,3.348,3.348,0,0,0-.789,1.234,4.531,4.531,0,0,0-.29,1.66,4.627,4.627,0,0,0,.29,1.66,3.35,3.35,0,0,0,.789,1.234,3.45,3.45,0,0,0,1.17.753,3.874,3.874,0,0,0,1.461.272,3.743,3.743,0,0,0,1.932-.508,3.325,3.325,0,0,0,1.307-1.406l1.17.472a4.355,4.355,0,0,1-1.815,1.951A5.13,5.13,0,0,1,1106.832,2313.237Z" transform="translate(-1101.859 -2249.926)"/>
        <path id="Trazado_133910" data-name="Trazado 133910" d="M1117.118,2313.545a3.623,3.623,0,0,1-1.815-.436,3.058,3.058,0,0,1-1.261-1.261,3.893,3.893,0,0,1-.463-1.924,3.559,3.559,0,0,1,.989-2.631,3.711,3.711,0,0,1,5.045,0,3.632,3.632,0,0,1,.98,2.631,3.551,3.551,0,0,1-.989,2.631A3.386,3.386,0,0,1,1117.118,2313.545Zm0-1.016a2.18,2.18,0,0,0,1.651-.717,2.723,2.723,0,0,0,.653-1.887,2.657,2.657,0,0,0-.653-1.878,2.141,2.141,0,0,0-1.651-.717,2.1,2.1,0,0,0-1.633.717,2.657,2.657,0,0,0-.653,1.878,2.723,2.723,0,0,0,.653,1.887,2.123,2.123,0,0,0,1.624.69Z" transform="translate(-1102.946 -2250.234)"/>
        <path id="Trazado_133911" data-name="Trazado 133911" d="M1126.753,2306.285a2.441,2.441,0,0,1,1.751.635,2.359,2.359,0,0,1,.653,1.815v4.69h-1.225v-4.418a1.669,1.669,0,0,0-.426-1.252,1.5,1.5,0,0,0-1.089-.4,1.7,1.7,0,0,0-1.243.472,1.986,1.986,0,0,0-.49,1.424v4.165h-1.225v-6.968h1.225v.907A2.32,2.32,0,0,1,1126.753,2306.285Z" transform="translate(-1103.862 -2250.232)"/>
        <path id="Trazado_133912" data-name="Trazado 133912" d="M1135.449,2303.177h-.526a1.194,1.194,0,0,0-.254,0l-.218.073a.5.5,0,0,0-.209.118,1.609,1.609,0,0,0-.163.181.627.627,0,0,0-.136.254,1.6,1.6,0,0,0-.082.345,2.911,2.911,0,0,0,0,.435v1.434h1.624v.98h-1.624v5.988h-1.216V2307h-1.415v-.98h1.343v-1.461a4.3,4.3,0,0,1,.073-.807,3.052,3.052,0,0,1,.2-.617,1.415,1.415,0,0,1,.327-.436,2.253,2.253,0,0,1,.436-.308,1.852,1.852,0,0,1,.526-.172,4.64,4.64,0,0,1,.6-.091h.68Z" transform="translate(-1104.582 -2249.846)"/>
        <path id="Trazado_133913" data-name="Trazado 133913" d="M1140.222,2313.542a3.623,3.623,0,0,1-1.815-.436,3.126,3.126,0,0,1-1.225-1.288,3.9,3.9,0,0,1-.463-1.924,3.559,3.559,0,0,1,.989-2.631,3.711,3.711,0,0,1,5.045,0,3.991,3.991,0,0,1,0,5.262A3.418,3.418,0,0,1,1140.222,2313.542Zm0-1.016a2.18,2.18,0,0,0,1.651-.717,2.723,2.723,0,0,0,.653-1.887,2.656,2.656,0,0,0-.653-1.878,2.141,2.141,0,0,0-1.651-.717,2.106,2.106,0,0,0-1.633.717,2.656,2.656,0,0,0-.644,1.878,2.724,2.724,0,0,0,.644,1.887,2.14,2.14,0,0,0,1.624.69Z" transform="translate(-1105.091 -2250.231)"/>
        <path id="Trazado_133914" data-name="Trazado 133914" d="M1147.761,2307.645a2.159,2.159,0,0,1,.907-.907,2.579,2.579,0,0,1,1.334-.363v1.152a2.287,2.287,0,0,0-1.615.517,2.161,2.161,0,0,0-.562,1.651v3.72H1146.6v-6.968h1.2Z" transform="translate(-1106.007 -2250.24)"/>
        <path id="Trazado_133915" data-name="Trazado 133915" d="M1154.469,2313.156a1.812,1.812,0,0,1-1.361-.5,1.879,1.879,0,0,1-.5-1.388v-4.1h-1.379v-.98h.526a1.026,1.026,0,0,0,.771-.245,1.228,1.228,0,0,0,.218-.817v-1.261h1.143v2.323h1.606v.98h-1.606v3.974a1.062,1.062,0,0,0,.263.762.908.908,0,0,0,.7.272h.644v.98Z" transform="translate(-1106.436 -2250.008)"/>
        <path id="Trazado_133916" data-name="Trazado 133916" d="M1159.292,2313.547a2.35,2.35,0,0,1-1.533-.481,1.705,1.705,0,0,1-.6-1.424,1.892,1.892,0,0,1,.2-.907,1.512,1.512,0,0,1,.563-.635,3.431,3.431,0,0,1,.817-.4,7.742,7.742,0,0,1,1.062-.245l1.125-.191c.417-.072.617-.29.617-.644a1.205,1.205,0,0,0-.436-1.034,1.721,1.721,0,0,0-1.1-.336,1.811,1.811,0,0,0-1.1.327,1.333,1.333,0,0,0-.517.97l-1.1-.227a2.113,2.113,0,0,1,.907-1.5,3.206,3.206,0,0,1,1.9-.5,3.807,3.807,0,0,1,1.007.127,2.548,2.548,0,0,1,.844.39,1.715,1.715,0,0,1,.608.744,2.8,2.8,0,0,1,.218,1.152v2.876a1.18,1.18,0,0,0,.154.726.69.69,0,0,0,.553.19h.091v.907h-.608a1.153,1.153,0,0,1-1.316-.907h-.063A2.659,2.659,0,0,1,1159.292,2313.547Zm.281-.989a1.881,1.881,0,0,0,1.5-.671,2.783,2.783,0,0,0,.563-1.815l-1.815.354a2.6,2.6,0,0,0-1.08.39,1.006,1.006,0,0,0-.009,1.524,1.362,1.362,0,0,0,.844.19Z" transform="translate(-1106.985 -2250.235)"/>
        <path id="Trazado_133917" data-name="Trazado 133917" d="M1169.855,2305.9a3.049,3.049,0,0,1,2.3,1.007,4.119,4.119,0,0,1,0,5.244,3,3,0,0,1-2.3,1.007,2.776,2.776,0,0,1-1.488-.408,2.592,2.592,0,0,1-1-1.1V2313h-1.18v-10.888h1.216v5.253a2.525,2.525,0,0,1,1-1.071A2.783,2.783,0,0,1,1169.855,2305.9Zm-.272,6.2a2.168,2.168,0,0,0,1.633-.717,2.956,2.956,0,0,0,0-3.711,2.159,2.159,0,0,0-1.633-.708,2.089,2.089,0,0,0-1.615.735,2.867,2.867,0,0,0,0,3.629,2.068,2.068,0,0,0,1.579.762Z" transform="translate(-1107.823 -2249.845)"/>
        <path id="Trazado_133918" data-name="Trazado 133918" d="M1175.89,2312.992V2302.1h1.216v10.887Z" transform="translate(-1108.722 -2249.844)"/>
        <path id="Trazado_133919" data-name="Trazado 133919" d="M1186.055,2309.762v.336h-5.444a2.442,2.442,0,0,0,.671,1.815,2.163,2.163,0,0,0,1.588.626,2.106,2.106,0,0,0,1.942-1.261l1.107.236a3.1,3.1,0,0,1-1.188,1.5,3.249,3.249,0,0,1-1.815.544,3.365,3.365,0,0,1-2.5-.97,4.119,4.119,0,0,1,0-5.29,3.292,3.292,0,0,1,2.468-.98,3.12,3.12,0,0,1,2.341.907A3.54,3.54,0,0,1,1186.055,2309.762Zm-3.23-2.541a2.157,2.157,0,0,0-1.452.5,2.3,2.3,0,0,0-.726,1.434h4.174a2.075,2.075,0,0,0-.608-1.434,1.958,1.958,0,0,0-1.388-.526Z" transform="translate(-1109.052 -2250.234)"/>
        <path id="Trazado_133920" data-name="Trazado 133920" d="M1109.335,2322.285h1.261v9.98h-1.343l-5.38-8.075v8.075h-1.243v-9.98h1.325l5.38,8.039Z" transform="translate(-1101.931 -2251.715)"/>
        <path id="Trazado_133921" data-name="Trazado 133921" d="M1120.445,2328.932v.336H1115a2.443,2.443,0,0,0,.671,1.815,2.178,2.178,0,0,0,1.588.626,2.106,2.106,0,0,0,1.942-1.261l1.107.236a3.1,3.1,0,0,1-1.188,1.5,3.257,3.257,0,0,1-1.815.544,3.366,3.366,0,0,1-2.5-.971,4.129,4.129,0,0,1,0-5.3,3.338,3.338,0,0,1,2.468-.971,3.148,3.148,0,0,1,2.35.907A3.554,3.554,0,0,1,1120.445,2328.932Zm-3.23-2.54a2.135,2.135,0,0,0-1.443.5,2.262,2.262,0,0,0-.735,1.434h4.174a2.076,2.076,0,0,0-.608-1.434,1.96,1.96,0,0,0-1.388-.472Z" transform="translate(-1102.97 -2252.011)"/>
        <path id="Trazado_133922" data-name="Trazado 133922" d="M1127.565,2325.621h1.225v6.95h-1.18v-.907a2.238,2.238,0,0,1-.862.78,2.726,2.726,0,0,1-1.225.272,2.431,2.431,0,0,1-1.751-.626,2.378,2.378,0,0,1-.653-1.814v-4.691h1.225V2330a1.664,1.664,0,0,0,.426,1.243,1.505,1.505,0,0,0,1.1.417,1.677,1.677,0,0,0,1.234-.481,2,2,0,0,0,.49-1.424Z" transform="translate(-1103.83 -2252.021)"/>
        <path id="Trazado_133923" data-name="Trazado 133923" d="M1134.234,2332.336a1.814,1.814,0,0,1-1.361-.5,1.916,1.916,0,0,1-.5-1.388v-4.1h-1.425v-.98h.526a1,1,0,0,0,.771-.245,1.215,1.215,0,0,0,.227-.816v-1.261h1.134v2.323h1.606v.98h-1.606v3.974a1.035,1.035,0,0,0,.272.762.906.906,0,0,0,.7.272h.635v.98Z" transform="translate(-1104.556 -2251.786)"/>
        <path id="Trazado_133924" data-name="Trazado 133924" d="M1138.8,2326.845a2.1,2.1,0,0,1,.907-.907,2.574,2.574,0,0,1,1.334-.363v1.152a2.288,2.288,0,0,0-1.615.517,2.162,2.162,0,0,0-.562,1.651v3.674h-1.225V2325.6h1.2Z" transform="translate(-1105.176 -2252.02)"/>
        <path id="Trazado_133925" data-name="Trazado 133925" d="M1144.4,2332.717a2.408,2.408,0,0,1-1.533-.481,1.706,1.706,0,0,1-.6-1.424,2.009,2.009,0,0,1,.191-.907,1.609,1.609,0,0,1,.572-.635,3.431,3.431,0,0,1,.817-.4,9.259,9.259,0,0,1,1.062-.254l1.125-.181c.417-.073.617-.29.617-.644a1.206,1.206,0,0,0-.435-1.034,1.723,1.723,0,0,0-1.1-.336,1.868,1.868,0,0,0-1.1.318,1.367,1.367,0,0,0-.517.98l-1.107-.236a2.159,2.159,0,0,1,.907-1.488,3.207,3.207,0,0,1,1.9-.5,3.8,3.8,0,0,1,1.007.127,2.544,2.544,0,0,1,.844.39,1.716,1.716,0,0,1,.608.744,2.979,2.979,0,0,1,.209,1.152v2.84a1.171,1.171,0,0,0,.163.726.689.689,0,0,0,.553.191h.109v.907h-.608a1.152,1.152,0,0,1-1.316-.907h-.063A2.642,2.642,0,0,1,1144.4,2332.717Zm.281-.989a1.858,1.858,0,0,0,1.5-.68,2.794,2.794,0,0,0,.563-1.815l-1.815.354a2.472,2.472,0,0,0-1.08.39,1.006,1.006,0,0,0-.009,1.524A1.362,1.362,0,0,0,1144.683,2331.728Z" transform="translate(-1105.605 -2252.012)"/>
        <path id="Trazado_133926" data-name="Trazado 133926" d="M1151.23,2332.173v-10.888h1.234v10.888Z" transform="translate(-1106.436 -2251.623)"/>
      </g>
      <g id="Grupo_63698" data-name="Grupo 63698" transform="translate(34.795 105.773)">
        <path id="Trazado_133927" data-name="Trazado 133927" d="M1106.624,2211.395a3.1,3.1,0,0,1,2.359.907,3.351,3.351,0,0,1,.907,2.359,3.183,3.183,0,0,1-.907,2.341,3.113,3.113,0,0,1-2.359.907h-2.141v3.629h-2.123v-10.144Zm-.363,4.791a1.527,1.527,0,0,0,1.17-.4,1.5,1.5,0,0,0,.39-1.107,1.522,1.522,0,0,0-.39-1.1,1.551,1.551,0,0,0-1.17-.408h-1.815v3.012Z" transform="translate(-1102.36 -2210.914)"/>
        <path id="Trazado_133928" data-name="Trazado 133928" d="M1115.372,2222.076a4.673,4.673,0,0,1-2.06-.445,3.358,3.358,0,0,1-1.415-1.316,3.863,3.863,0,0,1-.517-2.032,3.631,3.631,0,0,1,1.107-2.722,4.618,4.618,0,0,1,5.78,0,4.029,4.029,0,0,1,0,5.543A4.1,4.1,0,0,1,1115.372,2222.076Zm0-1.624a1.88,1.88,0,0,0,1.443-.6,2.214,2.214,0,0,0,.544-1.57,2.257,2.257,0,0,0-.544-1.579,1.9,1.9,0,0,0-1.443-.59,1.815,1.815,0,0,0-1.4.6,2.532,2.532,0,0,0,0,3.139,1.816,1.816,0,0,0,1.379.6Z" transform="translate(-1103.196 -2211.206)"/>
        <path id="Trazado_133929" data-name="Trazado 133929" d="M1124.366,2222.071a4.151,4.151,0,0,1-2.132-.508,2.178,2.178,0,0,1-1.034-1.524l1.706-.481a1.37,1.37,0,0,0,1.461,1.089,1.434,1.434,0,0,0,.744-.172.571.571,0,0,0,.29-.562.627.627,0,0,0-.118-.372,1.014,1.014,0,0,0-.372-.272l-.5-.191-.653-.19a6.918,6.918,0,0,1-.671-.209,4.345,4.345,0,0,1-.644-.272,2.4,2.4,0,0,1-.526-.372,1.517,1.517,0,0,1-.4-.572,2.1,2.1,0,0,1-.136-.78,1.87,1.87,0,0,1,.789-1.633,3.567,3.567,0,0,1,2.069-.553,3.629,3.629,0,0,1,1.905.471,2.1,2.1,0,0,1,.98,1.461l-1.588.354a1.225,1.225,0,0,0-1.288-.907,1.491,1.491,0,0,0-.717.163.534.534,0,0,0-.29.49.588.588,0,0,0,0,.218.439.439,0,0,0,.145.172l.209.136a1.348,1.348,0,0,0,.29.118,2.53,2.53,0,0,0,.318.091l.372.1.381.1a6.274,6.274,0,0,1,.69.209,4.7,4.7,0,0,1,.626.3,2.385,2.385,0,0,1,.544.426,2.07,2.07,0,0,1,.363.608,2.247,2.247,0,0,1,.136.807,2.177,2.177,0,0,1-.245,1.052,1.808,1.808,0,0,1-.671.717,3.237,3.237,0,0,1-.907.381A4.931,4.931,0,0,1,1124.366,2222.071Z" transform="translate(-1104.106 -2211.201)"/>
        <path id="Trazado_133930" data-name="Trazado 133930" d="M1130.639,2213.215a1.176,1.176,0,0,1-.865-1.974l.031-.031a1.159,1.159,0,0,1,.835-.345,1.18,1.18,0,0,1,0,2.35Zm-1.043,8.374v-7.258h2.06v7.258Z" transform="translate(-1104.871 -2210.865)"/>
        <path id="Trazado_133931" data-name="Trazado 133931" d="M1136.855,2221.7a2.185,2.185,0,0,1-1.651-.59,2.324,2.324,0,0,1-.581-1.687v-3.439h-1.434v-1.57h.463a1.173,1.173,0,0,0,.907-.309,1.522,1.522,0,0,0,.29-1.08v-.962h1.815v2.35h1.506v1.57h-1.506v3.221c0,.635.281.907.844.907h.662v1.552Z" transform="translate(-1105.218 -2210.976)"/>
        <path id="Trazado_133932" data-name="Trazado 133932" d="M1141.449,2213.215a1.146,1.146,0,0,1-.835-.345,1.105,1.105,0,0,1-.345-.835,1.133,1.133,0,0,1,.345-.825,1.166,1.166,0,0,1,.835-.345,1.154,1.154,0,0,1,.826.345,1.17,1.17,0,0,1,.005,1.655l-.005.005A1.154,1.154,0,0,1,1141.449,2213.215Zm-1.043,8.374v-7.258h2.059v7.258Z" transform="translate(-1105.874 -2210.865)"/>
        <path id="Trazado_133933" data-name="Trazado 133933" d="M1149.635,2214.655h2.168l-3.112,7.258h-1.815l-3.067-7.258h2.2l1.815,4.981Z" transform="translate(-1106.202 -2211.216)"/>
        <path id="Trazado_133934" data-name="Trazado 133934" d="M1156.822,2222.075a4.7,4.7,0,0,1-2.069-.445,3.287,3.287,0,0,1-1.406-1.315,3.865,3.865,0,0,1-.517-2.032,3.549,3.549,0,0,1,1.107-2.722,4.6,4.6,0,0,1,5.77,0,4.029,4.029,0,0,1,0,5.543A4.073,4.073,0,0,1,1156.822,2222.075Zm0-1.624a1.816,1.816,0,0,0,1.443-.6,2.188,2.188,0,0,0,.554-1.57,2.224,2.224,0,0,0-.554-1.579,1.88,1.88,0,0,0-1.443-.581,1.814,1.814,0,0,0-1.4.6,2.533,2.533,0,0,0,0,3.139A1.817,1.817,0,0,0,1156.822,2220.451Z" transform="translate(-1107.038 -2211.206)"/>
      </g>
      <g id="Grupo_63699" data-name="Grupo 63699" transform="translate(136.558 136.294)">
        <path id="Trazado_133935" data-name="Trazado 133935" d="M1222.1,2255.485l-.853-2.386h-4.536l-.853,2.386h-1.325l3.684-9.98h1.515l3.675,9.98Zm-4.963-3.5h3.711l-1.86-5.2Z" transform="translate(-1214.521 -2244.598)"/>
        <path id="Trazado_133936" data-name="Trazado 133936" d="M1229.859,2248.289a3.048,3.048,0,0,1,2.3,1.007,4.118,4.118,0,0,1,0,5.244,3,3,0,0,1-2.3,1.007,2.776,2.776,0,0,1-1.488-.408,2.593,2.593,0,0,1-1-1.1v1.352h-1.143V2244.5h1.216v5.244a2.582,2.582,0,0,1,1-1.071A2.784,2.784,0,0,1,1229.859,2248.289Zm-.272,6.188a2.158,2.158,0,0,0,1.633-.708,2.622,2.622,0,0,0,.653-1.814,2.656,2.656,0,0,0-.653-1.815,2.158,2.158,0,0,0-1.633-.708,2.088,2.088,0,0,0-1.615.735,2.867,2.867,0,0,0,0,3.629,2.1,2.1,0,0,0,1.633.68Z" transform="translate(-1215.606 -2244.505)"/>
        <path id="Trazado_133937" data-name="Trazado 133937" d="M1240.271,2248.823h1.225v6.968h-1.17v-.907a2.194,2.194,0,0,1-.907.781,2.648,2.648,0,0,1-1.216.272,2.423,2.423,0,0,1-1.751-.626,2.348,2.348,0,0,1-.662-1.815V2248.8h1.225v4.419a1.634,1.634,0,0,0,.435,1.243,1.469,1.469,0,0,0,1.089.417,1.687,1.687,0,0,0,1.243-.481,1.961,1.961,0,0,0,.481-1.424Z" transform="translate(-1216.491 -2244.904)"/>
        <path id="Trazado_133938" data-name="Trazado 133938" d="M1246.028,2250.045a2.154,2.154,0,0,1,.907-.907,2.574,2.574,0,0,1,1.334-.363v1.152a2.289,2.289,0,0,0-1.615.517,2.159,2.159,0,0,0-.553,1.651v3.72h-1.27v-6.968h1.2Z" transform="translate(-1217.33 -2244.901)"/>
        <path id="Trazado_133939" data-name="Trazado 133939" d="M1251.368,2250.045a2.122,2.122,0,0,1,.862-.907,2.65,2.65,0,0,1,1.343-.363v1.152a2.313,2.313,0,0,0-1.624.517,2.2,2.2,0,0,0-.553,1.651v3.72h-1.225v-6.968h1.2Z" transform="translate(-1217.825 -2244.901)"/>
        <path id="Trazado_133940" data-name="Trazado 133940" d="M1256.146,2246.856a.788.788,0,0,1-.581-.245.81.81,0,0,1-.245-.59.789.789,0,0,1,.245-.581.834.834,0,0,1,1.161,0,.789.789,0,0,1,.245.581.81.81,0,0,1-.245.59A.788.788,0,0,1,1256.146,2246.856Zm-.617,8.6v-6.968h1.225v6.968Z" transform="translate(-1218.302 -2244.57)"/>
        <path id="Trazado_133941" data-name="Trazado 133941" d="M1264.708,2244.5h1.225v10.888h-1.189v-1.352a2.571,2.571,0,0,1-.989,1.1,2.764,2.764,0,0,1-1.479.408,3.145,3.145,0,0,1-1.261-.263,3.049,3.049,0,0,1-1.034-.726,3.24,3.24,0,0,1-.7-1.152,3.986,3.986,0,0,1-.263-1.488,3.694,3.694,0,0,1,.907-2.622,3.065,3.065,0,0,1,2.313-1.007,2.779,2.779,0,0,1,1.461.4,2.616,2.616,0,0,1,1,1.061Zm-2.2,9.98a2.116,2.116,0,0,0,1.624-.726,2.894,2.894,0,0,0,0-3.629,2.1,2.1,0,0,0-1.624-.735,2.126,2.126,0,0,0-1.624.708,2.623,2.623,0,0,0-.662,1.815,2.585,2.585,0,0,0,.662,1.814,2.125,2.125,0,0,0,1.624.744Z" transform="translate(-1218.645 -2244.505)"/>
        <path id="Trazado_133942" data-name="Trazado 133942" d="M1272.258,2255.916a3.625,3.625,0,0,1-1.815-.436,3.1,3.1,0,0,1-1.261-1.261,3.892,3.892,0,0,1-.463-1.923,3.559,3.559,0,0,1,.989-2.631,3.7,3.7,0,0,1,5.035,0,3.991,3.991,0,0,1,0,5.262A3.4,3.4,0,0,1,1272.258,2255.916Zm0-1.016a2.158,2.158,0,0,0,1.651-.717,2.723,2.723,0,0,0,.653-1.887,2.657,2.657,0,0,0-.653-1.878,2.132,2.132,0,0,0-1.651-.717,2.1,2.1,0,0,0-1.633.717,3.073,3.073,0,0,0,0,3.765,2.141,2.141,0,0,0,1.624.717Z" transform="translate(-1219.544 -2244.892)"/>
        <path id="Trazado_133943" data-name="Trazado 133943" d="M1219.586,2264.705a2.939,2.939,0,0,1,1.57.417,2.783,2.783,0,0,1,1.043,1.107,3.247,3.247,0,0,1,.372,1.542,3.046,3.046,0,0,1-.826,2.169,2.839,2.839,0,0,1-2.159.907H1217.1v3.874h-1.27v-9.98Zm-.181,5a1.817,1.817,0,0,0,1.388-.535,1.978,1.978,0,0,0,.508-1.416,2,2,0,0,0-.508-1.406,1.813,1.813,0,0,0-1.388-.544h-2.3v3.9Z" transform="translate(-1214.641 -2246.378)"/>
        <path id="Trazado_133944" data-name="Trazado 133944" d="M1230.715,2271.365v.336h-5.444a2.44,2.44,0,0,0,.671,1.814,2.178,2.178,0,0,0,1.588.626,2.119,2.119,0,0,0,1.152-.335,2.22,2.22,0,0,0,.8-.907l1.1.236a3.1,3.1,0,0,1-1.188,1.5,3.257,3.257,0,0,1-1.815.544,3.365,3.365,0,0,1-2.5-.971,4.129,4.129,0,0,1,0-5.3,3.338,3.338,0,0,1,2.468-.971,3.148,3.148,0,0,1,2.35.907A3.562,3.562,0,0,1,1230.715,2271.365Zm-3.23-2.541a2.134,2.134,0,0,0-1.443.5,2.261,2.261,0,0,0-.735,1.433h4.174a2.075,2.075,0,0,0-.608-1.433,1.959,1.959,0,0,0-1.388-.5Z" transform="translate(-1215.409 -2246.677)"/>
        <path id="Trazado_133945" data-name="Trazado 133945" d="M1235.654,2275.117a3.342,3.342,0,0,1-1.887-.5,2.089,2.089,0,0,1-.907-1.433l1.071-.309a1.472,1.472,0,0,0,.572.971,1.816,1.816,0,0,0,1.143.344,2.608,2.608,0,0,0,.671-.091,1.085,1.085,0,0,0,.508-.345.91.91,0,0,0,.209-.635,1.357,1.357,0,0,0-.054-.29,1.082,1.082,0,0,0-.118-.227.572.572,0,0,0-.2-.19l-.236-.154-.318-.127-.336-.118-.39-.109-.408-.118a6.968,6.968,0,0,1-.717-.254,3.048,3.048,0,0,1-.59-.336,1.37,1.37,0,0,1-.463-.553,1.873,1.873,0,0,1-.145-.78,1.816,1.816,0,0,1,.336-1.107,1.935,1.935,0,0,1,.907-.662,3.537,3.537,0,0,1,1.243-.2,3.047,3.047,0,0,1,1.7.454,1.906,1.906,0,0,1,.844,1.361l-1.007.254a1.325,1.325,0,0,0-.526-.907,1.7,1.7,0,0,0-1.007-.3,1.736,1.736,0,0,0-.907.245.844.844,0,0,0-.39.753.691.691,0,0,0,.109.381.97.97,0,0,0,.209.272,1.381,1.381,0,0,0,.381.218l.408.145.508.127h.109c.272.063.5.127.671.181a4.7,4.7,0,0,1,.6.254,1.913,1.913,0,0,1,.544.381,1.737,1.737,0,0,1,.345.544,1.95,1.95,0,0,1,.136.744,1.977,1.977,0,0,1-.209.907,1.632,1.632,0,0,1-.572.644,2.594,2.594,0,0,1-.807.345A3.693,3.693,0,0,1,1235.654,2275.117Z" transform="translate(-1216.22 -2246.673)"/>
        <path id="Trazado_133946" data-name="Trazado 133946" d="M1242.443,2275.118a2.319,2.319,0,0,1-1.524-.481,1.705,1.705,0,0,1-.6-1.425,2,2,0,0,1,.19-.907,1.574,1.574,0,0,1,.563-.635,3.323,3.323,0,0,1,.825-.4,7.194,7.194,0,0,1,1.052-.245l1.134-.191c.408-.073.617-.29.617-.644a1.207,1.207,0,0,0-.436-1.034,1.988,1.988,0,0,0-2.2,0,1.282,1.282,0,0,0-.517.971l-1.107-.227a2.113,2.113,0,0,1,.907-1.5,3.223,3.223,0,0,1,1.9-.5,3.955,3.955,0,0,1,1.016.127,2.724,2.724,0,0,1,.844.39,1.762,1.762,0,0,1,.6.744,2.8,2.8,0,0,1,.218,1.152v2.876a1.238,1.238,0,0,0,.154.726.691.691,0,0,0,.553.191h.109v.907h-.608a1.152,1.152,0,0,1-1.315-.907h-.045A2.651,2.651,0,0,1,1242.443,2275.118Zm.281-.989a1.816,1.816,0,0,0,1.5-.671,2.787,2.787,0,0,0,.572-1.815l-1.814.354a2.382,2.382,0,0,0-1.08.39,1.015,1.015,0,0,0-.018,1.524,1.4,1.4,0,0,0,.844.218Z" transform="translate(-1216.911 -2246.674)"/>
        <path id="Trazado_133947" data-name="Trazado 133947" d="M1254.208,2263.705h1.225v10.888h-1.189v-1.352a2.57,2.57,0,0,1-.989,1.1,2.758,2.758,0,0,1-1.479.408,3.14,3.14,0,0,1-1.261-.263,3.05,3.05,0,0,1-1.034-.726,3.28,3.28,0,0,1-.7-1.143,4.053,4.053,0,0,1-.263-1.5,3.693,3.693,0,0,1,.907-2.622,3.066,3.066,0,0,1,2.314-1.007,2.782,2.782,0,0,1,1.461.4,2.615,2.615,0,0,1,1,1.062Zm-2.2,9.98a2.081,2.081,0,0,0,1.624-.726,2.894,2.894,0,0,0,0-3.629,2.1,2.1,0,0,0-1.624-.735,2.126,2.126,0,0,0-1.624.708,2.623,2.623,0,0,0-.662,1.86,2.585,2.585,0,0,0,.662,1.815,2.124,2.124,0,0,0,1.624.7Z" transform="translate(-1217.671 -2246.285)"/>
        <path id="Trazado_133948" data-name="Trazado 133948" d="M1261.759,2275.115a3.622,3.622,0,0,1-1.815-.436,3.1,3.1,0,0,1-1.252-1.261,3.893,3.893,0,0,1-.463-1.924,3.559,3.559,0,0,1,.989-2.631,3.7,3.7,0,0,1,5.036,0,3.991,3.991,0,0,1,0,5.262A3.4,3.4,0,0,1,1261.759,2275.115Zm0-1.016a2.159,2.159,0,0,0,1.651-.717,2.723,2.723,0,0,0,.653-1.887,2.657,2.657,0,0,0-.653-1.878,2.133,2.133,0,0,0-1.651-.717,2.107,2.107,0,0,0-1.633.717,3.073,3.073,0,0,0,0,3.765,2.141,2.141,0,0,0,1.624.717Z" transform="translate(-1218.572 -2246.671)"/>
        <path id="Trazado_133949" data-name="Trazado 133949" d="M1222.1,2293.886l-.853-2.377h-4.536l-.853,2.386h-1.325l3.684-9.98h1.515l3.675,9.98Zm-4.963-3.511h3.711l-1.86-5.217Z" transform="translate(-1214.521 -2248.158)"/>
        <path id="Trazado_133950" data-name="Trazado 133950" d="M1229.469,2287.075a2.455,2.455,0,0,1,1.76.635,2.359,2.359,0,0,1,.653,1.815v4.691h-1.225V2289.8a1.663,1.663,0,0,0-.426-1.243,1.511,1.511,0,0,0-1.089-.408,1.688,1.688,0,0,0-1.243.481,1.914,1.914,0,0,0-.49,1.424v4.165h-1.18v-6.968h1.225v.907A2.322,2.322,0,0,1,1229.469,2287.075Z" transform="translate(-1215.606 -2248.451)"/>
        <path id="Trazado_133951" data-name="Trazado 133951" d="M1237.184,2293.954a1.814,1.814,0,0,1-1.361-.5,1.918,1.918,0,0,1-.5-1.388v-4.119H1233.9v-.98h.526a1.006,1.006,0,0,0,.771-.245,1.214,1.214,0,0,0,.227-.817v-1.261h1.134v2.323h1.606v.98h-1.606v3.974a1.035,1.035,0,0,0,.272.762.906.906,0,0,0,.7.272h.635v.98Z" transform="translate(-1216.317 -2248.226)"/>
        <path id="Trazado_133952" data-name="Trazado 133952" d="M1241.146,2285.256a.789.789,0,0,1-.581-.245.811.811,0,0,1-.245-.59.788.788,0,0,1,.245-.581.818.818,0,0,1,.581-.236.831.831,0,0,1,.581.236.788.788,0,0,1,.245.581A.835.835,0,0,1,1241.146,2285.256Zm-.626,8.6v-6.968h1.234v6.968Z" transform="translate(-1216.912 -2248.129)"/>
        <path id="Trazado_133953" data-name="Trazado 133953" d="M1247.494,2294.306a3.329,3.329,0,0,1-2.5-1,3.947,3.947,0,0,1,0-5.226,3.318,3.318,0,0,1,2.5-1.007,3.372,3.372,0,0,1,2.014.617,3.021,3.021,0,0,1,1.17,1.688l-1.143.191a2.087,2.087,0,0,0-2.051-1.47,2.059,2.059,0,0,0-1.615.717,3.085,3.085,0,0,0,0,3.747,2.064,2.064,0,0,0,1.615.717,2.088,2.088,0,0,0,2.051-1.47l1.143.19a3.013,3.013,0,0,1-1.179,1.7A3.369,3.369,0,0,1,1247.494,2294.306Z" transform="translate(-1217.254 -2248.451)"/>
        <path id="Trazado_133954" data-name="Trazado 133954" d="M1257.689,2287.222h1.225v6.968h-1.143v-.907a2.237,2.237,0,0,1-.862.78,2.723,2.723,0,0,1-1.225.272,2.407,2.407,0,0,1-1.751-.635,2.34,2.34,0,0,1-.653-1.815V2287.2h1.225v4.418a1.664,1.664,0,0,0,.426,1.243,1.5,1.5,0,0,0,1.1.417,1.67,1.67,0,0,0,1.234-.481,2,2,0,0,0,.49-1.425Z" transform="translate(-1218.112 -2248.462)"/>
        <path id="Trazado_133955" data-name="Trazado 133955" d="M1263.793,2294.318a2.384,2.384,0,0,1-1.524-.481,1.705,1.705,0,0,1-.6-1.424,2.057,2.057,0,0,1,.19-.907,1.578,1.578,0,0,1,.572-.626,3.113,3.113,0,0,1,.817-.4,8.387,8.387,0,0,1,1.062-.254l1.125-.181c.408-.073.617-.29.617-.644a1.205,1.205,0,0,0-.436-1.034,1.752,1.752,0,0,0-1.107-.336,1.811,1.811,0,0,0-1.089.318,1.368,1.368,0,0,0-.517.98l-1.107-.236a2.111,2.111,0,0,1,.907-1.488,3.224,3.224,0,0,1,1.9-.5,3.953,3.953,0,0,1,1.016.127,2.709,2.709,0,0,1,.844.39,1.759,1.759,0,0,1,.6.744,2.8,2.8,0,0,1,.218,1.152v2.876a1.17,1.17,0,0,0,.163.726.671.671,0,0,0,.544.19h.118v.907h-.617a1.162,1.162,0,0,1-1.316-.907h-.054A2.669,2.669,0,0,1,1263.793,2294.318Zm.29-.989a1.814,1.814,0,0,0,1.488-.681,2.722,2.722,0,0,0,.572-1.814l-1.815.354a2.382,2.382,0,0,0-1.08.39,1.015,1.015,0,0,0-.018,1.524,1.405,1.405,0,0,0,.853.227Z" transform="translate(-1218.891 -2248.454)"/>
        <path id="Trazado_133956" data-name="Trazado 133956" d="M1275.563,2282.905h1.225v10.888h-1.143v-1.352a2.573,2.573,0,0,1-.989,1.1,2.725,2.725,0,0,1-1.47.408,3.184,3.184,0,0,1-1.27-.263,3.149,3.149,0,0,1-1.034-.726,3.239,3.239,0,0,1-.7-1.152,4.165,4.165,0,0,1-.263-1.488,3.693,3.693,0,0,1,.907-2.622,3.075,3.075,0,0,1,2.323-1.007,2.775,2.775,0,0,1,1.452.4,2.616,2.616,0,0,1,1,1.062Zm-2.2,9.98a2.105,2.105,0,0,0,1.615-.726,2.894,2.894,0,0,0,0-3.629,2.1,2.1,0,0,0-1.615-.735,2.132,2.132,0,0,0-1.633.708,2.931,2.931,0,0,0,0,3.711,2.132,2.132,0,0,0,1.633.662Z" transform="translate(-1219.655 -2248.065)"/>
        <path id="Trazado_133957" data-name="Trazado 133957" d="M1283.108,2294.315a3.623,3.623,0,0,1-1.815-.436,3.063,3.063,0,0,1-1.261-1.261,3.9,3.9,0,0,1-.463-1.924,3.548,3.548,0,0,1,.989-2.631,3.421,3.421,0,0,1,2.513-.989,3.455,3.455,0,0,1,2.531.989,4.01,4.01,0,0,1,0,5.262A3.391,3.391,0,0,1,1283.108,2294.315Zm0-1.016a2.141,2.141,0,0,0,1.642-.717,2.727,2.727,0,0,0,.662-1.887,2.67,2.67,0,0,0-.662-1.878,2.113,2.113,0,0,0-1.642-.717,2.076,2.076,0,0,0-1.633.717,2.657,2.657,0,0,0-.653,1.878,2.722,2.722,0,0,0,.653,1.887,2.113,2.113,0,0,0,1.633.717Z" transform="translate(-1220.55 -2248.451)"/>
        <path id="Trazado_133958" data-name="Trazado 133958" d="M1218.83,2313.243a4.535,4.535,0,0,1-2.6-.708,2.977,2.977,0,0,1-1.306-1.932l1.288-.309a2.085,2.085,0,0,0,.907,1.361,3.016,3.016,0,0,0,1.769.5,3.09,3.09,0,0,0,.653-.064,2.7,2.7,0,0,0,.6-.181,2.155,2.155,0,0,0,.5-.326,1.244,1.244,0,0,0,.318-.49,1.724,1.724,0,0,0,.118-.662,1.545,1.545,0,0,0-.091-.472,1.317,1.317,0,0,0-.2-.372,1.094,1.094,0,0,0-.336-.3,2.972,2.972,0,0,0-.907-.445l-.535-.164-.572-.163h-.109l-.662-.181-.626-.218a4.114,4.114,0,0,1-.59-.272,4.622,4.622,0,0,1-.49-.344,1.837,1.837,0,0,1-.4-.445,2.587,2.587,0,0,1-.336-1.271,2.537,2.537,0,0,1,.463-1.533,2.723,2.723,0,0,1,1.2-.907,4.354,4.354,0,0,1,1.651-.3,4.536,4.536,0,0,1,2.4.617,2.721,2.721,0,0,1,1.27,1.814l-1.234.308a1.865,1.865,0,0,0-.835-1.225,2.832,2.832,0,0,0-1.552-.417,3.037,3.037,0,0,0-.771.1,2.128,2.128,0,0,0-.662.281,1.384,1.384,0,0,0-.481.517,1.6,1.6,0,0,0-.172.762,1.12,1.12,0,0,0,.073.426,1.306,1.306,0,0,0,.172.336,1.343,1.343,0,0,0,.308.272,3.534,3.534,0,0,0,.372.227,4.91,4.91,0,0,0,.463.172l.5.163.544.145a11.647,11.647,0,0,1,1.923.635,2.439,2.439,0,0,1,1.479,1.814,3.162,3.162,0,0,1,0,.436,2.781,2.781,0,0,1-.29,1.288,2.414,2.414,0,0,1-.78.907,4.083,4.083,0,0,1-1.125.5A5.21,5.21,0,0,1,1218.83,2313.243Z" transform="translate(-1214.557 -2249.931)"/>
        <path id="Trazado_133959" data-name="Trazado 133959" d="M1229.716,2306.423h1.225v6.968h-1.171v-.907a2.168,2.168,0,0,1-.862.781,2.666,2.666,0,0,1-1.216.272,2.443,2.443,0,0,1-1.76-.626,2.379,2.379,0,0,1-.653-1.815v-4.691h1.225v4.427a1.664,1.664,0,0,0,.426,1.243,1.5,1.5,0,0,0,1.1.417,1.669,1.669,0,0,0,1.234-.481,1.962,1.962,0,0,0,.49-1.425Z" transform="translate(-1215.517 -2250.243)"/>
        <path id="Trazado_133960" data-name="Trazado 133960" d="M1237.1,2313.546a3.329,3.329,0,0,1-2.5-1,3.956,3.956,0,0,1,0-5.226,3.629,3.629,0,0,1,4.536-.39,3.019,3.019,0,0,1,1.17,1.688l-1.143.19a2.087,2.087,0,0,0-2.05-1.47,2.06,2.06,0,0,0-1.615.717,3.085,3.085,0,0,0,0,3.747,2.062,2.062,0,0,0,1.615.717,2.087,2.087,0,0,0,2.05-1.47l1.143.191a3.014,3.014,0,0,1-1.179,1.7A3.366,3.366,0,0,1,1237.1,2313.546Z" transform="translate(-1216.291 -2250.235)"/>
        <path id="Trazado_133961" data-name="Trazado 133961" d="M1243.566,2304.456a.789.789,0,0,1-.581-.245.81.81,0,0,1-.245-.59.789.789,0,0,1,.245-.581.834.834,0,0,1,1.161,0,.789.789,0,0,1,.245.581.811.811,0,0,1-.245.59A.789.789,0,0,1,1243.566,2304.456Zm-.617,8.6v-6.968h1.234v6.968Z" transform="translate(-1217.136 -2249.909)"/>
        <path id="Trazado_133962" data-name="Trazado 133962" d="M1249.948,2313.545a3.623,3.623,0,0,1-1.815-.436,3.19,3.19,0,0,1-1.261-1.261,3.893,3.893,0,0,1-.463-1.924,3.629,3.629,0,0,1,.989-2.631,3.712,3.712,0,0,1,5.045,0,3.991,3.991,0,0,1,0,5.262A3.4,3.4,0,0,1,1249.948,2313.545Zm0-1.016a2.158,2.158,0,0,0,1.651-.717,2.723,2.723,0,0,0,.653-1.887,2.657,2.657,0,0,0-.653-1.878,2.132,2.132,0,0,0-1.651-.717,2.106,2.106,0,0,0-1.633.717,3.073,3.073,0,0,0,0,3.765,2.14,2.14,0,0,0,1.624.69Z" transform="translate(-1217.476 -2250.234)"/>
        <path id="Trazado_133963" data-name="Trazado 133963" d="M1220.907,2322.285v1.161h-2.559v8.819h-1.261v-8.8h-2.568v-1.179Z" transform="translate(-1214.52 -2251.715)"/>
        <path id="Trazado_133964" data-name="Trazado 133964" d="M1223.611,2326.845a2.1,2.1,0,0,1,.907-.907,2.574,2.574,0,0,1,1.334-.363v1.152a2.288,2.288,0,0,0-1.615.517,2.161,2.161,0,0,0-.562,1.651v3.674h-1.225V2325.6h1.2Z" transform="translate(-1215.255 -2252.02)"/>
        <path id="Trazado_133965" data-name="Trazado 133965" d="M1228.355,2323.656a.835.835,0,0,1-.835-.835h0a.789.789,0,0,1,.245-.581.837.837,0,0,1,.59-.236.809.809,0,0,1,.572.236.788.788,0,0,1,.245.581.809.809,0,0,1-.245.59A.783.783,0,0,1,1228.355,2323.656Zm-.626,8.6v-6.968h1.234v6.95Z" transform="translate(-1215.725 -2251.689)"/>
        <path id="Trazado_133966" data-name="Trazado 133966" d="M1234.005,2332.717a3.3,3.3,0,0,1-1.878-.5,2.071,2.071,0,0,1-.907-1.434l1.071-.308a1.472,1.472,0,0,0,.572.971,1.817,1.817,0,0,0,1.143.345,2.546,2.546,0,0,0,.671-.091,1.087,1.087,0,0,0,.508-.345.909.909,0,0,0,.209-.635.99.99,0,0,0-.054-.29,1.071,1.071,0,0,0-.118-.227.509.509,0,0,0-.2-.19,1.443,1.443,0,0,0-.236-.155l-.318-.127-.336-.118-.39-.109-.408-.118c-.29-.091-.526-.172-.717-.254a3.045,3.045,0,0,1-.59-.335,1.362,1.362,0,0,1-.454-.554,1.729,1.729,0,0,1-.154-.78,1.818,1.818,0,0,1,.336-1.116,1.946,1.946,0,0,1,.907-.653,3.435,3.435,0,0,1,1.234-.2,3.046,3.046,0,0,1,1.7.454,1.907,1.907,0,0,1,.844,1.361l-1.007.254a1.3,1.3,0,0,0-.526-.907,1.687,1.687,0,0,0-1-.3,1.741,1.741,0,0,0-.907.245.833.833,0,0,0-.381.753.687.687,0,0,0,.1.381.968.968,0,0,0,.209.272,1.185,1.185,0,0,0,.381.209,3.944,3.944,0,0,0,.408.154l.517.127h.1l.671.19a4.274,4.274,0,0,1,.608.254,1.974,1.974,0,0,1,.535.381,1.824,1.824,0,0,1,.345.535,2.038,2.038,0,0,1,.136.753,1.98,1.98,0,0,1-.209.907,1.6,1.6,0,0,1-.562.635,2.542,2.542,0,0,1-.817.354A3.7,3.7,0,0,1,1234.005,2332.717Z" transform="translate(-1216.068 -2252.013)"/>
        <path id="Trazado_133967" data-name="Trazado 133967" d="M1241.355,2332.336a1.814,1.814,0,0,1-1.361-.5,1.905,1.905,0,0,1-.49-1.388v-4.1h-1.425v-.98h.517a1,1,0,0,0,.771-.245,1.17,1.17,0,0,0,.227-.816v-1.261h1.143v2.323h1.6v.98h-1.6v3.974a1.027,1.027,0,0,0,.263.762.906.906,0,0,0,.7.272h.635v.98Z" transform="translate(-1216.704 -2251.786)"/>
        <path id="Trazado_133968" data-name="Trazado 133968" d="M1250.675,2328.934v.336h-5.444a2.442,2.442,0,0,0,.671,1.815,2.178,2.178,0,0,0,1.588.626,2.119,2.119,0,0,0,1.152-.336,2.219,2.219,0,0,0,.8-.907l1.107.236a3.159,3.159,0,0,1-1.2,1.5,3.253,3.253,0,0,1-1.815.544,3.366,3.366,0,0,1-2.5-.971,4.13,4.13,0,0,1,0-5.3,3.348,3.348,0,0,1,2.468-.971,3.149,3.149,0,0,1,2.35.907A3.5,3.5,0,0,1,1250.675,2328.934Zm-3.23-2.54a2.135,2.135,0,0,0-1.443.5,2.262,2.262,0,0,0-.735,1.434h4.173a2.076,2.076,0,0,0-.608-1.434,1.961,1.961,0,0,0-1.388-.472Z" transform="translate(-1217.259 -2252.013)"/>
      </g>
      <g id="Grupo_63700" data-name="Grupo 63700" transform="translate(137.456 105.773)">
        <path id="Trazado_133969" data-name="Trazado 133969" d="M1222.514,2211.4h2.114v10.243h-2.459l-4.536-7.322v7.322h-2.123V2211.4h2.468l4.536,7.258Z" transform="translate(-1215.51 -2210.914)"/>
        <path id="Trazado_133970" data-name="Trazado 133970" d="M1234.957,2218.176v.49h-5.444a1.87,1.87,0,0,0,.581,1.334,2.022,2.022,0,0,0,2.241.209,1.585,1.585,0,0,0,.617-.735l1.869.272a3.234,3.234,0,0,1-1.279,1.715,3.832,3.832,0,0,1-2.15.608,3.938,3.938,0,0,1-2.84-1.007,3.632,3.632,0,0,1-1.052-2.776,3.712,3.712,0,0,1,1.052-2.786,3.839,3.839,0,0,1,2.776-1.016,3.328,3.328,0,0,1,3.629,3.692Zm-3.629-2.25a1.615,1.615,0,0,0-1.769,1.406h3.348a1.534,1.534,0,0,0-.508-1.043,1.6,1.6,0,0,0-1.034-.363Z" transform="translate(-1216.621 -2211.199)"/>
        <path id="Trazado_133971" data-name="Trazado 133971" d="M1242.39,2214.637h1.942v6.741a5.45,5.45,0,0,1-.272,1.814,2.987,2.987,0,0,1-.789,1.243,3.317,3.317,0,0,1-1.216.7,5.005,5.005,0,0,1-1.588.227q-2.885,0-3.756-2.259l1.7-.726a2.461,2.461,0,0,0,.78,1.062,2,2,0,0,0,1.2.336c1.261,0,1.9-.744,1.9-2.25v-.871a2.3,2.3,0,0,1-.907.717,3.073,3.073,0,0,1-1.3.272,3.241,3.241,0,0,1-1.279-.254,3.406,3.406,0,0,1-1.062-.726,3.447,3.447,0,0,1-.717-1.143,4.293,4.293,0,0,1,0-2.958,3.252,3.252,0,0,1,.726-1.125,3.032,3.032,0,0,1,1.062-.708,3.227,3.227,0,0,1,1.288-.263,3,3,0,0,1,1.352.308,2.1,2.1,0,0,1,.907.8Zm-3.13,4.818a1.758,1.758,0,0,0,1.334.562,1.816,1.816,0,0,0,1.343-.562,2.042,2.042,0,0,0,0-2.776,1.9,1.9,0,0,0-2.681-.041l-.041.041a1.944,1.944,0,0,0-.535,1.4,1.9,1.9,0,0,0,.581,1.379Z" transform="translate(-1217.475 -2211.199)"/>
        <path id="Trazado_133972" data-name="Trazado 133972" d="M1253.365,2219.951a6.784,6.784,0,0,0,.172,1.814v.2h-1.905l-.163-.79a2.344,2.344,0,0,1-1.016.7,3.839,3.839,0,0,1-1.325.236,4.193,4.193,0,0,1-.681-.063,2.46,2.46,0,0,1-.608-.218,1.82,1.82,0,0,1-.508-.381,1.513,1.513,0,0,1-.336-.581,2.113,2.113,0,0,1-.136-.789,2.188,2.188,0,0,1,.136-.79,1.878,1.878,0,0,1,.354-.59,2.237,2.237,0,0,1,.581-.436,4.492,4.492,0,0,1,.717-.309,8.482,8.482,0,0,1,.907-.227l1.2-.272a1.184,1.184,0,0,0,.535-.227.454.454,0,0,0,.163-.363.771.771,0,0,0-.354-.708,1.816,1.816,0,0,0-.907-.209,1.253,1.253,0,0,0-1.418,1.061c0,.018,0,.037-.006.055l-1.815-.326a2.452,2.452,0,0,1,1.053-1.669,4.217,4.217,0,0,1,2.286-.535q3.066,0,3.067,2.631Zm-3.629.735a1.632,1.632,0,0,0,1.261-.526,2.205,2.205,0,0,0,.49-1.561l-1.733.49a1.937,1.937,0,0,0-.726.3.617.617,0,0,0-.254.526.673.673,0,0,0,.272.572,1.108,1.108,0,0,0,.726.172Z" transform="translate(-1218.416 -2211.205)"/>
        <path id="Trazado_133973" data-name="Trazado 133973" d="M1258.726,2221.7a2.171,2.171,0,0,1-1.642-.59,2.289,2.289,0,0,1-.581-1.687v-3.439h-1.434v-1.57h.463a1.2,1.2,0,0,0,.907-.309,1.571,1.571,0,0,0,.29-1.08v-.962h1.815v2.35h1.5v1.57h-1.47v3.221c0,.635.281.907.844.907h.653v1.552Z" transform="translate(-1219.177 -2210.976)"/>
        <path id="Trazado_133974" data-name="Trazado 133974" d="M1263.349,2213.215a1.159,1.159,0,0,1-.835-.345,1.142,1.142,0,0,1-.345-.835,1.113,1.113,0,0,1,.354-.825,1.16,1.16,0,0,1,1.642-.009l.009.009a1.17,1.17,0,0,1,.005,1.655l-.005.005A1.134,1.134,0,0,1,1263.349,2213.215Zm-1.034,8.374v-7.258h2.051v7.258Z" transform="translate(-1219.835 -2210.865)"/>
        <path id="Trazado_133975" data-name="Trazado 133975" d="M1271.555,2214.655h2.159l-3.1,7.258H1268.8l-3.067-7.258h2.15l1.815,4.981Z" transform="translate(-1220.165 -2211.216)"/>
        <path id="Trazado_133976" data-name="Trazado 133976" d="M1278.722,2222.076a4.673,4.673,0,0,1-2.06-.445,3.357,3.357,0,0,1-1.415-1.316,3.862,3.862,0,0,1-.517-2.032,3.633,3.633,0,0,1,1.107-2.722,4.618,4.618,0,0,1,5.78,0,4.028,4.028,0,0,1,0,5.543A4.1,4.1,0,0,1,1278.722,2222.076Zm0-1.624a1.88,1.88,0,0,0,1.443-.6,2.213,2.213,0,0,0,.544-1.57,2.256,2.256,0,0,0-.544-1.579,1.9,1.9,0,0,0-1.443-.59,1.813,1.813,0,0,0-1.406.6,2.568,2.568,0,0,0,0,3.139,1.816,1.816,0,0,0,1.388.6Z" transform="translate(-1221 -2211.206)"/>
      </g>
    </g>
  </g>
</svg>
