<svg xmlns="http://www.w3.org/2000/svg" xmlns:xlink="http://www.w3.org/1999/xlink" width="160.198" height="150.249" viewBox="0 0 160.198 150.249">
  <defs>
    <linearGradient id="linear-gradient" x1="60.425" y1="163.829" x2="63.064" y2="165.324" gradientUnits="objectBoundingBox">
      <stop offset="0" stop-color="#d44f4a"/>
      <stop offset="1" stop-color="#e4c7a1"/>
    </linearGradient>
    <linearGradient id="linear-gradient-2" x1="54.176" y1="168.438" x2="56.595" y2="169.985" xlink:href="#linear-gradient"/>
    <linearGradient id="linear-gradient-3" x1="29.844" y1="574.446" x2="31.181" y2="579.651" xlink:href="#linear-gradient"/>
    <linearGradient id="linear-gradient-4" x1="32.868" y1="205.435" x2="34.325" y2="207.299" xlink:href="#linear-gradient"/>
    <linearGradient id="linear-gradient-5" x1="40.261" y1="165.289" x2="42.043" y2="166.804" xlink:href="#linear-gradient"/>
    <linearGradient id="linear-gradient-6" x1="28.247" y1="136.638" x2="29.53" y2="137.92" xlink:href="#linear-gradient"/>
  </defs>
  <g id="Grupo_63790" data-name="Grupo 63790" transform="translate(-278.034 -5419.551)">
    <g id="Grupo_63791" data-name="Grupo 63791">
      <path id="Trazado_134310" data-name="Trazado 134310" d="M285.139,5499.657c0-1.473.048-2.931.128-4.381l-7.089-.424q-.144,2.4-.144,4.805a79.762,79.762,0,0,0,37.3,67.716l3.8-6A72.7,72.7,0,0,1,285.139,5499.657Z" fill="url(#linear-gradient)"/>
      <path id="Trazado_134311" data-name="Trazado 134311" d="M431.128,5499.657a73.06,73.06,0,0,1-37.751,63.92l3.436,6.223a80.168,80.168,0,0,0,41.419-70.143Z" fill="url(#linear-gradient-2)"/>
      <path id="Trazado_134312" data-name="Trazado 134312" d="M404.911,5434.617a80.177,80.177,0,0,0-81.164-7.321l3.059,6.408a73.067,73.067,0,0,1,73.956,6.688Z" fill="url(#linear-gradient-3)"/>
    </g>
    <g id="Grupo_63792" data-name="Grupo 63792">
      <path id="Trazado_134313" data-name="Trazado 134313" d="M368.778,5445.246l1.362-6.977a62.727,62.727,0,0,0-74.484,56.47l7.081.569a55.61,55.61,0,0,1,66.009-50.062Z" fill="url(#linear-gradient-4)"/>
      <path id="Trazado_134314" data-name="Trazado 134314" d="M413.1,5491.792a55.635,55.635,0,0,1-53.194,63.494l.241,7.1a63.51,63.51,0,0,0,6.992-.625,62.7,62.7,0,0,0,52.994-70.984Z" fill="url(#linear-gradient-5)"/>
    </g>
    <circle id="Elipse_5347" data-name="Elipse 5347" cx="43.558" cy="43.558" r="43.558" transform="translate(314.574 5456.098)" fill="url(#linear-gradient-6)"/>
    <path id="Trazado_134315" data-name="Trazado 134315" d="M358.133,5547.661a48,48,0,1,1,48-48h0A48.061,48.061,0,0,1,358.133,5547.661Zm0-87.124a39.12,39.12,0,1,0,39.121,39.12h0A39.169,39.169,0,0,0,358.133,5460.537Z" fill="#e6e6e6"/>
    <g id="Grupo_63793" data-name="Grupo 63793">
      <path id="Trazado_134316" data-name="Trazado 134316" d="M344.757,5516.134q-6.465,0-9.66-4.39t-3.2-11.71q0-7.329,3.2-11.711t9.66-4.389q6.456,0,9.66,4.389t3.2,11.711q0,7.329-3.2,11.71T344.757,5516.134Zm-4.59-23.6a20.047,20.047,0,0,0,0,15.05,5.109,5.109,0,0,0,9.171,0,19.846,19.846,0,0,0-.016-15.05,5.11,5.11,0,0,0-9.171,0Z" fill="#fff"/>
      <path id="Trazado_134317" data-name="Trazado 134317" d="M373.985,5496.782a5.609,5.609,0,0,0,1.177-3.2,3.532,3.532,0,0,0-3.366-3.691c-.093,0-.186-.005-.278,0q-2.94,0-5.567,4.19l-5.607-3.3a17.36,17.36,0,0,1,4.806-5.118,11.779,11.779,0,0,1,6.64-1.738,10.7,10.7,0,0,1,7.081,2.563,8.635,8.635,0,0,1,3.044,6.969,9.421,9.421,0,0,1-1.218,4.6,29.907,29.907,0,0,1-4.526,5.607l-5.606,5.832h12.287v6.231H360.9v-5.166l9.123-9.348A39.8,39.8,0,0,0,373.985,5496.782Z" fill="#fff"/>
    </g>
  </g>
</svg>
