<svg xmlns="http://www.w3.org/2000/svg" width="293.804" height="373.352" viewBox="0 0 293.804 373.352">
  <g id="Grupo_63678" data-name="Grupo 63678" transform="translate(-1043.031 -1611.505)">
    <rect id="Rect치ngulo_8009" data-name="Rect치ngulo 8009" width="293.804" height="373.352" rx="20.609" transform="translate(1043.031 1611.505)" fill="#f2f2f2"/>
    <g id="Grupo_63677" data-name="Grupo 63677" transform="translate(1062.07 1661.851)">
      <rect id="Rect치ngulo_8010" data-name="Rect치ngulo 8010" width="255.725" height="272.659" fill="#f2f2f2"/>
      <g id="Grupo_63672" data-name="Grupo 63672" transform="translate(29.949 48.916)">
        <path id="Trazado_133643" data-name="Trazado 133643" d="M1115.134,1722.571h5.373l-8.994,24.331h-5.563l-8.939-24.331h5.354l6.353,18.441Z" transform="translate(-1097.01 -1721.037)"/>
        <path id="Trazado_133644" data-name="Trazado 133644" d="M1128.653,1726.883a2.8,2.8,0,0,1-2.813-2.8h0a2.658,2.658,0,0,1,.835-1.96,2.782,2.782,0,0,1,3.939,0,2.786,2.786,0,0,1,0,3.939A2.725,2.725,0,0,1,1128.653,1726.883Zm-2.459,19.9v-17.307h4.883v17.307Z" transform="translate(-1099.676 -1720.921)"/>
        <path id="Trazado_133645" data-name="Trazado 133645" d="M1145.044,1747.919a10.907,10.907,0,0,1-4.9-1.062,7.893,7.893,0,0,1-3.358-3.113,9.339,9.339,0,0,1-1.216-4.828,8.467,8.467,0,0,1,2.623-6.571,10.99,10.99,0,0,1,13.722,0,9.54,9.54,0,0,1,0,13.159A9.722,9.722,0,0,1,1145.044,1747.919Zm0-3.857a4.415,4.415,0,0,0,3.376-1.38,6,6,0,0,0,0-7.478,4.419,4.419,0,0,0-3.421-1.416,4.27,4.27,0,0,0-3.331,1.425,6.043,6.043,0,0,0,0,7.46,4.3,4.3,0,0,0,3.331,1.389Z" transform="translate(-1100.574 -1721.719)"/>
        <path id="Trazado_133646" data-name="Trazado 133646" d="M1160.45,1746.746v-25.865h4.9v25.865Z" transform="translate(-1102.876 -1720.881)"/>
        <path id="Trazado_133647" data-name="Trazado 133647" d="M1187.519,1738.678l-.082,1.161h-12.8a4.213,4.213,0,0,0,4.429,4.256,4.25,4.25,0,0,0,2.278-.6,3.706,3.706,0,0,0,1.461-1.724l4.438.663a7.58,7.58,0,0,1-3.031,4.057,9.017,9.017,0,0,1-5.119,1.443,9.388,9.388,0,0,1-6.743-2.378,9.991,9.991,0,0,1,.009-13.223,9.07,9.07,0,0,1,6.589-2.414,8.682,8.682,0,0,1,6.208,2.205Q1187.5,1734.312,1187.519,1738.678Zm-8.54-5.336a3.837,3.837,0,0,0-4.211,3.331h7.95a3.627,3.627,0,0,0-1.189-2.478A3.8,3.8,0,0,0,1178.979,1733.342Z" transform="translate(-1103.745 -1721.716)"/>
        <path id="Trazado_133648" data-name="Trazado 133648" d="M1199.605,1747.048a5.2,5.2,0,0,1-3.9-1.407,5.448,5.448,0,0,1-1.389-3.993v-8.168h-3.394v-3.721h1.089a2.881,2.881,0,0,0,2.16-.726,3.769,3.769,0,0,0,.69-2.577v-2.305h4.374v5.59h3.576v3.721h-3.576v7.66c0,1.5.672,2.242,2.006,2.242h1.57v3.685Z" transform="translate(-1105.693 -1721.183)"/>
        <path id="Trazado_133649" data-name="Trazado 133649" d="M1222.144,1742.886a16.54,16.54,0,0,0,.418,4.22v.472h-4.538l-.381-1.888a5.6,5.6,0,0,1-2.432,1.67,8.9,8.9,0,0,1-3.131.554,8.468,8.468,0,0,1-1.615-.145,5.363,5.363,0,0,1-1.47-.554,4.332,4.332,0,0,1-1.207-.908,3.988,3.988,0,0,1-.808-1.37,5.607,5.607,0,0,1-.3-1.879,5.1,5.1,0,0,1,.318-1.879,4.229,4.229,0,0,1,.844-1.407,4.949,4.949,0,0,1,1.361-1.026,10.013,10.013,0,0,1,1.715-.744,19.486,19.486,0,0,1,2.06-.536l2.841-.644a3.165,3.165,0,0,0,1.343-.5,1.091,1.091,0,0,0,.381-.908,1.813,1.813,0,0,0-.853-1.661,3.962,3.962,0,0,0-2.06-.508q-2.985,0-3.385,2.641l-4.293-.771a5.762,5.762,0,0,1,2.5-3.948,9.977,9.977,0,0,1,5.445-1.271q7.26,0,7.26,6.244Zm-8.54,1.751a3.907,3.907,0,0,0,3-1.261,5.294,5.294,0,0,0,1.162-3.712l-4.111,1.2a4.891,4.891,0,0,0-1.724.708,1.451,1.451,0,0,0-.6,1.243,1.626,1.626,0,0,0,.635,1.379A2.673,2.673,0,0,0,1213.6,1744.638Z" transform="translate(-1107.151 -1721.714)"/>
      </g>
      <g id="Grupo_63673" data-name="Grupo 63673" transform="translate(34.223 136.966)">
        <path id="Trazado_133650" data-name="Trazado 133650" d="M1102.63,1828.184V1818.2h1.261v9.983Z" transform="translate(-1101.804 -1817.929)"/>
        <path id="Trazado_133651" data-name="Trazado 133651" d="M1114.254,1821.371a2.239,2.239,0,0,1,1.625.6,2.183,2.183,0,0,1,.617,1.661v4.846h-1.234v-4.538a1.584,1.584,0,0,0-.381-1.153,1.32,1.32,0,0,0-.971-.39,1.4,1.4,0,0,0-1.062.445,1.869,1.869,0,0,0-.408,1.316v4.311H1111.2v-4.483a1.606,1.606,0,0,0-.345-1.153,1.287,1.287,0,0,0-.989-.408,1.348,1.348,0,0,0-1.053.454,1.96,1.96,0,0,0-.408,1.352v4.265h-1.271v-6.97h1.225v.907a2.065,2.065,0,0,1,.8-.762,2.243,2.243,0,0,1,1.107-.272,2.331,2.331,0,0,1,1.189.3,1.814,1.814,0,0,1,.771.844,2.194,2.194,0,0,1,.835-.844A2.4,2.4,0,0,1,1114.254,1821.371Z" transform="translate(-1102.22 -1818.222)"/>
        <path id="Trazado_133652" data-name="Trazado 133652" d="M1121.622,1828.615a2.336,2.336,0,0,1-1.534-.481,1.708,1.708,0,0,1-.6-1.425,1.994,1.994,0,0,1,.191-.908,1.54,1.54,0,0,1,.572-.635,3.091,3.091,0,0,1,.817-.4,7.6,7.6,0,0,1,1.062-.245l1.125-.191c.408-.073.617-.29.617-.644a1.206,1.206,0,0,0-.436-1.035,1.739,1.739,0,0,0-1.1-.336,1.812,1.812,0,0,0-1.1.318,1.365,1.365,0,0,0-.517.98l-1.107-.227a2.178,2.178,0,0,1,.907-1.5,3.262,3.262,0,0,1,1.906-.5,3.815,3.815,0,0,1,1.007.127,2.544,2.544,0,0,1,.844.39,1.814,1.814,0,0,1,.608.744,2.975,2.975,0,0,1,.209,1.153v2.877a1.171,1.171,0,0,0,.163.726.683.683,0,0,0,.545.191h.118v.908h-.608a1.171,1.171,0,0,1-1.325-.908h-.054A2.642,2.642,0,0,1,1121.622,1828.615Zm.281-.989a1.865,1.865,0,0,0,1.5-.681,2.8,2.8,0,0,0,.563-1.815l-1.815.354a2.423,2.423,0,0,0-1.08.39,1.015,1.015,0,0,0-.018,1.525,1.411,1.411,0,0,0,.853.227Z" transform="translate(-1103.363 -1818.224)"/>
        <path id="Trazado_133653" data-name="Trazado 133653" d="M1133.279,1821.507h1.189v6.616a3.789,3.789,0,0,1-.908,2.723,3.739,3.739,0,0,1-5.872-1.18l1.007-.5a2.315,2.315,0,0,0,2.332,1.615,1.991,1.991,0,0,0,1.688-.69,2.879,2.879,0,0,0,.572-1.906V1826.9a2.481,2.481,0,0,1-1,1.007,3.059,3.059,0,0,1-3.7-.608,3.431,3.431,0,0,1-.908-2.478,3.393,3.393,0,0,1,.908-2.469,3.015,3.015,0,0,1,2.269-.98,2.844,2.844,0,0,1,1.452.39,2.51,2.51,0,0,1,.989,1.035Zm-2.214,5.736a2.107,2.107,0,0,0,1.606-.717,2.541,2.541,0,0,0,0-3.412,2.187,2.187,0,0,0-3.091-.123c-.042.039-.083.08-.122.123a2.42,2.42,0,0,0-.662,1.733,2.449,2.449,0,0,0,.662,1.724A2.152,2.152,0,0,0,1131.065,1827.243Z" transform="translate(-1104.12 -1818.222)"/>
        <path id="Trazado_133654" data-name="Trazado 133654" d="M1138.516,1819.553a.792.792,0,0,1-.581-.245.813.813,0,0,1-.245-.59.788.788,0,0,1,.245-.581.834.834,0,0,1,1.162,0,.787.787,0,0,1,.245.581.812.812,0,0,1-.245.59A.792.792,0,0,1,1138.516,1819.553Zm-.626,8.6v-6.97h1.2v6.97Z" transform="translate(-1105.046 -1817.901)"/>
        <path id="Trazado_133655" data-name="Trazado 133655" d="M1145.314,1821.371a2.416,2.416,0,0,1,1.751.635,2.358,2.358,0,0,1,.663,1.815v4.692h-1.234V1824.1a1.634,1.634,0,0,0-.427-1.252,1.5,1.5,0,0,0-1.089-.408,1.7,1.7,0,0,0-1.243.481,1.943,1.943,0,0,0-.481,1.425v4.166h-1.234v-6.97h1.234v.907A2.315,2.315,0,0,1,1145.314,1821.371Z" transform="translate(-1105.446 -1818.222)"/>
        <path id="Trazado_133656" data-name="Trazado 133656" d="M1152.472,1828.615a2.358,2.358,0,0,1-1.534-.481,1.708,1.708,0,0,1-.6-1.425,1.882,1.882,0,0,1,.2-.908,1.512,1.512,0,0,1,.563-.635,3.354,3.354,0,0,1,.817-.4,7.606,7.606,0,0,1,1.062-.245l1.125-.191c.417-.073.617-.29.617-.644a1.206,1.206,0,0,0-.436-1.035,1.72,1.72,0,0,0-1.1-.336,1.861,1.861,0,0,0-1.1.318,1.365,1.365,0,0,0-.517.98l-1.107-.227a2.158,2.158,0,0,1,.908-1.5,3.21,3.21,0,0,1,1.9-.5,3.816,3.816,0,0,1,1.008.127,2.544,2.544,0,0,1,.844.39,1.71,1.71,0,0,1,.608.744,2.977,2.977,0,0,1,.209,1.153v2.877a1.171,1.171,0,0,0,.163.726.691.691,0,0,0,.554.191h.109v.908h-.608a1.153,1.153,0,0,1-1.316-.908h-.064A2.642,2.642,0,0,1,1152.472,1828.615Zm.281-.989a1.865,1.865,0,0,0,1.5-.681,2.727,2.727,0,0,0,.563-1.815l-1.815.354a2.473,2.473,0,0,0-1.08.39,1.006,1.006,0,0,0-.009,1.525A1.364,1.364,0,0,0,1152.754,1827.625Z" transform="translate(-1106.215 -1818.224)"/>
        <path id="Trazado_133657" data-name="Trazado 133657" d="M1161.366,1828.256a1.818,1.818,0,0,1-1.361-.5,1.908,1.908,0,0,1-.49-1.389v-4.1h-1.425v-.98h.517a1,1,0,0,0,.771-.245,1.173,1.173,0,0,0,.227-.817v-1.243h1.143v2.323h1.6v.98h-1.6v3.957a1.029,1.029,0,0,0,.263.762.91.91,0,0,0,.7.272h.635v.98Z" transform="translate(-1106.932 -1818.001)"/>
        <path id="Trazado_133658" data-name="Trazado 133658" d="M1165.336,1819.553a.792.792,0,0,1-.581-.245.812.812,0,0,1-.245-.59.787.787,0,0,1,.245-.581.834.834,0,0,1,1.162,0,.787.787,0,0,1,.245.581.812.812,0,0,1-.245.59A.792.792,0,0,1,1165.336,1819.553Zm-.626,8.6v-6.97h1.234v6.97Z" transform="translate(-1107.526 -1817.901)"/>
        <path id="Trazado_133659" data-name="Trazado 133659" d="M1173.082,1821.521h1.316l-2.841,6.97h-1.035l-2.823-6.97h1.3l2.042,5.545Z" transform="translate(-1107.821 -1818.236)"/>
        <path id="Trazado_133660" data-name="Trazado 133660" d="M1179.25,1828.613a3.633,3.633,0,0,1-1.815-.436,3.188,3.188,0,0,1-1.252-1.261,3.9,3.9,0,0,1-.463-1.924,3.63,3.63,0,0,1,.989-2.632,3.71,3.71,0,0,1,5.046,0,3.992,3.992,0,0,1,0,5.264A3.424,3.424,0,0,1,1179.25,1828.613Zm0-1.016a2.162,2.162,0,0,0,1.652-.717,2.725,2.725,0,0,0,.653-1.888,2.655,2.655,0,0,0-.653-1.879,2.13,2.13,0,0,0-1.652-.717,2.1,2.1,0,0,0-1.634.717,2.657,2.657,0,0,0-.644,1.879,2.724,2.724,0,0,0,.644,1.888,2.144,2.144,0,0,0,1.624.717Z" transform="translate(-1108.562 -1818.222)"/>
        <path id="Trazado_133661" data-name="Trazado 133661" d="M1107.975,1838.563h-4.048v3.267h3.567v1.143h-3.567v3.258h4.048v1.153h-5.345V1837.4h5.345Z" transform="translate(-1101.804 -1819.705)"/>
        <path id="Trazado_133662" data-name="Trazado 133662" d="M1113,1847.813a3.3,3.3,0,0,1-1.86-.517,2.1,2.1,0,0,1-.908-1.434l1.071-.309a1.548,1.548,0,0,0,.572.971,1.886,1.886,0,0,0,1.143.345,2.578,2.578,0,0,0,.672-.091,1.167,1.167,0,0,0,.517-.345.987.987,0,0,0,.209-.635.96.96,0,0,0-.063-.291,1.048,1.048,0,0,0-.109-.227.574.574,0,0,0-.2-.191,2.037,2.037,0,0,0-.245-.154,1.823,1.823,0,0,0-.309-.127l-.345-.118-.39-.109-.4-.118c-.29-.091-.536-.172-.726-.254a3.36,3.36,0,0,1-.59-.336,1.361,1.361,0,0,1-.454-.554,1.865,1.865,0,0,1-.154-.781,1.813,1.813,0,0,1,.345-1.107,1.884,1.884,0,0,1,.907-.662,3.462,3.462,0,0,1,1.234-.2,3.024,3.024,0,0,1,1.7.454,1.939,1.939,0,0,1,.853,1.361l-1.007.254a1.331,1.331,0,0,0-.535-.908,1.648,1.648,0,0,0-1-.3,1.726,1.726,0,0,0-.907.245.825.825,0,0,0-.39.753.782.782,0,0,0,.1.381,1.514,1.514,0,0,0,.209.272,1.322,1.322,0,0,0,.39.218l.408.145.508.127h.109c.272.064.5.127.672.182a4.776,4.776,0,0,1,.6.254,2.181,2.181,0,0,1,.545.381,1.734,1.734,0,0,1,.336.544,1.807,1.807,0,0,1,.145.744,2.1,2.1,0,0,1-.209.908,1.638,1.638,0,0,1-.572.644,2.731,2.731,0,0,1-.808.345A3.737,3.737,0,0,1,1113,1847.813Z" transform="translate(-1102.507 -1819.997)"/>
        <path id="Trazado_133663" data-name="Trazado 133663" d="M1121.915,1840.571a3.128,3.128,0,0,1,1.261.263,3.035,3.035,0,0,1,1.034.708,3.458,3.458,0,0,1,.7,1.153,4.259,4.259,0,0,1,.263,1.507,3.711,3.711,0,0,1-.907,2.632,3.06,3.06,0,0,1-2.314,1,2.815,2.815,0,0,1-1.461-.4,2.616,2.616,0,0,1-.989-1.071v4.828h-1.271v-10.482h1.189v1.361a2.55,2.55,0,0,1,.989-1.089A2.757,2.757,0,0,1,1121.915,1840.571Zm-.245,6.189a2.1,2.1,0,0,0,1.615-.7,2.977,2.977,0,0,0,0-3.721,2.094,2.094,0,0,0-1.615-.7,2.138,2.138,0,0,0-1.634.726,2.841,2.841,0,0,0,0,3.63A2.119,2.119,0,0,0,1121.67,1846.76Z" transform="translate(-1103.247 -1819.998)"/>
        <path id="Trazado_133664" data-name="Trazado 133664" d="M1128.615,1838.753a.835.835,0,0,1-.835-.835h0a.787.787,0,0,1,.245-.581.833.833,0,0,1,.59-.236.805.805,0,0,1,.572.236.787.787,0,0,1,.245.581.811.811,0,0,1-.245.59A.784.784,0,0,1,1128.615,1838.753Zm-.626,8.6v-6.97h1.234v6.97Z" transform="translate(-1104.13 -1819.677)"/>
        <path id="Trazado_133665" data-name="Trazado 133665" d="M1133.323,1841.942a2.12,2.12,0,0,1,.907-.908,2.609,2.609,0,0,1,1.343-.363v1.153a2.312,2.312,0,0,0-1.625.517,2.159,2.159,0,0,0-.554,1.652v3.721h-1.225v-6.97h1.2Z" transform="translate(-1104.536 -1820.007)"/>
        <path id="Trazado_133666" data-name="Trazado 133666" d="M1138.056,1838.751a.792.792,0,0,1-.581-.245.807.807,0,0,1-.245-.608.787.787,0,0,1,.245-.581.834.834,0,0,1,1.162,0,.788.788,0,0,1,.245.581.812.812,0,0,1-.245.59A.792.792,0,0,1,1138.056,1838.751Zm-.626,8.6v-6.97h1.234v6.97Z" transform="translate(-1105.004 -1819.675)"/>
        <path id="Trazado_133667" data-name="Trazado 133667" d="M1143.685,1847.454a1.817,1.817,0,0,1-1.361-.5,1.881,1.881,0,0,1-.5-1.388v-4.1H1140.4v-.98h.526a.984.984,0,0,0,.762-.245,1.172,1.172,0,0,0,.227-.817v-1.262h1.143v2.323h1.6v.98h-1.6v3.975a1.062,1.062,0,0,0,.263.762.91.91,0,0,0,.7.272h.635v.98Z" transform="translate(-1105.297 -1819.775)"/>
        <path id="Trazado_133668" data-name="Trazado 133668" d="M1151.381,1840.719h1.271v6.97h-1.18v-.908a2.239,2.239,0,0,1-.862.781,2.678,2.678,0,0,1-1.216.272,2.444,2.444,0,0,1-1.761-.626,2.379,2.379,0,0,1-.653-1.815V1840.7h1.134v4.42a1.7,1.7,0,0,0,.427,1.252,1.535,1.535,0,0,0,1.1.408,1.673,1.673,0,0,0,1.234-.481,1.964,1.964,0,0,0,.49-1.425Z" transform="translate(-1105.904 -1820.01)"/>
        <path id="Trazado_133669" data-name="Trazado 133669" d="M1157.483,1847.816a2.331,2.331,0,0,1-1.525-.481,1.708,1.708,0,0,1-.6-1.425,2,2,0,0,1,.191-.908,1.54,1.54,0,0,1,.572-.635,3.089,3.089,0,0,1,.817-.4,7.115,7.115,0,0,1,1.062-.245l1.125-.191c.408-.073.617-.29.617-.644a1.207,1.207,0,0,0-.436-1.035,1.985,1.985,0,0,0-2.2,0,1.333,1.333,0,0,0-.517.971l-1.107-.227a2.15,2.15,0,0,1,.908-1.5,3.262,3.262,0,0,1,1.906-.5,3.892,3.892,0,0,1,1.007.127,2.72,2.72,0,0,1,.844.39,1.761,1.761,0,0,1,.6.744,2.8,2.8,0,0,1,.218,1.153v2.877a1.17,1.17,0,0,0,.163.726.663.663,0,0,0,.545.191h.118v.908h-.617a1.163,1.163,0,0,1-1.316-.908h-.082A2.644,2.644,0,0,1,1157.483,1847.816Zm.291-.989a1.817,1.817,0,0,0,1.488-.672,2.787,2.787,0,0,0,.572-1.815l-1.815.354a2.385,2.385,0,0,0-1.08.39,1.015,1.015,0,0,0-.018,1.525,1.415,1.415,0,0,0,.853.218Z" transform="translate(-1106.68 -1820)"/>
        <path id="Trazado_133670" data-name="Trazado 133670" d="M1164.31,1847.292V1836.4h1.243v10.89Z" transform="translate(-1107.507 -1819.612)"/>
        <path id="Trazado_133671" data-name="Trazado 133671" d="M1106.833,1866.706a5.41,5.41,0,0,1-1.969-.354,5.114,5.114,0,0,1-1.579-1.007,4.553,4.553,0,0,1-1.044-1.624,5.827,5.827,0,0,1-.381-2.151,5.743,5.743,0,0,1,.381-2.133,4.535,4.535,0,0,1,2.623-2.632,5.369,5.369,0,0,1,1.969-.354,5.021,5.021,0,0,1,2.65.708,4.375,4.375,0,0,1,1.788,1.951l-1.171.481a3.365,3.365,0,0,0-1.307-1.425,3.731,3.731,0,0,0-1.933-.5,4.037,4.037,0,0,0-1.461.263,3.438,3.438,0,0,0-1.171.753,3.342,3.342,0,0,0-.79,1.234,4.534,4.534,0,0,0-.29,1.652,4.641,4.641,0,0,0,.29,1.67,3.358,3.358,0,0,0,.79,1.234,3.465,3.465,0,0,0,1.171.753,3.886,3.886,0,0,0,1.461.263,3.739,3.739,0,0,0,1.933-.5,3.3,3.3,0,0,0,1.307-1.416l1.171.481a4.361,4.361,0,0,1-1.815,1.951A5.139,5.139,0,0,1,1106.833,1866.706Z" transform="translate(-1101.733 -1821.466)"/>
        <path id="Trazado_133672" data-name="Trazado 133672" d="M1117.119,1867.013a3.636,3.636,0,0,1-1.815-.436,3.072,3.072,0,0,1-1.261-1.261,3.9,3.9,0,0,1-.463-1.924,3.55,3.55,0,0,1,.989-2.632,3.711,3.711,0,0,1,5.046,0,4.011,4.011,0,0,1,0,5.264A3.389,3.389,0,0,1,1117.119,1867.013Zm0-1.016a2.181,2.181,0,0,0,1.652-.717,2.723,2.723,0,0,0,.653-1.888,2.655,2.655,0,0,0-.653-1.879,2.141,2.141,0,0,0-1.652-.717,2.093,2.093,0,0,0-1.634.717,2.655,2.655,0,0,0-.653,1.879,2.723,2.723,0,0,0,.653,1.888,2.127,2.127,0,0,0,1.624.717Z" transform="translate(-1102.816 -1821.773)"/>
        <path id="Trazado_133673" data-name="Trazado 133673" d="M1130.584,1859.771a2.232,2.232,0,0,1,1.624.6,2.16,2.16,0,0,1,.617,1.661v4.846H1131.6v-4.538a1.585,1.585,0,0,0-.381-1.152,1.32,1.32,0,0,0-.971-.39,1.366,1.366,0,0,0-1.062.445,1.871,1.871,0,0,0-.409,1.316v4.311h-1.243v-4.483a1.653,1.653,0,0,0-.39-1.18,1.3,1.3,0,0,0-.989-.408,1.368,1.368,0,0,0-1.062.454,1.96,1.96,0,0,0-.408,1.352v4.265h-1.225v-6.97h1.225v.908a2.21,2.21,0,0,1,.8-.762,2.246,2.246,0,0,1,1.107-.272,2.344,2.344,0,0,1,1.2.3,1.813,1.813,0,0,1,.771.844,2.124,2.124,0,0,1,.835-.844A2.349,2.349,0,0,1,1130.584,1859.771Z" transform="translate(-1103.73 -1821.773)"/>
        <path id="Trazado_133674" data-name="Trazado 133674" d="M1140.079,1859.771a3.255,3.255,0,0,1,1.261.254,3.18,3.18,0,0,1,1.035.717,3.233,3.233,0,0,1,.7,1.153,4.264,4.264,0,0,1,.263,1.506,3.629,3.629,0,0,1-.907,2.623,3.04,3.04,0,0,1-2.314,1.007,2.73,2.73,0,0,1-1.452-.4,2.641,2.641,0,0,1-1-1.071v4.828h-1.225v-10.482h1.18v1.352a2.551,2.551,0,0,1,1-1.08A2.718,2.718,0,0,1,1140.079,1859.771Zm-.236,6.189a2.126,2.126,0,0,0,1.615-.7,2.978,2.978,0,0,0,0-3.721,2.123,2.123,0,0,0-1.579-.672,2.15,2.15,0,0,0-1.643.726,2.868,2.868,0,0,0,0,3.63,2.153,2.153,0,0,0,1.643.735Z" transform="translate(-1104.93 -1821.773)"/>
        <path id="Trazado_133675" data-name="Trazado 133675" d="M1147.732,1867.016a2.39,2.39,0,0,1-1.534-.481,1.707,1.707,0,0,1-.6-1.425,2.06,2.06,0,0,1,.191-.907,1.571,1.571,0,0,1,.572-.626,3.085,3.085,0,0,1,.817-.4,9.093,9.093,0,0,1,1.062-.254l1.125-.182c.408-.073.617-.29.617-.644a1.206,1.206,0,0,0-.436-1.035,1.747,1.747,0,0,0-1.107-.336,1.81,1.81,0,0,0-1.089.318,1.365,1.365,0,0,0-.517.98l-1.107-.236a2.175,2.175,0,0,1,.907-1.488,3.261,3.261,0,0,1,1.906-.5,3.881,3.881,0,0,1,1.007.127,2.549,2.549,0,0,1,.844.39,1.694,1.694,0,0,1,.6.744,2.8,2.8,0,0,1,.218,1.153v2.877a1.171,1.171,0,0,0,.163.726.683.683,0,0,0,.545.191h.118v.908h-.608c-.753,0-1.2-.309-1.325-.908h-.054A2.662,2.662,0,0,1,1147.732,1867.016Zm.281-.989a1.862,1.862,0,0,0,1.5-.681,2.8,2.8,0,0,0,.563-1.815l-1.815.354a2.424,2.424,0,0,0-1.08.39,1.016,1.016,0,0,0-.09,1.434,1.069,1.069,0,0,0,.09.091,1.414,1.414,0,0,0,.808.227Z" transform="translate(-1105.777 -1821.776)"/>
        <path id="Trazado_133676" data-name="Trazado 133676" d="M1156.7,1867.015a3.337,3.337,0,0,1-1.879-.5,2.091,2.091,0,0,1-.907-1.434l1.071-.308a1.472,1.472,0,0,0,.572.971,1.816,1.816,0,0,0,1.143.345,2.615,2.615,0,0,0,.672-.091,1.1,1.1,0,0,0,.508-.345.909.909,0,0,0,.209-.635,1.37,1.37,0,0,0-.054-.291,1.307,1.307,0,0,0-.118-.227.573.573,0,0,0-.2-.191l-.236-.154-.318-.127-.336-.118-.39-.109-.408-.118a7.2,7.2,0,0,1-.717-.254,3.053,3.053,0,0,1-.59-.336,1.3,1.3,0,0,1-.463-.554,1.873,1.873,0,0,1-.145-.781,1.817,1.817,0,0,1,.336-1.116,1.921,1.921,0,0,1,.907-.653,3.518,3.518,0,0,1,1.243-.2,3.041,3.041,0,0,1,1.7.454,1.906,1.906,0,0,1,.844,1.361l-1.007.254a1.326,1.326,0,0,0-.526-.908,1.689,1.689,0,0,0-1.007-.3,1.725,1.725,0,0,0-.908.245.844.844,0,0,0-.39.753.694.694,0,0,0,.109.381.981.981,0,0,0,.209.272,1.186,1.186,0,0,0,.381.209,3.4,3.4,0,0,0,.408.154l.508.127h.109l.672.191a4.752,4.752,0,0,1,.6.254,1.9,1.9,0,0,1,.545.381,1.791,1.791,0,0,1,.345.535,2.028,2.028,0,0,1,.136.753,1.984,1.984,0,0,1-.209.907,1.557,1.557,0,0,1-.572.635,2.418,2.418,0,0,1-.808.354A3.766,3.766,0,0,1,1156.7,1867.015Z" transform="translate(-1106.546 -1821.775)"/>
        <path id="Trazado_133677" data-name="Trazado 133677" d="M1162.545,1857.953a.835.835,0,0,1-.835-.835h0a.787.787,0,0,1,.245-.581.833.833,0,0,1,.59-.236.8.8,0,0,1,.572.236.787.787,0,0,1,.245.581.812.812,0,0,1-.245.59A.783.783,0,0,1,1162.545,1857.953Zm-.626,8.6v-6.97h1.234v6.97Z" transform="translate(-1107.267 -1821.452)"/>
        <path id="Trazado_133678" data-name="Trazado 133678" d="M1170.291,1859.921h1.307l-2.832,6.97h-1.044l-2.822-6.97h1.307l2.042,5.545Z" transform="translate(-1107.562 -1821.787)"/>
        <path id="Trazado_133679" data-name="Trazado 133679" d="M1176.45,1867.013a3.636,3.636,0,0,1-1.815-.436,3.1,3.1,0,0,1-1.252-1.261,3.9,3.9,0,0,1-.463-1.924,3.549,3.549,0,0,1,.989-2.632,3.7,3.7,0,0,1,5.037,0,3.992,3.992,0,0,1,0,5.264A3.41,3.41,0,0,1,1176.45,1867.013Zm0-1.016a2.16,2.16,0,0,0,1.643-.717,2.723,2.723,0,0,0,.653-1.888,2.655,2.655,0,0,0-.653-1.879,2.242,2.242,0,0,0-3.168-.118c-.04.038-.08.077-.117.118a3.073,3.073,0,0,0,0,3.766,2.145,2.145,0,0,0,1.643.717Z" transform="translate(-1108.303 -1821.773)"/>
        <path id="Trazado_133680" data-name="Trazado 133680" d="M1105.622,1885.942a4.538,4.538,0,0,1-2.6-.708,2.97,2.97,0,0,1-1.3-1.933l1.28-.309a2.071,2.071,0,0,0,.908,1.361,3.015,3.015,0,0,0,1.76.5,3.12,3.12,0,0,0,.663-.063,2.817,2.817,0,0,0,.6-.182,1.937,1.937,0,0,0,.49-.327,1.364,1.364,0,0,0,.327-.49,1.573,1.573,0,0,0,.109-.662,1.324,1.324,0,0,0-.082-.472,1.6,1.6,0,0,0-.2-.372,1.218,1.218,0,0,0-.336-.3,3.353,3.353,0,0,0-.408-.245,3.707,3.707,0,0,0-.5-.2l-.526-.163-.572-.163h-.109l-.672-.182-.617-.218a3.338,3.338,0,0,1-.59-.272,4.61,4.61,0,0,1-.49-.345,1.68,1.68,0,0,1-.4-.445,2.168,2.168,0,0,1-.245-.563,2.788,2.788,0,0,1,.372-2.242,2.715,2.715,0,0,1,1.2-.908,4.321,4.321,0,0,1,1.652-.3,4.531,4.531,0,0,1,2.4.617,2.723,2.723,0,0,1,1.271,1.815l-1.234.309a1.813,1.813,0,0,0-.826-1.225,3.074,3.074,0,0,0-2.323-.318,2.027,2.027,0,0,0-.662.281,1.319,1.319,0,0,0-.481.517,1.632,1.632,0,0,0-.182.762,1.345,1.345,0,0,0,.073.427,1.192,1.192,0,0,0,.182.336,1.524,1.524,0,0,0,.3.272l.372.227q.227.1.463.172l.5.163.545.145a11.287,11.287,0,0,1,1.924.635,2.422,2.422,0,0,1,1.479,1.815,3.162,3.162,0,0,1,0,.436,2.781,2.781,0,0,1-.281,1.289,2.373,2.373,0,0,1-.79.907,4.156,4.156,0,0,1-1.116.5A5.336,5.336,0,0,1,1105.622,1885.942Z" transform="translate(-1101.72 -1823.25)"/>
        <path id="Trazado_133681" data-name="Trazado 133681" d="M1118.246,1882.461v.336H1112.8a2.443,2.443,0,0,0,.662,1.815,2.182,2.182,0,0,0,1.588.626,2.118,2.118,0,0,0,1.153-.336,2.158,2.158,0,0,0,.8-.907l1.107.236a3.213,3.213,0,0,1-1.189,1.5,3.267,3.267,0,0,1-1.815.544,3.386,3.386,0,0,1-2.514-.971,4.148,4.148,0,0,1,0-5.3,3.32,3.32,0,0,1,2.469-.971,3.137,3.137,0,0,1,2.341.908A3.521,3.521,0,0,1,1118.246,1882.461Zm-3.222-2.541a2.14,2.14,0,0,0-1.452.5,2.259,2.259,0,0,0-.735,1.434h4.175a2.043,2.043,0,0,0-.608-1.434,1.94,1.94,0,0,0-1.379-.526Z" transform="translate(-1102.637 -1823.554)"/>
        <path id="Trazado_133682" data-name="Trazado 133682" d="M1124.325,1878.981a2.448,2.448,0,0,1,1.761.635,2.358,2.358,0,0,1,.653,1.815v4.692h-1.225v-4.42a1.663,1.663,0,0,0-.427-1.243,1.5,1.5,0,0,0-1.089-.408,1.685,1.685,0,0,0-1.243.481,1.988,1.988,0,0,0-.49,1.425v4.166h-1.225v-6.97h1.225v.908A2.322,2.322,0,0,1,1124.325,1878.981Z" transform="translate(-1103.506 -1823.549)"/>
        <path id="Trazado_133683" data-name="Trazado 133683" d="M1132.076,1886.241a3.3,3.3,0,0,1-1.879-.5,2.1,2.1,0,0,1-.908-1.434l1.071-.309a1.473,1.473,0,0,0,.572.971,1.888,1.888,0,0,0,1.144.345,2.583,2.583,0,0,0,.672-.091,1.166,1.166,0,0,0,.517-.345.91.91,0,0,0,.2-.635.754.754,0,0,0-.055-.29c0-.082-.073-.163-.109-.227a.574.574,0,0,0-.2-.191,2.01,2.01,0,0,0-.245-.154,1.946,1.946,0,0,0-.318-.127l-.336-.118-.39-.109-.4-.118a7.314,7.314,0,0,1-.726-.254,3.333,3.333,0,0,1-.59-.336,1.359,1.359,0,0,1-.454-.553,1.865,1.865,0,0,1-.154-.781,1.814,1.814,0,0,1,.345-1.116,1.92,1.92,0,0,1,.907-.654,3.488,3.488,0,0,1,1.216-.236,3.042,3.042,0,0,1,1.7.454,1.94,1.94,0,0,1,.853,1.361l-1.007.254a1.33,1.33,0,0,0-.536-.908,1.671,1.671,0,0,0-1.007-.254,1.7,1.7,0,0,0-.907.245.825.825,0,0,0-.39.753.781.781,0,0,0,.1.381.909.909,0,0,0,.59.481,4.091,4.091,0,0,0,.417.154l.508.127h.109l.672.191a5.309,5.309,0,0,1,.6.254,2.176,2.176,0,0,1,.544.381,1.9,1.9,0,0,1,.481,1.289,2.1,2.1,0,0,1-.209.907,1.7,1.7,0,0,1-.572.635,2.539,2.539,0,0,1-.817.354A3.741,3.741,0,0,1,1132.076,1886.241Z" transform="translate(-1104.269 -1823.549)"/>
        <path id="Trazado_133684" data-name="Trazado 133684" d="M1137.916,1877.153a.793.793,0,0,1-.581-.245.813.813,0,0,1-.245-.59.788.788,0,0,1,.245-.581.815.815,0,0,1,.581-.236.832.832,0,0,1,.581.236.788.788,0,0,1,.245.581A.835.835,0,0,1,1137.916,1877.153Zm-.626,8.6v-6.97h1.234v6.97Z" transform="translate(-1104.991 -1823.228)"/>
        <path id="Trazado_133685" data-name="Trazado 133685" d="M1143.542,1885.854a1.817,1.817,0,0,1-1.361-.5,1.881,1.881,0,0,1-.5-1.389v-4.1h-1.452v-.98h.526a.984.984,0,0,0,.762-.245,1.172,1.172,0,0,0,.227-.817v-1.261h1.207v2.323h1.6v.98h-1.6v3.975a1.062,1.062,0,0,0,.263.762.911.911,0,0,0,.7.272h.635v.98Z" transform="translate(-1105.281 -1823.326)"/>
        <path id="Trazado_133686" data-name="Trazado 133686" d="M1147.506,1877.153a.792.792,0,0,1-.581-.245.813.813,0,0,1-.245-.59.788.788,0,0,1,.245-.581.834.834,0,0,1,1.162,0,.787.787,0,0,1,.245.581.811.811,0,0,1-.245.59A.792.792,0,0,1,1147.506,1877.153Zm-.617,8.6v-6.97h1.2v6.97Z" transform="translate(-1105.877 -1823.228)"/>
        <path id="Trazado_133687" data-name="Trazado 133687" d="M1155.259,1879.121h1.289l-2.832,6.97h-1.044l-2.823-6.97h1.307l2.042,5.545Z" transform="translate(-1106.17 -1823.562)"/>
        <path id="Trazado_133688" data-name="Trazado 133688" d="M1161.419,1886.243a3.634,3.634,0,0,1-1.815-.436,3.1,3.1,0,0,1-1.252-1.261,3.8,3.8,0,0,1-.472-1.924,3.631,3.631,0,0,1,.989-2.632,3.711,3.711,0,0,1,5.046,0,3.992,3.992,0,0,1,0,5.264A3.41,3.41,0,0,1,1161.419,1886.243Zm0-1.016a2.162,2.162,0,0,0,1.652-.717,2.724,2.724,0,0,0,.653-1.888,2.655,2.655,0,0,0-.653-1.879,2.13,2.13,0,0,0-1.652-.717,2.1,2.1,0,0,0-1.634.717,2.995,2.995,0,0,0-.036,3.757,2.145,2.145,0,0,0,1.661.7Z" transform="translate(-1106.913 -1823.551)"/>
        <path id="Trazado_133689" data-name="Trazado 133689" d="M1113.12,1904.964h-1.234l-.672-8.24-3.158,8.24h-.762l-3.167-8.168-.672,8.168h-1.225l.762-9.983h1.67l3.013,7.8,3.031-7.787h1.688Z" transform="translate(-1101.767 -1825.029)"/>
        <path id="Trazado_133690" data-name="Trazado 133690" d="M1117.546,1896.353a.792.792,0,0,1-.581-.245.812.812,0,0,1-.245-.59.787.787,0,0,1,.245-.581.834.834,0,0,1,1.162,0,.788.788,0,0,1,.245.581.812.812,0,0,1-.245.59A.792.792,0,0,1,1117.546,1896.353Zm-.617,8.6v-6.97h1.234v6.952Z" transform="translate(-1103.107 -1825.003)"/>
        <path id="Trazado_133691" data-name="Trazado 133691" d="M1123.2,1905.415a3.336,3.336,0,0,1-1.879-.5,2.091,2.091,0,0,1-.908-1.434l1.071-.309a1.472,1.472,0,0,0,.572.971,1.817,1.817,0,0,0,1.144.345,2.625,2.625,0,0,0,.672-.091,1.1,1.1,0,0,0,.508-.345.909.909,0,0,0,.209-.635,1.367,1.367,0,0,0-.055-.291,1.03,1.03,0,0,0-.118-.227.574.574,0,0,0-.2-.191l-.236-.154-.318-.127-.336-.118-.39-.109-.408-.118a7.16,7.16,0,0,1-.717-.254,3.051,3.051,0,0,1-.59-.336,1.3,1.3,0,0,1-.463-.554,1.875,1.875,0,0,1-.145-.781,1.813,1.813,0,0,1,.336-1.107,1.879,1.879,0,0,1,.908-.662,3.514,3.514,0,0,1,1.243-.2,3.041,3.041,0,0,1,1.7.454,1.906,1.906,0,0,1,.844,1.361l-1.007.254a1.325,1.325,0,0,0-.526-.908,1.69,1.69,0,0,0-1.007-.3,1.725,1.725,0,0,0-.907.245.844.844,0,0,0-.39.753.7.7,0,0,0,.109.381.983.983,0,0,0,.209.272,1.187,1.187,0,0,0,.381.209,3.432,3.432,0,0,0,.408.154l.508.127h.109l.672.191a4.767,4.767,0,0,1,.6.254,1.9,1.9,0,0,1,.544.381,1.791,1.791,0,0,1,.345.535,2.032,2.032,0,0,1,.136.753,1.983,1.983,0,0,1-.209.907,1.638,1.638,0,0,1-.572.644,2.6,2.6,0,0,1-.808.345A3.757,3.757,0,0,1,1123.2,1905.415Z" transform="translate(-1103.448 -1825.325)"/>
        <path id="Trazado_133692" data-name="Trazado 133692" d="M1130.552,1905.034a1.818,1.818,0,0,1-1.361-.5,1.918,1.918,0,0,1-.5-1.389v-4.1h-1.461v-.98h.526a1.013,1.013,0,0,0,.771-.245,1.217,1.217,0,0,0,.227-.817v-1.261h1.2v2.323h1.606v.98h-1.606v3.975a1.036,1.036,0,0,0,.272.762.91.91,0,0,0,.7.272h.635v.98Z" transform="translate(-1104.079 -1825.099)"/>
        <path id="Trazado_133693" data-name="Trazado 133693" d="M1139.868,1901.628v.336h-5.445a2.442,2.442,0,0,0,.672,1.815,2.163,2.163,0,0,0,1.588.626,2.108,2.108,0,0,0,1.942-1.261l1.107.236a3.1,3.1,0,0,1-1.189,1.5,3.269,3.269,0,0,1-1.815.545,3.371,3.371,0,0,1-2.6-.98,4.13,4.13,0,0,1,0-5.3,3.337,3.337,0,0,1,2.469-.971,3.111,3.111,0,0,1,2.341.907A3.5,3.5,0,0,1,1139.868,1901.628Zm-3.231-2.541a2.11,2.11,0,0,0-1.443.5,2.26,2.26,0,0,0-.735,1.434h4.211a2.076,2.076,0,0,0-.608-1.434,1.958,1.958,0,0,0-1.425-.472Z" transform="translate(-1104.628 -1825.323)"/>
        <path id="Trazado_133694" data-name="Trazado 133694" d="M1143.862,1899.542a2.146,2.146,0,0,1,.907-.908,2.574,2.574,0,0,1,1.334-.363v1.153a2.28,2.28,0,0,0-1.615.517,2.159,2.159,0,0,0-.554,1.652v3.675H1142.7v-6.97h1.2Z" transform="translate(-1105.509 -1825.333)"/>
        <path id="Trazado_133695" data-name="Trazado 133695" d="M1148.6,1896.353a.835.835,0,0,1-.835-.835h0a.787.787,0,0,1,.245-.581.833.833,0,0,1,.59-.236.821.821,0,0,1,.572,1.407A.774.774,0,0,1,1148.6,1896.353Zm-.626,8.6v-6.97h1.234v6.952Z" transform="translate(-1105.978 -1825.003)"/>
        <path id="Trazado_133696" data-name="Trazado 133696" d="M1154.979,1905.413a3.637,3.637,0,0,1-1.815-.436,3.073,3.073,0,0,1-1.261-1.261,3.9,3.9,0,0,1-.463-1.924,3.559,3.559,0,0,1,.989-2.632,3.421,3.421,0,0,1,2.514-.989,3.456,3.456,0,0,1,2.532.989,3.63,3.63,0,0,1,.98,2.632,3.553,3.553,0,0,1-.989,2.632A3.4,3.4,0,0,1,1154.979,1905.413Zm0-1.016a2.146,2.146,0,0,0,1.643-.717,2.729,2.729,0,0,0,.662-1.888,2.668,2.668,0,0,0-.662-1.879,2.113,2.113,0,0,0-1.643-.717,2.076,2.076,0,0,0-1.634.717,2.655,2.655,0,0,0-.653,1.879,2.723,2.723,0,0,0,.653,1.888A2.115,2.115,0,0,0,1154.979,1904.4Z" transform="translate(-1106.317 -1825.324)"/>
        <path id="Trazado_133697" data-name="Trazado 133697" d="M1163.476,1905.415a3.3,3.3,0,0,1-1.879-.5,2.1,2.1,0,0,1-.908-1.434l1.071-.309a1.473,1.473,0,0,0,.572.971,1.817,1.817,0,0,0,1.144.345,2.577,2.577,0,0,0,.672-.091,1.165,1.165,0,0,0,.517-.345.91.91,0,0,0,.2-.635.755.755,0,0,0-.055-.291,1.035,1.035,0,0,0-.118-.227.534.534,0,0,0-.191-.191,2.036,2.036,0,0,0-.245-.154,1.951,1.951,0,0,0-.318-.127l-.336-.118-.39-.109-.4-.118a7.313,7.313,0,0,1-.726-.254,3.055,3.055,0,0,1-.59-.336,1.361,1.361,0,0,1-.454-.554,1.728,1.728,0,0,1-.154-.781,1.813,1.813,0,0,1,.336-1.107,1.9,1.9,0,0,1,.908-.662,3.461,3.461,0,0,1,1.234-.2,3.041,3.041,0,0,1,1.7.454,1.906,1.906,0,0,1,.844,1.361l-1,.254a1.33,1.33,0,0,0-.535-.908,1.809,1.809,0,0,0-1.906-.054.825.825,0,0,0-.39.753.691.691,0,0,0,.1.381.91.91,0,0,0,.59.481,4.055,4.055,0,0,0,.417.154l.508.127h.109l.662.191a5.493,5.493,0,0,1,.608.254,2.183,2.183,0,0,1,.544.381,1.811,1.811,0,0,1,.336.535,2.019,2.019,0,0,1,.145.753,2.1,2.1,0,0,1-.209.907,1.824,1.824,0,0,1-.572.644,2.726,2.726,0,0,1-.817.345A3.727,3.727,0,0,1,1163.476,1905.415Z" transform="translate(-1107.173 -1825.325)"/>
        <path id="Trazado_133698" data-name="Trazado 133698" d="M1171.589,1905.413a3.638,3.638,0,0,1-1.815-.436,3.072,3.072,0,0,1-1.261-1.261,3.9,3.9,0,0,1-.463-1.924,3.558,3.558,0,0,1,.989-2.632,3.711,3.711,0,0,1,5.046,0,3.63,3.63,0,0,1,.98,2.632,3.552,3.552,0,0,1-.989,2.632A3.388,3.388,0,0,1,1171.589,1905.413Zm0-1.016a2.146,2.146,0,0,0,1.643-.717,2.658,2.658,0,0,0,.662-1.888,2.623,2.623,0,0,0-.662-1.879,2.113,2.113,0,0,0-1.643-.717,2.076,2.076,0,0,0-1.634.717,2.654,2.654,0,0,0-.653,1.879,2.723,2.723,0,0,0,.653,1.888,2.116,2.116,0,0,0,1.625.717Z" transform="translate(-1107.853 -1825.324)"/>
      </g>
      <g id="Grupo_63674" data-name="Grupo 63674" transform="translate(34.804 105.801)">
        <path id="Trazado_133699" data-name="Trazado 133699" d="M1106.625,1784.091a3.092,3.092,0,0,1,2.36.907,3.359,3.359,0,0,1,.907,2.36,3.185,3.185,0,0,1-.907,2.341,3.115,3.115,0,0,1-2.36.908h-2.142v3.63h-2.124v-10.146Zm-.363,4.792a1.525,1.525,0,0,0,1.171-.4,1.5,1.5,0,0,0,.39-1.107,1.521,1.521,0,0,0-.39-1.1,1.55,1.55,0,0,0-1.171-.408h-1.815v3.013Z" transform="translate(-1102.36 -1783.61)"/>
        <path id="Trazado_133700" data-name="Trazado 133700" d="M1115.373,1794.774a4.684,4.684,0,0,1-2.06-.445,3.365,3.365,0,0,1-1.416-1.316,3.865,3.865,0,0,1-.517-2.033,3.631,3.631,0,0,1,1.107-2.723,4.646,4.646,0,0,1,5.781,0,4.03,4.03,0,0,1,0,5.545A4.106,4.106,0,0,1,1115.373,1794.774Zm0-1.625a1.88,1.88,0,0,0,1.443-.6,2.216,2.216,0,0,0,.544-1.57,2.256,2.256,0,0,0-.544-1.579,1.9,1.9,0,0,0-1.443-.59,1.815,1.815,0,0,0-1.4.6,2.533,2.533,0,0,0,0,3.14,1.816,1.816,0,0,0,1.38.6Z" transform="translate(-1103.194 -1783.902)"/>
        <path id="Trazado_133701" data-name="Trazado 133701" d="M1124.367,1794.769a4.153,4.153,0,0,1-2.133-.508,2.179,2.179,0,0,1-1.035-1.525l1.706-.481a1.371,1.371,0,0,0,1.461,1.089,1.437,1.437,0,0,0,.744-.172.572.572,0,0,0,.29-.563.627.627,0,0,0-.118-.372,1.113,1.113,0,0,0-.372-.272l-.5-.191-.653-.191a6.967,6.967,0,0,1-.672-.209,4.366,4.366,0,0,1-.644-.272,2.461,2.461,0,0,1-.526-.372,1.517,1.517,0,0,1-.4-.572,2.1,2.1,0,0,1-.136-.781,1.869,1.869,0,0,1,.79-1.634,3.572,3.572,0,0,1,2.069-.544,3.622,3.622,0,0,1,1.906.463,2.1,2.1,0,0,1,.98,1.461l-1.588.354a1.215,1.215,0,0,0-1.289-.907,1.488,1.488,0,0,0-.717.154.534.534,0,0,0-.291.49.588.588,0,0,0,0,.218.443.443,0,0,0,.145.172l.209.136a1.387,1.387,0,0,0,.29.118,2.7,2.7,0,0,0,.318.091l.372.1.381.1c.263.073.49.136.69.209a4.72,4.72,0,0,1,.626.3,2.387,2.387,0,0,1,.544.427,2.054,2.054,0,0,1,.363.608,2.288,2.288,0,0,1,.136.808,2.239,2.239,0,0,1-.245,1.062,1.824,1.824,0,0,1-.672.708,3.231,3.231,0,0,1-.907.381A4.99,4.99,0,0,1,1124.367,1794.769Z" transform="translate(-1104.102 -1783.897)"/>
        <path id="Trazado_133702" data-name="Trazado 133702" d="M1130.639,1785.911a1.176,1.176,0,0,1-.866-1.975l.031-.031a1.159,1.159,0,0,1,.835-.345,1.18,1.18,0,0,1,0,2.35Zm-1.044,8.377v-7.26h2.06v7.26Z" transform="translate(-1104.865 -1783.561)"/>
        <path id="Trazado_133703" data-name="Trazado 133703" d="M1136.856,1794.4a2.189,2.189,0,0,1-1.652-.59,2.326,2.326,0,0,1-.581-1.688v-3.439h-1.434v-1.57h.463a1.2,1.2,0,0,0,.907-.3,1.567,1.567,0,0,0,.291-1.089v-.962h1.815v2.35h1.506v1.57h-1.506v3.222c0,.635.281.907.844.907h.663v1.552Z" transform="translate(-1105.211 -1783.672)"/>
        <path id="Trazado_133704" data-name="Trazado 133704" d="M1141.45,1785.911a1.146,1.146,0,0,1-.835-.345,1.107,1.107,0,0,1-.345-.835,1.134,1.134,0,0,1,.345-.826,1.167,1.167,0,0,1,.835-.345,1.15,1.15,0,0,1,.826.345,1.171,1.171,0,0,1,.005,1.655l-.005.005A1.154,1.154,0,0,1,1141.45,1785.911Zm-1.044,8.377v-7.26h2.06v7.26Z" transform="translate(-1105.865 -1783.561)"/>
        <path id="Trazado_133705" data-name="Trazado 133705" d="M1149.636,1787.351h2.169l-3.113,7.26h-1.815l-3.067-7.26h2.2l1.815,4.982Z" transform="translate(-1106.193 -1783.911)"/>
        <path id="Trazado_133706" data-name="Trazado 133706" d="M1156.823,1794.774a4.711,4.711,0,0,1-2.069-.445,3.289,3.289,0,0,1-1.407-1.316,3.865,3.865,0,0,1-.517-2.033,3.548,3.548,0,0,1,1.107-2.723,4.638,4.638,0,0,1,5.772,0,4.03,4.03,0,0,1,0,5.545A4.079,4.079,0,0,1,1156.823,1794.774Zm0-1.625a1.816,1.816,0,0,0,1.443-.6,2.189,2.189,0,0,0,.554-1.57,2.223,2.223,0,0,0-.554-1.579,1.877,1.877,0,0,0-1.443-.581,1.815,1.815,0,0,0-1.4.6,2.533,2.533,0,0,0,0,3.14A1.816,1.816,0,0,0,1156.823,1793.15Z" transform="translate(-1107.026 -1783.902)"/>
      </g>
      <g id="Grupo_63675" data-name="Grupo 63675" transform="translate(137.755 136.775)">
        <path id="Trazado_133707" data-name="Trazado 133707" d="M1215.81,1828.184V1818.2h1.289v9.983Z" transform="translate(-1215.801 -1817.738)"/>
        <path id="Trazado_133708" data-name="Trazado 133708" d="M1223.6,1821.371a2.437,2.437,0,0,1,1.752.635,2.358,2.358,0,0,1,.653,1.815v4.692h-1.234V1824.1a1.668,1.668,0,0,0-.427-1.252,1.5,1.5,0,0,0-1.089-.408,1.7,1.7,0,0,0-1.243.481,1.987,1.987,0,0,0-.49,1.425v4.166H1220.3v-6.97h1.225v.907A2.321,2.321,0,0,1,1223.6,1821.371Z" transform="translate(-1216.216 -1818.031)"/>
        <path id="Trazado_133709" data-name="Trazado 133709" d="M1231.316,1828.256a1.818,1.818,0,0,1-1.361-.5,1.907,1.907,0,0,1-.49-1.389v-4.1h-1.425v-.98h.517a1,1,0,0,0,.771-.245,1.173,1.173,0,0,0,.227-.817v-1.243h1.143v2.323h1.6v.98h-1.6v3.957a1.029,1.029,0,0,0,.263.762.91.91,0,0,0,.7.272h.635v.98Z" transform="translate(-1216.932 -1817.81)"/>
        <path id="Trazado_133710" data-name="Trazado 133710" d="M1235.893,1822.741a2.121,2.121,0,0,1,.907-.907,2.581,2.581,0,0,1,1.343-.363v1.153a2.292,2.292,0,0,0-1.625.517,2.159,2.159,0,0,0-.554,1.652v3.721h-1.225v-6.97h1.2Z" transform="translate(-1217.552 -1818.041)"/>
        <path id="Trazado_133711" data-name="Trazado 133711" d="M1242.8,1828.613a3.634,3.634,0,0,1-1.815-.436,3.1,3.1,0,0,1-1.252-1.261,3.9,3.9,0,0,1-.472-1.924,3.63,3.63,0,0,1,.989-2.632,3.71,3.71,0,0,1,5.046,0,3.992,3.992,0,0,1,0,5.264A3.41,3.41,0,0,1,1242.8,1828.613Zm0-1.016a2.162,2.162,0,0,0,1.652-.717,2.724,2.724,0,0,0,.653-1.888,2.655,2.655,0,0,0-.653-1.879,2.129,2.129,0,0,0-1.652-.717,2.1,2.1,0,0,0-1.634.717,3.074,3.074,0,0,0,0,3.766,2.141,2.141,0,0,0,1.625.717Z" transform="translate(-1217.969 -1818.031)"/>
        <path id="Trazado_133712" data-name="Trazado 133712" d="M1253.081,1821.521h1.316l-2.841,6.97h-1.044l-2.823-6.97H1249l2.042,5.545Z" transform="translate(-1218.749 -1818.045)"/>
        <path id="Trazado_133713" data-name="Trazado 133713" d="M1262.416,1824.861v.336h-5.445a2.443,2.443,0,0,0,.662,1.815,2.183,2.183,0,0,0,1.588.626,2.119,2.119,0,0,0,1.153-.336,2.159,2.159,0,0,0,.8-.907l1.107.236a3.161,3.161,0,0,1-1.2,1.5,3.219,3.219,0,0,1-1.815.544,3.386,3.386,0,0,1-2.514-.971,4.166,4.166,0,0,1,0-5.3,3.355,3.355,0,0,1,2.478-.971,3.137,3.137,0,0,1,2.341.908A3.519,3.519,0,0,1,1262.416,1824.861Zm-3.222-2.541a2.14,2.14,0,0,0-1.452.5,2.259,2.259,0,0,0-.735,1.434h4.175a2.042,2.042,0,0,0-.608-1.434A1.939,1.939,0,0,0,1259.194,1822.32Z" transform="translate(-1219.499 -1818.037)"/>
        <path id="Trazado_133714" data-name="Trazado 133714" d="M1266.41,1822.741a2.118,2.118,0,0,1,.862-.907,2.609,2.609,0,0,1,1.343-.363v1.153a2.313,2.313,0,0,0-1.625.517,2.159,2.159,0,0,0-.554,1.652v3.721h-1.207v-6.97h1.2Z" transform="translate(-1220.371 -1818.041)"/>
        <path id="Trazado_133715" data-name="Trazado 133715" d="M1272.686,1828.615a3.335,3.335,0,0,1-1.879-.5,2.091,2.091,0,0,1-.908-1.434l1.071-.308a1.494,1.494,0,0,0,.563.971,1.9,1.9,0,0,0,1.153.345,2.514,2.514,0,0,0,.662-.091,1.114,1.114,0,0,0,.517-.345.908.908,0,0,0,.209-.635,1.374,1.374,0,0,0-.054-.29,1.035,1.035,0,0,0-.118-.227.575.575,0,0,0-.2-.191l-.236-.154-.318-.127-.336-.118-.39-.109-.408-.118a7.122,7.122,0,0,1-.717-.254,3.051,3.051,0,0,1-.59-.336,1.376,1.376,0,0,1-.463-.554,1.865,1.865,0,0,1-.154-.78,1.813,1.813,0,0,1,.345-1.107,1.877,1.877,0,0,1,.907-.662,3.518,3.518,0,0,1,1.243-.2,3.041,3.041,0,0,1,1.7.454,1.935,1.935,0,0,1,.844,1.361l-1.007.254a1.325,1.325,0,0,0-.526-.907,1.69,1.69,0,0,0-1.007-.3,1.728,1.728,0,0,0-.907.245.844.844,0,0,0-.39.753.692.692,0,0,0,.109.381.982.982,0,0,0,.209.272,1.266,1.266,0,0,0,.381.218l.408.145.508.127h.109l.672.191a4.76,4.76,0,0,1,.6.254,1.894,1.894,0,0,1,.544.381,1.812,1.812,0,0,1,.345.536,2.03,2.03,0,0,1,.136.753,1.983,1.983,0,0,1-.209.908,1.638,1.638,0,0,1-.572.644,2.6,2.6,0,0,1-.808.345A3.761,3.761,0,0,1,1272.686,1828.615Z" transform="translate(-1220.802 -1818.033)"/>
        <path id="Trazado_133716" data-name="Trazado 133716" d="M1278.526,1819.553a.792.792,0,0,1-.581-.245.812.812,0,0,1-.245-.59.787.787,0,0,1,.245-.581.834.834,0,0,1,1.162,0,.787.787,0,0,1,.245.581.812.812,0,0,1-.245.59A.792.792,0,0,1,1278.526,1819.553Zm-.617,8.6v-6.97h1.234v6.97Z" transform="translate(-1221.524 -1817.71)"/>
        <path id="Trazado_133717" data-name="Trazado 133717" d="M1284.869,1828.273a3.634,3.634,0,0,1-1.815-.436,3.1,3.1,0,0,1-1.252-1.261,3.8,3.8,0,0,1-.472-1.924,3.63,3.63,0,0,1,.989-2.632,3.71,3.71,0,0,1,5.046,0,3.992,3.992,0,0,1,0,5.264A3.41,3.41,0,0,1,1284.869,1828.273Zm0-1.016a2.162,2.162,0,0,0,1.652-.717,2.724,2.724,0,0,0,.653-1.888,2.655,2.655,0,0,0-.653-1.879,2.13,2.13,0,0,0-1.652-.717,2.1,2.1,0,0,0-1.633.717,3.074,3.074,0,0,0,0,3.766A2.144,2.144,0,0,0,1284.869,1827.256Zm-.454-7.26,1.815-2.305.653.472-1.588,1.815Z" transform="translate(-1221.859 -1817.691)"/>
        <path id="Trazado_133718" data-name="Trazado 133718" d="M1294.543,1821.371a2.416,2.416,0,0,1,1.752.635,2.323,2.323,0,0,1,.662,1.815v4.692h-1.189V1824.1a1.668,1.668,0,0,0-.427-1.252,1.531,1.531,0,0,0-1.1-.408,1.674,1.674,0,0,0-1.234.481,1.913,1.913,0,0,0-.49,1.425v4.166h-1.289v-6.97h1.225v.907A2.323,2.323,0,0,1,1294.543,1821.371Z" transform="translate(-1222.775 -1818.031)"/>
        <path id="Trazado_133719" data-name="Trazado 133719" d="M1215.81,1847.384V1837.4h3.222a4.816,4.816,0,0,1,2.541.644,4.017,4.017,0,0,1,1.561,1.761,6.15,6.15,0,0,1,.508,2.577,6.456,6.456,0,0,1-.3,2.024,4.45,4.45,0,0,1-.862,1.579,3.794,3.794,0,0,1-1.452,1.035,5.144,5.144,0,0,1-2,.363Zm1.27-1.153h1.906a3.063,3.063,0,0,0,2.5-1.026,4.338,4.338,0,0,0,.835-2.822,4.272,4.272,0,0,0-.844-2.8,3.03,3.03,0,0,0-2.487-1.016H1217.1Z" transform="translate(-1215.801 -1819.513)"/>
        <path id="Trazado_133720" data-name="Trazado 133720" d="M1232.842,1844.056v.336H1227.4a2.442,2.442,0,0,0,.662,1.815,2.182,2.182,0,0,0,1.588.626,2.118,2.118,0,0,0,1.153-.336,2.159,2.159,0,0,0,.8-.908l1.107.236a3.16,3.16,0,0,1-1.2,1.5,3.221,3.221,0,0,1-1.815.545,3.371,3.371,0,0,1-2.559-1.026,4.166,4.166,0,0,1,0-5.3,3.355,3.355,0,0,1,2.478-.971,3.137,3.137,0,0,1,2.342.907A3.529,3.529,0,0,1,1232.842,1844.056Zm-3.222-2.541a2.139,2.139,0,0,0-1.452.5,2.258,2.258,0,0,0-.735,1.434h4.175a2.042,2.042,0,0,0-.608-1.434,1.94,1.94,0,0,0-1.379-.5Z" transform="translate(-1216.76 -1819.807)"/>
        <path id="Trazado_133721" data-name="Trazado 133721" d="M1238.475,1847.8a3.333,3.333,0,0,1-2.5-1,3.956,3.956,0,0,1,0-5.227,3.609,3.609,0,0,1,4.52-.39,3.022,3.022,0,0,1,1.171,1.688l-1.143.191a2.085,2.085,0,0,0-2.051-1.47,2.057,2.057,0,0,0-1.615.717,3.095,3.095,0,0,0,0,3.757,2.079,2.079,0,0,0,1.615.708,2.163,2.163,0,0,0,1.271-.39,2.133,2.133,0,0,0,.79-1.089l1.144.191a3.061,3.061,0,0,1-1.18,1.7A3.376,3.376,0,0,1,1238.475,1847.8Z" transform="translate(-1217.575 -1819.807)"/>
        <path id="Trazado_133722" data-name="Trazado 133722" d="M1245.892,1847.815a2.336,2.336,0,0,1-1.534-.481,1.708,1.708,0,0,1-.6-1.425,2,2,0,0,1,.191-.908,1.54,1.54,0,0,1,.572-.635,3.352,3.352,0,0,1,.817-.4,7.591,7.591,0,0,1,1.062-.245l1.125-.191c.408-.073.617-.29.617-.644a1.206,1.206,0,0,0-.436-1.035,1.721,1.721,0,0,0-1.1-.336,1.812,1.812,0,0,0-1.1.327,1.334,1.334,0,0,0-.517.971l-1.107-.227a2.178,2.178,0,0,1,.907-1.5,3.262,3.262,0,0,1,1.906-.5,3.808,3.808,0,0,1,1.007.127,2.55,2.55,0,0,1,.844.39,1.71,1.71,0,0,1,.608.744,2.974,2.974,0,0,1,.209,1.153v2.877a1.171,1.171,0,0,0,.163.726.691.691,0,0,0,.553.191h.109v.907h-.608a1.153,1.153,0,0,1-1.316-.907h-.063A2.642,2.642,0,0,1,1245.892,1847.815Zm.281-.989a1.881,1.881,0,0,0,1.5-.672,2.829,2.829,0,0,0,.563-1.815l-1.815.354a2.474,2.474,0,0,0-1.08.39,1.015,1.015,0,0,0-.018,1.525,1.415,1.415,0,0,0,.853.218Z" transform="translate(-1218.385 -1819.808)"/>
        <path id="Trazado_133723" data-name="Trazado 133723" d="M1257.651,1836.4h1.225v10.89h-1.18v-1.352a2.6,2.6,0,0,1-1,1.1,2.729,2.729,0,0,1-1.47.408,3.158,3.158,0,0,1-1.261-.263,3.107,3.107,0,0,1-1.044-.726,3.435,3.435,0,0,1-.7-1.144,4.277,4.277,0,0,1-.254-1.5,3.627,3.627,0,0,1,.908-2.623,3.039,3.039,0,0,1,2.314-1.007,2.711,2.711,0,0,1,1.452.4,2.543,2.543,0,0,1,1,1.062Zm-2.2,9.983a2.1,2.1,0,0,0,1.625-.726,2.668,2.668,0,0,0,.653-1.815,2.613,2.613,0,0,0-.662-1.815,2.083,2.083,0,0,0-1.615-.735,2.158,2.158,0,0,0-1.634.708,2.654,2.654,0,0,0-.653,1.86,2.623,2.623,0,0,0,.653,1.815,2.161,2.161,0,0,0,1.634.7Z" transform="translate(-1219.144 -1819.421)"/>
        <path id="Trazado_133724" data-name="Trazado 133724" d="M1268.376,1844.061v.336h-5.445a2.443,2.443,0,0,0,.662,1.815,2.182,2.182,0,0,0,1.588.626,2.118,2.118,0,0,0,1.153-.336,2.159,2.159,0,0,0,.8-.907l1.107.236a3.212,3.212,0,0,1-1.189,1.5,3.265,3.265,0,0,1-1.815.544,3.387,3.387,0,0,1-2.514-.971,4.148,4.148,0,0,1,0-5.3,3.322,3.322,0,0,1,2.469-.971,3.139,3.139,0,0,1,2.341.908A3.53,3.53,0,0,1,1268.376,1844.061Zm-3.222-2.541a2.14,2.14,0,0,0-1.452.5,2.258,2.258,0,0,0-.735,1.434h4.175a2.042,2.042,0,0,0-.608-1.434,1.924,1.924,0,0,0-1.38-.5Z" transform="translate(-1220.05 -1819.812)"/>
        <path id="Trazado_133725" data-name="Trazado 133725" d="M1274.455,1840.571a2.448,2.448,0,0,1,1.761.635,2.358,2.358,0,0,1,.653,1.815v4.692h-1.225V1843.3a1.667,1.667,0,0,0-.427-1.252,1.5,1.5,0,0,0-1.089-.4,1.676,1.676,0,0,0-1.243.472,1.987,1.987,0,0,0-.49,1.425v4.166h-1.225v-6.97h1.225v.908A2.321,2.321,0,0,1,1274.455,1840.571Z" transform="translate(-1220.92 -1819.807)"/>
        <path id="Trazado_133726" data-name="Trazado 133726" d="M1282.875,1847.8a3.333,3.333,0,0,1-2.5-1,3.957,3.957,0,0,1,0-5.227,3.63,3.63,0,0,1,4.538-.39,3.022,3.022,0,0,1,1.171,1.688l-1.144.191a2.088,2.088,0,0,0-2.051-1.47,2.058,2.058,0,0,0-1.615.717,3.1,3.1,0,0,0,0,3.757,2.178,2.178,0,0,0,3.667-.762l1.144.191a3.014,3.014,0,0,1-1.18,1.7A3.366,3.366,0,0,1,1282.875,1847.8Z" transform="translate(-1221.68 -1819.807)"/>
        <path id="Trazado_133727" data-name="Trazado 133727" d="M1289.356,1838.753a.792.792,0,0,1-.581-.245.811.811,0,0,1-.245-.59.787.787,0,0,1,.245-.581.834.834,0,0,1,1.161,0,.787.787,0,0,1,.245.581.811.811,0,0,1-.245.59A.792.792,0,0,1,1289.356,1838.753Zm-.617,8.6v-6.97h1.225v6.97Z" transform="translate(-1222.525 -1819.486)"/>
        <path id="Trazado_133728" data-name="Trazado 133728" d="M1294.422,1847.815a2.373,2.373,0,0,1-1.534-.481,1.707,1.707,0,0,1-.6-1.425,1.882,1.882,0,0,1,.2-.908,1.513,1.513,0,0,1,.563-.635,3.355,3.355,0,0,1,.817-.4,7.583,7.583,0,0,1,1.062-.245l1.125-.191c.417-.073.617-.29.617-.644a1.207,1.207,0,0,0-.436-1.035,1.722,1.722,0,0,0-1.1-.336,1.815,1.815,0,0,0-1.089.336,1.334,1.334,0,0,0-.517.971l-1.1-.227a2.113,2.113,0,0,1,.908-1.5,3.211,3.211,0,0,1,1.9-.5,3.815,3.815,0,0,1,1.007.127,2.551,2.551,0,0,1,.844.39,1.716,1.716,0,0,1,.608.744,2.8,2.8,0,0,1,.218,1.153v2.877a1.182,1.182,0,0,0,.154.726.691.691,0,0,0,.554.191h.109v.908h-.608a1.153,1.153,0,0,1-1.316-.908h-.064A2.644,2.644,0,0,1,1294.422,1847.815Zm.281-.989a1.881,1.881,0,0,0,1.5-.672,2.786,2.786,0,0,0,.563-1.815l-1.815.354a2.474,2.474,0,0,0-1.08.39,1.006,1.006,0,0,0-.009,1.525,1.385,1.385,0,0,0,.844.218Z" transform="translate(-1222.872 -1819.809)"/>
        <path id="Trazado_133729" data-name="Trazado 133729" d="M1221.212,1866.583l-2.559-4.538H1217.1v4.538h-1.271V1856.6h3.313a2.967,2.967,0,0,1,2.232.79,2.775,2.775,0,0,1,.771,2.033,2.487,2.487,0,0,1-2.214,2.614l2.786,4.538Zm-4.111-8.866v3.367h1.815a2.109,2.109,0,0,0,1.461-.454,1.57,1.57,0,0,0,.49-1.216,1.616,1.616,0,0,0-.49-1.234,2.075,2.075,0,0,0-1.461-.463Z" transform="translate(-1215.803 -1821.288)"/>
        <path id="Trazado_133730" data-name="Trazado 133730" d="M1230.987,1863.261v.336h-5.445a2.442,2.442,0,0,0,.663,1.815,2.183,2.183,0,0,0,1.588.626,2.12,2.12,0,0,0,1.153-.336,2.159,2.159,0,0,0,.8-.908l1.107.236a3.213,3.213,0,0,1-1.189,1.5,3.268,3.268,0,0,1-1.815.544,3.387,3.387,0,0,1-2.514-.971,4.166,4.166,0,0,1,0-5.3,3.354,3.354,0,0,1,2.478-.971,3.137,3.137,0,0,1,2.341.907A3.522,3.522,0,0,1,1230.987,1863.261Zm-3.222-2.541a2.139,2.139,0,0,0-1.452.5,2.259,2.259,0,0,0-.735,1.434h4.175a2.043,2.043,0,0,0-.608-1.434A1.939,1.939,0,0,0,1227.765,1860.72Z" transform="translate(-1216.594 -1821.587)"/>
        <path id="Trazado_133731" data-name="Trazado 133731" d="M1237.459,1859.771a3.254,3.254,0,0,1,1.261.254,3.181,3.181,0,0,1,1.035.717,3.232,3.232,0,0,1,.7,1.153,4.262,4.262,0,0,1,.263,1.506,3.629,3.629,0,0,1-.908,2.623,3.04,3.04,0,0,1-2.314,1.007,2.729,2.729,0,0,1-1.452-.4,2.639,2.639,0,0,1-1-1.071v4.828h-1.225v-10.482H1235v1.352a2.55,2.55,0,0,1,1-1.08A2.718,2.718,0,0,1,1237.459,1859.771Zm-.236,6.189a2.126,2.126,0,0,0,1.615-.7,2.978,2.978,0,0,0,0-3.721,2.123,2.123,0,0,0-1.615-.7,2.151,2.151,0,0,0-1.643.726,2.868,2.868,0,0,0,0,3.63A2.152,2.152,0,0,0,1237.223,1865.96Z" transform="translate(-1217.466 -1821.582)"/>
        <path id="Trazado_133732" data-name="Trazado 133732" d="M1244.752,1861.142a2.146,2.146,0,0,1,.908-.907,2.574,2.574,0,0,1,1.334-.363v1.153a2.279,2.279,0,0,0-1.615.517,2.162,2.162,0,0,0-.563,1.652v3.721h-1.225v-6.97h1.2Z" transform="translate(-1218.37 -1821.591)"/>
        <path id="Trazado_133733" data-name="Trazado 133733" d="M1254.832,1863.256v.336h-5.445a2.442,2.442,0,0,0,.662,1.815,2.183,2.183,0,0,0,1.588.626,2.107,2.107,0,0,0,1.951-1.261l1.107.236a3.153,3.153,0,0,1-1.189,1.5,3.268,3.268,0,0,1-1.815.544,3.405,3.405,0,0,1-2.559-1.007,4.148,4.148,0,0,1,0-5.3,3.32,3.32,0,0,1,2.468-.971,3.138,3.138,0,0,1,2.342.908A3.519,3.519,0,0,1,1254.832,1863.256Zm-3.222-2.541a2.139,2.139,0,0,0-1.452.5,2.259,2.259,0,0,0-.735,1.434h4.175a2.042,2.042,0,0,0-.608-1.434A1.922,1.922,0,0,0,1251.61,1860.715Z" transform="translate(-1218.794 -1821.582)"/>
        <path id="Trazado_133734" data-name="Trazado 133734" d="M1259.776,1867.017a3.3,3.3,0,0,1-1.879-.5,2.1,2.1,0,0,1-.907-1.434l1.071-.308a1.471,1.471,0,0,0,.572.971,1.885,1.885,0,0,0,1.144.345,2.579,2.579,0,0,0,.672-.091,1.167,1.167,0,0,0,.517-.345.91.91,0,0,0,.2-.635.758.758,0,0,0-.054-.291c0-.082-.073-.163-.109-.227a.573.573,0,0,0-.2-.191,2.033,2.033,0,0,0-.245-.154,1.934,1.934,0,0,0-.318-.127l-.336-.118-.39-.109-.4-.118a7.342,7.342,0,0,1-.726-.254,3.361,3.361,0,0,1-.59-.336,1.364,1.364,0,0,1-.454-.554,1.876,1.876,0,0,1-.136-.762,1.815,1.815,0,0,1,.345-1.116,1.921,1.921,0,0,1,.907-.653,3.465,3.465,0,0,1,1.234-.2,3.024,3.024,0,0,1,1.7.454,1.939,1.939,0,0,1,.853,1.361l-1.007.254a1.33,1.33,0,0,0-.536-.908,1.661,1.661,0,0,0-1-.3,1.7,1.7,0,0,0-.908.245.825.825,0,0,0-.39.753.78.78,0,0,0,.1.381.909.909,0,0,0,.59.481,4.046,4.046,0,0,0,.417.154l.508.127h.109l.672.191a4.8,4.8,0,0,1,.6.254,2.178,2.178,0,0,1,.545.381,1.9,1.9,0,0,1,.481,1.289,2.1,2.1,0,0,1-.209.907,1.7,1.7,0,0,1-.572.635,2.474,2.474,0,0,1-.817.354A3.681,3.681,0,0,1,1259.776,1867.017Z" transform="translate(-1219.609 -1821.586)"/>
        <path id="Trazado_133735" data-name="Trazado 133735" d="M1265.616,1857.953a.791.791,0,0,1-.581-.245.811.811,0,0,1-.245-.59.786.786,0,0,1,.245-.581.834.834,0,0,1,1.161,0,.787.787,0,0,1,.245.581.811.811,0,0,1-.245.59A.791.791,0,0,1,1265.616,1857.953Zm-.626,8.6v-6.97h1.234v6.97Z" transform="translate(-1220.33 -1821.261)"/>
        <path id="Trazado_133736" data-name="Trazado 133736" d="M1272,1866.672a3.636,3.636,0,0,1-1.815-.436,3.125,3.125,0,0,1-1.261-1.261,3.9,3.9,0,0,1-.463-1.924,3.55,3.55,0,0,1,.989-2.632,3.71,3.71,0,0,1,5.046,0,4.011,4.011,0,0,1,0,5.264A3.389,3.389,0,0,1,1272,1866.672Zm0-1.016a2.181,2.181,0,0,0,1.652-.717,2.723,2.723,0,0,0,.653-1.888,2.655,2.655,0,0,0-.653-1.879,2.141,2.141,0,0,0-1.652-.717,2.1,2.1,0,0,0-1.634.717,2.655,2.655,0,0,0-.653,1.879,2.723,2.723,0,0,0,.653,1.888,2.144,2.144,0,0,0,1.625.717Zm-.463-7.26,1.815-2.314.653.481-1.588,1.815Z" transform="translate(-1220.669 -1821.241)"/>
        <path id="Trazado_133737" data-name="Trazado 133737" d="M1281.631,1859.771a2.438,2.438,0,0,1,1.752.635,2.359,2.359,0,0,1,.653,1.815v4.692h-1.261v-4.42a1.662,1.662,0,0,0-.427-1.243,1.5,1.5,0,0,0-1.089-.408,1.7,1.7,0,0,0-1.243.481,1.987,1.987,0,0,0-.49,1.425v4.166H1278.3v-6.97h1.225v.907A2.32,2.32,0,0,1,1281.631,1859.771Z" transform="translate(-1221.579 -1821.581)"/>
        <path id="Trazado_133738" data-name="Trazado 133738" d="M1215.81,1885.784V1875.8h1.289v9.983Z" transform="translate(-1215.801 -1823.064)"/>
        <path id="Trazado_133739" data-name="Trazado 133739" d="M1223.6,1878.981a2.437,2.437,0,0,1,1.752.635,2.358,2.358,0,0,1,.653,1.815v4.692h-1.234v-4.42a1.663,1.663,0,0,0-.427-1.243,1.5,1.5,0,0,0-1.089-.408,1.7,1.7,0,0,0-1.243.481,1.987,1.987,0,0,0-.49,1.425v4.166H1220.3v-6.97h1.225v.908A2.321,2.321,0,0,1,1223.6,1878.981Z" transform="translate(-1216.216 -1823.358)"/>
        <path id="Trazado_133740" data-name="Trazado 133740" d="M1232.3,1875.874h-.517a1.194,1.194,0,0,0-.254,0l-.218.073a.5.5,0,0,0-.209.118,1.038,1.038,0,0,0-.163.182.764.764,0,0,0-.145.254,2.593,2.593,0,0,0-.073.345,2.182,2.182,0,0,0,0,.436v1.434h1.615v.98h-1.615v5.99H1229.5v-5.99h-1.352v-.98h1.352v-1.461a4.3,4.3,0,0,1,.073-.808,3.071,3.071,0,0,1,.2-.617,1.547,1.547,0,0,1,.327-.445,2.308,2.308,0,0,1,.436-.3,1.861,1.861,0,0,1,.526-.172,4.48,4.48,0,0,1,.6-.091h.672Z" transform="translate(-1216.942 -1822.974)"/>
        <path id="Trazado_133741" data-name="Trazado 133741" d="M1240.237,1882.461v.336h-5.445a2.443,2.443,0,0,0,.662,1.815,2.183,2.183,0,0,0,1.588.626,2.118,2.118,0,0,0,1.153-.336,2.159,2.159,0,0,0,.8-.907l1.107.236a3.212,3.212,0,0,1-1.189,1.5,3.268,3.268,0,0,1-1.815.544,3.386,3.386,0,0,1-2.514-.971,4.166,4.166,0,0,1,0-5.3,3.355,3.355,0,0,1,2.478-.971,3.138,3.138,0,0,1,2.341.908A3.522,3.522,0,0,1,1240.237,1882.461Zm-3.222-2.541a2.139,2.139,0,0,0-1.452.5,2.259,2.259,0,0,0-.735,1.434H1239a2.043,2.043,0,0,0-.608-1.434,1.94,1.94,0,0,0-1.38-.526Z" transform="translate(-1217.449 -1823.363)"/>
        <path id="Trazado_133742" data-name="Trazado 133742" d="M1244.228,1880.342a2.118,2.118,0,0,1,.862-.907,2.61,2.61,0,0,1,1.343-.363v1.153a2.313,2.313,0,0,0-1.625.517,2.159,2.159,0,0,0-.554,1.652v3.721h-1.225v-6.97h1.2Z" transform="translate(-1218.318 -1823.367)"/>
        <path id="Trazado_133743" data-name="Trazado 133743" d="M1248.966,1877.153a.792.792,0,0,1-.581-.245.812.812,0,0,1-.245-.59.787.787,0,0,1,.245-.581.834.834,0,0,1,1.161,0,.787.787,0,0,1,.245.581.812.812,0,0,1-.245.59A.792.792,0,0,1,1248.966,1877.153Zm-.626,8.6v-6.97h1.234v6.97Z" transform="translate(-1218.791 -1823.037)"/>
        <path id="Trazado_133744" data-name="Trazado 133744" d="M1255.349,1886.243a3.635,3.635,0,0,1-1.815-.436,3.127,3.127,0,0,1-1.261-1.261,3.9,3.9,0,0,1-.463-1.924,3.558,3.558,0,0,1,.989-2.632,3.711,3.711,0,0,1,5.046,0,3.992,3.992,0,0,1,0,5.264A3.426,3.426,0,0,1,1255.349,1886.243Zm0-1.016a2.163,2.163,0,0,0,1.652-.717,2.725,2.725,0,0,0,.635-1.9,2.654,2.654,0,0,0-.653-1.879,2.127,2.127,0,0,0-1.652-.717,2.1,2.1,0,0,0-1.633.717,2.658,2.658,0,0,0-.6,1.879,2.724,2.724,0,0,0,.644,1.888,2.146,2.146,0,0,0,1.6.7Z" transform="translate(-1219.129 -1823.36)"/>
        <path id="Trazado_133745" data-name="Trazado 133745" d="M1262.892,1880.342a2.145,2.145,0,0,1,.907-.907,2.576,2.576,0,0,1,1.334-.363v1.153a2.28,2.28,0,0,0-1.615.517,2.162,2.162,0,0,0-.563,1.652v3.721h-1.225v-6.97h1.2Z" transform="translate(-1220.047 -1823.367)"/>
        <path id="Trazado_133746" data-name="Trazado 133746" d="M1267.635,1877.153a.835.835,0,0,1-.835-.835h0a.787.787,0,0,1,.245-.581.834.834,0,0,1,.59-.236.805.805,0,0,1,.572.236.787.787,0,0,1,.245.581.812.812,0,0,1-.245.59A.784.784,0,0,1,1267.635,1877.153Zm-.626,8.6v-6.97h1.234v6.97Z" transform="translate(-1220.516 -1823.036)"/>
        <path id="Trazado_133747" data-name="Trazado 133747" d="M1276.23,1874.8h1.225v10.89h-1.18v-1.352a2.6,2.6,0,0,1-1,1.1,2.729,2.729,0,0,1-1.47.408,3.2,3.2,0,0,1-2.305-.989,3.4,3.4,0,0,1-.7-1.153,4.169,4.169,0,0,1-.263-1.488,3.629,3.629,0,0,1,.953-2.623,3.04,3.04,0,0,1,2.314-1.007,2.713,2.713,0,0,1,1.452.4,2.6,2.6,0,0,1,1,1.062Zm-2.2,9.983a2.1,2.1,0,0,0,1.615-.726,2.868,2.868,0,0,0,0-3.63,2.083,2.083,0,0,0-1.615-.735,2.139,2.139,0,0,0-1.634.708,2.931,2.931,0,0,0,0,3.712,2.144,2.144,0,0,0,1.634.663Z" transform="translate(-1220.861 -1822.972)"/>
        <path id="Trazado_133748" data-name="Trazado 133748" d="M1282.472,1886.245a2.391,2.391,0,0,1-1.534-.481,1.708,1.708,0,0,1-.6-1.425,2,2,0,0,1,.191-.908,1.538,1.538,0,0,1,.572-.635,3.088,3.088,0,0,1,.817-.4,8.154,8.154,0,0,1,1.062-.254l1.125-.182c.408-.073.617-.29.617-.644a1.207,1.207,0,0,0-.436-1.035,1.746,1.746,0,0,0-1.107-.336,1.811,1.811,0,0,0-1.089.318,1.366,1.366,0,0,0-.517.98l-1.107-.236a2.175,2.175,0,0,1,.908-1.488,3.261,3.261,0,0,1,1.906-.5,3.891,3.891,0,0,1,1.007.127,2.546,2.546,0,0,1,.844.39,1.761,1.761,0,0,1,.6.744,2.8,2.8,0,0,1,.218,1.153v2.877a1.172,1.172,0,0,0,.163.726.684.684,0,0,0,.545.191h.118v.907h-.608c-.753,0-1.2-.308-1.325-.907h-.064A2.661,2.661,0,0,1,1282.472,1886.245Zm.281-.989a1.865,1.865,0,0,0,1.5-.681,2.8,2.8,0,0,0,.563-1.815l-1.815.354a2.424,2.424,0,0,0-1.08.39,1.015,1.015,0,0,0-.018,1.525,1.413,1.413,0,0,0,.853.2Z" transform="translate(-1221.767 -1823.362)"/>
        <path id="Trazado_133749" data-name="Trazado 133749" d="M1294.23,1874.8h1.225v10.89h-1.18v-1.352a2.6,2.6,0,0,1-1,1.1,2.728,2.728,0,0,1-1.47.408,3.2,3.2,0,0,1-2.305-.989,3.4,3.4,0,0,1-.7-1.153,4.172,4.172,0,0,1-.263-1.488,3.63,3.63,0,0,1,.953-2.623,3.039,3.039,0,0,1,2.314-1.007,2.713,2.713,0,0,1,1.452.4,2.6,2.6,0,0,1,1,1.062Zm-2.2,9.983a2.1,2.1,0,0,0,1.615-.726,2.868,2.868,0,0,0,0-3.63,2.083,2.083,0,0,0-1.615-.735,2.139,2.139,0,0,0-1.634.708,2.931,2.931,0,0,0,0,3.712,2.144,2.144,0,0,0,1.634.663Z" transform="translate(-1222.526 -1822.972)"/>
        <path id="Trazado_133750" data-name="Trazado 133750" d="M1221.164,1896.161H1217.1v3.267h3.63v1.143h-3.63v3.258h4.057v1.134H1215.8v-9.983h5.354Z" transform="translate(-1215.8 -1824.838)"/>
        <path id="Trazado_133751" data-name="Trazado 133751" d="M1222.95,1905.271l2.677-3.485-2.677-3.485h1.507l1.933,2.668,1.924-2.668h1.5l-2.723,3.485,2.723,3.485h-1.5l-1.915-2.65-1.942,2.65Z" transform="translate(-1216.461 -1825.145)"/>
        <path id="Trazado_133752" data-name="Trazado 133752" d="M1234.286,1905.034a1.817,1.817,0,0,1-1.361-.5,1.906,1.906,0,0,1-.49-1.389v-4.1h-1.425v-.98h.517a1.013,1.013,0,0,0,.771-.245,1.172,1.172,0,0,0,.227-.817v-1.261h1.143v2.323h1.6v.98h-1.6v3.975a1.028,1.028,0,0,0,.263.762.91.91,0,0,0,.7.272h.635v.98Z" transform="translate(-1217.206 -1824.908)"/>
        <path id="Trazado_133753" data-name="Trazado 133753" d="M1238.852,1899.542a2.147,2.147,0,0,1,.908-.908,2.574,2.574,0,0,1,1.334-.363v1.153a2.28,2.28,0,0,0-1.615.517,2.159,2.159,0,0,0-.554,1.652v3.675h-1.234v-6.97h1.2Z" transform="translate(-1217.824 -1825.142)"/>
        <path id="Trazado_133754" data-name="Trazado 133754" d="M1244.453,1905.415a2.383,2.383,0,0,1-1.525-.481,1.708,1.708,0,0,1-.6-1.425,2.007,2.007,0,0,1,.191-.908,1.571,1.571,0,0,1,.563-.635,3.349,3.349,0,0,1,.817-.4,7.583,7.583,0,0,1,1.062-.245l1.125-.191c.418-.073.617-.29.617-.644a1.206,1.206,0,0,0-.436-1.034,1.721,1.721,0,0,0-1.1-.336,1.81,1.81,0,0,0-1.089.318,1.314,1.314,0,0,0-.517.98l-1.107-.227a2.112,2.112,0,0,1,.908-1.5,3.21,3.21,0,0,1,1.9-.5,3.8,3.8,0,0,1,1.007.127,2.546,2.546,0,0,1,.844.39,1.71,1.71,0,0,1,.608.744,2.8,2.8,0,0,1,.218,1.152v2.841a1.245,1.245,0,0,0,.154.726.69.69,0,0,0,.554.191h.109v.907h-.608a1.153,1.153,0,0,1-1.316-.907h-.054A2.669,2.669,0,0,1,1244.453,1905.415Zm.281-.989a1.866,1.866,0,0,0,1.5-.681,2.726,2.726,0,0,0,.572-1.815l-1.815.354a2.473,2.473,0,0,0-1.08.39,1.024,1.024,0,0,0-.009,1.525A1.387,1.387,0,0,0,1244.734,1904.425Z" transform="translate(-1218.253 -1825.134)"/>
        <path id="Trazado_133755" data-name="Trazado 133755" d="M1255.361,1898.319h1.316l-2.841,6.952h-1.044l-2.822-6.97h1.307l2.042,5.545Z" transform="translate(-1218.96 -1825.145)"/>
        <path id="Trazado_133756" data-name="Trazado 133756" d="M1260.212,1905.415a2.39,2.39,0,0,1-1.534-.481,1.707,1.707,0,0,1-.6-1.425,2.005,2.005,0,0,1,.191-.908,1.606,1.606,0,0,1,.572-.635,3.35,3.35,0,0,1,.817-.4,7.589,7.589,0,0,1,1.062-.245l1.125-.191c.417-.073.617-.29.617-.644a1.207,1.207,0,0,0-.436-1.034,1.721,1.721,0,0,0-1.1-.336,1.86,1.86,0,0,0-1.1.318,1.365,1.365,0,0,0-.517.98l-1.107-.227a2.159,2.159,0,0,1,.907-1.5,3.21,3.21,0,0,1,1.9-.5,3.8,3.8,0,0,1,1.007.127,2.546,2.546,0,0,1,.844.39,1.71,1.71,0,0,1,.608.744,2.814,2.814,0,0,1,.209,1.152v2.841a1.171,1.171,0,0,0,.163.726.69.69,0,0,0,.554.191h.109v.907h-.608a1.153,1.153,0,0,1-1.316-.907h-.064A2.642,2.642,0,0,1,1260.212,1905.415Zm.281-.989a1.866,1.866,0,0,0,1.5-.681,2.727,2.727,0,0,0,.563-1.815l-1.815.354a2.472,2.472,0,0,0-1.08.39,1.006,1.006,0,0,0-.009,1.525A1.363,1.363,0,0,0,1260.494,1904.425Z" transform="translate(-1219.709 -1825.134)"/>
        <path id="Trazado_133757" data-name="Trazado 133757" d="M1271.862,1898.308h1.2v6.616a3.789,3.789,0,0,1-.908,2.723,3.739,3.739,0,0,1-5.872-1.18l1.007-.5a2.314,2.314,0,0,0,2.332,1.615,2.027,2.027,0,0,0,1.643-.681,2.935,2.935,0,0,0,.563-1.906v-1.289a2.481,2.481,0,0,1-1,1.007,3.059,3.059,0,0,1-3.7-.608,3.739,3.739,0,0,1,0-4.946,3.011,3.011,0,0,1,2.269-.98,2.88,2.88,0,0,1,1.461.39,2.544,2.544,0,0,1,.98,1.035Zm-2.205,5.736a2.137,2.137,0,0,0,1.606-.717,2.467,2.467,0,0,0,.662-1.706,2.438,2.438,0,0,0-.662-1.706,2.187,2.187,0,0,0-3.091-.122c-.042.039-.083.08-.122.122a2.421,2.421,0,0,0-.662,1.733,2.45,2.45,0,0,0,.662,1.724A2.153,2.153,0,0,0,1269.657,1904.044Z" transform="translate(-1220.459 -1825.134)"/>
        <path id="Trazado_133758" data-name="Trazado 133758" d="M1278.063,1905.415a2.383,2.383,0,0,1-1.525-.481,1.681,1.681,0,0,1-.6-1.425,1.993,1.993,0,0,1,.191-.908,1.511,1.511,0,0,1,.563-.635,3.348,3.348,0,0,1,.817-.4,7.587,7.587,0,0,1,1.062-.245l1.125-.191c.418-.073.617-.29.617-.644a1.206,1.206,0,0,0-.436-1.034,1.72,1.72,0,0,0-1.1-.336,1.861,1.861,0,0,0-1.1.318,1.364,1.364,0,0,0-.517.98l-1.1-.227a2.113,2.113,0,0,1,.908-1.5,3.209,3.209,0,0,1,1.9-.5,3.8,3.8,0,0,1,1.007.127,2.546,2.546,0,0,1,.844.39,1.71,1.71,0,0,1,.608.744,2.8,2.8,0,0,1,.218,1.152v2.841a1.182,1.182,0,0,0,.154.726.69.69,0,0,0,.553.191h.109v.907h-.608a1.153,1.153,0,0,1-1.316-.907h-.064A2.644,2.644,0,0,1,1278.063,1905.415Zm.281-.989a1.865,1.865,0,0,0,1.5-.681,2.725,2.725,0,0,0,.563-1.815l-1.815.354a2.473,2.473,0,0,0-1.08.39,1.024,1.024,0,0,0-.009,1.525A1.384,1.384,0,0,0,1278.344,1904.425Z" transform="translate(-1221.36 -1825.134)"/>
        <path id="Trazado_133759" data-name="Trazado 133759" d="M1288.175,1898.171a2.448,2.448,0,0,1,1.76.635,2.358,2.358,0,0,1,.654,1.815v4.637h-1.225v-4.411a1.66,1.66,0,0,0-.427-1.252,1.494,1.494,0,0,0-1.089-.408,1.684,1.684,0,0,0-1.243.481,1.913,1.913,0,0,0-.49,1.425v4.166h-1.225v-6.97h1.216v.908A2.321,2.321,0,0,1,1288.175,1898.171Z" transform="translate(-1222.189 -1825.132)"/>
        <path id="Trazado_133760" data-name="Trazado 133760" d="M1296.615,1905.4a3.332,3.332,0,0,1-2.5-1,3.957,3.957,0,0,1,0-5.227,3.339,3.339,0,0,1,2.5-1.007,3.374,3.374,0,0,1,2.015.617,3.021,3.021,0,0,1,1.171,1.688l-1.144.191a2.127,2.127,0,0,0-.79-1.089,2.149,2.149,0,0,0-1.261-.381,2.056,2.056,0,0,0-1.615.717,3.086,3.086,0,0,0,0,3.748,2.062,2.062,0,0,0,1.615.717,2.162,2.162,0,0,0,1.261-.381,2.134,2.134,0,0,0,.79-1.089l1.144.191a3.06,3.06,0,0,1-1.18,1.7A3.374,3.374,0,0,1,1296.615,1905.4Z" transform="translate(-1222.951 -1825.133)"/>
        <path id="Trazado_133761" data-name="Trazado 133761" d="M1303.076,1896.353a.792.792,0,0,1-.581-.245.811.811,0,0,1-.245-.59.787.787,0,0,1,.245-.581.834.834,0,0,1,1.162,0,.787.787,0,0,1,.245.581.808.808,0,0,1-.245.59A.792.792,0,0,1,1303.076,1896.353Zm-.626,8.6v-6.97h1.234v6.952Z" transform="translate(-1223.794 -1824.812)"/>
        <path id="Trazado_133762" data-name="Trazado 133762" d="M1308.142,1905.415a2.389,2.389,0,0,1-1.534-.481,1.707,1.707,0,0,1-.6-1.425,2.005,2.005,0,0,1,.191-.908,1.54,1.54,0,0,1,.572-.635,3.356,3.356,0,0,1,.817-.4,7.587,7.587,0,0,1,1.062-.245l1.125-.191c.408-.073.617-.29.617-.644a1.206,1.206,0,0,0-.436-1.034,1.72,1.72,0,0,0-1.1-.336,1.861,1.861,0,0,0-1.1.318,1.368,1.368,0,0,0-.517.98l-1.107-.227a2.178,2.178,0,0,1,.907-1.5,3.261,3.261,0,0,1,1.906-.5,3.8,3.8,0,0,1,1.007.127,2.546,2.546,0,0,1,.844.39,1.71,1.71,0,0,1,.608.744,2.975,2.975,0,0,1,.209,1.152v2.841a1.171,1.171,0,0,0,.163.726.69.69,0,0,0,.554.191h.109v.907h-.608a1.153,1.153,0,0,1-1.316-.907h-.063A2.644,2.644,0,0,1,1308.142,1905.415Zm.281-.989a1.862,1.862,0,0,0,1.5-.681,2.8,2.8,0,0,0,.563-1.815l-1.815.354a2.472,2.472,0,0,0-1.08.39,1.015,1.015,0,0,0-.018,1.525A1.412,1.412,0,0,0,1308.424,1904.425Z" transform="translate(-1224.141 -1825.134)"/>
      </g>
      <g id="Grupo_63676" data-name="Grupo 63676" transform="translate(137.491 105.801)">
        <path id="Trazado_133763" data-name="Trazado 133763" d="M1222.516,1784.091h2.115v10.246h-2.459l-4.538-7.324v7.324h-2.124v-10.246h2.469l4.538,7.26Z" transform="translate(-1215.51 -1783.61)"/>
        <path id="Trazado_133764" data-name="Trazado 133764" d="M1234.959,1790.873v.49h-5.445a1.871,1.871,0,0,0,.581,1.334,1.978,1.978,0,0,0,2.242.209,1.593,1.593,0,0,0,.617-.735l1.87.272a3.237,3.237,0,0,1-1.28,1.715,3.77,3.77,0,0,1-2.151.608,3.942,3.942,0,0,1-2.841-1.007,3.633,3.633,0,0,1-1.053-2.777,3.71,3.71,0,0,1,1.053-2.786,3.836,3.836,0,0,1,2.777-1.016,3.329,3.329,0,0,1,3.63,3.694Zm-3.63-2.251a1.615,1.615,0,0,0-1.77,1.407h3.349a1.534,1.534,0,0,0-.508-1.044,1.6,1.6,0,0,0-1.035-.363Z" transform="translate(-1216.618 -1783.894)"/>
        <path id="Trazado_133765" data-name="Trazado 133765" d="M1242.391,1787.334h1.942v6.743a5.456,5.456,0,0,1-.272,1.815,2.939,2.939,0,0,1-.79,1.243,3.315,3.315,0,0,1-1.216.7,5.037,5.037,0,0,1-1.588.227q-2.886,0-3.757-2.26l1.7-.726a2.461,2.461,0,0,0,.78,1.062,2.012,2.012,0,0,0,1.2.336c1.262,0,1.9-.744,1.9-2.242v-.88a2.3,2.3,0,0,1-.907.717,3.086,3.086,0,0,1-1.3.272,3.259,3.259,0,0,1-1.28-.254,3.228,3.228,0,0,1-1.779-1.87,4.294,4.294,0,0,1,0-2.959,3.244,3.244,0,0,1,.726-1.125,3.019,3.019,0,0,1,1.062-.708,3.219,3.219,0,0,1,1.289-.254,2.992,2.992,0,0,1,1.352.3,2.086,2.086,0,0,1,.908.8Zm-3.131,4.819a1.765,1.765,0,0,0,1.334.563,1.816,1.816,0,0,0,1.343-.563,2.043,2.043,0,0,0,0-2.777,1.9,1.9,0,0,0-2.682-.041l-.041.041a1.942,1.942,0,0,0-.535,1.4,1.906,1.906,0,0,0,.581,1.38Z" transform="translate(-1217.47 -1783.895)"/>
        <path id="Trazado_133766" data-name="Trazado 133766" d="M1253.367,1792.649a6.788,6.788,0,0,0,.172,1.815v.2h-1.906l-.163-.79a2.362,2.362,0,0,1-1.016.7,3.885,3.885,0,0,1-1.325.236,3.352,3.352,0,0,1-.681-.064,2.456,2.456,0,0,1-.608-.218,1.834,1.834,0,0,1-.508-.381,1.54,1.54,0,0,1-.336-.572,2.385,2.385,0,0,1,0-1.588,1.969,1.969,0,0,1,.354-.59,2.453,2.453,0,0,1,.581-.436,4.463,4.463,0,0,1,.717-.309,8.25,8.25,0,0,1,.907-.227l1.2-.272a1.207,1.207,0,0,0,.535-.227.456.456,0,0,0,.163-.363.771.771,0,0,0-.354-.708,1.806,1.806,0,0,0-.907-.209,1.252,1.252,0,0,0-1.418,1.061c0,.018,0,.036-.006.055l-1.815-.327a2.452,2.452,0,0,1,1.053-1.67,4.215,4.215,0,0,1,2.287-.526q3.067,0,3.067,2.623Zm-3.63.744a1.647,1.647,0,0,0,1.261-.535,2.207,2.207,0,0,0,.49-1.561l-1.733.49a1.929,1.929,0,0,0-.726.3.616.616,0,0,0-.254.526.673.673,0,0,0,.272.572,1.119,1.119,0,0,0,.726.172Z" transform="translate(-1218.409 -1783.901)"/>
        <path id="Trazado_133767" data-name="Trazado 133767" d="M1258.727,1794.4a2.172,2.172,0,0,1-1.643-.59,2.291,2.291,0,0,1-.581-1.688v-3.439h-1.434v-1.57h.463a1.232,1.232,0,0,0,.907-.3,1.617,1.617,0,0,0,.291-1.089v-.962h1.815v2.35h1.5v1.57h-1.47v3.222c0,.635.281.907.844.907h.653v1.552Z" transform="translate(-1219.168 -1783.672)"/>
        <path id="Trazado_133768" data-name="Trazado 133768" d="M1263.35,1785.911a1.167,1.167,0,0,1-.835-.345,1.144,1.144,0,0,1-.345-.835,1.114,1.114,0,0,1,.354-.826,1.161,1.161,0,0,1,1.643-.009l.009.009a1.171,1.171,0,0,1,.005,1.655l-.005.005A1.135,1.135,0,0,1,1263.35,1785.911Zm-1.035,8.377v-7.26h2.051v7.26Z" transform="translate(-1219.824 -1783.561)"/>
        <path id="Trazado_133769" data-name="Trazado 133769" d="M1271.556,1787.351h2.16l-3.1,7.26H1268.8l-3.068-7.26h2.151l1.815,4.982Z" transform="translate(-1220.154 -1783.911)"/>
        <path id="Trazado_133770" data-name="Trazado 133770" d="M1278.723,1794.774a4.684,4.684,0,0,1-2.06-.445,3.364,3.364,0,0,1-1.416-1.316,3.864,3.864,0,0,1-.517-2.033,3.632,3.632,0,0,1,1.107-2.723,4.646,4.646,0,0,1,5.781,0,4.03,4.03,0,0,1,0,5.545A4.106,4.106,0,0,1,1278.723,1794.774Zm0-1.625a1.88,1.88,0,0,0,1.443-.6,2.215,2.215,0,0,0,.544-1.57,2.256,2.256,0,0,0-.544-1.579,1.9,1.9,0,0,0-1.443-.59,1.813,1.813,0,0,0-1.407.6,2.569,2.569,0,0,0,0,3.14,1.815,1.815,0,0,0,1.389.6Z" transform="translate(-1220.986 -1783.902)"/>
      </g>
    </g>
  </g>
</svg>
