<svg xmlns="http://www.w3.org/2000/svg" xmlns:xlink="http://www.w3.org/1999/xlink" width="160.198" height="150.25" viewBox="0 0 160.198 150.25">
  <defs>
    <linearGradient id="linear-gradient" x1="60.425" y1="163.829" x2="63.064" y2="165.324" gradientUnits="objectBoundingBox">
      <stop offset="0" stop-color="#d44f4a"/>
      <stop offset="1" stop-color="#e4c7a1"/>
    </linearGradient>
    <linearGradient id="linear-gradient-2" x1="54.176" y1="168.438" x2="56.594" y2="169.985" xlink:href="#linear-gradient"/>
    <linearGradient id="linear-gradient-3" x1="29.844" y1="574.446" x2="31.181" y2="579.651" xlink:href="#linear-gradient"/>
    <linearGradient id="linear-gradient-4" x1="32.868" y1="205.435" x2="34.325" y2="207.299" xlink:href="#linear-gradient"/>
    <linearGradient id="linear-gradient-5" x1="40.261" y1="165.289" x2="42.043" y2="166.804" xlink:href="#linear-gradient"/>
    <linearGradient id="linear-gradient-6" x1="28.247" y1="136.638" x2="29.53" y2="137.92" xlink:href="#linear-gradient"/>
  </defs>
  <g id="Grupo_63789" data-name="Grupo 63789" transform="translate(-87.831 -5419.55)">
    <g id="Grupo_63788" data-name="Grupo 63788">
      <g id="Layer_1" data-name="Layer 1">
        <g id="Grupo_63787" data-name="Grupo 63787">
          <g id="Grupo_63784" data-name="Grupo 63784">
            <path id="Trazado_134302" data-name="Trazado 134302" d="M94.936,5499.657c0-1.473.048-2.931.128-4.381l-7.089-.424q-.144,2.4-.144,4.805a79.762,79.762,0,0,0,37.3,67.716l3.805-6A72.7,72.7,0,0,1,94.936,5499.657Z" fill="url(#linear-gradient)"/>
            <path id="Trazado_134303" data-name="Trazado 134303" d="M240.925,5499.657a73.06,73.06,0,0,1-37.751,63.92l3.436,6.223a80.168,80.168,0,0,0,41.419-70.143Z" fill="url(#linear-gradient-2)"/>
            <path id="Trazado_134304" data-name="Trazado 134304" d="M214.708,5434.617a80.177,80.177,0,0,0-81.164-7.321l3.059,6.408a73.068,73.068,0,0,1,73.956,6.688Z" fill="url(#linear-gradient-3)"/>
          </g>
          <g id="Grupo_63785" data-name="Grupo 63785">
            <path id="Trazado_134305" data-name="Trazado 134305" d="M178.575,5445.246l1.362-6.977a62.727,62.727,0,0,0-74.484,56.47l7.081.569a55.61,55.61,0,0,1,66.009-50.062Z" fill="url(#linear-gradient-4)"/>
            <path id="Trazado_134306" data-name="Trazado 134306" d="M222.894,5491.792a55.635,55.635,0,0,1-53.194,63.494l.241,7.1a63.51,63.51,0,0,0,6.992-.625,62.7,62.7,0,0,0,52.994-70.984Z" fill="url(#linear-gradient-5)"/>
          </g>
          <circle id="Elipse_5346" data-name="Elipse 5346" cx="43.558" cy="43.558" r="43.558" transform="translate(124.373 5456.091)" fill="url(#linear-gradient-6)"/>
          <path id="Trazado_134307" data-name="Trazado 134307" d="M167.93,5547.661a48,48,0,1,1,48-48h0A48.061,48.061,0,0,1,167.93,5547.661Zm0-87.124a39.12,39.12,0,1,0,39.121,39.12h0A39.169,39.169,0,0,0,167.93,5460.537Z" fill="#e6e6e6"/>
          <g id="Grupo_63786" data-name="Grupo 63786">
            <path id="Trazado_134308" data-name="Trazado 134308" d="M159.047,5516.134q-6.447,0-9.66-4.39t-3.2-11.71q0-7.329,3.2-11.711t9.66-4.389q6.465,0,9.668,4.389t3.2,11.711q0,7.329-3.2,11.71T159.047,5516.134Zm-4.581-23.6a19.946,19.946,0,0,0,0,15.05,5.109,5.109,0,0,0,9.171,0,20.047,20.047,0,0,0,0-15.05,5.11,5.11,0,0,0-9.171,0Z" fill="#fff"/>
            <path id="Trazado_134309" data-name="Trazado 134309" d="M174.01,5484.647h12.6v31.126h-6.664v-25.2h-5.919Z" fill="#fff"/>
          </g>
        </g>
      </g>
    </g>
  </g>
</svg>
