<svg xmlns="http://www.w3.org/2000/svg" xmlns:xlink="http://www.w3.org/1999/xlink" width="393.978" height="302.349" viewBox="0 0 393.978 302.349">
  <defs>
    <linearGradient id="linear-gradient" x1="1377.875" y1="1630.094" x2="1380.287" y2="1628.621" gradientUnits="objectBoundingBox">
      <stop offset="0" stop-color="#f5ebcb"/>
      <stop offset="0.41" stop-color="#b8c2b2"/>
      <stop offset="0.84" stop-color="#759696"/>
    </linearGradient>
    <linearGradient id="linear-gradient-2" x1="49.289" y1="281.495" x2="48.788" y2="282.164" xlink:href="#linear-gradient"/>
    <linearGradient id="linear-gradient-3" x1="133.847" y1="258.491" x2="134.662" y2="257.415" gradientUnits="objectBoundingBox">
      <stop offset="0" stop-color="#ffcb5d"/>
      <stop offset="0.74" stop-color="#ed8e26"/>
      <stop offset="0.84" stop-color="#eb861f"/>
    </linearGradient>
    <linearGradient id="linear-gradient-4" x1="142.307" y1="626.948" x2="142.695" y2="625.777" gradientUnits="objectBoundingBox">
      <stop offset="0" stop-color="#ffefbc"/>
      <stop offset="0.26" stop-color="#f7dead"/>
      <stop offset="0.77" stop-color="#e4b285"/>
      <stop offset="1" stop-color="#da9d71"/>
    </linearGradient>
    <linearGradient id="linear-gradient-5" x1="25.728" y1="137.143" x2="25.606" y2="135.974" xlink:href="#linear-gradient-3"/>
    <linearGradient id="linear-gradient-6" x1="85.335" y1="251.06" x2="84.542" y2="249.957" xlink:href="#linear-gradient-3"/>
    <linearGradient id="linear-gradient-7" x1="85.48" y1="365.319" x2="84.914" y2="364.176" xlink:href="#linear-gradient-4"/>
    <linearGradient id="linear-gradient-8" x1="76.459" y1="249.344" x2="77.336" y2="248.496" xlink:href="#linear-gradient-3"/>
    <linearGradient id="linear-gradient-9" x1="78.023" y1="469.059" x2="78.504" y2="468.202" xlink:href="#linear-gradient-4"/>
    <radialGradient id="radial-gradient" cx="0.614" cy="0.375" r="0.812" gradientTransform="matrix(0.805, 0, 0, -1, 8.825, 747.352)" gradientUnits="objectBoundingBox">
      <stop offset="0.01" stop-color="#22567d"/>
      <stop offset="0.25" stop-color="#204e76"/>
      <stop offset="0.63" stop-color="#1a3a62"/>
      <stop offset="1" stop-color="#131f49"/>
    </radialGradient>
    <linearGradient id="linear-gradient-10" x1="53.479" y1="479.477" x2="52.784" y2="478.417" gradientUnits="objectBoundingBox">
      <stop offset="0" stop-color="#858274"/>
      <stop offset="0.72" stop-color="#262521"/>
      <stop offset="1"/>
    </linearGradient>
    <linearGradient id="linear-gradient-11" x1="42.492" y1="254.53" x2="42.01" y2="253.835" gradientUnits="objectBoundingBox">
      <stop offset="0.17" stop-color="#bdb58f"/>
      <stop offset="0.26" stop-color="#b3ac88"/>
      <stop offset="0.41" stop-color="#999274"/>
      <stop offset="0.6" stop-color="#6e6953"/>
      <stop offset="0.82" stop-color="#333127"/>
      <stop offset="1"/>
    </linearGradient>
    <linearGradient id="linear-gradient-12" x1="70.803" y1="522.647" x2="70.114" y2="521.496" xlink:href="#linear-gradient"/>
    <linearGradient id="linear-gradient-13" x1="110.996" y1="314.116" x2="111.048" y2="313.037" gradientUnits="objectBoundingBox">
      <stop offset="0" stop-color="#c4bfaa"/>
      <stop offset="0.5" stop-color="#646157"/>
      <stop offset="1"/>
    </linearGradient>
    <linearGradient id="linear-gradient-14" x1="101.823" y1="269.243" x2="102.059" y2="268.123" xlink:href="#linear-gradient-13"/>
    <linearGradient id="linear-gradient-15" x1="114.631" y1="1953.462" x2="114.025" y2="1951.425" xlink:href="#linear-gradient-11"/>
  </defs>
  <g id="Grupo_63935" data-name="Grupo 63935" transform="translate(-1020.021 -8793.59)">
    <g id="Image_Place_Holder" data-name="Image Place Holder" transform="translate(1020.021 8829.245)" opacity="0.1">
      <rect id="Image_Place_Holder-2" data-name="Image Place Holder" width="393.978" height="266.693" rx="10" fill="#d44f4a"/>
    </g>
    <g id="Grupo_63781" data-name="Grupo 63781" transform="translate(419.458 5824.293)">
      <g id="Grupo_63780" data-name="Grupo 63780">
        <g id="Layer_1" data-name="Layer 1">
          <g id="Grupo_63779" data-name="Grupo 63779">
            <path id="Trazado_134252" data-name="Trazado 134252" d="M884.86,2983.037l-28.9,107.82-28.887,107.83-78.934-78.934L669.21,3040.82l107.82-28.9Z" fill="#ffefbc"/>
            <g id="Grupo_63778" data-name="Grupo 63778">
              <path id="Trazado_134253" data-name="Trazado 134253" d="M887.321,3212.052c0,4.784-36.839,8.661-82.29,8.661s-82.28-3.877-82.28-8.661,36.839-8.661,82.28-8.661S887.321,3207.269,887.321,3212.052Z" opacity="0.1" style="isolation: isolate"/>
              <g id="Grupo_63777" data-name="Grupo 63777">
                <g id="Grupo_63775" data-name="Grupo 63775">
                  <path id="Trazado_134254" data-name="Trazado 134254" d="M777.453,3030.318l-5.925-48.256-1.024.108,5.147,48.334Z" fill="#4a6d73"/>
                  <path id="Trazado_134255" data-name="Trazado 134255" d="M771.912,2969.74l.846,13.267-2.943.512-1.85-14.222Z" fill="#00ebaa"/>
                  <path id="Trazado_134256" data-name="Trazado 134256" d="M769.245,3039.235l-3.228-26.269-.561.059,2.8,26.318Z" fill="#4a6d73"/>
                  <path id="Trazado_134257" data-name="Trazado 134257" d="M766.224,3006.215l.463,7.273-1.614.275-1.014-7.795Z" fill="#00ebaa"/>
                  <path id="Trazado_134258" data-name="Trazado 134258" d="M784.107,3036.725l-2.175-6.673c-.926-2.263-10.246-1.712-10.64.256l-.728,8.228Z" fill="#4a6d73"/>
                  <path id="Trazado_134259" data-name="Trazado 134259" d="M784.933,3021.2l-.59-3.111a.5.5,0,1,0-1-.056.484.484,0,0,0,.018.165l.285,3.169Z" fill="#4a6d73"/>
                  <path id="Trazado_134260" data-name="Trazado 134260" d="M795.563,3037.227s-2.146-4.921-3.937-5.068-2.333,3.74-2.333,3.74Z" fill="#f15a24"/>
                  <path id="Trazado_134261" data-name="Trazado 134261" d="M788.614,3036.942l-2.037-14.95c-.187-1.329-4.685-.857-4.508.472l1.693,13.779Z" fill="#4a6d73"/>
                  <path id="Trazado_134262" data-name="Trazado 134262" d="M776.135,3026.421l.492,10.01-3.464.8.591-10.275Z" fill="#4a6d73"/>
                  <path id="Trazado_134263" data-name="Trazado 134263" d="M776.135,3026.421l1.476.65.2,1.506-.689-.02.807,8.2-1.378.01Z" fill="url(#linear-gradient)"/>
                  <path id="Trazado_134264" data-name="Trazado 134264" d="M771.282,2970.3l.482,10.128-1.289.138-1.594-10.01Z" fill="#fff7cc" opacity="0.85" style="isolation: isolate"/>
                  <path id="Trazado_134265" data-name="Trazado 134265" d="M765.741,3006.677l.463,5.59-.679.079-.758-5.571Z" fill="#fff7cc" opacity="0.85" style="isolation: isolate"/>
                </g>
                <path id="Trazado_134266" data-name="Trazado 134266" d="M811.113,3166c-3.543,10.019-8.651,19.084-14.566,27.932a57.162,57.162,0,0,1-10.452-6.889,28.612,28.612,0,0,1,2.283-10.905,37.839,37.839,0,0,0,6.309,5.078,63.162,63.162,0,0,0,11.249-15.245A15.484,15.484,0,0,1,811.113,3166Z" fill="#2a3e51"/>
                <path id="Trazado_134267" data-name="Trazado 134267" d="M854.31,3154.565a12.658,12.658,0,0,0-7.509-2.845,59.769,59.769,0,0,0-20.137,7.451,159.908,159.908,0,0,1,6.889,16.347,126.165,126.165,0,0,1-11.23,7.815,75.6,75.6,0,0,1-7.47-17.8c-2.037-.207-3.74-.089-5.246,1.141a77.61,77.61,0,0,0,9.754,27.342,81.95,81.95,0,0,0,17.135-9.665,154.237,154.237,0,0,1,5.059,24.113,27.736,27.736,0,0,0,16.239,1.407C862.952,3196.029,861.377,3165.45,854.31,3154.565Z" fill="url(#linear-gradient-2)"/>
                <path id="Trazado_134268" data-name="Trazado 134268" d="M877.055,3145.53a45.809,45.809,0,0,0-20.068,6.741q10.886,28.021,19.123,56.986a80.918,80.918,0,0,0,15.354.6h0A156.206,156.206,0,0,0,877.055,3145.53Z" fill="#d44e2f"/>
                <path id="Trazado_134269" data-name="Trazado 134269" d="M873.542,3148.905a47.386,47.386,0,0,0-14.35,5.325,313.271,313.271,0,0,1,12.745,32.558l13.258-.552C881.72,3172.379,878,3159.5,873.542,3148.905Z" fill="#2a3e51"/>
                <path id="Trazado_134270" data-name="Trazado 134270" d="M895.214,3178.215c-.827-10.344-3.691-20.993-9.35-29.7-3.14-2.175-8.612-3.012-8.612-3.012h-.2a156.219,156.219,0,0,1,14.449,64.318,19.143,19.143,0,0,0,2.755-.531C895.145,3198.972,896.041,3188.569,895.214,3178.215Z" fill="url(#linear-gradient-3)"/>
                <path id="Trazado_134271" data-name="Trazado 134271" d="M894.446,3172.015a61.017,61.017,0,0,0-8.582-23.5c-3.14-2.175-8.612-3.012-8.612-3.012h-.2a162.271,162.271,0,0,1,9.311,25.973C889.033,3171.641,891.759,3171.857,894.446,3172.015Z" fill="url(#linear-gradient-4)"/>
                <path id="Trazado_134272" data-name="Trazado 134272" d="M874.24,3170.115a41.784,41.784,0,0,0-2.45-6.259,58.293,58.293,0,0,0-7.1,1.968c-4.173,7.076-16.555,19.3-22.814,23.493-9.213-3.317-15.748-12.312-22.017-18.749-.659.659-1.211,1.092-1.87,1.752,6.535,8.149,14.084,19.044,24.517,22.637C849.36,3192.132,868.207,3178.914,874.24,3170.115Z" fill="#2a3e51"/>
                <path id="Trazado_134273" data-name="Trazado 134273" d="M756.559,3054.569c6.21,36.485,10.944,74.111,14.487,112.682h67.822c2.49-5.777,4.252-11.19,4.636-15.924l-3.317-.876a320.709,320.709,0,0,0,5.3-34.546l4.192-1.053c3.937-21.111,5.906-40.628,4.42-60.283-17.273-5.157-39.733-8.317-61.189-10.157A127.487,127.487,0,0,0,756.559,3054.569Z" fill="url(#linear-gradient-5)"/>
                <path id="Trazado_134274" data-name="Trazado 134274" d="M771.046,3167.251h22.283l-.414-122.839a127.487,127.487,0,0,0-36.356,10.157C762.769,3091.073,767.5,3128.68,771.046,3167.251Z" fill="#d44e2f"/>
                <path id="Trazado_134275" data-name="Trazado 134275" d="M764.56,3170.6c-3.218-5.452-6.761-10.176-9.98-15.619-1.033,4.006-1.968,7.5-3,11.515l11.249,12.49A46.826,46.826,0,0,0,764.56,3170.6Z" fill="#2a3e51"/>
                <path id="Trazado_134276" data-name="Trazado 134276" d="M789.362,3144.7c3.268,21.78-.108,44.427-8.356,64.84a43.151,43.151,0,0,1-14.576-.05,114.244,114.244,0,0,1-1.21-63.048C772.07,3144,782.266,3143.108,789.362,3144.7Z" fill="url(#linear-gradient-6)"/>
                <path id="Trazado_134277" data-name="Trazado 134277" d="M765.22,3146.445a113.453,113.453,0,0,0-3.77,25.589,14.679,14.679,0,0,0,5.65.985,153.719,153.719,0,0,0,.688,16.2c1.87,0,3.721.118,5.591.167a8.543,8.543,0,0,0,3.6-.453,65.015,65.015,0,0,1,3.425-17.263c3.317-.738,6.683-1.693,9.95-2.7a114.972,114.972,0,0,0-.984-24.27C782.266,3143.108,772.07,3144,765.22,3146.445Z" fill="url(#linear-gradient-7)"/>
                <path id="Trazado_134278" data-name="Trazado 134278" d="M756.559,3149.476c-2.618,21.4-11.407,42.4-24.173,59.771a17.566,17.566,0,0,1-6.722-.236A132.558,132.558,0,0,1,732.869,3143,32.964,32.964,0,0,1,756.559,3149.476Z" fill="url(#linear-gradient-8)"/>
                <path id="Trazado_134279" data-name="Trazado 134279" d="M732.869,3143a132.3,132.3,0,0,0-8.022,34.881,34.9,34.9,0,0,0,9.114.1,127.234,127.234,0,0,1,9.773-21.554,30.786,30.786,0,0,1,11.279,2.332c.64-3.08,1.162-6.18,1.546-9.281A32.964,32.964,0,0,0,732.869,3143Z" fill="url(#linear-gradient-9)"/>
                <path id="Trazado_134280" data-name="Trazado 134280" d="M743.616,3156.031l-.315.049-.147.276a128.345,128.345,0,0,0-9.262,20.806,28.245,28.245,0,0,1-8.966-.108l-.118,1.289a29.2,29.2,0,0,0,9.675,0l.384-.059.128-.364a126.921,126.921,0,0,1,9.133-20.668,17.842,17.842,0,0,1,10.826,1.968c.1-.433.2-.866.276-1.3A18.956,18.956,0,0,0,743.616,3156.031Z" fill="#d44e2f"/>
                <path id="Trazado_134281" data-name="Trazado 134281" d="M790.406,3167.842a49.071,49.071,0,0,1-10.217,2.952l-.383.079-.109.384a125.424,125.424,0,0,0-3.179,16.033l-.157.984a38.453,38.453,0,0,1-8.09.2,141.791,141.791,0,0,1-.138-15.836v-.689h-.689a25.06,25.06,0,0,1-6.014-.669v1.328a27.015,27.015,0,0,0,5.374.64,146.958,146.958,0,0,0,.207,15.846v.551l.541.059a33.4,33.4,0,0,0,3.691.187,38.382,38.382,0,0,0,5.758-.413l.452.019.3-1.968a126.073,126.073,0,0,1,3.042-15.5,52.262,52.262,0,0,0,9.5-2.7C790.366,3168.826,790.376,3168.324,790.406,3167.842Z" fill="#d44e2f"/>
                <path id="Trazado_134282" data-name="Trazado 134282" d="M790.041,3115.186a295.257,295.257,0,0,0,2.176,35.166l3.769.984,17.234,1.615.748,4.586,12.509.246.905-4.921,12.795-2.431a320.656,320.656,0,0,0,5.3-34.546,453.527,453.527,0,0,0-50.972-2.706Z" fill="url(#radial-gradient)"/>
                <g id="Grupo_63776" data-name="Grupo 63776">
                  <path id="Trazado_134283" data-name="Trazado 134283" d="M808.141,3055.573l-5.019-.3-4.99-.3-1.712-.059.374-6.1.689.089,6.368.856,6.368.846.738.089-.187.719-.463,1.84-.472,1.86-.128.5-1.565-.049Z" fill="#d44e2f"/>
                  <path id="Trazado_134284" data-name="Trazado 134284" d="M808.7,3055.288l-12.1-.659.285-4.744,12.745,1.7-.935,3.7Z" fill="#00ebaa"/>
                </g>
                <path id="Trazado_134285" data-name="Trazado 134285" d="M771.548,3124.241l-4.921.984a8.69,8.69,0,0,0,.108.985l5.02-1.044c3.7-.758,7.411-1.515,10.314-2.135l.355-.079v-.364c.551-9.212-.483-20.669-1.457-29.7v-.325l-.315-.088c-1.87-.571-5.492-.354-6.811-.256-1.151-14.379-2.342-26.1-3.759-36.839l-.985.128c1.428,10.826,2.628,22.686,3.8,37.272v.492h.492a27.86,27.86,0,0,1,6.613.089c.985,8.789,1.969,19.881,1.437,28.837Z" fill="#9c351e"/>
                <path id="Trazado_134286" data-name="Trazado 134286" d="M854.586,3068.889a48.069,48.069,0,0,1-12.057,1.782h-.423l-.059.423c-.9,6.417-2.273,13.966-5.7,21.357a105.823,105.823,0,0,1-20.51-1.614,145.712,145.712,0,0,0-2.953-23.188l-.079-.325-.334-.049a199.746,199.746,0,0,1-23.395-4.921l-.256.984A199.588,199.588,0,0,0,812,3068.259a145.191,145.191,0,0,1,2.953,23.08v.384l.384.069a104.389,104.389,0,0,0,19.133,1.712h2.519l.128-.265c3.5-7.441,4.921-15.019,5.9-21.5a49.194,49.194,0,0,0,11.624-1.751A6.365,6.365,0,0,1,854.586,3068.889Z" fill="#d44e2f"/>
                <path id="Trazado_134287" data-name="Trazado 134287" d="M834.921,3134.792c-.383,4.645-.748,8.75-2.372,13.011-2.44.069-5.678.108-7.765-.689a77.855,77.855,0,0,1,0-12.312A40.223,40.223,0,0,1,834.921,3134.792Zm-18.778,12.381a79.377,79.377,0,0,0,1.752-16.328,64.324,64.324,0,0,0-12.884-1.456,111.273,111.273,0,0,0,1.427,18.837A60.042,60.042,0,0,0,816.143,3147.173Z" fill="#00ebaa"/>
                <path id="Trazado_134288" data-name="Trazado 134288" d="M796.449,3115.433c7.932,14.763,20.668,26.012,37.3,34.319l5.443-.63a170.012,170.012,0,0,0,4.311-32.036C826.723,3115.147,810.838,3114.33,796.449,3115.433Z" fill="url(#linear-gradient-10)"/>
                <path id="Trazado_134289" data-name="Trazado 134289" d="M853.405,3060.09V3058.8l-.069-.7-.295-2.834-2.422-.551-6.249-1.359-5.482-1.122c-3.6-.708-7.087-1.348-10.4-1.968-6.654-1.142-12.677-2.037-17.716-2.667s-9.2-1.043-12.057-1.23c-1.427-.119-2.549-.148-3.3-.187l-1.151-.05,4.32,1.034c2.766.669,6.762,1.722,11.693,2.952l17.332,4.41,10.255,2.5,10.423,2.411h0v.836c.059.9.079,1.821.108,2.737.059,1.82.1,3.641.118,5.423,0,3.582.079,7.027.118,10.314,0,6.575.059,12.49.089,17.44s-.059,8.966-.148,11.732c-.059,1.388-.108,2.461-.177,3.179s-.088,1.112-.088,1.112.108-.364.3-1.073.452-1.752.738-3.12c.571-2.726,1.26-6.712,1.9-11.662s1.24-10.876,1.693-17.48c.207-3.307.4-6.791.492-10.413.059-1.811.079-3.661.069-5.561C853.454,3062.029,853.464,3061.085,853.405,3060.09Z" fill="url(#linear-gradient-11)"/>
                <path id="Trazado_134290" data-name="Trazado 134290" d="M765.643,3039.993a90.649,90.649,0,0,0,2.657,26.4,9.354,9.354,0,0,0,4.872.985c3.159-.453,6.516-1.359,9.616-2.107a67.445,67.445,0,0,1-.473-19.044l10.62-1.781,7.874.738a31.162,31.162,0,0,0-4.725-9.468,88.035,88.035,0,0,0-19.684,0A30.564,30.564,0,0,0,765.643,3039.993Z" fill="url(#linear-gradient-12)"/>
                <path id="Trazado_134291" data-name="Trazado 134291" d="M777.886,3063.515a126.6,126.6,0,0,1-1.86-27.735,30.4,30.4,0,0,0-10.383,4.213,90.739,90.739,0,0,0,2.638,26.308A45.868,45.868,0,0,0,777.886,3063.515Z" fill="#4a6d73"/>
                <path id="Trazado_134292" data-name="Trazado 134292" d="M779.658,3064.224c-.7-.226-1.073-.472-1.772-.7a48.237,48.237,0,0,1-9.625,2.776v.088a9.352,9.352,0,0,0,4.872.985c3.139-.453,6.466-1.349,9.556-2.087Z" fill="#3d595e"/>
                <path id="Trazado_134293" data-name="Trazado 134293" d="M747.642,3146.4a190.881,190.881,0,0,0-18.336,50.893c-1.388.1-2.6.059-3.937.158a148.519,148.519,0,0,1,7.952-52.744C737.6,3144.221,743.705,3144.536,747.642,3146.4Z" fill="url(#linear-gradient-13)"/>
                <path id="Trazado_134294" data-name="Trazado 134294" d="M886.031,3170.607l8.326.758.2,1.22-7.893-.01Z" fill="#d44e2f"/>
                <path id="Trazado_134295" data-name="Trazado 134295" d="M780.317,3207.21c-.984-.049-1.584,0-2.608-.069a317.989,317.989,0,0,0,3.179-51.11c-5.334-.876-10.905-1.584-16.239-2.46a29.923,29.923,0,0,1,1.191-5.64,53.9,53.9,0,0,1,21.889-2.175C790.474,3154.653,789.156,3186.847,780.317,3207.21Z" fill="url(#linear-gradient-14)"/>
                <path id="Trazado_134296" data-name="Trazado 134296" d="M777.286,3036.656l2.9,7.116c4.922-.452,11.644,0,18.8.64l-3.474-7.756A48.337,48.337,0,0,0,777.286,3036.656Z" fill="url(#linear-gradient-15)"/>
                <path id="Trazado_134297" data-name="Trazado 134297" d="M795.238,3166.985l33.906.266L826.6,3176.3H798.1Z" fill="#2a3e51"/>
                <path id="Trazado_134298" data-name="Trazado 134298" d="M791.075,3150.844l4.763,2.038,17.234,1.653.827,4.38h13.592l.826-4.8,15.187-2.785-3.317-.876-12.795,2.431-.905,4.921-12.51-.246-.748-4.587L796,3151.356l-3.77-.984a295.494,295.494,0,0,1-2.194-35.166l-1.487-.305A330.3,330.3,0,0,0,791.075,3150.844Z" fill="#ffc75e"/>
                <path id="Trazado_134299" data-name="Trazado 134299" d="M845.492,3115.905l4.192-1.053a389.458,389.458,0,0,0-55.332-3.228l-5.8,3.257,1.486.3,4.479-1.968A453.465,453.465,0,0,1,845.492,3115.905Z" fill="#d44e2f"/>
                <path id="Trazado_134300" data-name="Trazado 134300" d="M872.449,3172.438l-1.968-6.388a233.546,233.546,0,0,1-24.96,23.887l1.437,2.736C854.537,3188.264,866.465,3179.475,872.449,3172.438Z" fill="#476f87"/>
                <path id="Trazado_134301" data-name="Trazado 134301" d="M803.85,3176.3l-.994-5.689H828.2L826.6,3176.3Z" fill="#476f87"/>
              </g>
            </g>
          </g>
        </g>
      </g>
    </g>
  </g>
</svg>
