<svg xmlns="http://www.w3.org/2000/svg" width="295.111" height="375.013" viewBox="0 0 295.111 375.013">
  <g id="Grupo_63666" data-name="Grupo 63666" transform="translate(-360.057 -1611.505)">
    <rect id="Rect치ngulo_8001" data-name="Rect치ngulo 8001" width="295.111" height="375.013" rx="20.609" transform="translate(360.057 1611.505)" fill="#f2f2f2"/>
    <g id="Grupo_63665" data-name="Grupo 63665" transform="translate(379.182 1662.075)">
      <rect id="Rect치ngulo_8002" data-name="Rect치ngulo 8002" width="256.863" height="273.873" fill="#f2f2f2"/>
      <g id="Grupo_63660" data-name="Grupo 63660" transform="translate(32.707 49.134)">
        <path id="Trazado_133539" data-name="Trazado 133539" d="M429.852,1747.01l-6.381-10.756h-1.477v10.756h-5.077v-24.439h8.87a10.289,10.289,0,0,1,3.546.565,6.1,6.1,0,0,1,2.461,1.577,6.6,6.6,0,0,1,1.386,2.306,8.442,8.442,0,0,1,.465,2.862,5.934,5.934,0,0,1-1.331,4.011,6.688,6.688,0,0,1-3.838,2.106l7.356,11.012Zm-7.83-20.228v5.834h2.99q3.811,0,3.81-2.908a2.662,2.662,0,0,0-.912-2.151,4.467,4.467,0,0,0-2.881-.775Z" transform="translate(-416.917 -1721.03)"/>
        <path id="Trazado_133540" data-name="Trazado 133540" d="M447.9,1748a10.955,10.955,0,0,1-4.922-1.066,7.989,7.989,0,0,1-3.373-3.127,9.292,9.292,0,0,1-1.231-4.849,8.516,8.516,0,0,1,2.644-6.6,11.039,11.039,0,0,1,13.783,0,9.583,9.583,0,0,1,0,13.218A9.765,9.765,0,0,1,447.9,1748Zm-.046-3.874a4.488,4.488,0,0,0,3.437-1.386,6.027,6.027,0,0,0,0-7.511,4.463,4.463,0,0,0-3.437-1.422,4.29,4.29,0,0,0-3.345,1.431,6.07,6.07,0,0,0,0,7.493,4.324,4.324,0,0,0,3.345,1.395Z" transform="translate(-418.814 -1721.682)"/>
        <path id="Trazado_133541" data-name="Trazado 133541" d="M469.244,1748a9.719,9.719,0,0,1-5.068-1.212,5.135,5.135,0,0,1-2.489-3.646l4.075-1.158a3.273,3.273,0,0,0,3.482,2.58,3.663,3.663,0,0,0,1.778-.392,1.386,1.386,0,0,0,.693-1.349,1.411,1.411,0,0,0-.283-.912,2.323,2.323,0,0,0-.912-.647c-.4-.173-.793-.328-1.185-.456s-.912-.273-1.541-.447q-.819-.211-1.613-.5a11.357,11.357,0,0,1-1.531-.647,6.6,6.6,0,0,1-1.267-.911,3.657,3.657,0,0,1-.912-1.367,4.907,4.907,0,0,1-.328-1.823,4.447,4.447,0,0,1,1.887-3.856,8.451,8.451,0,0,1,4.913-1.276,8.678,8.678,0,0,1,4.558,1.112,5.056,5.056,0,0,1,2.324,3.446l-3.774.848a2.944,2.944,0,0,0-3.09-2.2,3.346,3.346,0,0,0-1.714.392,1.247,1.247,0,0,0-.675,1.149,1.355,1.355,0,0,0,.1.52,1.125,1.125,0,0,0,.355.428c.173.119.337.228.492.319a3.95,3.95,0,0,0,.693.282l.766.219.912.228.912.237c.62.164,1.167.337,1.632.5a10.31,10.31,0,0,1,1.5.711,5.226,5.226,0,0,1,1.3,1.03,4.558,4.558,0,0,1,.857,1.431,5.3,5.3,0,0,1,.337,1.942,5.183,5.183,0,0,1-.583,2.516,4.432,4.432,0,0,1-1.6,1.7,7.92,7.92,0,0,1-2.261.912A12.1,12.1,0,0,1,469.244,1748Z" transform="translate(-420.876 -1721.685)"/>
        <path id="Trazado_133542" data-name="Trazado 133542" d="M495.8,1742.943a16.177,16.177,0,0,0,.428,4.239v.474h-4.558l-.392-1.9a5.654,5.654,0,0,1-2.434,1.677,8.94,8.94,0,0,1-3.145.556,8.339,8.339,0,0,1-1.623-.146,5.678,5.678,0,0,1-1.468-.52,4.857,4.857,0,0,1-1.212-.912,4.146,4.146,0,0,1-.811-1.376,5.634,5.634,0,0,1-.3-1.887,5.3,5.3,0,0,1,.319-1.887,4.535,4.535,0,0,1,.848-1.413,4.956,4.956,0,0,1,1.367-1.03,9.9,9.9,0,0,1,1.732-.748,18.891,18.891,0,0,1,2.06-.538l2.862-.647a3.12,3.12,0,0,0,1.285-.547,1.1,1.1,0,0,0,.383-.912,1.821,1.821,0,0,0-.857-1.668,3.878,3.878,0,0,0-2.069-.51q-2.99,0-3.4,2.653l-4.312-.775a5.832,5.832,0,0,1,2.525-3.965,9.936,9.936,0,0,1,5.469-1.276q7.292,0,7.293,6.272Zm-8.569,1.759a3.922,3.922,0,0,0,3.008-1.267,5.318,5.318,0,0,0,1.167-3.728l-4.129,1.2a4.911,4.911,0,0,0-1.732.711,1.457,1.457,0,0,0-.6,1.249,1.642,1.642,0,0,0,.647,1.386A2.685,2.685,0,0,0,487.233,1744.7Z" transform="translate(-422.521 -1721.676)"/>
        <path id="Trazado_133543" data-name="Trazado 133543" d="M514.278,1720.881h4.868v25.98h-4.613l-.119-2.261a5.077,5.077,0,0,1-2.206,1.969,7.5,7.5,0,0,1-3.263.7,8.446,8.446,0,0,1-3.245-.629,7.86,7.86,0,0,1-4.467-4.631,10.655,10.655,0,0,1-.656-3.81,9.875,9.875,0,0,1,1.149-4.84,7.854,7.854,0,0,1,3.035-3.154,8.353,8.353,0,0,1,4.184-1.03,7.623,7.623,0,0,1,3.154.629,4.976,4.976,0,0,1,2.179,1.823Zm-4.211,22.343a4.324,4.324,0,0,0,3.291-1.386,5.06,5.06,0,0,0,1.313-3.646,5.12,5.12,0,0,0-1.322-3.646,4.613,4.613,0,0,0-6.523-.068l-.067.068a5.76,5.76,0,0,0,0,7.293A4.4,4.4,0,0,0,510.066,1743.224Z" transform="translate(-424.315 -1720.881)"/>
        <path id="Trazado_133544" data-name="Trazado 133544" d="M534.442,1748a10.95,10.95,0,0,1-4.922-1.066,7.989,7.989,0,0,1-3.373-3.127,9.292,9.292,0,0,1-1.231-4.849,8.516,8.516,0,0,1,2.644-6.6,11.039,11.039,0,0,1,13.783,0,9.583,9.583,0,0,1,0,13.218A9.765,9.765,0,0,1,534.442,1748Zm-.055-3.874a4.494,4.494,0,0,0,3.446-1.386,6.026,6.026,0,0,0,0-7.511,4.465,4.465,0,0,0-3.446-1.422,4.292,4.292,0,0,0-3.336,1.431,6.07,6.07,0,0,0,0,7.493A4.314,4.314,0,0,0,534.387,1744.125Z" transform="translate(-426.466 -1721.682)"/>
      </g>
      <g id="Grupo_63661" data-name="Grupo 63661" transform="translate(34.029 137.383)">
        <path id="Trazado_133545" data-name="Trazado 133545" d="M423.882,1828.352A5.434,5.434,0,0,1,421.9,1828a5.127,5.127,0,0,1-1.586-1.012,4.563,4.563,0,0,1-1.048-1.632,6.236,6.236,0,0,1,0-4.3,4.636,4.636,0,0,1,1.057-1.632,4.808,4.808,0,0,1,1.577-1.012,5.393,5.393,0,0,1,1.978-.356,5.043,5.043,0,0,1,2.662.711,4.393,4.393,0,0,1,1.8,1.96l-1.176.483a3.38,3.38,0,0,0-1.313-1.431,3.746,3.746,0,0,0-1.942-.5,4.053,4.053,0,0,0-1.468.264,3.455,3.455,0,0,0-1.176.757,3.358,3.358,0,0,0-.793,1.24,4.556,4.556,0,0,0-.292,1.659,4.664,4.664,0,0,0,.292,1.677,3.372,3.372,0,0,0,.793,1.24,3.48,3.48,0,0,0,1.176.756,3.9,3.9,0,0,0,1.468.264,3.756,3.756,0,0,0,1.942-.5,3.341,3.341,0,0,0,1.313-1.413l1.176.474a4.381,4.381,0,0,1-1.823,1.96A5.162,5.162,0,0,1,423.882,1828.352Z" transform="translate(-418.413 -1817.723)"/>
        <path id="Trazado_133546" data-name="Trazado 133546" d="M434.162,1828.645a3.651,3.651,0,0,1-1.823-.438,3.084,3.084,0,0,1-1.267-1.267,3.914,3.914,0,0,1-.465-1.932,3.573,3.573,0,0,1,.994-2.643,3.727,3.727,0,0,1,5.068,0,3.645,3.645,0,0,1,.984,2.643,3.568,3.568,0,0,1-.994,2.644A3.4,3.4,0,0,1,434.162,1828.645Zm0-1.021a2.191,2.191,0,0,0,1.659-.72,2.736,2.736,0,0,0,.656-1.9,2.667,2.667,0,0,0-.656-1.887,2.151,2.151,0,0,0-1.659-.72,2.1,2.1,0,0,0-1.641.72,2.667,2.667,0,0,0-.656,1.887,2.736,2.736,0,0,0,.656,1.9,2.137,2.137,0,0,0,1.632.72Z" transform="translate(-419.449 -1818.016)"/>
        <path id="Trazado_133547" data-name="Trazado 133547" d="M447.643,1821.371a2.242,2.242,0,0,1,1.632.6,2.169,2.169,0,0,1,.62,1.668v4.868h-1.231v-4.558a1.592,1.592,0,0,0-.383-1.158,1.326,1.326,0,0,0-.975-.392,1.371,1.371,0,0,0-1.067.447,1.878,1.878,0,0,0-.41,1.322v4.33H444.58V1824a1.659,1.659,0,0,0-.392-1.185,1.3,1.3,0,0,0-.994-.41,1.375,1.375,0,0,0-1.067.456,1.969,1.969,0,0,0-.41,1.358v4.284h-1.231v-7h1.231v.911a2.219,2.219,0,0,1,.8-.766,2.254,2.254,0,0,1,1.112-.274,2.354,2.354,0,0,1,1.2.3,1.821,1.821,0,0,1,.775.848,2.132,2.132,0,0,1,.839-.848A2.36,2.36,0,0,1,447.643,1821.371Z" transform="translate(-420.323 -1818.016)"/>
        <path id="Trazado_133548" data-name="Trazado 133548" d="M457.122,1821.371a3.111,3.111,0,0,1,1.267.264,3.048,3.048,0,0,1,1.039.711,3.324,3.324,0,0,1,.7,1.158,4.28,4.28,0,0,1,.264,1.513,3.646,3.646,0,0,1-.912,2.634,3.053,3.053,0,0,1-2.324,1.012,2.742,2.742,0,0,1-1.459-.4,2.652,2.652,0,0,1-1-1.076v4.85h-1.231v-10.529h1.185v1.358a2.56,2.56,0,0,1,1-1.085A2.729,2.729,0,0,1,457.122,1821.371Zm-.237,6.217a2.136,2.136,0,0,0,1.623-.7,2.991,2.991,0,0,0,0-3.737,2.132,2.132,0,0,0-1.623-.7,2.161,2.161,0,0,0-1.65.729,2.881,2.881,0,0,0,0,3.646,2.127,2.127,0,0,0,1.686.766Z" transform="translate(-421.471 -1818.016)"/>
        <path id="Trazado_133549" data-name="Trazado 133549" d="M464.769,1828.647a2.346,2.346,0,0,1-1.541-.483,1.715,1.715,0,0,1-.6-1.431,2,2,0,0,1,.191-.912,1.547,1.547,0,0,1,.574-.638,3.1,3.1,0,0,1,.82-.4,7.635,7.635,0,0,1,1.067-.246l1.13-.191c.41-.073.62-.292.62-.647a1.212,1.212,0,0,0-.438-1.039,1.755,1.755,0,0,0-1.112-.337,1.82,1.82,0,0,0-1.094.319,1.372,1.372,0,0,0-.52.984l-1.112-.228a2.184,2.184,0,0,1,.912-1.5,3.276,3.276,0,0,1,1.914-.5,3.91,3.91,0,0,1,1.012.128,2.558,2.558,0,0,1,.848.392,1.7,1.7,0,0,1,.6.747,2.814,2.814,0,0,1,.219,1.158v2.89a1.177,1.177,0,0,0,.164.729.686.686,0,0,0,.547.191h.118v.911h-.611c-.757,0-1.2-.31-1.331-.911h-.055A2.654,2.654,0,0,1,464.769,1828.647Zm.283-.994a1.873,1.873,0,0,0,1.5-.684,2.81,2.81,0,0,0,.565-1.823l-1.823.356a2.433,2.433,0,0,0-1.085.392,1.02,1.02,0,0,0-.018,1.531,1.42,1.42,0,0,0,.83.228Z" transform="translate(-422.28 -1818.018)"/>
        <path id="Trazado_133550" data-name="Trazado 133550" d="M473.736,1828.647a3.351,3.351,0,0,1-1.887-.5,2.1,2.1,0,0,1-.912-1.44l1.076-.31a1.479,1.479,0,0,0,.574.975,1.825,1.825,0,0,0,1.149.346,2.632,2.632,0,0,0,.675-.091,1.1,1.1,0,0,0,.51-.346.913.913,0,0,0,.21-.638,1.373,1.373,0,0,0-.055-.292,1.037,1.037,0,0,0-.118-.228.576.576,0,0,0-.2-.192l-.237-.155a2.335,2.335,0,0,0-.319-.128l-.337-.119-.392-.109-.41-.119a7.184,7.184,0,0,1-.72-.255,3.072,3.072,0,0,1-.593-.337,1.309,1.309,0,0,1-.465-.556,1.882,1.882,0,0,1-.146-.784,1.822,1.822,0,0,1,.337-1.112,1.888,1.888,0,0,1,.912-.666,3.534,3.534,0,0,1,1.249-.2,3.054,3.054,0,0,1,1.7.456,1.914,1.914,0,0,1,.848,1.367l-1.012.255a1.33,1.33,0,0,0-.529-.911,1.7,1.7,0,0,0-1.012-.3,1.734,1.734,0,0,0-.912.246.848.848,0,0,0-.392.757.7.7,0,0,0,.109.383.987.987,0,0,0,.21.273,1.377,1.377,0,0,0,.383.219l.41.146.51.128h.109l.675.191a4.766,4.766,0,0,1,.6.255,1.9,1.9,0,0,1,.547.383,1.818,1.818,0,0,1,.346.538,2.041,2.041,0,0,1,.137.757,1.993,1.993,0,0,1-.21.912,1.646,1.646,0,0,1-.574.647,2.609,2.609,0,0,1-.811.346A3.781,3.781,0,0,1,473.736,1828.647Z" transform="translate(-423.016 -1818.018)"/>
        <path id="Trazado_133551" data-name="Trazado 133551" d="M479.576,1819.56a.839.839,0,0,1-.839-.839h0a.79.79,0,0,1,.246-.583.836.836,0,0,1,.593-.237.808.808,0,0,1,.574.237.79.79,0,0,1,.246.583.815.815,0,0,1-.246.593A.787.787,0,0,1,479.576,1819.56Zm-.629,8.642v-7h1.24v7Z" transform="translate(-423.705 -1817.71)"/>
        <path id="Trazado_133552" data-name="Trazado 133552" d="M485.962,1828.32a3.652,3.652,0,0,1-1.823-.438,3.118,3.118,0,0,1-1.258-1.267,3.818,3.818,0,0,1-.474-1.932,3.646,3.646,0,0,1,.994-2.643,3.727,3.727,0,0,1,5.068,0,4.01,4.01,0,0,1,0,5.287A3.425,3.425,0,0,1,485.962,1828.32Zm0-1.021a2.172,2.172,0,0,0,1.659-.72,2.736,2.736,0,0,0,.656-1.9,2.667,2.667,0,0,0-.656-1.887,2.139,2.139,0,0,0-1.659-.72,2.114,2.114,0,0,0-1.641.72,3.088,3.088,0,0,0,0,3.783,2.154,2.154,0,0,0,1.6.72Zm-.456-7.293,1.823-2.315.656.474-1.6,1.823Z" transform="translate(-424.03 -1817.691)"/>
        <path id="Trazado_133553" data-name="Trazado 133553" d="M495.593,1821.37a2.428,2.428,0,0,1,1.759.638,2.333,2.333,0,0,1,.665,1.823v4.713h-1.2v-4.43a1.676,1.676,0,0,0-.428-1.258,1.538,1.538,0,0,0-1.1-.41,1.682,1.682,0,0,0-1.24.483,1.922,1.922,0,0,0-.492,1.431v4.184h-1.294v-7h1.231v.911A2.334,2.334,0,0,1,495.593,1821.37Z" transform="translate(-424.901 -1818.016)"/>
        <path id="Trazado_133554" data-name="Trazado 133554" d="M425.979,1847.428l-.866-2.4h-4.558l-.857,2.4h-1.331l3.692-10.027h1.522l3.7,10.027ZM421,1843.91h3.737l-1.914-5.223Z" transform="translate(-418.367 -1819.434)"/>
        <path id="Trazado_133555" data-name="Trazado 133555" d="M437.173,1840.57a2.242,2.242,0,0,1,1.632.6,2.169,2.169,0,0,1,.62,1.668v4.868h-1.231v-4.558a1.591,1.591,0,0,0-.383-1.158,1.318,1.318,0,0,0-.975-.383,1.362,1.362,0,0,0-1.067.438,1.878,1.878,0,0,0-.41,1.322v4.33H434.11V1843.2a1.665,1.665,0,0,0-.392-1.194,1.3,1.3,0,0,0-.994-.4,1.363,1.363,0,0,0-1.067.447,1.969,1.969,0,0,0-.41,1.358v4.284h-1.231v-7h1.231v.912a2.179,2.179,0,0,1,.8-.775,2.257,2.257,0,0,1,1.121-.273,2.341,2.341,0,0,1,1.194.3,1.821,1.821,0,0,1,.775.848,2.2,2.2,0,0,1,.839-.848A2.364,2.364,0,0,1,437.173,1840.57Z" transform="translate(-419.397 -1819.713)"/>
        <path id="Trazado_133556" data-name="Trazado 133556" d="M445.842,1847.845a3.653,3.653,0,0,1-1.823-.437,3.086,3.086,0,0,1-1.267-1.267,3.914,3.914,0,0,1-.465-1.933,3.574,3.574,0,0,1,.994-2.644,3.436,3.436,0,0,1,2.525-.994,3.472,3.472,0,0,1,2.543.994,3.645,3.645,0,0,1,.984,2.644,3.568,3.568,0,0,1-.994,2.644A3.412,3.412,0,0,1,445.842,1847.845Zm0-1.021a2.155,2.155,0,0,0,1.65-.72,2.741,2.741,0,0,0,.665-1.9,2.68,2.68,0,0,0-.665-1.887,2.122,2.122,0,0,0-1.65-.72,2.086,2.086,0,0,0-1.641.72,2.667,2.667,0,0,0-.656,1.887,2.736,2.736,0,0,0,.656,1.9,2.124,2.124,0,0,0,1.641.72Z" transform="translate(-420.482 -1819.714)"/>
        <path id="Trazado_133557" data-name="Trazado 133557" d="M453.38,1841.947a2.127,2.127,0,0,1,.866-.912,2.62,2.62,0,0,1,1.349-.365v1.158a2.323,2.323,0,0,0-1.632.52,2.169,2.169,0,0,0-.556,1.659v3.738h-1.231v-7h1.2Z" transform="translate(-421.357 -1819.723)"/>
        <path id="Trazado_133558" data-name="Trazado 133558" d="M419.657,1866.628V1856.6h1.267v10.027Z" transform="translate(-418.481 -1821.132)"/>
        <path id="Trazado_133559" data-name="Trazado 133559" d="M427.457,1859.771a2.428,2.428,0,0,1,1.759.638,2.333,2.333,0,0,1,.665,1.823v4.713h-1.231v-4.439a1.67,1.67,0,0,0-.428-1.249,1.538,1.538,0,0,0-1.1-.41,1.682,1.682,0,0,0-1.24.483,1.922,1.922,0,0,0-.492,1.431v4.184h-1.231v-7h1.231v.912A2.324,2.324,0,0,1,427.457,1859.771Z" transform="translate(-418.879 -1821.412)"/>
        <path id="Trazado_133560" data-name="Trazado 133560" d="M440.2,1859.771a2.249,2.249,0,0,1,1.632.6,2.193,2.193,0,0,1,.62,1.668v4.868h-1.24v-4.558a1.591,1.591,0,0,0-.383-1.158,1.326,1.326,0,0,0-.975-.392,1.4,1.4,0,0,0-1.067.447,1.874,1.874,0,0,0-.4,1.322v4.33h-1.258v-4.5a1.612,1.612,0,0,0-.392-1.185,1.292,1.292,0,0,0-.994-.41,1.374,1.374,0,0,0-1.057.456,1.969,1.969,0,0,0-.41,1.358v4.284h-1.231v-7h1.231v.911a2.075,2.075,0,0,1,.8-.766,2.254,2.254,0,0,1,1.112-.274,2.342,2.342,0,0,1,1.194.3,1.822,1.822,0,0,1,.775.848,2.167,2.167,0,0,1,.848-.848A2.342,2.342,0,0,1,440.2,1859.771Z" transform="translate(-419.665 -1821.412)"/>
        <path id="Trazado_133561" data-name="Trazado 133561" d="M447.549,1867.049a2.4,2.4,0,0,1-1.541-.483,1.715,1.715,0,0,1-.6-1.431,2.069,2.069,0,0,1,.191-.912,1.586,1.586,0,0,1,.583-.611,3.219,3.219,0,0,1,.82-.4,9.119,9.119,0,0,1,1.067-.255l1.13-.182c.41-.073.62-.292.62-.647a1.212,1.212,0,0,0-.438-1.039,1.729,1.729,0,0,0-1.1-.337,1.869,1.869,0,0,0-1.1.319,1.371,1.371,0,0,0-.52.984l-1.112-.237a2.186,2.186,0,0,1,.912-1.495,3.276,3.276,0,0,1,1.914-.5,3.823,3.823,0,0,1,1.012.128,2.56,2.56,0,0,1,.848.392,1.821,1.821,0,0,1,.611.748,2.987,2.987,0,0,1,.21,1.158v2.89a1.176,1.176,0,0,0,.164.729.694.694,0,0,0,.556.191h.109v.912h-.611a1.158,1.158,0,0,1-1.322-.912h-.118A2.673,2.673,0,0,1,447.549,1867.049Zm.283-.994a1.871,1.871,0,0,0,1.5-.684,2.81,2.81,0,0,0,.565-1.823l-1.823.356a2.434,2.434,0,0,0-1.085.392,1.02,1.02,0,0,0-.09,1.44,1.083,1.083,0,0,0,.09.091,1.422,1.422,0,0,0,.839.228Z" transform="translate(-420.758 -1821.416)"/>
        <path id="Trazado_133562" data-name="Trazado 133562" d="M459.325,1855.6h1.258v10.939H459.4v-1.358a2.611,2.611,0,0,1-1,1.1,2.742,2.742,0,0,1-1.477.41,3.171,3.171,0,0,1-1.267-.264,3.12,3.12,0,0,1-1.048-.729,3.415,3.415,0,0,1-.7-1.158,4.2,4.2,0,0,1-.255-1.495,3.643,3.643,0,0,1,.912-2.634,3.054,3.054,0,0,1,2.324-1.012,2.725,2.725,0,0,1,1.459.4,2.554,2.554,0,0,1,1,1.067Zm-2.206,10.027a2.136,2.136,0,0,0,1.632-.729,2.681,2.681,0,0,0,.656-1.823,2.624,2.624,0,0,0-.665-1.823,2.093,2.093,0,0,0-1.623-.739,2.169,2.169,0,0,0-1.641.711,2.971,2.971,0,0,0,0,3.728,2.173,2.173,0,0,0,1.641.666Z" transform="translate(-421.486 -1821.043)"/>
        <path id="Trazado_133563" data-name="Trazado 133563" d="M468.324,1859.918h1.24v7h-1.185v-.912a2.247,2.247,0,0,1-.866.784,2.75,2.75,0,0,1-1.231.273,2.4,2.4,0,0,1-1.759-.638,2.353,2.353,0,0,1-.656-1.823v-4.713H465.1v4.439a1.632,1.632,0,0,0,.428,1.249,1.5,1.5,0,0,0,1.1.419,1.691,1.691,0,0,0,1.24-.483,1.971,1.971,0,0,0,.483-1.431Z" transform="translate(-422.39 -1821.423)"/>
        <path id="Trazado_133564" data-name="Trazado 133564" d="M474.07,1861.147a2.127,2.127,0,0,1,.866-.911,2.592,2.592,0,0,1,1.349-.365v1.158a2.322,2.322,0,0,0-1.632.52,2.168,2.168,0,0,0-.556,1.659v3.737h-1.231v-7h1.2Z" transform="translate(-423.186 -1821.421)"/>
        <path id="Trazado_133565" data-name="Trazado 133565" d="M480.993,1867.045a3.651,3.651,0,0,1-1.823-.437,3.118,3.118,0,0,1-1.258-1.267,3.914,3.914,0,0,1-.465-1.932,3.565,3.565,0,0,1,.994-2.644,3.719,3.719,0,0,1,5.059,0,4.01,4.01,0,0,1,0,5.287A3.425,3.425,0,0,1,480.993,1867.045Zm0-1.021a2.17,2.17,0,0,0,1.65-.72,2.735,2.735,0,0,0,.656-1.9,2.667,2.667,0,0,0-.656-1.887,2.252,2.252,0,0,0-3.182-.119c-.04.038-.08.078-.118.119a3.088,3.088,0,0,0,0,3.783,2.155,2.155,0,0,0,1.65.72Z" transform="translate(-423.591 -1821.412)"/>
        <path id="Trazado_133566" data-name="Trazado 133566" d="M419.657,1885.828V1875.8h3.227a4.8,4.8,0,0,1,2.552.647,3.925,3.925,0,0,1,1.568,1.768,6.178,6.178,0,0,1,.51,2.589,6.738,6.738,0,0,1-.292,2.033,4.767,4.767,0,0,1-.866,1.586,3.815,3.815,0,0,1-1.458,1.039,5.249,5.249,0,0,1-2.015.365Zm1.267-1.158h1.923a3.057,3.057,0,0,0,2.5-1.03,5.134,5.134,0,0,0,0-5.652,3.06,3.06,0,0,0-2.5-1.021h-1.923Z" transform="translate(-418.481 -1822.829)"/>
        <path id="Trazado_133567" data-name="Trazado 133567" d="M431.256,1877.16a.839.839,0,0,1-.839-.839h0a.79.79,0,0,1,.246-.583.837.837,0,0,1,.593-.237.809.809,0,0,1,.574.237.791.791,0,0,1,.246.583.815.815,0,0,1-.246.593A.788.788,0,0,1,431.256,1877.16Zm-.629,8.642v-7h1.24v7Z" transform="translate(-419.433 -1822.803)"/>
        <path id="Trazado_133568" data-name="Trazado 133568" d="M439.022,1879.121h1.313l-2.844,7h-1.048l-2.835-7h1.313l2.051,5.57Z" transform="translate(-419.715 -1823.123)"/>
        <path id="Trazado_133569" data-name="Trazado 133569" d="M448.363,1882.475v.337h-5.469a2.453,2.453,0,0,0,.675,1.823,2.172,2.172,0,0,0,1.6.629,2.117,2.117,0,0,0,1.951-1.267l1.112.237a3.112,3.112,0,0,1-1.194,1.5,3.281,3.281,0,0,1-1.823.547,3.385,3.385,0,0,1-2.516-.975,4.148,4.148,0,0,1,0-5.324,3.335,3.335,0,0,1,2.479-.975,3.134,3.134,0,0,1,2.352.911A3.535,3.535,0,0,1,448.363,1882.475Zm-3.245-2.552a2.164,2.164,0,0,0-1.458.5,2.309,2.309,0,0,0-.729,1.44h4.193a2.131,2.131,0,0,0-.611-1.44,1.966,1.966,0,0,0-1.395-.529Z" transform="translate(-420.433 -1823.113)"/>
        <path id="Trazado_133570" data-name="Trazado 133570" d="M452.324,1880.347a2.157,2.157,0,0,1,.912-.912,2.587,2.587,0,0,1,1.34-.365v1.158a2.291,2.291,0,0,0-1.623.52,2.169,2.169,0,0,0-.556,1.659v3.738h-1.24v-7h1.2Z" transform="translate(-421.267 -1823.119)"/>
        <path id="Trazado_133571" data-name="Trazado 133571" d="M459.037,1885.9a1.825,1.825,0,0,1-1.367-.5,1.889,1.889,0,0,1-.5-1.395v-4.12h-1.431v-.984h.529a1.034,1.034,0,0,0,.775-.246,1.233,1.233,0,0,0,.219-.82v-1.267h1.149v2.334h1.613v.984h-1.613v3.993a1.067,1.067,0,0,0,.264.766.914.914,0,0,0,.7.273h.647v.984Z" transform="translate(-421.672 -1822.897)"/>
        <path id="Trazado_133572" data-name="Trazado 133572" d="M463,1877.16a.839.839,0,0,1-.839-.839h0a.791.791,0,0,1,.246-.583.837.837,0,0,1,.592-.237.809.809,0,0,1,.574.237.79.79,0,0,1,.246.583.815.815,0,0,1-.246.593A.788.788,0,0,1,463,1877.16Zm-.629,8.642v-7h1.24v7Z" transform="translate(-422.239 -1822.803)"/>
        <path id="Trazado_133573" data-name="Trazado 133573" d="M471.616,1874.8h1.231v10.939H471.7v-1.358a2.61,2.61,0,0,1-1,1.1,2.74,2.74,0,0,1-1.477.41,3.218,3.218,0,0,1-2.315-.994,3.415,3.415,0,0,1-.7-1.158,4.189,4.189,0,0,1-.264-1.495,3.646,3.646,0,0,1,.957-2.634,3.053,3.053,0,0,1,2.324-1.012,2.724,2.724,0,0,1,1.459.4,2.616,2.616,0,0,1,1,1.067Zm-2.206,10.027a2.109,2.109,0,0,0,1.623-.729,2.881,2.881,0,0,0,0-3.646,2.092,2.092,0,0,0-1.623-.738,2.169,2.169,0,0,0-1.641.711,2.971,2.971,0,0,0,0,3.728,2.173,2.173,0,0,0,1.641.665Z" transform="translate(-422.573 -1822.741)"/>
        <path id="Trazado_133574" data-name="Trazado 133574" d="M479.162,1886.275a3.65,3.65,0,0,1-1.823-.437,3.084,3.084,0,0,1-1.267-1.267,3.915,3.915,0,0,1-.465-1.933,3.574,3.574,0,0,1,.994-2.644,3.727,3.727,0,0,1,5.068,0,3.646,3.646,0,0,1,.984,2.644,3.568,3.568,0,0,1-.994,2.644A3.4,3.4,0,0,1,479.162,1886.275Zm0-1.021a2.191,2.191,0,0,0,1.659-.72,2.735,2.735,0,0,0,.656-1.9,2.666,2.666,0,0,0-.656-1.887,2.15,2.15,0,0,0-1.659-.72,2.1,2.1,0,0,0-1.641.72,2.666,2.666,0,0,0-.656,1.887,2.735,2.735,0,0,0,.656,1.9,2.133,2.133,0,0,0,1.632.693Z" transform="translate(-423.428 -1823.112)"/>
        <path id="Trazado_133575" data-name="Trazado 133575" d="M425.981,1905.008l-.866-2.4h-4.558l-.83,2.4H418.4l3.692-10.027h1.522l3.7,10.027Zm-4.977-3.5h3.737l-1.914-5.223Z" transform="translate(-418.37 -1824.526)"/>
        <path id="Trazado_133576" data-name="Trazado 133576" d="M435.032,1893.981h1.231v10.939h-1.194v-1.358a2.583,2.583,0,0,1-.994,1.1,2.789,2.789,0,0,1-1.486.41,3.169,3.169,0,0,1-1.267-.264,2.987,2.987,0,0,1-1.039-.729,3.279,3.279,0,0,1-.711-1.158,4.2,4.2,0,0,1-.255-1.5,3.711,3.711,0,0,1,.912-2.635,3.08,3.08,0,0,1,2.325-1.012,2.786,2.786,0,0,1,1.468.4,2.616,2.616,0,0,1,1,1.066Zm-2.215,10.027a2.127,2.127,0,0,0,1.632-.729,2.681,2.681,0,0,0,.656-1.823,2.624,2.624,0,0,0-.665-1.823,2.075,2.075,0,0,0-1.623-.739,2.128,2.128,0,0,0-1.632.711,2.634,2.634,0,0,0-.665,1.869,2.6,2.6,0,0,0,.665,1.823A2.135,2.135,0,0,0,432.817,1904.008Z" transform="translate(-419.335 -1824.437)"/>
        <path id="Trazado_133577" data-name="Trazado 133577" d="M446.843,1898.17a2.249,2.249,0,0,1,1.632.6,2.193,2.193,0,0,1,.62,1.668v4.849h-1.231v-4.558a1.6,1.6,0,0,0-.392-1.158,1.326,1.326,0,0,0-.975-.392,1.4,1.4,0,0,0-1.067.447,1.874,1.874,0,0,0-.4,1.322v4.339h-1.258v-4.5a1.651,1.651,0,0,0-.383-1.185,1.317,1.317,0,0,0-.994-.41,1.374,1.374,0,0,0-1.067.456,1.969,1.969,0,0,0-.41,1.358v4.284h-1.231v-7h1.231v.911a2.075,2.075,0,0,1,.8-.766,2.254,2.254,0,0,1,1.112-.274,2.342,2.342,0,0,1,1.194.3,1.822,1.822,0,0,1,.775.848,2.161,2.161,0,0,1,.848-.848A2.348,2.348,0,0,1,446.843,1898.17Z" transform="translate(-420.252 -1824.807)"/>
        <path id="Trazado_133578" data-name="Trazado 133578" d="M453.227,1896.36a.8.8,0,0,1-.583-.246.816.816,0,0,1-.246-.593.791.791,0,0,1,.246-.583.838.838,0,0,1,1.167,0,.791.791,0,0,1,.246.583.816.816,0,0,1-.246.593A.8.8,0,0,1,453.227,1896.36ZM452.6,1905v-7h1.24v6.982Z" transform="translate(-421.376 -1824.501)"/>
        <path id="Trazado_133579" data-name="Trazado 133579" d="M457.934,1899.547a2.156,2.156,0,0,1,.912-.911,2.587,2.587,0,0,1,1.34-.365v1.158a2.29,2.29,0,0,0-1.623.52,2.169,2.169,0,0,0-.556,1.659v3.692h-1.24v-7h1.2Z" transform="translate(-421.763 -1824.817)"/>
        <path id="Trazado_133580" data-name="Trazado 133580" d="M463.54,1905.447a2.393,2.393,0,0,1-1.531-.483,1.715,1.715,0,0,1-.6-1.431,2,2,0,0,1,.191-.911,1.579,1.579,0,0,1,.565-.638,3.371,3.371,0,0,1,.82-.4,7.618,7.618,0,0,1,1.067-.246l1.13-.191c.419-.073.62-.292.62-.647a1.212,1.212,0,0,0-.438-1.039,1.728,1.728,0,0,0-1.1-.337,1.818,1.818,0,0,0-1.094.319,1.357,1.357,0,0,0-.529.984l-1.1-.228a2.122,2.122,0,0,1,.912-1.5,3.225,3.225,0,0,1,1.905-.5,3.828,3.828,0,0,1,1.012.128,2.557,2.557,0,0,1,.848.392,1.717,1.717,0,0,1,.611.747,2.815,2.815,0,0,1,.219,1.158v2.853a1.187,1.187,0,0,0,.155.729.694.694,0,0,0,.556.191h.109v.912h-.611a1.158,1.158,0,0,1-1.322-.912h-.1A2.654,2.654,0,0,1,463.54,1905.447Zm.283-.994a1.874,1.874,0,0,0,1.5-.684,2.738,2.738,0,0,0,.574-1.823l-1.823.355a2.484,2.484,0,0,0-1.085.392,1.029,1.029,0,0,0-.009,1.531A1.4,1.4,0,0,0,463.822,1904.453Z" transform="translate(-422.173 -1824.809)"/>
        <path id="Trazado_133581" data-name="Trazado 133581" d="M473.047,1905.436a3.348,3.348,0,0,1-2.507-1,3.965,3.965,0,0,1,0-5.251,3.333,3.333,0,0,1,2.507-1.012,3.387,3.387,0,0,1,2.024.62,3.1,3.1,0,0,1,1.185,1.7l-1.158.191a2.1,2.1,0,0,0-2.06-1.477,2.066,2.066,0,0,0-1.623.72,3.137,3.137,0,0,0,0,3.765,2.072,2.072,0,0,0,1.623.72,2.1,2.1,0,0,0,2.06-1.477l1.158.191a3.09,3.09,0,0,1-1.194,1.7A3.391,3.391,0,0,1,473.047,1905.436Z" transform="translate(-422.892 -1824.807)"/>
        <path id="Trazado_133582" data-name="Trazado 133582" d="M479.506,1896.36a.839.839,0,0,1-.839-.839h0a.79.79,0,0,1,.246-.583.836.836,0,0,1,.593-.237.807.807,0,0,1,.574.237.791.791,0,0,1,.246.583.815.815,0,0,1-.246.593A.788.788,0,0,1,479.506,1896.36Zm-.629,8.642v-7h1.24v6.983Z" transform="translate(-423.699 -1824.501)"/>
        <path id="Trazado_133583" data-name="Trazado 133583" d="M485.912,1905.12a3.653,3.653,0,0,1-1.823-.437,3.118,3.118,0,0,1-1.258-1.267,3.818,3.818,0,0,1-.474-1.932,3.647,3.647,0,0,1,.994-2.644,3.727,3.727,0,0,1,5.068,0,4.01,4.01,0,0,1,0,5.287A3.426,3.426,0,0,1,485.912,1905.12Zm0-1.021a2.172,2.172,0,0,0,1.659-.72,2.736,2.736,0,0,0,.656-1.9,2.667,2.667,0,0,0-.656-1.887,2.139,2.139,0,0,0-1.659-.72,2.114,2.114,0,0,0-1.641.72,3.088,3.088,0,0,0,0,3.783A2.153,2.153,0,0,0,485.912,1904.1Zm-.456-7.292,1.823-2.315.656.474-1.6,1.823Z" transform="translate(-424.025 -1824.482)"/>
        <path id="Trazado_133584" data-name="Trazado 133584" d="M495.53,1898.171a2.428,2.428,0,0,1,1.759.638,2.333,2.333,0,0,1,.665,1.823v4.658h-1.231v-4.43a1.668,1.668,0,0,0-.428-1.258,1.538,1.538,0,0,0-1.1-.41,1.682,1.682,0,0,0-1.24.483,1.922,1.922,0,0,0-.492,1.431v4.184h-1.2v-7h1.231v.911A2.322,2.322,0,0,1,495.53,1898.171Z" transform="translate(-424.901 -1824.807)"/>
      </g>
      <g id="Grupo_63662" data-name="Grupo 63662" transform="translate(34.959 106.271)">
        <path id="Trazado_133585" data-name="Trazado 133585" d="M423.662,1784.09a3.116,3.116,0,0,1,2.379.912,3.374,3.374,0,0,1,.912,2.37,3.238,3.238,0,0,1-.912,2.352,3.138,3.138,0,0,1-2.379.912H421.52v3.646h-2.133V1784.09Zm-.355,4.813a1.532,1.532,0,0,0,1.176-.4,1.506,1.506,0,0,0,.392-1.112,1.528,1.528,0,0,0-.392-1.1,1.557,1.557,0,0,0-1.176-.41h-1.823v3.026Z" transform="translate(-419.387 -1783.607)"/>
        <path id="Trazado_133586" data-name="Trazado 133586" d="M432.418,1794.808a4.705,4.705,0,0,1-2.069-.447,3.38,3.38,0,0,1-1.422-1.322,3.882,3.882,0,0,1-.52-2.042,3.648,3.648,0,0,1,1.112-2.735,4.666,4.666,0,0,1,5.807,0,4.048,4.048,0,0,1,0,5.57A4.126,4.126,0,0,1,432.418,1794.808Zm0-1.632a1.888,1.888,0,0,0,1.449-.6,2.225,2.225,0,0,0,.547-1.577,2.266,2.266,0,0,0-.547-1.586,1.913,1.913,0,0,0-1.449-.593,1.821,1.821,0,0,0-1.413.6,2.58,2.58,0,0,0,0,3.154,1.823,1.823,0,0,0,1.395.6Z" transform="translate(-420.184 -1783.887)"/>
        <path id="Trazado_133587" data-name="Trazado 133587" d="M441.408,1794.8a4.172,4.172,0,0,1-2.142-.511,2.188,2.188,0,0,1-1.039-1.531l1.714-.483a1.377,1.377,0,0,0,1.468,1.094,1.443,1.443,0,0,0,.747-.173.575.575,0,0,0,.292-.565.631.631,0,0,0-.119-.374,1.114,1.114,0,0,0-.374-.273l-.5-.192-.656-.191a6.948,6.948,0,0,1-.675-.21,4.044,4.044,0,0,1-.647-.274,2.47,2.47,0,0,1-.529-.374,1.524,1.524,0,0,1-.4-.574,2.116,2.116,0,0,1-.137-.784,1.877,1.877,0,0,1,.793-1.641,3.588,3.588,0,0,1,2.078-.547,3.639,3.639,0,0,1,1.914.465,2.113,2.113,0,0,1,.984,1.468l-1.6.356a1.23,1.23,0,0,0-1.3-.912,1.49,1.49,0,0,0-.711.155.538.538,0,0,0-.292.492.588.588,0,0,0,0,.219.447.447,0,0,0,.146.173l.21.137a1.4,1.4,0,0,0,.292.119,2.707,2.707,0,0,0,.319.091l.374.1.383.1c.264.073.492.137.684.21a4.332,4.332,0,0,1,.638.3,2.4,2.4,0,0,1,.547.428,2.066,2.066,0,0,1,.365.611,2.3,2.3,0,0,1,.137.811,2.247,2.247,0,0,1-.246,1.067,1.833,1.833,0,0,1-.675.711,3.247,3.247,0,0,1-.912.383A5.012,5.012,0,0,1,441.408,1794.8Z" transform="translate(-421.053 -1783.882)"/>
        <path id="Trazado_133588" data-name="Trazado 133588" d="M447.671,1785.922a1.181,1.181,0,0,1-.87-1.984l.031-.031a1.164,1.164,0,0,1,.839-.346,1.185,1.185,0,0,1,0,2.361Zm-1.048,8.414v-7.293h2.069v7.293Z" transform="translate(-421.783 -1783.561)"/>
        <path id="Trazado_133589" data-name="Trazado 133589" d="M453.9,1794.442a2.2,2.2,0,0,1-1.659-.593,2.332,2.332,0,0,1-.583-1.7V1788.7h-1.44v-1.577h.465a1.2,1.2,0,0,0,.912-.3,1.574,1.574,0,0,0,.292-1.094v-.966h1.823v2.361h1.513v1.577h-1.513v3.236c0,.638.283.911.848.911h.665v1.559Z" transform="translate(-422.113 -1783.667)"/>
        <path id="Trazado_133590" data-name="Trazado 133590" d="M458.482,1785.922a1.151,1.151,0,0,1-.839-.346,1.177,1.177,0,0,1-.005-1.664l.005,0a1.172,1.172,0,0,1,.839-.346,1.154,1.154,0,0,1,.83.346,1.176,1.176,0,0,1,.005,1.663l-.005.005A1.159,1.159,0,0,1,458.482,1785.922Zm-1.048,8.414v-7.293H459.5v7.293Z" transform="translate(-422.739 -1783.561)"/>
        <path id="Trazado_133591" data-name="Trazado 133591" d="M466.689,1787.351h2.179l-3.127,7.292h-1.823l-3.081-7.292h2.206l1.823,5Z" transform="translate(-423.052 -1783.896)"/>
        <path id="Trazado_133592" data-name="Trazado 133592" d="M473.868,1794.808a4.732,4.732,0,0,1-2.078-.447,3.38,3.38,0,0,1-1.422-1.322,3.963,3.963,0,0,1-.51-2.042,3.563,3.563,0,0,1,1.112-2.735,4.658,4.658,0,0,1,5.8,0,4.048,4.048,0,0,1,0,5.57A4.1,4.1,0,0,1,473.868,1794.808Zm0-1.632a1.824,1.824,0,0,0,1.449-.6,2.2,2.2,0,0,0,.556-1.577,2.233,2.233,0,0,0-.556-1.586,1.885,1.885,0,0,0-1.449-.583,1.823,1.823,0,0,0-1.4.6,2.544,2.544,0,0,0,0,3.154A1.824,1.824,0,0,0,473.868,1793.176Z" transform="translate(-423.85 -1783.887)"/>
      </g>
      <g id="Grupo_63663" data-name="Grupo 63663" transform="translate(148.609 136.937)">
        <path id="Trazado_133593" data-name="Trazado 133593" d="M544.837,1828.228V1818.2h1.294v10.027Z" transform="translate(-544.13 -1817.289)"/>
        <path id="Trazado_133594" data-name="Trazado 133594" d="M552.645,1821.371a2.448,2.448,0,0,1,1.759.638,2.369,2.369,0,0,1,.656,1.823v4.713h-1.24v-4.43a1.675,1.675,0,0,0-.428-1.258,1.5,1.5,0,0,0-1.094-.41,1.708,1.708,0,0,0-1.249.483,2,2,0,0,0-.492,1.431v4.184h-1.231v-7h1.231v.911A2.332,2.332,0,0,1,552.645,1821.371Z" transform="translate(-544.527 -1817.569)"/>
        <path id="Trazado_133595" data-name="Trazado 133595" d="M561.575,1821a2.323,2.323,0,0,1,1.732.656,2.469,2.469,0,0,1,.647,1.823v4.631h-1.231v-4.366a1.723,1.723,0,0,0-.428-1.285,1.52,1.52,0,0,0-1.1-.419,1.668,1.668,0,0,0-1.231.483,1.939,1.939,0,0,0-.5,1.431v4.184h-1.2V1817.2h1.231v4.868a2.285,2.285,0,0,1,.912-.784A2.718,2.718,0,0,1,561.575,1821Z" transform="translate(-545.317 -1817.201)"/>
        <path id="Trazado_133596" data-name="Trazado 133596" d="M567.717,1819.56a.8.8,0,0,1-.583-.246.815.815,0,0,1-.246-.593.79.79,0,0,1,.246-.583.837.837,0,0,1,1.167,0,.79.79,0,0,1,.246.583.815.815,0,0,1-.246.593A.8.8,0,0,1,567.717,1819.56Zm-.629,8.642v-7h1.24v7Z" transform="translate(-546.08 -1817.263)"/>
        <path id="Trazado_133597" data-name="Trazado 133597" d="M574.9,1821a3.041,3.041,0,0,1,2.315,1.012,3.643,3.643,0,0,1,.912,2.635,3.722,3.722,0,0,1-.912,2.634,3.053,3.053,0,0,1-2.325,1.012,2.741,2.741,0,0,1-1.486-.41,2.552,2.552,0,0,1-1-1.1v1.358h-1.149V1817.2h1.231v5.269a2.582,2.582,0,0,1,1-1.076A2.793,2.793,0,0,1,574.9,1821Zm-.264,6.217a2.135,2.135,0,0,0,1.632-.711,2.6,2.6,0,0,0,.665-1.823,2.633,2.633,0,0,0-.665-1.823,2.128,2.128,0,0,0-1.632-.711,2.075,2.075,0,0,0-1.623.738,2.624,2.624,0,0,0-.666,1.823,2.681,2.681,0,0,0,.656,1.823,2.091,2.091,0,0,0,1.659.684Z" transform="translate(-546.467 -1817.201)"/>
        <path id="Trazado_133598" data-name="Trazado 133598" d="M581.6,1819.56a.8.8,0,0,1-.583-.246.815.815,0,0,1-.246-.593.79.79,0,0,1,.246-.583.837.837,0,0,1,1.167,0,.79.79,0,0,1,.246.583.815.815,0,0,1-.246.593A.8.8,0,0,1,581.6,1819.56Zm-.62,8.642v-7h1.24v7Z" transform="translate(-547.308 -1817.263)"/>
        <path id="Trazado_133599" data-name="Trazado 133599" d="M587.918,1828.636a3.36,3.36,0,0,1-2.507-1,3.993,3.993,0,0,1,0-5.251,3.352,3.352,0,0,1,2.507-1.012,3.391,3.391,0,0,1,2.033.62,3.122,3.122,0,0,1,1.176,1.7l-1.158.191a2.074,2.074,0,0,0-.784-1.094,2.159,2.159,0,0,0-1.267-.383,2.049,2.049,0,0,0-1.623.72,3.109,3.109,0,0,0,0,3.774,2.082,2.082,0,0,0,1.623.711,2.172,2.172,0,0,0,1.267-.383,2.082,2.082,0,0,0,.784-1.094l1.158.192a3.122,3.122,0,0,1-1.185,1.7A3.393,3.393,0,0,1,587.918,1828.636Z" transform="translate(-547.631 -1817.57)"/>
        <path id="Trazado_133600" data-name="Trazado 133600" d="M594.406,1819.56a.839.839,0,0,1-.839-.839h0a.79.79,0,0,1,.246-.583.847.847,0,0,1,1.176,0,.79.79,0,0,1,.246.583.839.839,0,0,1-.83.839Zm-.629,8.642v-7h1.24v7Z" transform="translate(-548.439 -1817.263)"/>
        <path id="Trazado_133601" data-name="Trazado 133601" d="M600.8,1828.32a3.652,3.652,0,0,1-1.823-.438,3.085,3.085,0,0,1-1.267-1.267,3.914,3.914,0,0,1-.465-1.932,3.574,3.574,0,0,1,.994-2.643,3.727,3.727,0,0,1,5.068,0,3.645,3.645,0,0,1,.984,2.643,3.568,3.568,0,0,1-.994,2.644A3.4,3.4,0,0,1,600.8,1828.32Zm0-1.021a2.155,2.155,0,0,0,1.65-.72,2.669,2.669,0,0,0,.665-1.9,2.635,2.635,0,0,0-.665-1.887,2.122,2.122,0,0,0-1.65-.72,2.086,2.086,0,0,0-1.641.72,2.667,2.667,0,0,0-.656,1.887,2.735,2.735,0,0,0,.656,1.9,2.125,2.125,0,0,0,1.632.72Zm-.465-7.293,1.823-2.315.656.474-1.6,1.823Z" transform="translate(-548.764 -1817.244)"/>
        <path id="Trazado_133602" data-name="Trazado 133602" d="M610.427,1821.371a2.46,2.46,0,0,1,1.768.638,2.369,2.369,0,0,1,.656,1.823v4.713h-1.231v-4.43a1.675,1.675,0,0,0-.428-1.258,1.5,1.5,0,0,0-1.094-.41,1.692,1.692,0,0,0-1.249.483,2,2,0,0,0-.492,1.431v4.184h-1.231v-7h1.231v.911A2.332,2.332,0,0,1,610.427,1821.371Z" transform="translate(-549.639 -1817.57)"/>
        <path id="Trazado_133603" data-name="Trazado 133603" d="M549.062,1847.551a5.38,5.38,0,0,1-1.969-.356,4.93,4.93,0,0,1-1.586-1.012,4.558,4.558,0,0,1-1.057-1.632,6.163,6.163,0,0,1,0-4.3,4.6,4.6,0,0,1,1.048-1.632,4.774,4.774,0,0,1,1.586-1.012,5.536,5.536,0,0,1,3.929,0,4.54,4.54,0,0,1,2.634,2.635,5.81,5.81,0,0,1,.383,2.142,5.909,5.909,0,0,1-.383,2.16,4.646,4.646,0,0,1-1.057,1.632,4.883,4.883,0,0,1-1.577,1.012A5.368,5.368,0,0,1,549.062,1847.551Zm0-1.2a3.647,3.647,0,0,0,2.653-1.057,3.911,3.911,0,0,0,1.048-2.9,4.556,4.556,0,0,0-.283-1.659,3.355,3.355,0,0,0-.793-1.24,3.453,3.453,0,0,0-1.176-.757,3.962,3.962,0,0,0-1.449-.264,4.01,4.01,0,0,0-1.458.264,3.406,3.406,0,0,0-1.185.757,3.356,3.356,0,0,0-.793,1.24,4.574,4.574,0,0,0-.283,1.659,4.727,4.727,0,0,0,.283,1.686,3.424,3.424,0,0,0,.793,1.249,3.575,3.575,0,0,0,1.185.757A4.044,4.044,0,0,0,549.062,1846.348Z" transform="translate(-544.062 -1818.974)"/>
        <path id="Trazado_133604" data-name="Trazado 133604" d="M561.042,1840.571a3.1,3.1,0,0,1,1.267.264,3.049,3.049,0,0,1,1.039.711,3.322,3.322,0,0,1,.7,1.158,4.281,4.281,0,0,1,.264,1.513,3.728,3.728,0,0,1-.912,2.643,3.074,3.074,0,0,1-2.325,1,2.74,2.74,0,0,1-1.458-.4,2.651,2.651,0,0,1-1-1.076v4.849h-1.231v-10.529h1.185v1.367a2.513,2.513,0,0,1,1-1.094A2.726,2.726,0,0,1,561.042,1840.571Zm-.237,6.217a2.107,2.107,0,0,0,1.613-.7,2.952,2.952,0,0,0,0-3.737,2.1,2.1,0,0,0-1.613-.7,2.16,2.16,0,0,0-1.65.729,2.881,2.881,0,0,0,0,3.646A2.126,2.126,0,0,0,560.805,1846.788Z" transform="translate(-545.24 -1819.268)"/>
        <path id="Trazado_133605" data-name="Trazado 133605" d="M568.324,1841.947a2.1,2.1,0,0,1,.912-.912,2.585,2.585,0,0,1,1.34-.365v1.158a2.291,2.291,0,0,0-1.623.52,2.172,2.172,0,0,0-.565,1.659v3.738h-1.231v-7h1.2Z" transform="translate(-546.104 -1819.276)"/>
        <path id="Trazado_133606" data-name="Trazado 133606" d="M578.433,1844.076v.337h-5.469a2.453,2.453,0,0,0,.665,1.823,2.192,2.192,0,0,0,1.6.629,2.127,2.127,0,0,0,1.158-.337,2.167,2.167,0,0,0,.8-.911l1.112.237a3.225,3.225,0,0,1-1.194,1.5,3.28,3.28,0,0,1-1.823.547,3.4,3.4,0,0,1-2.525-.975,4.166,4.166,0,0,1,0-5.324,3.335,3.335,0,0,1,2.479-.975,3.152,3.152,0,0,1,2.352.912A3.546,3.546,0,0,1,578.433,1844.076Zm-3.236-2.552a2.15,2.15,0,0,0-1.458.5,2.269,2.269,0,0,0-.738,1.44h4.193a2.051,2.051,0,0,0-.611-1.44,1.931,1.931,0,0,0-1.386-.5Z" transform="translate(-546.514 -1819.273)"/>
        <path id="Trazado_133607" data-name="Trazado 133607" d="M583.356,1847.847a3.312,3.312,0,0,1-1.887-.5,2.109,2.109,0,0,1-.912-1.44l1.076-.31a1.478,1.478,0,0,0,.574.975,1.894,1.894,0,0,0,1.149.346,2.6,2.6,0,0,0,.675-.091,1.171,1.171,0,0,0,.52-.346.914.914,0,0,0,.2-.638.755.755,0,0,0-.055-.292,1.735,1.735,0,0,0-.109-.228.575.575,0,0,0-.2-.191,2.033,2.033,0,0,0-.246-.155,1.955,1.955,0,0,0-.319-.128l-.337-.119-.392-.109-.4-.119a7.285,7.285,0,0,1-.729-.255,3.365,3.365,0,0,1-.593-.337,1.366,1.366,0,0,1-.456-.556,1.873,1.873,0,0,1-.155-.784,1.821,1.821,0,0,1,.346-1.112,1.891,1.891,0,0,1,.912-.665,3.479,3.479,0,0,1,1.24-.2,3.055,3.055,0,0,1,1.7.456,1.948,1.948,0,0,1,.857,1.367l-1.012.255a1.336,1.336,0,0,0-.538-.912,1.668,1.668,0,0,0-1-.3,1.709,1.709,0,0,0-.912.246.829.829,0,0,0-.392.757.786.786,0,0,0,.1.383,1.224,1.224,0,0,0,.21.273,1.377,1.377,0,0,0,.383.219l.419.146.51.128h.109c.273.064.492.128.665.182a4.816,4.816,0,0,1,.611.255,2.19,2.19,0,0,1,.547.383,1.738,1.738,0,0,1,.337.547,1.814,1.814,0,0,1,.146.747,2.106,2.106,0,0,1-.21.911,1.83,1.83,0,0,1-.574.647,2.74,2.74,0,0,1-.82.346A3.725,3.725,0,0,1,583.356,1847.847Z" transform="translate(-547.289 -1819.269)"/>
        <path id="Trazado_133608" data-name="Trazado 133608" d="M589.177,1838.76a.8.8,0,0,1-.583-.246.816.816,0,0,1-.246-.593.791.791,0,0,1,.246-.583.819.819,0,0,1,.583-.237.835.835,0,0,1,.583.237.791.791,0,0,1,.246.583A.839.839,0,0,1,589.177,1838.76Zm-.629,8.642v-7h1.24v7Z" transform="translate(-547.978 -1818.961)"/>
        <path id="Trazado_133609" data-name="Trazado 133609" d="M596.952,1840.721h1.322l-2.853,7h-1.048l-2.835-7h1.313l2.051,5.57Z" transform="translate(-548.26 -1819.281)"/>
        <path id="Trazado_133610" data-name="Trazado 133610" d="M603.112,1847.845a3.653,3.653,0,0,1-1.823-.437,3.141,3.141,0,0,1-1.267-1.267,3.914,3.914,0,0,1-.465-1.933,3.574,3.574,0,0,1,.994-2.644,3.727,3.727,0,0,1,5.068,0,4.037,4.037,0,0,1,0,5.287A3.441,3.441,0,0,1,603.112,1847.845Zm0-1.021a2.191,2.191,0,0,0,1.659-.72,2.736,2.736,0,0,0,.656-1.9,2.666,2.666,0,0,0-.656-1.887,2.15,2.15,0,0,0-1.659-.72,2.113,2.113,0,0,0-1.641.72,2.667,2.667,0,0,0-.656,1.887,2.736,2.736,0,0,0,.656,1.9,2.151,2.151,0,0,0,1.632.72Z" transform="translate(-548.969 -1819.268)"/>
        <path id="Trazado_133611" data-name="Trazado 133611" d="M544.487,1866.54V1855.6h1.249v10.939Z" transform="translate(-544.099 -1820.597)"/>
        <path id="Trazado_133612" data-name="Trazado 133612" d="M549.177,1857.96a.8.8,0,0,1-.583-.246.815.815,0,0,1-.246-.592.791.791,0,0,1,.246-.583.838.838,0,0,1,1.167,0,.79.79,0,0,1,.246.583.815.815,0,0,1-.246.592A.8.8,0,0,1,549.177,1857.96Zm-.62,8.642v-7h1.24v7Z" transform="translate(-544.441 -1820.659)"/>
        <path id="Trazado_133613" data-name="Trazado 133613" d="M557.7,1859.908H558.9v6.646a3.8,3.8,0,0,1-.912,2.735,3.766,3.766,0,0,1-5.907-1.185l1.021-.5a2.317,2.317,0,0,0,2.343,1.623,2,2,0,0,0,1.641-.684,2.946,2.946,0,0,0,.565-1.914v-1.295a2.476,2.476,0,0,1-.994,1.012,3.082,3.082,0,0,1-3.728-.611,3.481,3.481,0,0,1-.912-2.489,3.408,3.408,0,0,1,.912-2.479,2.994,2.994,0,0,1,2.27-.984,2.86,2.86,0,0,1,1.468.392,2.522,2.522,0,0,1,.994,1.039Zm-2.224,5.752a2.141,2.141,0,0,0,1.613-.711,2.544,2.544,0,0,0,0-3.427,2.084,2.084,0,0,0-1.613-.72,2.122,2.122,0,0,0-1.614.693,2.46,2.46,0,0,0-.656,1.741,2.425,2.425,0,0,0,.665,1.732,2.135,2.135,0,0,0,1.623.693Z" transform="translate(-544.765 -1820.966)"/>
        <path id="Trazado_133614" data-name="Trazado 133614" d="M568.413,1863.276v.337h-5.469a2.454,2.454,0,0,0,.675,1.823,2.193,2.193,0,0,0,1.6.629,2.13,2.13,0,0,0,1.158-.337,2.235,2.235,0,0,0,.8-.912l1.112.237a3.175,3.175,0,0,1-1.2,1.5,3.285,3.285,0,0,1-1.823.547,3.385,3.385,0,0,1-2.516-.975,4.149,4.149,0,0,1,0-5.323,3.363,3.363,0,0,1,2.479-.975,3.159,3.159,0,0,1,2.361.911A3.537,3.537,0,0,1,568.413,1863.276Zm-3.245-2.552a2.135,2.135,0,0,0-1.449.5,2.27,2.27,0,0,0-.738,1.44h4.193a2.084,2.084,0,0,0-.611-1.44A1.967,1.967,0,0,0,565.168,1860.724Z" transform="translate(-545.628 -1820.97)"/>
        <path id="Trazado_133615" data-name="Trazado 133615" d="M572.38,1861.147a2.127,2.127,0,0,1,.866-.911,2.592,2.592,0,0,1,1.349-.365v1.158a2.322,2.322,0,0,0-1.632.52,2.168,2.168,0,0,0-.556,1.659v3.737h-1.231v-7h1.2Z" transform="translate(-546.46 -1820.974)"/>
        <path id="Trazado_133616" data-name="Trazado 133616" d="M582.493,1863.275v.337h-5.469a2.454,2.454,0,0,0,.675,1.823,2.173,2.173,0,0,0,1.6.629,2.117,2.117,0,0,0,1.951-1.267l1.112.237a3.113,3.113,0,0,1-1.194,1.5,3.282,3.282,0,0,1-1.823.547,3.385,3.385,0,0,1-2.516-.975,4.148,4.148,0,0,1,0-5.324,3.351,3.351,0,0,1,2.479-.975,3.124,3.124,0,0,1,2.352.912A3.535,3.535,0,0,1,582.493,1863.275Zm-3.245-2.552a2.12,2.12,0,0,0-1.449.5,2.27,2.27,0,0,0-.738,1.44h4.193a2.084,2.084,0,0,0-.611-1.44A1.967,1.967,0,0,0,579.248,1860.722Z" transform="translate(-546.873 -1820.969)"/>
        <path id="Trazado_133617" data-name="Trazado 133617" d="M585.907,1865.928h3.728v.994h-5.579l3.692-6h-3.51v-1h5.369Z" transform="translate(-547.599 -1820.979)"/>
        <path id="Trazado_133618" data-name="Trazado 133618" d="M593.35,1867.047a2.393,2.393,0,0,1-1.531-.483,1.715,1.715,0,0,1-.6-1.431,2.07,2.07,0,0,1,.191-.912,1.62,1.62,0,0,1,.565-.629,3.376,3.376,0,0,1,.82-.4,9.141,9.141,0,0,1,1.067-.255l1.13-.182c.419-.073.62-.292.62-.647a1.212,1.212,0,0,0-.437-1.039,1.729,1.729,0,0,0-1.1-.337,1.819,1.819,0,0,0-1.094.319,1.357,1.357,0,0,0-.529.984l-1.1-.246a2.123,2.123,0,0,1,.912-1.5,3.224,3.224,0,0,1,1.905-.5,3.823,3.823,0,0,1,1.012.128,2.557,2.557,0,0,1,.848.392,1.718,1.718,0,0,1,.611.748,2.814,2.814,0,0,1,.219,1.158v2.89a1.187,1.187,0,0,0,.155.729.693.693,0,0,0,.556.191h.073v.912h-.611a1.158,1.158,0,0,1-1.322-.912h-.064A2.672,2.672,0,0,1,593.35,1867.047Zm.283-.994a1.87,1.87,0,0,0,1.5-.684,2.739,2.739,0,0,0,.574-1.823l-1.823.356a2.48,2.48,0,0,0-1.085.392,1.029,1.029,0,0,0-.009,1.531,1.393,1.393,0,0,0,.839.228Z" transform="translate(-548.231 -1820.967)"/>
        <path id="Trazado_133619" data-name="Trazado 133619" d="M544.837,1885.828V1875.8h3.236a4.836,4.836,0,0,1,2.552.647,4.033,4.033,0,0,1,1.568,1.768,6.177,6.177,0,0,1,.51,2.589,6.485,6.485,0,0,1-.3,2.033,4.471,4.471,0,0,1-.866,1.586,3.738,3.738,0,0,1-1.459,1.039,5.168,5.168,0,0,1-2.005.365Zm1.276-1.158h1.914a3.076,3.076,0,0,0,2.507-1.03,4.358,4.358,0,0,0,.839-2.835,4.291,4.291,0,0,0-.848-2.817,3.043,3.043,0,0,0-2.5-1.021h-1.9Z" transform="translate(-544.13 -1822.383)"/>
        <path id="Trazado_133620" data-name="Trazado 133620" d="M561.9,1882.471v.337h-5.469a2.454,2.454,0,0,0,.665,1.823,2.192,2.192,0,0,0,1.6.629,2.126,2.126,0,0,0,1.158-.337,2.168,2.168,0,0,0,.8-.911l1.112.237a3.175,3.175,0,0,1-1.2,1.5,3.234,3.234,0,0,1-1.823.547,3.4,3.4,0,0,1-2.571-1.03,4.184,4.184,0,0,1,0-5.324,3.37,3.37,0,0,1,2.489-.975,3.152,3.152,0,0,1,2.352.911A3.535,3.535,0,0,1,561.9,1882.471Zm-3.236-2.552a2.149,2.149,0,0,0-1.459.5,2.269,2.269,0,0,0-.738,1.44h4.193a2.051,2.051,0,0,0-.611-1.44,1.949,1.949,0,0,0-1.386-.529Z" transform="translate(-545.047 -1822.663)"/>
        <path id="Trazado_133621" data-name="Trazado 133621" d="M568.377,1878.611a3.041,3.041,0,0,1,2.3,1,3.71,3.71,0,0,1,.912,2.634,3.754,3.754,0,0,1-.912,2.634,3.053,3.053,0,0,1-2.325,1.012,2.789,2.789,0,0,1-1.495-.41,2.61,2.61,0,0,1-1-1.1v1.358h-1.185V1874.8h1.221v5.278a2.581,2.581,0,0,1,1-1.076A2.793,2.793,0,0,1,568.377,1878.611Zm-.273,6.217a2.152,2.152,0,0,0,1.659-.748,2.945,2.945,0,0,0,0-3.728,2.148,2.148,0,0,0-1.641-.711,2.1,2.1,0,0,0-1.623.738,2.881,2.881,0,0,0,0,3.646,2.107,2.107,0,0,0,1.6.793Z" transform="translate(-545.884 -1822.294)"/>
        <path id="Trazado_133622" data-name="Trazado 133622" d="M575.047,1877.16a.776.776,0,0,1-.583-.246.816.816,0,0,1-.246-.593.825.825,0,0,1,.83-.82.835.835,0,0,1,.583.237.791.791,0,0,1,.246.583A.839.839,0,0,1,575.047,1877.16Zm-.629,8.642v-7h1.24v7Z" transform="translate(-546.728 -1822.356)"/>
        <path id="Trazado_133623" data-name="Trazado 133623" d="M578.547,1885.74V1874.8H579.8v10.939Z" transform="translate(-547.111 -1822.294)"/>
        <path id="Trazado_133624" data-name="Trazado 133624" d="M583.276,1877.16a.839.839,0,0,1-.839-.839h0a.791.791,0,0,1,.246-.583.837.837,0,0,1,.593-.237.808.808,0,0,1,.574.237.791.791,0,0,1,.246.583.815.815,0,0,1-.246.593A.788.788,0,0,1,583.276,1877.16Zm-.629,8.642v-7h1.24v7Z" transform="translate(-547.455 -1822.356)"/>
        <path id="Trazado_133625" data-name="Trazado 133625" d="M591.894,1874.8h1.231v10.939H591.94v-1.358a2.61,2.61,0,0,1-1,1.1,2.74,2.74,0,0,1-1.477.41,3.222,3.222,0,0,1-2.3-.994,3.417,3.417,0,0,1-.7-1.158,4.187,4.187,0,0,1-.264-1.495,3.646,3.646,0,0,1,.957-2.634,3.053,3.053,0,0,1,2.325-1.012,2.724,2.724,0,0,1,1.458.4,2.616,2.616,0,0,1,1,1.067Zm-2.206,10.027a2.109,2.109,0,0,0,1.623-.729,2.881,2.881,0,0,0,0-3.646,2.1,2.1,0,0,0-1.623-.738,2.148,2.148,0,0,0-1.641.711,2.945,2.945,0,0,0,0,3.728,2.153,2.153,0,0,0,1.641.665Z" transform="translate(-547.787 -1822.294)"/>
        <path id="Trazado_133626" data-name="Trazado 133626" d="M598.11,1886.277a2.392,2.392,0,0,1-1.531-.483,1.716,1.716,0,0,1-.6-1.431,2,2,0,0,1,.191-.911,1.545,1.545,0,0,1,.574-.638,3.1,3.1,0,0,1,.82-.4,8.2,8.2,0,0,1,1.067-.255l1.13-.182c.41-.073.62-.292.62-.647a1.212,1.212,0,0,0-.437-1.039,1.756,1.756,0,0,0-1.112-.337,1.819,1.819,0,0,0-1.094.319,1.371,1.371,0,0,0-.52.984l-1.112-.237a2.185,2.185,0,0,1,.912-1.495,3.277,3.277,0,0,1,1.914-.5,3.916,3.916,0,0,1,1.012.128,2.559,2.559,0,0,1,.848.392,1.769,1.769,0,0,1,.6.748,2.815,2.815,0,0,1,.219,1.158v2.89a1.176,1.176,0,0,0,.164.729.679.679,0,0,0,.547.191h.119v.912h-.611c-.757,0-1.2-.31-1.331-.912h-.055A2.681,2.681,0,0,1,598.11,1886.277Zm.292-.994a1.873,1.873,0,0,0,1.5-.684,2.809,2.809,0,0,0,.565-1.823l-1.823.355a2.433,2.433,0,0,0-1.085.392,1.02,1.02,0,0,0-.018,1.531,1.419,1.419,0,0,0,.857.2Z" transform="translate(-548.652 -1822.667)"/>
        <path id="Trazado_133627" data-name="Trazado 133627" d="M609.894,1874.8h1.231v10.939H609.94v-1.358a2.609,2.609,0,0,1-1,1.1,2.739,2.739,0,0,1-1.477.41,3.22,3.22,0,0,1-2.3-.994,3.416,3.416,0,0,1-.7-1.158,4.189,4.189,0,0,1-.264-1.495,3.646,3.646,0,0,1,.957-2.634,3.053,3.053,0,0,1,2.324-1.012,2.724,2.724,0,0,1,1.458.4,2.615,2.615,0,0,1,1,1.067Zm-2.206,10.027a2.109,2.109,0,0,0,1.623-.729,2.881,2.881,0,0,0,0-3.646,2.1,2.1,0,0,0-1.623-.738,2.148,2.148,0,0,0-1.641.711,2.945,2.945,0,0,0,0,3.728,2.153,2.153,0,0,0,1.641.665Z" transform="translate(-549.379 -1822.294)"/>
        <path id="Trazado_133628" data-name="Trazado 133628" d="M550.214,1896.166h-4.084v3.282h3.646v1.149h-3.646v3.273h4.075v1.139h-5.378v-10.027h5.378Z" transform="translate(-544.129 -1824.079)"/>
        <path id="Trazado_133629" data-name="Trazado 133629" d="M556.182,1895.041h-.52a1.089,1.089,0,0,0-.255,0l-.228.073a.507.507,0,0,0-.21.119l-.164.182a.631.631,0,0,0-.137.255,2.311,2.311,0,0,1-.082.346,3.191,3.191,0,0,0,0,.438v1.44h1.623v.984h-1.623v6.044h-1.221v-6.016h-1.358v-.984h1.358v-1.468a3.612,3.612,0,0,1,.073-.811,2.639,2.639,0,0,1,.2-.62,1.559,1.559,0,0,1,.328-.447,2.6,2.6,0,0,1,.428-.3,2.079,2.079,0,0,1,.529-.173,4.982,4.982,0,0,1,.6-.091h.684Z" transform="translate(-544.764 -1823.993)"/>
        <path id="Trazado_133630" data-name="Trazado 133630" d="M558.147,1904.96v-7h1.24v7Zm.155-8.2,1.823-2.315.647.474-1.613,1.841Z" transform="translate(-545.307 -1824.031)"/>
        <path id="Trazado_133631" data-name="Trazado 133631" d="M569.413,1898.17a2.241,2.241,0,0,1,1.632.6,2.169,2.169,0,0,1,.62,1.668v4.849h-1.2v-4.558a1.591,1.591,0,0,0-.383-1.158,1.326,1.326,0,0,0-.975-.392,1.371,1.371,0,0,0-1.067.447,1.878,1.878,0,0,0-.41,1.322v4.339h-1.249v-4.5a1.659,1.659,0,0,0-.392-1.185,1.3,1.3,0,0,0-.994-.41,1.374,1.374,0,0,0-1.067.456,1.969,1.969,0,0,0-.41,1.358v4.284h-1.258v-7h1.231v.911a2.22,2.22,0,0,1,.8-.766,2.257,2.257,0,0,1,1.121-.274,2.342,2.342,0,0,1,1.194.3,1.822,1.822,0,0,1,.775.848,2.2,2.2,0,0,1,.839-.848A2.365,2.365,0,0,1,569.413,1898.17Z" transform="translate(-545.671 -1824.36)"/>
        <path id="Trazado_133632" data-name="Trazado 133632" d="M581.273,1901.646v.337H575.8a2.454,2.454,0,0,0,.675,1.823,2.192,2.192,0,0,0,1.6.629,2.129,2.129,0,0,0,1.158-.337,2.235,2.235,0,0,0,.8-.911l1.1.237a3.113,3.113,0,0,1-1.194,1.5,3.285,3.285,0,0,1-1.823.547,3.385,3.385,0,0,1-2.516-.975,4.149,4.149,0,0,1,0-5.324,3.35,3.35,0,0,1,2.479-.975,3.16,3.16,0,0,1,2.361.912A3.551,3.551,0,0,1,581.273,1901.646Zm-3.245-2.552a2.135,2.135,0,0,0-1.449.5,2.269,2.269,0,0,0-.738,1.44h4.193a2.084,2.084,0,0,0-.611-1.44,1.965,1.965,0,0,0-1.395-.474Z" transform="translate(-546.765 -1824.363)"/>
        <path id="Trazado_133633" data-name="Trazado 133633" d="M585.24,1899.547a2.126,2.126,0,0,1,.866-.911,2.592,2.592,0,0,1,1.349-.365v1.158a2.3,2.3,0,0,0-1.632.52,2.169,2.169,0,0,0-.556,1.659v3.692h-1.231v-7h1.2Z" transform="translate(-547.597 -1824.37)"/>
        <path id="Trazado_133634" data-name="Trazado 133634" d="M592.163,1905.445a3.65,3.65,0,0,1-1.823-.437,3.117,3.117,0,0,1-1.258-1.267,3.914,3.914,0,0,1-.465-1.932,3.575,3.575,0,0,1,.994-2.644,3.72,3.72,0,0,1,5.059,0,4.01,4.01,0,0,1,0,5.287A3.425,3.425,0,0,1,592.163,1905.445Zm0-1.021a2.171,2.171,0,0,0,1.659-.72,2.736,2.736,0,0,0,.656-1.9,2.668,2.668,0,0,0-.656-1.887,2.14,2.14,0,0,0-1.659-.72,2.114,2.114,0,0,0-1.641.72,3.088,3.088,0,0,0,0,3.783,2.154,2.154,0,0,0,1.632.72Z" transform="translate(-548.001 -1824.361)"/>
      </g>
      <g id="Grupo_63664" data-name="Grupo 63664" transform="translate(149.042 106.271)">
        <path id="Trazado_133635" data-name="Trazado 133635" d="M551.574,1784.091H553.7v10.292h-2.47l-4.558-7.356v7.356h-2.133v-10.292h2.479l4.558,7.293Z" transform="translate(-544.537 -1783.608)"/>
        <path id="Trazado_133636" data-name="Trazado 133636" d="M564.02,1790.889v.492H558.55a1.879,1.879,0,0,0,.583,1.34,1.987,1.987,0,0,0,2.252.21,1.6,1.6,0,0,0,.62-.738l1.878.273a3.2,3.2,0,0,1-1.285,1.723,3.788,3.788,0,0,1-2.16.611,3.961,3.961,0,0,1-2.853-1.012,3.65,3.65,0,0,1-1.057-2.79,3.727,3.727,0,0,1,1.057-2.8,3.854,3.854,0,0,1,2.789-1.021,3.344,3.344,0,0,1,3.646,3.71Zm-3.646-2.261a1.622,1.622,0,0,0-1.778,1.413h3.364a1.541,1.541,0,0,0-.51-1.048,1.61,1.61,0,0,0-1.039-.365Z" transform="translate(-545.597 -1783.88)"/>
        <path id="Trazado_133637" data-name="Trazado 133637" d="M571.443,1787.335h1.951v6.773a5.479,5.479,0,0,1-.273,1.823,2.95,2.95,0,0,1-.793,1.249,3.33,3.33,0,0,1-1.221.7,5.053,5.053,0,0,1-1.6.228q-2.9,0-3.774-2.27l1.7-.729a2.471,2.471,0,0,0,.784,1.067,2.022,2.022,0,0,0,1.2.337c1.267,0,1.905-.748,1.905-2.252v-.884a2.311,2.311,0,0,1-.912.72,3.1,3.1,0,0,1-1.3.273,3.276,3.276,0,0,1-1.285-.255,3.436,3.436,0,0,1-1.067-.729,3.471,3.471,0,0,1-.72-1.148,4.314,4.314,0,0,1,0-2.972,3.258,3.258,0,0,1,.729-1.13,3.028,3.028,0,0,1,1.067-.711,3.268,3.268,0,0,1,1.294-.255,3.005,3.005,0,0,1,1.358.3,2.1,2.1,0,0,1,.912.8Zm-3.145,4.841a1.774,1.774,0,0,0,1.34.565,1.825,1.825,0,0,0,1.349-.565,2.052,2.052,0,0,0,0-2.79,1.9,1.9,0,0,0-2.694-.041l-.041.041a1.951,1.951,0,0,0-.538,1.4,1.916,1.916,0,0,0,.583,1.386Z" transform="translate(-546.412 -1783.88)"/>
        <path id="Trazado_133638" data-name="Trazado 133638" d="M582.424,1792.673a6.816,6.816,0,0,0,.173,1.823v.2h-1.914l-.164-.793a2.373,2.373,0,0,1-1.021.7,3.853,3.853,0,0,1-1.322.237,3.254,3.254,0,0,1-.684-.064,2.528,2.528,0,0,1-.62-.219,1.842,1.842,0,0,1-.51-.383,1.546,1.546,0,0,1-.337-.574,2.551,2.551,0,0,1,0-1.6,1.98,1.98,0,0,1,.355-.593,2.467,2.467,0,0,1,.583-.438,4.5,4.5,0,0,1,.72-.31,8.266,8.266,0,0,1,.912-.228l1.2-.273a1.3,1.3,0,0,0,.547-.228.485.485,0,0,0,.155-.365.773.773,0,0,0-.356-.711,1.814,1.814,0,0,0-.912-.21,1.258,1.258,0,0,0-1.425,1.066c0,.018,0,.036-.006.056l-1.823-.328a2.463,2.463,0,0,1,1.057-1.677,4.235,4.235,0,0,1,2.3-.529q3.081,0,3.081,2.635Zm-3.646.747a1.653,1.653,0,0,0,1.267-.538,2.216,2.216,0,0,0,.492-1.568l-1.741.492a1.936,1.936,0,0,0-.729.3.619.619,0,0,0-.255.529.676.676,0,0,0,.273.574,1.123,1.123,0,0,0,.729.173Z" transform="translate(-547.31 -1783.886)"/>
        <path id="Trazado_133639" data-name="Trazado 133639" d="M587.771,1794.442a2.182,2.182,0,0,1-1.65-.593,2.3,2.3,0,0,1-.583-1.7V1788.7H584.1v-1.577h.465a1.238,1.238,0,0,0,.912-.3,1.624,1.624,0,0,0,.292-1.094v-.966h1.823v2.361h1.5v1.577h-1.477v3.236c0,.638.283.911.848.911h.656v1.559Z" transform="translate(-548.035 -1783.667)"/>
        <path id="Trazado_133640" data-name="Trazado 133640" d="M592.382,1785.922a1.18,1.18,0,0,1-.839-.346,1.148,1.148,0,0,1-.346-.839,1.119,1.119,0,0,1,.355-.829,1.166,1.166,0,0,1,1.65-.009l.009.009a1.176,1.176,0,0,1,.005,1.663l-.005.005A1.139,1.139,0,0,1,592.382,1785.922Zm-1.039,8.414v-7.293h2.06v7.293Z" transform="translate(-548.663 -1783.561)"/>
        <path id="Trazado_133641" data-name="Trazado 133641" d="M600.609,1787.351h2.17l-3.118,7.292h-1.823l-3.081-7.292h2.16l1.823,5Z" transform="translate(-548.978 -1783.896)"/>
        <path id="Trazado_133642" data-name="Trazado 133642" d="M607.768,1794.808a4.705,4.705,0,0,1-2.069-.447,3.38,3.38,0,0,1-1.422-1.322,3.881,3.881,0,0,1-.52-2.042,3.648,3.648,0,0,1,1.112-2.735,4.666,4.666,0,0,1,5.807,0,4.048,4.048,0,0,1,0,5.57A4.125,4.125,0,0,1,607.768,1794.808Zm0-1.632a1.888,1.888,0,0,0,1.449-.6,2.225,2.225,0,0,0,.547-1.577,2.267,2.267,0,0,0-.547-1.586,1.913,1.913,0,0,0-1.449-.593,1.821,1.821,0,0,0-1.413.6,2.58,2.58,0,0,0,0,3.154,1.823,1.823,0,0,0,1.395.6Z" transform="translate(-549.774 -1783.887)"/>
      </g>
    </g>
  </g>
</svg>
