<svg xmlns="http://www.w3.org/2000/svg" width="293.194" height="372.576" viewBox="0 0 293.194 372.576">
  <g id="Grupo_63714" data-name="Grupo 63714" transform="translate(-360.057 -2482.785)">
    <rect id="Rect치ngulo_8033" data-name="Rect치ngulo 8033" width="293.194" height="372.576" rx="20.609" transform="translate(360.057 2482.785)" fill="#f2f2f2"/>
    <g id="Grupo_63713" data-name="Grupo 63713" transform="translate(379.058 2533.027)">
      <rect id="Rect치ngulo_8034" data-name="Rect치ngulo 8034" width="255.194" height="272.093" fill="#f2f2f2"/>
      <g id="Grupo_63708" data-name="Grupo 63708" transform="translate(30.851 49.204)">
        <path id="Trazado_133977" data-name="Trazado 133977" d="M427.279,2618.433a13.1,13.1,0,0,1-4.845-.906,11.3,11.3,0,0,1-3.867-2.481,11.081,11.081,0,0,1-2.536-3.931,14.773,14.773,0,0,1,0-10.306,11.23,11.23,0,0,1,2.608-3.9,11.763,11.763,0,0,1,3.94-2.5,13.685,13.685,0,0,1,4.954-.906,13.3,13.3,0,0,1,6.34,1.485,10.8,10.8,0,0,1,4.374,4.229l-4.42,2.354a6.49,6.49,0,0,0-2.563-2.717,7.339,7.339,0,0,0-3.7-.906,7.064,7.064,0,0,0-5.307,2.137,8.153,8.153,0,0,0-2.056,5.9,8.379,8.379,0,0,0,2.056,5.932,7.11,7.11,0,0,0,5.488,2.219,8.2,8.2,0,0,0,2.961-.516,6.014,6.014,0,0,0,2.355-1.693,6.161,6.161,0,0,0,1.34-2.88h-6.638v-4.13H439.17V2618.1h-4v-3.36Q432.677,2618.433,427.279,2618.433Z" transform="translate(-415.103 -2592.677)"/>
        <path id="Trazado_133978" data-name="Trazado 133978" d="M451.354,2604.3a5.584,5.584,0,0,1,2.264-2.074,6.888,6.888,0,0,1,3.378-.906v4.311a6.572,6.572,0,0,0-4.13,1.069q-1.277,1.046-1.277,3.7v8.431h-4.872v-17.271h4.637Z" transform="translate(-418.085 -2593.415)"/>
        <path id="Trazado_133979" data-name="Trazado 133979" d="M463.635,2598.152a2.783,2.783,0,0,1-2.8-2.789,2.641,2.641,0,0,1,.824-1.956,2.718,2.718,0,0,1,1.974-.815,2.78,2.78,0,0,1,0,5.561Zm-2.418,19.861v-17.271h4.872v17.271Z" transform="translate(-419.418 -2592.591)"/>
        <path id="Trazado_133980" data-name="Trazado 133980" d="M478.044,2619.164a9.652,9.652,0,0,1-5.044-1.2,5.1,5.1,0,0,1-2.472-3.623l4.048-1.15a3.251,3.251,0,0,0,3.469,2.563,3.619,3.619,0,0,0,1.766-.389,1.377,1.377,0,0,0,.688-1.34,1.4,1.4,0,0,0-.281-.906,2.319,2.319,0,0,0-.906-.643c-.4-.172-.788-.326-1.177-.453s-.906-.272-1.531-.444a16.733,16.733,0,0,1-1.6-.5,11.191,11.191,0,0,1-1.522-.643,6.56,6.56,0,0,1-1.259-.906,3.736,3.736,0,0,1-.906-1.358,4.878,4.878,0,0,1-.326-1.811,4.419,4.419,0,0,1,1.875-3.867,8.4,8.4,0,0,1,4.881-1.232,8.549,8.549,0,0,1,4.528,1.1,5.026,5.026,0,0,1,2.309,3.423l-3.749.842a2.925,2.925,0,0,0-3.07-2.183,3.334,3.334,0,0,0-1.7.389,1.239,1.239,0,0,0-.67,1.141,1.346,1.346,0,0,0,.1.516,1.118,1.118,0,0,0,.353.426c.172.118.335.227.489.317a3.9,3.9,0,0,0,.688.281l.761.218.906.226.906.235c.616.163,1.159.335,1.621.5a10.339,10.339,0,0,1,1.494.706,5.212,5.212,0,0,1,1.3,1.024,4.527,4.527,0,0,1,.851,1.422,5.252,5.252,0,0,1,.335,1.929,5.147,5.147,0,0,1-.58,2.5,4.33,4.33,0,0,1-1.648,1.694,7.845,7.845,0,0,1-2.246.906A11.465,11.465,0,0,1,478.044,2619.164Z" transform="translate(-420.332 -2593.408)"/>
      </g>
      <g id="Grupo_63709" data-name="Grupo 63709" transform="translate(33.808 136.047)">
        <path id="Trazado_133981" data-name="Trazado 133981" d="M426.35,2689.481h1.259v9.962h-1.34l-5.37-8.06v8.06h-1.241v-9.962h1.322l5.37,8.024Z" transform="translate(-418.489 -2688.575)"/>
        <path id="Trazado_133982" data-name="Trazado 133982" d="M437.46,2696.132v.335h-5.434a2.437,2.437,0,0,0,.67,1.811,2.174,2.174,0,0,0,1.585.625,2.1,2.1,0,0,0,1.938-1.259l1.1.235a3.093,3.093,0,0,1-1.186,1.495,3.253,3.253,0,0,1-1.811.543,3.359,3.359,0,0,1-2.5-.969,4.121,4.121,0,0,1,0-5.289,3.333,3.333,0,0,1,2.463-.969,3.143,3.143,0,0,1,2.346.906A3.548,3.548,0,0,1,437.46,2696.132Zm-3.224-2.536a2.132,2.132,0,0,0-1.44.5,2.256,2.256,0,0,0-.734,1.431h4.166a2.072,2.072,0,0,0-.607-1.431,1.955,1.955,0,0,0-1.386-.5Z" transform="translate(-419.546 -2688.878)"/>
        <path id="Trazado_133983" data-name="Trazado 133983" d="M444.584,2692.8h1.223v6.955h-1.177v-.906a2.232,2.232,0,0,1-.86.779,2.723,2.723,0,0,1-1.223.272,2.43,2.43,0,0,1-1.748-.625,2.374,2.374,0,0,1-.652-1.811v-4.682h1.223v4.41a1.66,1.66,0,0,0,.426,1.241,1.5,1.5,0,0,0,1.1.417,1.68,1.68,0,0,0,1.232-.48,2,2,0,0,0,.489-1.422Z" transform="translate(-420.421 -2688.887)"/>
        <path id="Trazado_133984" data-name="Trazado 133984" d="M451.255,2699.517a1.811,1.811,0,0,1-1.358-.5,1.914,1.914,0,0,1-.5-1.386v-4.093h-1.422v-.978h.525a1,1,0,0,0,.77-.244,1.213,1.213,0,0,0,.226-.815v-1.241h1.132v2.318h1.6v.978h-1.6v3.949a1.033,1.033,0,0,0,.272.761.906.906,0,0,0,.7.272h.634v.978Z" transform="translate(-421.161 -2688.649)"/>
        <path id="Trazado_133985" data-name="Trazado 133985" d="M455.826,2694.019a2.09,2.09,0,0,1,.906-.906,2.57,2.57,0,0,1,1.331-.362v1.15a2.283,2.283,0,0,0-1.612.516,2.158,2.158,0,0,0-.561,1.648v3.713h-1.223v-6.955h1.2Z" transform="translate(-421.792 -2688.884)"/>
        <path id="Trazado_133986" data-name="Trazado 133986" d="M461.425,2699.88a2.4,2.4,0,0,1-1.531-.48,1.7,1.7,0,0,1-.6-1.422,1.993,1.993,0,0,1,.19-.906,1.6,1.6,0,0,1,.571-.634,3.416,3.416,0,0,1,.815-.4,7.539,7.539,0,0,1,1.06-.245l1.123-.19c.417-.072.616-.29.616-.643a1.2,1.2,0,0,0-.435-1.032,1.72,1.72,0,0,0-1.1-.335,1.865,1.865,0,0,0-1.1.317,1.365,1.365,0,0,0-.516.978l-1.1-.227a2.154,2.154,0,0,1,.906-1.494,3.2,3.2,0,0,1,1.893-.5,3.814,3.814,0,0,1,1.005.127,2.541,2.541,0,0,1,.842.389,1.713,1.713,0,0,1,.607.743,2.974,2.974,0,0,1,.208,1.15v2.871a1.169,1.169,0,0,0,.163.725.689.689,0,0,0,.552.19h.109v.906H465.1a1.15,1.15,0,0,1-1.313-.906h-.063A2.638,2.638,0,0,1,461.425,2699.88Zm.281-.987a1.855,1.855,0,0,0,1.494-.679,2.72,2.72,0,0,0,.562-1.811l-1.811.353a2.466,2.466,0,0,0-1.078.389,1,1,0,0,0-.009,1.521A1.36,1.36,0,0,0,461.706,2698.892Z" transform="translate(-422.228 -2688.876)"/>
        <path id="Trazado_133987" data-name="Trazado 133987" d="M468.257,2699.349v-10.868h1.232v10.868Z" transform="translate(-423.074 -2688.481)"/>
        <path id="Trazado_133988" data-name="Trazado 133988" d="M423.424,2708.681a2.886,2.886,0,0,1,1.558.417,2.8,2.8,0,0,1,1.051,1.1,3.238,3.238,0,0,1,.362,1.54,3,3,0,0,1-.824,2.164,2.836,2.836,0,0,1-2.146.906h-2.509v3.867h-1.259v-9.962Zm-.181,4.99a1.812,1.812,0,0,0,1.386-.534,2.24,2.24,0,0,0,0-2.817,1.809,1.809,0,0,0-1.386-.543h-2.328v3.894Z" transform="translate(-418.489 -2690.387)"/>
        <path id="Trazado_133989" data-name="Trazado 133989" d="M430.4,2713.219a2.15,2.15,0,0,1,.906-.906,2.568,2.568,0,0,1,1.331-.362v1.15a2.283,2.283,0,0,0-1.612.516,2.158,2.158,0,0,0-.562,1.648v3.713h-1.223v-6.955h1.2Z" transform="translate(-419.393 -2690.696)"/>
        <path id="Trazado_133990" data-name="Trazado 133990" d="M436.035,2719.08a2.348,2.348,0,0,1-1.531-.48,1.7,1.7,0,0,1-.6-1.422,1.88,1.88,0,0,1,.2-.906,1.508,1.508,0,0,1,.561-.634,3.417,3.417,0,0,1,.815-.4,7.537,7.537,0,0,1,1.06-.245l1.123-.19c.417-.073.616-.29.616-.643a1.2,1.2,0,0,0-.435-1.032,1.718,1.718,0,0,0-1.1-.335,1.863,1.863,0,0,0-1.1.317,1.365,1.365,0,0,0-.516.978l-1.1-.227a2.154,2.154,0,0,1,.906-1.494,3.2,3.2,0,0,1,1.893-.5,3.8,3.8,0,0,1,1.005.127,2.542,2.542,0,0,1,.842.389,1.713,1.713,0,0,1,.607.743,2.81,2.81,0,0,1,.208,1.15v2.871a1.169,1.169,0,0,0,.163.725.688.688,0,0,0,.552.19h.109v.906h-.661a1.15,1.15,0,0,1-1.313-.906h-.063A2.634,2.634,0,0,1,436.035,2719.08Zm.281-.987a1.855,1.855,0,0,0,1.494-.679,2.72,2.72,0,0,0,.561-1.811l-1.811.353a2.466,2.466,0,0,0-1.078.389,1,1,0,0,0-.009,1.521,1.36,1.36,0,0,0,.806.226Z" transform="translate(-419.833 -2690.687)"/>
        <path id="Trazado_133991" data-name="Trazado 133991" d="M445.495,2719.069a3.323,3.323,0,0,1-2.491-1,3.948,3.948,0,0,1,0-5.217,3.623,3.623,0,0,1,4.528-.389,3.015,3.015,0,0,1,1.168,1.685l-1.141.19a2.083,2.083,0,0,0-2.047-1.467,2.053,2.053,0,0,0-1.612.716,3.087,3.087,0,0,0,0,3.749,2.173,2.173,0,0,0,3.659-.76l1.141.19a3.008,3.008,0,0,1-1.177,1.693A3.358,3.358,0,0,1,445.495,2719.069Z" transform="translate(-420.599 -2690.686)"/>
        <path id="Trazado_133992" data-name="Trazado 133992" d="M453.475,2718.715a1.811,1.811,0,0,1-1.358-.5,1.877,1.877,0,0,1-.5-1.386v-4.094H450.2v-.978h.525a1.023,1.023,0,0,0,.77-.244,1.226,1.226,0,0,0,.217-.815v-1.259h1.141v2.318h1.6v.978h-1.6v3.967a1.033,1.033,0,0,0,.272.761.9.9,0,0,0,.688.272h.643v.978Z" transform="translate(-421.37 -2690.459)"/>
        <path id="Trazado_133993" data-name="Trazado 133993" d="M457.45,2710.029a.833.833,0,0,1-.833-.833h0a.785.785,0,0,1,.245-.579.841.841,0,0,1,1.168,0,.814.814,0,0,1,.235.579.835.835,0,0,1-.235.589A.807.807,0,0,1,457.45,2710.029Zm-.625,8.585v-6.955H458.1v6.955Z" transform="translate(-421.976 -2690.359)"/>
        <path id="Trazado_133994" data-name="Trazado 133994" d="M463.785,2719.069a3.323,3.323,0,0,1-2.491-1,3.948,3.948,0,0,1,0-5.217,3.6,3.6,0,0,1,4.51-.389,3.015,3.015,0,0,1,1.168,1.685l-1.141.19a2.083,2.083,0,0,0-2.047-1.467,2.053,2.053,0,0,0-1.612.716,3.087,3.087,0,0,0,0,3.749,2.173,2.173,0,0,0,3.659-.76l1.141.19a3.008,3.008,0,0,1-1.177,1.693A3.36,3.36,0,0,1,463.785,2719.069Z" transform="translate(-422.324 -2690.686)"/>
        <path id="Trazado_133995" data-name="Trazado 133995" d="M472.519,2719.078a3.63,3.63,0,0,1-1.811-.435,3.189,3.189,0,0,1-1.259-1.259,3.886,3.886,0,0,1-.462-1.92,3.623,3.623,0,0,1,.987-2.626,3.7,3.7,0,0,1,5.035,0,3.984,3.984,0,0,1,0,5.253A3.415,3.415,0,0,1,472.519,2719.078Zm0-1.014a2.154,2.154,0,0,0,1.648-.716,3.034,3.034,0,0,0,0-3.758,2.128,2.128,0,0,0-1.648-.716,2.1,2.1,0,0,0-1.63.716,3.069,3.069,0,0,0,0,3.758,2.136,2.136,0,0,0,1.621.716Z" transform="translate(-423.143 -2690.686)"/>
        <path id="Trazado_133996" data-name="Trazado 133996" d="M423.85,2737.965a5.38,5.38,0,0,1-1.965-.353,5.1,5.1,0,0,1-1.576-1.005,4.527,4.527,0,0,1-1.041-1.621,6.2,6.2,0,0,1,0-4.275,4.6,4.6,0,0,1,1.051-1.621,4.781,4.781,0,0,1,1.567-1.005,5.365,5.365,0,0,1,1.965-.353,5.03,5.03,0,0,1,2.644.707,4.365,4.365,0,0,1,1.784,1.947l-1.168.48a3.356,3.356,0,0,0-1.3-1.422,3.732,3.732,0,0,0-1.929-.5,4.051,4.051,0,0,0-1.458.263,3.446,3.446,0,0,0-1.168.752,3.341,3.341,0,0,0-.788,1.232,4.531,4.531,0,0,0-.29,1.648,4.628,4.628,0,0,0,.29,1.666,3.342,3.342,0,0,0,.788,1.232,3.46,3.46,0,0,0,1.168.751,3.855,3.855,0,0,0,1.458.272,3.744,3.744,0,0,0,1.929-.507,3.32,3.32,0,0,0,1.3-1.4l1.168.471a4.348,4.348,0,0,1-1.811,1.947A5.13,5.13,0,0,1,423.85,2737.965Z" transform="translate(-418.416 -2692.184)"/>
        <path id="Trazado_133997" data-name="Trazado 133997" d="M434.139,2738.278a3.625,3.625,0,0,1-1.811-.435,3.061,3.061,0,0,1-1.259-1.259,3.886,3.886,0,0,1-.462-1.92,3.552,3.552,0,0,1,.987-2.626,3.7,3.7,0,0,1,5.035,0,3.622,3.622,0,0,1,.978,2.626,3.543,3.543,0,0,1-.987,2.626A3.38,3.38,0,0,1,434.139,2738.278Zm0-1.014a2.175,2.175,0,0,0,1.648-.715,2.718,2.718,0,0,0,.652-1.884,2.652,2.652,0,0,0-.652-1.875,2.137,2.137,0,0,0-1.648-.716,2.1,2.1,0,0,0-1.63.716,2.652,2.652,0,0,0-.652,1.875,2.718,2.718,0,0,0,.652,1.884,2.136,2.136,0,0,0,1.621.715Z" transform="translate(-419.521 -2692.498)"/>
        <path id="Trazado_133998" data-name="Trazado 133998" d="M443.775,2731.051a2.436,2.436,0,0,1,1.748.634,2.353,2.353,0,0,1,.652,1.811v4.682h-1.223v-4.4a1.667,1.667,0,0,0-.426-1.25,1.493,1.493,0,0,0-1.087-.4,1.694,1.694,0,0,0-1.241.471,1.984,1.984,0,0,0-.489,1.422v4.157h-1.223v-6.955h1.223v.906A2.318,2.318,0,0,1,443.775,2731.051Z" transform="translate(-420.454 -2692.497)"/>
        <path id="Trazado_133999" data-name="Trazado 133999" d="M451.517,2738.28a3.29,3.29,0,0,1-1.875-.5,2.093,2.093,0,0,1-.906-1.431l1.069-.308a1.546,1.546,0,0,0,.571.969,1.874,1.874,0,0,0,1.141.344,2.526,2.526,0,0,0,.67-.091,1.163,1.163,0,0,0,.516-.344.985.985,0,0,0,.208-.634.96.96,0,0,0-.063-.29,1.041,1.041,0,0,0-.109-.226.572.572,0,0,0-.2-.19,1.992,1.992,0,0,0-.245-.154,1.838,1.838,0,0,0-.308-.127l-.344-.118-.389-.109-.4-.118c-.29-.091-.534-.172-.724-.253a3.35,3.35,0,0,1-.589-.335,1.359,1.359,0,0,1-.453-.552,1.858,1.858,0,0,1-.154-.779,1.811,1.811,0,0,1,.344-1.1,1.885,1.885,0,0,1,.906-.661,3.478,3.478,0,0,1,1.232-.2,3.019,3.019,0,0,1,1.694.453,1.939,1.939,0,0,1,.851,1.358l-1.005.254a1.305,1.305,0,0,0-.534-.906,1.643,1.643,0,0,0-1-.3,1.726,1.726,0,0,0-.906.245.823.823,0,0,0-.389.752.777.777,0,0,0,.1.38,1.521,1.521,0,0,0,.208.272,1.322,1.322,0,0,0,.389.217l.408.145.507.127h.109c.272.063.5.127.67.181a4.691,4.691,0,0,1,.6.254,2.2,2.2,0,0,1,.543.38,1.738,1.738,0,0,1,.335.543,1.817,1.817,0,0,1,.145.743,2.091,2.091,0,0,1-.208.906,1.626,1.626,0,0,1-.571.643,2.727,2.727,0,0,1-.806.344A3.753,3.753,0,0,1,451.517,2738.28Z" transform="translate(-421.232 -2692.499)"/>
        <path id="Trazado_134000" data-name="Trazado 134000" d="M462.79,2734.532v.335h-5.434a2.436,2.436,0,0,0,.661,1.811,2.174,2.174,0,0,0,1.585.625,2.1,2.1,0,0,0,1.947-1.259l1.1.235a3.144,3.144,0,0,1-1.186,1.494,3.256,3.256,0,0,1-1.811.543,3.4,3.4,0,0,1-2.509-.969,4.139,4.139,0,0,1,0-5.289,3.312,3.312,0,0,1,2.463-.969,3.131,3.131,0,0,1,2.337.906A3.521,3.521,0,0,1,462.79,2734.532ZM459.575,2732a2.135,2.135,0,0,0-1.449.5,2.256,2.256,0,0,0-.734,1.431h4.166a2.037,2.037,0,0,0-.607-1.431A1.917,1.917,0,0,0,459.575,2732Z" transform="translate(-421.936 -2692.501)"/>
        <path id="Trazado_134001" data-name="Trazado 134001" d="M466.792,2732.419a2.119,2.119,0,0,1,.86-.906,2.645,2.645,0,0,1,1.34-.362v1.15a2.265,2.265,0,0,0-1.612.516,2.158,2.158,0,0,0-.561,1.648v3.713H465.6v-6.955h1.2Z" transform="translate(-422.823 -2692.507)"/>
        <path id="Trazado_134002" data-name="Trazado 134002" d="M475.317,2731.2h1.313l-2.835,6.956h-1.042l-2.817-6.956h1.3l2.038,5.534Z" transform="translate(-423.233 -2692.512)"/>
        <path id="Trazado_134003" data-name="Trazado 134003" d="M480.175,2738.28a2.346,2.346,0,0,1-1.531-.48,1.7,1.7,0,0,1-.6-1.422,1.993,1.993,0,0,1,.19-.906,1.606,1.606,0,0,1,.571-.634,3.415,3.415,0,0,1,.815-.4,7.572,7.572,0,0,1,1.06-.245l1.123-.19c.417-.073.616-.29.616-.643a1.2,1.2,0,0,0-.435-1.033,1.718,1.718,0,0,0-1.1-.335,1.806,1.806,0,0,0-1.1.326,1.331,1.331,0,0,0-.516.969l-1.1-.227a2.153,2.153,0,0,1,.906-1.494,3.2,3.2,0,0,1,1.893-.5,3.814,3.814,0,0,1,1.005.127,2.538,2.538,0,0,1,.842.39,1.711,1.711,0,0,1,.607.742,2.973,2.973,0,0,1,.208,1.15v2.871a1.169,1.169,0,0,0,.163.725.688.688,0,0,0,.552.19h.109v.906h-.607a1.15,1.15,0,0,1-1.313-.906h-.063A2.637,2.637,0,0,1,480.175,2738.28Zm.281-.987a1.876,1.876,0,0,0,1.494-.67,2.78,2.78,0,0,0,.562-1.811l-1.811.354a2.462,2.462,0,0,0-1.078.389,1,1,0,0,0-.009,1.521,1.353,1.353,0,0,0,.842.217Z" transform="translate(-423.997 -2692.499)"/>
        <path id="Trazado_134004" data-name="Trazado 134004" d="M491.926,2726.881h1.223v10.868h-1.177v-1.35a2.587,2.587,0,0,1-1,1.1,2.72,2.72,0,0,1-1.467.408,3.138,3.138,0,0,1-1.259-.263,3.088,3.088,0,0,1-1.041-.725,3.413,3.413,0,0,1-.7-1.141,4.267,4.267,0,0,1-.254-1.494,3.622,3.622,0,0,1,.906-2.618,3.033,3.033,0,0,1,2.309-1,2.792,2.792,0,0,1,1.458.4,2.591,2.591,0,0,1,.987,1.06Zm-2.192,9.962a2.093,2.093,0,0,0,1.621-.725,2.662,2.662,0,0,0,.652-1.811,2.607,2.607,0,0,0-.661-1.812,2.082,2.082,0,0,0-1.612-.733,2.154,2.154,0,0,0-1.63.706,2.654,2.654,0,0,0-.652,1.812,2.618,2.618,0,0,0,.652,1.811,2.155,2.155,0,0,0,1.63.743Z" transform="translate(-424.772 -2692.104)"/>
        <path id="Trazado_134005" data-name="Trazado 134005" d="M499.489,2738.278a3.625,3.625,0,0,1-1.811-.435,3.11,3.11,0,0,1-1.259-1.259,3.886,3.886,0,0,1-.462-1.92,3.552,3.552,0,0,1,.987-2.626,3.7,3.7,0,0,1,5.035,0,3.983,3.983,0,0,1,0,5.252A3.415,3.415,0,0,1,499.489,2738.278Zm0-1.014a2.154,2.154,0,0,0,1.648-.715,2.718,2.718,0,0,0,.652-1.884,2.652,2.652,0,0,0-.652-1.875,2.129,2.129,0,0,0-1.648-.716,2.1,2.1,0,0,0-1.63.716,2.652,2.652,0,0,0-.643,1.875,2.719,2.719,0,0,0,.643,1.884,2.136,2.136,0,0,0,1.621.715Z" transform="translate(-425.687 -2692.498)"/>
        <path id="Trazado_134006" data-name="Trazado 134006" d="M507.036,2732.419a2.151,2.151,0,0,1,.906-.906,2.57,2.57,0,0,1,1.331-.362v1.15a2.283,2.283,0,0,0-1.612.516,2.158,2.158,0,0,0-.561,1.648v3.713h-1.223v-6.955h1.2Z" transform="translate(-426.624 -2692.507)"/>
        <path id="Trazado_134007" data-name="Trazado 134007" d="M425.037,2748.244h-4.084v3.251h3.559v1.187h-3.559v4.4h-1.3v-9.962h5.38Z" transform="translate(-418.489 -2694.014)"/>
        <path id="Trazado_134008" data-name="Trazado 134008" d="M430.15,2757.508a3.628,3.628,0,0,1-1.811-.435,3.1,3.1,0,0,1-1.25-1.259,3.887,3.887,0,0,1-.462-1.92,3.552,3.552,0,0,1,.987-2.626,3.7,3.7,0,0,1,5.026,0,3.984,3.984,0,0,1,0,5.253A3.4,3.4,0,0,1,430.15,2757.508Zm0-1.014a2.156,2.156,0,0,0,1.648-.715,3.034,3.034,0,0,0,0-3.759,2.128,2.128,0,0,0-1.648-.716,2.1,2.1,0,0,0-1.63.716,3.069,3.069,0,0,0,0,3.759,2.137,2.137,0,0,0,1.621.688Z" transform="translate(-419.146 -2694.312)"/>
        <path id="Trazado_134009" data-name="Trazado 134009" d="M437.7,2751.619a2.119,2.119,0,0,1,.86-.906,2.6,2.6,0,0,1,1.34-.362v1.15a2.307,2.307,0,0,0-1.621.516,2.155,2.155,0,0,0-.552,1.648v3.713h-1.223v-6.956h1.2Z" transform="translate(-420.079 -2694.318)"/>
        <path id="Trazado_134010" data-name="Trazado 134010" d="M448.946,2750.261a2.228,2.228,0,0,1,1.621.6,2.158,2.158,0,0,1,.616,1.657v4.836h-1.223v-4.528a1.583,1.583,0,0,0-.38-1.15,1.31,1.31,0,0,0-.969-.38,1.378,1.378,0,0,0-1.06.435,1.866,1.866,0,0,0-.408,1.313v4.3H445.9v-4.465a1.615,1.615,0,0,0-.389-1.186,1.3,1.3,0,0,0-.987-.4,1.359,1.359,0,0,0-1.06.444,1.957,1.957,0,0,0-.408,1.349v4.257h-1.223v-6.956h1.223v.906a2.165,2.165,0,0,1,.8-.77,2.281,2.281,0,0,1,1.078-.263,2.334,2.334,0,0,1,1.186.3,1.81,1.81,0,0,1,.77.842,2.2,2.2,0,0,1,.833-.842A2.347,2.347,0,0,1,448.946,2750.261Z" transform="translate(-420.581 -2694.31)"/>
        <path id="Trazado_134011" data-name="Trazado 134011" d="M456.326,2757.51a2.316,2.316,0,0,1-1.521-.48,1.7,1.7,0,0,1-.6-1.422,1.992,1.992,0,0,1,.19-.906,1.538,1.538,0,0,1,.571-.634,3.121,3.121,0,0,1,.815-.4,7.088,7.088,0,0,1,1.06-.244l1.123-.19c.408-.073.616-.29.616-.643a1.2,1.2,0,0,0-.435-1.032,1.984,1.984,0,0,0-2.192,0,1.331,1.331,0,0,0-.516.969l-1.1-.226a2.175,2.175,0,0,1,.906-1.494,3.261,3.261,0,0,1,1.9-.5,3.891,3.891,0,0,1,1.005.127,2.707,2.707,0,0,1,.842.39,1.755,1.755,0,0,1,.6.742,2.8,2.8,0,0,1,.217,1.15v2.871a1.169,1.169,0,0,0,.163.724.669.669,0,0,0,.543.19h.082v.906h-.607c-.752,0-1.2-.308-1.322-.906h-.054A2.637,2.637,0,0,1,456.326,2757.51Zm.29-.987a1.813,1.813,0,0,0,1.485-.67,2.782,2.782,0,0,0,.571-1.811l-1.811.353a2.544,2.544,0,0,0-1.078.389,1.013,1.013,0,0,0-.018,1.521,1.406,1.406,0,0,0,.851.19Z" transform="translate(-421.748 -2694.314)"/>
        <path id="Trazado_134012" data-name="Trazado 134012" d="M463.157,2756.949v-10.868H464.4v10.868Z" transform="translate(-422.593 -2693.916)"/>
        <path id="Trazado_134013" data-name="Trazado 134013" d="M424.743,2766.261v1.159h-2.554v8.8h-1.268v-8.785h-2.554v-1.177Z" transform="translate(-418.367 -2695.82)"/>
        <path id="Trazado_134014" data-name="Trazado 134014" d="M427.452,2770.819a2.119,2.119,0,0,1,.86-.906,2.607,2.607,0,0,1,1.34-.362v1.15a2.306,2.306,0,0,0-1.621.516,2.154,2.154,0,0,0-.552,1.648v3.668h-1.223v-6.955h1.2Z" transform="translate(-419.111 -2696.13)"/>
        <path id="Trazado_134015" data-name="Trazado 134015" d="M433.036,2776.68a2.376,2.376,0,0,1-1.521-.48,1.7,1.7,0,0,1-.6-1.422,2.056,2.056,0,0,1,.19-.906,1.609,1.609,0,0,1,.561-.625,3.312,3.312,0,0,1,.824-.4,8.361,8.361,0,0,1,1.06-.254l1.123-.181c.408-.072.616-.29.616-.643a1.2,1.2,0,0,0-.435-1.032,1.745,1.745,0,0,0-1.1-.335,1.808,1.808,0,0,0-1.087.317,1.366,1.366,0,0,0-.516.978l-1.1-.236a2.108,2.108,0,0,1,.906-1.485,3.218,3.218,0,0,1,1.893-.5,3.939,3.939,0,0,1,1.014.127,2.712,2.712,0,0,1,.842.389,1.756,1.756,0,0,1,.6.743,2.8,2.8,0,0,1,.217,1.15v2.826a1.169,1.169,0,0,0,.163.725.661.661,0,0,0,.543.19h.118v.906h-.679a1.159,1.159,0,0,1-1.313-.906h-.054A2.718,2.718,0,0,1,433.036,2776.68Zm.29-.987a1.814,1.814,0,0,0,1.485-.679,2.717,2.717,0,0,0,.571-1.811l-1.811.353a2.38,2.38,0,0,0-1.078.389,1.013,1.013,0,0,0-.018,1.522,1.4,1.4,0,0,0,.86.226Z" transform="translate(-419.551 -2696.123)"/>
        <path id="Trazado_134016" data-name="Trazado 134016" d="M443.164,2769.451a2.437,2.437,0,0,1,1.748.634,2.354,2.354,0,0,1,.652,1.811v4.628h-1.223v-4.41a1.621,1.621,0,0,0-.426-1.241,1.493,1.493,0,0,0-1.087-.407,1.7,1.7,0,0,0-1.241.48,1.984,1.984,0,0,0-.489,1.422v4.157h-1.223v-6.955h1.25v.906A2.318,2.318,0,0,1,443.164,2769.451Z" transform="translate(-420.396 -2696.12)"/>
        <path id="Trazado_134017" data-name="Trazado 134017" d="M453.882,2769.587h1.177v10.46h-1.223v-4.8a2.565,2.565,0,0,1-.987,1.05,2.793,2.793,0,0,1-1.449.4,3.053,3.053,0,0,1-2.318-1.005,3.621,3.621,0,0,1-.906-2.617,4.271,4.271,0,0,1,.254-1.5,3.249,3.249,0,0,1,.706-1.15,3.039,3.039,0,0,1,1.032-.707,3.125,3.125,0,0,1,1.259-.263,2.775,2.775,0,0,1,1.458.4,2.488,2.488,0,0,1,.987,1.069Zm-2.246,6.031a2.109,2.109,0,0,0,1.63-.724,2.863,2.863,0,0,0,0-3.623,2.138,2.138,0,0,0-1.63-.724,2.111,2.111,0,0,0-1.612.7,2.971,2.971,0,0,0,0,3.713A2.111,2.111,0,0,0,451.636,2775.618Z" transform="translate(-421.179 -2696.121)"/>
        <path id="Trazado_134018" data-name="Trazado 134018" d="M462.854,2769.6h1.223v6.938H462.9v-.906a2.164,2.164,0,0,1-.86.779,2.659,2.659,0,0,1-1.214.271,2.439,2.439,0,0,1-1.757-.625,2.375,2.375,0,0,1-.652-1.812v-4.682h1.223v4.411a1.661,1.661,0,0,0,.426,1.241,1.5,1.5,0,0,0,1.1.417,1.671,1.671,0,0,0,1.232-.48,1.958,1.958,0,0,0,.489-1.422Z" transform="translate(-422.145 -2696.131)"/>
        <path id="Trazado_134019" data-name="Trazado 134019" d="M468.02,2767.629a.833.833,0,0,1-.833-.833h0a.785.785,0,0,1,.245-.58.842.842,0,0,1,1.168,0,.778.778,0,0,1,.235.58.816.816,0,0,1-.8.833Zm-.625,8.585v-6.955h1.232v6.937Z" transform="translate(-422.973 -2695.793)"/>
        <path id="Trazado_134020" data-name="Trazado 134020" d="M471.527,2776.129v-10.868h1.241v10.868Z" transform="translate(-423.383 -2695.725)"/>
        <path id="Trazado_134021" data-name="Trazado 134021" d="M478.509,2776.678a3.625,3.625,0,0,1-1.811-.435,3.1,3.1,0,0,1-1.25-1.259,3.892,3.892,0,0,1-.471-1.92,3.623,3.623,0,0,1,.987-2.626,3.7,3.7,0,0,1,5.035,0,3.984,3.984,0,0,1,0,5.253A3.4,3.4,0,0,1,478.509,2776.678Zm0-1.014a2.154,2.154,0,0,0,1.648-.716,2.718,2.718,0,0,0,.652-1.884,2.652,2.652,0,0,0-.652-1.875,2.128,2.128,0,0,0-1.648-.716,2.1,2.1,0,0,0-1.63.716,3.067,3.067,0,0,0,0,3.758,2.136,2.136,0,0,0,1.621.716Z" transform="translate(-423.708 -2696.121)"/>
      </g>
      <g id="Grupo_63710" data-name="Grupo 63710" transform="translate(34.732 105.581)">
        <path id="Trazado_134022" data-name="Trazado 134022" d="M423.634,2655.371a3.1,3.1,0,0,1,2.364.906,3.344,3.344,0,0,1,.906,2.354,3.214,3.214,0,0,1-.906,2.337,3.115,3.115,0,0,1-2.364.906h-2.128v3.623h-2.119v-10.125Zm-.353,4.782a1.522,1.522,0,0,0,1.168-.4,1.5,1.5,0,0,0,.389-1.1,1.519,1.519,0,0,0-.389-1.1,1.547,1.547,0,0,0-1.168-.407H421.47v3.007Z" transform="translate(-419.387 -2654.891)"/>
        <path id="Trazado_134023" data-name="Trazado 134023" d="M432.392,2666.038a4.673,4.673,0,0,1-2.056-.444,3.353,3.353,0,0,1-1.413-1.313,3.858,3.858,0,0,1-.516-2.029,3.625,3.625,0,0,1,1.1-2.717,4.609,4.609,0,0,1,5.769,0,4.021,4.021,0,0,1,0,5.533A4.094,4.094,0,0,1,432.392,2666.038Zm0-1.621a1.876,1.876,0,0,0,1.44-.6,2.21,2.21,0,0,0,.543-1.567,2.254,2.254,0,0,0-.543-1.576,1.9,1.9,0,0,0-1.44-.589,1.81,1.81,0,0,0-1.4.6,2.564,2.564,0,0,0,0,3.134,1.812,1.812,0,0,0,1.386.6Z" transform="translate(-420.238 -2655.188)"/>
        <path id="Trazado_134024" data-name="Trazado 134024" d="M441.388,2666.033a4.144,4.144,0,0,1-2.128-.507,2.174,2.174,0,0,1-1.032-1.521l1.7-.48a1.368,1.368,0,0,0,1.458,1.087,1.434,1.434,0,0,0,.743-.172.57.57,0,0,0,.29-.562.626.626,0,0,0-.118-.371,1.123,1.123,0,0,0-.371-.272l-.5-.19-.652-.19a6.96,6.96,0,0,1-.67-.208,3.951,3.951,0,0,1-.643-.272,2.4,2.4,0,0,1-.525-.371,1.515,1.515,0,0,1-.4-.571,2.1,2.1,0,0,1-.136-.779,1.865,1.865,0,0,1,.788-1.63,3.563,3.563,0,0,1,2.065-.553,3.624,3.624,0,0,1,1.9.471,2.1,2.1,0,0,1,.978,1.458l-1.585.353a1.231,1.231,0,0,0-1.3-.906,1.392,1.392,0,0,0-.706.163.553.553,0,0,0-.245.707.436.436,0,0,0,.145.172l.208.136a1.351,1.351,0,0,0,.29.117,2.651,2.651,0,0,0,.317.091l.371.1.38.1a5.532,5.532,0,0,1,.679.208,4.33,4.33,0,0,1,.634.3,2.377,2.377,0,0,1,.543.426,2.063,2.063,0,0,1,.362.607,2.286,2.286,0,0,1,.136.806,2.163,2.163,0,0,1-.245,1.05,1.806,1.806,0,0,1-.67.716,3.222,3.222,0,0,1-.906.38A4.958,4.958,0,0,1,441.388,2666.033Z" transform="translate(-421.165 -2655.183)"/>
        <path id="Trazado_134025" data-name="Trazado 134025" d="M447.663,2657.187a1.173,1.173,0,0,1-.864-1.971l.031-.031a1.157,1.157,0,0,1,.833-.344,1.177,1.177,0,0,1,0,2.345Zm-1.042,8.359V2658.3h2.056v7.245Z" transform="translate(-421.943 -2654.841)"/>
        <path id="Trazado_134026" data-name="Trazado 134026" d="M453.876,2665.659a2.181,2.181,0,0,1-1.648-.589,2.316,2.316,0,0,1-.58-1.685v-3.432h-1.431v-1.567h.462a1.17,1.17,0,0,0,.906-.308,1.519,1.519,0,0,0,.29-1.078v-.96h1.811v2.346h1.5v1.567h-1.5v3.215c0,.634.281.906.842.906h.661v1.549Z" transform="translate(-422.296 -2654.954)"/>
        <path id="Trazado_134027" data-name="Trazado 134027" d="M458.474,2657.187a1.142,1.142,0,0,1-.833-.344,1.168,1.168,0,0,1-.005-1.652l.005-.006a1.166,1.166,0,0,1,.833-.344,1.153,1.153,0,0,1,.824.344,1.168,1.168,0,0,1,.005,1.652l-.005.006A1.151,1.151,0,0,1,458.474,2657.187Zm-1.042,8.359V2658.3h2.056v7.245Z" transform="translate(-422.964 -2654.841)"/>
        <path id="Trazado_134028" data-name="Trazado 134028" d="M466.651,2658.631h2.165l-3.106,7.245H463.9l-3.061-7.245h2.192l1.811,4.972Z" transform="translate(-423.298 -2655.199)"/>
        <path id="Trazado_134029" data-name="Trazado 134029" d="M473.842,2666.038a4.688,4.688,0,0,1-2.065-.444,3.353,3.353,0,0,1-1.413-1.313,3.938,3.938,0,0,1-.507-2.029,3.543,3.543,0,0,1,1.1-2.717,4.592,4.592,0,0,1,5.76,0,4.021,4.021,0,0,1,0,5.533A4.067,4.067,0,0,1,473.842,2666.038Zm0-1.621a1.813,1.813,0,0,0,1.44-.6,2.184,2.184,0,0,0,.552-1.567,2.22,2.22,0,0,0-.552-1.576,1.873,1.873,0,0,0-1.44-.579,1.812,1.812,0,0,0-1.395.6,2.528,2.528,0,0,0,0,3.134A1.812,1.812,0,0,0,473.842,2664.417Z" transform="translate(-424.149 -2655.188)"/>
      </g>
      <g id="Grupo_63711" data-name="Grupo 63711" transform="translate(137.469 136.952)">
        <path id="Trazado_134030" data-name="Trazado 134030" d="M532.837,2699.443v-9.962h1.286v9.962Z" transform="translate(-532.828 -2689.481)"/>
        <path id="Trazado_134031" data-name="Trazado 134031" d="M540.624,2692.651a2.437,2.437,0,0,1,1.748.634,2.353,2.353,0,0,1,.652,1.811v4.682h-1.232v-4.4a1.667,1.667,0,0,0-.426-1.25,1.492,1.492,0,0,0-1.087-.407,1.7,1.7,0,0,0-1.241.48,1.983,1.983,0,0,0-.489,1.422v4.157h-1.223v-6.955h1.223v.906A2.319,2.319,0,0,1,540.624,2692.651Z" transform="translate(-533.252 -2689.78)"/>
        <path id="Trazado_134032" data-name="Trazado 134032" d="M548.367,2699.88a3.292,3.292,0,0,1-1.875-.5,2.094,2.094,0,0,1-.906-1.431l1.069-.308a1.544,1.544,0,0,0,.57.969,1.874,1.874,0,0,0,1.141.344,2.567,2.567,0,0,0,.67-.091,1.166,1.166,0,0,0,.516-.344.907.907,0,0,0,.2-.634.754.754,0,0,0-.054-.29,1.3,1.3,0,0,0-.109-.226.57.57,0,0,0-.2-.19,1.99,1.99,0,0,0-.245-.154,2.084,2.084,0,0,0-.317-.127l-.335-.118-.389-.109-.4-.118c-.29-.091-.534-.172-.724-.254a3.336,3.336,0,0,1-.589-.335,1.358,1.358,0,0,1-.453-.553,1.858,1.858,0,0,1-.154-.779,1.811,1.811,0,0,1,.344-1.1,1.884,1.884,0,0,1,.906-.661,3.483,3.483,0,0,1,1.232-.2,3.021,3.021,0,0,1,1.694.453,1.939,1.939,0,0,1,.851,1.359l-1.005.253a1.356,1.356,0,0,0-.534-.906,1.665,1.665,0,0,0-1-.3,1.721,1.721,0,0,0-.906.245.823.823,0,0,0-.389.751.778.778,0,0,0,.1.381.908.908,0,0,0,.589.48,3.974,3.974,0,0,0,.417.154l.507.127h.109l.67.19a4.86,4.86,0,0,1,.6.254,2.2,2.2,0,0,1,.543.381,1.8,1.8,0,0,1,.335.534,1.814,1.814,0,0,1,.145.752,2.092,2.092,0,0,1-.208.906,1.706,1.706,0,0,1-.571.643,2.72,2.72,0,0,1-.806.344A3.763,3.763,0,0,1,548.367,2699.88Z" transform="translate(-534.031 -2689.782)"/>
        <path id="Trazado_134033" data-name="Trazado 134033" d="M559.64,2696.134v.335h-5.434a2.436,2.436,0,0,0,.661,1.811,2.174,2.174,0,0,0,1.585.625,2.114,2.114,0,0,0,1.15-.335,2.148,2.148,0,0,0,.8-.906l1.1.236a3.2,3.2,0,0,1-1.186,1.494,3.251,3.251,0,0,1-1.811.543,3.377,3.377,0,0,1-2.509-.969,4.139,4.139,0,0,1,0-5.289,3.314,3.314,0,0,1,2.463-.969,3.131,3.131,0,0,1,2.337.906A3.513,3.513,0,0,1,559.64,2696.134Zm-3.215-2.536a2.135,2.135,0,0,0-1.449.5,2.256,2.256,0,0,0-.734,1.431h4.166a2.04,2.04,0,0,0-.643-1.413,1.922,1.922,0,0,0-1.34-.516Z" transform="translate(-534.734 -2689.785)"/>
        <path id="Trazado_134034" data-name="Trazado 134034" d="M567.416,2692.788H568.6v6.6a3.781,3.781,0,0,1-.906,2.717,3.732,3.732,0,0,1-5.86-1.177l1.005-.5a2.31,2.31,0,0,0,2.328,1.612,1.983,1.983,0,0,0,1.63-.679,2.874,2.874,0,0,0,.57-1.9v-1.286a2.478,2.478,0,0,1-1,1.005,3.053,3.053,0,0,1-3.7-.607,3.732,3.732,0,0,1,0-4.936,3.01,3.01,0,0,1,2.264-.978,2.9,2.9,0,0,1,1.458.39,2.539,2.539,0,0,1,.978,1.032Zm-2.21,5.724a2.1,2.1,0,0,0,1.6-.716,2.535,2.535,0,0,0,0-3.405,2.183,2.183,0,0,0-3.085-.122c-.042.039-.082.08-.121.122a2.417,2.417,0,0,0-.661,1.73,2.446,2.446,0,0,0,.661,1.721A2.147,2.147,0,0,0,565.207,2698.512Z" transform="translate(-535.556 -2689.781)"/>
        <path id="Trazado_134035" data-name="Trazado 134035" d="M576.4,2692.8h1.268v6.955h-1.177v-.906a2.233,2.233,0,0,1-.86.779,2.723,2.723,0,0,1-1.223.272,2.43,2.43,0,0,1-1.748-.625,2.374,2.374,0,0,1-.652-1.811v-4.682h1.132v4.41a1.66,1.66,0,0,0,.426,1.241,1.5,1.5,0,0,0,1.1.417,1.68,1.68,0,0,0,1.232-.48,2,2,0,0,0,.489-1.422Z" transform="translate(-536.523 -2689.792)"/>
        <path id="Trazado_134036" data-name="Trazado 134036" d="M582.134,2694.019a2.116,2.116,0,0,1,.906-.906,2.6,2.6,0,0,1,1.34-.362v1.15a2.307,2.307,0,0,0-1.621.516,2.155,2.155,0,0,0-.552,1.648v3.713h-1.25v-6.955h1.177Z" transform="translate(-537.368 -2689.79)"/>
        <path id="Trazado_134037" data-name="Trazado 134037" d="M589.059,2699.878a3.628,3.628,0,0,1-1.811-.435,3.06,3.06,0,0,1-1.259-1.259,3.887,3.887,0,0,1-.462-1.92,3.552,3.552,0,0,1,.987-2.626,3.414,3.414,0,0,1,2.509-.987,3.45,3.45,0,0,1,2.527.987,3.623,3.623,0,0,1,.978,2.626,3.542,3.542,0,0,1-.987,2.626A3.39,3.39,0,0,1,589.059,2699.878Zm0-1.014a2.137,2.137,0,0,0,1.639-.716,2.716,2.716,0,0,0,.661-1.884,2.664,2.664,0,0,0-.661-1.875,2.108,2.108,0,0,0-1.639-.716,2.073,2.073,0,0,0-1.63.716,2.652,2.652,0,0,0-.652,1.875,2.718,2.718,0,0,0,.652,1.884A2.11,2.11,0,0,0,589.059,2698.864Z" transform="translate(-537.799 -2689.78)"/>
        <path id="Trazado_134038" data-name="Trazado 134038" d="M532.837,2718.643v-9.962h3.215a4.82,4.82,0,0,1,2.536.643,4.012,4.012,0,0,1,1.558,1.757,6.137,6.137,0,0,1,.507,2.572,6.446,6.446,0,0,1-.3,2.02,4.435,4.435,0,0,1-.86,1.576,3.8,3.8,0,0,1-1.449,1.032,5.1,5.1,0,0,1-1.992.362Zm1.268-1.15h1.9a3.054,3.054,0,0,0,2.491-1.023,4.329,4.329,0,0,0,.833-2.817,4.262,4.262,0,0,0-.842-2.8,3.023,3.023,0,0,0-2.482-1.014h-1.884Z" transform="translate(-532.828 -2691.292)"/>
        <path id="Trazado_134039" data-name="Trazado 134039" d="M549.855,2715.328v.335h-5.434a2.436,2.436,0,0,0,.661,1.811,2.174,2.174,0,0,0,1.585.625,2.116,2.116,0,0,0,1.15-.335,2.152,2.152,0,0,0,.8-.906l1.1.236a3.156,3.156,0,0,1-1.2,1.494,3.215,3.215,0,0,1-1.811.543,3.379,3.379,0,0,1-2.554-1.023,4.157,4.157,0,0,1,0-5.289,3.347,3.347,0,0,1,2.472-.969,3.132,3.132,0,0,1,2.337.906A3.512,3.512,0,0,1,549.855,2715.328Zm-3.215-2.536a2.135,2.135,0,0,0-1.449.5,2.258,2.258,0,0,0-.734,1.431h4.166a2.038,2.038,0,0,0-.607-1.431,1.935,1.935,0,0,0-1.377-.5Z" transform="translate(-533.807 -2691.591)"/>
        <path id="Trazado_134040" data-name="Trazado 134040" d="M556.339,2711.851a3.109,3.109,0,0,1,1.259.263,3.042,3.042,0,0,1,1.032.706,3.3,3.3,0,0,1,.7,1.15,4.257,4.257,0,0,1,.263,1.5,3.62,3.62,0,0,1-.906,2.617,3.034,3.034,0,0,1-2.309,1.005,2.714,2.714,0,0,1-1.449-.4,2.633,2.633,0,0,1-1-1.069v4.818h-1.223v-10.46h1.177v1.349a2.545,2.545,0,0,1,1-1.078A2.708,2.708,0,0,1,556.339,2711.851Zm-.235,6.177a2.118,2.118,0,0,0,1.612-.7,2.971,2.971,0,0,0,0-3.713,2.119,2.119,0,0,0-1.612-.7,2.146,2.146,0,0,0-1.639.725,2.862,2.862,0,0,0,0,3.623,2.112,2.112,0,0,0,1.639.761Z" transform="translate(-534.703 -2691.592)"/>
        <path id="Trazado_134041" data-name="Trazado 134041" d="M563.636,2713.219a2.088,2.088,0,0,1,.906-.906,2.567,2.567,0,0,1,1.331-.362v1.15a2.283,2.283,0,0,0-1.612.516,2.158,2.158,0,0,0-.562,1.648v3.713h-1.223v-6.955h1.2Z" transform="translate(-535.625 -2691.601)"/>
        <path id="Trazado_134042" data-name="Trazado 134042" d="M573.707,2715.334v.335h-5.434a2.436,2.436,0,0,0,.661,1.811,2.256,2.256,0,0,0,2.717.29,2.128,2.128,0,0,0,.788-.906l1.1.236a3.146,3.146,0,0,1-1.186,1.494,3.253,3.253,0,0,1-1.811.543,3.377,3.377,0,0,1-2.509-.969,4.139,4.139,0,0,1,0-5.289,3.313,3.313,0,0,1,2.463-.969,3.132,3.132,0,0,1,2.337.906A3.516,3.516,0,0,1,573.707,2715.334Zm-3.215-2.536a2.135,2.135,0,0,0-1.449.5,2.257,2.257,0,0,0-.734,1.431h4.166a2.038,2.038,0,0,0-.607-1.431,1.917,1.917,0,0,0-1.377-.5Z" transform="translate(-536.059 -2691.597)"/>
        <path id="Trazado_134043" data-name="Trazado 134043" d="M578.657,2719.08a3.29,3.29,0,0,1-1.875-.5,2.094,2.094,0,0,1-.906-1.431l1.069-.308a1.468,1.468,0,0,0,.571.969,1.876,1.876,0,0,0,1.141.344,2.536,2.536,0,0,0,.67-.091,1.164,1.164,0,0,0,.516-.344.907.907,0,0,0,.2-.634.754.754,0,0,0-.054-.29,1.728,1.728,0,0,0-.109-.226.571.571,0,0,0-.2-.19,2,2,0,0,0-.245-.154,2.084,2.084,0,0,0-.317-.127l-.335-.118-.389-.109-.4-.118a7.111,7.111,0,0,1-.725-.253,3.351,3.351,0,0,1-.589-.335,1.359,1.359,0,0,1-.453-.552,1.859,1.859,0,0,1-.154-.779,1.81,1.81,0,0,1,.344-1.1,1.885,1.885,0,0,1,.906-.661,3.478,3.478,0,0,1,1.232-.2,3.035,3.035,0,0,1,1.694.453,1.938,1.938,0,0,1,.851,1.358l-1.005.253a1.329,1.329,0,0,0-.534-.906,1.665,1.665,0,0,0-1-.3,1.7,1.7,0,0,0-.906.245.823.823,0,0,0-.389.751.779.779,0,0,0,.1.381,1.181,1.181,0,0,0,.208.272,1.373,1.373,0,0,0,.38.217l.417.145.507.127h.109l.67.19a4.757,4.757,0,0,1,.6.253,2.2,2.2,0,0,1,.543.381,1.9,1.9,0,0,1,.48,1.286,2.091,2.091,0,0,1-.208.906,1.809,1.809,0,0,1-.571.643,2.724,2.724,0,0,1-.815.344A3.634,3.634,0,0,1,578.657,2719.08Z" transform="translate(-536.889 -2691.593)"/>
        <path id="Trazado_134044" data-name="Trazado 134044" d="M584.5,2710.029a.785.785,0,0,1-.58-.245.808.808,0,0,1-.245-.589.785.785,0,0,1,.245-.579.832.832,0,0,1,1.159,0,.785.785,0,0,1,.245.579.809.809,0,0,1-.245.589A.785.785,0,0,1,584.5,2710.029Zm-.625,8.585v-6.955h1.232v6.955Z" transform="translate(-537.625 -2691.264)"/>
        <path id="Trazado_134045" data-name="Trazado 134045" d="M592.238,2712h1.322l-2.835,6.955h-1.042L586.867,2712h1.259l2.038,5.534Z" transform="translate(-537.926 -2691.606)"/>
        <path id="Trazado_134046" data-name="Trazado 134046" d="M598.409,2719.078a3.631,3.631,0,0,1-1.811-.435,3.11,3.11,0,0,1-1.259-1.259,3.885,3.885,0,0,1-.462-1.92,3.553,3.553,0,0,1,.987-2.626,3.7,3.7,0,0,1,5.035,0,3.984,3.984,0,0,1,0,5.253A3.415,3.415,0,0,1,598.409,2719.078Zm0-1.014a2.176,2.176,0,0,0,1.648-.716,2.717,2.717,0,0,0,.652-1.884,2.652,2.652,0,0,0-.652-1.875,2.138,2.138,0,0,0-1.648-.716,2.1,2.1,0,0,0-1.63.716,2.652,2.652,0,0,0-.652,1.875,2.717,2.717,0,0,0,.652,1.884,2.136,2.136,0,0,0,1.621.716Z" transform="translate(-538.681 -2691.592)"/>
        <path id="Trazado_134047" data-name="Trazado 134047" d="M532.837,2737.843v-9.962h1.286v9.962Z" transform="translate(-532.828 -2693.104)"/>
        <path id="Trazado_134048" data-name="Trazado 134048" d="M540.624,2731.051a2.436,2.436,0,0,1,1.748.634,2.353,2.353,0,0,1,.652,1.811v4.682h-1.232v-4.4a1.667,1.667,0,0,0-.426-1.25,1.493,1.493,0,0,0-1.087-.4,1.694,1.694,0,0,0-1.241.471,1.984,1.984,0,0,0-.489,1.422v4.157h-1.223v-6.955h1.223v.906A2.318,2.318,0,0,1,540.624,2731.051Z" transform="translate(-533.252 -2693.403)"/>
        <path id="Trazado_134049" data-name="Trazado 134049" d="M552.26,2734.534v.335h-5.434a2.436,2.436,0,0,0,.67,1.811,2.174,2.174,0,0,0,1.585.625,2.116,2.116,0,0,0,1.15-.335,2.273,2.273,0,0,0,.8-.906l1.1.236a3.156,3.156,0,0,1-1.2,1.494,3.256,3.256,0,0,1-1.811.543,3.359,3.359,0,0,1-2.5-.969,4.121,4.121,0,0,1,0-5.289,3.347,3.347,0,0,1,2.472-.969,3.131,3.131,0,0,1,2.337.906A3.525,3.525,0,0,1,552.26,2734.534ZM549.045,2732a2.135,2.135,0,0,0-1.449.5,2.256,2.256,0,0,0-.734,1.431h4.166a2.071,2.071,0,0,0-.607-1.431A1.948,1.948,0,0,0,549.045,2732Z" transform="translate(-534.038 -2693.408)"/>
        <path id="Trazado_134050" data-name="Trazado 134050" d="M553.677,2738.156l2.672-3.478-2.672-3.478h1.5l1.929,2.663,1.92-2.663h1.512l-2.717,3.478,2.717,3.478h-1.494l-1.911-2.645-1.929,2.645Z" transform="translate(-534.794 -2693.417)"/>
        <path id="Trazado_134051" data-name="Trazado 134051" d="M566.569,2731.051a3.121,3.121,0,0,1,1.259.263,3.038,3.038,0,0,1,1.032.707,3.373,3.373,0,0,1,.7,1.15,4.256,4.256,0,0,1,.263,1.5,3.7,3.7,0,0,1-.906,2.626,3.05,3.05,0,0,1-2.309,1,2.8,2.8,0,0,1-1.458-.4,2.606,2.606,0,0,1-.987-1.069v4.818h-1.223v-10.46h1.177v1.359a2.545,2.545,0,0,1,.987-1.087A2.759,2.759,0,0,1,566.569,2731.051Zm-.245,6.177a2.093,2.093,0,0,0,1.612-.7,2.971,2.971,0,0,0,0-3.713,2.091,2.091,0,0,0-1.612-.7,2.136,2.136,0,0,0-1.63.725,2.862,2.862,0,0,0,0,3.623A2.114,2.114,0,0,0,566.324,2737.228Z" transform="translate(-535.668 -2693.403)"/>
        <path id="Trazado_134052" data-name="Trazado 134052" d="M573.862,2732.419a2.119,2.119,0,0,1,.86-.906,2.6,2.6,0,0,1,1.34-.362v1.15a2.307,2.307,0,0,0-1.621.516,2.154,2.154,0,0,0-.552,1.648v3.713h-1.223v-6.955h1.2Z" transform="translate(-536.586 -2693.413)"/>
        <path id="Trazado_134053" data-name="Trazado 134053" d="M583.94,2734.534v.335h-5.434a2.436,2.436,0,0,0,.67,1.811,2.174,2.174,0,0,0,1.585.625,2.116,2.116,0,0,0,1.15-.335,2.274,2.274,0,0,0,.8-.906l1.1.236a3.156,3.156,0,0,1-1.2,1.494,3.255,3.255,0,0,1-1.811.543,3.359,3.359,0,0,1-2.5-.969,4.121,4.121,0,0,1,0-5.289,3.342,3.342,0,0,1,2.463-.969,3.142,3.142,0,0,1,2.346.906A3.525,3.525,0,0,1,583.94,2734.534ZM580.716,2732a2.13,2.13,0,0,0-1.44.5,2.256,2.256,0,0,0-.734,1.431H582.7a2.071,2.071,0,0,0-.607-1.431A1.957,1.957,0,0,0,580.716,2732Z" transform="translate(-537.027 -2693.408)"/>
        <path id="Trazado_134054" data-name="Trazado 134054" d="M588.887,2738.28a3.29,3.29,0,0,1-1.875-.5,2.066,2.066,0,0,1-.906-1.431l1.069-.308a1.469,1.469,0,0,0,.571.969,1.812,1.812,0,0,0,1.141.344,2.527,2.527,0,0,0,.67-.091,1.082,1.082,0,0,0,.507-.344.907.907,0,0,0,.208-.634,1.363,1.363,0,0,0-.054-.29,1.075,1.075,0,0,0-.118-.226.51.51,0,0,0-.2-.19,1.96,1.96,0,0,0-.235-.154l-.317-.127-.335-.118-.389-.109-.408-.118c-.29-.091-.525-.172-.715-.253a3.062,3.062,0,0,1-.589-.335,1.279,1.279,0,0,1-.453-.552,1.722,1.722,0,0,1-.154-.779,1.811,1.811,0,0,1,.335-1.1,1.932,1.932,0,0,1,.906-.661,3.531,3.531,0,0,1,1.241-.2,3.037,3.037,0,0,1,1.694.453,1.9,1.9,0,0,1,.842,1.358l-1.005.254a1.322,1.322,0,0,0-.525-.906,1.686,1.686,0,0,0-1-.3,1.739,1.739,0,0,0-.906.245.842.842,0,0,0-.389.752.689.689,0,0,0,.109.38.97.97,0,0,0,.208.272,1.373,1.373,0,0,0,.38.217l.408.145.516.127h.1c.281.063.5.127.67.181a5.377,5.377,0,0,1,.607.254,1.966,1.966,0,0,1,.534.38,1.736,1.736,0,0,1,.344.543,1.946,1.946,0,0,1,.136.743,1.973,1.973,0,0,1-.208.906,1.685,1.685,0,0,1-.562.643,2.717,2.717,0,0,1-.815.344A3.693,3.693,0,0,1,588.887,2738.28Z" transform="translate(-537.854 -2693.405)"/>
        <path id="Trazado_134055" data-name="Trazado 134055" d="M594.73,2729.229a.833.833,0,0,1-.833-.833h0a.785.785,0,0,1,.245-.579.831.831,0,0,1,.589-.236.806.806,0,0,1,.571.236.785.785,0,0,1,.245.579.809.809,0,0,1-.245.589A.782.782,0,0,1,594.73,2729.229Zm-.625,8.586v-6.956h1.232v6.956Z" transform="translate(-538.589 -2693.076)"/>
        <path id="Trazado_134056" data-name="Trazado 134056" d="M602.467,2731.2h1.3l-2.826,6.956H599.9l-2.817-6.956h1.3l2.038,5.534Z" transform="translate(-538.89 -2693.417)"/>
        <path id="Trazado_134057" data-name="Trazado 134057" d="M608.629,2738.278a3.625,3.625,0,0,1-1.811-.435,3.061,3.061,0,0,1-1.259-1.259,3.886,3.886,0,0,1-.462-1.92,3.552,3.552,0,0,1,.987-2.626,3.413,3.413,0,0,1,2.509-.987,3.45,3.45,0,0,1,2.527.987,3.623,3.623,0,0,1,.978,2.626,3.542,3.542,0,0,1-.987,2.626A3.388,3.388,0,0,1,608.629,2738.278Zm0-1.014a2.137,2.137,0,0,0,1.639-.715,2.722,2.722,0,0,0,.661-1.884,2.665,2.665,0,0,0-.661-1.875,2.109,2.109,0,0,0-1.639-.716,2.073,2.073,0,0,0-1.63.716,2.653,2.653,0,0,0-.652,1.875,2.719,2.719,0,0,0,.652,1.884,2.11,2.11,0,0,0,1.63.715Z" transform="translate(-539.645 -2693.403)"/>
        <path id="Trazado_134058" data-name="Trazado 134058" d="M538.179,2748.245h-4.057v3.26h3.623v1.177h-3.623v3.26h4.048v1.15h-5.343v-9.962h5.343Z" transform="translate(-532.827 -2694.92)"/>
        <path id="Trazado_134059" data-name="Trazado 134059" d="M543.207,2757.51a3.29,3.29,0,0,1-1.875-.5,2.066,2.066,0,0,1-.906-1.431l1.069-.308a1.469,1.469,0,0,0,.571.969,1.815,1.815,0,0,0,1.141.344,2.578,2.578,0,0,0,.67-.091,1.084,1.084,0,0,0,.507-.344.907.907,0,0,0,.208-.634.937.937,0,0,0-.172-.516.51.51,0,0,0-.2-.19,1.988,1.988,0,0,0-.235-.154,2.435,2.435,0,0,0-.317-.127l-.335-.118-.389-.109-.408-.118c-.29-.091-.525-.172-.715-.254a3.062,3.062,0,0,1-.589-.335,1.358,1.358,0,0,1-.453-.552,1.724,1.724,0,0,1-.154-.779,1.813,1.813,0,0,1,.335-1.114,1.942,1.942,0,0,1,.906-.652,3.434,3.434,0,0,1,1.232-.2,3.035,3.035,0,0,1,1.694.453,1.9,1.9,0,0,1,.842,1.358l-1.005.254a1.322,1.322,0,0,0-.525-.906,1.684,1.684,0,0,0-1-.3,1.742,1.742,0,0,0-.906.244.832.832,0,0,0-.38.752.684.684,0,0,0,.1.38.962.962,0,0,0,.208.272,1.167,1.167,0,0,0,.38.208,3.372,3.372,0,0,0,.408.154l.516.127h.1l.67.19a5.474,5.474,0,0,1,.607.254,1.966,1.966,0,0,1,.534.38,1.818,1.818,0,0,1,.344.534,2.028,2.028,0,0,1,.136.751,1.975,1.975,0,0,1-.208.906,1.594,1.594,0,0,1-.562.634,2.528,2.528,0,0,1-.815.353A3.685,3.685,0,0,1,543.207,2757.51Z" transform="translate(-533.544 -2695.219)"/>
        <path id="Trazado_134060" data-name="Trazado 134060" d="M550.554,2757.115a1.811,1.811,0,0,1-1.358-.5,1.9,1.9,0,0,1-.489-1.386v-4.094h-1.449v-.978h.516a1,1,0,0,0,.77-.244,1.167,1.167,0,0,0,.226-.815v-1.259h1.2v2.318h1.594v.978h-1.594v3.967a1.025,1.025,0,0,0,.263.76.9.9,0,0,0,.7.272h.634v.978Z" transform="translate(-534.188 -2694.987)"/>
        <path id="Trazado_134061" data-name="Trazado 134061" d="M555.386,2757.51a2.379,2.379,0,0,1-1.521-.48,1.7,1.7,0,0,1-.6-1.422,2.056,2.056,0,0,1,.19-.906,1.574,1.574,0,0,1,.571-.625,3.121,3.121,0,0,1,.815-.4,8.318,8.318,0,0,1,1.06-.253l1.123-.181c.408-.073.616-.29.616-.643a1.2,1.2,0,0,0-.435-1.032,1.743,1.743,0,0,0-1.1-.335,1.806,1.806,0,0,0-1.087.317,1.365,1.365,0,0,0-.516.978l-1.1-.235a2.171,2.171,0,0,1,.906-1.485,3.261,3.261,0,0,1,1.9-.5,3.891,3.891,0,0,1,1.005.127,2.708,2.708,0,0,1,.842.39,1.754,1.754,0,0,1,.6.742,2.8,2.8,0,0,1,.217,1.15v2.871a1.169,1.169,0,0,0,.163.724.669.669,0,0,0,.543.19h.118v.906h-.607c-.752,0-1.2-.308-1.322-.906H557.7A2.634,2.634,0,0,1,555.386,2757.51Zm.29-.987a1.811,1.811,0,0,0,1.485-.679,2.717,2.717,0,0,0,.571-1.811l-1.811.353a2.425,2.425,0,0,0-1.078.389,1.013,1.013,0,0,0-.018,1.521,1.409,1.409,0,0,0,.851.2Z" transform="translate(-534.755 -2695.22)"/>
        <path id="Trazado_134062" data-name="Trazado 134062" d="M565.508,2750.261a2.42,2.42,0,0,1,1.748.634,2.353,2.353,0,0,1,.652,1.811v4.682h-1.223v-4.411a1.62,1.62,0,0,0-.426-1.241,1.494,1.494,0,0,0-1.087-.408,1.7,1.7,0,0,0-1.241.48,1.984,1.984,0,0,0-.489,1.422v4.157h-1.186v-6.956h1.223v.906A2.336,2.336,0,0,1,565.508,2750.261Z" transform="translate(-535.604 -2695.215)"/>
        <path id="Trazado_134063" data-name="Trazado 134063" d="M573.9,2757.509a3.332,3.332,0,0,1-2.491-1,3.967,3.967,0,0,1,0-5.217,3.623,3.623,0,0,1,4.528-.389,3.079,3.079,0,0,1,1.177,1.685l-1.15.19a2.085,2.085,0,0,0-.788-1.087,2.133,2.133,0,0,0-1.259-.381,2.021,2.021,0,0,0-1.6.716,3.079,3.079,0,0,0,0,3.74,2.021,2.021,0,0,0,1.6.715,2.146,2.146,0,0,0,1.259-.38,2.086,2.086,0,0,0,.788-1.087l1.15.19a3.1,3.1,0,0,1-1.177,1.694A3.39,3.39,0,0,1,573.9,2757.509Z" transform="translate(-536.375 -2695.218)"/>
        <path id="Trazado_134064" data-name="Trazado 134064" d="M581.356,2757.51a2.379,2.379,0,0,1-1.522-.48,1.7,1.7,0,0,1-.6-1.422,2.057,2.057,0,0,1,.19-.906,1.609,1.609,0,0,1,.562-.625,3.322,3.322,0,0,1,.824-.4,8.358,8.358,0,0,1,1.06-.253l1.123-.181c.407-.073.616-.29.616-.643a1.2,1.2,0,0,0-.435-1.032,1.743,1.743,0,0,0-1.1-.335,1.806,1.806,0,0,0-1.087.317,1.365,1.365,0,0,0-.516.978l-1.1-.235a2.108,2.108,0,0,1,.906-1.485,3.218,3.218,0,0,1,1.893-.5,3.96,3.96,0,0,1,1.014.127,2.708,2.708,0,0,1,.842.39,1.755,1.755,0,0,1,.6.742,2.8,2.8,0,0,1,.217,1.15v2.871a1.169,1.169,0,0,0,.163.724.66.66,0,0,0,.543.19h.054v.906h-.616a1.159,1.159,0,0,1-1.313-.906h-.054A2.647,2.647,0,0,1,581.356,2757.51Zm.29-.987a1.811,1.811,0,0,0,1.485-.679,2.716,2.716,0,0,0,.571-1.811l-1.811.353a2.378,2.378,0,0,0-1.078.389,1.013,1.013,0,0,0-.018,1.521,1.41,1.41,0,0,0,.851.2Z" transform="translate(-537.205 -2695.22)"/>
        <path id="Trazado_134065" data-name="Trazado 134065" d="M593.115,2746.081h1.223v10.868h-1.186V2755.6a2.567,2.567,0,0,1-.987,1.1,2.72,2.72,0,0,1-1.476.407,3.137,3.137,0,0,1-1.259-.262,3.064,3.064,0,0,1-1.032-.725,3.232,3.232,0,0,1-.7-1.15,4.158,4.158,0,0,1-.263-1.485,3.687,3.687,0,0,1,.906-2.617,3.061,3.061,0,0,1,2.309-1.005,2.779,2.779,0,0,1,1.458.4,2.605,2.605,0,0,1,1,1.06Zm-2.192,9.962a2.1,2.1,0,0,0,1.612-.725,2.888,2.888,0,0,0,0-3.623,2.092,2.092,0,0,0-1.612-.734,2.128,2.128,0,0,0-1.63.707,2.618,2.618,0,0,0-.661,1.856,2.58,2.58,0,0,0,.661,1.812,2.128,2.128,0,0,0,1.6.7Z" transform="translate(-537.979 -2694.821)"/>
        <path id="Trazado_134066" data-name="Trazado 134066" d="M600.67,2757.508a3.628,3.628,0,0,1-1.811-.435,3.1,3.1,0,0,1-1.25-1.259,3.887,3.887,0,0,1-.462-1.92,3.542,3.542,0,0,1,.987-2.626,3.7,3.7,0,0,1,5.026,0,3.984,3.984,0,0,1,0,5.253A3.4,3.4,0,0,1,600.67,2757.508Zm0-1.014a2.156,2.156,0,0,0,1.639-.715,3.034,3.034,0,0,0,0-3.759,2.117,2.117,0,0,0-1.639-.716,2.072,2.072,0,0,0-1.63.716,3.034,3.034,0,0,0,0,3.759,2.11,2.11,0,0,0,1.63.688Z" transform="translate(-538.895 -2695.218)"/>
        <path id="Trazado_134067" data-name="Trazado 134067" d="M532.837,2776.223v-9.962h1.286v9.962Z" transform="translate(-532.828 -2696.725)"/>
        <path id="Trazado_134068" data-name="Trazado 134068" d="M540.624,2769.45a2.437,2.437,0,0,1,1.748.634,2.354,2.354,0,0,1,.652,1.811v4.628h-1.232v-4.41a1.649,1.649,0,0,0-.426-1.241,1.493,1.493,0,0,0-1.087-.407,1.7,1.7,0,0,0-1.241.48,1.984,1.984,0,0,0-.489,1.422v4.157h-1.223v-6.955h1.223v.906A2.319,2.319,0,0,1,540.624,2769.45Z" transform="translate(-533.252 -2697.026)"/>
        <path id="Trazado_134069" data-name="Trazado 134069" d="M552.26,2772.9v.335h-5.434a2.437,2.437,0,0,0,.67,1.811,2.174,2.174,0,0,0,1.585.625,2.114,2.114,0,0,0,1.15-.335,2.213,2.213,0,0,0,.8-.906l1.1.235a3.154,3.154,0,0,1-1.2,1.494,3.258,3.258,0,0,1-1.811.543,3.361,3.361,0,0,1-2.5-.969,4.121,4.121,0,0,1,0-5.289,3.346,3.346,0,0,1,2.472-.969,3.131,3.131,0,0,1,2.337.906A3.5,3.5,0,0,1,552.26,2772.9Zm-3.215-2.536a2.135,2.135,0,0,0-1.449.5,2.257,2.257,0,0,0-.734,1.431h4.166a2.072,2.072,0,0,0-.607-1.431,1.946,1.946,0,0,0-1.377-.471Z" transform="translate(-534.038 -2697.029)"/>
        <path id="Trazado_134070" data-name="Trazado 134070" d="M556.263,2770.819a2.119,2.119,0,0,1,.86-.906,2.607,2.607,0,0,1,1.34-.362v1.15a2.306,2.306,0,0,0-1.621.516,2.155,2.155,0,0,0-.552,1.648v3.668h-1.223v-6.955h1.2Z" transform="translate(-534.925 -2697.036)"/>
        <path id="Trazado_134071" data-name="Trazado 134071" d="M562.915,2776.295a1.81,1.81,0,0,1-1.358-.5,1.914,1.914,0,0,1-.5-1.385v-4.094h-1.422v-.978h.562a1,1,0,0,0,.77-.245,1.213,1.213,0,0,0,.226-.815v-1.259h1.132v2.319h1.6v.978h-1.6v3.967a1.034,1.034,0,0,0,.272.761.9.9,0,0,0,.7.271h.634v.978Z" transform="translate(-535.357 -2696.797)"/>
        <path id="Trazado_134072" data-name="Trazado 134072" d="M572.27,2772.9v.335h-5.434a2.437,2.437,0,0,0,.67,1.811,2.174,2.174,0,0,0,1.585.625,2.1,2.1,0,0,0,1.938-1.259l1.1.236a3.093,3.093,0,0,1-1.186,1.494,3.251,3.251,0,0,1-1.811.543,3.36,3.36,0,0,1-2.5-.969,4.121,4.121,0,0,1,0-5.289,3.333,3.333,0,0,1,2.463-.969,3.142,3.142,0,0,1,2.346.906A3.529,3.529,0,0,1,572.27,2772.9Zm-3.224-2.536a2.129,2.129,0,0,0-1.44.5,2.256,2.256,0,0,0-.734,1.431h4.166a2.072,2.072,0,0,0-.607-1.431,1.955,1.955,0,0,0-1.386-.471Z" transform="translate(-535.926 -2697.027)"/>
      </g>
      <g id="Grupo_63712" data-name="Grupo 63712" transform="translate(137.206 105.581)">
        <path id="Trazado_134073" data-name="Trazado 134073" d="M539.529,2655.371h2.11V2665.6h-2.454l-4.528-7.308v7.308h-2.119v-10.225H535l4.528,7.245Z" transform="translate(-532.537 -2654.891)"/>
        <path id="Trazado_134074" data-name="Trazado 134074" d="M551.971,2662.145v.489h-5.434a1.867,1.867,0,0,0,.58,1.331,2.02,2.02,0,0,0,2.237.208,1.587,1.587,0,0,0,.616-.734l1.866.272a3.178,3.178,0,0,1-1.277,1.711,3.755,3.755,0,0,1-2.146.607,3.934,3.934,0,0,1-2.835-1.005,3.624,3.624,0,0,1-1.051-2.771,3.7,3.7,0,0,1,1.051-2.78,3.833,3.833,0,0,1,2.771-1.014,3.323,3.323,0,0,1,3.623,3.686Zm-3.623-2.246a1.612,1.612,0,0,0-1.766,1.4h3.342a1.532,1.532,0,0,0-.507-1.042,1.6,1.6,0,0,0-1.032-.362Z" transform="translate(-533.668 -2655.181)"/>
        <path id="Trazado_134075" data-name="Trazado 134075" d="M559.406,2658.613h1.938v6.729a5.442,5.442,0,0,1-.272,1.811,2.927,2.927,0,0,1-.788,1.241,3.307,3.307,0,0,1-1.214.7,5,5,0,0,1-1.585.227q-2.88,0-3.749-2.255l1.694-.725a2.456,2.456,0,0,0,.779,1.06,2,2,0,0,0,1.2.335c1.259,0,1.893-.742,1.893-2.246v-.869a2.3,2.3,0,0,1-.906.716,3.07,3.07,0,0,1-1.3.272,3.234,3.234,0,0,1-1.277-.254,3.223,3.223,0,0,1-1.775-1.866,4.286,4.286,0,0,1,0-2.952,3.246,3.246,0,0,1,.724-1.123,3.025,3.025,0,0,1,1.06-.706,3.271,3.271,0,0,1,1.286-.263,2.98,2.98,0,0,1,1.349.308,2.092,2.092,0,0,1,.906.8Zm-3.125,4.809a1.755,1.755,0,0,0,1.331.562,1.812,1.812,0,0,0,1.34-.562,2.038,2.038,0,0,0,0-2.771,1.892,1.892,0,0,0-2.676-.041l-.041.041a1.939,1.939,0,0,0-.534,1.395,1.9,1.9,0,0,0,.58,1.376Z" transform="translate(-534.537 -2655.181)"/>
        <path id="Trazado_134076" data-name="Trazado 134076" d="M570.381,2663.917a6.772,6.772,0,0,0,.172,1.811v.2h-1.9l-.163-.788a2.347,2.347,0,0,1-1.014.7,3.824,3.824,0,0,1-1.313.236,3.978,3.978,0,0,1-.679-.063,2.527,2.527,0,0,1-.616-.217,1.814,1.814,0,0,1-.507-.38,1.512,1.512,0,0,1-.335-.58,2.124,2.124,0,0,1-.127-.788,2.184,2.184,0,0,1,.127-.788,1.871,1.871,0,0,1,.353-.589,2.228,2.228,0,0,1,.58-.435,4.452,4.452,0,0,1,.715-.308,8.329,8.329,0,0,1,.906-.226l1.2-.272a1.294,1.294,0,0,0,.543-.227.482.482,0,0,0,.154-.362.768.768,0,0,0-.353-.707,1.812,1.812,0,0,0-.906-.208,1.25,1.25,0,0,0-1.415,1.059c0,.018,0,.037-.006.055l-1.811-.326a2.446,2.446,0,0,1,1.051-1.666,4.209,4.209,0,0,1,2.282-.534q3.061,0,3.061,2.626Zm-3.623.734a1.632,1.632,0,0,0,1.259-.525,2.2,2.2,0,0,0,.489-1.558l-1.73.489a1.935,1.935,0,0,0-.725.3.615.615,0,0,0-.254.525.672.672,0,0,0,.272.571,1.106,1.106,0,0,0,.725.172Z" transform="translate(-535.496 -2655.187)"/>
        <path id="Trazado_134077" data-name="Trazado 134077" d="M575.747,2665.659a2.167,2.167,0,0,1-1.639-.589,2.286,2.286,0,0,1-.58-1.685v-3.432H572.1v-1.567h.462a1.2,1.2,0,0,0,.906-.308,1.568,1.568,0,0,0,.29-1.078v-.96h1.811v2.346h1.494v1.567h-1.467v3.215c0,.634.281.906.842.906h.652v1.549Z" transform="translate(-536.269 -2654.954)"/>
        <path id="Trazado_134078" data-name="Trazado 134078" d="M580.374,2657.187a1.169,1.169,0,0,1-.833-.344,1.139,1.139,0,0,1-.344-.833,1.114,1.114,0,0,1,.353-.824,1.159,1.159,0,0,1,1.639-.009l.009.009a1.168,1.168,0,0,1,.005,1.652l-.005.006A1.131,1.131,0,0,1,580.374,2657.187Zm-1.032,8.359V2658.3h2.047v7.245Z" transform="translate(-536.939 -2654.841)"/>
        <path id="Trazado_134079" data-name="Trazado 134079" d="M588.571,2658.631h2.155l-3.1,7.245h-1.811l-3.061-7.245H584.9l1.811,4.972Z" transform="translate(-537.275 -2655.199)"/>
        <path id="Trazado_134080" data-name="Trazado 134080" d="M595.742,2666.038a4.673,4.673,0,0,1-2.056-.444,3.352,3.352,0,0,1-1.413-1.313,3.858,3.858,0,0,1-.516-2.029,3.626,3.626,0,0,1,1.1-2.717,4.609,4.609,0,0,1,5.769,0,4.021,4.021,0,0,1,0,5.533A4.094,4.094,0,0,1,595.742,2666.038Zm0-1.621a1.877,1.877,0,0,0,1.44-.6,2.21,2.21,0,0,0,.543-1.567,2.254,2.254,0,0,0-.543-1.576,1.9,1.9,0,0,0-1.44-.589,1.81,1.81,0,0,0-1.4.6,2.564,2.564,0,0,0,0,3.134,1.812,1.812,0,0,0,1.386.6Z" transform="translate(-538.124 -2655.188)"/>
      </g>
    </g>
  </g>
</svg>
