<svg xmlns="http://www.w3.org/2000/svg" xmlns:xlink="http://www.w3.org/1999/xlink" width="160.199" height="150.249" viewBox="0 0 160.199 150.249">
  <defs>
    <linearGradient id="linear-gradient" x1="60.425" y1="163.829" x2="63.064" y2="165.324" gradientUnits="objectBoundingBox">
      <stop offset="0" stop-color="#d44f4a"/>
      <stop offset="1" stop-color="#e4c7a1"/>
    </linearGradient>
    <linearGradient id="linear-gradient-2" x1="54.175" y1="168.438" x2="56.593" y2="169.985" xlink:href="#linear-gradient"/>
    <linearGradient id="linear-gradient-3" x1="29.844" y1="574.446" x2="31.181" y2="579.651" xlink:href="#linear-gradient"/>
    <linearGradient id="linear-gradient-4" x1="32.868" y1="205.435" x2="34.325" y2="207.299" xlink:href="#linear-gradient"/>
    <linearGradient id="linear-gradient-5" x1="40.262" y1="165.289" x2="42.044" y2="166.804" xlink:href="#linear-gradient"/>
    <linearGradient id="linear-gradient-6" x1="28.248" y1="136.638" x2="29.53" y2="137.92" xlink:href="#linear-gradient"/>
  </defs>
  <g id="Grupo_63794" data-name="Grupo 63794" transform="translate(-481.172 -5419.551)">
    <g id="Grupo_63798" data-name="Grupo 63798">
      <g id="Grupo_63795" data-name="Grupo 63795">
        <path id="Trazado_134318" data-name="Trazado 134318" d="M488.277,5499.657c0-1.473.048-2.931.128-4.381l-7.088-.424q-.145,2.4-.145,4.805a79.763,79.763,0,0,0,37.3,67.716l3.8-6A72.7,72.7,0,0,1,488.277,5499.657Z" fill="url(#linear-gradient)"/>
        <path id="Trazado_134319" data-name="Trazado 134319" d="M634.266,5499.657a73.061,73.061,0,0,1-37.751,63.92l3.436,6.223a80.171,80.171,0,0,0,41.42-70.143Z" fill="url(#linear-gradient-2)"/>
        <path id="Trazado_134320" data-name="Trazado 134320" d="M608.049,5434.617a80.177,80.177,0,0,0-81.164-7.321l3.06,6.408a73.066,73.066,0,0,1,73.955,6.688Z" fill="url(#linear-gradient-3)"/>
      </g>
      <g id="Grupo_63796" data-name="Grupo 63796">
        <path id="Trazado_134321" data-name="Trazado 134321" d="M571.917,5445.246l1.361-6.977a62.727,62.727,0,0,0-74.484,56.47l7.081.569a55.612,55.612,0,0,1,66.01-50.062Z" fill="url(#linear-gradient-4)"/>
        <path id="Trazado_134322" data-name="Trazado 134322" d="M616.236,5491.792a55.637,55.637,0,0,1-53.194,63.494l.24,7.1a63.77,63.77,0,0,0,6.993-.625,62.7,62.7,0,0,0,52.993-70.984Z" fill="url(#linear-gradient-5)"/>
      </g>
      <circle id="Elipse_5348" data-name="Elipse 5348" cx="43.558" cy="43.558" r="43.558" transform="translate(517.713 5456.098)" fill="url(#linear-gradient-6)"/>
      <path id="Trazado_134323" data-name="Trazado 134323" d="M561.272,5547.661a48,48,0,1,1,48-48h0A48.06,48.06,0,0,1,561.272,5547.661Zm0-87.124a39.12,39.12,0,1,0,39.12,39.12h0A39.168,39.168,0,0,0,561.272,5460.537Z" fill="#e6e6e6"/>
      <g id="Grupo_63797" data-name="Grupo 63797">
        <path id="Trazado_134324" data-name="Trazado 134324" d="M548.207,5516.134q-6.463,0-9.668-4.39t-3.2-11.71q0-7.329,3.2-11.711t9.668-4.389q6.456,0,9.66,4.389t3.2,11.711q0,7.329-3.2,11.71T548.207,5516.134Zm-4.557-23.6a20.047,20.047,0,0,0,0,15.05,5.109,5.109,0,0,0,9.171,0,19.946,19.946,0,0,0,0-15.05,5.11,5.11,0,0,0-9.171,0Z" fill="#fff"/>
        <path id="Trazado_134325" data-name="Trazado 134325" d="M565.124,5490.574v-5.927H584.18v4.806l-6.368,7.257a9.057,9.057,0,0,1,5.791,3.14,8.947,8.947,0,0,1,2.051,5.807,9.492,9.492,0,0,1-3.316,7.681,12.767,12.767,0,0,1-8.491,2.788,18.476,18.476,0,0,1-10.461-3.653l2.852-5.527q4.413,3.125,7.881,3.116a5.608,5.608,0,0,0,3.453-1.017,3.492,3.492,0,0,0,1.353-2.964,3.629,3.629,0,0,0-1.553-3.075,7.261,7.261,0,0,0-4.318-1.13,14.886,14.886,0,0,0-4.141.8v-5.118l5.975-6.985Z" fill="#fff"/>
      </g>
    </g>
  </g>
</svg>
