<svg xmlns="http://www.w3.org/2000/svg" xmlns:xlink="http://www.w3.org/1999/xlink" width="160.198" height="150.249" viewBox="0 0 160.198 150.249">
  <defs>
    <linearGradient id="linear-gradient" x1="60.426" y1="163.829" x2="63.065" y2="165.324" gradientUnits="objectBoundingBox">
      <stop offset="0" stop-color="#d44f4a"/>
      <stop offset="1" stop-color="#e4c7a1"/>
    </linearGradient>
    <linearGradient id="linear-gradient-2" x1="54.175" y1="168.438" x2="56.593" y2="169.985" xlink:href="#linear-gradient"/>
    <linearGradient id="linear-gradient-3" x1="29.844" y1="574.446" x2="31.181" y2="579.651" xlink:href="#linear-gradient"/>
    <linearGradient id="linear-gradient-4" x1="32.868" y1="205.435" x2="34.324" y2="207.299" xlink:href="#linear-gradient"/>
    <linearGradient id="linear-gradient-5" x1="40.261" y1="165.289" x2="42.043" y2="166.804" xlink:href="#linear-gradient"/>
    <linearGradient id="linear-gradient-6" x1="28.247" y1="136.638" x2="29.53" y2="137.92" xlink:href="#linear-gradient"/>
  </defs>
  <g id="Grupo_63807" data-name="Grupo 63807" transform="translate(-1060.723 -5419.551)">
    <g id="Grupo_63811" data-name="Grupo 63811">
      <g id="Grupo_63808" data-name="Grupo 63808">
        <path id="Trazado_134342" data-name="Trazado 134342" d="M1067.827,5499.657c0-1.473.048-2.931.129-4.381l-7.089-.424q-.144,2.4-.144,4.805a79.762,79.762,0,0,0,37.3,67.716l3.8-6A72.7,72.7,0,0,1,1067.827,5499.657Z" fill="url(#linear-gradient)"/>
        <path id="Trazado_134343" data-name="Trazado 134343" d="M1213.816,5499.657a73.058,73.058,0,0,1-37.751,63.92l3.437,6.223a80.17,80.17,0,0,0,41.419-70.143Z" fill="url(#linear-gradient-2)"/>
        <path id="Trazado_134344" data-name="Trazado 134344" d="M1187.6,5434.617a80.178,80.178,0,0,0-81.165-7.321l3.06,6.408a73.068,73.068,0,0,1,73.956,6.688Z" fill="url(#linear-gradient-3)"/>
      </g>
      <g id="Grupo_63809" data-name="Grupo 63809">
        <path id="Trazado_134345" data-name="Trazado 134345" d="M1151.467,5445.246l1.362-6.977a62.726,62.726,0,0,0-74.485,56.47l7.081.569a55.611,55.611,0,0,1,66.01-50.062Z" fill="url(#linear-gradient-4)"/>
        <path id="Trazado_134346" data-name="Trazado 134346" d="M1195.786,5491.792a55.635,55.635,0,0,1-53.194,63.494l.24,7.1a63.528,63.528,0,0,0,6.993-.625,62.7,62.7,0,0,0,52.994-70.984Z" fill="url(#linear-gradient-5)"/>
      </g>
      <circle id="Elipse_5351" data-name="Elipse 5351" cx="43.558" cy="43.558" r="43.558" transform="translate(1097.264 5456.1)" fill="url(#linear-gradient-6)"/>
      <path id="Trazado_134347" data-name="Trazado 134347" d="M1140.822,5547.661a48,48,0,1,1,48-48h0A48.06,48.06,0,0,1,1140.822,5547.661Zm0-87.124a39.12,39.12,0,1,0,39.12,39.12h0A39.168,39.168,0,0,0,1140.822,5460.537Z" fill="#e6e6e6"/>
      <g id="Grupo_63810" data-name="Grupo 63810">
        <path id="Trazado_134348" data-name="Trazado 134348" d="M1126.884,5516.134q-6.447,0-9.659-4.39t-3.2-11.71q0-7.329,3.2-11.711t9.659-4.389q6.465,0,9.668,4.389t3.2,11.711q0,7.329-3.2,11.71T1126.884,5516.134Zm-4.581-23.6a19.748,19.748,0,0,0-.032,15.05,5.109,5.109,0,0,0,9.171,0,20.047,20.047,0,0,0,0-15.05,5.11,5.11,0,0,0-9.171,0Z" fill="#fff"/>
        <path id="Trazado_134349" data-name="Trazado 134349" d="M1156.233,5489.885a5.457,5.457,0,0,0-4.478,1.939,9.805,9.805,0,0,0-1.938,5.278,11.124,11.124,0,0,1,6.143-1.874,10.01,10.01,0,0,1,7.282,2.852,10.115,10.115,0,0,1,2.915,7.593,9.731,9.731,0,0,1-3.14,7.593,11.313,11.313,0,0,1-7.9,2.852,12.166,12.166,0,0,1-5.727-1.274,9.213,9.213,0,0,1-3.756-3.54,20.872,20.872,0,0,1-2.676-11.038,24.179,24.179,0,0,1,1.066-7.489,12.812,12.812,0,0,1,2.867-5.1,11.705,11.705,0,0,1,8.811-3.741,13.326,13.326,0,0,1,4.165.649,14.279,14.279,0,0,1,3.044,1.313,27.831,27.831,0,0,1,2.4,1.691l-3.292,4.9c-.184-.177-.441-.417-.8-.713a10,10,0,0,0-2.026-1.162A6.913,6.913,0,0,0,1156.233,5489.885Zm-.913,11.214a5.1,5.1,0,0,0-3.477,1.226,4,4,0,0,0-1.4,3.2,4.657,4.657,0,0,0,1.337,3.364,4.409,4.409,0,0,0,3.34,1.4,4.687,4.687,0,0,0,3.333-1.242,4.2,4.2,0,0,0,1.337-3.2,4.862,4.862,0,0,0-1.2-3.34A4.142,4.142,0,0,0,1155.32,5501.1Z" fill="#fff"/>
      </g>
    </g>
  </g>
</svg>
